<?xml version="1.0" encoding="UTF-8" standalone="no"?>
<!DOCTYPE svg PUBLIC "-//W3C//DTD SVG 1.1//EN" "http://www.w3.org/Graphics/SVG/1.1/DTD/svg11.dtd">
<svg width="100%" height="100%" viewBox="0 0 650 650" version="1.1" xmlns="http://www.w3.org/2000/svg" xmlns:xlink="http://www.w3.org/1999/xlink" xml:space="preserve" xmlns:serif="http://www.serif.com/" style="fill-rule:evenodd;clip-rule:evenodd;stroke-linejoin:round;stroke-miterlimit:2;">
    <g transform="matrix(1,0,0,1,-921.168,-475.168)">
        <g transform="matrix(1.57404,-1.57404,1.53005,1.53005,770.681,-536.437)">
            <path d="M-161.229,508.551C-161.229,490.873 -175.18,476.521 -192.364,476.521L-354.709,476.521C-371.893,476.521 -385.844,490.873 -385.844,508.551L-385.844,675.563C-385.844,693.241 -371.893,707.594 -354.709,707.594L-192.364,707.594C-175.18,707.594 -161.229,693.241 -161.229,675.563L-161.229,508.551Z" style="fill:rgb(64,64,64);"/>
            <path d="M-161.229,508.551C-161.229,490.873 -175.18,476.521 -192.364,476.521L-354.709,476.521C-371.893,476.521 -385.844,490.873 -385.844,508.551L-385.844,675.563C-385.844,693.241 -371.893,707.594 -354.709,707.594L-192.364,707.594C-175.18,707.594 -161.229,693.241 -161.229,675.563L-161.229,508.551ZM-163.026,508.551L-163.026,675.563C-163.026,692.221 -176.172,705.745 -192.364,705.745L-354.709,705.745C-370.901,705.745 -384.047,692.221 -384.047,675.563L-384.047,508.551C-384.047,491.893 -370.901,478.369 -354.709,478.369C-354.709,478.369 -192.364,478.369 -192.364,478.369C-176.172,478.369 -163.026,491.893 -163.026,508.551Z" style="fill:white;"/>
        </g>
    </g>
</svg>
