<?xml version="1.0" encoding="UTF-8"?>
<svg width="1200pt" height="1200pt" version="1.1" viewBox="0 0 1200 1200" xmlns="http://www.w3.org/2000/svg">
 <path d="m783.77 63.469c-8.8984-2.6055-18.371-2.5312-27.227 0.22266-8.8555 2.75-16.699 8.0547-22.555 15.246l-93.305 78.586c-4.5859 3.7461-7.6523 9.0312-8.6211 14.871-0.97266 5.8438 0.21875 11.836 3.3477 16.863 3.7188 5.7344 9.7227 9.5977 16.484 10.609 6.7578 1.0078 13.629-0.93359 18.859-5.3359l20.602-17.344c-9.375 21.094-19.289 42.188-29.016 62.086l-59.273-30.867h-0.21094l-154.55-80.391-1.4062-3.5859c-5.332-13.77-16.184-24.68-29.922-30.09-13.742-5.4102-29.117-4.8242-42.406 1.6133-64.734 31.219-170.11 89.203-209.95 151.24-47.883 74.484-89.672 210.59-103.95 260.16-3.7695 12.832-1.3633 26.691 6.5156 37.5 35.742 48.586 101.65 77.344 153.28 93.281 6.8711 2.1289 14.344 0.92188 20.191-3.2656 5.8477-4.1875 9.3984-10.871 9.5977-18.062 1.5703-60.305-1.0078-119.27-3.5391-152.13-0.50391-6.3125 1.5234-12.57 5.6406-17.383 4.1133-4.8164 9.9766-7.7969 16.293-8.2812 6.3125-0.48437 12.562 1.5625 17.367 5.6914 4.8008 4.1289 7.7617 10 8.2305 16.316 1.3594 17.578 8.5781 120 0.77344 215.62 2.2031 98.789-23.625 216.23-35.156 263.11-3.6289 14.871-1.2539 30.574 6.6094 43.711 40.781 68.156 113.77 106.95 181.03 128.91 71.738 23.191 147.54 31.102 222.52 23.227 156.84-15.914 231.73-50.836 273.98-83.367 10.453-8.0703 17.836-19.465 20.926-32.305s1.7031-26.348-3.9336-38.289c-46.055-97.828-49.898-268.22-50.203-295.97-4.6445-82.172-15.305-163.89-31.898-244.5-1.7188-8.2461 1.043-16.789 7.2656-22.465 6.2227-5.6797 14.98-7.6523 23.035-5.1914 8.0547 2.4609 14.215 8.9922 16.199 17.18 13.359 63.551 22.953 127.84 28.734 192.52 0.73438 7.8945 5.4844 14.855 12.57 18.414 7.0898 3.5625 15.508 3.2188 22.281-0.90625 48.594-29.906 94.57-63.871 137.44-101.53 10.91-9.6562 16.289-24.117 14.344-38.555-41.016-311.65-261.52-409.22-357-437.16zm-306.23 133.41 71.977 37.5-38.133 32.109c-12.82-24.75-24.07-48.164-33.844-69.609zm131.84 146.34c-3.4648 6.4844-9.1172 11.535-15.949 14.254-6.832 2.7148-14.41 2.9258-21.383 0.59375-6.9727-2.3359-12.895-7.0625-16.715-13.348-7.25-11.984-14.148-23.82-20.695-35.508l60.68-51.117 45.914 23.883c-11.836 23.227-22.805 44.156-31.852 61.242z" fill="#fff"/>
</svg>
