<?xml version="1.0" encoding="UTF-8"?>
<svg width="1200pt" height="1200pt" version="1.1" viewBox="0 0 1200 1200" xmlns="http://www.w3.org/2000/svg">
 <g fill="#fff">
  <path d="m631.97 181.27c14.203 9.8672 39.188 25.312 67.688 34.195 4.0117 1.2812 8.3555 1.0742 12.227-0.58203 3.875-1.6562 7.0234-4.6523 8.8672-8.4414 11.203-23.203 38.414-69.727 78.516-75 6.0938-0.78906 11.391-4.5742 14.113-10.086 2.7227-5.5078 2.5117-12.016-0.56641-17.336-8.4258-14.895-22.094-26.125-38.344-31.5-14.332-4.4844-29.723-4.2617-43.922 0.63281-24.562 8.0391-69.609 29.836-103.45 85.523-2.2383 3.6719-2.9805 8.0664-2.0742 12.27 0.91016 4.2031 3.3945 7.9023 6.9492 10.324z"/>
  <path d="m842.39 263.53c19.945 9.2969 40.5 17.223 61.523 23.719 4.7578 1.4297 9.8242 1.4844 14.613 0.16016 4.7891-1.3203 9.1055-3.9688 12.457-7.6367 21.094-23.438 75.562-69.398 151.9-28.242 8.6016 4.6875 18.75-3.0234 16.102-12.234-9.7734-33.656-37.359-89.297-113.65-96.094-17.738-1.5703-35.605 0.88281-52.266 7.1719-25.547 9.6328-65.32 30.633-100.27 74.859-4.7695 6.0703-6.4609 14.008-4.5859 21.496s7.1055 13.691 14.172 16.801z"/>
  <path d="m1023.7 268.69c8.2305-0.058594 16.445 0.72656 24.516 2.3438 16.746 3.2852 31.953 11.977 43.289 24.734 11.332 12.762 18.168 28.887 19.453 45.906 5.2969 77.344 15.539 309.38-42.586 415.03-12.773 23.203-46.523 24.539-61.43 2.5547-6.0312-8.7891-7.5742-19.898-4.1719-30 10.453-30.703 30.469-109.85 23.438-252.09 0 0-8.0625-124.76-22.406-183.73-1.3672-6.0312 0.097656-12.359 3.9727-17.18 3.875-4.8203 9.7422-7.6094 15.926-7.5703z"/>
  <path d="m843.96 653.25c-30.469 28.945-67.828 51.211-110.91 66.164-38.156 13.266-77.602 17.836-116.55 19.617-142.62 6.4922-234.61-75.703-281.65-134.06-19.758-24.516-58.266-23.555-77.062 1.6641-38.578 51.773-84.211 103.8-114.4 137.02-28.012 30.293-46.852 67.914-54.328 108.49-24.586 140.18 63.281 215.13 129.52 250.9 34.219 18.336 72.461 27.879 111.28 27.773h429.84c184.34 0 192.84-178.52 192.84-178.52v-351.19c0-23.133-29.93-33.586-44.906-15.633-19.895 23.809-41.156 46.441-63.68 67.781z"/>
  <path d="m869.32 344.13c-1.5469-0.60937-3.0938-1.1953-4.6875-1.7344-103.64-36.375-214.92-90.375-283.92-125.81-18.168-9.3281-39.07-11.855-58.938-7.1289-19.871 4.7266-37.395 16.398-49.414 32.91-25.57 35.648-61.219 80.156-101.2 114.84l-1.4766 1.2891c-23.965 21.121-39.887 49.875-45.078 81.395-5.1914 31.52 0.67578 63.863 16.602 91.551 2.5312 4.4844 5.2656 9.0938 8.2031 13.828 76.359 123.23 231.02 178.12 367.71 130.78 36.609-12.727 68.156-31.477 93.75-55.781 40.125-37.828 75.77-80.137 106.24-126.09 16.84-25.527 21.234-57.301 11.953-86.441s-31.242-52.52-59.742-63.605zm-339.49 249.56c-9.1914-0.25391-17.91-4.125-24.262-10.777-6.3477-6.6484-9.8164-15.535-9.6445-24.727 0.16797-9.1953 3.9609-17.949 10.551-24.359 6.5938-6.4102 15.449-9.957 24.645-9.8711 9.1914 0.085937 17.98 3.8008 24.453 10.332 6.4688 6.5312 10.098 15.355 10.094 24.551-0.13672 9.3711-3.9883 18.309-10.707 24.84-6.7188 6.5352-15.758 10.137-25.129 10.012z"/>
 </g>
</svg>
