<?xml version="1.0" encoding="UTF-8" standalone="no"?>
<!DOCTYPE svg PUBLIC "-//W3C//DTD SVG 1.1//EN" "http://www.w3.org/Graphics/SVG/1.1/DTD/svg11.dtd">
<svg width="100%" height="100%" viewBox="0 0 512 162" version="1.1" xmlns="http://www.w3.org/2000/svg" xmlns:xlink="http://www.w3.org/1999/xlink" xml:space="preserve" xmlns:serif="http://www.serif.com/" style="fill-rule:evenodd;clip-rule:evenodd;stroke-linejoin:round;stroke-miterlimit:2;">
    <g transform="matrix(1,0,0,1,-56.2442,-428.91)">
        <g transform="matrix(0.470771,0,0,0.470771,29.7661,226.992)">
            <path d="M725.53,467.23C725.553,457.078 721.542,447.335 714.374,440.148C707.21,432.961 697.479,428.918 687.327,428.91L496.267,428.91C481.884,428.91 468.087,434.625 457.919,444.797C447.747,454.965 442.032,468.762 442.032,483.145L442.032,616.415C442.032,630.798 447.747,644.595 457.919,654.763C468.087,664.935 481.884,670.65 496.267,670.65L687.327,670.65C697.46,670.65 707.175,666.627 714.343,659.462C721.507,652.294 725.531,642.579 725.531,632.446L725.531,626.259C725.531,621.844 723.777,617.614 720.656,614.493C717.535,611.371 713.304,609.618 708.89,609.618L528.94,609.618C523.217,609.625 517.725,607.356 513.678,603.309C509.627,599.266 507.354,593.778 507.354,588.055L507.354,511.578C507.354,505.851 509.627,500.363 513.678,496.316C517.725,492.265 523.213,489.992 528.94,489.992L708.89,489.992C713.304,489.992 717.535,488.238 720.656,485.117C723.778,481.996 725.531,477.765 725.531,473.351L725.53,467.23Z" style="fill:white;fill-rule:nonzero;"/>
            <path d="M641.95,524.39L701.458,524.39C714.751,524.39 725.528,537.683 725.528,548.46L725.528,551.155C725.528,564.448 714.751,575.225 701.458,575.225L641.95,575.225C628.657,575.225 617.88,561.932 617.88,551.155L617.88,548.46C617.88,535.167 628.657,524.39 641.95,524.39Z" style="fill:white;fill-rule:nonzero;"/>
            <path d="M89.883,637.5L360.653,637.5C369.59,637.5 378.165,633.949 384.485,627.629C390.805,621.309 394.356,612.734 394.356,603.797L394.356,479.037C394.356,474.521 392.559,470.189 389.364,466.998C386.169,463.807 381.833,462.014 377.317,462.021L89.877,462.021C80.951,462.041 72.397,465.599 66.092,471.916C59.787,478.236 56.244,486.799 56.244,495.725L56.244,603.885C56.268,612.795 59.822,621.334 66.123,627.631C72.428,633.928 80.967,637.475 89.877,637.494L89.883,637.5Z" style="fill:white;fill-rule:nonzero;"/>
            <path d="M1129.9,633.47C1131.4,636.529 1134.81,638.154 1138.13,637.388C1141.45,636.622 1143.81,633.669 1143.82,630.259L1143.82,479.039C1143.82,474.527 1142.03,470.199 1138.84,467.008C1135.65,463.817 1131.32,462.024 1126.81,462.024L970.617,462.024C965.202,461.821 960.359,465.352 958.894,470.563C957.425,475.778 959.726,481.317 964.452,483.961C1019.23,517.129 1068.73,558.332 1111.29,606.191C1118.66,614.433 1124.91,623.605 1129.9,633.472L1129.9,633.47Z" style="fill:white;fill-rule:nonzero;"/>
            <path d="M789.38,465.16C785.423,464.336 781.302,465.336 778.165,467.887C775.028,470.437 773.208,474.266 773.208,478.309L773.208,625.969C773.192,632.488 777.872,638.071 784.294,639.188C813.333,644.156 893.204,658.618 954.894,741.188C980.98,776.086 1031.84,780.633 1066.01,753.633C1083.22,739.977 1094.03,719.817 1095.88,697.922C1097.73,676.031 1090.46,654.344 1075.79,637.992C1021.74,577.64 925.647,494.152 789.377,465.162L789.38,465.16ZM890.44,582.72C890.139,584.251 889.694,585.751 889.104,587.197C888.487,588.63 887.749,590.009 886.901,591.322C886.026,592.619 885.03,593.826 883.924,594.931C882.835,596.048 881.628,597.04 880.315,597.884C879.018,598.794 877.635,599.579 876.19,600.228C874.745,600.802 873.256,601.259 871.737,601.587C864.725,602.978 857.464,601.15 851.94,596.611C846.42,592.072 843.225,585.299 843.237,578.15C843.276,571.822 845.803,565.759 850.268,561.275C851.385,560.177 852.6,559.189 853.901,558.322C855.194,557.462 856.569,556.732 858.002,556.142C859.444,555.556 860.932,555.099 862.456,554.783C867.081,553.853 871.881,554.329 876.237,556.142C877.678,556.736 879.057,557.466 880.362,558.322C881.651,559.197 882.858,560.185 883.971,561.275C888.436,565.759 890.963,571.822 891.002,578.15C890.975,579.689 890.787,581.22 890.44,582.72L890.44,582.72ZM998.65,664.892C998.353,666.427 997.9,667.927 997.291,669.369C996.697,670.802 995.966,672.173 995.111,673.47C994.248,674.775 993.252,675.986 992.134,677.08C987.666,681.552 981.603,684.068 975.282,684.068C968.961,684.068 962.899,681.552 958.43,677.08C957.329,675.978 956.341,674.767 955.477,673.47C954.606,672.185 953.876,670.81 953.298,669.369C952.688,667.927 952.235,666.427 951.938,664.892C951.27,661.802 951.27,658.607 951.938,655.517C952.235,653.982 952.688,652.482 953.298,651.04C953.868,649.595 954.598,648.22 955.477,646.939C956.348,645.634 957.337,644.412 958.43,643.283C962.899,638.81 968.961,636.294 975.282,636.294C981.603,636.294 987.665,638.81 992.134,643.283C993.24,644.404 994.236,645.626 995.111,646.939C995.97,648.232 996.701,649.607 997.291,651.04C997.9,652.482 998.353,653.982 998.65,655.517C999.287,658.611 999.287,661.798 998.65,664.892Z" style="fill:white;fill-rule:nonzero;"/>
        </g>
    </g>
</svg>
