<?xml version="1.0" encoding="UTF-8"?>
<svg width="1200pt" height="1200pt" version="1.1" viewBox="0 0 1200 1200" xmlns="http://www.w3.org/2000/svg">
 <g fill="#fff">
  <path d="m805.48 73.477c-1.7812-0.77344-3.6328-1.5234-5.4844-2.3438-28.898-10.906-60.789-10.863-89.664 0.11328-28.871 10.977-52.73 32.137-67.086 59.488-12.539 23.953-18.305 52.078-17.086 83.297 0.52734 16.645-5.8594 32.766-17.648 44.531l-7.1953 7.1719c-6.4102 6.3828-10.02 15.051-10.035 24.098-0.019532 9.0469 3.5586 17.727 9.9414 24.137s15.051 10.02 24.098 10.035c9.0469 0.019532 17.727-3.5586 24.137-9.9414l7.1953-7.1719c25.199-25.223 38.781-59.785 37.5-95.414-0.72656-19.219 2.3438-35.695 9.375-48.961 6.7539-12.508 17.781-22.168 31.07-27.215s27.949-5.1484 41.305-0.27734c0.84375 0.32812 1.6641 0.65625 2.3438 1.0078 18.445 8.0156 27.305 30.07 20.203 50.227-6.7461 18.371-10.031 37.832-9.6797 57.398-0.24219 9.3633 3.3828 18.41 10.023 25.02 6.6367 6.6055 15.703 10.184 25.066 9.8984 9.3594-0.28906 18.188-4.418 24.41-11.418s9.2852-16.258 8.4688-25.586c-0.078125-11.203 1.9062-22.328 5.8594-32.812 19.125-53.625-6.0469-113.06-57.117-135.28z"/>
  <path d="m584.81 386.65c0 36.129-29.285 65.414-65.414 65.414-36.129 0-65.414-29.285-65.414-65.414 0-36.129 29.285-65.414 65.414-65.414 36.129 0 65.414 29.285 65.414 65.414"/>
  <path d="m442.97 514.34c8.3398-8.6523 11.504-21.059 8.3242-32.645-3.1797-11.59-12.23-20.645-23.816-23.828-11.586-3.1836-23.992-0.027343-32.648 8.3086l-89.484 89.484c-8.6055 8.6055-11.965 21.145-8.8164 32.898 3.1523 11.75 12.332 20.93 24.082 24.082 11.754 3.1484 24.293-0.21094 32.898-8.8164z"/>
  <path d="m256.38 624.09c-36.07 1.0547-100.99 9.6797-157.95 52.711-41.227 31.195-49.617 65.625-46.383 94.125 2.6094 21.895 12.508 42.277 28.098 57.871 15.594 15.59 35.977 25.488 57.871 28.098 28.477 3.2578 62.93-5.1328 94.148-46.383 43.031-56.859 51.562-121.88 52.711-157.83 0.21484-7.6328-2.7148-15.016-8.1055-20.422s-12.762-8.3633-20.395-8.1719z"/>
  <path d="m1084.9 352.88c-1.7812-0.77344-3.6328-1.5234-5.4844-2.2266-28.891-10.914-60.77-10.887-89.641 0.074218-28.871 10.961-52.738 32.098-67.109 59.434-12.562 23.953-18.305 51.938-17.109 83.203 0.55078 16.648-5.8398 32.781-17.648 44.531l-7.1719 7.1719c-6.582 6.3398-10.344 15.062-10.43 24.203s3.5039 17.934 9.9688 24.398c6.4609 6.4648 15.25 10.062 24.391 9.9805s17.867-3.8359 24.211-10.418l7.1953-7.1953c25.199-25.211 38.785-59.766 37.5-95.391-0.75-19.219 2.3438-35.695 9.375-48.961 6.7461-12.508 17.77-22.172 31.055-27.219 13.285-5.0508 27.945-5.1484 41.297-0.27344l2.4609 0.98438c18.422 8.0156 27.305 30.094 20.203 50.227-6.7461 18.379-10.027 37.848-9.6797 57.422 1.0156 11.664 7.957 21.988 18.371 27.336 10.414 5.3477 22.848 4.9688 32.918-1 10.074-5.9688 16.371-16.695 16.68-28.398-0.089843-11.207 1.8984-22.332 5.8594-32.812 19.031-53.438-6.1406-112.95-57.211-135.07z"/>
  <path d="m752.53 619.78c-12.27 12.266-19.16 28.906-19.16 46.254 0 17.352 6.8906 33.988 19.16 46.258 12.266 12.266 28.906 19.156 46.254 19.156s33.988-6.8906 46.254-19.156c12.27-12.27 19.16-28.906 19.16-46.258 0-17.348-6.8906-33.988-19.16-46.254-12.266-12.266-28.906-19.16-46.254-19.16s-33.988 6.8945-46.254 19.16z"/>
  <path d="m674.13 745.57-89.484 89.484c-8.5977 8.6055-11.957 21.141-8.8047 32.891s12.332 20.926 24.082 24.07 24.289-0.21484 32.887-8.8203l89.484-89.484c8.5977-8.5977 11.957-21.133 8.8086-32.879-3.1445-11.75-12.32-20.926-24.07-24.07-11.746-3.1484-24.281 0.21094-32.879 8.8086z"/>
  <path d="m535.76 903.49c-36.047 1.0547-100.97 9.6562-157.83 52.711-41.25 31.195-49.617 65.625-46.383 94.125 2.6055 21.898 12.5 42.281 28.094 57.875s35.977 25.488 57.875 28.094c28.477 3.2344 62.953-5.1328 94.125-46.453 43.055-56.859 51.562-121.88 52.711-157.83 0.20313-7.6367-2.7461-15.023-8.1562-20.418-5.4102-5.3945-12.801-8.3281-20.438-8.1055z"/>
 </g>
</svg>
