<?xml version="1.0" encoding="UTF-8"?>
<svg width="1200pt" height="1200pt" version="1.1" viewBox="0 0 1200 1200" xmlns="http://www.w3.org/2000/svg">
 <g fill="#fff">
  <path d="m664.97 374.04h-74.039c-5.4805-0.003906-10.727 2.2266-14.523 6.1758-3.8008 3.9492-5.8281 9.2773-5.6094 14.754 1.5703 39.844 3.0703 87.891 3.7734 137.06 0.050782 4.6445 1.9414 9.0781 5.2617 12.324 3.3164 3.25 7.7891 5.0469 12.434 4.9961 19.125-0.1875 44.203-0.30469 72.164 0 5.4688 0.042969 10.73-2.0977 14.617-5.9453 3.8828-3.8516 6.0703-9.0938 6.0781-14.562v-134.65c0-5.3477-2.125-10.473-5.9023-14.254-3.7812-3.7773-8.9062-5.9023-14.254-5.9023z"/>
  <path d="m195.09 1143.9h721.59c10.996 0.011719 21.707-3.4688 30.594-9.9453 8.8828-6.4766 15.48-15.609 18.836-26.078 14.977-47.062 29.836-139.52-14.344-273.4-10.457-31.586-15.77-64.648-15.727-97.922 0.16406-78.609 1.8984-225.77 11.719-340.73 0.47266-5.6133-1.4336-11.172-5.25-15.316-3.8203-4.1406-9.1992-6.4922-14.836-6.4805h-174.75c-5.3398 0.007813-10.461 2.1328-14.238 5.9102-3.7734 3.7812-5.8945 8.9062-5.8945 14.246v345.96c0 85.359-46.148 162.82-120.4 202.17-37.031 19.617-80.367 32.531-128.77 38.367-3.6094 0.4375-7.2383 0.65625-10.875 0.65625-20.352 0.007813-40.078-7.043-55.812-19.949-15.734-12.906-26.508-30.871-30.484-50.832-3.457-16.961-8.7031-33.508-15.656-49.359-2.5234-5.5859-6.9883-10.07-12.566-12.617-5.5742-2.5469-11.887-2.9844-17.762-1.2344-7.8125 2.2656-15.727 4.5469-23.742 6.8438 0 0-174.28 47.039-165.49 248.09 0.55469 11.246 5.4219 21.848 13.586 29.598 8.168 7.75 19.008 12.059 30.266 12.027z"/>
  <path d="m1045.5 102.02c5.0938-9.7266 4.7305-21.406-0.95312-30.801-5.6836-9.3945-15.863-15.133-26.844-15.137h-522.66c-10.984-0.003907-21.172 5.7305-26.859 15.125-5.6914 9.3945-6.0547 21.082-0.96094 30.812l31.336 59.812c11.477 21.902 13.18 47.629 4.6875 70.852l-18.75 51.562c-3.5312 9.625-2.1367 20.367 3.7344 28.773s15.477 13.414 25.727 13.414h485.16c10.25-0.003906 19.855-5.0117 25.73-13.414 5.8711-8.4023 7.2734-19.145 3.7539-28.773l-18.75-51.562c-8.4805-23.223-6.7773-48.945 4.6875-70.852z"/>
  <path d="m557.32 776.04c-3.5742-2.9766-8.0781-4.6172-12.73-4.6367-4.6523-0.023438-9.168 1.5742-12.77 4.5195-9.6328 8.0859-20.547 14.504-32.297 18.984-21.844 8.3203-45.984 16.875-72.656 25.781-4.8633 1.6094-8.8281 5.1914-10.922 9.8672-2.0938 4.6758-2.1289 10.016-0.09375 14.719 7.6445 17.945 13.453 36.621 17.344 55.734 1.9883 10.066 7.7109 19.004 16.02 25.027 8.3086 6.0195 18.586 8.6758 28.77 7.4336 42.562-5.1328 80.297-16.289 112.15-33.164 9.6289-5.1211 18.77-11.113 27.305-17.906 5.582-4.5586 9.2188-11.07 10.176-18.211 0.96094-7.1445-0.83594-14.383-5.0195-20.25-18.633-26.719-43.688-50.273-65.273-67.898z"/>
  <path d="m674.46 802.17c7.0664-19.91 10.676-40.887 10.664-62.016v-122.7c-0.007812-5.4102-2.1445-10.598-5.957-14.438-3.8086-3.8398-8.9766-6.0195-14.387-6.0703-28.125-0.23438-53.484 0-72.656 0-4.6016 0.054687-8.9961 1.9141-12.246 5.1719-3.2461 3.2617-5.0859 7.6641-5.1211 12.266-0.28125 27.938-0.96094 54.961-2.2031 79.688-0.23828 4.6211-0.76172 9.2227-1.5703 13.781-0.80859 4.8008-0.30469 9.7305 1.457 14.27 1.7617 4.5352 4.7148 8.5156 8.5508 11.512 22.547 17.906 49.852 42.516 72.281 71.531 2.6641 3.5781 7.0664 5.4141 11.484 4.7891 4.4141-0.625 8.1367-3.6133 9.7031-7.7891z"/>
 </g>
</svg>
