<?xml version="1.0" encoding="UTF-8" standalone="no"?>
<!DOCTYPE svg PUBLIC "-//W3C//DTD SVG 1.1//EN" "http://www.w3.org/Graphics/SVG/1.1/DTD/svg11.dtd">
<svg width="100%" height="100%" viewBox="0 0 443 512" version="1.1" xmlns="http://www.w3.org/2000/svg" xmlns:xlink="http://www.w3.org/1999/xlink" xml:space="preserve" xmlns:serif="http://www.serif.com/" style="fill-rule:evenodd;clip-rule:evenodd;stroke-linejoin:round;stroke-miterlimit:2;">
    <g transform="matrix(1,0,0,1,-141.518,-69.6762)">
        <g transform="matrix(0.482722,0,0,0.482722,73.2039,36.0419)">
            <path d="M819.94,775.1C837.569,755.909 849.76,732.366 855.26,706.897C879.283,594.397 889.733,479.417 886.385,364.427C886.209,359.447 883.944,354.767 880.143,351.54C876.342,348.31 871.362,346.829 866.416,347.458C737.646,363.7 652.436,314.786 610.946,281.833C607.801,279.317 603.899,277.946 599.872,277.946C595.845,277.946 591.942,279.317 588.798,281.833C553.032,310.38 484.618,350.716 383.698,350.716C366.874,350.696 350.065,349.614 333.378,347.482C328.44,346.88 323.479,348.38 319.706,351.618C315.929,354.853 313.686,359.529 313.526,364.497C310.178,479.477 320.628,594.447 344.651,706.947C350.155,732.416 362.346,755.959 379.971,775.15C415.76,814.15 485.041,881.13 572.421,924.19C589.761,932.698 610.066,932.698 627.405,924.19C714.85,881.088 784.155,814.1 819.945,775.1L819.94,775.1Z" style="fill:white;fill-rule:nonzero;"/>
            <path d="M618.54,77.766C613.755,72.61 607.036,69.676 600.001,69.676C592.966,69.676 586.247,72.61 581.462,77.766C463.732,205.056 305.062,181.496 214.502,152.766C210.576,151.524 206.295,152.957 203.904,156.313C201.517,159.668 201.564,164.18 204.025,167.485C239.439,215.602 273.213,257.719 293.087,281.865C299.775,290.088 309.173,295.654 319.595,297.568C491.605,328.248 578.275,228.451 582.095,224.021C586.556,218.748 593.095,215.685 600.001,215.63C606.982,215.638 613.599,218.736 618.071,224.091C621.751,228.451 708.423,328.221 880.431,297.568C890.853,295.654 900.251,290.088 906.939,281.865C926.72,257.724 960.494,215.607 996.001,167.485C998.435,164.173 998.466,159.673 996.079,156.325C993.693,152.978 989.427,151.544 985.501,152.767C894.939,181.501 736.271,205.056 618.541,77.767L618.54,77.766Z" style="fill:white;fill-rule:nonzero;"/>
            <path d="M563.98,972.23C463.88,926.082 385.13,850.35 345.36,806.95C322.059,781.583 305.95,750.458 298.696,716.786C261.876,545.696 263.985,403.286 267.266,343.616C267.887,332.343 264.258,321.245 257.094,312.514C235.602,286.358 197.68,239.155 158.656,185.364C156.312,181.903 151.965,180.411 147.992,181.704C144.015,183.001 141.379,186.766 141.523,190.942C142.273,363.772 174.007,667.422 186.054,776.642C189.203,805.091 201.183,831.833 220.32,853.119C313.508,956.999 475.79,1073.76 554.61,1127.9C558.911,1130.82 564.47,1131.13 569.067,1128.7C573.665,1126.28 576.552,1121.52 576.571,1116.32L576.571,991.771C576.567,987.65 575.38,983.615 573.149,980.15C570.919,976.685 567.735,973.931 563.985,972.224L563.98,972.23Z" style="fill:white;fill-rule:nonzero;"/>
            <path d="M1041.4,185.37C1002.28,239.276 964.361,286.36 942.962,312.52C935.79,321.247 932.153,332.344 932.767,343.622C936.048,403.294 938.158,545.652 901.337,716.792C894.083,750.464 877.974,781.589 854.673,806.956C814.829,850.315 736.153,926.086 636.053,972.236C632.323,973.963 629.166,976.72 626.955,980.185C624.748,983.65 623.576,987.673 623.584,991.783L623.584,1116.26C623.604,1121.46 626.49,1126.22 631.088,1128.65C635.686,1131.07 641.244,1130.76 645.545,1127.84C724.178,1073.7 886.575,956.932 979.765,853.132C998.878,831.862 1010.85,805.144 1014.01,776.726C1026.05,667.506 1057.81,363.846 1058.54,191.026C1058.71,186.834 1056.09,183.037 1052.11,181.725C1048.12,180.412 1043.75,181.904 1041.4,185.377L1041.4,185.37Z" style="fill:white;fill-rule:nonzero;"/>
        </g>
    </g>
</svg>
