<?xml version="1.0" encoding="UTF-8" standalone="no"?>
<!DOCTYPE svg PUBLIC "-//W3C//DTD SVG 1.1//EN" "http://www.w3.org/Graphics/SVG/1.1/DTD/svg11.dtd">
<svg width="100%" height="100%" viewBox="0 0 479 512" version="1.1" xmlns="http://www.w3.org/2000/svg" xmlns:xlink="http://www.w3.org/1999/xlink" xml:space="preserve" xmlns:serif="http://www.serif.com/" style="fill-rule:evenodd;clip-rule:evenodd;stroke-linejoin:round;stroke-miterlimit:2;">
    <g transform="matrix(1,0,0,1,-87.7888,-51.6519)">
        <g transform="matrix(0.466888,0,0,0.466888,46.8013,27.5362)">
            <path d="M875.79,213.82C868.684,202.953 858.786,194.195 847.134,188.468C835.482,182.741 822.501,180.253 809.556,181.265C710.954,189.28 667.286,241.593 666.756,242.203C661.326,248.586 652.944,251.652 644.678,250.273C636.412,248.894 629.475,243.277 626.412,235.476C623.35,227.675 624.607,218.839 629.725,212.203C632.514,208.734 690.663,139.008 817.485,132.961C823.102,132.719 828.294,129.899 831.559,125.321C834.824,120.743 835.797,114.915 834.195,109.524C820.367,66.376 772.086,39.094 726.075,57.469C635.161,93.75 541.125,147.961 496.875,174.699C489.028,179.445 479.957,181.785 470.793,181.425C461.625,181.066 452.766,178.027 445.313,172.683L418.829,153.816C400.52,140.777 377.083,137.273 355.767,144.39C334.447,151.511 317.814,168.394 311.017,189.816L310.689,190.801C270.845,328.871 153.959,520.641 98.959,606.461C79.998,636.016 85.623,675.625 112.436,697.867C133.456,714.969 156.374,729.594 180.733,741.461C187.448,744.765 195.307,744.832 202.077,741.636C208.847,738.445 213.792,732.339 215.515,725.054C250.156,580.604 275.21,459.854 275.703,457.514C277.469,449.221 283.508,442.491 291.562,439.838C299.617,437.19 308.472,439.014 314.82,444.639C321.168,450.26 324.051,458.83 322.39,467.147C319.39,481.655 263.328,751.887 201.85,968.707C198.729,989.543 205.171,1010.67 219.381,1026.22C266.819,1077.79 332.961,1109.43 380.891,1127.17C410.821,1138.24 442.391,1115.45 442.368,1082.95C442.134,670.916 452.516,473.826 458.001,398.566C458.646,388.254 463.173,378.566 470.669,371.453C478.165,364.34 488.075,360.328 498.407,360.223C509.177,360.348 519.462,364.704 527.04,372.352C534.622,380.004 538.884,390.329 538.907,401.098C543.009,685.698 574.063,989.078 587.188,1106.78C588.497,1120.01 595.462,1132.02 606.286,1139.74C617.11,1147.45 630.743,1150.1 643.673,1147.02C805.013,1106.99 964.013,1007.22 1044.78,951.04C1058.75,941.154 1067.88,925.829 1069.94,908.845C1072,891.861 1066.79,874.794 1055.59,861.861C1030.77,833.314 1006.84,804.627 988.135,781.845C983.436,776.134 977.08,772.021 969.944,770.068C962.812,768.115 955.245,768.424 948.292,770.947C935.472,775.635 923.683,779.994 913.136,783.978C885.777,794.259 855.296,792.119 829.64,778.115C803.988,764.115 785.699,739.635 779.542,711.064C752.354,585.934 731.94,456.154 731.73,454.864C730.629,448.567 732.101,442.091 735.82,436.891C739.539,431.692 745.191,428.203 751.508,427.211C757.821,426.215 764.27,427.801 769.406,431.61C774.539,435.414 777.933,441.125 778.816,447.458C779.027,448.747 799.16,576.368 825.691,699.908C828.004,711.392 833.973,721.818 842.707,729.627C849.903,735.935 858.676,740.17 868.09,741.889C877.504,743.603 887.207,742.736 896.168,739.377C937.793,723.791 997.118,702.346 1064.29,680.315L1085.94,669.745C1097.26,664.073 1105.87,654.143 1109.87,642.136C1113.87,630.124 1112.94,617.019 1107.3,605.691C1036.19,462.601 932.176,299.391 875.806,213.811L875.79,213.82Z" style="fill:white;fill-rule:nonzero;"/>
        </g>
    </g>
</svg>
