<?xml version="1.0" encoding="UTF-8" standalone="no"?>
<!DOCTYPE svg PUBLIC "-//W3C//DTD SVG 1.1//EN" "http://www.w3.org/Graphics/SVG/1.1/DTD/svg11.dtd">
<svg width="100%" height="100%" viewBox="0 0 415 512" version="1.1" xmlns="http://www.w3.org/2000/svg" xmlns:xlink="http://www.w3.org/1999/xlink" xml:space="preserve" xmlns:serif="http://www.serif.com/" style="fill-rule:evenodd;clip-rule:evenodd;stroke-linejoin:round;stroke-miterlimit:2;">
    <g transform="matrix(1,0,0,1,-158.779,-54.8625)">
        <g transform="matrix(0.46963,0,0,0.46963,84.2116,29.0975)">
            <path d="M1028,762.47C1026.99,760.501 1025.94,758.486 1024.84,756.47C1022.43,752.095 1019.73,747.888 1016.75,743.884C996.898,717.001 918.312,620.534 776.35,564.404C736.412,549.045 701.467,523.002 675.33,489.123C650.65,456.545 632.111,415.646 651.892,378.613C672.33,340.105 707.158,320.16 736.97,309.847C751.935,304.574 763.95,293.179 770.013,278.515C776.072,263.847 775.607,247.296 768.728,232.995C733.97,160.761 652.058,54.875 470.438,54.875C470.438,54.875 272.138,49.695 279.398,250.415C279.398,250.415 280.968,350.048 337.265,421.905C365.687,458.182 376.367,505.284 366.374,550.275C350.647,621.22 308.718,725.705 199.664,836.495C176.473,860.054 162.211,890.956 159.324,923.886C156.433,956.82 165.105,989.73 183.844,1016.96C206.485,1049.78 238.946,1088.31 285.494,1130.75C317.767,1160.14 369.869,1141.79 376.9,1098.71C394.619,990.905 425.158,811.935 454.244,672.385C458.275,653.143 485.486,652.416 490.525,671.424C511.9,752.049 547.97,897.594 587.369,1097.26C589.701,1109.12 596.33,1119.7 605.982,1126.97C615.634,1134.24 627.63,1137.69 639.67,1136.67C651.709,1135.64 662.947,1130.2 671.229,1121.4C714.307,1075.54 771.469,1017.85 820.009,979.674C850.728,955.385 887.857,940.576 926.859,937.065L928.734,936.901C1014.47,929.94 1067.27,839.073 1027.99,762.481L1028,762.47ZM513.55,372.35C494.167,409.217 446.167,419.53 411.85,395.788C386.209,378.14 358.506,344.226 353.538,279.398C344.163,157.518 409.905,145.128 409.905,145.128C409.905,145.128 504.757,125.886 526.745,268.858C526.745,268.975 536.495,328.741 513.55,372.358L513.55,372.35Z" style="fill:white;fill-rule:nonzero;"/>
        </g>
    </g>
</svg>
