<?xml version="1.0" encoding="UTF-8" standalone="no"?>
<!DOCTYPE svg PUBLIC "-//W3C//DTD SVG 1.1//EN" "http://www.w3.org/Graphics/SVG/1.1/DTD/svg11.dtd">
<svg width="100%" height="100%" viewBox="0 0 512 512" version="1.1" xmlns="http://www.w3.org/2000/svg" xmlns:xlink="http://www.w3.org/1999/xlink" xml:space="preserve" xmlns:serif="http://www.serif.com/" style="fill-rule:evenodd;clip-rule:evenodd;stroke-linejoin:round;stroke-miterlimit:2;">
    <g transform="matrix(1,0,0,1,-47.7917,-47.7914)">
        <g transform="matrix(0.463512,0,0,0.463512,25.6397,25.6395)">
            <path d="M82.359,773.44C202.969,762.823 321.089,682.456 379.689,636.71C389.576,628.999 395.677,617.413 396.451,604.901C397.221,592.385 392.584,580.139 383.721,571.272L269.181,456.802C261.154,448.751 250.193,444.325 238.826,444.548C227.459,444.767 216.678,449.618 208.971,457.974C98.441,578.654 61.081,681.524 48.561,735.004C46.342,744.883 48.987,755.227 55.67,762.828C62.358,770.433 72.275,774.379 82.358,773.441L82.359,773.44Z" style="fill:white;fill-rule:nonzero;"/>
            <path d="M1109.7,280.1C1082.74,268.983 1058.21,252.69 1037.51,232.147L988.528,183.139C958.95,153.092 933.165,119.537 911.747,83.225C909.095,78.791 906.126,74.553 902.864,70.545C888.637,53.295 860.676,60.865 856.153,82.779C840.825,158.412 782.841,345.069 563.913,563.879C344.983,782.689 158.633,840.749 82.933,855.979C60.972,860.409 53.308,888.463 70.581,902.713C74.585,906.014 78.823,909.022 83.261,911.713C119.581,933.17 153.136,958.994 183.175,988.611L232.183,1037.6C252.726,1058.29 269.019,1082.82 280.136,1109.78C285.331,1122.32 294.105,1133.05 305.359,1140.62C316.613,1148.2 329.851,1152.3 343.418,1152.39C438.457,1153.07 541.558,1111.12 631.698,1059.95C810.458,958.505 958.418,810.545 1059.88,631.795C1111.04,541.607 1153,438.505 1152.32,343.515C1152.25,329.925 1148.16,316.656 1140.58,305.374C1133,294.089 1122.26,285.296 1109.71,280.093L1109.7,280.1Z" style="fill:white;fill-rule:nonzero;"/>
            <path d="M735,48.562C681.516,61.078 578.65,98.437 457.97,208.972C449.615,216.679 444.763,227.46 444.544,238.827C444.321,250.194 448.747,261.155 456.798,269.182L571.268,383.672C580.127,392.543 592.37,397.184 604.885,396.422C617.401,395.66 628.987,389.566 636.705,379.688C682.455,321.094 762.825,202.968 773.435,82.358C774.373,72.276 770.427,62.358 762.822,55.67C755.22,48.986 744.877,46.342 734.998,48.561L735,48.562Z" style="fill:white;fill-rule:nonzero;"/>
        </g>
    </g>
</svg>
