<?xml version="1.0" encoding="UTF-8" standalone="no"?>
<!DOCTYPE svg PUBLIC "-//W3C//DTD SVG 1.1//EN" "http://www.w3.org/Graphics/SVG/1.1/DTD/svg11.dtd">
<svg width="100%" height="100%" viewBox="0 0 511 512" version="1.1" xmlns="http://www.w3.org/2000/svg" xmlns:xlink="http://www.w3.org/1999/xlink" xml:space="preserve" xmlns:serif="http://www.serif.com/" style="fill-rule:evenodd;clip-rule:evenodd;stroke-linejoin:round;stroke-miterlimit:2;">
    <g transform="matrix(1,0,0,1,-57.1309,-55.8982)">
        <g transform="matrix(0.470475,0,0,0.470475,30.2522,29.5995)">
            <path d="M1069.9,143.65C1097.7,123.212 1088.93,79.384 1055.44,71.627C1012.21,61.498 967.982,56.225 923.579,55.9C774.629,55.455 637.029,136.267 560.599,265.5C527.951,320.695 480.255,394.1 428.619,449.58C425.49,452.924 423.506,457.174 422.947,461.721C422.392,466.264 423.295,470.869 425.525,474.869C443.869,507.787 466.271,538.275 492.205,565.619C495.065,568.615 499.143,570.127 503.26,569.717C507.381,569.31 511.084,567.029 513.299,563.533C519.295,554.221 528.772,547.697 539.611,545.424C550.45,543.151 561.748,545.319 570.978,551.44L651.58,605.042C660.838,611.233 667.279,620.823 669.518,631.733C671.757,642.643 669.604,653.995 663.534,663.331C662.483,664.932 662.249,666.936 662.897,668.737C663.549,670.542 665.006,671.932 666.838,672.495C730.776,691.245 802.288,695.151 881.388,684.214C886.783,683.429 891.673,680.612 895.068,676.347C898.459,672.077 900.096,666.679 899.647,661.245C899.272,656.276 898.967,651.26 898.733,646.198C898.733,646.198 864.866,294.448 1069.89,143.648L1069.9,143.65Z" style="fill:white;fill-rule:nonzero;"/>
            <path d="M854.41,1143.8C854.41,1143.8 1000.03,1152.87 1117.33,1079.93C1152.49,1058.09 1151.1,1005.85 1114.87,985.995C1048.63,949.69 956.359,878.695 917.149,753.075C915.669,748.188 912.497,743.989 908.204,741.227C903.911,738.465 898.77,737.325 893.712,738.004C862.302,742.606 830.607,744.957 798.86,745.036C746.321,745.411 694.04,737.778 643.8,722.395C639.394,721 634.651,721.094 630.304,722.656C625.956,724.219 622.241,727.164 619.73,731.043L610.66,745.105C604.675,754.421 595.203,760.949 584.363,763.222C573.527,765.495 562.23,763.323 553.004,757.199L472.238,703.621C462.984,697.429 456.539,687.84 454.297,676.933C452.054,666.023 454.199,654.671 460.261,645.331L464.808,638.299C467.3,634.424 468.386,629.811 467.879,625.229C467.371,620.651 465.3,616.386 462.019,613.151L462.019,613.034C432.457,583.542 406.695,550.475 385.331,514.596C382.589,509.956 378.171,506.541 372.987,505.053C367.804,503.569 362.249,504.123 357.464,506.604C323.058,524.151 284.48,531.87 245.974,528.916C205.779,525.775 153.279,516.447 112.944,490.83C87.842,474.916 55.616,494.58 57.186,524.369C67.077,711.259 166.966,1143.8 854.416,1143.8L854.41,1143.8Z" style="fill:white;fill-rule:nonzero;"/>
        </g>
    </g>
</svg>
