<?xml version="1.0" encoding="UTF-8" standalone="no"?>
<!DOCTYPE svg PUBLIC "-//W3C//DTD SVG 1.1//EN" "http://www.w3.org/Graphics/SVG/1.1/DTD/svg11.dtd">
<svg width="100%" height="100%" viewBox="0 0 427 512" version="1.1" xmlns="http://www.w3.org/2000/svg" xmlns:xlink="http://www.w3.org/1999/xlink" xml:space="preserve" xmlns:serif="http://www.serif.com/" style="fill-rule:evenodd;clip-rule:evenodd;stroke-linejoin:round;stroke-miterlimit:2;">
    <g transform="matrix(1,0,0,1,-147.249,-56.086)">
        <g transform="matrix(0.470663,0,0,0.470663,77.9442,29.6884)">
            <path d="M750.87,56.086L589.74,56.086C581.842,56.082 574.318,59.449 569.06,65.34C563.802,71.231 561.306,79.082 562.201,86.93C569.232,147.75 587.56,291.28 622.084,452.39C622.084,452.39 666.615,629.86 618.826,749.23C616.631,754.828 616.459,761.015 618.341,766.722C620.224,772.433 624.045,777.304 629.138,780.495C644.396,790.245 662.654,802.972 671.794,811.175C686.165,824.308 698.833,839.191 709.505,855.472C728.419,883.878 783.216,949.597 882.735,945.824C910.907,944.668 939.122,945.797 967.11,949.199C972.442,949.847 977.755,947.839 981.329,943.832C984.908,939.82 986.29,934.312 985.04,929.09C980.634,910.598 975.665,891.379 970.04,871.598C961.677,842.121 954.938,812.211 949.86,781.996C946.661,763.734 936.993,747.238 922.626,735.519C883.087,702.496 849.751,662.683 824.188,617.959C791.622,561.24 774.563,496.939 774.735,431.539L774.735,79.979C774.728,73.651 772.216,67.584 767.743,63.108C763.27,58.631 757.204,56.108 750.876,56.096L750.87,56.086Z" style="fill:white;fill-rule:nonzero;"/>
        </g>
        <g transform="matrix(0.470663,0,0,0.470663,77.9442,29.6884)">
            <path d="M307.29,977.58C311.86,982.689 316.899,987.869 322.524,993.096C359.532,1027.6 375.258,1079.51 381.118,1127.42C381.727,1131.96 383.962,1136.12 387.411,1139.14C390.86,1142.16 395.286,1143.82 399.868,1143.82L520.318,1143.82C525.603,1143.84 530.658,1141.66 534.263,1137.79C537.869,1133.92 539.693,1128.73 539.302,1123.46C535.927,1080.52 524.583,1032.71 493.904,1004.14C462.826,975.191 444.966,946.363 434.818,921.355C433.236,917.444 430.138,914.339 426.236,912.741C422.33,911.144 417.947,911.19 414.076,912.87C382.154,926.932 348.334,940.362 313.996,952.198C308.973,953.866 305.129,957.956 303.777,963.077C302.425,968.194 303.746,973.651 307.293,977.581L307.29,977.58Z" style="fill:white;fill-rule:nonzero;"/>
        </g>
        <g transform="matrix(0.470663,0,0,0.470663,77.9442,29.6884)">
            <path d="M846.38,56.086C840.036,56.086 833.954,58.606 829.466,63.086C824.982,67.57 822.458,73.648 822.45,79.992L822.45,431.552C822.275,488.572 837.118,544.632 865.481,594.092C879.473,618.404 895.969,641.182 914.7,662.061C918.505,666.245 924.509,667.635 929.766,665.553C935.024,663.467 938.442,658.342 938.348,652.686C937.227,549.706 955.516,447.436 992.254,351.236C993.778,347.205 995.348,343.174 996.942,339.095C996.942,339.095 1066.06,184.005 1050.36,79.995C1049.41,73.382 1046.11,67.327 1041.06,62.944C1036.02,58.557 1029.57,56.136 1022.89,56.112L846.38,56.086Z" style="fill:white;fill-rule:nonzero;"/>
        </g>
        <g transform="matrix(0.470663,0,0,0.470663,77.9442,29.6884)">
            <path d="M477.09,899.41C484.52,919.308 498.887,943.824 526.309,969.348C569.247,1009.36 583.543,1072.78 587.106,1126.22C587.426,1131.02 589.567,1135.53 593.087,1138.82C596.61,1142.1 601.251,1143.92 606.067,1143.91L984.157,1143.91C993.192,1143.93 1001.81,1140.11 1007.86,1133.41C1013.92,1126.7 1016.84,1117.74 1015.91,1108.76C1013.95,1089.21 1010.66,1062.31 1005.37,1030.01C1004.05,1022.01 1000.25,1014.64 994.5,1008.93C988.75,1003.22 981.352,999.469 973.352,998.204C943.957,993.758 914.2,992.188 884.5,993.516C881.219,993.516 877.938,993.704 874.703,993.704C753.863,993.704 687.583,908.602 669.813,881.934C661.356,869.016 651.317,857.204 639.93,846.778C632.805,840.364 625.125,834.59 616.985,829.528C611.778,826.301 605.805,824.524 599.684,824.379C593.559,824.235 587.508,825.731 582.157,828.707C559.938,841.035 518.876,863.512 484.915,880.269C481.497,881.957 478.818,884.832 477.372,888.359C475.931,891.886 475.829,895.82 477.087,899.418L477.09,899.41Z" style="fill:white;fill-rule:nonzero;"/>
        </g>
        <g transform="matrix(0.470663,0,0,0.470663,77.9442,29.6884)">
            <path d="M313.66,1143.9C319.211,1143.88 324.476,1141.45 328.078,1137.23C331.684,1133.01 333.266,1127.42 332.41,1121.94C326.855,1086.53 314.691,1050.99 289.965,1027.95C276.863,1015.87 265.02,1002.48 254.621,987.994C252.305,984.787 248.859,982.572 244.98,981.787C241.102,981.006 237.07,981.717 233.691,983.775C204.152,1001.37 180.136,1026.89 164.363,1057.44C156.543,1072.72 150.972,1089.06 147.816,1105.93C146.031,1115.28 148.504,1124.94 154.563,1132.28C160.621,1139.62 169.633,1143.88 179.153,1143.9L313.66,1143.9Z" style="fill:white;fill-rule:nonzero;"/>
        </g>
    </g>
</svg>
