<?xml version="1.0" encoding="UTF-8" standalone="no"?>
<!DOCTYPE svg PUBLIC "-//W3C//DTD SVG 1.1//EN" "http://www.w3.org/Graphics/SVG/1.1/DTD/svg11.dtd">
<svg width="100%" height="100%" viewBox="0 0 512 509" version="1.1" xmlns="http://www.w3.org/2000/svg" xmlns:xlink="http://www.w3.org/1999/xlink" xml:space="preserve" xmlns:serif="http://www.serif.com/" style="fill-rule:evenodd;clip-rule:evenodd;stroke-linejoin:round;stroke-miterlimit:2;">
    <g transform="matrix(1,0,0,1,-74.6253,-78.1615)">
        <g transform="matrix(0.48725,0,0,0.48725,38.2641,40.0773)">
            <path d="M100.29,343.64L192.821,343.64C202.04,343.648 210.946,340.32 217.899,334.265L395.909,178.755C404.21,171.509 408.964,161.017 408.94,149.997L408.94,103.122C408.94,96.501 406.311,90.153 401.628,85.474C396.948,80.79 390.601,78.161 383.979,78.161L99.609,78.161C92.988,78.161 86.636,80.79 81.949,85.47C77.266,90.15 74.633,96.501 74.625,103.122L74.625,317.952C74.614,324.765 77.313,331.304 82.125,336.12C86.942,340.94 93.477,343.647 100.289,343.64L100.29,343.64Z" style="fill:white;fill-rule:nonzero;"/>
            <path d="M804.09,178.73L982.03,334.24C988.983,340.295 997.889,343.623 1007.11,343.615L1099.64,343.615C1106.46,343.654 1113.02,340.967 1117.86,336.154C1122.7,331.342 1125.42,324.799 1125.42,317.974L1125.42,103.124C1125.4,96.503 1122.76,90.159 1118.06,85.487C1113.37,80.815 1107.01,78.198 1100.39,78.21L816.019,78.21C809.406,78.21 803.066,80.835 798.386,85.503C793.706,90.175 791.07,96.511 791.058,103.124L791.058,149.999C791.042,161.011 795.792,171.491 804.089,178.733L804.09,178.73Z" style="fill:white;fill-rule:nonzero;"/>
            <path d="M221.46,415.27L250.429,524.3C253.921,537.488 261.902,549.042 272.999,556.972L302.343,577.878L390.257,624.237C402.163,630.522 416.253,631.151 428.671,625.948L562.761,569.862C574.671,564.874 587.265,561.714 600.12,560.487C612.975,561.714 625.569,564.874 637.479,569.862L771.569,625.948C783.987,631.151 798.077,630.522 809.983,624.237L897.897,577.878L927.124,556.972C938.222,549.042 946.202,537.488 949.694,524.3L978.663,415.27C981.804,403.493 978.425,390.934 969.804,382.317L724.014,167.537C719.498,162.818 713.393,159.943 706.877,159.463C700.361,158.982 693.9,160.932 688.74,164.936L600.006,233.842L511.272,164.936C506.119,160.963 499.682,159.033 493.198,159.514C486.709,159.994 480.628,162.85 476.116,167.537L230.326,382.317C221.705,390.934 218.326,403.493 221.466,415.27L221.46,415.27Z" style="fill:white;fill-rule:nonzero;"/>
            <path d="M350.764,913.17L849.24,913.17C862.107,913.17 872.678,902.154 873.123,888.256C875.725,805.381 882.311,724.056 888.029,661.946C889.318,647.884 875.49,638.11 864.099,644.977L813.591,672C798.911,680.965 780.603,681.551 765.38,673.547L636.94,613.313C625.366,607.266 612.893,603.125 600.002,601.055C587.111,603.125 574.639,607.266 563.064,613.313L434.624,673.547C419.401,681.551 401.093,680.965 386.413,672L335.905,644.977C324.514,638.11 310.686,647.907 311.975,661.946C317.694,724.055 324.28,805.386 326.881,888.256C327.326,902.154 337.897,913.17 350.764,913.17Z" style="fill:white;fill-rule:nonzero;"/>
            <path d="M285.73,985.76L244.246,1083.49C240.641,1091.99 241.531,1101.72 246.617,1109.43C251.703,1117.13 260.305,1121.77 269.535,1121.79L930.475,1121.79C939.717,1121.8 948.342,1117.16 953.444,1109.45C958.546,1101.75 959.444,1092 955.835,1083.49L914.351,985.76C909.808,975.045 902.206,965.905 892.499,959.479C882.788,953.057 871.405,949.635 859.765,949.643L340.315,949.643C328.674,949.635 317.292,953.057 307.581,959.479C297.874,965.905 290.272,975.045 285.729,985.76L285.73,985.76ZM767.68,1035.31C768.008,1033.79 768.461,1032.3 769.039,1030.85C769.645,1029.43 770.371,1028.07 771.219,1026.78C772.09,1025.46 773.094,1024.23 774.219,1023.12C778.68,1018.65 784.742,1016.13 791.059,1016.13C797.376,1016.13 803.438,1018.65 807.899,1023.12C809.024,1024.22 810.012,1025.45 810.852,1026.78C811.782,1028.05 812.567,1029.41 813.196,1030.85C813.782,1032.3 814.239,1033.78 814.555,1035.31C815.153,1038.4 815.153,1041.58 814.555,1044.68C814.243,1046.21 813.786,1047.71 813.196,1049.16C812.555,1050.6 811.77,1051.97 810.852,1053.26C810.012,1054.58 809.02,1055.79 807.899,1056.87C803.438,1061.34 797.376,1063.85 791.059,1063.85C784.743,1063.85 778.68,1061.34 774.219,1056.87C773.094,1055.78 772.09,1054.57 771.219,1053.26C770.383,1051.96 769.653,1050.58 769.039,1049.16C768.457,1047.71 768.004,1046.21 767.68,1044.68C767.082,1041.58 767.082,1038.4 767.68,1035.31ZM576.64,1035.31C576.956,1033.78 577.413,1032.3 577.999,1030.85C579.226,1027.97 580.984,1025.35 583.179,1023.12C587.636,1018.65 593.691,1016.13 600.007,1016.13C606.323,1016.13 612.378,1018.65 616.835,1023.12C619.054,1025.33 620.812,1027.96 622.015,1030.85C622.601,1032.3 623.058,1033.78 623.374,1035.31C623.972,1038.4 623.972,1041.58 623.374,1044.68C623.062,1046.21 622.605,1047.71 622.015,1049.16C621.421,1050.59 620.691,1051.96 619.835,1053.26C618.964,1054.57 617.96,1055.78 616.835,1056.87C612.378,1061.34 606.323,1063.85 600.007,1063.85C593.691,1063.85 587.636,1061.34 583.179,1056.87C582.058,1055.78 581.058,1054.57 580.203,1053.26C579.331,1051.97 578.593,1050.6 577.999,1049.16C577.41,1047.71 576.953,1046.21 576.64,1044.68C576.042,1041.58 576.042,1038.4 576.64,1035.31ZM385.58,1035.31C385.896,1033.78 386.353,1032.3 386.939,1030.85C387.533,1029.42 388.279,1028.05 389.166,1026.78C390.006,1025.45 390.994,1024.22 392.119,1023.12C396.58,1018.65 402.642,1016.13 408.959,1016.13C415.276,1016.13 421.338,1018.65 425.799,1023.12C426.924,1024.23 427.928,1025.46 428.799,1026.78C429.647,1028.07 430.373,1029.43 430.979,1030.85C431.557,1032.3 432.01,1033.79 432.338,1035.31C432.936,1038.4 432.936,1041.58 432.338,1044.68C432.014,1046.21 431.561,1047.71 430.979,1049.16C430.366,1050.58 429.635,1051.96 428.799,1053.26C427.928,1054.57 426.924,1055.78 425.799,1056.87C421.338,1061.34 415.276,1063.85 408.959,1063.85C402.643,1063.85 396.58,1061.34 392.119,1056.87C390.998,1055.79 390.006,1054.58 389.166,1053.26C388.287,1051.97 387.541,1050.6 386.939,1049.16C386.35,1047.71 385.893,1046.21 385.58,1044.68C384.982,1041.58 384.982,1038.4 385.58,1035.31Z" style="fill:white;fill-rule:nonzero;"/>
        </g>
    </g>
</svg>
