<?xml version="1.0" encoding="UTF-8" standalone="no"?>
<!DOCTYPE svg PUBLIC "-//W3C//DTD SVG 1.1//EN" "http://www.w3.org/Graphics/SVG/1.1/DTD/svg11.dtd">
<svg width="100%" height="100%" viewBox="0 0 497 512" version="1.1" xmlns="http://www.w3.org/2000/svg" xmlns:xlink="http://www.w3.org/1999/xlink" xml:space="preserve" xmlns:serif="http://www.serif.com/" style="fill-rule:evenodd;clip-rule:evenodd;stroke-linejoin:round;stroke-miterlimit:2;">
    <g transform="matrix(1,0,0,1,-84.8336,-69.3116)">
        <g transform="matrix(0.482333,0,0,0.482333,43.9156,35.8803)">
            <path d="M631.97,181.27C646.173,191.137 671.158,206.582 699.658,215.465C703.67,216.746 708.014,216.539 711.885,214.883C715.76,213.227 718.908,210.231 720.752,206.442C731.955,183.239 759.166,136.715 799.268,131.442C805.362,130.653 810.659,126.867 813.381,121.356C816.104,115.848 815.893,109.34 812.815,104.02C804.389,89.125 790.721,77.895 774.471,72.52C760.139,68.035 744.748,68.258 730.549,73.152C705.987,81.191 660.94,102.988 627.099,158.675C624.86,162.347 624.118,166.742 625.025,170.945C625.935,175.148 628.419,178.848 631.974,181.269L631.97,181.27Z" style="fill:white;fill-rule:nonzero;"/>
            <path d="M842.39,263.53C862.335,272.827 882.89,280.753 903.913,287.249C908.671,288.679 913.737,288.733 918.526,287.409C923.315,286.089 927.632,283.44 930.983,279.772C952.077,256.334 1006.55,210.374 1082.88,251.53C1091.49,256.218 1101.63,248.507 1098.99,239.296C1089.21,205.64 1061.63,149.999 985.335,143.202C967.597,141.632 949.73,144.085 933.069,150.374C907.522,160.007 867.749,181.007 832.799,225.233C828.03,231.304 826.338,239.241 828.213,246.729C830.088,254.217 835.319,260.42 842.385,263.53L842.39,263.53Z" style="fill:white;fill-rule:nonzero;"/>
            <path d="M1023.7,268.69C1031.93,268.631 1040.14,269.417 1048.22,271.034C1064.96,274.319 1080.17,283.011 1091.51,295.768C1102.84,308.53 1109.67,324.655 1110.96,341.674C1116.26,419.018 1126.5,651.054 1068.37,756.704C1055.6,779.907 1021.85,781.243 1006.94,759.259C1000.91,750.469 999.368,739.361 1002.77,729.259C1013.22,698.556 1033.24,619.409 1026.21,477.169C1026.21,477.169 1018.15,352.409 1003.8,293.438C1002.44,287.407 1003.9,281.08 1007.77,276.258C1011.65,271.438 1017.52,268.649 1023.7,268.688L1023.7,268.69Z" style="fill:white;fill-rule:nonzero;"/>
            <path d="M843.96,653.25C813.491,682.195 776.132,704.461 733.05,719.414C694.894,732.68 655.448,737.25 616.5,739.031C473.88,745.523 381.89,663.328 334.85,604.971C315.092,580.455 276.584,581.416 257.788,606.635C219.21,658.408 173.577,710.435 143.388,743.655C115.376,773.948 96.536,811.569 89.06,852.145C64.474,992.325 152.341,1067.28 218.58,1103.05C252.799,1121.38 291.041,1130.92 329.86,1130.82L759.7,1130.82C944.04,1130.82 952.54,952.298 952.54,952.298L952.54,601.108C952.54,577.975 922.61,567.522 907.634,585.475C887.739,609.284 866.478,631.916 843.954,653.256L843.96,653.25Z" style="fill:white;fill-rule:nonzero;"/>
            <path d="M869.32,344.13C867.773,343.521 866.226,342.935 864.633,342.396C760.993,306.021 649.713,252.021 580.713,216.586C562.545,207.258 541.643,204.731 521.775,209.457C501.904,214.183 484.38,225.855 472.361,242.367C446.791,278.015 411.142,322.523 371.161,357.207L369.684,358.496C345.719,379.617 329.797,408.371 324.606,439.891C319.415,471.411 325.282,503.754 341.208,531.442C343.739,535.926 346.474,540.536 349.411,545.27C425.77,668.5 580.431,723.39 717.121,676.05C753.73,663.323 785.277,644.573 810.871,620.269C850.996,582.441 886.641,540.132 917.111,494.179C933.951,468.652 938.345,436.878 929.064,407.738C919.783,378.598 897.822,355.218 869.322,344.133L869.32,344.13ZM529.83,593.69C520.639,593.436 511.92,589.565 505.568,582.913C499.22,576.265 495.752,567.378 495.924,558.186C496.091,548.991 499.884,540.237 506.475,533.827C513.068,527.417 521.924,523.87 531.12,523.956C540.311,524.042 549.1,527.757 555.573,534.288C562.041,540.819 565.67,549.643 565.667,558.839C565.53,568.21 561.678,577.148 554.96,583.679C548.241,590.214 539.202,593.816 529.831,593.691L529.83,593.69Z" style="fill:white;fill-rule:nonzero;"/>
        </g>
    </g>
</svg>
