<?xml version="1.0" encoding="UTF-8"?>
<svg width="1200pt" height="1200pt" version="1.1" viewBox="0 0 1200 1200" xmlns="http://www.w3.org/2000/svg">
 <g fill="#fff">
  <path d="m930.75 62.812c-2.1094 0.63281-4.2188 1.2891-6.3281 1.9922-48.234 15.961-97.758 27.375-148.24 31.641-11.953 1.0078-24.422 1.9453-37.125 2.7422-50.551 3.1758-101.29 1.793-151.59-4.125-83.555-9.8438-303.7-20.062-441.68 117.98-5.2773 5.2148-10.293 10.691-15.023 16.406-121.38 143.98-90.914 365.48 63.422 470.88 20.605 14.098 42.359 26.43 65.039 36.867 15.57 7.0859 33.703 5.5781 47.891-3.9805 14.188-9.5625 22.395-25.801 21.672-42.895 0-1.3125-0.14062-2.6719-0.25781-4.0312-1.4766-15.738-10.32-29.844-23.836-38.039-41.695-25.125-145.31-101.18-119.86-224.27 0 0 36.539-175.64 259.69-219.73 33.09-6.3633 66.766-9.1992 100.45-8.4609 43.008 0.70312 122.09 3 180.59 10.523 36.43 4.8633 73.32 5.1914 109.83 0.98438 33.352-4.0078 71.836-12.094 105.33-28.125 17.742-8.4844 38.32-9.375 55.922-0.5625 5.5078 2.7812 10.641 6.2461 15.281 10.312 11.25 10.086 18.699 23.73 21.094 38.648 8.4375 48.422-19.312 211.48-128.91 367.78 0 0-99.961 145.01-393.89 166.57-21.094 1.5469-39.844 14.531-45.328 35.555-0.14062 0.49219-0.25781 1.0078-0.375 1.5-3.2656 12.93-1.1406 26.633 5.8828 37.969 7.0273 11.336 18.352 19.34 31.383 22.172 77.461 15.938 270.94 31.195 409.64-99.656 0 0 175.55-147.16 224.32-415.83 6.8047-40.492 9.3789-81.578 7.6875-122.6-5.2266-110.55-109.43-189-212.67-158.23z"/>
  <path d="m390.21 760.92c-9.8438-7.7305-22.359-11.23-34.785-9.7305s-23.746 7.875-31.473 17.723l-35.156 44.812c-23.031-6.2656-47.398-5.6055-70.059 1.8984-22.66 7.5-42.605 21.516-57.348 40.289l-72.047 91.688c-19.863 25.316-28.859 57.488-25.012 89.434 3.8516 31.949 20.234 61.062 45.543 80.934 25.316 19.875 57.488 28.879 89.441 25.031 31.953-3.8438 61.074-20.227 80.949-45.539l72-91.711c14.746-18.773 23.629-41.477 25.539-65.273 1.9102-23.793-3.2422-47.625-14.805-68.508l35.156-44.812c7.7148-9.8438 11.211-22.344 9.7227-34.762-1.4883-12.414-7.8438-23.734-17.668-31.473z"/>
 </g>
</svg>
