<?xml version="1.0" encoding="UTF-8" standalone="no"?>
<!DOCTYPE svg PUBLIC "-//W3C//DTD SVG 1.1//EN" "http://www.w3.org/Graphics/SVG/1.1/DTD/svg11.dtd">
<svg width="100%" height="100%" viewBox="0 0 312 512" version="1.1" xmlns="http://www.w3.org/2000/svg" xmlns:xlink="http://www.w3.org/1999/xlink" xml:space="preserve" xmlns:serif="http://www.serif.com/" style="fill-rule:evenodd;clip-rule:evenodd;stroke-linejoin:round;stroke-miterlimit:2;">
    <g transform="matrix(1,0,0,1,-268.541,-56.0805)">
        <g transform="matrix(0.470652,0,0,0.470652,142.152,29.6861)">
            <path d="M446.769,375.63L504.379,375.63C507.754,375.63 510.992,374.29 513.379,371.903C515.766,369.517 517.106,366.278 517.106,362.903L517.106,97.613C517.106,82.777 509.191,69.066 496.34,61.644C483.488,54.226 467.66,54.226 454.809,61.644C441.957,69.066 434.043,82.777 434.043,97.613L434.043,362.903C434.043,366.278 435.382,369.517 437.769,371.903C440.156,374.29 443.394,375.63 446.769,375.63Z" style="fill:white;fill-rule:nonzero;"/>
            <path d="M577.5,375.63L635.156,375.63C642.179,375.618 647.871,369.927 647.883,362.903L647.883,97.613C647.883,82.777 639.969,69.066 627.117,61.644C614.265,54.226 598.437,54.226 585.586,61.644C572.734,69.066 564.82,82.777 564.82,97.613L564.82,362.903C564.82,369.915 570.488,375.602 577.5,375.63Z" style="fill:white;fill-rule:nonzero;"/>
            <path d="M707.81,375.63L765.396,375.63C772.427,375.63 778.134,369.935 778.146,362.903L778.146,97.613C778.146,82.777 770.232,69.066 757.38,61.644C744.528,54.226 728.7,54.226 715.849,61.644C702.997,69.066 695.083,82.777 695.083,97.613L695.083,362.903C695.083,366.278 696.423,369.516 698.81,371.903C701.196,374.29 704.435,375.63 707.81,375.63L707.81,375.63Z" style="fill:white;fill-rule:nonzero;"/>
            <path d="M838.52,375.63L896.106,375.63C899.481,375.63 902.719,374.29 905.106,371.903C907.493,369.517 908.833,366.278 908.833,362.903L908.833,199.593C908.833,184.757 900.919,171.046 888.067,163.624C875.215,156.206 859.387,156.206 846.536,163.624C833.684,171.046 825.77,184.757 825.77,199.593L825.77,362.903C825.781,369.935 831.488,375.63 838.52,375.63L838.52,375.63Z" style="fill:white;fill-rule:nonzero;"/>
            <path d="M328.8,621.09C333.866,626.199 340.726,629.129 347.921,629.25C355.112,629.371 362.069,626.68 367.308,621.746C399.488,591.465 409.261,552.441 412.214,531.512C413.437,523.344 410.21,515.145 403.753,509.996C401.738,508.402 399.863,506.785 398.081,505.168C383.241,491.297 374.87,471.856 374.995,451.543L374.995,362.621C374.995,343.605 364.85,326.035 348.382,316.527C331.913,307.015 311.624,307.015 295.155,316.527C278.686,326.035 268.542,343.605 268.542,362.621L268.542,505.851C268.476,518.706 270.933,531.449 275.784,543.351C290.104,577.874 312.909,605.039 328.8,621.093L328.8,621.09Z" style="fill:white;fill-rule:nonzero;"/>
            <path d="M910.41,933.7L379.95,933.7L379.95,1066.87C379.985,1082.81 375.071,1098.37 365.888,1111.4L360.427,1119.16C358.197,1122.31 357.204,1126.17 357.642,1130.01C358.083,1133.85 359.915,1137.39 362.798,1139.95C365.681,1142.52 369.411,1143.94 373.271,1143.93L915.661,1143.93C919.595,1143.94 923.392,1142.47 926.294,1139.82C929.196,1137.15 930.997,1133.51 931.337,1129.59C931.677,1125.67 930.532,1121.76 928.13,1118.64L926.302,1116.3C915.993,1102.85 910.4,1086.38 910.388,1069.43L910.41,933.7ZM510.8,1046.34C510.487,1047.86 510.03,1049.36 509.441,1050.79C508.835,1052.23 508.109,1053.61 507.261,1054.92C506.378,1056.21 505.374,1057.42 504.261,1058.53C499.8,1063 493.738,1065.51 487.421,1065.51C481.104,1065.51 475.042,1063 470.581,1058.53C469.468,1057.43 468.479,1056.22 467.628,1054.92C466.718,1053.62 465.933,1052.24 465.284,1050.79C464.706,1049.35 464.249,1047.86 463.925,1046.34C463.327,1043.24 463.327,1040.06 463.925,1036.96C464.257,1035.44 464.71,1033.94 465.284,1032.49C465.929,1031.06 466.714,1029.69 467.628,1028.41C468.468,1027.08 469.456,1025.85 470.581,1024.75C475.054,1020.3 481.108,1017.8 487.421,1017.8C493.734,1017.8 499.788,1020.3 504.261,1024.75C505.386,1025.86 506.39,1027.09 507.261,1028.41C508.112,1029.7 508.839,1031.07 509.441,1032.49C510.027,1033.94 510.48,1035.43 510.8,1036.96C511.398,1040.06 511.398,1043.24 510.8,1046.34ZM667.83,1046.34C667.506,1047.86 667.049,1049.35 666.471,1050.79C665.865,1052.23 665.139,1053.61 664.291,1054.92C663.408,1056.21 662.404,1057.42 661.291,1058.53C656.83,1063 650.768,1065.51 644.451,1065.51C638.134,1065.51 632.072,1063 627.611,1058.53C626.498,1057.43 625.509,1056.22 624.658,1054.92C623.779,1053.62 623.033,1052.24 622.431,1050.79C621.841,1049.36 621.384,1047.86 621.072,1046.34C620.474,1043.24 620.474,1040.06 621.072,1036.96C621.392,1035.43 621.845,1033.94 622.431,1032.49C623.029,1031.06 623.775,1029.69 624.658,1028.41C625.498,1027.08 626.486,1025.85 627.611,1024.75C632.084,1020.3 638.138,1017.8 644.451,1017.8C650.764,1017.8 656.818,1020.3 661.291,1024.75C662.416,1025.86 663.42,1027.09 664.291,1028.41C665.142,1029.7 665.869,1031.07 666.471,1032.49C667.045,1033.94 667.498,1035.44 667.83,1036.96C668.428,1040.06 668.428,1043.24 667.83,1046.34ZM824.86,1046.34C824.536,1047.86 824.079,1049.35 823.501,1050.79C822.887,1052.24 822.145,1053.62 821.274,1054.92C820.422,1056.22 819.434,1057.43 818.321,1058.53C813.86,1063 807.798,1065.51 801.481,1065.51C795.164,1065.51 789.102,1063 784.641,1058.53C783.528,1057.42 782.524,1056.21 781.641,1054.92C780.793,1053.61 780.067,1052.23 779.461,1050.79C778.871,1049.36 778.414,1047.86 778.102,1046.34C777.504,1043.24 777.504,1040.06 778.102,1036.96C778.422,1035.43 778.875,1033.94 779.461,1032.49C780.063,1031.07 780.789,1029.7 781.641,1028.41C782.512,1027.09 783.516,1025.86 784.641,1024.75C789.114,1020.3 795.168,1017.8 801.481,1017.8C807.794,1017.8 813.848,1020.3 818.321,1024.75C819.446,1025.85 820.434,1027.08 821.274,1028.41C822.149,1029.69 822.895,1031.06 823.501,1032.49C824.075,1033.94 824.528,1035.44 824.86,1036.96C825.458,1040.06 825.458,1043.24 824.86,1046.34Z" style="fill:white;fill-rule:nonzero;"/>
            <path d="M883.59,423.3L494.53,423.3C487.421,423.269 480.592,426.066 475.546,431.073C470.499,436.077 467.648,442.885 467.624,449.995C467.995,533.413 441.245,614.695 391.405,681.585C384.011,691.25 379.991,703.073 379.967,715.241L379.967,885.941L910.407,885.941L910.407,450.001C910.376,442.912 907.536,436.122 902.513,431.118C897.489,426.114 890.685,423.306 883.595,423.306L883.59,423.3Z" style="fill:white;fill-rule:nonzero;"/>
        </g>
    </g>
</svg>
