<?xml version="1.0" encoding="UTF-8"?>
<svg width="1200pt" height="1200pt" version="1.1" viewBox="0 0 1200 1200" xmlns="http://www.w3.org/2000/svg">
 <g fill="#fff">
  <path d="m963.47 488.37 53.438 8.6953c3.6758 0.60938 7.2891-1.375 8.7422-4.8047 9.2344-21.68 44.531-99.164 96.656-152.06 2.7422-2.75 3.4062-6.9492 1.6484-10.41-1.7617-3.4609-5.5469-5.3984-9.3828-4.8008-73.5 11.133-156.87-5.9062-179.86-11.156-3.625-0.83984-7.3555 0.91406-9.0234 4.2422l-24.352 48.352c-1.1758 2.2969-1.1953 5.0156-0.050782 7.3242 1.1484 2.3125 3.3242 3.9414 5.8633 4.3945 48.422 8.5781 56.133 33.516 56.133 33.516s15.727 20.953-5.7891 65.156c-1.1133 2.3047-1.0742 4.9961 0.10156 7.2695 1.1758 2.2734 3.3516 3.8594 5.875 4.2852z"/>
  <path d="m878.23 427.55-586.22 298.73c-5.0195 2.5586-10.613 3.7695-16.242 3.5156l-88.664-3.75c-6.2031-0.23047-12.312 1.5977-17.367 5.2031l-88.453 62.133c-2.9648 2.082-5.0547 5.1875-5.8672 8.7148-0.81641 3.5273-0.30078 7.2344 1.4492 10.406s4.6094 5.5859 8.0273 6.7773l26.086 9.1406c5.5039 1.9258 10.055 5.8984 12.703 11.094 2.6484 5.1953 3.1953 11.211 1.5234 16.797l-8.0156 26.484c-1.0234 3.4531-0.74609 7.1641 0.78516 10.426 1.5312 3.2617 4.207 5.8477 7.5195 7.2656s7.0273 1.5703 10.445 0.42578l102.33-34.969c5.8633-2.0195 10.902-5.9062 14.344-11.062l49.055-73.969c3.1172-4.6797 7.3867-8.4844 12.398-11.039l187.97-95.789-105.54 214.2c-2.4961 5.0469-6.25 9.3633-10.898 12.539l-73.312 50.016c-5.1211 3.4961-8.9453 8.5898-10.875 14.484l-33.656 102.77c-1.125 3.4453-0.9375 7.1797 0.51953 10.496 1.4609 3.3164 4.0898 5.9766 7.3906 7.4727 3.2969 1.4961 7.0312 1.7266 10.488 0.64062l26.367-8.2734c5.5703-1.7656 11.605-1.3125 16.848 1.2695 5.2422 2.582 9.2812 7.0898 11.277 12.582l9.375 25.969c1.25 3.3945 3.7031 6.2109 6.8945 7.9141 3.1914 1.6992 6.8984 2.1641 10.414 1.3047 3.5117-0.85938 6.5898-2.9805 8.6367-5.9609l61.078-89.25c3.5156-5.1094 5.2305-11.246 4.875-17.438l-4.9219-88.617c-0.30469-5.6172 0.84375-11.219 3.3281-16.266l134.72-273.07 325.41-165.77c7.6211-4.0625 12.539-11.84 12.938-20.465 0.39844-8.6289-3.7812-16.824-10.996-21.57-7.2148-4.7461-16.395-5.3398-24.16-1.5586z"/>
  <path d="m815.62 74.742c-52.219 52.898-129.23 89.062-150.8 98.648-3.418 1.4961-5.3594 5.1445-4.6875 8.8125l9.375 53.297c0.4375 2.5508 2.0625 4.7383 4.3789 5.8906 2.3164 1.1562 5.043 1.1328 7.3398-0.054687 43.922-22.102 65.086-6.6562 65.086-6.6562s25.125 7.4062 34.336 55.688c0.47266 2.5234 2.1172 4.6758 4.4258 5.7969 2.3086 1.125 5.0156 1.0859 7.293-0.10156l48-24.984c3.3164-1.7109 5.0273-5.4688 4.1484-9.0938-5.5547-22.898-23.695-106.05-13.5-179.7 0.60937-3.8867-1.3867-7.7148-4.918-9.4492-3.5312-1.7305-7.7812-0.96094-10.48 1.9023z"/>
  <path d="m598.5 517.97 37.5-19.078c6.3438-3.2227 11.473-8.4102 14.625-14.789l80.461-163.15c2.957-5.7695 3.5703-12.461 1.7109-18.672-1.8633-6.2109-6.0508-11.461-11.695-14.656-5.8398-3.1172-12.695-3.7305-18.996-1.6992-6.3008 2.0352-11.508 6.5391-14.426 12.48l-102.02 206.79c-1.8047 3.6797-1.0625 8.1016 1.8438 10.992s7.3281 3.6055 11 1.7812z"/>
 </g>
</svg>
