<?xml version="1.0" encoding="UTF-8"?>
<svg width="1200pt" height="1200pt" version="1.1" viewBox="0 0 1200 1200" xmlns="http://www.w3.org/2000/svg">
 <path d="m768.28 174.78c-25.246 0-45.742 20.484-45.742 45.742 0 25.262 20.484 45.742 45.742 45.742 25.262 0 45.742-20.473 45.742-45.742 0-25.258-20.473-45.742-45.742-45.742zm-161.69 991.82c-72.539 0.625-120.54-1.1875-161.61-4.7891-163.16-14.398-157.3-169.8-157.3-169.8s-0.42188-439.93-0.28906-447.89c1.0664-65.172 13.656-131.57 107.07-198.17 95.867-68.328 107.62-136.46 108.57-160.16l0.003906-126.18c0.38281-20.484 17.566-36.973 38.641-36.973h129.54c21.457 0 38.652 16.5 39.012 36.973v33.238c3.707 19.992 21.168 33.301 36.91 33.301 0 0 17.941-0.61328 21.145-0.61328 52.465 0 94.992 42.527 94.992 94.992 0 3-0.17969 5.9648-0.43359 8.8789 0 14.52-1.2734 25.523 8.7734 35.016 4.5469 3.9961 7.4414 9.8398 7.4414 16.379 0 12.059-9.7812 21.828-21.84 21.828-3.6836 0-7.1289-0.92578-10.176-2.5312 0 0-7.1172-2.9531-11.137-3.2539-7.1406-0.52734-13.859 1.7656-19.117 6-6.0352 4.8477-10.008 12.266-10.105 20.93-0.12109 9.5625 4.1172 15.551 7.5703 18.887l4.5469 3.2891c16.766 11.953 30.949 23.902 42.898 35.844 54.684 54.551 63.301 108.85 64.188 162.32 0.12109 7.9688-0.30078 447.89-0.30078 447.89s5.8555 155.4-157.3 169.8c-29.582 2.5938-109.42 4.3945-161.71 4.793z" fill="#fff"/>
</svg>
