<?xml version="1.0" encoding="UTF-8" standalone="no"?>
<!DOCTYPE svg PUBLIC "-//W3C//DTD SVG 1.1//EN" "http://www.w3.org/Graphics/SVG/1.1/DTD/svg11.dtd">
<svg width="100%" height="100%" viewBox="0 0 286 512" version="1.1" xmlns="http://www.w3.org/2000/svg" xmlns:xlink="http://www.w3.org/1999/xlink" xml:space="preserve" xmlns:serif="http://www.serif.com/" style="fill-rule:evenodd;clip-rule:evenodd;stroke-linejoin:round;stroke-miterlimit:2;">
    <g transform="matrix(1,0,0,1,-287.365,-22.6379)">
        <g transform="matrix(0.44752,0,0,0.44752,158.764,12.507)">
            <path d="M768.28,174.78C743.034,174.78 722.538,195.264 722.538,220.522C722.538,245.784 743.022,266.264 768.28,266.264C793.542,266.264 814.022,245.791 814.022,220.522C814.022,195.264 793.549,174.78 768.28,174.78ZM606.59,1166.6C534.051,1167.23 486.05,1165.41 444.98,1161.81C281.82,1147.41 287.68,992.011 287.68,992.011C287.68,992.011 287.258,552.081 287.391,544.121C288.457,478.949 301.047,412.551 394.461,345.951C490.328,277.623 502.081,209.491 503.031,185.791L503.035,59.611C503.418,39.127 520.601,22.638 541.676,22.638L671.216,22.638C692.673,22.638 709.868,39.138 710.228,59.611L710.228,92.849C713.935,112.841 731.396,126.15 747.138,126.15C747.138,126.15 765.079,125.537 768.283,125.537C820.748,125.537 863.275,168.064 863.275,220.529C863.275,223.529 863.095,226.493 862.841,229.408C862.841,243.928 861.568,254.931 871.615,264.424C876.162,268.42 879.056,274.263 879.056,280.803C879.056,292.862 869.275,302.631 857.216,302.631C853.532,302.631 850.087,301.705 847.04,300.099C847.04,300.099 839.923,297.146 835.903,296.845C828.762,296.318 822.044,298.611 816.786,302.845C810.751,307.693 806.778,315.111 806.681,323.775C806.56,333.338 810.798,339.326 814.251,342.662L818.798,345.952C835.564,357.905 849.747,369.854 861.696,381.796C916.38,436.347 924.997,490.646 925.884,544.116C926.005,552.084 925.583,992.006 925.583,992.006C925.583,992.006 931.439,1147.41 768.283,1161.81C738.701,1164.4 658.863,1166.2 606.573,1166.6L606.59,1166.6Z" style="fill:white;fill-rule:nonzero;"/>
        </g>
    </g>
</svg>
