<?xml version="1.0" encoding="UTF-8"?>
<svg width="1200pt" height="1200pt" version="1.1" viewBox="0 0 1200 1200" xmlns="http://www.w3.org/2000/svg">
 <g fill="#fff">
  <path d="m548.86 261.77c-27.609 37.828-49.219 78.797-64.828 113.53-10.543 23.219-26.262 43.711-45.953 59.91-19.691 16.195-42.836 27.668-67.648 33.535-20.348 4.8711-40.219 11.562-59.367 19.992-13.914 6.0508-25.719 16.098-33.918 28.867-8.1992 12.766-12.422 27.68-12.137 42.852 0.89063 34.617 8.625 68.555 19.664 99.914 20.793 58.816 54.484 112.24 98.605 156.35 44.117 44.105 97.547 77.781 156.37 98.559 31.266 11.016 65.109 18.75 99.633 19.641 15.086 0.36719 29.945-3.7461 42.699-11.816 12.75-8.0703 22.824-19.742 28.949-33.535 8.6172-19.422 15.441-39.594 20.391-60.258 5.8164-24.738 17.23-47.812 33.359-67.449 16.133-19.637 36.551-35.312 59.688-45.824 34.805-15.68 75.867-37.266 113.81-64.945 3.6406-2.6758 6.1133-6.6445 6.9062-11.09 0.79297-4.4453-0.15234-9.0273-2.6406-12.797-2.4922-3.7695-6.332-6.4336-10.734-7.4492-53.531-12.328-136.31-26.484-230.67-120.84-93.75-93.75-108.52-177.14-120.84-230.67-1.0156-4.4023-3.6797-8.2422-7.4492-10.734-3.7695-2.4883-8.3516-3.4336-12.797-2.6406-4.4453 0.79297-8.4141 3.2656-11.09 6.9062z"/>
  <path d="m981.52 571.01c33.375-0.44531 61.219-26.906 61.898-60.258 0.75-36.492-14.297-82.031-42.469-129.45-3.7148-6.1367-10.035-10.238-17.156-11.125-7.1211-0.88672-14.254 1.5391-19.359 6.5781-38.414 38.414-100.99 40.875-140.62 3.6094-19.629-18.527-30.934-44.203-31.34-71.191-0.40625-26.992 10.121-52.996 29.184-72.105l1.5-1.5c5.0938-5.082 7.5508-12.23 6.6641-19.371-0.89062-7.1406-5.0273-13.469-11.211-17.145-45.938-27.375-90.328-42.398-126.28-42.562-16.734-0.054688-32.812 6.5195-44.711 18.285-11.898 11.77-18.652 27.77-18.781 44.504-0.58594 54.445 13.57 153.7 105.82 245.93 92.695 92.602 192.61 106.52 246.87 105.8z"/>
  <path d="m1069.5 327.66c8.2461-0.69922 16.285-2.9258 23.719-6.5625 17.32-8.5781 28.266-19.547 35.156-30.797 16.594-27.398 10.055-62.602-13.406-84.375-29.836-27.797-62.508-26.18-85.172-19.781-4.5078 1.2695-9.3477 0.003906-12.656-3.3047-3.3086-3.3086-4.5742-8.1484-3.3047-12.656 6.3984-22.664 8.0156-55.336-19.641-85.102-21.797-23.438-57-30-84.375-13.406-11.227 6.7969-22.148 17.695-30.703 34.922-3.7383 7.4648-6.0352 15.566-6.7734 23.883-2.0938 23.402 3.4922 46.852 15.914 66.797 4.4141 7.1914 6.2734 15.66 5.2773 24.039s-4.7852 16.176-10.762 22.133l-27.328 27.328c-9.7695 9.7852-15.258 23.051-15.258 36.879s5.4883 27.094 15.258 36.879c9.7891 9.7773 23.055 15.27 36.891 15.27s27.102-5.4922 36.891-15.27l27.328-27.328c5.957-5.9766 13.754-9.7656 22.133-10.762 8.3789-0.99609 16.848 0.86328 24.039 5.2773 19.938 12.422 43.375 18.016 66.773 15.938z"/>
  <path d="m170.2 1013.8c4.5078-1.2695 9.3477-0.003907 12.656 3.3047s4.5742 8.1484 3.3047 12.656c-6.3984 22.664-8.0391 55.359 19.617 85.125 21.797 23.438 57 30 84.375 13.406 11.227-6.8203 22.172-17.719 30.727-34.969 3.7109-7.4414 6-15.508 6.75-23.789 2.1016-23.418-3.4844-46.887-15.914-66.844-4.4141-7.1914-6.2734-15.66-5.2773-24.039s4.7852-16.176 10.762-22.133l39.281-39.281c6.6055-6.6172 10.316-15.586 10.316-24.938 0-9.3516-3.7109-18.32-10.316-24.938l-23.906-23.906c-6.6172-6.6055-15.586-10.316-24.938-10.316s-18.32 3.7109-24.938 10.316l-39.281 39.281c-5.957 5.9844-13.758 9.7852-22.141 10.785-8.3828 0.99609-16.859-0.85938-24.055-5.2773-19.961-12.402-43.414-17.969-66.82-15.867-8.1523 0.75-16.102 3-23.438 6.6328-17.391 8.5781-28.359 19.57-35.156 30.844-16.594 27.398-10.055 62.602 13.406 84.375 29.625 27.609 62.438 25.969 84.984 19.57z"/>
 </g>
</svg>
