<?xml version="1.0" encoding="UTF-8"?>
<svg width="1200pt" height="1200pt" version="1.1" viewBox="0 0 1200 1200" xmlns="http://www.w3.org/2000/svg">
 <g fill="#fff">
  <path d="m144.23 772.15s64.031 235.76 220.31 344.13c57.305 39.844 135.14 35.156 186.09-12.492 4.6875-4.3828 9.375-9 13.805-13.898 18.961-20.625 51.562-21.492 70.312-0.77344 4.6875 5.1719 9.5234 10.062 14.508 14.672 50.953 47.602 128.72 52.242 186.05 12.516 156.3-108.35 220.31-344.16 220.31-344.16 41.039-196.45-21.562-296.2-89.906-346.57s-157.45-60.68-237.21-32.016c-33.992 12.285-65.723 30.094-93.914 52.711-9.8398 7.9297-22.098 12.254-34.734 12.254s-24.895-4.3242-34.734-12.254c-28.191-22.617-59.922-40.426-93.914-52.711-79.805-28.664-169.1-18.281-237.33 32.086-68.227 50.367-130.76 150.14-89.648 346.5z"/>
  <path d="m588.8 393.3c7.0469-0.074219 13.879-2.4336 19.473-6.7227 5.5898-4.2891 9.6367-10.277 11.535-17.066 14.484-49.219 59.414-162.7 177.35-224.04 7.5781-4.0234 13.906-10.051 18.297-17.422 4.3867-7.375 6.668-15.812 6.5938-24.391 0-25.5-20.016-46.523-44.531-46.734-51.727-0.44531-128.91 2.3438-181.73 76.688-15.152 21.664-26.07 46-32.18 71.719-10.055 40.805-24.68 118.73-4.6875 167.37 2.3672 6.0156 6.4766 11.191 11.797 14.859 5.3242 3.6719 11.621 5.668 18.086 5.7422z"/>
  <path d="m293.44 300.12c81.164 27.328 134.3 25.922 161.13 28.523 7.4102 0.69531 14.75-1.875 20.105-7.043 5.3555-5.1641 8.1914-12.41 7.7617-19.84-2.8359-50.742-23.625-155.48-143.51-193.15-86.836-27.281-150.38-9.9609-185.16 6.3281-9.3906 4.3789-16.664 12.301-20.227 22.031s-3.125 20.477 1.2188 29.883c17.578 38.367 60.305 100.12 158.67 133.27z"/>
 </g>
</svg>
