<?xml version="1.0" encoding="UTF-8" standalone="no"?>
<!DOCTYPE svg PUBLIC "-//W3C//DTD SVG 1.1//EN" "http://www.w3.org/Graphics/SVG/1.1/DTD/svg11.dtd">
<svg width="100%" height="100%" viewBox="0 0 600 683" version="1.1" xmlns="http://www.w3.org/2000/svg" xmlns:xlink="http://www.w3.org/1999/xlink" xml:space="preserve" xmlns:serif="http://www.serif.com/" style="fill-rule:evenodd;clip-rule:evenodd;stroke-linejoin:round;stroke-miterlimit:2;">
    <g transform="matrix(1.33333,0,0,1.33333,0.000795386,0.00048866)">
        <g transform="matrix(1.76428,0,0,1.76428,-226.923,-195.67)">
            <g>
                <g>
                    <path d="M256.34,110.91C254.34,110.859 252.383,111.484 250.785,112.687C246.297,115.961 242.742,120.336 240.453,125.398C238.168,130.461 237.235,136.019 237.738,141.546C238.711,152.132 244.305,160.085 248.645,166.562C252.906,172.922 256.18,178.519 256.621,183.32C256.844,185.746 256.41,188.324 255.406,190.543C254.402,192.766 252.754,194.793 250.785,196.231L250.785,196.223C248.84,197.594 247.527,199.687 247.137,202.031C246.75,204.379 247.32,206.785 248.723,208.707C250.125,210.629 252.238,211.906 254.594,212.254C256.945,212.602 259.34,211.992 261.238,210.555C265.727,207.281 269.281,202.906 271.57,197.844C273.859,192.781 274.793,187.223 274.285,181.692C273.312,171.106 267.719,163.153 263.379,156.676C259.117,150.316 255.844,144.719 255.403,139.918C255.18,137.488 255.613,134.91 256.617,132.691C257.621,130.472 259.27,128.441 261.238,127.008L261.238,127.011C264.36,124.804 265.711,120.847 264.602,117.191C263.488,113.535 260.16,111.004 256.34,110.906L256.34,110.91ZM201.613,131.457C200.218,131.516 198.859,131.898 197.64,132.578C193.152,135.008 189.312,138.379 186.675,142.703C184.038,147.027 182.82,152.156 183.449,157.23C184.644,166.894 190.851,172.949 195.277,177.843C199.605,182.628 202.421,186.8 202.663,188.745C202.781,189.675 202.609,190.686 201.894,191.858C201.179,193.03 199.718,194.487 197.64,195.612C195.542,196.714 193.968,198.612 193.281,200.882C192.589,203.147 192.835,205.601 193.96,207.686C195.089,209.772 197.007,211.319 199.281,211.983C201.558,212.647 204.007,212.37 206.077,211.218C210.566,208.788 214.406,205.417 217.042,201.093C219.675,196.772 220.898,191.64 220.269,186.566C219.074,176.898 212.863,170.847 208.437,165.949C204.109,161.164 201.293,156.992 201.054,155.051C200.937,154.125 201.109,153.113 201.824,151.941C202.539,150.769 204,149.312 206.078,148.187C209.753,146.266 211.609,142.047 210.539,138.039C209.468,134.032 205.761,131.297 201.613,131.465L201.613,131.457ZM309.913,131.457L309.917,131.457C308.522,131.516 307.159,131.898 305.94,132.578C301.448,135.008 297.612,138.379 294.975,142.703C292.338,147.027 291.116,152.156 291.749,157.23C292.948,166.894 299.151,172.949 303.577,177.843C307.905,182.628 310.721,186.8 310.96,188.745C311.077,189.675 310.905,190.686 310.19,191.858C309.475,193.03 308.014,194.487 305.936,195.612L305.94,195.612C303.838,196.714 302.264,198.612 301.573,200.882C300.881,203.151 301.127,205.604 302.256,207.69C303.385,209.776 305.303,211.327 307.581,211.987C309.858,212.651 312.307,212.374 314.381,211.218C318.87,208.788 322.709,205.417 325.342,201.093C327.979,196.769 329.198,191.64 328.569,186.566C327.374,176.898 321.167,170.843 316.741,165.949C312.413,161.16 309.596,156.992 309.354,155.051C309.237,154.125 309.409,153.113 310.124,151.941C310.839,150.769 312.3,149.312 314.378,148.187C318.054,146.266 319.909,142.051 318.839,138.039C317.768,134.032 314.061,131.297 309.917,131.465L309.913,131.457ZM255.999,222.277C221.577,222.277 190.394,228.425 167.386,238.66C155.882,243.777 146.39,249.914 139.585,257.074C132.776,264.234 128.62,272.629 128.62,281.625L128.62,281.828C128.62,282.902 128.69,283.969 128.815,285.023C129.491,293.512 132.487,317.347 145.557,341.269C161.838,371.07 194.557,401.109 255.997,401.109C317.437,401.109 350.153,371.07 366.437,341.269C379.515,317.335 382.507,293.48 383.179,285.007C383.3,283.976 383.359,282.937 383.371,281.89L383.371,281.629C383.371,272.632 379.215,264.238 372.406,257.078C365.597,249.917 356.109,243.781 344.605,238.664C321.593,228.43 290.41,222.281 255.992,222.281L255.999,222.277ZM255.999,232.133C286.265,232.133 313.647,237.562 333.644,246.457C343.648,250.906 351.769,256.191 357.499,262.223C363.171,268.187 366.487,275.012 366.507,282.141L366.511,282.141L366.511,282.172C366.511,283.211 366.511,282.664 366.479,283.09C366.448,283.516 366.421,284.105 366.362,284.859C366.354,284.945 366.343,285.031 366.331,285.117C365.581,291.273 362.421,297.039 357.499,302.215C351.769,308.242 343.647,313.527 333.644,317.977C313.648,326.872 286.265,332.301 255.999,332.301C225.733,332.301 198.351,326.871 178.351,317.977C168.347,313.528 160.226,308.243 154.496,302.215C149.574,297.039 146.41,291.274 145.664,285.117L145.66,285.117C145.648,285.031 145.637,284.945 145.629,284.859C145.512,283.348 145.488,282.566 145.48,282.336L145.48,282.152C145.512,275.027 148.82,268.199 154.488,262.234C160.219,256.207 168.34,250.918 178.343,246.468C198.339,237.574 225.722,232.144 255.988,232.144L255.999,232.133ZM255.999,269.977C234.054,269.977 214.214,274.277 200.71,280.625C193.964,283.793 188.808,287.507 185.726,290.93C182.632,294.367 181.617,297.098 181.597,299.762C181.597,299.762 181.628,300.23 181.667,300.98C181.917,303.039 182.835,305.258 184.953,307.84C202.797,315.383 228.109,320.375 256,320.375C283.891,320.375 309.203,315.386 327.047,307.84C329.164,305.258 330.082,303.035 330.332,300.976C330.363,300.57 330.383,300.207 330.398,299.988L330.398,299.668C330.355,297.035 329.328,294.324 326.269,290.93C323.187,287.508 318.031,283.793 311.285,280.625C297.781,274.281 277.941,269.977 256,269.977L255.999,269.977Z" style="fill:white;fill-rule:nonzero;"/>
                </g>
            </g>
        </g>
    </g>
</svg>
