<?xml version="1.0" encoding="UTF-8" standalone="no"?>
<!DOCTYPE svg PUBLIC "-//W3C//DTD SVG 1.1//EN" "http://www.w3.org/Graphics/SVG/1.1/DTD/svg11.dtd">
<svg width="100%" height="100%" viewBox="0 0 512 512" version="1.1" xmlns="http://www.w3.org/2000/svg" xmlns:xlink="http://www.w3.org/1999/xlink" xml:space="preserve" xmlns:serif="http://www.serif.com/" style="fill-rule:evenodd;clip-rule:evenodd;stroke-linejoin:round;stroke-miterlimit:2;">
    <g transform="matrix(1,0,0,1,-58.4062,-59.2593)">
        <g transform="matrix(0.472651,0,0,0.472651,30.8004,31.2503)">
            <path d="M142.97,1134.2C221.697,1094.24 324.66,1038.11 434.04,968.31C440.474,964.201 444.837,957.525 446.02,949.982C447.204,942.439 445.094,934.748 440.227,928.865C426.047,911.826 410.532,894.224 393.821,876.576C389.473,872.092 387.008,866.111 386.926,859.865C386.848,853.623 389.165,847.584 393.399,842.99C397.841,838.396 403.942,835.783 410.333,835.728C416.724,835.678 422.864,838.189 427.384,842.709L427.83,843.154C448.338,864.763 466.994,886.185 483.775,906.67C488.013,911.842 494.045,915.229 500.666,916.158C507.291,917.088 514.018,915.49 519.518,911.686C545.94,893.498 572.377,874.592 598.83,854.967C604.802,850.533 608.654,843.803 609.447,836.408C610.243,829.009 607.915,821.619 603.025,816.013C570.798,779.24 533.416,739.466 490.735,698.193L490.453,697.911C484.551,691.908 482.254,683.235 484.41,675.095C486.567,666.955 492.86,660.56 500.961,658.267C509.063,655.974 517.773,658.127 523.875,663.928C569.414,707.967 608.977,750.178 642.825,788.968C647.357,794.175 653.735,797.417 660.614,798.015C667.493,798.608 674.333,796.507 679.692,792.155C696.567,778.421 713.247,764.413 729.731,750.132C735.13,745.468 738.431,738.831 738.899,731.714C739.364,724.597 736.958,717.585 732.216,712.257C714.193,692.101 695.161,671.687 675.193,651.319C666.052,641.944 665.138,626.897 674.115,617.428C678.54,612.76 684.67,610.077 691.103,609.987C697.536,609.897 703.732,612.413 708.287,616.959L708.404,617.1C728.982,637.959 748.529,658.889 766.998,679.491C771.838,684.862 778.658,688.038 785.885,688.28C793.111,688.522 800.127,685.815 805.319,680.78C809.584,676.655 813.811,672.515 817.999,668.358C844.569,642.335 861.741,608.217 866.819,571.374C872.842,525.601 862.694,464.124 798.85,400.284C734.397,335.831 672.29,326.104 626.42,332.479C589.877,337.889 556.119,355.135 530.326,381.581C315.166,598.851 151.906,884.881 64.926,1056.16C39.567,1106.22 92.957,1159.61 142.973,1134.21L142.97,1134.2Z" style="fill:white;fill-rule:nonzero;"/>
            <path d="M1029.3,276.38C1029.3,276.38 1139.69,193.622 1137.6,94.27C1137.35,86.118 1134,78.372 1128.23,72.61C1122.45,66.852 1114.7,63.516 1106.55,63.286C1007.22,61.2 924.435,171.616 924.435,171.616C918.412,116.866 881.146,81.71 851.638,62.116C847.993,59.627 843.501,58.713 839.173,59.577C834.849,60.44 831.052,63.014 828.642,66.709C826.232,70.405 825.415,74.916 826.372,79.225C845.356,163.366 811.56,245.985 792.786,283.136C790.072,288.491 789.411,294.655 790.931,300.463C792.45,306.271 796.048,311.318 801.036,314.658C825.059,330.642 870.247,375.806 886.208,399.853C889.552,404.846 894.606,408.439 900.415,409.958C906.227,411.482 912.395,410.818 917.755,408.103C954.927,389.353 1037.55,355.533 1121.66,374.494C1125.97,375.459 1130.49,374.646 1134.2,372.24C1137.9,369.834 1140.47,366.033 1141.34,361.701C1142.2,357.373 1141.29,352.877 1138.8,349.228C1119.18,319.673 1084.03,282.408 1029.3,276.384L1029.3,276.38Z" style="fill:white;fill-rule:nonzero;"/>
        </g>
    </g>
</svg>
