<?xml version="1.0" encoding="UTF-8" standalone="no"?>
<svg xmlns:xlink="http://www.w3.org/1999/xlink" height="99.45px" width="91.6px" xmlns="http://www.w3.org/2000/svg">
  <g transform="matrix(1.0, 0.0, 0.0, 1.0, -8.85, -5.3)">
    <path d="M35.8 52.65 Q35.8 52.65 35.35 52.2 34.8 51.6 34.25 51.0 33.4 50.05 32.65 49.15 31.65 48.0 30.8 46.95 29.8 45.65 28.95 44.5 28.05 43.2 27.4 42.05 26.7 40.8 26.3 39.8 25.9 38.7 25.95 37.85 26.0 37.05 26.4 36.25 26.7 35.5 27.35 34.7 27.85 34.0 28.65 33.2 29.2 32.65 30.15 31.75 31.35 30.7 31.7 30.35 32.55 29.5 33.05 28.9 33.75 28.1 34.15 27.4 34.6 26.6 34.7 25.85 34.85 25.1 34.7 24.1 34.6 23.15 34.35 22.05 34.05 21.0 33.65 19.85 33.3 18.85 32.8 17.7 32.4 16.75 31.9 15.75 31.55 14.95 31.1 14.2 30.85 13.6 30.55 13.1 30.45 12.9 30.35 12.7 30.35 12.7 30.85 13.1 31.5 13.6 32.1 14.1 33.05 14.85 33.95 15.6 35.05 16.55 36.05 17.45 37.25 18.5 38.25 19.5 39.35 20.6 40.2 21.6 41.15 22.7 41.7 23.6 42.3 24.6 42.45 25.35 42.6 26.1 42.5 26.95 42.4 27.7 42.0 28.5 41.7 29.2 41.15 30.05 40.75 30.75 40.05 31.6 39.85 31.9 38.85 33.2 38.1 34.2 37.65 34.8 37.0 35.7 36.55 36.45 36.05 37.35 35.8 38.15 35.5 38.95 35.35 40.05 35.2 41.1 35.15 42.35 35.1 43.45 35.1 44.75 35.15 45.85 35.25 47.1 35.3 48.15 35.4 49.25 35.5 50.15 35.6 51.05 35.7 51.65 35.75 52.25 35.8 52.45 35.8 52.65 L35.8 52.65" fill="#ffffff" fill-rule="evenodd" stroke="none"/>
    <path d="M55.85 54.1 Q55.85 54.1 55.4 53.55 54.85 52.85 54.25 52.05 53.4 50.95 52.6 49.8 51.6 48.45 50.75 47.1 49.7 45.55 48.85 44.15 47.95 42.55 47.25 41.15 46.55 39.6 46.15 38.35 45.75 37.0 45.8 36.05 45.85 35.05 46.25 34.05 46.6 33.15 47.3 32.15 47.85 31.35 48.7 30.35 49.25 29.65 50.3 28.55 51.55 27.25 51.9 26.8 52.8 25.85 53.4 25.05 54.1 24.1 54.5 23.25 55.0 22.25 55.15 21.35 55.3 20.45 55.15 19.2 55.05 18.05 54.75 16.7 54.45 15.45 54.0 14.0 53.6 12.8 53.1 11.4 52.65 10.25 52.15 9.05 51.75 8.05 51.3 7.1 51.0 6.4 50.7 5.8 50.6 5.55 50.5 5.3 50.5 5.3 51.0 5.75 51.7 6.35 52.35 7.0 53.35 7.9 54.3 8.8 55.5 10.0 56.6 11.1 57.85 12.4 58.9 13.6 60.1 14.95 61.0 16.15 62.0 17.5 62.6 18.6 63.25 19.8 63.4 20.75 63.6 21.7 63.45 22.7 63.3 23.6 62.95 24.6 62.6 25.45 62.0 26.5 61.55 27.3 60.85 28.4 60.65 28.7 59.55 30.35 58.75 31.5 58.25 32.3 57.55 33.35 57.1 34.3 56.6 35.35 56.3 36.35 56.0 37.35 55.8 38.7 55.6 39.95 55.55 41.45 55.45 42.85 55.45 44.4 55.4 45.8 55.45 47.3 55.5 48.6 55.55 49.95 55.6 51.05 55.7 52.1 55.75 52.9 55.8 53.55 55.85 53.85 55.85 54.1 L55.85 54.1" fill="#ffffff" fill-rule="evenodd" stroke="none"/>
    <path d="M74.6 52.65 Q74.55 52.6 74.15 52.2 73.6 51.6 73.05 51.0 72.2 50.05 71.45 49.15 70.45 48.0 69.6 46.95 68.6 45.65 67.75 44.5 66.85 43.2 66.2 42.05 65.45 40.8 65.1 39.8 64.7 38.7 64.75 37.85 64.8 37.05 65.2 36.25 65.5 35.5 66.15 34.7 66.65 34.0 67.45 33.2 68.0 32.65 68.95 31.75 70.1 30.7 70.5 30.35 71.3 29.5 71.85 28.9 72.55 28.1 72.95 27.4 73.35 26.6 73.5 25.85 73.65 25.1 73.5 24.1 73.4 23.15 73.1 22.05 72.85 21.0 72.45 19.85 72.05 18.85 71.6 17.7 71.2 16.75 70.7 15.75 70.35 14.95 69.9 14.2 69.65 13.6 69.35 13.1 69.25 12.9 69.15 12.7 69.15 12.7 69.65 13.1 70.3 13.6 70.9 14.1 71.85 14.85 72.75 15.6 73.85 16.55 74.85 17.45 76.05 18.5 77.05 19.5 78.15 20.6 79.0 21.6 79.9 22.7 80.5 23.6 81.1 24.6 81.25 25.35 81.4 26.1 81.3 26.95 81.2 27.7 80.8 28.5 80.5 29.2 79.95 30.05 79.5 30.75 78.85 31.6 78.65 31.85 77.65 33.2 76.85 34.2 76.4 34.8 75.8 35.7 75.35 36.45 74.85 37.35 74.6 38.15 74.3 38.95 74.15 40.05 74.0 41.1 73.95 42.35 73.9 43.45 73.9 44.75 73.95 45.85 74.0 47.1 74.1 48.15 74.2 49.25 74.3 50.15 74.4 51.05 74.45 51.65 74.55 52.25 74.6 52.45 74.6 52.65 L74.6 52.65" fill="#ffffff" fill-rule="evenodd" stroke="none"/>
    <path d="M78.8 42.0 Q81.2 42.35 83.4 42.8 85.6 43.2 87.55 43.7 89.55 44.15 91.25 44.7 93.0 45.2 94.4 45.8 95.85 46.4 96.95 47.0 98.1 47.6 98.85 48.25 99.65 48.9 100.05 49.6 100.45 50.3 100.45 51.0 L100.45 51.8 Q100.45 54.95 100.05 58.05 99.6 61.1 98.8 64.05 98.0 67.0 96.8 69.75 95.65 72.5 94.1 75.1 92.6 77.65 90.75 80.0 88.95 82.3 86.85 84.4 84.75 86.45 82.35 88.25 80.0 90.05 77.45 91.55 L77.45 99.2 Q77.45 99.75 77.0 100.3 76.55 100.85 75.65 101.35 74.8 101.85 73.55 102.3 72.3 102.75 70.75 103.1 69.2 103.5 67.4 103.8 65.55 104.1 63.5 104.3 61.45 104.55 59.25 104.65 57.0 104.75 54.65 104.75 52.35 104.75 50.05 104.65 47.85 104.55 45.8 104.3 43.75 104.1 41.95 103.8 40.1 103.5 38.55 103.1 37.0 102.75 35.8 102.3 34.55 101.85 33.7 101.35 32.8 100.85 32.35 100.3 31.9 99.75 31.9 99.2 L31.9 91.55 Q29.35 90.05 26.95 88.25 24.6 86.45 22.5 84.4 20.4 82.3 18.55 80.0 16.75 77.65 15.2 75.1 13.7 72.5 12.5 69.75 11.35 67.0 10.55 64.05 9.7 61.1 9.3 58.05 8.85 54.95 8.85 51.8 L8.85 51.0 Q8.85 50.45 9.1 49.85 9.35 49.3 9.85 48.75 10.35 48.25 11.1 47.7 11.8 47.2 12.75 46.7 13.7 46.2 14.85 45.75 16.0 45.25 17.3 44.85 18.65 44.4 20.15 44.0 21.65 43.6 23.3 43.25 L24.6 45.5 Q23.5 45.75 22.55 46.0 21.55 46.3 20.7 46.6 19.8 46.85 19.1 47.15 18.35 47.45 17.75 47.75 17.15 48.1 16.7 48.4 16.2 48.75 15.9 49.05 15.6 49.4 15.4 49.75 15.25 50.1 15.25 50.45 15.25 50.55 15.25 50.6 15.25 50.7 15.3 50.8 15.3 50.9 15.35 50.95 15.4 51.05 15.4 51.15 15.45 51.2 15.5 51.3 15.55 51.4 15.6 51.45 15.65 51.55 15.75 51.65 15.8 51.75 15.9 51.8 16.5 52.45 17.75 53.1 18.9 53.7 20.65 54.3 22.35 54.85 24.55 55.35 26.7 55.85 29.3 56.25 31.85 56.7 34.8 57.0 37.75 57.35 40.9 57.6 44.15 57.8 47.6 57.95 51.1 58.05 54.65 58.05 58.25 58.05 61.75 57.95 65.15 57.8 68.4 57.6 71.6 57.35 74.55 57.0 77.45 56.7 80.05 56.25 82.6 55.85 84.8 55.35 87.0 54.85 88.7 54.3 90.4 53.7 91.6 53.1 92.8 52.45 93.45 51.8 93.55 51.7 93.6 51.65 93.65 51.55 93.7 51.45 93.75 51.4 93.8 51.3 93.85 51.2 93.9 51.15 93.95 51.05 94.0 50.95 94.0 50.9 94.05 50.8 94.05 50.7 94.05 50.6 94.05 50.55 94.05 50.45 94.05 50.0 93.8 49.55 93.5 49.1 92.95 48.65 92.45 48.25 91.65 47.8 90.85 47.4 89.85 47.0 88.85 46.65 87.65 46.25 86.4 45.9 85.0 45.6 83.55 45.25 81.95 44.95 80.35 44.65 78.6 44.4 L78.8 42.0 78.8 42.0" fill="#ffffff" fill-rule="evenodd" stroke="none"/>
  </g>
</svg>
