<?xml version="1.0" encoding="UTF-8" standalone="no"?>
<svg xmlns:xlink="http://www.w3.org/1999/xlink" height="106.1px" width="108.45px" xmlns="http://www.w3.org/2000/svg">
  <g transform="matrix(1.0, 0.0, 0.0, 1.0, -0.05, -0.05)">
    <path d="M2.6 0.05 Q4.35 0.15 6.15 0.35 8.55 0.55 10.95 0.95 13.85 1.45 16.7 2.1 20.0 2.85 23.15 3.85 26.75 5.0 30.05 6.4 33.75 8.0 37.15 9.9 40.85 12.0 44.2 14.5 47.75 17.15 50.9 20.25 51.25 20.6 51.55 20.95 51.9 21.3 52.25 21.7 52.55 22.05 52.85 22.45 53.2 22.85 53.5 23.2 53.8 23.6 54.1 24.0 54.4 24.4 54.7 24.85 54.95 25.25 55.25 25.65 55.55 26.1 55.8 26.5 56.1 26.45 57.85 26.25 59.05 26.1 59.75 26.0 60.7 25.9 61.45 25.9 62.35 25.9 63.05 26.0 63.85 26.1 64.6 26.35 65.35 26.6 66.05 27.0 66.8 27.45 67.5 28.1 68.25 28.75 68.95 29.65 69.15 29.8 69.7 30.75 70.2 31.7 70.9 33.2 71.6 34.75 72.3 36.6 73.05 38.55 73.75 40.5 74.45 42.65 74.95 44.55 75.5 46.7 75.75 48.35 76.05 50.2 75.95 51.5 75.85 52.9 75.3 53.6 74.4 54.7 70.55 58.45 70.95 59.2 71.35 59.9 71.8 60.65 72.2 61.3 72.65 62.0 73.1 62.65 73.55 63.3 74.05 63.9 74.5 64.5 75.0 65.1 75.5 65.65 76.05 66.2 76.55 66.7 77.1 67.2 77.65 67.7 78.25 68.15 80.05 69.5 82.2 70.75 84.05 71.85 86.3 72.95 88.15 73.8 90.5 74.75 91.95 75.35 94.6 76.4 97.35 77.5 98.55 77.95 100.65 78.85 102.2 79.6 104.0 80.45 105.4 81.35 106.95 82.35 108.05 83.4 108.5 83.8 108.1 84.15 107.75 84.4 106.7 84.65 105.85 84.85 104.3 85.1 103.75 85.2 101.15 85.5 99.1 85.8 97.8 86.0 95.9 86.3 94.55 86.65 92.9 87.05 91.8 87.5 90.55 88.05 89.9 88.7 89.3 89.35 88.95 90.6 88.65 91.65 88.6 93.25 88.5 94.55 88.6 96.3 88.6 97.4 88.75 99.4 88.9 101.45 88.9 102.25 88.95 103.7 88.9 104.5 88.8 105.45 88.5 105.75 88.15 106.15 87.5 105.75 86.05 104.9 84.75 103.65 83.5 102.5 82.3 100.9 81.25 99.55 80.1 97.65 79.2 96.25 77.95 94.05 74.05 87.1 75.8 90.15 74.45 87.8 73.4 86.1 72.0 83.9 70.7 82.05 69.15 79.9 67.5 78.1 67.2 77.8 66.9 77.45 66.6 77.15 66.25 76.85 65.95 76.55 65.6 76.25 65.25 75.95 64.85 75.65 64.5 75.35 64.1 75.05 63.75 74.75 63.35 74.5 62.95 74.2 62.55 73.95 62.15 73.65 61.7 73.4 61.35 73.8 61.05 74.3 60.75 74.75 60.45 75.3 60.15 75.8 59.9 76.4 59.6 76.95 59.35 77.55 59.15 78.1 58.9 78.7 58.7 79.3 58.5 79.9 58.3 80.5 58.1 81.1 57.9 81.65 57.75 82.25 57.0 81.6 56.3 80.85 55.65 80.15 55.1 79.35 54.55 78.6 54.05 77.75 53.6 76.95 53.25 76.05 52.85 75.15 52.55 74.2 52.3 73.3 52.05 72.3 51.85 71.3 51.75 70.25 51.65 69.25 51.6 68.15 50.05 67.45 44.95 65.3 44.45 65.75 43.9 66.3 43.4 66.85 42.9 67.5 42.4 68.1 41.95 68.8 41.5 69.45 41.0 70.15 40.6 70.85 40.15 71.6 39.75 72.3 39.35 73.05 39.0 73.75 38.6 74.5 38.25 75.2 37.9 75.9 37.2 75.05 36.55 74.1 35.95 73.2 35.45 72.25 34.9 71.35 34.5 70.35 34.1 69.35 33.75 68.35 33.45 67.3 33.25 66.25 33.0 65.2 32.85 64.1 32.75 63.0 32.7 61.85 32.65 60.75 32.65 59.6 31.75 59.15 30.95 58.65 30.05 58.2 29.25 57.7 28.4 57.2 27.6 56.7 26.8 56.15 26.05 55.6 25.25 55.05 24.5 54.5 23.75 53.95 23.0 53.35 22.3 52.75 21.6 52.15 20.9 51.5 20.25 50.9 19.55 50.15 18.85 49.4 18.15 48.7 17.5 47.9 16.8 47.15 16.2 46.4 15.55 45.65 14.95 44.85 14.35 44.1 13.8 43.3 13.25 42.55 12.7 41.75 12.15 41.0 11.65 40.2 11.15 39.4 10.65 38.6 12.05 38.65 13.15 38.6 14.4 38.55 15.5 38.4 16.7 38.25 17.8 37.95 19.0 37.6 20.1 37.1 21.25 36.55 22.35 35.8 23.5 35.05 24.65 34.0 25.85 32.95 27.05 31.6 28.3 30.25 29.55 28.55 27.9 29.55 26.65 30.3 25.2 31.1 23.95 31.75 22.6 32.45 21.45 33.0 20.15 33.55 19.0 33.95 17.75 34.35 16.55 34.6 15.3 34.9 14.05 35.05 12.8 35.15 11.45 35.15 10.1 35.15 8.6 35.0 7.35 32.6 6.25 30.1 5.25 27.75 4.4 25.3 3.6 23.0 2.95 20.65 2.3 18.5 1.85 16.3 1.4 14.3 1.05 12.3 0.75 10.5 0.5 8.7 0.35 7.15 0.2 5.65 0.1 4.4 0.05 3.15 0.15 3.3 0.25 3.45 0.35 3.6 0.5 3.7 0.6 3.85 0.7 4.0 0.85 4.15 0.95 4.3 1.05 4.45 1.2 4.6 1.35 4.75 1.45 4.9 1.6 5.05 1.75 5.15 1.9 5.3 2.0 5.45 2.5 5.95 3.05 6.4 3.55 6.85 4.05 7.25 4.55 7.65 5.05 7.95 5.5 8.25 5.95 8.45 6.4 8.7 6.8 8.85 7.2 9.0 7.55 9.05 7.85 9.05 8.1 9.0 8.4 8.95 8.55 8.8 8.7 8.65 8.75 8.4 8.8 8.15 8.75 7.8 8.75 7.45 8.6 7.05 8.45 6.65 8.2 6.25 8.0 5.8 7.7 5.3 7.35 4.8 7.0 4.3 6.6 3.8 6.15 3.3 5.7 2.8 5.2 2.3 5.05 2.15 4.85 1.95 4.7 1.8 4.55 1.65 4.35 1.5 4.2 1.35 4.05 1.2 3.9 1.05 3.7 0.9 3.55 0.8 3.4 0.65 3.2 0.55 3.05 0.4 2.9 0.3 2.75 0.15 2.6 0.05 L2.6 0.05 M21.8 9.7 Q21.35 9.7 20.95 9.8 20.5 9.85 20.15 10.05 19.75 10.2 19.4 10.45 19.05 10.65 18.75 10.95 18.5 11.25 18.25 11.6 18.0 11.95 17.85 12.3 17.7 12.7 17.6 13.15 17.5 13.55 17.5 14.0 17.5 14.45 17.6 14.85 17.7 15.3 17.85 15.65 18.0 16.05 18.25 16.4 18.5 16.75 18.75 17.05 19.05 17.35 19.4 17.55 19.75 17.8 20.15 17.95 20.55 18.1 20.95 18.2 21.35 18.3 21.8 18.3 22.25 18.3 22.65 18.2 23.1 18.1 23.5 17.95 23.85 17.8 24.2 17.55 24.55 17.35 24.85 17.05 25.15 16.75 25.35 16.4 25.6 16.05 25.75 15.65 25.95 15.3 26.0 14.85 26.1 14.45 26.1 14.0 26.1 13.55 26.0 13.15 25.95 12.7 25.75 12.35 25.6 11.95 25.35 11.6 25.15 11.25 24.85 10.95 24.55 10.65 24.2 10.45 23.85 10.2 23.5 10.05 23.1 9.85 22.7 9.8 22.25 9.7 21.8 9.7 L21.8 9.7" fill="#ffffff" fill-rule="evenodd" stroke="none"/>
  </g>
</svg>
