<?xml version="1.0" encoding="UTF-8"?>
<svg width="1200pt" height="1200pt" version="1.1" viewBox="0 0 1200 1200" xmlns="http://www.w3.org/2000/svg">
 <g fill="#fff">
  <path d="m142.97 1134.2c78.727-39.961 181.69-96.094 291.07-165.89 6.4336-4.1094 10.797-10.785 11.98-18.328 1.1836-7.543-0.92578-15.234-5.793-21.117-14.18-17.039-29.695-34.641-46.406-52.289-4.3477-4.4844-6.8125-10.465-6.8945-16.711-0.078125-6.2422 2.2383-12.281 6.4727-16.875 4.4414-4.5938 10.543-7.207 16.934-7.2617 6.3906-0.050781 12.531 2.4609 17.051 6.9805l0.44531 0.44531c20.508 21.609 39.164 43.031 55.945 63.516 4.2383 5.1719 10.27 8.5586 16.891 9.4883 6.625 0.92969 13.352-0.66797 18.852-4.4727 26.422-18.188 52.859-37.094 79.312-56.719 5.9727-4.4336 9.8242-11.164 10.617-18.559 0.79688-7.3984-1.5312-14.789-6.4219-20.395-32.227-36.773-69.609-76.547-112.29-117.82l-0.28125-0.28125c-5.9023-6.0039-8.1992-14.676-6.043-22.816s8.4492-14.535 16.551-16.828c8.1016-2.293 16.812-0.14062 22.914 5.6602 45.539 44.039 85.102 86.25 118.95 125.04 4.5312 5.207 10.91 8.4492 17.789 9.0469 6.8789 0.59375 13.719-1.5078 19.078-5.8594 16.875-13.734 33.555-27.742 50.039-42.023 5.3984-4.6641 8.6992-11.301 9.168-18.418 0.46484-7.1172-1.9414-14.129-6.6836-19.457-18.023-20.156-37.055-40.57-57.023-60.938-9.1406-9.375-10.055-24.422-1.0781-33.891 4.4258-4.668 10.555-7.3516 16.988-7.4414 6.4336-0.089843 12.629 2.4258 17.184 6.9727l0.11719 0.14062c20.578 20.859 40.125 41.789 58.594 62.391 4.8398 5.3711 11.66 8.5469 18.887 8.7891 7.2266 0.24219 14.242-2.4648 19.434-7.5 4.2656-4.125 8.4922-8.2656 12.68-12.422 26.57-26.023 43.742-60.141 48.82-96.984 6.0234-45.773-4.125-107.25-67.969-171.09-64.453-64.453-126.56-74.18-172.43-67.805-36.543 5.4102-70.301 22.656-96.094 49.102-215.16 217.27-378.42 503.3-465.4 674.58-25.359 50.062 28.031 103.45 78.047 78.047z"/>
  <path d="m1029.3 276.38s110.39-82.758 108.3-182.11c-0.24609-8.1523-3.6016-15.898-9.375-21.66-5.7734-5.7578-13.527-9.0938-21.68-9.3242-99.328-2.0859-182.11 108.33-182.11 108.33-6.0234-54.75-43.289-89.906-72.797-109.5-3.6445-2.4883-8.1367-3.4023-12.465-2.5391-4.3242 0.86328-8.1211 3.4375-10.531 7.1328-2.4102 3.6953-3.2266 8.207-2.2695 12.516 18.984 84.141-14.812 166.76-33.586 203.91-2.7148 5.3555-3.375 11.52-1.8555 17.328s5.1172 10.855 10.105 14.195c24.023 15.984 69.211 61.148 85.172 85.195 3.3438 4.9922 8.3984 8.5859 14.207 10.105 5.8125 1.5234 11.98 0.85938 17.34-1.8555 37.172-18.75 119.79-52.57 203.91-33.609 4.3086 0.96484 8.8281 0.15234 12.531-2.2539s6.2773-6.207 7.1445-10.539c0.86328-4.3281-0.050781-8.8242-2.543-12.473-19.617-29.555-54.773-66.82-109.5-72.844z"/>
 </g>
</svg>
