<?xml version="1.0" encoding="UTF-8" standalone="no"?>
<!DOCTYPE svg PUBLIC "-//W3C//DTD SVG 1.1//EN" "http://www.w3.org/Graphics/SVG/1.1/DTD/svg11.dtd">
<svg width="100%" height="100%" viewBox="0 0 296 512" version="1.1" xmlns="http://www.w3.org/2000/svg" xmlns:xlink="http://www.w3.org/1999/xlink" xml:space="preserve" xmlns:serif="http://www.serif.com/" style="fill-rule:evenodd;clip-rule:evenodd;stroke-linejoin:round;stroke-miterlimit:2;">
    <g transform="matrix(1,0,0,1,-286.873,-58.0304)">
        <g transform="matrix(0.472354,0,0,0.472354,151.367,30.6195)">
            <path d="M365.3,417.05C361.265,418.648 358.046,421.804 356.363,425.808C354.683,429.808 354.683,434.316 356.363,438.316C358.046,442.32 361.265,445.476 365.3,447.074L465.73,486.754C470.953,488.816 476.519,489.875 482.136,489.871L717.846,489.871C723.463,489.875 729.03,488.816 734.252,486.754L834.682,447.074C838.717,445.476 841.936,442.32 843.62,438.316C845.299,434.316 845.299,429.808 843.62,425.808C841.936,421.804 838.717,418.648 834.682,417.05C779.182,394.55 735.213,355.714 711.872,332.066C699.181,319.191 681.856,311.941 663.778,311.933L536.208,311.933C518.134,311.937 500.817,319.187 488.138,332.066C464.794,355.714 420.802,394.55 365.298,417.05L365.3,417.05Z" style="fill:white;fill-rule:nonzero;"/>
            <path d="M867.68,868.31L913.008,493.03C913.699,487.374 911.356,481.772 906.844,478.288C902.332,474.807 896.321,473.96 891.024,476.061L769.714,523.991C765.108,525.804 761.14,528.933 758.292,532.98C755.448,537.03 753.85,541.827 753.706,546.773L742.831,910.453C742.632,916.964 744.827,923.32 748.991,928.324C753.159,933.331 759.014,936.64 765.452,937.624C771.89,938.613 778.468,937.207 783.94,933.679L855.635,887.531C862.311,883.238 866.725,876.191 867.682,868.312L867.68,868.31Z" style="fill:white;fill-rule:nonzero;"/>
            <path d="M343.76,962.81C345.588,977.927 356.393,998.622 367.713,1008.84C409.901,1046.93 446.697,1075.22 487.803,1126.4C495.721,1136.25 507.678,1141.97 520.311,1141.96L681.261,1141.96C692.964,1141.97 704.038,1136.66 711.355,1127.53C752.957,1075.47 790.105,1047.04 832.735,1008.5C843.938,998.38 854.508,977.778 856.313,962.802C856.782,959.052 855.036,955.368 851.833,953.361C848.633,951.349 844.559,951.376 841.384,953.427L766.056,1001.92C753.548,1009.94 740.185,1016.54 726.212,1021.61C725.196,1022.06 724.157,1022.45 723.094,1022.78C707.039,1028.36 690.344,1031.88 673.406,1033.26L526.736,1033.26C509.791,1031.87 493.088,1028.35 477.025,1022.78C475.971,1022.46 474.936,1022.07 473.932,1021.61C459.959,1016.55 446.596,1009.94 434.088,1001.92L358.596,953.427C355.42,951.376 351.346,951.349 348.147,953.361C344.943,955.368 343.197,959.052 343.666,962.802L343.76,962.81Z" style="fill:white;fill-rule:nonzero;"/>
            <path d="M600,537.54L519.797,537.54C512.961,537.548 506.418,540.325 501.66,545.235C496.898,550.141 494.328,556.766 494.531,563.602L506.25,959.982C506.387,966.471 508.902,972.677 513.32,977.431C517.735,982.185 523.746,985.15 530.203,985.763L669.613,985.763C676.07,985.15 682.082,982.185 686.496,977.431C690.914,972.677 693.43,966.47 693.567,959.982L705.473,563.602C705.676,556.758 703.098,550.125 698.328,545.215C693.559,540.305 687.004,537.536 680.16,537.539L600,537.54Z" style="fill:white;fill-rule:nonzero;"/>
            <path d="M286.99,493.03L332.318,868.31C333.279,876.193 337.693,883.244 344.365,887.552L416.06,933.677C421.533,937.204 428.111,938.611 434.548,937.622C440.986,936.638 446.841,933.329 451.009,928.321C455.173,923.318 457.368,916.962 457.169,910.45L446.294,546.77C446.15,541.825 444.552,537.028 441.708,532.977C438.861,528.931 434.892,525.802 430.286,523.989L308.976,476.059C303.679,473.958 297.667,474.805 293.156,478.286C288.645,481.77 286.301,487.372 286.992,493.028L286.99,493.03Z" style="fill:white;fill-rule:nonzero;"/>
            <path d="M580.88,127.9L581.747,127.502C596.77,120.791 613.638,119.443 629.536,123.681C657.263,130.877 673.224,149.954 682.27,167.228C684.731,171.982 690.032,174.545 695.286,173.529C700.54,172.51 704.497,168.15 705.005,162.822C705.571,156.9 705.681,150.947 705.333,145.01C704.864,136.295 702.849,127.733 699.38,119.721C672.146,56.604 612.333,58.033 612.333,58.033C528.661,58.033 502.693,110.463 494.633,143.369C489.469,163.057 491.617,183.951 500.68,202.174C518.422,236.346 554,245.744 570.524,248.299C575.594,249.115 579.321,253.498 579.313,258.635C579.313,263.303 581.169,267.78 584.469,271.08C587.77,274.381 592.247,276.236 596.914,276.236L600.008,276.236C605.461,276.228 610.692,274.06 614.543,270.201C618.399,266.342 620.563,261.111 620.563,255.658L620.563,253.455C620.547,245.275 617.758,237.346 612.648,230.959C607.539,224.572 600.414,220.107 592.437,218.299C591.945,218.299 591.453,218.088 590.961,217.947C546.899,207.213 539.914,147.166 580.883,127.9L580.88,127.9Z" style="fill:white;fill-rule:nonzero;"/>
        </g>
    </g>
</svg>
