<?xml version="1.0" encoding="UTF-8"?>
<svg width="512pt" height="512pt" version="1.1" viewBox="0 0 512 512" xmlns="http://www.w3.org/2000/svg">
 <g fill="#fff">
  <path d="m510.96 61.066c-0.59766-2.3164-1.5664-4.5547-3.2109-6.5078l-40.426-48.609c-5.8672-7.0508-16.277-7.9688-23.309-2.0898-6.9961 5.8789-7.9375 16.363-2.0781 23.402l30.891 37.141-18.207 15.648-16.043-19.199c-5.8867-7.0312-16.309-7.9453-23.316-2.0273-6.9961 5.8984-7.8945 16.383-2.0273 23.402l16.234 19.434-142.96 122.85c-5.5586-3.2656-12.289-5.4062-20.457-6.0703-52.062-4.2461-154.59 46.711-199.57 82.316-60.312 47.68-83.617 115.61-53.059 154.6 11.316 14.434 28.691 22.988 50.262 24.746 34.527 2.8281 76.309-12.223 111.78-40.289 38.859-30.754 127.24-129.75 127.07-185.37 0-0.011719 0.019531-0.011719 0.042968-0.03125l203.73-175.04c5.418-4.6367 6.9766-11.977 4.6602-18.312zm-409.66 371.69c-2.1875 1.5234-4.7148 2.1328-7.1562 1.9414-3.1797-0.25781-6.2305-1.8984-8.1797-4.7461l-29.449-42.816c-3.457-5.0352-2.207-11.938 2.8047-15.414 5.0234-3.4766 11.871-2.2305 15.34 2.8281l29.449 42.816c3.4414 5.0234 2.1953 11.922-2.8086 15.391z"/>
  <path d="m189.11 457.21c-33.664 26.633-72.906 42.625-108.43 44.938 12.352 5.0469 25.312 8.2891 38.719 9.3984h0.019531c54.156 4.4141 111.74-24.234 150.29-74.816 30.102-39.5 44.574-86.121 42.527-133.77-30.172 67.711-106.87 141.38-123.13 154.25z"/>
 </g>
</svg>
