<?xml version="1.0" encoding="UTF-8"?>
<svg width="512pt" height="512pt" version="1.1" viewBox="0 0 512 512" xmlns="http://www.w3.org/2000/svg">
 <g fill="#fff">
  <path d="m240.51 317.37c-4.7305-0.13672-9.4609-0.33594-14.191-0.59766l-1.5508-0.11328c-4.2148-0.25-8.4336-0.54297-12.633-0.89453l-6.875-0.64453c-0.90625-0.085938-1.8086-0.16406-2.7109-0.25781v46.555c15.938 1.6641 32.098 2.5859 48.105 2.7617l0.011719-46.613c-1.1211-0.015625-2.2461-0.042968-3.3672-0.070312z"/>
  <path d="m303 315.48c-1.0469 0.11328-2.1133 0.20703-3.1562 0.29688-4.1055 0.33594-8.2188 0.62891-12.336 0.87891l-1.8711 0.11328c-4.6914 0.27344-9.4062 0.46875-14.121 0.60938l-7.1211 0.13281c-1.0195 0.019532-2.0469 0.042969-3.0625 0.0625v46.602c16.02-0.17578 32.188-1.0977 48.113-2.7695l0.011719-46.539c-0.875 0.089844-1.75 0.16016-2.6328 0.24609z"/>
  <path d="m180.69 312.13c-4.9102-0.73047-9.7695-1.5312-14.555-2.3984l-2.832-0.56641c-3.7656-0.71875-7.4922-1.457-11.148-2.2656-1.0469-0.22266-2.0781-0.47656-3.1094-0.72656l-4.0273-0.94922c-0.41406-0.097656-0.82812-0.1875-1.2422-0.28906v46.379c14.863 3.7188 31.02 6.7031 48.102 8.8711l0.003906-46.527c-2.7148-0.33594-5.4023-0.73047-8.0859-1.1055z"/>
  <path d="m71.012 275.79c-0.70312-0.44141-1.3984-0.87891-2.0586-1.3281-1.1367-0.76172-2.1914-1.5508-3.2539-2.3359l-1.5664-1.1484c-0.61719-0.44922-1.2383-0.89453-1.8125-1.3555-1.2734-0.99609-2.4414-2.0156-3.6055-3.0312l-1.0781-0.91797c-0.40625-0.33594-0.80469-0.66797-1.1719-1.0078-1.8281-1.668-3.5195-3.375-5.0664-5.0938-1.2266-1.3594-2.3477-2.7305-3.4023-4.1133v29.184c0 13.164 9.0898 26.266 26.34 38.098v-44.812c-0.36719-0.23828-0.73438-0.46875-1.0977-0.71094z"/>
  <path d="m107 293.66-1.6797-0.625c-3.9414-1.543-7.6953-3.125-11.324-4.7773l-2.0156-0.91797c-2.3906-1.1094-4.7266-2.2578-6.9766-3.4258v45.402c13.242 7.3711 29.402 13.801 48.105 19.148l0.011719-46.297c-4.5352-1.2578-8.9453-2.5547-13.172-3.9258-4.543-1.4805-8.8047-3.0156-12.949-4.582z"/>
  <path d="m452.67 252.44c7.5156-8.3516 11.328-16.777 11.328-25.055 0-43.871-93.309-79.562-208-79.562-114.69 0-208 35.691-208 79.562 0 8.293 3.8125 16.719 11.332 25.055 5.543 6.1484 13.297 12.164 23.047 17.902 15.312 8.9805 34.625 16.582 57.441 22.625 17.984 4.7539 37.504 8.3359 58.012 10.668 38.367 4.3789 77.797 4.3828 116.34 0.011719 20.699-2.375 40.219-5.9688 58.016-10.691 22.836-6.0312 42.16-13.637 57.445-22.609 9.7148-5.7188 17.473-11.742 23.043-17.906zm-196.67 45.172c-101.56 0-181.12-30.848-181.12-70.23 0-39.383 79.559-70.23 181.12-70.23s181.12 30.848 181.12 70.23c-0.003907 39.383-79.559 70.23-181.12 70.23z"/>
  <path d="m256 167.82c-90.801 0-170.45 27.836-170.45 59.562 0 31.727 79.652 59.562 170.45 59.562 90.801 0 170.45-27.836 170.45-59.562 0-31.73-79.656-59.562-170.45-59.562z"/>
  <path d="m367.16 305.19-4.2148 0.99609c-1.0195 0.24609-2.0469 0.49609-3.0938 0.72656-3.5195 0.77344-7.1133 1.4766-10.73 2.1758l-3.2461 0.64453c-4.7578 0.875-9.5859 1.6641-14.48 2.3945l-4.9648 0.67578c-2.1016 0.30469-4.207 0.59375-6.332 0.86328v46.527c17.055-2.1602 33.215-5.1406 48.113-8.875l-0.003906-46.375c-0.33984 0.089844-0.69531 0.16406-1.0469 0.24609z"/>
  <path d="m418.41 288.07c-4.0312 1.8281-7.8086 3.4336-11.754 4.9648l-1.6055 0.60156c-8.0977 3.0898-16.906 5.9609-26.18 8.5352v46.297c18.688-5.3398 34.852-11.77 48.113-19.148v-45.402c-2.3242 1.1992-4.6328 2.332-7.0039 3.4336z"/>
  <path d="m460.59 259.59c-1.543 1.707-3.2305 3.418-5.0703 5.0938-0.39453 0.375-0.86328 0.77344-1.332 1.1523l-0.6875 0.57422c-1.2266 1.0703-2.4688 2.1641-3.8359 3.2383-0.53906 0.42578-1.1367 0.84766-1.7266 1.2695l-1.5742 1.1562c-1.0781 0.80078-2.1719 1.6172-3.332 2.3984-0.66797 0.45313-1.375 0.89453-2.0977 1.3438l-2.0742 1.3281c-0.39844 0.26172-0.80078 0.52344-1.2109 0.77734v44.812c17.254-11.836 26.34-24.945 26.34-38.105h0.011719v-29.168c-1.0586 1.3828-2.1758 2.7578-3.4102 4.1289z"/>
 </g>
</svg>
