<?xml version="1.0" encoding="UTF-8"?>
<svg width="512pt" height="512pt" version="1.1" viewBox="0 0 512 512" xmlns="http://www.w3.org/2000/svg">
 <path d="m322.95 174.09s-13.523 7.0156-63.984 7.2578c-35.164 0.17188-55.277-3.418-64.266-5.6094l62.93 151.81 7.7422-19.684c0.078125-0.20703 0.16406-0.40625 0.26172-0.60547 0.058593-0.11719 0.11719-0.23438 0.17969-0.34766s0.125-0.22656 0.19141-0.33594c0.066407-0.11328 0.14063-0.22266 0.21484-0.33203 0.070313-0.10547 0.14453-0.21094 0.21875-0.31641 0.082032-0.10156 0.16406-0.20312 0.24609-0.30078 0.082031-0.10156 0.16797-0.19922 0.25391-0.29297 0.089844-0.097656 0.17969-0.1875 0.27344-0.27734 0.09375-0.09375 0.1875-0.18359 0.28125-0.26953 0.097656-0.082031 0.19531-0.16406 0.29688-0.24219 0.10156-0.082031 0.20703-0.16406 0.31641-0.24609 0.10156-0.070313 0.20312-0.13672 0.30859-0.20313 0.10938-0.078124 0.22656-0.14844 0.34375-0.21875 0.10938-0.0625 0.22656-0.125 0.33984-0.18359 0.11328-0.058594 0.22656-0.11328 0.33984-0.16797 0.125-0.054688 0.25-0.10547 0.37891-0.15234 0.11328-0.046875 0.23047-0.09375 0.34766-0.13281 0.125-0.042969 0.25-0.078125 0.37891-0.11328 0.125-0.035156 0.25-0.070312 0.375-0.10156 0.125-0.027344 0.25-0.050781 0.37891-0.074219 0.12891-0.023437 0.25781-0.042969 0.38672-0.058593 0.21875-0.03125 0.4375-0.050782 0.65625-0.058594 0.51953-0.019532 1.0391 0.011718 1.5508 0.09375 0.25781 0.039062 0.51172 0.09375 0.76172 0.16016 0.5 0.13281 0.98828 0.31641 1.4531 0.54688 0.23438 0.11719 0.46094 0.24219 0.67969 0.37891 0.066407 0.046875 0.12891 0.089844 0.19141 0.13672 0.15234 0.097656 0.30078 0.20312 0.44531 0.30859 0.41016 0.32031 0.78906 0.67969 1.1289 1.0703 0.16797 0.19922 0.32812 0.40234 0.47656 0.61328 0.44531 0.64062 0.79688 1.3438 1.0352 2.0859 0.019532 0.066406 0.035156 0.13281 0.054688 0.19922 0.11328 0.39062 0.19922 0.78906 0.25 1.1953 0.007812 0.039063 0.015625 0.082032 0.019531 0.125 0.027344 0.25781 0.046875 0.51562 0.046875 0.77344 0.003906 0.26172-0.003906 0.51953-0.027344 0.77734-0.003906 0.039062-0.011718 0.074218-0.015625 0.10937-0.050781 0.48047-0.14062 0.95313-0.27734 1.418-0.074219 0.25-0.16016 0.49219-0.25781 0.73438l-9.5742 24.34h120.66l9.5742-24.34c0.29688-0.72266 0.48047-1.4844 0.55078-2.2617 0.09375-1.0352-0.023437-2.082-0.34375-3.0742-0.078125-0.24609-0.16797-0.48828-0.27344-0.72656-0.054688-0.11719-0.11328-0.23438-0.17578-0.35156-0.050782-0.11719-0.10938-0.23047-0.17188-0.34375-0.37891-0.67969-0.86328-1.3008-1.4258-1.8359-0.1875-0.17969-0.38672-0.34766-0.58984-0.50781-0.20703-0.16016-0.41797-0.30859-0.63672-0.44531-0.082031-0.046875-0.16406-0.09375-0.24609-0.13672-0.36719-0.21484-0.75-0.40234-1.1484-0.55469-0.24219-0.089844-0.49219-0.16797-0.74219-0.23438-0.5-0.13281-1.0156-0.21484-1.5352-0.24609-0.25781-0.015625-0.51953-0.015625-0.77734 0-0.51953 0.019532-1.0352 0.089844-1.5391 0.21484-0.50391 0.125-0.99609 0.29688-1.4648 0.51953-1.832 0.85938-3.2539 2.4023-3.9648 4.293l-3.7148 9.4414-59.363-143.21zm-136.52 6.0977-56.789 137.01-3.6719-9.3281c-1.1016-2.9258-3.8477-4.9062-6.9688-5.0312-2.6484-0.10938-5.1719 1.1406-6.6914 3.3125-1.5195 2.168-1.832 4.9648-0.82812 7.418l9.5742 24.34h38.965l26.41-89.211 26.41 89.211h38.965l-65.375-157.71zm86.223 130.49c-0.011719 0-0.027344 0-0.042969 0.03125h0.007813c0.015625-0.03125 0.027344-0.03125 0.039062-0.03125 0.003906-0.003907 0.007813 0 0.007813 0h0.007812c0.003907 0 0.007813 0.03125 0.003907 0.042968-0.003907 0.03125-0.007813 0.046875-0.015626 0.082032-0.03125 0.13281-0.10937 0.36328-0.22656 0.67578-0.23438 0.62109-0.63281 1.5742-1.1367 2.7539-1.0078 2.3594-2.4492 5.6211-3.9023 8.9805-1.4531 3.3555-2.9141 6.8008-3.9688 9.5195-0.52734 1.3594-0.95313 2.5391-1.2227 3.4297-0.13672 0.44531-0.23047 0.82422-0.28125 1.1172s-0.058593 0.5-0.007812 0.61328h0.007812c-0.046875-0.10938-0.039062-0.32031 0.007813-0.60938 0.050781-0.29297 0.14844-0.66797 0.28125-1.1133 0.26953-0.89453 0.69531-2.0703 1.2227-3.4297 1.0547-2.7188 2.5156-6.1641 3.9688-9.5195 1.4531-3.3555 2.8945-6.6211 3.9023-8.9805 0.50391-1.1797 0.90234-2.1289 1.1367-2.7539 0.11719-0.3125 0.19531-0.53906 0.22656-0.67578 0.007813-0.03125 0.011719-0.0625 0.015625-0.082031 0.003906-0.03125 0-0.039063-0.003906-0.046875h-0.011719c-0.007813-0.003906-0.007813 0-0.015625 0z" fill="#fff" fill-rule="evenodd"/>
</svg>
