<?xml version="1.0" encoding="UTF-8"?>
<svg width="512pt" height="512pt" version="1.1" viewBox="0 0 512 512" xmlns="http://www.w3.org/2000/svg">
 <path d="m289.39 61.219c-28.16 0-54.996 5.4414-79.793 15.059l-46.695-52.246c-11.586-11.664-32.043-8.5703-54.527 3.4727l-17.008-17.309c-12.922-13.176-40.203 3.4297-64.078 28.883-23.871 25.457-35.805 54.676-20.367 67.098l14.305 9.7031c-12.789 25.145-14.473 47.852 1 60.16l56.867 38.156c-7.8477 23.484-12.312 48.738-12.312 75.34 0 117.24 99.664 216.9 222.61 216.9 122.95 0 222.61-99.664 222.61-216.9 0-128.66-99.664-228.32-222.61-228.32zm-267.11 29.738c-0.14453-1.043 0.15625-3.2578 1.1914-6.3555 2.8828-8.5781 10.051-19.621 20.059-30.297 10.66-11.375 21.414-20.031 29.828-24.23 1.9258-0.95703 3.3711-1.4805 4.543-1.8242l30.207 30.73c1.9141 2.25 3.4961 7.4258 3.1484 13.703-0.48828 8.6016-4.3633 17.695-12.207 26.254-8.582 9.3867-17.621 15.004-25.926 17.086-5.8984 1.4688-10.516 0.92578-12.922-0.56641zm12.355 66.594s-2.0234-14.223 5.1523-29.082l8.6484 5.8672c15.082 9.4023 42.797 6.1328 67.039-20.383 24.242-26.5 20.691-56.941 9.207-69.875l-0.13672-0.12109c11.234-5.457 21.75-5.1016 21.75-5.1016l47.984 53.684c2.8828 3.2188 4.9062 7.3789 6.3984 11.965 5.9688 18.277 0.55859 45.57-20.891 68.754-25.656 27.727-54.738 37.098-73.16 31.133-2.2148-0.71484-71.992-46.84-71.992-46.84zm254.75 326.62c-109.84 0-200.35-88.91-200.35-194.64 0-22.539 3.4727-44.086 9.75-64.23 25.223 8.3477 63.387-0.23438 97.324-36.91 29.973-32.391 33.371-68.441 24.934-92.648 21.312-7.8164 44.254-12.266 68.34-12.266 111.44 0 200.35 90.488 200.35 206.05 0 105.73-90.512 194.64-200.35 194.64zm-44.523-372.82c-0.019532 73.883-57.633 134.3-130.38 138.82-2.0938 10.898-3.1836 22.148-3.1836 33.66 0 98.348 79.738 178.09 178.09 178.09 98.348 0 178.09-79.738 178.09-178.09s-79.738-178.09-178.09-178.09c-15.371 0-30.297 1.9492-44.523 5.6133zm44.52 283.67c0.26953 0.066406 0.41406 0.10547 0.41406 0.10547s0.03125-0.078125 0.085937-0.23047c1.5469-0.36719 4.9062-1.0703 8.918-1.3242 3.3047-0.21484 7.1953 0.42188 10.625-0.96094 2.1445-0.86719 5.1914-4.7422 7.0625-5.4336 4.1094-1.5156 6.1016-0.20313 6.1016-4.3359 0-3.2109-1.2305-6.3477-1.2305-6.3477l-4.8711-6.4219s4.3828-9.1406 11.07-9.1406c6.6914 0 7.0234 2.7266 7.0234 2.7266s14.828-1.2227 19.332-9.5c4.5039-8.2734 7.0781-8.957 7.0781-8.957s2.9023-2.457-1.0664-6.2891c-3.9648-3.832-3.2539-14.516-0.11719-21.008 3.1406-6.4961 4.7461-5.3164 5.7812-14.059 1.0352-8.7461 3.5234-28.828-0.53516-36.547-3.543-6.7383-16.918-39.977-60.32-48.344-2.7891-1.25-6.0039-1.9141-9.6875-1.9141-1.9336 0-3.8203 0.042969-5.6641 0.12891-1.8438-0.085937-3.7305-0.12891-5.6602-0.12891-3.6836 0-6.8984 0.66406-9.6875 1.9141-43.406 8.3672-56.781 41.605-60.32 48.344-4.0625 7.7188-1.5742 27.801-0.53516 36.547 1.0352 8.7422 2.6406 7.5625 5.7773 14.059 3.1367 6.4922 3.8516 17.176-0.11719 21.008-3.9648 3.832-1.0664 6.2891-1.0664 6.2891s2.5742 0.68359 7.082 8.957c4.5039 8.2773 19.332 9.5 19.332 9.5s0.32813-2.7266 7.0195-2.7266 11.07 9.1406 11.07 9.1406l-4.8711 6.4219s-1.2305 3.1367-1.2305 6.3477c0 4.1328 1.9922 2.8203 6.1016 4.3359 1.8711 0.69141 4.918 4.5664 7.0664 5.4336 3.4297 1.3828 7.3164 0.74609 10.621 0.96094 4.0117 0.25391 7.3711 0.95703 8.918 1.3242 0.058594 0.15234 0.085937 0.23047 0.085937 0.23047s0.14453-0.039062 0.41406-0.10547zm0-38.734c-0.61719 0.003907-1.4375 0.26953-1.9453 1.4766-1.0742 1.7344-2.7852 1.3242-2.7852 1.3242s-2.8086-0.41406-4.1719-3.9766c-0.91797-3.0078 2.4375-7.3203 6.957-14.574 1.4375-2.1484 2.4102-2.7109 3.0586-2.3672 0.64844-0.34375 1.6211 0.21875 3.0625 2.3672 4.5156 7.2539 7.8711 11.566 6.957 14.574-1.3672 3.5625-4.1758 3.9766-4.1758 3.9766s-1.7109 0.41016-2.7812-1.3242c-0.51172-1.207-1.332-1.4727-1.9492-1.4766v0.14844h-2.2266zm8.9492-37.598s-0.63281-5.1484 2.832-8.5859c3.4648-3.4336 6.7891-6.1367 10.711-6.1367 3.9258 0 26.48 1.043 26.48 15.93 0 14.883-1.2969 16.113-10.914 17.555-9.6172 1.4414-16.453-0.71094-23.617-6.3086-7.1641-5.5938-5.2969-11.355-5.2969-11.355zm-17.898 0s0.63672-5.1484-2.832-8.5859c-3.4648-3.4336-6.7891-6.1367-10.711-6.1367-3.9258 0-26.48 1.043-26.48 15.93 0 14.883 1.2969 16.113 10.914 17.555 9.6211 1.4414 16.453-0.71094 23.617-6.3086 7.168-5.5938 5.2969-11.355 5.2969-11.355z" fill="#fff" fill-rule="evenodd"/>
</svg>
