<?xml version="1.0" encoding="UTF-8" standalone="no"?>
<!DOCTYPE svg PUBLIC "-//W3C//DTD SVG 1.1//EN" "http://www.w3.org/Graphics/SVG/1.1/DTD/svg11.dtd">
<svg width="100%" height="100%" viewBox="0 0 262 512" version="1.1" xmlns="http://www.w3.org/2000/svg" xmlns:xlink="http://www.w3.org/1999/xlink" xml:space="preserve" xmlns:serif="http://www.serif.com/" style="fill-rule:evenodd;clip-rule:evenodd;stroke-linejoin:round;stroke-miterlimit:2;">
    <g transform="matrix(1,0,0,1,-321.894,-56.1549)">
        <g transform="matrix(0.470678,0,0,0.470678,170.386,29.7241)">
            <path d="M520.48,160.92L679.53,160.92C697.612,160.897 714.944,153.693 727.721,140.897C740.494,128.1 747.67,110.752 747.662,92.67L747.662,73.92C747.662,69.209 745.791,64.689 742.459,61.358C739.127,58.027 734.607,56.155 729.897,56.155L470.017,56.155C465.333,56.178 460.849,58.053 457.54,61.366C454.231,64.678 452.364,69.167 452.345,73.85L452.345,92.6C452.321,110.694 459.485,128.057 472.263,140.87C485.04,153.682 502.384,160.897 520.478,160.921L520.48,160.92Z" style="fill:white;fill-rule:nonzero;"/>
            <path d="M417.4,1031.8C426.494,1041.12 432.755,1052.84 435.47,1065.57L447.447,1121.5C448.799,1127.85 452.295,1133.55 457.345,1137.64C462.396,1141.72 468.7,1143.95 475.197,1143.95L724.807,1143.95C731.303,1143.95 737.608,1141.72 742.659,1137.64C747.71,1133.55 751.206,1127.85 752.558,1121.5L764.535,1065.57C767.25,1052.84 773.511,1041.12 782.605,1031.8L862.902,949.253C870.406,941.585 875.429,931.831 877.312,921.269C879.199,910.707 877.859,899.82 873.472,890.027C773.699,668.867 707.562,324.227 691.012,232.067C689.852,225.501 686.414,219.555 681.305,215.266C676.196,210.981 669.743,208.633 663.075,208.629L536.935,208.629C530.267,208.633 523.814,210.981 518.705,215.266C513.596,219.555 510.158,225.5 508.998,232.067C492.451,324.317 426.31,668.967 326.538,890.117C322.171,899.898 320.843,910.765 322.729,921.308C324.612,931.855 329.624,941.589 337.108,949.249L417.4,1031.8ZM424.783,888.32C469.947,758.05 511.502,587.31 525.303,528.44C526.697,522.448 530.08,517.104 534.897,513.272C539.713,509.444 545.682,507.354 551.835,507.346L648.14,507.346C654.296,507.35 660.273,509.436 665.093,513.264C669.913,517.096 673.3,522.444 674.694,528.44C688.522,587.315 730.053,758.13 775.214,888.32C779.355,900.16 777.097,913.3 769.238,923.078C755.738,939.859 732.91,968.312 707.738,1000.21C700.847,1008.96 690.328,1014.06 679.191,1014.06L520.801,1014.06C509.633,1014.07 499.082,1008.95 492.184,1000.17C467.012,968.267 444.184,939.813 430.684,923.032C422.863,913.251 420.633,900.137 424.777,888.321L424.783,888.32Z" style="fill:white;fill-rule:nonzero;"/>
        </g>
    </g>
</svg>
