<?xml version="1.0" encoding="UTF-8" standalone="no"?>
<!DOCTYPE svg PUBLIC "-//W3C//DTD SVG 1.1//EN" "http://www.w3.org/Graphics/SVG/1.1/DTD/svg11.dtd">
<svg width="100%" height="100%" viewBox="0 0 431 512" version="1.1" xmlns="http://www.w3.org/2000/svg" xmlns:xlink="http://www.w3.org/1999/xlink" xml:space="preserve" xmlns:serif="http://www.serif.com/" style="fill-rule:evenodd;clip-rule:evenodd;stroke-linejoin:round;stroke-miterlimit:2;">
    <g transform="matrix(1,0,0,1,-143.022,-56.1549)">
        <g transform="matrix(0.470698,0,0,0.470698,75.7019,29.7229)">
            <path d="M521.23,160.92L680.28,160.92C698.378,160.92 715.737,153.729 728.53,140.928C741.327,128.127 748.514,110.768 748.507,92.67L748.507,73.92C748.507,69.209 746.636,64.689 743.304,61.358C739.972,58.027 735.452,56.155 730.742,56.155L470.772,56.155C466.061,56.155 461.541,58.026 458.21,61.358C454.878,64.69 453.007,69.21 453.007,73.92L453.007,92.67C452.999,110.768 460.186,128.127 472.984,140.928C485.777,153.729 503.136,160.92 521.234,160.92L521.23,160.92Z" style="fill:white;fill-rule:nonzero;"/>
            <path d="M599.25,1143.9L600.75,1143.9C820.17,1143.48 935.74,1055.03 995.81,972.48C1054.99,891.152 1071.72,787.07 1044.12,690.34C1013.93,584.52 945.232,515.45 894.115,476.61C867.763,457.016 838.814,441.184 808.099,429.571C788.337,422.028 769.896,411.395 753.466,398.071C711.466,363.665 688.193,311.352 688.193,257.141L688.193,232.368C688.193,226.04 685.67,219.97 681.185,215.505C676.697,211.04 670.615,208.548 664.287,208.579L535.707,208.579C529.395,208.571 523.336,211.075 518.871,215.54C514.402,220.001 511.895,226.056 511.895,232.368L511.895,257.141C511.895,311.422 488.622,363.661 446.622,398.071C430.192,411.395 411.751,422.028 391.989,429.571C361.274,441.184 332.325,457.016 305.973,476.61C254.762,515.446 186.063,584.42 155.973,690.34C128.364,787.067 145.098,891.15 204.278,972.48C264.255,1055.03 379.828,1143.48 599.248,1143.9L599.25,1143.9ZM374.63,646.32L825.35,646.32C901.967,646.32 962.13,712.929 953.2,789.01C945.02,858.877 911.012,938.31 811.59,987.29C778.625,1003.24 743.25,1013.64 706.89,1018.06C671.683,1022.53 636.23,1024.82 600.74,1024.93L599.24,1024.93C563.752,1024.82 528.299,1022.53 493.09,1018.06C456.735,1013.64 421.36,1003.24 388.39,987.29C288.898,938.306 254.96,858.88 246.78,789.01C237.85,712.932 298.014,646.32 374.63,646.32Z" style="fill:white;fill-rule:nonzero;"/>
        </g>
    </g>
</svg>
