<?xml version="1.0" encoding="UTF-8"?>
<svg width="1200pt" height="1200pt" version="1.1" viewBox="0 0 1200 1200" xmlns="http://www.w3.org/2000/svg">
 <g fill="#fff">
  <path d="m545.84 150h108.33c5.3633 0.003906 10.59-1.6875 14.934-4.8359 4.3398-3.1523 7.5703-7.5938 9.2305-12.695l14.859-45.75c1.5508-4.8008 0.71484-10.051-2.2539-14.129-2.9648-4.0781-7.7031-6.4922-12.746-6.4961h-156.38c-5.043 0.003906-9.7812 2.418-12.746 6.4961-2.9688 4.0781-3.8047 9.3281-2.2539 14.129l14.859 45.68c1.6484 5.1133 4.875 9.5742 9.2148 12.734 4.3438 3.1641 9.5781 4.8672 14.949 4.8672z"/>
  <path d="m673.99 713.44c-6.7422-1.875-13.891-1.6914-20.531 0.51953-6.6367 2.2148-12.465 6.3594-16.734 11.902-6.3906 8.1016-10.621 17.688-12.305 27.867-0.64062 4.5039-0.33594 9.0938 0.89062 13.477 3.5625 13.789 11.188 26.184 21.891 35.578 5.1016 4.3672 11.359 7.1602 18.016 8.0391 6.6562 0.87891 13.426-0.19922 19.484-3.0938 12.164-5.9062 26.391-17.367 29.883-39.188 4.9453-31.008-16.43-48.352-40.594-55.102z"/>
  <path d="m615.56 809.74c-4.2539-3.207-10.113-3.207-14.367 0-9.0703 6.8203-22.992 19.688-18.328 31.617 6.7266 17.32 25.5 14.906 25.5 14.906s18.75 2.3438 25.523-14.906c4.6641-11.93-9.2578-24.797-18.328-31.617z"/>
  <path d="m592.34 753.73c-1.6914-10.18-5.9297-19.77-12.328-27.867-4.2539-5.5586-10.074-9.7109-16.715-11.926s-13.789-2.3867-20.527-0.49609c-24.164 6.75-45.539 24.094-40.57 55.102 3.5156 21.82 17.742 33.281 29.906 39.188 6.0547 2.9023 12.828 3.9805 19.484 3.1016 6.6602-0.87891 12.918-3.6719 18.016-8.0469 10.715-9.3867 18.352-21.785 21.914-35.578 1.2031-4.3867 1.4844-8.9766 0.82031-13.477z"/>
  <path d="m690.84 379.69c-10.363-2.5039-19.859-7.7578-27.488-15.207-7.625-7.4492-13.102-16.82-15.848-27.121-2.707-9.9297-4.0938-20.176-4.125-30.469 0-3.5859 0.14063-7.0312 0.42188-10.219 0.62109-7.4844 4.0312-14.461 9.5508-19.551 5.5234-5.0938 12.754-7.9258 20.262-7.9414h28.125c20.062 0 37.242-15.68 37.617-35.719 0.16797-9.7383-3.5664-19.137-10.375-26.098-6.8086-6.9609-16.121-10.91-25.859-10.957h-204.91c-20.062 0-37.242 15.703-37.5 35.742-0.18359 9.7695 3.5703 19.203 10.418 26.18 6.8438 6.9727 16.207 10.898 25.98 10.898h29.391c7.5078 0.015626 14.738 2.8477 20.262 7.9414 5.5195 5.0898 8.9297 12.066 9.5508 19.551 0.28125 3.2344 0.42188 6.6328 0.42188 10.219-0.03125 10.293-1.4258 20.539-4.1484 30.469-2.7617 10.301-8.2539 19.664-15.891 27.105-7.6406 7.4414-17.145 12.684-27.516 15.176-169.1 40.641-295.64 192.42-298.59 372.21-1.0234 56.988 10.504 113.5 33.77 165.54 23.27 52.035 57.699 98.309 100.86 135.54 6.3945 5.543 10.062 13.594 10.055 22.055v35.508c0 6.2148 2.4688 12.176 6.8633 16.574 4.3984 4.3945 10.359 6.8633 16.574 6.8633h442.62c6.2148 0 12.176-2.4688 16.574-6.8633 4.3945-4.3984 6.8633-10.359 6.8633-16.574v-35.508c0-8.4648 3.6797-16.512 10.078-22.055 72.59-62.797 119.43-150.19 131.54-245.41 12.113-95.215-11.363-191.55-65.918-270.52-54.555-78.973-136.35-135.02-229.69-157.39zm48.117 228 20.484-16.664c2.8203-2.3398 3.25-6.5117 0.96094-9.375v-0.11719c-7.9141-9.7109-10.293-22.801-6.3047-34.676 3.9883-11.871 13.789-20.871 25.961-23.836 12.168-2.9609 25.008 0.52344 34.008 9.2344 9.0039 8.7109 12.906 21.43 10.344 33.691-0.89453 4.4375 1.3086 8.918 5.3672 10.922 3.5312 1.7539 6.6641 4.2109 9.2109 7.2188 4.9883 6.0078 7.4414 13.719 6.8359 21.504-0.60156 7.7852-4.2148 15.027-10.07 20.191-6.0781 5.2461-14.02 7.8047-22.016 7.1016-7.9961-0.70703-15.367-4.6211-20.43-10.852l-0.21094-0.25781c-2.2656-2.7969-6.3672-3.2266-9.1641-0.96094l-19.289 15.703c-4.1719 3.3828-10.266 2.8984-13.852-1.1016-3.8906-4.2812-7.9688-8.4062-12.234-12.375-2.1953-1.9805-3.4141-4.8242-3.3398-7.7773 0.078125-2.957 1.4414-5.7344 3.7383-7.5977zm-384.84-40.031c7.6875-10.383 20.297-15.91 33.141-14.531 4.5039 0.41406 8.7266-2.2344 10.312-6.4688 1.3867-3.6914 3.5078-7.0664 6.2344-9.9141 5.4531-5.6094 12.883-8.8633 20.699-9.0742 7.8203-0.21094 15.414 2.6406 21.16 7.9492 5.8359 5.5039 9.1953 13.137 9.3164 21.16 0.11719 8.0195-3.0156 15.75-8.6836 21.426l-0.25781 0.25781c-2.5312 2.5508-2.5312 6.6602 0 9.2109l17.578 17.578c3.8047 3.7969 3.9609 9.9141 0.35156 13.898-3.8906 4.3125-7.5781 8.7891-11.062 13.43-1.75 2.3672-4.4453 3.8594-7.3828 4.0859-2.9375 0.22266-5.8281-0.83984-7.9219-2.9141l-18.75-18.75c-1.2539-1.2656-2.9648-1.9805-4.7461-1.9805s-3.4922 0.71484-4.7461 1.9805h-0.11719c-8.7539 8.7656-21.359 12.488-33.473 9.8906-12.109-2.6016-22.078-11.168-26.469-22.75-4.3906-11.586-2.6016-24.605 4.7461-34.578zm104.11 340.22-17.602 14.344c-2.8203 2.3398-3.25 6.5117-0.96094 9.375v0.11719c7.9141 9.707 10.297 22.797 6.3125 34.668-3.9844 11.875-13.781 20.875-25.949 23.844-12.168 2.9688-25.008-0.51172-34.016-9.2188-9.0039-8.707-12.914-21.422-10.355-33.684 0.90234-4.4375-1.3047-8.9258-5.3672-10.922-3.543-1.7773-6.6914-4.2461-9.2578-7.2656-5.0078-6.0156-7.4688-13.75-6.8594-21.555 0.60547-7.8086 4.2383-15.066 10.117-20.234 6.082-5.2109 14.012-7.7461 21.988-7.0312 7.9766 0.71484 15.328 4.6172 20.387 10.828l0.21094 0.25781c1.0859 1.3477 2.6602 2.207 4.3828 2.3867 1.7188 0.18359 3.4414-0.33203 4.7812-1.4258l17.016-13.828c4.1641-3.4023 10.262-2.9492 13.875 1.0312 3.5859 3.9609 8.1562 8.9531 12.305 13.453 1.9375 2.0508 2.9336 4.8203 2.7422 7.6367-0.19141 2.8203-1.5508 5.4258-3.75 7.1992zm231.02-34.594-7.6875 49.617c-1.8516 11.93-10.688 21.094-21.633 22.336-1.8906 0.21484-3.7852-0.39062-5.1992-1.6641-1.4141-1.2695-2.2188-3.0898-2.207-4.9922v-41.25c0-3.8945-1.6484-7.6055-4.5312-10.219-2.8828-2.6172-6.7344-3.8906-10.609-3.5156-7.1953 0.89844-12.562 7.0703-12.445 14.32v44.273c0.015625 3.2266-2.543 5.875-5.7656 5.9766-7.1406 0.17188-14.289 0.17188-21.445 0-3.2266-0.10156-5.7891-2.7461-5.7891-5.9766v-44.859c0-3.8945-1.6484-7.6055-4.5312-10.219-2.8828-2.6172-6.7344-3.8906-10.609-3.5156-7.1953 0.89844-12.562 7.0703-12.445 14.32v40.641c0.011719 1.8984-0.78906 3.7109-2.1992 4.9844-1.4102 1.2695-3.2969 1.8789-5.1836 1.6719-10.945-1.2891-19.781-10.406-21.633-22.336l-7.6875-49.617c-35.879-23.391-59.867-61.176-65.777-103.59-5.9102-42.422 6.8398-85.324 34.957-117.63 28.117-32.309 68.848-50.855 111.68-50.855 42.832 0 83.562 18.547 111.68 50.855 28.117 32.305 40.867 75.207 34.957 117.63-5.9102 42.418-29.898 80.203-65.777 103.59zm156.63 72.352c-7.6719 10.402-20.285 15.961-33.141 14.602-4.5-0.41797-8.7188 2.2344-10.289 6.4688-3.1836 8.3867-9.9883 14.883-18.512 17.68-8.5234 2.793-17.852 1.5859-25.383-3.2891-7.5312-4.8711-12.457-12.887-13.398-21.809s2.1953-17.789 8.543-24.129l0.25781-0.23438c2.5312-2.5586 2.5312-6.6758 0-9.2344l-15.516-15.492c-3.8047-3.8047-3.9688-9.918-0.375-13.922 3.5625-3.9609 8.0625-9.0234 12.117-13.594 1.8398-2.1094 4.4766-3.3633 7.2773-3.457 2.7969-0.09375 5.5117 0.98047 7.4883 2.9648l16.125 16.102c1.2578 1.2617 2.9648 1.9688 4.7461 1.9688s3.4883-0.70703 4.7461-1.9688l0.11719-0.11719c8.75-8.8047 21.375-12.559 33.512-9.9609 12.141 2.5938 22.125 11.184 26.512 22.793 4.3828 11.613 2.5664 24.66-4.8281 34.629z"/>
 </g>
</svg>
