<?xml version="1.0" encoding="UTF-8"?>
<svg width="512pt" height="512pt" version="1.1" viewBox="0 0 512 512" xmlns="http://www.w3.org/2000/svg">
 <g fill="#fff">
  <path d="m218.56 83.309h74.668c6.9102-0.50391 13.094-4.4805 16.41-10.562 3.3203-6.082 3.3203-13.434 0-19.516-3.3164-6.0859-9.5-10.062-16.41-10.562h-74.668c-6.9102 0.5-13.09 4.4766-16.41 10.562-3.3164 6.082-3.3164 13.434 0 19.516 3.3203 6.082 9.5 10.059 16.41 10.562z"/>
  <path d="m384 257.07c-14.711-28.176-38.344-50.68-67.199-64v-35.52c3.8984-2.0898 7.4883-4.7109 10.664-7.7852 9.5625-9.5625 14.934-22.531 14.934-36.055 0-2.8281-1.1211-5.543-3.1211-7.543s-4.7148-3.125-7.543-3.125h-151.57c-5.8906 0-10.668 4.7773-10.668 10.668 0.046874 18.066 9.668 34.75 25.281 43.84v35.414c-31.551 14.699-56.758 40.262-71.016 72.016-14.258 31.754-16.613 67.574-6.6367 100.92 9.9766 33.348 31.617 61.992 60.969 80.699 29.352 18.707 64.453 26.23 98.895 21.191 34.441-5.0391 65.918-22.301 88.68-48.633 22.762-26.332 35.293-59.977 35.297-94.781-0.042969-23.488-5.8672-46.605-16.961-67.309zm-64-132.91c-1.5742 3.9844-3.9297 7.6094-6.9336 10.668-5.6875 5.6016-13.348 8.7422-21.332 8.7461h-70.934c-6.2109 0.10547-12.309-1.6992-17.461-5.1719-5.1484-3.4727-9.1094-8.4453-11.34-14.242zm-110.19 85.332c1.0391-0.51172 2.0078-1.1602 2.8789-1.918h0.53516c0.37891-0.48047 0.73828-0.98047 1.0664-1.4961 0-0.53516 0.85156-1.0664 1.1719-1.707v0.003906c-0.0625-0.17188-0.0625-0.36328 0-0.53516 0.41016-1.1289 0.62891-2.3203 0.64062-3.5195v-36.055h4.9062 70.402c1.6328 0.11328 3.2734 0.11328 4.9062 0v35.414c-0.003906 1.168 0.21484 2.3281 0.64063 3.4141 0.43359 1.1211 1.0469 2.1641 1.8125 3.0938l0.85156 1.0664c0.92969 0.82031 1.9727 1.5039 3.0938 2.0273 27.199 11.02 49.586 31.363 63.148 57.387 1.9219 3.7344 3.625 7.6797 5.2266 11.625-2.2383 15.895-1.8125 30.934-13.547 43.414-24.105 25.492-75.199 15.359-101.55 10.668-58.668-11.734-70.613-38.508-101.55-30.508-8.1562 2.293-15.699 6.375-22.078 11.945 1.8633-22.844 10.055-44.715 23.66-63.16 13.602-18.449 32.078-32.738 53.352-41.266z"/>
 </g>
</svg>
