<?xml version="1.0" encoding="UTF-8"?>
<svg width="512pt" height="512pt" version="1.1" viewBox="0 0 512 512" xmlns="http://www.w3.org/2000/svg">
 <g fill="#fff">
  <path d="m212.8 42.668h86.398c11.488 0 20.801 11.488 20.801 20.801v3.4141c0 11.488-9.3125 20.801-20.801 20.801h-86.398c-11.488 0-20.801-11.488-20.801-20.801v-3.4141c0-11.488 9.3125-20.801 20.801-20.801z"/>
  <path d="m417.6 390.08-95.148-148.16v-72.535c8.5547-4.7344 15.672-11.695 20.59-20.148 4.9219-8.4492 7.4648-18.074 7.3555-27.852 0-2.8281-1.1211-5.543-3.1211-7.543s-4.7148-3.125-7.543-3.125h-167.79c-5.8906 0-10.664 4.7773-10.664 10.668 0 9.7422 2.5898 19.309 7.5 27.723s11.965 15.375 20.445 20.172v72.641l-94.934 148.27c-2.375 3.9648-3.4844 8.5586-3.1797 13.172 0.30469 4.6133 2.0117 9.0234 4.8867 12.641l35.094 45.652c4 5.0664 10.078 8.0469 16.531 8.1094h217.28c6.4727-0.089844 12.555-3.1094 16.535-8.2148l35.199-45.762c2.7656-3.6719 4.3438-8.1055 4.5156-12.699 0.17188-4.5977-1.0703-9.1367-3.5547-13.008zm-212.05-134.08h100.91l53.332 82.879c-37.867 34.773-99.309 47.465-126.19 24.852-14.828-12.586-5.6523-24.641-22.508-45.012h0.003906c-8.4844-9.8867-19.098-17.727-31.039-22.934zm122.45-123.73c-2.1562 7.0469-6.5312 13.207-12.469 17.57-5.9375 4.3594-13.125 6.6914-20.492 6.6445h-78.078c-7.3555-0.003907-14.52-2.3555-20.445-6.707-5.9297-4.3555-10.312-10.488-12.516-17.508zm-111.04 44.586h78.078c2.1797-0.10156 4.3516-0.3125 6.5078-0.63672v58.453h-91.094v-58.453c2.1562 0.32422 4.3281 0.53516 6.5078 0.63672z"/>
 </g>
</svg>
