<?xml version="1.0" encoding="UTF-8"?>
<svg width="512pt" height="512pt" version="1.1" viewBox="0 0 512 512" xmlns="http://www.w3.org/2000/svg">
 <g fill="#fff">
  <path d="m225.17 42.668h61.652c8.0703 0 14.613 8.0703 14.613 14.613v2.7734c0 8.0703-6.543 14.613-14.613 14.613h-61.652c-8.0703 0-14.613-8.0703-14.613-14.613v-2.7734c0-8.0703 6.543-14.613 14.613-14.613z"/>
  <path d="m376.11 312.85c-9.6211-36.43-35.348-66.48-69.867-81.598v-96.855c2.7422-1.6094 5.2539-3.5859 7.4688-5.8633 7.9062-7.9766 12.355-18.746 12.371-29.977 0-2.8281-1.1211-5.5391-3.1211-7.543-2-2-4.7148-3.1211-7.543-3.1211h-119.15c-5.8906 0-10.664 4.7734-10.664 10.664 0.070313 14.551 7.5469 28.059 19.84 35.84v96.855c-37.133 16.344-63.934 49.797-71.789 89.598-1.6484 7.8945-2.4727 15.938-2.4531 24 0 44.473 23.727 85.57 62.242 107.8 38.512 22.234 85.965 22.234 124.48 0 38.512-22.234 62.238-63.332 62.238-107.8 0.10156-10.801-1.2617-21.562-4.0547-32zm-73.492-203.84c-0.98047 1.7969-2.1992 3.4453-3.625 4.9102-4.0352 4.0586-9.5312 6.3242-15.254 6.293h-55.469c-3.8125 0.070312-7.5742-0.88281-10.895-2.7578-3.3203-1.875-6.0781-4.6055-7.9844-7.9102zm-82.773 138.67c0.71484-0.36328 1.3906-0.79297 2.0273-1.2812 0.75-0.27344 1.4648-0.63281 2.1328-1.0664 0 0 0.74609-1.0664 1.1719-1.6016l1.0664-1.6016v-1.6016 0.007812c0.09375-0.78125 0.09375-1.5703 0-2.3477v-97.387h58.879v97.387h0.003906c-0.10156 0.8125-0.10156 1.6367 0 2.4531v1.6016l1.0664 1.6016c0 0.53516 0.74609 1.1719 1.1719 1.6016v-0.003906c0.4375 0.35547 0.90234 0.67578 1.3867 0.95703 0.63672 0.48828 1.3125 0.91797 2.0273 1.2812 31.566 11.645 55.457 37.965 64 70.508 0 2.0273 0.85156 4.1602 1.2812 6.1875-13.227 15.574-28.055 38.828-55.68 42.668-40 7.25-55.043-36.375-112.75-45.016-10.598-1.5195-21.344-1.7344-32-0.64062 7.7148-33.746 31.828-61.383 64.215-73.602z"/>
 </g>
</svg>
