<?xml version="1.0" encoding="UTF-8"?>
<svg width="1200pt" height="1200pt" version="1.1" viewBox="0 0 1200 1200" xmlns="http://www.w3.org/2000/svg">
 <g fill="#fff">
  <path d="m520.48 160.92h159.05c18.082-0.023437 35.414-7.2266 48.191-20.023 12.773-12.797 19.949-30.145 19.941-48.227v-18.75c0-4.7109-1.8711-9.2305-5.2031-12.562s-7.8516-5.2031-12.562-5.2031h-259.88c-4.6836 0.023438-9.168 1.8984-12.477 5.2109-3.3086 3.3125-5.1758 7.8008-5.1953 12.484v18.75c-0.023438 18.094 7.1406 35.457 19.918 48.27 12.777 12.812 30.121 20.027 48.215 20.051z"/>
  <path d="m437.2 1122.7c9.3906 13.297 24.645 21.219 40.922 21.258h243.75c16.277-0.039062 31.531-7.9609 40.922-21.258 104.11-147.33 178.69-260.7 211.48-311.34 5.418-8.418 8.1289-18.293 7.7578-28.297-0.36719-10.004-3.7969-19.652-9.8203-27.648-145.9-195.75-232.2-427.99-260.93-513.28-3.2969-9.7773-9.582-18.27-17.969-24.281-8.3867-6.0078-18.449-9.2305-28.766-9.2109h-129.09c-10.324-0.015625-20.391 3.2109-28.777 9.2305s-14.668 14.523-17.957 24.309c-28.734 85.289-115.03 317.53-260.93 513.28-6.0234 7.9961-9.4531 17.645-9.8203 27.648-0.37109 10.004 2.3398 19.879 7.7578 28.297 32.789 50.648 107.37 164.02 211.48 311.3zm-88.289-373.57c26.766-47.016 61.969-109.29 82.031-144.68 4.7461-8.4102 11.645-15.406 19.984-20.273 8.3359-4.8672 17.82-7.4297 27.477-7.4297h243.26c9.6562 0 19.141 2.5625 27.477 7.4297 8.3398 4.8672 15.238 11.863 19.984 20.273 19.992 35.391 55.195 97.664 82.031 144.68 3.5 6.1406 5.2266 13.129 4.9922 20.191-0.23828 7.0664-2.4258 13.922-6.3281 19.816-27.703 41.766-94.805 143.72-155.72 240.91-8.0547 12.859-22.16 20.672-37.336 20.672h-113.53c-15.176 0-29.281-7.8125-37.336-20.672-60.938-97.172-128.02-199.22-155.65-240.91-3.9023-5.8945-6.0898-12.75-6.3281-19.816-0.23438-7.0625 1.4922-14.051 4.9922-20.191z"/>
 </g>
</svg>
