<?xml version="1.0" encoding="UTF-8"?>
<svg width="512pt" height="512pt" version="1.1" viewBox="0 0 512 512" xmlns="http://www.w3.org/2000/svg">
 <g fill="#fff">
  <path d="m215.25 42.668h81.387c11.488 0 20.801 11.488 20.801 20.801v1.6016c0 11.488-9.3125 20.801-20.801 20.801h-81.387c-11.488 0-20.801-11.488-20.801-20.801v-1.6016c0-11.488 9.3125-20.801 20.801-20.801z"/>
  <path d="m337.07 107.95h-162.13c-5.8906 0-10.668 4.7773-10.668 10.668v22.398c-0.011719 9 3.8789 17.562 10.668 23.469v224c0 28.809 15.371 55.43 40.32 69.836 24.949 14.406 55.688 14.406 80.641 0 24.949-14.406 40.32-41.027 40.32-69.836v-224c6.7891-5.9062 10.68-14.469 10.664-23.469v-22.613c-0.089844-5.4883-4.3359-10.012-9.8125-10.453zm-151.79 21.332 141.44 0.003906v11.52c0 2.8281-1.1211 5.543-3.1211 7.543-2.0039 2-4.7148 3.1211-7.543 3.1211h-120.32c-5.8906 0-10.668-4.7734-10.668-10.664zm130.56 194.99c-9.6641 10.98-23.922 16.785-38.508 15.68-23.465-3.9453-23.465-32.637-53.332-43.199-8.8164-2.9609-18.16-4.0156-27.414-3.0938v-121.6h119.25z"/>
 </g>
</svg>
