<?xml version="1.0" encoding="UTF-8"?>
<svg width="512pt" height="512pt" version="1.1" viewBox="0 0 512 512" xmlns="http://www.w3.org/2000/svg">
 <path d="m289.39 61.219c-28.16 0-54.996 5.4414-79.793 15.059l-46.695-52.246c-11.586-11.664-32.043-8.5703-54.527 3.4727l-17.008-17.309c-12.922-13.176-40.203 3.4297-64.078 28.883-23.871 25.457-35.805 54.676-20.367 67.098l14.305 9.7031c-12.789 25.145-14.473 47.852 1 60.16l56.867 38.156c-7.8477 23.484-12.312 48.738-12.312 75.34 0 117.24 99.664 216.9 222.61 216.9 122.95 0 222.61-99.664 222.61-216.9 0-128.66-99.664-228.32-222.61-228.32zm-267.11 29.738c-0.14453-1.043 0.15625-3.2578 1.1914-6.3555 2.8828-8.5781 10.051-19.621 20.059-30.297 10.66-11.375 21.414-20.031 29.828-24.23 1.9258-0.95703 3.3711-1.4805 4.543-1.8242l30.207 30.73c1.9141 2.25 3.4961 7.4258 3.1484 13.703-0.48828 8.6016-4.3633 17.695-12.207 26.254-8.582 9.3867-17.621 15.004-25.926 17.086-5.8984 1.4688-10.516 0.92578-12.922-0.56641zm12.355 66.594s-2.0234-14.223 5.1523-29.082l8.6484 5.8672c15.082 9.4023 42.797 6.1328 67.039-20.383 24.242-26.5 20.691-56.941 9.207-69.875l-0.13672-0.12109c11.234-5.457 21.75-5.1016 21.75-5.1016l47.984 53.684c2.8828 3.2188 4.9062 7.3789 6.3984 11.965 5.9688 18.277 0.55859 45.57-20.891 68.754-25.656 27.727-54.738 37.098-73.16 31.133-2.2148-0.71484-71.992-46.84-71.992-46.84zm254.75 326.62c-109.84 0-200.35-88.91-200.35-194.64 0-22.539 3.4727-44.086 9.75-64.23 25.223 8.3477 63.387-0.23438 97.324-36.91 29.973-32.391 33.371-68.441 24.934-92.648 21.312-7.8164 44.254-12.266 68.34-12.266 111.44 0 200.35 90.488 200.35 206.05 0 105.73-90.512 194.64-200.35 194.64zm0-378.44c-15.371 0-30.297 1.9492-44.523 5.6133-0.019532 73.883-57.633 134.3-130.38 138.82-2.0938 10.898-3.1836 22.148-3.1836 33.66 0 98.348 79.738 178.09 178.09 178.09 98.348 0 178.09-79.738 178.09-178.09s-79.738-178.09-178.09-178.09zm-77.918 278.26 132.04-102.98-33.973-5.0898 80.02-61.668-74.102-8.3516-67.492 84.27 28.703 9.1797z" fill="#fff" fill-rule="evenodd"/>
</svg>
