<?xml version="1.0" encoding="UTF-8" standalone="no"?>
<!DOCTYPE svg PUBLIC "-//W3C//DTD SVG 1.1//EN" "http://www.w3.org/Graphics/SVG/1.1/DTD/svg11.dtd">
<svg width="100%" height="100%" viewBox="0 0 478 512" version="1.1" xmlns="http://www.w3.org/2000/svg" xmlns:xlink="http://www.w3.org/1999/xlink" xml:space="preserve" xmlns:serif="http://www.serif.com/" style="fill-rule:evenodd;clip-rule:evenodd;stroke-linejoin:round;stroke-miterlimit:2;">
    <g transform="matrix(1,0,0,1,-81.2785,-43.9874)">
        <g transform="matrix(0.460391,0,0,0.460391,43.8586,23.736)">
            <path d="M536.98,401.95L675.94,401.95C685.104,401.95 692.534,411.114 692.534,418.544L692.534,450.396C692.534,459.56 685.104,466.99 675.94,466.99L536.98,466.99C527.816,466.99 520.386,457.826 520.386,450.396L520.386,418.544C520.386,409.38 527.816,401.95 536.98,401.95Z" style="fill:white;fill-rule:nonzero;"/>
            <path d="M667.57,606.68L667.57,517.969C667.57,513.723 665.883,509.653 662.883,506.649C659.879,503.649 655.808,501.961 651.563,501.961L561.352,501.961C557.105,501.961 553.035,503.649 550.031,506.649C547.031,509.653 545.344,513.723 545.344,517.969L545.344,606.75C487.532,619.145 434.854,648.824 394.304,691.848C353.749,734.871 327.23,789.207 318.265,847.648C309.3,906.089 318.316,965.878 344.113,1019.08C369.91,1072.28 411.269,1116.38 462.703,1145.54C475.148,1152.52 489.191,1156.15 503.461,1156.09L709.451,1156.09C723.736,1156.15 737.799,1152.51 750.256,1145.52C801.678,1116.35 843.022,1072.25 868.806,1019.06C894.587,965.86 903.591,906.085 894.622,847.645C885.653,789.215 859.138,734.885 818.587,691.875C778.04,648.859 725.372,619.184 667.567,606.785L667.57,606.68ZM675.609,700.782C681.777,700.774 687.695,703.219 692.058,707.579C696.425,711.934 698.878,717.849 698.882,724.017C698.886,730.185 696.441,736.103 692.082,740.466C687.722,744.829 681.809,747.278 675.641,747.282C669.473,747.286 663.559,744.837 659.195,740.474C654.832,736.114 652.383,730.201 652.383,724.033C652.383,717.869 654.828,711.959 659.184,707.599C663.539,703.239 669.446,700.79 675.61,700.782L675.609,700.782ZM490.449,746.86C499.273,746.852 507.738,750.352 513.976,756.59C520.218,762.825 523.726,771.285 523.73,780.11C523.734,788.935 520.226,797.395 513.988,803.633C507.75,809.872 499.289,813.38 490.465,813.376C481.641,813.372 473.18,809.864 466.945,803.622C460.707,797.383 457.207,788.919 457.214,780.095C457.203,771.255 460.71,762.779 466.964,756.533C473.218,750.287 481.702,746.791 490.542,746.814L490.449,746.86ZM809.739,891.26C809.716,945.166 788.286,996.86 750.165,1034.98C712.044,1073.09 660.349,1094.52 606.445,1094.54C480.565,1094.54 419.105,993.515 407.675,930.755C405.745,919.528 409.23,908.048 417.074,899.79C424.921,891.536 436.211,887.47 447.519,888.825C460.667,890.325 475.058,891.473 489.707,891.802C523.062,892.251 555.843,883.071 584.113,865.364C624.94,840.262 705.992,807.38 795.053,864.309C804.228,870.098 809.833,880.157 809.936,891.004L809.739,891.26Z" style="fill:white;fill-rule:nonzero;"/>
            <path d="M612.33,1000.4C612.33,1021.64 595.111,1038.86 573.869,1038.86C552.627,1038.86 535.408,1021.64 535.408,1000.4C535.408,979.158 552.627,961.939 573.869,961.939C595.111,961.939 612.33,979.158 612.33,1000.4" style="fill:white;fill-rule:nonzero;"/>
            <path d="M710.04,924.35C710.04,937.178 699.642,947.577 686.813,947.577C673.984,947.577 663.586,937.179 663.586,924.35C663.586,911.522 673.984,901.123 686.813,901.123C699.642,901.123 710.04,911.521 710.04,924.35" style="fill:white;fill-rule:nonzero;"/>
            <path d="M246.63,94.312C246.794,95.273 247.005,96.257 247.239,97.265C250.653,110.425 259.286,121.624 271.145,128.273C281.739,134.508 293.848,137.695 306.137,137.484C314.715,137.218 322.758,133.254 328.196,126.613C333.634,119.973 335.931,111.304 334.497,102.843C331.919,87.96 324.888,70.031 307.075,57.749C279.302,38.413 240.77,60.937 246.63,94.311L246.63,94.312Z" style="fill:white;fill-rule:nonzero;"/>
            <path d="M472.24,359.46C452.459,338.085 427.31,326.648 408.584,320.905C395.404,316.764 381.518,315.366 367.779,316.803C359.326,317.706 350.83,318.167 342.326,318.186C266.412,318.186 233.456,278.881 221.296,257.928C218.097,252.608 216.991,246.287 218.202,240.201C219.413,234.111 222.847,228.689 227.835,224.998C233.46,221.065 240.483,219.686 247.175,221.201C253.87,222.721 259.613,226.99 262.991,232.967C270.327,246.022 286.639,263.576 321.96,268.405C326.831,269.101 331.784,267.89 335.788,265.026C339.792,262.163 342.538,257.866 343.452,253.03L343.452,252.515C346.245,238.175 344.812,223.331 339.323,209.792C333.835,196.249 324.526,184.597 312.538,176.249C296.573,165.499 278.386,158.487 259.335,155.741C155.535,138.28 106.785,219.585 106.785,219.585C79.152,261.773 77.277,301.616 85.691,334.895C107.3,420.02 198.331,467.085 281.771,439.665C310.685,429.942 338.169,416.399 363.498,399.399C397.365,376.829 436.904,375.821 462.475,378.422C467.182,378.949 471.725,376.519 473.893,372.308C476.065,368.098 475.409,362.988 472.249,359.46L472.24,359.46Z" style="fill:white;fill-rule:nonzero;"/>
            <path d="M733.03,326.51C751.124,303.682 775.335,290.487 793.569,283.198C806.385,278.054 820.124,275.596 833.928,275.979C842.424,276.237 850.928,276.05 859.405,275.417C935.108,269.604 964.875,227.886 975.495,206.065C978.292,200.506 978.913,194.104 977.241,188.108C975.565,182.116 971.718,176.96 966.448,173.651C960.526,170.131 953.389,169.284 946.807,171.315C940.225,173.346 934.811,178.069 931.901,184.315C925.596,197.885 910.667,216.635 875.839,224.159C871.019,225.256 865.96,224.44 861.726,221.889C857.492,219.339 854.41,215.245 853.128,210.471L852.988,209.979C849.101,195.893 849.394,180.979 853.832,167.057C858.265,153.135 866.656,140.799 877.973,131.557C893.102,119.616 910.727,111.229 929.535,107.018C1031.91,81.799 1086.74,159.073 1086.74,159.073C1117.51,199.081 1122.43,238.62 1116.55,272.443C1101.52,358.974 1014.36,412.853 929.047,391.973C899.481,384.485 871.039,373.086 844.485,358.082C809.001,338.16 769.485,340.199 744.215,344.746C739.539,345.66 734.785,343.574 732.293,339.512C729.804,335.449 730.097,330.266 733.035,326.512L733.03,326.51Z" style="fill:white;fill-rule:nonzero;"/>
            <path d="M744.4,46.031C731.947,43.969 719.287,43.465 706.712,44.531C675.524,45.73 645.001,53.883 617.368,68.39C614.298,70.054 611.18,71.578 607.993,73.078C604.473,74.527 602.325,78.121 602.712,81.91C603.102,85.699 605.938,88.781 609.681,89.484C619.704,91.558 629.915,92.605 640.15,92.601C646.505,92.589 652.623,95.015 657.248,99.37C661.873,103.73 664.65,109.694 665.017,116.038C665.291,122.667 662.849,129.116 658.259,133.905C653.665,138.691 647.321,141.398 640.689,141.398C571.806,141.398 527.809,108.867 504.189,83.882C495.06,74.089 483.091,67.405 469.97,64.765C456.845,62.124 443.22,63.663 431.017,69.163C429.892,69.702 428.673,70.241 427.642,70.85C397.619,86.811 382.759,121.053 388.033,154.64C392.369,182.32 409.127,216.256 459.494,238.123C483.588,248.236 505.369,263.159 523.502,281.975C543.412,303.041 559.647,327.299 571.525,353.741C573.178,357.503 577.01,359.827 581.107,359.558C585.209,359.292 588.701,356.491 589.853,352.546C593.721,339.14 597.611,327.21 604.455,316.523C606.971,312.668 611.373,310.468 615.967,310.769C620.561,311.07 624.635,313.824 626.627,317.976L626.956,318.633C628.909,322.73 633.057,325.332 637.601,325.308C642.14,325.281 646.257,322.636 648.167,318.515C658.69,295.499 682.292,263.062 734.651,243.515C789.401,223.148 806.37,174.656 811.362,141.095C817.971,96.306 788.862,53.907 744.401,46.033L744.4,46.031Z" style="fill:white;fill-rule:nonzero;"/>
        </g>
    </g>
</svg>
