<?xml version="1.0" encoding="UTF-8"?>
<svg width="512pt" height="512pt" version="1.1" viewBox="0 0 512 512" xmlns="http://www.w3.org/2000/svg">
 <g fill="#fff">
  <path d="m362.8 457.98c-2.7148-80.332-7.832-233.57-7.6797-238.7v-1.0742c-3.6367-19.199-14.488-30.719-25.035-41.883h-0.003906c-6.957-6.8281-13.074-14.457-18.227-22.73-3.7109-7.3867-4.9141-15.781-3.4297-23.91v-1.0742-0.003907c7.0625-0.68359 12.449-6.625 12.441-13.719v-1.2305c0.21484-4.6406-0.039063-9.2891-0.76953-13.875-1.793-8.2422-7.0156-9.4727-9.9844-9.4727h-21.246l17.766-42.445c2.1133-5.1367 1.5312-10.984-1.5469-15.605-3.082-4.6211-8.2578-7.4062-13.812-7.4336h-75.059c-5.5234 0.019531-10.676 2.7812-13.754 7.3672-3.0781 4.5859-3.6797 10.398-1.6055 15.52l17.102 42.395h-21.098c-2.6133-0.12891-5.1797 0.75-7.168 2.457-4.043 3.3281-6.043 9.4727-6.043 18.738 0 11.727 3.1758 17.203 10.598 18.074h0.003906c2.7773 8.918 2.7773 18.473 0 27.391-3.3672 5.2617-7.6523 9.875-12.648 13.621-12.543 11.266-29.746 26.625-31.539 49.512-2.5078 31.949 0.66406 232.6 0.76953 241.1v2.3555l1.793 1.4844c1.0742 0.92188 27.289 22.117 101.22 22.117 73.934 0 105.57-23.961 106.91-24.984l2.0469-1.5859zm-152.53-414.11c-0.80078-1.9766-0.56641-4.2188 0.625-5.9844 1.1914-1.7695 3.1836-2.8242 5.3164-2.8242h12.492v19.715c0 2.8281 2.293 5.1172 5.1211 5.1172 2.8242 0 5.1172-2.2891 5.1172-5.1172v-19.715h52.277c2.1055 0.058594 4.0508 1.1523 5.1992 2.9219 1.1445 1.7695 1.3438 3.9922 0.53516 5.9375l-17.715 42.445c-1 2.3984-3.3438 3.9531-5.9414 3.9414h-0.30859l0.003906-19.863h-10.238v19.867l-29.441-0.003906c-2.6133 0.019532-4.9727-1.5664-5.9414-3.9922zm43.676 433.05c-59.238 0-86.066-14.184-92.824-18.484-0.41016-24.219-3.125-208.03-0.76953-237.57 1.4336-18.738 16.23-32 28.109-42.648 7.3711-6.6055 13.211-11.777 15.359-17.613 5.582-14.539 1.5352-33.586-1.7422-38.094-1.582-1.9414-3.9492-3.0703-6.4492-3.0742h-0.66406-0.003906c-1.0352-2.5273-1.4219-5.2734-1.125-7.9883 0-7.832 1.7422-10.496 2.4062-10.957h113.56c0.90625 4.2891 1.2188 8.6836 0.92188 13.059v1.1758c0 2.1523-0.41016 2.7148-4.7109 3.7891-2.457 0.5625-7.5273 1.793-7.5273 6.9648 0.058594 0.97266 0.058594 1.9453 0 2.918-1.8945 10.316-0.32812 20.973 4.4531 30.309 5.5 8.9844 12.086 17.258 19.609 24.629 10.238 10.906 19.148 20.48 22.324 36.301 0 13.723 6.707 208.64 7.6289 235.83-7.9883 4.9648-38.859 21.453-98.559 21.453z"/>
  <path d="m179.61 257.79c-1.8945 24.27 0.61328 182.53 0.61328 182.53s18.945 15.82 74.238 15.82c55.297 0 78.645-18.074 78.645-18.074s-5.9922-176.43-5.8867-181.14c-4.1484-22.168-145.66-23.449-147.61 0.87109z"/>
  <path d="m215.45 131.28c10.668 2.9219 21.711 4.2344 32.77 3.8906 13.746-0.078125 27.457-1.4141 40.957-3.9922 2.8281-0.51172 4.7109-3.2148 4.1992-6.043-0.50781-2.8281-3.2148-4.707-6.0391-4.1992-44.699 8.2422-68.301 0.5625-68.559 0.51172-2.6367-0.79687-5.4336 0.62891-6.3281 3.2344-0.89453 2.6055 0.42969 5.4531 3 6.4453z"/>
  <path d="m308.43 181.55c-1.1016-0.80078-2.4727-1.1328-3.8164-0.92188-1.3477 0.21094-2.5508 0.94922-3.3516 2.0469-1.668 2.293-1.1641 5.5 1.125 7.168 0 0 22.477 16.641 25.602 36.863v0.003906c0.40625 2.5039 2.582 4.332 5.1172 4.3008h0.82031c2.6328-0.56641 4.3789-3.0703 3.9961-5.7344-3.5859-24.629-28.469-42.957-29.492-43.727z"/>
  <path d="m286.16 176.69c-0.019531 2.2539 1.3164 4.2969 3.3867 5.1797 2.0703 0.88672 4.4727 0.44141 6.0859-1.1289 1.6133-1.5703 2.125-3.957 1.2969-6.0547-0.82812-2.0938-2.832-3.4844-5.0859-3.5273-1.4922-0.039062-2.9375 0.52344-4.0078 1.5664-1.0703 1.0391-1.6758 2.4727-1.6758 3.9648z"/>
 </g>
</svg>
