<?xml version="1.0" encoding="UTF-8" standalone="no"?>
<!DOCTYPE svg PUBLIC "-//W3C//DTD SVG 1.1//EN" "http://www.w3.org/Graphics/SVG/1.1/DTD/svg11.dtd">
<svg width="100%" height="100%" viewBox="0 0 228 512" version="1.1" xmlns="http://www.w3.org/2000/svg" xmlns:xlink="http://www.w3.org/1999/xlink" xml:space="preserve" xmlns:serif="http://www.serif.com/" style="fill-rule:evenodd;clip-rule:evenodd;stroke-linejoin:round;stroke-miterlimit:2;">
    <g transform="matrix(1,0,0,1,-358.586,-56.1549)">
        <g transform="matrix(0.470765,0,0,0.470765,189.776,29.7191)">
            <path d="M426.77,160.92L773.22,160.92C791.31,160.908 808.658,153.709 821.443,140.912C834.228,128.115 841.408,110.76 841.4,92.67L841.4,73.92C841.4,69.209 839.529,64.689 836.197,61.358C832.865,58.027 828.345,56.155 823.635,56.155L376.305,56.155C371.614,56.167 367.117,58.034 363.797,61.35C360.477,64.667 358.606,69.159 358.586,73.85L358.586,92.6C358.563,110.702 365.731,128.073 378.52,140.889C391.309,153.701 408.665,160.909 426.766,160.92L426.77,160.92Z" style="fill:white;fill-rule:nonzero;"/>
            <path d="M755.79,208.59L447.45,208.59C441.696,208.598 436.18,210.883 432.11,214.953C428.04,219.024 425.755,224.539 425.747,230.293L425.747,967.963C425.747,998.818 433.868,1029.13 449.298,1055.85C464.724,1082.58 486.915,1104.77 513.638,1120.19C540.361,1135.62 570.673,1143.75 601.529,1143.75C632.384,1143.75 662.697,1135.62 689.42,1120.19C716.143,1104.77 738.334,1082.58 753.76,1055.85C769.19,1029.13 777.311,998.819 777.311,967.963L777.311,230.293C777.303,224.571 775.041,219.082 771.014,215.02C766.987,210.958 761.518,208.645 755.795,208.591L755.79,208.59ZM705.024,958.14C705.016,985.562 694.122,1011.86 674.727,1031.25C655.336,1050.63 629.039,1061.52 601.618,1061.52C574.2,1061.52 547.903,1050.63 528.516,1031.24C509.125,1011.85 498.235,985.557 498.235,958.139L498.235,621.789C498.235,610.953 502.536,600.562 510.188,592.894C517.844,585.226 528.227,580.91 539.063,580.89L664.033,580.89C674.881,580.89 685.287,585.199 692.963,592.867C700.635,600.539 704.947,610.941 704.955,621.789L705.024,958.14Z" style="fill:white;fill-rule:nonzero;"/>
        </g>
    </g>
</svg>
