<?xml version="1.0" encoding="UTF-8"?>
<svg width="512pt" height="512pt" version="1.1" viewBox="0 0 512 512" xmlns="http://www.w3.org/2000/svg">
 <path d="m289.39 61.219c-28.16 0-54.996 5.4414-79.793 15.059l-46.695-52.246c-11.586-11.664-32.043-8.5703-54.527 3.4727l-17.008-17.309c-12.922-13.176-40.203 3.4297-64.078 28.883-23.871 25.457-35.805 54.676-20.367 67.098l14.305 9.7031c-12.789 25.145-14.473 47.852 1 60.16l56.867 38.156c-7.8477 23.484-12.312 48.738-12.312 75.34 0 117.24 99.664 216.9 222.61 216.9 122.95 0 222.61-99.664 222.61-216.9 0-128.66-99.664-228.32-222.61-228.32zm-267.11 29.738c-0.14453-1.043 0.15625-3.2578 1.1914-6.3555 2.8828-8.5781 10.051-19.621 20.059-30.297 10.66-11.375 21.414-20.031 29.828-24.23 1.9258-0.95703 3.3711-1.4805 4.543-1.8242l30.207 30.73c1.9141 2.25 3.4961 7.4258 3.1484 13.703-0.48828 8.6016-4.3633 17.695-12.207 26.254-8.582 9.3867-17.621 15.004-25.926 17.086-5.8984 1.4688-10.516 0.92578-12.922-0.56641zm12.355 66.594s-2.0234-14.223 5.1523-29.082l8.6484 5.8672c15.082 9.4023 42.797 6.1328 67.039-20.383 24.242-26.5 20.691-56.941 9.207-69.875l-0.13672-0.12109c11.234-5.457 21.75-5.1016 21.75-5.1016l47.984 53.684c2.8828 3.2188 4.9062 7.3789 6.3984 11.965 5.9688 18.277 0.55859 45.57-20.891 68.754-25.656 27.727-54.738 37.098-73.16 31.133-2.2148-0.71484-71.992-46.84-71.992-46.84zm254.75 326.62c-109.84 0-200.35-88.91-200.35-194.64 0-22.539 3.4727-44.086 9.75-64.23 25.223 8.3477 63.387-0.23438 97.324-36.91 29.973-32.391 33.371-68.441 24.934-92.648 21.312-7.8164 44.254-12.266 68.34-12.266 111.44 0 200.35 90.488 200.35 206.05 0 105.73-90.512 194.64-200.35 194.64zm-44.523-372.82c-0.019532 73.883-57.633 134.3-130.38 138.82-2.0938 10.898-3.1836 22.148-3.1836 33.66 0 98.348 79.738 178.09 178.09 178.09 98.348 0 178.09-79.738 178.09-178.09s-79.738-178.09-178.09-178.09c-15.371 0-30.297 1.9492-44.523 5.6133zm-31.879 213.45 0.40234 0.42578 66.391 66.156c4.9531 4.9336 13.078 5.0078 18.078 0.11328 1.6445-1.6094 1.6445-1.6094 8.2227-8.0508 8.2227-8.0508 8.2227-8.0508 18.086-17.711 8.8008-8.6211 8.8008-8.6211 16.434-16.094 2.4844-2.4336 5.8633-5.75 9.9141-9.7305 3.1953-3.1406 6.5742-6.4609 9.9492-9.7852 1.9141-1.8789 1.9141-1.8789 3.2617-3.2109 1.0117-0.99609 1.0117-0.99609 1.2383-1.2188l0.36328-0.37891c8.3945-9.3867 13.102-21.414 13.102-34.129 0-28.633-23.746-51.887-53.098-51.887-14.102 0-35.746 13.867-35.746 13.867s-22.473-13.867-36.141-13.867c-29.355 0-53.102 23.254-53.102 51.887 0 12.477 4.5352 24.297 12.645 33.613z" fill="#fff" fill-rule="evenodd"/>
</svg>
