<?xml version="1.0" encoding="UTF-8"?>
<svg width="512pt" height="512pt" version="1.1" viewBox="0 0 512 512" xmlns="http://www.w3.org/2000/svg">
 <g fill="#fff">
  <path d="m220.67 136.19c-16.383-3.0703-36.352 5.6328-44.031 37.375-4.0977 17.406-3.0703 45.055-1.5352 74.238v5.1211c0.51172 6.6562-5.6328 12.289-12.801 11.266-5.6328-0.51172-9.2148-5.6328-9.7266-11.266v-4.6094c-1.0234-23.039-1.5352-43.52-0.51172-60.93 0.51172-7.168 1.5352-13.824 2.5586-19.457 5.6328-24.574 18.434-40.449 33.281-48.129 6.6562-24.062 13.312-46.594 18.945-59.902 16.383-38.91-31.742-66.559-57.855-32.258-26.113 34.305-108.03 154.62-107.52 219.14 0 29.184 7.168 74.754 18.434 117.76 2.0469 6.6562 0 13.824-4.0977 18.945l-18.945 22.527c-5.6328 6.6562-4.6094 16.895 2.0469 22.527l78.336 66.559c6.6562 5.6328 16.895 4.6094 22.527-2.0469 11.266-13.824 29.184-36.352 44.543-56.832 31.23-41.984 51.199-90.113 55.297-114.18 3.5859-21.504 4.0977-52.223 3.0703-81.922-0.51172-25.602-1.0234-52.734 1.5352-75.266 2.5625-15.863-10.238-26.102-23.551-28.664z"/>
  <path d="m474.62 406.53-18.945-22.527c-4.6094-5.1211-6.1445-12.289-4.0977-18.945 11.266-43.008 18.434-88.062 18.434-117.76 0.51172-64.512-81.406-184.83-107.52-219.14-26.113-34.305-74.238-6.6562-57.855 32.258 5.6328 13.312 12.289 35.84 18.945 59.902 14.848 8.1914 27.137 23.551 33.281 48.129 1.5352 5.6328 2.0469 12.289 2.5586 19.457 1.0234 17.406 0.51172 37.887-0.51172 60.93v4.6094c0 5.6328-4.0977 10.754-9.7266 11.266-7.168 1.0234-12.801-4.6094-12.801-11.266v-5.1211c1.0234-29.184 2.5586-57.344-1.5352-74.238-7.168-31.742-27.648-40.449-44.031-37.375-13.312 2.5586-26.113 12.801-24.062 28.672 2.5586 22.527 2.0469 49.664 1.5352 75.266-0.51172 29.695 0 60.414 3.0703 81.922 4.0977 24.062 23.551 72.191 55.297 114.18 15.359 20.48 33.281 43.008 44.543 56.832 5.6328 7.168 15.871 8.1914 22.527 2.0469l78.336-66.559c7.1641-5.6367 8.1914-15.879 2.5586-22.535z"/>
 </g>
</svg>
