<?xml version="1.0" encoding="UTF-8"?>
<svg width="512pt" height="512pt" version="1.1" viewBox="0 0 512 512" xmlns="http://www.w3.org/2000/svg">
 <path d="m311.95 16c-19.266 0-35.457 13.797-39.172 32h-104.78c-35.316 0-64.016 28.695-64.016 64.016v176.8c-18.184 3.7461-32 19.93-32 39.188 0 6.1602 1.418 12.008 3.9375 17.234-17.027 13.953-27.938 35.109-27.938 58.77 0 41.879 34.125 76 75.996 76 4.0547 0 8.0234-0.33594 11.906-0.95312 10.18 10.445 24.387 16.953 40.062 16.953 22.254 0 41.586-13.109 50.609-32h117.41c35.316 0 64.016-28.695 64.016-64.016v-205.55c4.8203-7.25 7.7344-15.871 7.9844-25.125 28.227-12.371 48.016-40.562 48.016-73.281 0-44.094-35.941-80.035-80.031-80.035-15.789 0-30.508 4.6367-42.926 12.578-7.3164-7.7344-17.664-12.578-29.078-12.578zm0 16c6.4219 0 12.219 2.4648 16.516 6.5-3.0469 2.9453-5.8867 6.1055-8.4375 9.5h-30.719c3.25-9.3672 12.098-16 22.641-16zm136.03 64.031c0 24.766-13.984 46.113-34.484 56.75-6.4023-19.004-24.438-32.781-45.547-32.781-13.66 0-26.016 5.7773-34.766 15-8.2695-10.777-13.203-24.273-13.203-38.969 0-35.445 28.523-64.016 63.969-64.016s64.031 28.57 64.031 64.016zm-80.031 39.969c17.773 0 32.016 14.238 32.016 32s-14.242 32-32.016 32-31.953-14.238-31.953-32 14.18-32 31.953-32zm-255.94 168.02c13.348 0 23.969 10.629 23.969 23.984s-10.621 24.047-23.969 24.047-24.031-10.691-24.031-24.047c0.011719-15.148 12.484-24.016 24.031-23.984zm-26.484 53.906c5.1523 4.5625 11.484 7.832 18.453 9.2656v32.797c0 16.188 6.1016 30.906 16.047 42.172 0.29297 7.7773 2.1875 15.148 5.3594 21.812-0.46875 0.011719-0.93359 0.03125-1.4062 0.03125-33.23 0-60-26.77-60-60 0-18.57 8.3711-35.094 21.547-46.078zm90.422 42.078c22.18 0 40.035 17.852 40.035 40.035 0 22.18-17.852 39.969-40.035 39.969-22.18 0-39.969-17.789-39.969-39.969 0-22.18 17.789-40.035 39.969-40.035z" fill="#fff" fill-rule="evenodd"/>
</svg>
