<?xml version="1.0" encoding="UTF-8"?>
<svg width="1200pt" height="1200pt" version="1.1" viewBox="0 0 1200 1200" xmlns="http://www.w3.org/2000/svg">
 <g fill="#fff">
  <path d="m968.34 168.45c-12.07 56.039-35.156 135.02-74.156 176.46-8.1328 8.6484-7.2422 24.117 1.7109 31.547 38.098 31.68 65.32 74.496 77.836 122.44 2.7891 10.688 15.305 11.227 18.75 0.75 11.953-37.922 34.078-91.828 69-119.95 9.6797-7.8047 10.57-24.398 2.0625-33.938-25.641-28.805-67.641-87.891-80.414-176.48-1.3828-9.6328-12.82-10.219-14.789-0.82031z"/>
  <path d="m489.27 81.539 255.7 255.7c16.492 16.492 13.371 46.359 0 59.727l-128.61 128.61c-16.492 16.492-43.234 16.492-59.727 0l-255.7-255.7c-16.492-16.492-13.371-46.359 0-59.727l128.61-128.61c16.492-16.492 43.234-16.492 59.727 0z"/>
  <path d="m602.34 673.29h-243.02c-4.6523 0.007813-9.1406 1.6992-12.641 4.7656-3.5 3.0625-5.7734 7.2891-6.3945 11.898-0.625 4.6094 0.44141 9.2891 3.0039 13.172 27.469 41.789 97.383 114.38 257.25 130.27 4.8828 0.50391 9.75-1.082 13.398-4.3633 3.6484-3.2852 5.7344-7.957 5.75-12.863v-125.55c0-4.5977-1.8281-9.0078-5.082-12.254-3.2539-3.25-7.6641-5.0742-12.262-5.0664z"/>
  <path d="m368.86 413.43 44.25 44.25c7.7344 7.7344 6.2695 21.738 0 28.008l-256.89 256.89c-7.7344 7.7344-20.273 7.7344-28.008 0l-44.25-44.25c-7.7344-7.7344-6.2695-21.738 0-28.008l256.89-256.89c7.7344-7.7344 20.273-7.7344 28.008 0z"/>
  <path d="m666.21 869.84v-185.98c0-4.3828 1.7383-8.5898 4.8398-11.691 3.0977-3.1016 7.3008-4.8477 11.684-4.8555 6.1797 0 12.105-2.4531 16.473-6.8242 4.3711-4.3672 6.8242-10.293 6.8242-16.473v-1.9922c0-4.3867 1.7422-8.5977 4.8477-11.699 3.1016-3.1055 7.3125-4.8477 11.699-4.8477h382.73c4.3633 0.035157 8.5352 1.7969 11.609 4.8945 3.0742 3.1016 4.7969 7.2891 4.7969 11.652v94.664c0.019531 2.9727-0.77344 5.8984-2.2891 8.457-1.5156 2.5586-3.6953 4.6602-6.3125 6.0742-20.484 11.156-72 45.75-92.836 119.93-1.2305 4.3828-3.8594 8.2461-7.4922 10.992-3.6328 2.7461-8.0625 4.2305-12.617 4.2188h-317.44c-4.3828 0-8.5859-1.7422-11.684-4.8398-3.0977-3.0977-4.8398-7.3008-4.8398-11.684z"/>
  <path d="m1068.2 1079.4c-54.047-33.023-68.297-96.727-71.742-135.94-0.5-5.9375-5.457-10.508-11.414-10.523h-256.12c-5.9531 0.015626-10.902 4.5898-11.391 10.523-3.4688 39.305-17.719 103.12-71.766 135.94-6.8984 4.168-11.125 11.629-11.156 19.688v14.812c0 4.4766 1.7773 8.7695 4.9414 11.934 3.1641 3.1641 7.457 4.9414 11.934 4.9414h102.68c3.2461 0.007812 6.4258-0.92188 9.1562-2.6797 2.7266-1.7617 4.8867-4.2734 6.2188-7.2344 7.5234-16.875 29.508-49.219 87.469-49.219 57.961 0 79.945 32.438 87.445 49.219 1.332 2.9609 3.4961 5.4688 6.2227 7.2305 2.7266 1.7578 5.9062 2.6914 9.1523 2.6836h102.7c4.4727 0 8.7617-1.7773 11.926-4.9453 3.1602-3.1641 4.9336-7.457 4.9258-11.93v-14.719c0.003906-8.0977-4.2383-15.609-11.18-19.781z"/>
 </g>
</svg>
