<?xml version="1.0" encoding="UTF-8"?>
<svg width="512pt" height="512pt" version="1.1" viewBox="0 0 512 512" xmlns="http://www.w3.org/2000/svg">
 <path d="m466.56 273.52c-0.80078 2.0781-1.5195 4.0781-2.3984 6.0781-16.348 41.578-40.973 79.395-72.383 111.16-31.41 31.766-68.949 56.82-110.34 73.637l-15.039 6.1602h-0.003906c-2.1914 0.88672-4.6836 0.60156-6.6211-0.75391-1.9375-1.3594-3.0586-3.6016-2.9766-5.9648 1.9219-42.238 13.281-141.04-34.879-237.6 5.5703-7.3945 9.3984-15.957 11.199-25.039 2.4805-13.359 0.64062-33.121-22.16-51.121-3.5-2.707-8.5234-2.1016-11.281 1.3594-1.3164 1.6602-1.9141 3.7812-1.6562 5.8828 0.25391 2.1055 1.3398 4.0195 3.0156 5.3164 13.281 10.48 18.801 22.48 16.32 35.68-0.79297 4.043-2.168 7.9531-4.0781 11.602-0.046875 0-0.082031-0.035157-0.082031-0.078125-5.1797 9.0625-12.148 16.984-20.48 23.277-1.3594 0.96094-2.7188 1.8398-4 2.6406-5.0117 3.4844-10.508 6.207-16.316 8.082-18.32 5.7617-38.398-5.7617-46.801-10.16-0.37891-0.25-0.85156-0.30859-1.2812-0.16016-1.0234 0.16016-1.7734 1.043-1.7617 2.0781 0 0-0.078125 0 0 0.078125v0.16406c0.91406 6.4141 0 12.961-2.6367 18.879-0.39844 0.96094-0.80078 1.9219-1.1992 2.8008-0.078125 0.078125-0.16016 0.23828-0.23828 0.32031h-0.003906c-2.4805 4.8281-6.1406 8.957-10.641 12-0.33594 0.15625-0.65625 0.34375-0.96094 0.55859-6.1133 4.0625-13.223 6.3867-20.559 6.7188-17.441 0.32031-30.078-6.7188-39.121-31.762v0.003906c-2.332-6.5508-2.3047-13.711 0.082031-20.242 0.070312-0.27734 0.17969-0.54688 0.32031-0.79688 1.168-3.043 2.8164-5.8789 4.8789-8.4023l43.281-52.879c0.73438-0.86328 1.3281-1.832 1.7578-2.8789 1.6055-3.0742 2.1641-6.582 1.6016-10l-2.1602-12.16c-0.21484-1.3164-0.10547-2.6602 0.32031-3.9219 0.042969-0.042969 0.070312-0.097656 0.078125-0.16016 0.26562-0.875 0.69922-1.6914 1.2812-2.3984l25.762-31.359c0.73438-0.86328 1.3281-1.8359 1.7578-2.8828 1.5391-2.8789 2.207-6.1445 1.9219-9.3984-0.28516-3.25-1.5078-6.3516-3.5234-8.9219-2.1562-2.7188-19.539-23.602-24.363-29.395h0.003907c-0.31641-0.36328-0.44531-0.85156-0.35938-1.3242 0.085937-0.47266 0.37891-0.87891 0.80078-1.1133 19.195-10.16 60.27-9.4375 82.398 14.711v0.003906c2.4102 2.4648 6.1562 3.0508 9.2031 1.4375 48.5-18.273 131.11 3.0625 168.61 49.109v0.003906c0.60156 0.80469 0.64453 1.8984 0.10938 2.75-0.53906 0.84766-1.543 1.2812-2.5312 1.082-11.445-2.9648-23.57-1.8281-34.27 3.2148-0.19141 0.066406-0.37891 0.14453-0.55859 0.24219 0.078126 0 0.16016 0.078124 0.23828 0.16016 12.711 6.4688 75.891 27.781 96.539 56.086 0.56641 0.76953 0.62891 1.8008 0.16016 2.6367-0.46875 0.83203-1.3867 1.3125-2.3398 1.2266-12.676-0.15625-25.258 2.2266-37 7.0078-0.078125 0-0.078125 0-0.078125 0.078125v0.003906c-0.19531 0.015625-0.38672 0.070313-0.5625 0.16016 0.078125 0 0.23828 0.078126 0.32031 0.078126 18.531 6.4961 35.012 17.785 47.762 32.723 14.684 16.355 27.41 34.371 37.918 53.68z" fill="#fff"/>
</svg>
