<?xml version="1.0" encoding="UTF-8"?>
<svg width="512pt" height="512pt" version="1.1" viewBox="0 0 512 512" xmlns="http://www.w3.org/2000/svg">
 <g fill="#fff">
  <path d="m496.13 256.51c-2.5586-3.0703-6.6562-5.1211-10.754-5.1211h-92.16c-15.359-39.938-37.887-81.922-72.191-116.73v33.281c0 7.168-2.0469 14.336-5.1211 20.48 6.6562 15.359 15.359 36.863 22.016 62.977l-57.855-0.003906c-4.0977 0-8.1914 2.0469-10.754 5.1211-2.5586 3.0703-3.5859 7.168-3.0703 11.266l36.352 207.87c1.0234 6.6562 7.168 11.266 13.824 11.266h133.12c6.6562 0 12.289-4.6094 13.824-11.266l36.352-207.87c0-4.0977-1.0234-8.1914-3.582-11.266zm-27.137 23.039-16.383 94.211h-30.207c-2.0469-19.457-7.168-54.273-19.969-94.207zm-124.42 0c5.6328 27.648 9.2148 59.391 8.1914 94.207h-39.938l-15.867-94.207z"/>
  <path d="m290.3 167.94v-67.586c0-8.1914-6.6562-14.336-14.336-14.336-5.1211 0-9.7266 3.0703-12.289 7.168-19.457-1.5352-38.398-8.1914-54.273-19.969l-41.984-31.23h-0.51172c-15.871-11.777-35.84-16.895-55.297-16.895h-98.812v219.14h98.816c19.969 0 39.426-5.1211 55.297-16.895l0.51172-0.51172 41.984-31.23c15.871-11.777 34.816-18.434 54.785-19.969 2.5586 4.0977 7.168 7.168 12.289 7.168 7.1641-0.003906 13.82-6.6602 13.82-14.852z"/>
 </g>
</svg>
