<?xml version="1.0" encoding="UTF-8" standalone="no"?>
<svg
   height="512"
   width="512"
   version="1.1"
   id="svg139"
   sodipodi:docname="restoration.svg"
   xmlns:inkscape="http://www.inkscape.org/namespaces/inkscape"
   xmlns:sodipodi="http://sodipodi.sourceforge.net/DTD/sodipodi-0.dtd"
   xmlns="http://www.w3.org/2000/svg"
   xmlns:svg="http://www.w3.org/2000/svg">
  <sodipodi:namedview
     id="namedview382"
     pagecolor="#505050"
     bordercolor="#ffffff"
     borderopacity="1"
     inkscape:showpageshadow="0"
     inkscape:pageopacity="0"
     inkscape:pagecheckerboard="1"
     inkscape:deskcolor="#505050"
     showgrid="false" />
  <defs
     id="defs143" />
  <g
     transform="matrix(0.42487864,0,0,0.42487864,-21.775033,47.756357)"
     id="g137">
    <path
       d="m 1256.3,208.6 q -41.85,216.15 -368.5,169.4 55.3,42.4 208.45,42.4 -55.95,144.45 -264.9,73.15 11.85,42.25 100.6,61.95 Q 877,616.45 782.2,604 769.55,581.25 746.4,561.6 815.2,663.25 760.05,773.75 672.2,914.8 658.7,970.55 628.05,916.3 683.8,830.05 l 0.25,-1.85 Q 717.7,770.15 670.7,735.55 670.5,779.3 642.3,792.8 646.45,715.9 591.8,661.25 536.95,605.7 564.25,557.9 540.9,579.5 533,604 438.2,616.45 383.05,555.5 460.25,534.05 483.4,493.55 274.65,564.85 218.85,420.4 371.95,420.4 427.4,378 100.75,424.75 51.25,193 q 85.3,87.25 270.85,46.45 106,-27.55 210.45,-25.2 10.3,0.85 2.45,9 -7.65,12.25 -5,17.25 32.5,35.5 67,14.6 53.15,-53.3 2.45,-87.85 -28.8,-11.95 -91.75,-11.3 4.1,-12.9 17.25,-22.5 -30.15,-7.6 -60.75,17.4 -7.9,-40.3 40.35,-56.1 Q 494.3,58.7 531.3,57.55 609.9,53.6 643.15,9.7 q 9.45,22.75 -8.75,51.35 73.9,-19.9 119.85,19.25 -45.3,-7.85 -65.65,20.9 53.8,10.3 69.55,49.65 -26.5,-12.2 -37.85,-1.7 37.85,63.15 -2.6,113.25 33.2,15.9 66.95,-17.3 4.05,-7.9 -3.75,-16.65 -16.6,-14.55 0,-14.2 105.3,-2.8 212.2,25.2 185.35,40.8 263.2,-30.85 M 651.45,574.3 q -69.25,68.8 88.3,169.8 47.45,-81.75 -88.3,-169.8 M 535.2,100.2 q 37.6,25.35 63.6,-15.95 -42.5,-15.35 -63.6,15.95"
       fill="#ffffff"
       fill-rule="evenodd"
       stroke="none"
       id="path135" />
  </g>
</svg>
