<?xml version="1.0" encoding="UTF-8"?>
<svg width="1200pt" height="1200pt" version="1.1" viewBox="0 0 1200 1200" xmlns="http://www.w3.org/2000/svg">
 <g fill="#fff">
  <path d="m1015.1 295.31c-5.3633-28.617-19.934-54.699-41.484-74.273-42.891-39.68-81.656-51.867-108.14-54.727-12.551-1.4062-25.105 2.625-34.492 11.078-9.3828 8.4531-14.703 20.52-14.609 33.148 0.21094 33.07 14.93 66.984 29.812 92.906 2.5352 4.3906 6.9258 7.3945 11.938 8.168 5.0078 0.77734 10.102-0.76172 13.844-4.1836 3.4922-3.1641 7.3125-6.3516 11.414-9.375 5.668-4.2695 12.633-6.4531 19.727-6.1719 7.0898 0.27734 13.863 2.9961 19.18 7.6953 19.453 17.484 54.797 40.219 86.719 12.656 4.8477-4.1875 7.1602-10.605 6.0938-16.922z"/>
  <path d="m100.97 954.42c14.625-0.48438 28.473 6.6016 36.633 18.75 9.375 14.391 8.25 32.812-1.1484 47.25-2.5664 3.9375-3.7578 8.6133-3.3867 13.301 0.375 4.6875 2.2891 9.1172 5.4492 12.598 5.2188 5.6719 10.805 11.18 16.758 16.523 3.8906 3.4648 8.9141 5.3867 14.121 5.4062 5.2109 0.023438 10.25-1.8594 14.168-5.2891l97.125-84.82c2.7578-2.3984 6.8047-2.5703 9.7539-0.41406 2.9492 2.1523 4.0156 6.0586 2.5742 9.4141l-46.875 107.81c-2.1523 4.9414-2.1367 10.559 0.046875 15.484 2.1836 4.9297 6.332 8.7148 11.438 10.438 33.727 11.18 73.172 18.586 119.3 20.859 8.9062 0.48828 17.754-1.6641 25.441-6.1875 7.6836-4.5273 13.859-11.219 17.754-19.242 40.121-81.93 88.766-159.41 145.12-231.14 5.0586-6.418 7.0391-14.742 5.4102-22.75-1.6328-8.0117-6.7031-14.898-13.871-18.828-67.617-37.172-124.57-93.234-166.92-164.88-10.777-18.273-20.438-37.18-28.922-56.625-3.1875-7.2539-9.5391-12.641-17.215-14.602-7.6797-1.9648-15.832-0.28906-22.113 4.5469-71.305 54.977-146.62 104.55-225.3 148.31-19.926 10.996-32.625 31.633-33.469 54.375-1.0078 30.469 0.96094 76.078 15.305 123.61 1.5352 4.8008 4.5977 8.9688 8.7148 11.875 4.1211 2.9062 9.0742 4.3906 14.113 4.2266z"/>
  <path d="m735.77 95.93c-18.562 46.875-57.469 129.73-130.01 228.45-5.4297 7.3438-8.4727 16.18-8.7109 25.312-0.23828 9.1328 2.3359 18.117 7.375 25.734 43.172 65.133 138.28 187.5 268.24 232.83 15.605 5.2695 32.574 4.8281 47.883-1.2422 57.547-22.223 118.14-35.562 179.7-39.562 11.875-0.78906 22.766-6.8711 29.668-16.562 6.9062-9.6914 9.0938-21.973 5.957-33.453v-0.11719c-0.89453-3.2969-2.7344-6.2539-5.3008-8.5078-2.5625-2.2578-5.7305-3.707-9.1133-4.1719-69.422-9.6328-202.88-39.844-283.34-133.59-2.7656-3.2109-68.883-80.742-69.445-162.23-0.21875-25.66 10.547-50.191 29.578-67.402 19.035-17.211 44.523-25.461 70.031-22.668 30.258 3.2578 73.172 15.961 119.53 54.961 32.438 27.352 55.828 64.336 63.844 106.03 5.2891 25.762 3.8711 52.453-4.125 77.508-6.6133 19.539-19.887 36.133-37.5 46.875l-0.70312 0.42188c-4.3984 2.6797-6.8789 7.6406-6.3789 12.77 0.5 5.1289 3.8867 9.5195 8.7227 11.301 23.109 8.3477 46.746 15.152 70.758 20.367 7.043 1.5586 14.41 0.50391 20.73-2.9648 6.3242-3.4727 11.168-9.125 13.629-15.902 16.641-46.242 40.312-128.58-21.492-241.88 0 0-68.508-127.22-295.83-134.09-13.625-0.42969-27.055 3.3555-38.453 10.832-11.398 7.4766-20.215 18.289-25.25 30.957z"/>
  <path d="m509.67 597.91c-4.8672 4.3047-11.281 6.4336-17.754 5.8945-6.4766-0.53906-12.449-3.7031-16.535-8.7539-18.773-23.25-35.586-48.016-50.273-74.039-3.0938-5.5391-8.5391-9.3711-14.797-10.422-6.2578-1.0469-12.652 0.80469-17.383 5.0312l-0.44531 0.39844c-7.1641 6.4453-12.004 15.078-13.758 24.555-1.7539 9.4766-0.32812 19.27 4.0547 27.852 13.477 26.461 33.328 60.938 49.055 87.328 38.906 65.32 98.859 127.29 165.7 164.06 11.922 6.5508 25.816 8.5469 39.098 5.6211 13.281-2.9297 25.051-10.582 33.113-21.535 36.633-49.945 61.711-87.398 126.26-116.84 25.266-11.508 26.766-46.875 2.8359-60.938-56.883-33.422-109.43-72.375-154.97-122.23-30.57-34.078-59.41-69.672-86.414-106.64-5.1562-7.0625-13.238-11.402-21.977-11.801-8.7344-0.39453-17.18 3.1953-22.953 9.7617-12.375 14.062-25.422 28.242-39.141 42.539-7.3594 7.7031-12.043 17.57-13.367 28.145-1.3203 10.57 0.79297 21.289 6.0312 30.566 13.352 23.887 28.672 46.625 45.797 67.969 3.9727 4.8047 5.9609 10.945 5.5547 17.168-0.40625 6.2188-3.1719 12.051-7.7344 16.301zm27.375 49.219c0.30078-1.5234 0.75-3.0156 1.3359-4.4531 0.61719-1.4336 1.3555-2.8125 2.2031-4.125 0.875-1.2969 1.8711-2.5039 2.9766-3.6094 1.082-1.1211 2.293-2.1133 3.6094-2.9531 1.2891-0.87109 2.6641-1.6094 4.1016-2.2031 4.3555-1.8438 9.168-2.3242 13.805-1.3828 1.5234 0.32422 3.0117 0.78906 4.4531 1.3828 1.4375 0.59766 2.8086 1.3359 4.1016 2.2031 1.3164 0.84375 2.5352 1.8359 3.6328 2.9531 1.0898 1.1133 2.0781 2.3203 2.9531 3.6094 0.86719 1.2969 1.5977 2.6797 2.1797 4.125 1.1953 2.8945 1.8242 5.9883 1.8516 9.1172 0.003906 1.5742-0.16016 3.1484-0.49219 4.6875-0.30078 1.5273-0.75391 3.0195-1.3594 4.4531-0.56641 1.4531-1.2969 2.8398-2.1797 4.125-0.86719 1.3086-1.8555 2.5352-2.9531 3.6562-4.4766 4.457-10.535 6.9609-16.852 6.9609-6.3164 0-12.375-2.5039-16.852-6.9609-1.1133-1.1172-2.1094-2.3398-2.9766-3.6562-0.86328-1.3008-1.6016-2.6836-2.2031-4.125-0.58594-1.4375-1.0352-2.9297-1.3359-4.4531-0.32422-1.543-0.48047-3.1133-0.46875-4.6875-0.007813-1.5664 0.15234-3.1289 0.46875-4.6641z"/>
  <path d="m838.41 1039.6c-6.2812 0-12.312 2.4844-16.773 6.9062-4.457 4.4258-6.9883 10.438-7.0391 16.719l-0.51562 58.594c-0.054687 6.3203 2.4023 12.406 6.832 16.918 4.4297 4.5078 10.473 7.0742 16.793 7.1289h0.21094c6.2852 0 12.316-2.4805 16.781-6.9062 4.4648-4.4258 7-10.434 7.0547-16.719l0.49219-58.594c0.054687-6.3203-2.4023-12.406-6.832-16.918-4.4297-4.5078-10.473-7.0742-16.793-7.1289z"/>
  <path d="m863.32 852.47c-5.4375-64.266-44.062-75.891-60.422-77.906-23.902-2.5391-47.535 6.7734-63.281 24.938-21.586 24.164-25.148 55.289-10.055 87.633 7.7461 16.211 19.02 30.48 33 41.766l168.75 137.86c4.8672 4.2148 11.234 6.2812 17.648 5.7305 6.4141-0.55078 12.332-3.6758 16.41-8.6602 4.0742-4.9844 5.9609-11.406 5.2266-17.805-0.73438-6.3945-4.0234-12.223-9.1211-16.156l-98.438-80.484 0.63281-86.719c0-3.9375-0.09375-7.1953-0.35156-10.195zm-47.695 58.195-22.828-18.75c-8.4336-6.7539-15.258-15.305-19.969-25.031-8.9766-19.195-3.4219-29.156 2.3438-35.695 4.8281-5.7656 11.867-9.2188 19.383-9.5156 0.78516 0.003906 1.5664 0.050781 2.3438 0.14062 3.9375 0.49219 15.961 1.9688 18.75 34.594 0.14062 1.5703 0.1875 3.4219 0.16406 5.7656z"/>
 </g>
</svg>
