<?xml version="1.0" encoding="UTF-8" standalone="no"?>
<!DOCTYPE svg PUBLIC "-//W3C//DTD SVG 1.1//EN" "http://www.w3.org/Graphics/SVG/1.1/DTD/svg11.dtd">
<svg width="100%" height="100%" viewBox="0 0 512 495" version="1.1" xmlns="http://www.w3.org/2000/svg" xmlns:xlink="http://www.w3.org/1999/xlink" xml:space="preserve" xmlns:serif="http://www.serif.com/" style="fill-rule:evenodd;clip-rule:evenodd;stroke-linejoin:round;stroke-miterlimit:2;">
    <g transform="matrix(1,0,0,1,-57.6718,-76.4998)">
        <g transform="matrix(0.472035,0,0,0.472035,30.4487,40.3892)">
            <path d="M743.65,425.04C662.673,484.243 608.23,545.3 527.42,600.59C444.24,657.52 247.93,726.57 247.93,726.57C170.703,753.828 107.07,826.531 107.07,826.531C107.07,826.531 15.195,933.101 82.039,1040.16C110.937,1086.4 159.383,1107.33 198.289,1116.78C240.082,1127.12 283.937,1125.49 324.849,1112.09C442.479,1072.86 465.969,958.271 465.969,958.271C488.703,858.31 592.299,685.651 592.299,685.651C638.611,607.51 708.919,517.981 766.419,449.211C779.052,434.07 759.575,413.399 743.661,425.047L743.65,425.04ZM368.98,836.06C355.714,870.466 325.269,945.02 292.152,995.15C283.328,1008.61 269.504,1018 253.738,1021.26C252.66,1021.47 251.535,1021.68 250.41,1021.85C198.848,1029.95 160.996,972.626 188.793,928.4C190.961,924.959 193.305,921.634 195.824,918.439C227.98,877.447 318.024,839.455 357.284,824.337C360.628,823.044 364.421,823.845 366.952,826.384C369.483,828.923 370.28,832.716 368.979,836.056L368.98,836.06Z" style="fill:white;fill-rule:nonzero;"/>
            <path d="M757.45,613.38C760.259,614.153 763.22,614.153 766.028,613.38C768.079,612.919 769.97,611.923 771.513,610.497C774.806,607.966 777.02,604.282 777.704,600.185C778.384,596.088 777.489,591.881 775.192,588.419C772.173,583.337 766.712,580.208 760.801,580.169C756.422,580.263 752.235,582.001 749.082,585.044C741.817,592.31 742.801,606.302 752.457,611.247C753.996,612.216 755.684,612.939 757.449,613.38L757.45,613.38Z" style="fill:white;fill-rule:nonzero;"/>
            <path d="M1135.5,558.07C1134.56,553.851 1133.53,549.656 1132.41,545.484L1132.41,544.898C1131.15,535.511 1129.34,526.207 1126.99,517.031C1121.81,495.914 1114.57,475.355 1105.38,455.648C1093.21,429.035 1078.61,403.605 1061.74,379.687C1047.47,359.32 1032.8,336.773 1014.19,320.109C1002.21,309.375 983.015,323.742 992.085,337.148C1023.35,383.343 1039.27,414.773 1045.55,440.488C1046.82,445.355 1044.38,450.422 1039.78,452.465C1035.19,454.508 1029.79,452.918 1027.03,448.715C1004.41,414.543 970.781,364.082 964.734,356.699C929.859,314.207 893.953,267.519 852.564,231.289C826.619,208.601 778.736,175.93 749.444,156.5C746.565,154.555 745.365,150.906 746.529,147.633C747.697,144.359 750.928,142.289 754.389,142.602C758.947,142.871 763.475,143.555 767.912,144.641C837.31,167.399 864.006,197.399 865.201,198.079C888.146,210.852 903.615,197.61 887.795,172.438C873.357,149.563 813.568,117.055 813.311,116.961C803.69,111.937 793.674,107.722 783.358,104.352C760.061,96.43 734.678,93.125 710.163,92.071C686.725,91.086 664.624,91.579 641.304,90.782C621.691,89.922 602.202,87.239 583.085,82.766C582.921,82.766 536.726,73.743 517.108,77.352C484.741,83.305 457.061,104.047 437.233,129.594C416.327,156.383 407.139,186.43 394.131,217.156C389.256,228.687 375.381,257 359.889,246.5C344.397,236 335.444,200.773 318.241,209.961C306.921,215.984 301.155,242.094 333.429,314.701C348.499,348.592 372.617,381.053 394.367,411.146C412.242,435.998 431.918,459.498 453.242,481.458C475.273,504.122 501.547,533.981 536,532.2L536.211,532.2C540.562,531.739 544.297,528.887 545.89,524.809C547.48,520.731 546.668,516.106 543.781,512.817C528.593,495.45 491.75,445.411 483.125,360.897C480.781,338.374 486.664,317.209 495.523,296.397C506.328,270.991 529.414,266.936 516.078,305.515C508.508,327.382 510.734,351.124 514.906,373.906C518.531,394.066 526.191,413.289 537.429,430.414C547.577,445.578 561.968,464.305 580.367,469.039C589.32,471.382 603.078,459.921 580.836,431.281C572.82,420.969 568.883,408.172 564.992,395.703C558.617,375.359 551.703,345.969 565.695,327.031C572.867,317.304 585.617,312.054 599.211,309.336C602.574,308.66 606.059,309.636 608.586,311.961L608.984,312.336C611.07,314.3 612.258,317.039 612.266,319.906C612.621,339.758 619.176,359 631.016,374.937C640.652,388.425 652.614,400.089 666.336,409.39C669.008,411.101 687.711,422.468 689.914,413.304C691.836,405.382 686.632,399.921 681.921,393.898C673.765,383.421 664.905,373.507 657.78,362.281C648.581,348.59 643.956,332.336 644.561,315.851C645.804,312.078 648.171,311.796 653.491,310.179C654.476,309.898 655.483,309.663 656.468,309.406C661.183,310.468 665.808,311.902 670.296,313.695C680.14,317.632 728.773,347.445 743.374,359.375C766.647,378.359 789.194,398.258 810.64,419.281C828.007,436.343 844.999,453.922 861.171,472.156C872.163,484.578 888.288,498.312 887.96,515.422C887.725,528.524 868.929,542.188 849.312,536.516C827.609,530.305 824.164,521.914 806.374,518.633C802.425,517.687 798.323,519.445 796.276,522.953C794.229,526.461 794.725,530.894 797.491,533.867C812.679,551.164 826.811,561.219 848.866,567.828C864.499,572.516 886.483,572.023 900.218,562.672C901.346,561.863 902.757,561.566 904.116,561.848C905.471,562.125 906.651,562.961 907.366,564.148C909.901,568.285 912.147,572.594 914.093,577.039C915.225,579.84 916.175,582.715 916.928,585.641C916.928,586.039 924.827,613.977 893.795,628.977C875.162,638 853.834,628.297 837.334,618.055C821.35,608.141 806.865,629.774 818.115,642.969C847.177,676.461 898.224,690.242 936.095,662.821C941.217,659.122 945.838,654.782 949.853,649.907C951.271,648.239 953.619,647.708 955.619,648.602C957.615,649.501 958.779,651.606 958.478,653.774C958.049,657.223 957.353,660.63 956.393,663.969C948.283,692.094 916.549,718.625 890.205,718.344C844.557,717.707 799.932,704.754 761.045,680.844C740.889,668.844 718.037,647.282 698.537,634.25C684.287,624.711 670.717,645.172 681.053,656.891C681.685,657.618 719.045,699.079 737.303,717.43C753.709,733.836 769.834,750.664 788.186,765.008C825.334,794.047 870.217,803.914 916.716,805.32C961.575,806.68 1007.44,799.086 1047.69,778.601C1069.2,767.632 1090.34,751.39 1103.63,730.835L1103.89,730.46C1122.68,707.847 1135.05,680.601 1139.7,651.569C1144.6,620.397 1142.37,588.78 1135.51,558.077L1135.5,558.07Z" style="fill:white;fill-rule:nonzero;"/>
            <path d="M948.87,206.67C947.253,212.459 947.19,218.572 948.69,224.397C950.186,230.217 953.19,235.542 957.401,239.835C963.261,245.804 971.104,249.413 979.452,249.991C987.796,250.565 996.061,248.061 1002.68,242.952C1019.94,229.655 1034.92,213.651 1047.05,195.561L1089.85,131.717C1102.08,113.483 1079.91,91.873 1062.03,104.6L979.338,163.358C964.522,173.881 953.768,189.17 948.869,206.67L948.87,206.67Z" style="fill:white;fill-rule:nonzero;"/>
        </g>
    </g>
</svg>
