<?xml version="1.0" encoding="UTF-8" standalone="no"?>
<!DOCTYPE svg PUBLIC "-//W3C//DTD SVG 1.1//EN" "http://www.w3.org/Graphics/SVG/1.1/DTD/svg11.dtd">
<svg width="100%" height="100%" viewBox="0 0 512 512" version="1.1" xmlns="http://www.w3.org/2000/svg" xmlns:xlink="http://www.w3.org/1999/xlink" xml:space="preserve" xmlns:serif="http://www.serif.com/" style="fill-rule:evenodd;clip-rule:evenodd;stroke-linejoin:round;stroke-miterlimit:2;">
    <g transform="matrix(1,0,0,1,-69.1638,-69.2295)">
        <g transform="matrix(0.482253,0,0,0.482253,35.8093,35.8434)">
            <path d="M627.47,350.93C622.603,356.465 615.552,359.594 608.181,359.485L603.704,359.485C555.802,359.453 509.122,374.583 470.344,402.704C467.973,404.438 466.403,407.055 465.989,409.962C465.575,412.872 466.348,415.821 468.141,418.149C474.516,426.469 482.672,436.899 491.579,447.61C495.107,451.864 501.31,452.688 505.829,449.508C523.743,436.887 543.938,427.863 565.29,422.93C565.782,423.962 565.29,422.766 565.712,423.798C548.204,439.501 571.525,465.306 586.806,450.4C706.966,332.81 813.286,264.96 878.396,229.69C909.919,212.628 946.646,240.893 938.912,276.284C925.529,337.479 896.396,393.584 870.006,435.024C861.615,448.196 878.233,462.915 889.928,452.696C968.42,383.93 1025.54,295.666 1065.34,216.816C1107.92,132.441 1015.86,43.376 934.318,89.806C816.478,157.025 709.058,259.756 627.478,350.926L627.47,350.93Z" style="fill:white;fill-rule:nonzero;"/>
            <path d="M831.33,366.56C830.314,368.552 830.846,370.986 832.603,372.369C834.357,373.755 836.85,373.708 838.549,372.255C852.729,357.958 871.151,333.63 883.971,295.708C885.291,291.763 885.065,287.466 883.334,283.685C881.603,279.9 878.506,276.916 874.658,275.334C870.814,273.748 866.51,273.685 862.619,275.154C838.783,284.763 802.197,304.896 759.499,346.709C755.234,350.908 753.066,356.791 753.589,362.756C754.109,368.717 757.265,374.135 762.194,377.529L762.663,377.834C766.558,380.517 771.3,381.67 775.991,381.08C780.679,380.486 784.987,378.189 788.093,374.623C801.831,358.893 816.714,344.205 832.624,330.678C835.613,328.264 839.882,328.268 842.862,330.69C845.847,333.111 846.726,337.291 844.976,340.71C841.413,347.999 836.936,356.648 831.335,366.562L831.33,366.56Z" style="fill:white;fill-rule:nonzero;"/>
            <path d="M618.75,304.69C635.859,296.534 648.82,280.268 661.711,266.721C675.617,252.096 689.781,237.713 704.203,223.573C733.031,195.276 762.765,167.995 793.406,141.729C809.812,127.667 786.047,103.596 769.687,117.706C738.343,144.69 707.992,172.815 678.632,202.081C664.335,216.331 650.273,230.831 636.444,245.581C623.413,259.526 609.186,273.987 602.811,292.456C599.389,302.347 610.897,308.464 618.749,304.69L618.75,304.69Z" style="fill:white;fill-rule:nonzero;"/>
            <path d="M825.7,105.19C827.118,106.405 828.598,107.546 830.13,108.612C831.755,109.514 833.477,110.229 835.263,110.745C840.388,112.057 845.822,111.335 850.427,108.729L854.411,105.612C856.298,103.854 857.7,101.643 858.489,99.19C860.321,95.1 860.669,90.503 859.473,86.182L859.192,85.479C858.911,83.256 858.153,81.119 856.966,79.221C855.114,76.319 852.669,73.842 849.794,71.955C847.575,70.518 845.005,69.709 842.364,69.612C839.723,69.002 836.969,69.123 834.395,69.963C831.047,71.061 827.977,72.866 825.395,75.26C822.137,78.498 820.04,82.721 819.43,87.272C818.817,91.827 819.731,96.452 822.02,100.432C823.087,102.135 824.321,103.729 825.7,105.19L825.7,105.19Z" style="fill:white;fill-rule:nonzero;"/>
            <path d="M1045.3,330.82C1034.63,346.445 1023.42,361.609 1011.67,376.312C1000.23,390.632 988.229,404.437 976.112,418.101C965.05,430.71 949.651,443.062 944.893,459.679C943.909,463.39 944.955,467.347 947.655,470.085C950.35,472.819 954.291,473.925 958.018,472.991C974.588,468.749 986.706,452.741 998.424,440.624C1012.35,426.069 1025.24,410.343 1037.7,394.499C1049.28,379.796 1060.41,364.765 1071.08,349.405C1080.76,335.343 1097.42,317.952 1096.86,300.046C1096.49,289.663 1086.57,284.952 1077.83,288.984C1062.69,295.898 1054.42,317.484 1045.3,330.82L1045.3,330.82Z" style="fill:white;fill-rule:nonzero;"/>
            <path d="M1059,412.97C1035.16,443.814 1010.2,473.579 984.609,502.923C972.5,516.814 960.179,530.525 947.648,544.056C936.328,556.22 920.437,568.876 919.523,586.501C919.523,591.907 923.867,596.314 929.273,596.392C945.843,595.665 957.703,580.97 968.718,569.697C982.288,555.799 995.671,541.689 1008.73,527.299C1034.86,498.494 1059.44,468.237 1083.23,437.463C1096.55,420.119 1072.55,395.463 1059,412.971L1059,412.97Z" style="fill:white;fill-rule:nonzero;"/>
            <path d="M694.69,675.8C698.061,672.425 699.96,667.851 699.963,663.077C699.971,658.308 698.092,653.725 694.729,650.339C691.37,646.952 686.803,645.034 682.034,645.003C677.319,645.07 672.811,646.972 669.472,650.3C666.124,653.698 664.245,658.277 664.245,663.05C664.245,667.823 666.124,672.402 669.472,675.8C672.781,679.187 677.312,681.093 682.046,681.093C686.78,681.093 691.312,679.187 694.62,675.8L694.69,675.8Z" style="fill:white;fill-rule:nonzero;"/>
            <path d="M289.27,169.2C304.762,183.497 323.09,194.677 340.036,207.098C358.13,220.317 375.755,234.239 393.755,247.692C410.653,260.325 427.528,273.965 445.458,284.958C462.146,295.2 478.27,312.333 496.833,318.403C498.536,318.837 500.337,318.337 501.571,317.087C502.806,315.84 503.286,314.028 502.833,312.333C496.153,294.028 478.388,280.106 466.95,264.731C453.919,247.2 436.762,231.778 420.333,217.575C403.903,203.372 387.31,190.809 370.036,178.364C351.286,164.911 332.231,149.794 311.114,140.489C293.887,132.895 272.794,153.989 289.27,169.2L289.27,169.2Z" style="fill:white;fill-rule:nonzero;"/>
            <path d="M424.22,164.06C436.103,175.779 448.15,187.193 459.751,199.216C480.563,220.661 502.759,246.396 528.657,261.443C533.977,264.537 541.407,259.38 539.391,253.076C530.18,224.248 507.118,197.646 486.774,176.014C476.063,164.623 464.766,153.608 453.258,143.061C442.735,133.405 430.031,118.569 414.75,119.928C408.609,120.49 402.492,125.014 402.867,131.975C403.687,146.553 414.351,154.311 424.219,164.061L424.22,164.06Z" style="fill:white;fill-rule:nonzero;"/>
            <path d="M120.14,249.8C140.671,291.988 168.163,330.683 197.249,367.1C207.28,379.686 269.108,465.186 286.476,439.334C293.882,428.295 283.406,415.404 277.242,406.311C267.445,391.78 256.148,378.491 245.203,364.873C222.965,337.732 202.223,309.4 183.07,280.006C165.422,252.35 149.25,223.24 139.5,191.67C134.601,175.803 129.89,157.803 130.429,141.022C130.429,139.92 130.57,138.678 130.64,137.6C132.984,139.709 137.671,141.819 139.476,143.577C142.496,146.491 145.136,149.772 147.328,153.35C161.648,175.639 197.273,154.592 182.484,132.444C171.093,114.842 153.632,98.225 132.375,94.358C113.016,90.842 97.617,103.733 92.531,122.131C86.976,142.217 91.828,166.1 96.492,185.928C102.003,208.022 109.933,229.44 120.14,249.795L120.14,249.8Z" style="fill:white;fill-rule:nonzero;"/>
            <path d="M321.4,458.3C317.134,458.339 313.048,460.019 309.986,462.988C306.947,466.05 305.236,470.191 305.224,474.508C305.216,478.828 306.908,482.972 309.935,486.051C312.962,489.129 317.084,490.886 321.4,490.949C325.674,490.914 329.767,489.234 332.838,486.261C335.823,483.133 337.502,478.984 337.526,474.659C337.569,470.335 335.889,466.171 332.85,463.093C329.815,460.015 325.678,458.273 321.354,458.254L321.4,458.3Z" style="fill:white;fill-rule:nonzero;"/>
            <path d="M166.69,463.29C185.596,484.681 205.713,504.962 226.948,524.04C237.846,534.095 248.815,544.22 260.417,553.454C271.198,562.032 282.355,572.884 295.573,576.892C306.753,580.337 313.737,567.822 309.635,558.517C303.94,545.908 291.283,535.314 282.026,525.165C272.768,515.017 263.745,505.759 254.862,495.798C236.417,475.15 219.167,453.47 201.401,432.212C183.635,410.954 166.948,389.228 150.471,367.15C142.455,356.447 134.643,345.595 127.033,334.595C118.572,322.431 110.767,308.814 97.947,300.962C86.603,294.071 67.478,302.696 69.283,317.626C72.564,346.267 96.681,373.22 113.041,395.954C129.775,419.251 147.963,441.587 166.689,463.29L166.69,463.29Z" style="fill:white;fill-rule:nonzero;"/>
            <path d="M300.82,637.15C273.89,644.884 254.765,666.494 234.937,685.853C213.499,706.744 192.859,728.423 173.015,750.892C153.163,773.439 133.593,796.08 115.054,819.658C100.781,837.846 73.218,862.502 78.257,887.486C79.433,891.681 83.277,894.564 87.632,894.517C101.952,893.58 109.663,884.322 118.359,873.634C127.055,862.946 135.937,852.142 144.82,841.407C163.265,819.048 181.828,796.876 201.07,775.149C220.312,753.422 239.742,731.954 259.406,710.696C278.156,690.352 299.578,671.977 308.883,645.376C310.594,640.478 305.367,635.861 300.821,637.15L300.82,637.15Z" style="fill:white;fill-rule:nonzero;"/>
            <path d="M319.8,723.3C312.874,723.39 306.499,727.097 302.995,733.073L302.69,733.566L300.722,738.253C299.925,740.78 299.811,743.472 300.393,746.058C300.831,750.312 302.706,754.288 305.714,757.331C308.159,759.608 311.069,761.331 314.245,762.37C319.288,763.53 324.581,762.831 329.151,760.401L329.596,760.05C332.51,758.354 334.932,755.932 336.627,753.018C338.377,749.999 339.292,746.569 339.276,743.081C339.209,737.878 337.174,732.897 333.581,729.136C329.924,725.468 324.979,723.374 319.8,723.3L319.8,723.3Z" style="fill:white;fill-rule:nonzero;"/>
            <path d="M459.98,884.3C496.472,839.886 535.566,793.48 562.8,742.71C569.128,730.991 561.698,719.858 552.089,716.39C545.913,712.57 537.827,714.234 533.667,720.187C527.597,727.663 521.409,735.023 515.198,742.382C492.206,728.312 472.784,709.109 458.456,686.277C444.124,663.445 435.276,637.605 432.604,610.781L435.182,613.125C448.612,625.359 462.627,637.008 476.854,648.281C491.081,659.554 506.549,673.078 523.729,678.75C533.877,682.101 545.502,668.602 538.518,659.227C528.346,645.539 513.252,635.297 500.151,624.516C486.089,612.961 472.565,600.914 459.182,588.61C454.213,584.047 449.276,579.469 444.37,574.876C440.976,571.676 438.499,567.626 437.198,563.146C435.893,558.665 435.815,553.919 436.964,549.4C439.354,539.947 442.53,530.712 446.456,521.791C488.268,563.533 533.479,601.291 586.076,629.131C602.81,637.99 616.709,613.897 600.842,603.514C559.592,576.537 524.412,540.233 490.472,504.866C459.019,472.054 428.292,438.585 398.691,404.086C371.011,371.813 343.894,339.047 317.972,305.274L317.41,304.547C317.41,304.172 317.292,303.797 317.292,303.422C317.292,296.391 319.402,298.735 326.035,299.696L329.175,300.422L331.87,301.383C341.597,306.563 350.784,312.68 359.995,318.75C378.745,331.102 397.753,342.398 418.94,349.664C430.448,353.602 442.823,340.969 438.979,329.32C435.933,320.109 430.05,311.953 422.573,308.226L422.128,307.828C390.878,284.766 358.847,262.89 326.034,242.203C310.518,232.382 294.909,222.68 279.159,213.305C263.409,203.93 246.159,191.25 227.948,190.453L227.198,190.453C215.151,186.257 199.214,195.538 204.206,210.937C211.894,233.976 228.417,253.898 241.706,273.726C255.768,294.609 270.511,315.023 285.722,335.062C314.011,372.281 343.214,408.867 374.128,443.902C381.003,451.714 387.909,459.472 394.847,467.175C397.425,470.069 399.082,473.671 399.593,477.515C400.109,481.358 399.46,485.265 397.73,488.738C393.054,498.195 389.027,507.961 385.683,517.965C384.37,517.144 383.035,516.324 381.652,515.621C372.581,510.933 358.66,518.949 362.902,530.316C366.226,538.749 370.984,546.543 376.964,553.355C374.71,566.437 373.55,579.687 373.495,592.964C373.393,631.296 382.71,669.066 400.632,702.944C418.554,736.831 444.527,765.792 476.269,787.28C425.054,844.214 370.529,898.08 312.979,948.6C295.049,964.35 275.198,982.139 251.127,986.756C235.494,989.732 214.775,985.771 205.752,971.1C193.096,950.522 210.041,917.428 218.596,898.139C221.948,890.592 236.573,861.201 254.479,838.842C268.706,821.123 245.104,796.889 229.706,813.717C191.007,855.893 157.394,902.471 129.556,952.487C116.193,976.596 104.236,1001.46 93.744,1026.95C85.635,1046.68 74.08,1070.82 80.525,1096.02C82.798,1104.42 87.455,1112 93.935,1117.82C100.415,1123.64 108.439,1127.46 117.04,1128.83L117.274,1128.83C143.876,1133.21 171.18,1129.79 196.586,1121.14C253.305,1101.88 297.746,1059.57 339.346,1017.78C381.744,975.338 421.869,930.666 459.976,884.283L459.98,884.3Z" style="fill:white;fill-rule:nonzero;"/>
            <path d="M277.92,913.15C302.764,924.869 324.49,902.064 341.201,886.384L341.482,886.103C350.275,879.38 358.056,871.435 364.591,862.501C376.997,848.782 388.661,834.411 399.536,819.446C411.888,802.571 384.747,781.688 370.919,797.04C353.669,816.188 336.513,835.454 319.146,854.509L316.615,857.345L315.49,858.188C309.818,862.204 303.24,864.747 296.342,865.595C290.037,866.157 284.178,863.813 277.897,865.29C252.444,871.22 258.491,904.009 277.92,913.149L277.92,913.15Z" style="fill:white;fill-rule:nonzero;"/>
            <path d="M399.66,1011.2C378.566,1036.09 353.558,1059.53 334.551,1086.2C328.711,1092.29 323.649,1099.09 319.481,1106.43C312.872,1118.66 335.09,1134.41 350.887,1121.66C369.637,1106.54 386.864,1088.43 402.918,1070.4C409.316,1063.23 418.527,1053.53 424.363,1043.05C425.957,1040.21 427.691,1037.45 429.238,1034.59C439.035,1016.31 414.472,993.621 399.66,1011.2L399.66,1011.2Z" style="fill:white;fill-rule:nonzero;"/>
            <path d="M1074.7,998.25C1027.38,1001.37 981.723,983.625 939.56,963.492C899.63,944.09 861.748,920.742 826.47,893.789C791.618,867.039 758.454,838.164 727.165,807.328C711.274,791.953 695.36,776.578 679.727,760.922C664.094,745.266 648.766,727.266 629.243,715.805C614.243,706.993 598.774,724.266 606.298,739.055C612.86,751.828 621.157,762.493 611.853,773.625C600.134,787.687 587.408,800.578 575.291,814.359C562.103,829.343 548.822,844.273 535.447,859.148C509.666,888.023 482.197,916.265 458.595,947.062C444.533,965.414 466.282,989.132 484.236,973.078C516.884,943.875 545.572,909.328 574.986,877.219C583.704,867.703 592.236,858.024 600.767,848.274L602.431,846.376C613.165,834.036 627.747,825.681 643.822,822.657C647.056,822.071 650.244,821.438 653.408,820.735C665.443,818 678.045,821.629 686.783,830.344C691.705,835.235 696.673,840.086 701.689,844.899C736.013,878.067 772.431,908.997 810.719,937.501C814.375,940.204 818.094,942.899 821.875,945.587C824.07,947.052 824.824,949.927 823.629,952.278C822.429,954.63 819.664,955.712 817.187,954.798C801.839,949.536 786.796,943.407 772.14,936.446C758.011,929.672 744.386,921.903 731.359,913.196C719.523,905.251 707.336,893.813 693.414,890.415C689.367,889.364 685.063,890.548 682.125,893.524C679.188,896.501 678.059,900.817 679.164,904.852C687.016,933.094 724.609,954.071 748.094,967.688C778.082,984.543 809.856,998 842.828,1007.81C876.484,1018.11 910.637,1026.71 945.158,1033.59C964.424,1037.53 982.658,1039.99 1002.35,1038.89C1013.46,1038.28 1065.23,1036.69 1079.5,1034.2C1099.59,1030.99 1095.02,996.915 1074.7,998.251L1074.7,998.25Z" style="fill:white;fill-rule:nonzero;"/>
            <path d="M1123.4,904.12C1120.15,892.155 1114.77,880.87 1107.51,870.815C1090.33,845.924 1070.95,822.276 1051.75,799.003C1032.02,775.05 1011.72,751.565 990.321,729.112C969.86,707.62 947.876,679.284 921.532,665.385C904.446,656.385 883.915,674.924 894.415,692.877C907.985,716.057 931.47,734.455 949.587,754.072C967.048,772.986 984.298,792.134 1001.01,811.705C1005.04,816.393 1009.05,821.08 1013.01,825.932C1033.63,851.526 1030.47,878.901 1000.8,868.284C986.736,860.128 953.196,840.534 930.978,826.096C903.259,808.221 876.087,789.471 849.462,769.846C836.29,760.143 823.189,748.752 809.618,738.205C805.72,735.1 803.048,730.717 802.075,725.83C801.102,720.943 801.888,715.873 804.298,711.51C824.013,675.123 834.22,634.346 833.97,592.96C834.083,553.386 824.161,514.425 805.126,479.73C786.091,445.031 758.567,415.73 725.126,394.562C721.864,392.543 717.989,391.75 714.196,392.32C710.399,392.89 706.93,394.789 704.407,397.679L671.337,434.827L635.501,475.046C625.376,487.046 640.868,503.64 653.243,494.054L688.821,466.398C693.582,462.664 699.52,460.754 705.563,461.004C711.61,461.258 717.368,463.66 721.797,467.781C738.965,483.781 752.629,503.164 761.93,524.711C771.227,546.254 775.957,569.496 775.821,592.961C775.918,637.813 758.805,680.988 728.009,713.591C724.579,717.294 722.755,722.204 722.931,727.247C723.106,732.294 725.266,737.063 728.946,740.52L752.852,763.161C754.844,765.13 756.883,767.052 758.969,768.95C769.141,778.067 780.344,786.223 790.75,794.262C809.734,808.981 829.047,823.254 848.688,837.082C889.813,866.051 932.211,893.051 975.888,918.082C995.333,929.219 1015.4,939.234 1035.98,948.082C1053.79,955.723 1073.93,964.488 1093.33,963.457C1113.61,962.262 1131.37,948.574 1130.83,926.73C1130.57,918.636 1127.99,910.789 1123.4,904.113L1123.4,904.12Z" style="fill:white;fill-rule:nonzero;"/>
            <path d="M915.84,1068C891.981,1059.35 866.621,1054.62 842.293,1046.74C817.965,1038.87 793.707,1030.71 770.293,1020.61C722.809,1000.08 680.059,972.234 636.303,944.859C615.959,932.132 593.319,961.617 610.709,978.515C651.115,1017.73 702.889,1045.24 754.829,1064.98C780.489,1074.94 807.059,1082.37 834.165,1087.17C860.509,1091.72 889.267,1095.26 915.845,1091.55C928.759,1089.8 925.783,1071.56 915.845,1068L915.84,1068Z" style="fill:white;fill-rule:nonzero;"/>
        </g>
    </g>
</svg>
