<?xml version="1.0" encoding="UTF-8" standalone="no"?>
<!DOCTYPE svg PUBLIC "-//W3C//DTD SVG 1.1//EN" "http://www.w3.org/Graphics/SVG/1.1/DTD/svg11.dtd">
<svg width="100%" height="100%" viewBox="0 0 344 512" version="1.1" xmlns="http://www.w3.org/2000/svg" xmlns:xlink="http://www.w3.org/1999/xlink" xml:space="preserve" xmlns:serif="http://www.serif.com/" style="fill-rule:evenodd;clip-rule:evenodd;stroke-linejoin:round;stroke-miterlimit:2;">
    <g transform="matrix(1,0,0,1,-231.182,-50.86)">
        <g transform="matrix(0.466153,0,0,0.466153,123.416,27.1515)">
            <path d="M607.5,374.55C603.199,370.812 596.801,370.812 592.5,374.55L487.03,466.706C484.549,468.866 483.132,471.995 483.139,475.284L483.139,724.704C483.132,727.993 484.55,731.122 487.03,733.282L592.5,825.438C596.801,829.177 603.199,829.177 607.5,825.438L712.97,733.282C715.451,731.122 716.868,727.993 716.861,724.704L716.861,475.284C716.868,471.995 715.45,468.866 712.97,466.706L607.5,374.55Z" style="fill:white;fill-rule:nonzero;"/>
            <path d="M934.99,307.64L672.16,77.95C652.176,60.485 626.535,50.86 599.996,50.86C573.457,50.86 547.816,60.485 527.832,77.95L265.002,307.64C243.529,326.402 231.201,353.519 231.182,382.031L231.182,817.971C231.182,846.51 243.514,873.655 265.002,892.432L527.832,1122.12C547.816,1139.59 573.457,1149.21 599.996,1149.21C626.535,1149.21 652.176,1139.59 672.16,1122.12L934.99,892.432C956.478,873.655 968.81,846.51 968.81,817.971L968.81,382.031C968.79,353.519 956.462,326.402 934.99,307.64ZM791.76,724.83C791.756,749.736 780.998,773.428 762.252,789.822L656.782,881.978C641.016,895.646 620.848,903.169 599.981,903.169C579.114,903.169 558.946,895.646 543.18,881.978L437.71,789.822C418.964,773.427 408.206,749.736 408.202,724.83L408.202,475.29C408.206,450.384 418.964,426.692 437.71,410.298L543.18,318.142C558.946,304.482 579.11,296.962 599.969,296.962C620.828,296.962 640.992,304.481 656.758,318.142L762.228,410.298C780.974,426.693 791.732,450.384 791.736,475.29L791.76,724.83Z" style="fill:white;fill-rule:nonzero;"/>
        </g>
    </g>
</svg>
