<?xml version="1.0" encoding="UTF-8"?>
<svg width="1200pt" height="1200pt" version="1.1" viewBox="0 0 1200 1200" xmlns="http://www.w3.org/2000/svg">
 <g fill="#fff">
  <path d="m733.71 1064.7c-15.637-16.832-24.297-38.973-24.234-61.945v-101.16c29.062-20.508 40.219-52.406 44.344-70.312 1.8008-8.0508 6.8125-15.02 13.875-19.289 29.906-17.859 44.531-49.805 50.555-96.797 6.75-52.711-36.469-47.25-36.469-47.25v-120c0.32422-39.113-12.754-77.16-37.055-107.81-1.375-1.7344-2.7812-3.4219-4.2188-5.0625-16.344-18.668-36.512-33.598-59.141-43.773-22.629-10.176-47.184-15.359-71.992-15.195h-18.75c-24.805-0.14844-49.352 5.043-71.973 15.227-22.617 10.184-42.781 25.117-59.113 43.789-1.4375 1.6406-2.8438 3.3281-4.2188 5.0625-24.301 30.652-37.379 68.699-37.055 107.81v119.95s-43.219-5.4141-36.469 47.273c6.0234 46.992 20.648 78.938 50.555 96.797 7.0625 4.2695 12.074 11.238 13.875 19.289 4.125 17.93 15.281 49.828 44.344 70.312v101.16c0.074219 22.957-8.5586 45.086-24.164 61.922-27.453 29.566-61.516 52.215-99.398 66.094h466.1c-37.883-13.879-71.945-36.527-99.398-66.094zm-201.56-325.62c-20.25 2.3438-39.375-18.562-42.75-46.875s10.359-53.156 30.609-55.57 39.398 18.586 42.75 46.875c3.3516 28.289-10.312 53.18-30.586 55.57zm135.66 0c-20.273-2.3438-33.961-27.281-30.609-55.547 3.3516-28.266 22.5-49.219 42.75-46.875s33.961 27.281 30.609 55.57c-3.3516 28.289-22.477 49.266-42.727 46.852z"/>
  <path d="m521.06 89.062c-14.508-3.4297-29.77-1.4648-42.938 5.5312-66.75 34.172-133.59 12.961-172.1-5.9297-26.383-12.879-55.367-19.543-84.727-19.477h-6.3047c-5.625-0.054688-11.227 0.73438-16.617 2.3438-4.1523 1.0898-8 3.1211-11.25 5.9297-5.2383 4.4609-9.125 10.297-11.223 16.848-2.1016 6.5508-2.3281 13.559-0.66016 20.23 25.5 103.57 82.289 155.3 116.72 178.12 13.547 8.9766 31.852 7.9453 43.219-3.6562 6.6133-6.7305 10.07-15.945 9.5234-25.367-0.55078-9.418-5.0547-18.168-12.406-24.086-39.516-32.016-63.586-78.047-64.242-79.242-2.707-5.1758-2.5-11.395 0.55078-16.379 3.0508-4.9805 8.4922-7.9961 14.336-7.9414 5.8398 0.058593 11.223 3.1797 14.176 8.2188 7.457 12.422 16.184 24.039 26.039 34.664 5.6562 6.1133 13.066 10.328 21.211 12.07 19 4.1719 38.445 5.9766 57.891 5.3672 5.1641-0.13672 9.5703-3.7695 10.688-8.8125 0.90625-3.9883 1.5625-8.0273 1.9688-12.094 0.38672-5.9219 3.8984-11.184 9.2188-13.812 5.3203-2.625 11.637-2.2148 16.57 1.0781s7.7383 8.9688 7.3516 14.891c0 0.60938 2.4844 43.383-43.195 110.95-10.641 15.703-11.719 35.906 0 50.812 5.7344 7.25 13.738 12.367 22.73 14.52 8.9883 2.1562 18.441 1.2266 26.84-2.6367 92.438-42.328 109.17-144.45 110.65-203.91 0.33594-13.258-3.832-26.234-11.828-36.812-7.9961-10.582-19.344-18.133-32.188-21.43z"/>
  <path d="m153.33 189.38c6.8906 10.078 16.664 23.906 26.742 36.469 1.9688 2.5078 2.832 5.707 2.3906 8.8672-0.44141 3.1562-2.1523 5.9961-4.7344 7.8672-7.7578 5.8828-10.734 19.031 1.6875 39.539 13.078 21.562 40.406 35.391 62.461 44.227 8.0156 3.1133 14.32 9.5078 17.324 17.566 3.0078 8.0586 2.4258 17.02-1.5977 24.621l-0.60937 1.0781c-3.4766 5.8906-8.8359 10.438-15.215 12.914-6.375 2.4727-13.402 2.7305-19.941 0.72656-28.125-8.4141-92.531-32.461-120.94-101.09-24.75-59.719 3.6562-87.82 22.969-99.352 4.8281-2.8516 10.555-3.7578 16.027-2.5391 5.4688 1.2188 10.273 4.4727 13.434 9.1016z"/>
  <path d="m104.53 366.23c9.375 4.2656 22.453 9.9609 35.297 14.672 2.4883 0.94141 4.4375 2.9219 5.3398 5.4219 0.90234 2.5039 0.66406 5.2734-0.65234 7.5859-3.7734 7.5703-0.9375 18.258 16.898 27.633 18.75 9.8672 45.586 8.0156 66.352 4.875 15.656-2.3438 29.508 8.5078 28.922 23.438v1.0312c-0.75 11.719-10.031 21.984-22.195 24.914-25.383 6.0938-85.266 16.523-134.58-20.508-42.867-32.203-31.688-64.57-21.094-81.141 2.6602-4.1406 6.7031-7.2109 11.406-8.6602 4.707-1.4492 9.7734-1.1875 14.305 0.73828z"/>
  <path d="m146.55 517.17c19.172 3.4023 38.832 2.9883 57.844-1.2188 4.4922-0.98047 9.1797 0.34766 12.492 3.5391 5.0391 4.9453 14.789 10.453 30.211 2.9766 9.6211-5.0352 18.16-11.918 25.125-20.25 4.7891-5.5391 11.395-9.1875 18.629-10.301 7.2383-1.1133 14.633 0.38672 20.863 4.2305 7.4844 4.6055 12.629 12.199 14.137 20.855 1.5078 8.6562-0.77344 17.539-6.2617 24.402-14.391 17.742-36.656 39.07-65.977 49.219-48.938 16.992-103.12-9.8906-115.69-60.141-0.30469-1.1719-0.58594-2.3438-0.84375-3.6094-0.5625-2.6641 0.24219-5.4336 2.1445-7.3789 1.8984-1.9492 4.6484-2.8203 7.3242-2.3242z"/>
  <path d="m678.94 89.062c14.508-3.4297 29.77-1.4648 42.938 5.5312 66.75 34.172 133.59 12.961 172.1-5.9297 26.383-12.879 55.367-19.543 84.727-19.477h6.2109c5.625-0.054688 11.227 0.73438 16.617 2.3438 4.1523 1.0898 8 3.1211 11.25 5.9297 5.2383 4.4609 9.125 10.297 11.223 16.848 2.1016 6.5508 2.3281 13.559 0.66016 20.23-25.5 103.57-82.289 155.3-116.72 178.12-13.547 8.9766-31.852 7.9453-43.219-3.6562-6.6133-6.7305-10.07-15.945-9.5234-25.367 0.55078-9.418 5.0547-18.168 12.406-24.086 39.516-32.016 63.586-78.047 64.242-79.242 2.707-5.1758 2.5-11.395-0.55078-16.379-3.0508-4.9805-8.4922-7.9961-14.336-7.9414-5.8398 0.058593-11.223 3.1797-14.176 8.2188-7.457 12.422-16.184 24.039-26.039 34.664-5.6562 6.1133-13.066 10.328-21.211 12.07-19 4.1719-38.445 5.9766-57.891 5.3672-5.1289-0.17969-9.4844-3.8047-10.594-8.8125-0.90625-3.9883-1.5625-8.0273-1.9688-12.094-0.38672-5.9219-3.8984-11.184-9.2188-13.812-5.3203-2.625-11.637-2.2148-16.57 1.0781s-7.7383 8.9688-7.3516 14.891c0 0.60938-2.4844 43.383 43.195 110.95 10.641 15.703 11.719 35.906 0 50.812-5.7344 7.25-13.738 12.367-22.73 14.52-8.9883 2.1562-18.441 1.2266-26.84-2.6367-92.438-42.328-109.17-144.45-110.65-203.91-0.33594-13.258 3.832-26.234 11.828-36.812 7.9961-10.582 19.344-18.133 32.188-21.43z"/>
  <path d="m1046.7 189.38c-6.8906 10.078-16.664 23.883-26.742 36.469-1.9688 2.5078-2.832 5.707-2.3906 8.8672 0.44141 3.1562 2.1523 5.9961 4.7344 7.8672 7.7578 5.8828 10.734 19.031-1.6875 39.539-13.078 21.562-40.406 35.391-62.461 44.227-8.0156 3.1133-14.32 9.5078-17.324 17.566-3.0078 8.0586-2.4258 17.02 1.5977 24.621l0.60937 1.0781c3.4766 5.8906 8.8359 10.438 15.215 12.914 6.375 2.4727 13.402 2.7305 19.941 0.72656 28.125-8.4141 92.531-32.461 120.94-101.09 24.727-59.672-3.6797-87.773-22.992-99.305-4.8203-2.8477-10.539-3.7578-16.004-2.5508-5.4648 1.2109-10.266 4.4492-13.434 9.0664z"/>
  <path d="m1095.5 366.23c-9.375 4.2656-22.453 9.9609-35.297 14.672-2.4883 0.94141-4.4375 2.9219-5.3398 5.4219-0.90234 2.5039-0.66406 5.2734 0.65234 7.5859 3.7734 7.5703 0.9375 18.258-16.898 27.633-18.75 9.8672-45.586 8.0156-66.352 4.875-15.656-2.3438-29.508 8.5078-28.922 23.438v1.0312c0.75 11.719 10.031 21.984 22.195 24.914 25.383 6.0938 85.266 16.523 134.58-20.508 42.867-32.203 31.688-64.57 21.094-81.141-2.6602-4.1406-6.7031-7.2109-11.406-8.6602-4.707-1.4492-9.7734-1.1875-14.305 0.73828z"/>
  <path d="m1053.4 517.17c-19.172 3.4023-38.832 2.9883-57.844-1.2188-4.4922-0.98047-9.1797 0.34766-12.492 3.5391-5.0391 4.9453-14.789 10.453-30.211 2.9766-9.6211-5.0352-18.16-11.918-25.125-20.25-4.7891-5.5391-11.395-9.1875-18.629-10.301-7.2383-1.1133-14.633 0.38672-20.863 4.2305-7.4844 4.6055-12.629 12.199-14.137 20.855-1.5078 8.6562 0.77344 17.539 6.2617 24.402 14.391 17.742 36.656 39.07 65.977 49.219 48.938 16.992 103.12-9.8906 115.69-60.141 0.30469-1.1719 0.58594-2.3438 0.84375-3.6094 0.5625-2.6641-0.24219-5.4336-2.1445-7.3789-1.8984-1.9492-4.6484-2.8203-7.3242-2.3242z"/>
 </g>
</svg>
