<?xml version="1.0" encoding="UTF-8" standalone="no"?>
<!DOCTYPE svg PUBLIC "-//W3C//DTD SVG 1.1//EN" "http://www.w3.org/Graphics/SVG/1.1/DTD/svg11.dtd">
<svg width="100%" height="100%" viewBox="0 0 508 512" version="1.1" xmlns="http://www.w3.org/2000/svg" xmlns:xlink="http://www.w3.org/1999/xlink" xml:space="preserve" xmlns:serif="http://www.serif.com/" style="fill-rule:evenodd;clip-rule:evenodd;stroke-linejoin:round;stroke-miterlimit:2;">
    <g transform="matrix(1,0,0,1,-73.393,-69.1771)">
        <g transform="matrix(0.48222,0,0,0.48222,38.0015,35.8186)">
            <path d="M179.65,481.88C194.111,458.255 208.994,434.232 224.181,410.372C226.287,407.095 226.669,403.001 225.204,399.395C223.74,395.786 220.615,393.114 216.822,392.231C178.056,384.168 136.291,375.567 107.112,369.778C103.924,369.243 100.721,370.637 98.948,373.34C97.17,376.04 97.155,379.532 98.908,382.247L160.267,481.903C162.33,485.282 166.006,487.344 169.967,487.34C173.924,487.336 177.596,485.266 179.65,481.879L179.65,481.88Z" style="fill:white;fill-rule:nonzero;"/>
            <path d="M868.99,644.25C881.572,682.754 892.22,721.867 900.888,761.44C901.911,766.663 906.326,770.542 911.638,770.881C916.947,771.221 921.822,767.94 923.505,762.893L957.443,665.205C932.505,659.885 901.498,652.783 868.99,644.252L868.99,644.25Z" style="fill:white;fill-rule:nonzero;"/>
            <path d="M1059.6,379.24C1054.65,382.787 1049.16,385.502 1043.33,387.279C1025.95,392.494 1007.13,389.361 992.381,378.795C952.772,350.67 931.443,305.154 934.139,254.135C935.826,221.58 961.912,196.057 993.553,196.057C995.905,196.057 998.252,196.197 1000.58,196.479C1010.31,197.674 1020.53,198.635 1030.75,199.408C1033.57,199.553 1036.28,198.369 1038.1,196.209C1039.9,194.049 1040.6,191.162 1039.96,188.416C1032.69,154.643 1025.9,127.478 1021.21,110.299C1019.5,103.83 1016.08,97.947 1011.3,93.272C1006.51,88.596 1000.55,85.303 994.045,83.745C868.585,54.19 734.755,78.753 734.755,78.753C659.872,100.526 587.095,126.191 534.275,145.948C531.084,147.213 528.568,149.76 527.338,152.967C526.111,156.174 526.279,159.748 527.806,162.823C541.935,191.343 551.005,222.093 554.618,253.714C559.306,297.753 536.477,339.776 497.946,358.314C480.2,366.732 460.774,371.017 441.134,370.853C436.357,370.978 431.58,370.751 426.837,370.173C385.446,364.103 369.696,327.235 363.931,305.462C363.342,302.704 361.162,300.567 358.392,300.032C355.627,299.497 352.806,300.665 351.228,303.001C246.388,452.771 120.838,672.121 84.038,737.321C77.042,749.731 73.378,763.739 73.397,777.985L73.397,1094.54C73.253,1104.04 76.889,1113.22 83.51,1120.04C90.127,1126.87 99.186,1130.79 108.694,1130.93L557.804,1130.93C566.21,1130.81 574.214,1127.3 580.007,1121.21C585.8,1115.11 588.898,1106.94 588.601,1098.54C587.874,1061.65 587.382,1023.54 587.054,985.293C587.144,981.008 585.605,976.848 582.753,973.648C579.902,970.449 575.945,968.449 571.675,968.047C567.41,967.648 563.148,968.875 559.749,971.488L559.445,971.723C547.679,981.183 533.66,987.426 518.757,989.84C492.667,993.847 466.21,985.375 447.296,966.965C405.249,926.418 388.538,875.981 386.757,870.356C386.757,869.981 386.546,869.629 386.428,869.254C360.295,778.926 397.866,719.914 422.592,692.774C438.725,674.962 461.608,664.754 485.639,664.649C493.491,664.653 501.299,665.754 508.842,667.93C526.912,673.11 547.373,680.024 568.233,687.641C572.71,689.211 577.671,688.497 581.522,685.727C585.37,682.958 587.628,678.485 587.569,673.743C588.015,628.298 588.53,591.712 588.882,569.023C589.14,551.218 593.429,533.703 601.421,517.789C637.816,446.41 686.757,382.169 745.911,328.129C749.462,324.817 752.009,320.57 753.251,315.875C754.493,311.184 754.387,306.234 752.942,301.598C743.075,270.028 735.551,250.34 735.434,250.036C733.465,245.009 733.532,239.415 735.618,234.434C737.704,229.454 741.649,225.485 746.614,223.364C751.555,221.415 757.071,221.536 761.923,223.7C766.774,225.864 770.548,229.891 772.396,234.872C772.724,235.716 775.982,244.247 780.88,258.567C792.735,293.2 806.446,327.169 821.942,360.337L855.692,432.478C860.512,442.638 861.106,454.298 857.34,464.896C853.575,475.494 845.758,484.166 835.606,489.009L766.911,520.603C748.981,528.83 749.802,555.197 768.13,562.439C845.966,593.212 956.92,616.767 1002.51,625.72C1008.71,626.911 1015.13,626.204 1020.92,623.697C1026.71,621.189 1031.62,616.994 1034.99,611.658L1055.57,579.853C1064.48,566.103 1069.81,550.345 1071.09,534.009C1074.53,484.103 1074.07,434.009 1069.7,384.169C1069.56,381.868 1068.2,379.821 1066.13,378.801C1064.06,377.786 1061.61,377.954 1059.7,379.247L1059.6,379.24Z" style="fill:white;fill-rule:nonzero;"/>
            <path d="M496.48,713.98C489.429,711.976 481.957,711.992 474.914,714.019C467.871,716.05 461.539,720.015 456.637,725.464C437.09,746.956 412.106,789.448 431.16,855.444C431.16,855.444 444.73,898.569 479.207,931.827C485.973,938.378 494.895,942.237 504.301,942.69C513.707,943.143 522.957,940.155 530.324,934.288C567.965,904.757 641.704,845.741 685.924,802.918C688.451,800.437 689.6,796.875 688.99,793.387C688.381,789.898 686.096,786.933 682.877,785.457C648.096,770.246 557.277,731.41 496.477,713.973L496.48,713.98Z" style="fill:white;fill-rule:nonzero;"/>
            <path d="M397.59,86.086L407.785,297.026C408,303.362 410.484,309.409 414.785,314.065C419.09,318.721 424.922,321.674 431.223,322.385C447.328,324.198 463.625,321.581 478.356,314.815C499.051,304.854 510.911,282.237 508.45,258.823C504.583,221.956 485.762,155.533 409.075,80.703C407.075,78.672 404.009,78.125 401.427,79.336C398.845,80.547 397.305,83.254 397.591,86.094L397.59,86.086Z" style="fill:white;fill-rule:nonzero;"/>
            <path d="M1120.3,250.62C1094.8,250.62 1040.94,249.706 995.21,244.104C991.589,243.706 987.964,244.831 985.214,247.218C982.46,249.601 980.823,253.026 980.702,256.667C979.671,276.847 983.327,314.019 1018.9,339.331C1023.28,342.515 1029.19,342.593 1033.65,339.518C1049.68,328.385 1090.18,298.901 1124.91,261.823C1126.7,259.921 1127.21,257.148 1126.21,254.737C1125.21,252.323 1122.9,250.714 1120.3,250.62L1120.3,250.62Z" style="fill:white;fill-rule:nonzero;"/>
        </g>
    </g>
</svg>
