<?xml version="1.0" encoding="UTF-8" standalone="no"?>
<svg xmlns:xlink="http://www.w3.org/1999/xlink" height="117.85px" width="76.35px" xmlns="http://www.w3.org/2000/svg">
  <g transform="matrix(1.0, 0.0, 0.0, 1.0, -14.45, -10.05)">
    <path d="M41.15 35.0 Q38.45 18.95 52.65 10.05 51.35 16.3 65.2 35.95 79.05 55.55 71.0 73.6 83.35 65.05 80.45 42.2 103.3 81.8 75.6 99.6 47.95 117.3 47.7 127.9 38.65 108.75 48.05 95.05 57.35 81.4 54.15 67.75 47.0 79.9 35.55 89.45 28.0 95.7 31.4 105.7 7.35 83.1 17.45 67.35 27.85 55.15 33.45 42.2 39.45 50.25 37.4 59.8 48.7 52.75 41.15 35.0" fill="#ffffff" fill-rule="evenodd" stroke="none"/>
  </g>
</svg>
