<?xml version="1.0" encoding="UTF-8"?>
<svg width="1200pt" height="1200pt" version="1.1" viewBox="0 0 1200 1200" xmlns="http://www.w3.org/2000/svg">
 <g fill="#fff">
  <path d="m807.42 717.19c-9.4844-4.0703-19.965-5.2344-30.113-3.3438-10.145 1.8906-19.504 6.75-26.887 13.961-18.445 17.484-42.914 51.914-49.406 114.56-0.45312 4.4648 2.0469 8.7031 6.1758 10.461s8.9219 0.625 11.824-2.7969c8.4375-10.312 18.922-18.754 30.797-24.797 5.1602-2.3672 10.629-4 16.242-4.8516 16.406-2.7188 63.703-14.578 65.297-60.445 0.84375-24.656-10.758-36.844-23.93-42.75z"/>
  <path d="m987.38 486.68s-5.3906-57.281-36.445-92.156c-3.5859-4.0352-8.4258-6.7344-13.742-7.668-5.3164-0.93359-10.789-0.039063-15.531 2.5352-26.156 13.988-53.883 24.824-82.594 32.273-5.1797 1.3711-9.7734 4.3828-13.105 8.582-3.3281 4.1992-5.207 9.3594-5.3633 14.715-0.77344 21.91-5.4727 43.5-13.875 63.75-2.6133 6.5-7.8555 11.594-14.43 14.016-6.5742 2.418-13.867 1.9414-20.07-1.3125-5.4453-3.0078-9.5977-7.9102-11.664-13.781-2.0664-5.8672-1.9023-12.293 0.46094-18.047 35.438-89.062-33.844-136.66-36.82-138.66-5.8164-3.8828-9.7266-10.039-10.77-16.953-1.043-6.9141 0.875-13.949 5.2852-19.375 4.0469-4.7656 9.7148-7.8672 15.91-8.707 6.1953-0.83984 12.484 0.64453 17.652 4.1602 19.426 13.555 35.57 31.285 47.25 51.891 2.7422 4.7695 6.9961 8.4922 12.09 10.582 5.0898 2.0859 10.73 2.4219 16.035 0.94922 24.797-6.5352 48.738-15.977 71.32-28.125 13.188-7.3008 24.18-18 31.84-30.98 7.6602-12.98 11.711-27.773 11.73-42.848 0-53.391-14.812-117.63-72.492-167.44-22.156-19.859-47.516-35.828-75-47.227-29.969-12.145-62.766-15.562-94.598-9.8516-31.828 5.707-61.395 20.309-85.273 42.113-23.883 21.805-41.102 49.926-49.676 81.105-9.0469 35.344-11.504 72.051-7.2422 108.28 1.9531 17.176 5.3398 34.156 10.125 50.766 4.5391 16.523 7.75 33.379 9.6094 50.414 1.2891 10.629-1.5625 21.348-7.9688 29.93-5.5078 7.1484-10.758 8.4609-15.727 8.4609-6.2773-0.003906-12.316-2.3867-16.902-6.6719-4.5859-4.2852-7.375-10.152-7.8008-16.414-1.2344-17.73-4.2422-35.297-8.9766-52.43v-0.16406c-3.0312-10.973-9.7422-20.574-19.008-27.188-39.93-28.301-89.145-40.32-137.62-33.609-2.1328 0.28125-4.2422 0.60938-6.3047 0.9375-135 21.938-148.38 211.55-18.75 255.23 40.125 13.523 91.406 20.812 156.05 14.273 29.461-2.9766 58.312 7.5469 80.93 24.398 3.8594 2.8867 7.5312 6.0195 10.992 9.375 4.9766 4.793 7.7891 11.406 7.7891 18.316 0 6.9102-2.8125 13.523-7.7891 18.316-4.707 4.3047-10.895 6.625-17.27 6.4883-6.3789-0.14062-12.457-2.7344-16.973-7.2383-1.9648-2.0234-4.1133-3.8594-6.4219-5.4844-5.0508-3.4375-10.477-6.2891-16.172-8.5078-13.383-5.2734-28.664 8.2969-22.148 21.094 31.992 63.047 31.523 237.73 31.523 251.32v62.859s-73.781-32.812-112.03 24.586c0 0-16.406 35.531-2.7188 65.625 0 0-54.656 60.117-164.06 80.297-23.789 4.3828-16.266 42.188 7.9219 42.188h627.07c25.781 0 33.281-34.969 9.9141-45.633-19.605-8.8477-38.539-19.117-56.648-30.727-26.969-17.309-50.047-40.043-67.758-66.75-13.34-20.863-33.359-36.586-56.789-44.602-8.25-2.8438-17.18-3.0742-25.566-0.66016-8.3867 2.4102-15.828 7.3477-21.309 14.137-8.9766 11.484-16.617 28.641-17.367 53.906-0.19531 6.4336-2.8867 12.543-7.5078 17.027-4.6211 4.4844-10.805 6.9922-17.242 6.9961h-0.75c-6.5391-0.26172-12.715-3.0703-17.207-7.8281-4.4961-4.7578-6.9492-11.082-6.8398-17.625 0.98438-33.141 10.266-57.633 22.359-75.633 3.1719-4.6289 4.6719-10.203 4.2422-15.797-2.7422-32.367-4.5234-88.688 7.9219-145.31 19.336-87.727 88.688-156.75 177-173.32 2.1094-0.39844 4.2188-0.77344 6.375-1.1016 22.703-3.457 44.848-9.9062 65.859-19.172 43.195-19.383 99.961-56.812 93.07-116.91z"/>
  <path d="m251.84 276.56c27.047-22.43 61.289-38.133 105.47-43.945 41.219-5.6992 83.215-0.60156 121.88 14.789 6.1211 2.4727 13.066 1.793 18.594-1.8203 5.5273-3.6094 8.9375-9.6953 9.1328-16.297 0.87891-29.293 5.7344-58.332 14.438-86.32 1.5859-4.9023 1.2188-10.227-1.0273-14.863-2.2422-4.6367-6.1914-8.2305-11.02-10.027-48.148-17.805-100.68-19.992-150.14-6.2578-52.91 14.301-98.027 48.922-125.53 96.328-7.4297 12.922-13.871 26.391-19.266 40.289-0.21094 0.53906-0.42188 1.0781-0.60938 1.6172-8.8828 23.016 19.031 42.211 38.086 26.508z"/>
  <path d="m423.98 732.77c18.125 5.4258 35.238 13.793 50.648 24.773 3.8438 2.7188 8.8945 3.0352 13.043 0.80859 4.1523-2.2227 6.6875-6.6016 6.5508-11.309-2.4609-81.586-38.859-121.69-60.938-138.59-7.2383-5.5312-15.84-9.0078-24.891-10.055h-0.44531c-13.539-1.5938-27.156 2.2695-37.836 10.742-10.68 8.4727-17.543 20.852-19.07 34.398-1.793 16.895 1.9766 33.91 10.73 48.473 8.7578 14.559 22.023 25.863 37.785 32.199 7.1484 2.9297 15.281 5.8125 24.422 8.5547z"/>
 </g>
</svg>
