<?xml version="1.0" encoding="UTF-8"?>
<svg width="1200pt" height="1200pt" version="1.1" viewBox="0 0 1200 1200" xmlns="http://www.w3.org/2000/svg">
 <g fill="#fff">
  <path d="m1038.8 594.4c-26.953-17.344-55.805-39.094-72.492-52.008-8.8984-6.9648-14.086-17.645-14.062-28.945v-25.781c-0.003906-10.195 4.2422-19.93 11.719-26.859 18.828-17.848 35.891-37.473 50.953-58.594 3.9531-5.4766 8.7461-10.293 14.203-14.273 28.805-20.953 28.805-44.672 28.805-44.672 0.72656-53.32-35.156-38.227-35.156-38.227 16.031-192.54-122.79-193.9-122.79-193.9s-138.91 1.4531-122.74 193.88c0 0-35.977-15.094-35.156 38.227 0 0 0 23.695 28.781 44.672 5.4648 3.9805 10.266 8.7969 14.227 14.273 15.062 21.121 32.125 40.746 50.953 58.594 7.4766 6.9297 11.723 16.664 11.719 26.859v25.781c0.023438 11.293-5.1641 21.965-14.062 28.922-16.688 12.938-45.539 34.688-72.516 52.031 0 0-86.719 59.25-86.719 130.97v367.97c0 9.1758 3.6445 17.973 10.133 24.461 6.4883 6.4883 15.285 10.133 24.461 10.133h382.03c9.1758 0 17.973-3.6445 24.461-10.133 6.4883-6.4883 10.133-15.285 10.133-24.461v-367.95c-0.21094-71.719-86.883-130.97-86.883-130.97zm-191.02-259.85c-11.719 0-21.281-11.906-21.281-26.578s9.5391-26.602 21.281-26.602c11.742 0 21.281 11.906 21.281 26.602s-9.5391 26.578-21.281 26.578zm82.945-26.578c0-14.695 9.5391-26.602 21.281-26.602s21.258 11.906 21.258 26.602-9.5156 26.578-21.258 26.578-21.281-11.906-21.281-26.578z"/>
  <path d="m685.78 404.46c-19.312-26.227-35.625-50.93-42.188-83.461-7.1953-36.188-1.6875-73.453 9.1406-108.33 6.0039-18.645 13.52-36.766 22.477-54.188 9.1641-17.859 20.039-34.266 25.312-53.648 2.8359-10.523-10.102-22.945-20.086-15.445-27.281 20.508-44.531 54.539-58.102 85.266-14.273 32.25-23.719 65.625-25.57 100.9-1.9688 33.691 3.8789 67.379 17.086 98.438 12.891 29.719 36.773 51.961 51.023 80.672 31.359 63.281-56.906 113.7-87.211 157.76-41.227 59.977-30.234 144.49-30.469 213.28l-1.1719 278.41c-0.14063 29.906 46.312 29.953 46.477 0 0.46875-79.547 0.92969-159.09 1.3828-238.64 0.23438-39.469 0.35156-78.938 0.70313-118.41 0.30469-33.352 0.67969-68.836 16.406-99.141 15.469-29.648 42.914-50.414 64.57-75.211 20.672-23.695 37.781-51.352 40.805-83.273 3.0234-31.922-12.164-59.977-30.586-84.984z"/>
  <path d="m532.71 143.58c10.172-14.062 21.562-26.227 25.617-43.406 0.94531-3.7188-0.13672-7.6562-2.8516-10.367-2.7109-2.7148-6.6484-3.7969-10.367-2.8516-28.828 7.5234-50.25 39.023-66.656 62.367-19.16 26.953-33.023 57.305-40.852 89.438-7.6875 33.5-7.5 68.324 0.53906 101.74 8.0625 33.914 27.047 62.367 38.883 94.688 26.531 72.398-45.773 129.66-70.477 191.67-27.047 67.5-19.312 145.17-18.492 216.26l1.5469 130.62c0.25781 22.852 0.46875 45.703 0.79688 68.578 0.25781 18.328-2.5312 41.953 4.6875 59.555 1.2578 6.9805 3.3203 13.789 6.1406 20.297 5.1328 11.391 24.188 10.898 29.461 0 13.453-27.82 9.1875-66.375 9.6094-96.656 0.21875-16.312-0.054687-32.617-0.82031-48.914-0.51562-11.016-0.53906-20.977-3.3281-30.352-0.23438-21.312-0.46094-42.625-0.67969-63.938-0.39844-38.578-1.0547-77.156-1.1719-115.73 0-33.258 0.42188-66.961 8.6719-99.352 17.133-67.312 77.531-115.01 85.312-185.74 3.8438-34.922-9.375-65.789-24.703-96.352-15.047-30.164-26.812-60.938-27.328-95.109-0.51562-35.484 10.617-70.102 27.539-100.97 8.707-15.73 18.367-30.914 28.922-45.469z"/>
  <path d="m311.84 206.74c3.8086-19.023 9.4766-37.629 16.922-55.547 7.875-18.492 21.094-35.648 21.094-56.438 0-7.8281-8.1094-14.789-15.961-12.164-35.156 11.719-52.688 64.406-61.875 96.656-11.02 38.727-14.148 79.27-9.2109 119.23 5.5781 44.391 23.602 84.094 37.5 126.21 12.398 37.617 20.508 80.484-0.91406 116.46-15.727 26.414 25.477 50.414 41.156 24.047 48.188-81.117-5.0391-164.53-25.781-244.34-9.6836-37.316-10.684-76.355-2.9297-114.12z"/>
  <path d="m299.58 640.22c-2.8594-4.4297-7.5234-9.1641-12.961-9.9844-3.8516-0.92188-7.8672-0.92188-11.719 0-2.4453 0.36328-4.7891 1.2266-6.8906 2.5312-4.8594 2.9609-8.4414 7.6211-10.055 13.078-1.2188 4.3125-2.0742 8.7188-2.5547 13.172 0.23437 5.9141 2.5703 11.547 6.5859 15.891 3.5312 3.375 8.0469 5.5352 12.891 6.1641 4.9453 0.81641 10.02-0.11719 14.344-2.6484 4.9375-3.1133 8.6016-7.8828 10.336-13.453 0.53906-1.6172 1.0312-3.2109 1.5-4.8516 0.95703-2.2695 1.4531-4.707 1.4531-7.1719 0.41016-4.4453-0.61719-8.9062-2.9297-12.727z"/>
  <path d="m287.18 927.94c0-30.703-0.30469-61.359-1.125-92.062-0.39844-15.234-0.32813-30.469-2.5547-45.609-1.9453-13.336-1.6406-29.484-12.562-38.602-4.8242-4.5234-12.332-4.5234-17.156 0-10.43 8.6953-10.219 23.016-12.188 35.742-2.3438 15-2.3438 30.047-2.8594 45.188-0.84375 31.805-1.1719 63.539-1.2188 95.344v92.086c0 29.25-3.3984 63.281 13.359 89.062 2.4766 4.0312 6.8711 6.4883 11.602 6.4883 4.7305 0 9.125-2.457 11.602-6.4883 16.195-24.961 13.383-57.375 13.359-85.711z"/>
  <path d="m156.52 68.766c-16.102 7.2891-26.391 26.32-34.148 41.508-8.375 16.645-14.754 34.219-19.008 52.359-6.8438 28.664 37.5 40.898 44.156 12.188 3.4023-15.246 8.4961-30.062 15.188-44.18 6.5391-13.594 17.602-26.648 20.109-41.578 2.6016-16.125-11.531-26.953-26.297-20.297z"/>
  <path d="m95.156 277.9c1.8594 3.1953 4.5156 5.8516 7.7109 7.7109 3.2969 1.9102 7.0391 2.918 10.852 2.918s7.5547-1.0078 10.852-2.918c2.1211-1.1914 4.0742-2.6562 5.8125-4.3594 1.4727-1.543 2.7812-3.2305 3.9141-5.0391 0.20312-0.32422 0.38281-0.66016 0.53906-1.0078 0.94141-1.8438 1.7227-3.7656 2.3438-5.7422 0.27734-1.2266 0.47266-2.4727 0.58594-3.7266 0.5-3.4258 0.36719-6.9141-0.39844-10.289-0.60156-2.7227-1.9023-5.2422-3.7734-7.3125-1.4805-2.2891-3.5195-4.1602-5.9297-5.4375l-5.0625-2.1328c-2.7266-0.88281-5.6406-1.0117-8.4375-0.375-1.8672 0-3.7031 0.49219-5.3203 1.4297-1.9805 0.64062-3.8125 1.668-5.3906 3.0234l-0.67969 0.30469c-2.4023 1.2852-4.4453 3.1523-5.9297 5.4375-1.8477 2.0391-3.1445 4.5156-3.7734 7.1953-0.82422 3.0508-1.1172 6.2227-0.86719 9.375-0.027344 3.8477 0.99609 7.6328 2.9531 10.945z"/>
  <path d="m114.4 716.41c-7.3359-15.422-27.328-8.2969-32.461 4.2422-8.3672 20.438-5.3672 47.789-5.5078 69.586-0.14063 23.766-0.51563 47.555-0.5625 71.344 0 47.555-2.1328 95.227-1.0312 142.66 0.70312 30.469 44.109 29.578 46.734 0 4.2891-48.375 3.9844-97.289 4.0781-145.92 0-23.789-0.67969-47.555-1.4531-71.344-0.77344-22.922 0.16406-49.547-9.7969-70.57z"/>
  <path d="m118.48 1090.1c-0.55469-2.6484-1.5859-5.1758-3.0469-7.4531-3.4414-5.207-9.2031-8.418-15.445-8.6016-0.52344-0.035156-1.0469-0.035156-1.5703 0-8.5547 0.375-17.883 6-19.688 15l-0.28125 1.0547c-0.73047 1.3867-1.2812 2.8594-1.6406 4.3828-0.97656 5.4102-1.2539 10.926-0.82031 16.406-0.375 11.719 10.594 22.992 22.453 22.453 5.918-0.12109 11.559-2.5234 15.746-6.707 4.1836-4.1875 6.5859-9.8281 6.707-15.746 0.43359-5.4805 0.15625-10.996-0.82031-16.406-0.33594-1.5234-0.875-2.9961-1.5938-4.3828z"/>
  <path d="m131.44 350.37c-8.7188-6.3047-22.242 2.1328-21.633 12.422 1.2422 21.094 11.039 41.227 13.453 62.414 2.3633 22.875 0.10156 45.988-6.6562 67.969-6.7031 22.547-16.008 44.18-22.031 66.938-5.8594 22.195-15.492 53.367-8.5312 75.75 5.3672 17.18 31.289 22.875 40.359 5.2734 6.7031-12.984 6.6094-26.953 9.1406-41.133 2.4844-14.07 5.7461-27.988 9.7734-41.695 7.0312-23.977 17.156-47.133 21.469-71.836 7.5469-42.516 2.9531-108.35-35.344-136.1z"/>
 </g>
</svg>
