<?xml version="1.0" encoding="UTF-8" standalone="no"?>
<!DOCTYPE svg PUBLIC "-//W3C//DTD SVG 1.1//EN" "http://www.w3.org/Graphics/SVG/1.1/DTD/svg11.dtd">
<svg width="100%" height="100%" viewBox="0 0 512 512" version="1.1" xmlns="http://www.w3.org/2000/svg" xmlns:xlink="http://www.w3.org/1999/xlink" xml:space="preserve" xmlns:serif="http://www.serif.com/" style="fill-rule:evenodd;clip-rule:evenodd;stroke-linejoin:round;stroke-miterlimit:2;">
    <g transform="matrix(1,0,0,1,-75,-75)">
        <g transform="matrix(0.487596,0,0,0.487596,38.4303,38.4303)">
            <path d="M1098.8,562.5L802.55,472.5C765.05,461.25 738.8,435 727.55,397.5L637.55,101.25C630.05,86.25 615.05,75 600.05,75C585.05,75 570.05,86.25 562.55,101.25L472.55,397.5C461.3,435 435.05,461.25 397.55,472.5L101.3,562.5C86.3,570 75.05,585 75.05,600C75.05,615 86.3,630 101.3,637.5L397.55,727.5C435.05,738.75 461.3,765 472.55,802.5L562.55,1098.75C566.3,1113.75 581.3,1125 600.05,1125C618.8,1125 630.05,1113.75 637.55,1098.75L727.55,802.5C738.8,765 765.05,738.75 802.55,727.5L1098.8,637.5C1113.8,633.75 1125.05,618.75 1125.05,600C1125.05,581.25 1113.8,570 1098.8,562.5Z" style="fill:white;fill-rule:nonzero;"/>
            <path d="M375,412.5C363.75,412.5 356.25,408.75 348.75,401.25L86.25,138.75C71.25,123.75 71.25,101.25 86.25,86.25C101.25,71.25 123.75,71.25 138.75,86.25L401.25,348.75C416.25,363.75 416.25,386.25 401.25,401.25C393.75,408.75 386.25,412.5 375,412.5Z" style="fill:white;fill-rule:nonzero;"/>
            <path d="M825,412.5C813.75,412.5 806.25,408.75 798.75,401.25C783.75,386.25 783.75,363.75 798.75,348.75L1061.25,86.25C1076.25,71.25 1098.75,71.25 1113.75,86.25C1128.75,101.25 1128.75,123.75 1113.75,138.75L851.25,401.25C843.75,408.75 836.25,412.5 825,412.5Z" style="fill:white;fill-rule:nonzero;"/>
            <path d="M1087.5,1125C1076.25,1125 1068.75,1121.25 1061.25,1113.75L798.75,851.25C783.75,836.25 783.75,813.75 798.75,798.75C813.75,783.75 836.25,783.75 851.25,798.75L1113.75,1061.25C1128.75,1076.25 1128.75,1098.75 1113.75,1113.75C1106.25,1121.25 1098.75,1125 1087.5,1125Z" style="fill:white;fill-rule:nonzero;"/>
            <path d="M112.5,1125C101.25,1125 93.75,1121.25 86.25,1113.75C71.25,1098.75 71.25,1076.25 86.25,1061.25L348.75,798.75C363.75,783.75 386.25,783.75 401.25,798.75C416.25,813.75 416.25,836.25 401.25,851.25L138.75,1113.75C131.25,1121.25 123.75,1125 112.5,1125Z" style="fill:white;fill-rule:nonzero;"/>
        </g>
    </g>
</svg>
