<?xml version="1.0" encoding="UTF-8" standalone="no"?>
<!DOCTYPE svg PUBLIC "-//W3C//DTD SVG 1.1//EN" "http://www.w3.org/Graphics/SVG/1.1/DTD/svg11.dtd">
<svg width="100%" height="100%" viewBox="0 0 512 510" version="1.1" xmlns="http://www.w3.org/2000/svg" xmlns:xlink="http://www.w3.org/1999/xlink" xml:space="preserve" xmlns:serif="http://www.serif.com/" style="fill-rule:evenodd;clip-rule:evenodd;stroke-linejoin:round;stroke-miterlimit:2;">
    <g transform="matrix(1,0,0,1,-86.1938,-89.0385)">
        <g transform="matrix(0.498254,0,0,0.498254,43.2474,44.6747)">
            <path d="M87.305,778.24L211.315,1053.58C213.354,1058.1 218.065,1060.79 222.991,1060.26C227.917,1059.72 231.944,1056.08 232.972,1051.24L273.144,868.306C274.214,863.384 271.952,858.337 267.565,855.861L103.505,763.447C99.166,760.873 93.654,761.436 89.927,764.838C86.201,768.24 85.138,773.682 87.31,778.236L87.305,778.24Z" style="fill:white;fill-rule:nonzero;"/>
            <path d="M853.43,750L1009.41,750C1013.13,749.996 1016.68,748.449 1019.22,745.723C1021.75,743 1023.03,739.344 1022.77,735.633L995.769,362.183C995.39,357.073 992.129,352.624 987.367,350.726C982.609,348.827 977.179,349.808 973.387,353.253L757.317,549.593C752.903,553.609 751.677,560.062 754.317,565.413L841.411,742.573C843.681,747.132 848.341,750.011 853.434,750.003L853.43,750Z" style="fill:white;fill-rule:nonzero;"/>
            <path d="M698.44,539.18L819.68,435.59C828.567,427.996 835.082,418.004 838.45,406.809C841.817,395.614 841.891,383.688 838.665,372.45L777.727,159.78C776.633,155.96 774.012,152.757 770.477,150.936C766.946,149.112 762.817,148.831 759.067,150.155C755.321,151.479 752.286,154.292 750.68,157.928L658.266,367.018C653.501,377.827 651.969,389.788 653.86,401.448L674.954,530.538C675.516,533.894 677.251,536.941 679.845,539.144C682.442,541.343 685.731,542.554 689.134,542.562C692.536,542.57 695.833,541.374 698.438,539.187L698.44,539.18Z" style="fill:white;fill-rule:nonzero;"/>
            <path d="M306.3,672.07L322.706,570.54C323.8,563.724 324.21,556.813 323.925,549.915L310.05,215.435C309.819,210.083 305.792,205.662 300.487,204.931C295.179,204.201 290.108,207.369 288.44,212.458C248.409,336.418 198.135,482.128 172.05,556.988C170.499,561.441 170.312,566.258 171.515,570.816C172.718,575.375 175.253,579.473 178.8,582.582L288.04,678.676C291.079,681.34 295.322,682.137 299.122,680.762C302.919,679.387 305.669,676.055 306.298,672.067L306.3,672.07Z" style="fill:white;fill-rule:nonzero;"/>
            <path d="M451.52,1003.9L361.895,973.548C358.004,972.138 353.649,973.45 351.18,976.771C348.711,980.095 348.711,984.642 351.184,987.962L435.934,1107.07C437.692,1109.58 440.563,1111.06 443.621,1111.06L491.621,1111.06C494.887,1111.09 497.938,1109.42 499.672,1106.65C501.403,1103.88 501.567,1100.41 500.106,1097.49L457.028,1008.73C455.922,1006.44 453.934,1004.7 451.52,1003.9L451.52,1003.9Z" style="fill:white;fill-rule:nonzero;"/>
            <path d="M840.49,803.23L678.56,1091.51C676.298,1095.54 676.341,1100.47 678.673,1104.46C681.009,1108.45 685.283,1110.91 689.903,1110.92L726.887,1110.92C730.586,1110.92 734.11,1109.34 736.567,1106.58L973.707,842.51C974,842.19 974.273,841.854 974.527,841.502L992.246,817.291C995.137,813.334 995.563,808.084 993.348,803.713C991.133,799.338 986.649,796.581 981.746,796.573L851.836,796.573C847.129,796.569 842.785,799.116 840.492,803.229L840.49,803.23Z" style="fill:white;fill-rule:nonzero;"/>
            <path d="M506.25,1003.4L556.289,1106.52C557.648,1109.3 560.465,1111.06 563.555,1111.07L587.578,1111.07C589.812,1111.07 591.945,1110.14 593.464,1108.5C594.984,1106.86 595.757,1104.67 595.593,1102.44L577.734,842.142C577.5,838.435 574.758,835.369 571.098,834.728C567.437,834.087 563.816,836.036 562.336,839.447L505.617,967.887C500.617,979.246 500.851,992.223 506.25,1003.39L506.25,1003.4Z" style="fill:white;fill-rule:nonzero;"/>
            <path d="M289.08,741.45L182.67,647.981C178.697,644.477 172.963,643.817 168.299,646.329C163.635,648.837 161.029,653.985 161.764,659.231L173.483,743.934C173.995,747.883 176.338,751.36 179.811,753.309L267.866,802.879C271.475,804.93 275.862,805.078 279.604,803.277C283.346,801.476 285.967,797.957 286.616,793.855L293.225,753.074C293.936,748.742 292.37,744.352 289.077,741.449L289.08,741.45Z" style="fill:white;fill-rule:nonzero;"/>
            <path d="M288.68,1014.5L270.657,1096.65C269.837,1100.16 270.673,1103.85 272.93,1106.66C275.184,1109.47 278.61,1111.08 282.212,1111.04L358.595,1111.04C363.044,1111.06 367.13,1108.58 369.169,1104.62C371.204,1100.66 370.852,1095.9 368.251,1092.29L309.892,1010.19C307.181,1006.37 302.474,1004.51 297.884,1005.44C293.294,1006.37 289.684,1009.93 288.681,1014.5L288.68,1014.5Z" style="fill:white;fill-rule:nonzero;"/>
            <path d="M324.33,852.02L324.33,852.536C324.33,852.723 324.33,853.028 324.213,853.286L315.119,894.677C314.338,898.212 314.889,901.907 316.666,905.064C318.447,908.216 321.322,910.603 324.752,911.763L446.632,953.036C450.108,954.219 453.905,954.055 457.269,952.575C460.632,951.098 463.32,948.407 464.796,945.044L538.319,778.634C539.542,775.86 539.878,772.778 539.284,769.809C538.686,766.841 537.19,764.126 534.991,762.04L385.341,619.59C382.743,617.113 379.329,615.672 375.739,615.539C372.153,615.406 368.642,616.59 365.868,618.867C363.095,621.148 361.251,624.363 360.685,627.91L324.33,852.02Z" style="fill:white;fill-rule:nonzero;"/>
            <path d="M696.28,604.2L622.03,790.11C621.276,792.008 620.956,794.048 621.093,796.087L636.491,1020.57C636.893,1026.56 641.186,1031.58 647.05,1032.9C652.909,1034.22 658.94,1031.53 661.873,1026.29L800.833,778.835C803.017,774.937 803.146,770.214 801.185,766.202L721.052,603.242C719.204,599.484 715.724,596.793 711.622,595.945C707.525,595.098 703.263,596.191 700.075,598.906C698.396,600.336 697.095,602.156 696.278,604.203L696.28,604.2Z" style="fill:white;fill-rule:nonzero;"/>
            <path d="M1105,872.74L1029.11,870.396C1018.12,870.045 1007.53,874.564 1000.19,882.748L814.817,1089.23C811.368,1093.08 810.504,1098.59 812.61,1103.31C814.719,1108.03 819.399,1111.07 824.567,1111.07L869.895,1111.07C871.625,1111.07 873.336,1110.72 874.934,1110.06L1029.03,1045.99C1044.54,1039.55 1056.79,1027.12 1063,1011.51L1113.13,885.159C1114.23,882.413 1113.92,879.3 1112.3,876.823C1110.68,874.351 1107.95,872.823 1105,872.737L1105,872.74Z" style="fill:white;fill-rule:nonzero;"/>
            <path d="M594.16,734.48L634.004,634.66C638.914,622.371 640.391,608.98 638.27,595.918L607.801,408.628C605.836,396.487 600.82,385.042 593.223,375.37L371.993,92.99C369.203,89.463 364.461,88.127 360.243,89.678C356.02,91.228 353.274,95.314 353.43,99.811L369.508,524.431C369.891,534.993 374.383,544.993 382.024,552.298L577.254,738.138C579.75,740.548 583.285,741.552 586.68,740.817C590.07,740.083 592.875,737.708 594.153,734.481L594.16,734.48Z" style="fill:white;fill-rule:nonzero;"/>
            <path d="M627.77,320.7L700.895,155.21C702.708,151.073 701.446,146.233 697.848,143.503C694.25,140.776 689.25,140.866 685.754,143.726L562.634,245.426C558.552,248.797 557.907,254.812 561.181,258.973L611.126,322.793C613.243,325.5 616.626,326.894 620.036,326.465C623.446,326.039 626.38,323.851 627.767,320.707L627.77,320.7Z" style="fill:white;fill-rule:nonzero;"/>
        </g>
    </g>
</svg>
