<?xml version="1.0" encoding="UTF-8" standalone="no"?>
<!DOCTYPE svg PUBLIC "-//W3C//DTD SVG 1.1//EN" "http://www.w3.org/Graphics/SVG/1.1/DTD/svg11.dtd">
<svg width="100%" height="100%" viewBox="0 0 1006 1108" version="1.1" xmlns="http://www.w3.org/2000/svg" xmlns:xlink="http://www.w3.org/1999/xlink" xml:space="preserve" xmlns:serif="http://www.serif.com/" style="fill-rule:evenodd;clip-rule:evenodd;stroke-linejoin:round;stroke-miterlimit:2;">
    <g transform="matrix(1,0,0,1,-97.182,-46.1613)">
        <path d="M891.66,933.68C890.269,926.469 889.484,919.153 889.316,911.813C888.918,894.618 897.496,878.454 911.957,869.145C926.418,859.836 944.68,858.723 960.168,866.204C985.949,878.626 1010.42,889.642 1033.57,899.415C1083.29,920.274 1125.96,857.884 1088.49,819.118C991.996,719.321 898.218,629.088 808.898,548.068L808.898,477.966C808.894,457.407 802.269,437.396 790.007,420.896C781.804,409.834 773.741,399.029 766.874,389.841C762.058,383.555 759.753,375.708 760.409,367.818C761.062,359.931 764.628,352.568 770.413,347.162C776.71,341.482 785.046,338.607 793.503,339.193C801.964,339.783 809.823,343.783 815.273,350.279C833.578,372.123 855.398,398.443 874.007,420.943C895.753,447.295 924.46,467.021 956.859,477.873C992.105,489.697 1028.01,499.463 1064.39,507.123C1090.4,512.584 1111.71,485.021 1098.94,461.701C1022.32,321.851 900.846,226.721 900.846,226.721C748.876,112.861 620.726,65.821 553.246,47.261C546.192,45.335 538.676,46.042 532.101,49.245C525.527,52.452 520.343,57.94 517.515,64.686C514.687,71.428 514.406,78.975 516.73,85.909C556.011,202.609 613.457,263.169 613.457,263.169C613.457,263.169 679.082,340.372 684.707,438.649C462.477,248.919 276.937,121.889 160.477,52.329C122.719,29.782 80.274,73.587 104.086,110.548C109.852,119.501 115.688,128.368 121.594,137.15L121.454,137.15C121.454,137.15 213.282,306.25 201.329,614.29L202.149,702.813C202.586,732.004 197.438,761.008 186.985,788.266C184.481,794.719 181.633,801.032 178.454,807.18C165.083,832.114 157.528,859.746 156.352,888.016C155.461,916.891 161.461,949.61 186.118,973.235C204.013,990.133 228.122,998.837 252.68,997.262C277.242,995.688 300.043,983.981 315.633,964.938C330,947.102 340.735,921.086 339.492,883.235C338.675,864.024 334.054,845.169 325.898,827.758C304.296,779.395 292.765,727.138 292.007,674.168L292.007,562.748C292.007,538.303 298.311,514.271 310.312,492.975C315.077,484.538 317.331,474.916 316.812,465.245C316.292,455.569 313.023,446.245 307.382,438.366L268.71,384.389C265.851,380.393 264.503,375.51 264.905,370.616C265.308,365.718 267.437,361.12 270.913,357.647C274.96,353.596 280.503,351.397 286.229,351.569C291.952,351.745 297.35,354.272 301.147,358.561L347.624,401.827C392.983,443.866 430.011,494.081 456.774,549.837C460.641,557.829 464.063,565.423 466.407,571.892C481.833,613.775 492.126,657.376 497.063,701.732C497.063,701.732 514.032,854.472 504.094,933.762C504.094,933.762 499.758,977.074 489.188,1014.46C484.126,1031.79 481.598,1049.77 481.688,1067.82C481.762,1081.52 483.501,1095.16 486.868,1108.44C504.188,1173.27 596.748,1167.17 605.698,1100.66C608.651,1078.77 607.315,1049.5 598.503,1010.36C593.815,989.566 589.878,968.613 587.206,947.472C580.807,897.222 572.909,812.192 583.291,755.542C589.268,722.894 608.861,708.058 630.705,702.151C654.475,696.034 679.728,700.604 699.846,714.667C708.846,720.808 717.823,726.831 726.776,732.737C759.042,753.632 783.581,784.518 796.643,820.675C801.675,834.761 804.604,849.515 805.339,864.456L805.339,887.894C805.436,903.734 801.604,919.347 794.183,933.339C793.456,934.698 792.683,936.058 791.839,937.464C785.323,948.538 781.257,960.874 779.909,973.652C776.932,1003.21 779.346,1051.46 821.956,1069.93C835.706,1076.17 851.472,1076.17 865.222,1069.93C887.886,1059.08 913.714,1027.21 891.66,933.693L891.66,933.68ZM256.5,869.274C252.539,891.469 235.758,907.055 219,904.079C202.242,901.103 191.93,880.641 195.867,858.493C199.805,836.345 216.609,820.712 233.367,823.688C250.125,826.665 260.437,847.079 256.5,869.274Z" style="fill:white;fill-rule:nonzero;"/>
    </g>
</svg>
