<?xml version="1.0" encoding="UTF-8" standalone="no"?>
<!DOCTYPE svg PUBLIC "-//W3C//DTD SVG 1.1//EN" "http://www.w3.org/Graphics/SVG/1.1/DTD/svg11.dtd">
<svg width="100%" height="100%" viewBox="0 0 512 496" version="1.1" xmlns="http://www.w3.org/2000/svg" xmlns:xlink="http://www.w3.org/1999/xlink" xml:space="preserve" xmlns:serif="http://www.serif.com/" style="fill-rule:evenodd;clip-rule:evenodd;stroke-linejoin:round;stroke-miterlimit:2;">
    <g transform="matrix(1,0,0,1,-43.7861,-61.0847)">
        <g transform="matrix(0.459809,0,0,0.459809,23.6529,32.9974)">
            <path d="M637.66,82.711C645.058,100.574 636.574,121.059 618.707,128.461C600.844,135.859 580.359,127.375 572.957,109.508C565.559,91.641 574.043,71.16 591.91,63.758C609.773,56.36 630.258,64.844 637.66,82.711" style="fill:white;fill-rule:nonzero;"/>
            <path d="M1095,272.65C1112.18,259.572 1129.27,237.095 1137.61,198.47C1141.13,181.618 1142.44,164.38 1141.5,147.189C1140.62,127.158 1138.42,107.209 1134.91,87.47C1133.84,81.939 1130.58,77.079 1125.88,73.986C1121.16,70.896 1115.41,69.838 1109.91,71.052C1104.41,72.267 1099.63,75.65 1096.66,80.439C1075.57,114.33 1043.86,162.47 1018.78,190.599C1012.18,197.88 1007.61,206.771 1005.54,216.38C1005.54,216.685 1005.42,217.013 1005.35,217.341C995.46,267.989 1053.89,303.943 1095,272.653L1095,272.65Z" style="fill:white;fill-rule:nonzero;"/>
            <path d="M958.01,585.35C962.1,590.393 967.588,594.12 973.783,596.061C988.291,600.538 1003.67,592.85 1010.27,579.163C1017.31,564.608 1024.99,539.132 1023.12,498.936C1022.11,477.209 992.088,472.217 983.955,492.397C983.955,492.397 971.393,516.303 954.353,552.983C951.837,558.17 950.845,563.967 951.494,569.698C952.138,575.425 954.4,580.854 958.009,585.35L958.01,585.35Z" style="fill:white;fill-rule:nonzero;"/>
            <path d="M437.65,764.86C462.498,790.872 494.552,808.864 529.697,816.524C564.845,824.188 601.478,821.172 634.897,807.868C731.249,770.087 866.527,667.758 918.747,317.768C922.825,290.627 925.778,263.37 928.38,236.041C930.888,209.557 940.239,150.002 975.255,101.811C988.333,83.764 973.38,58.803 951.232,61.264C915.279,65.295 869.412,84.092 834.442,145.006C826.954,158.315 820.872,172.365 816.301,186.936C804.254,224.248 764.926,312.726 676.661,323.976C676.661,323.976 581.388,338.953 564.441,240.609C562.988,227.308 560.054,214.214 555.699,201.562C548.667,181.851 520.543,182.578 514.097,202.476C497.406,252.925 467.452,297.96 427.378,332.856C399.651,357.254 377.151,387.184 363.675,421.567C346.097,466.356 334.495,531.227 354.956,614.907C355.05,614.883 377.011,700.782 437.644,764.857L437.65,764.86ZM562.5,513.59C570.195,513.59 577.574,516.649 583.016,522.09C588.457,527.531 591.516,534.91 591.516,542.606C591.516,550.301 588.457,557.68 583.016,563.122C577.575,568.563 570.196,571.622 562.5,571.622C554.804,571.622 547.426,568.563 541.984,563.122C536.543,557.681 533.484,550.302 533.484,542.606C533.484,534.911 536.543,527.532 541.984,522.09C547.425,516.649 554.804,513.59 562.5,513.59ZM523.453,644.72L574.711,630.822C584.813,628.103 595.578,629.502 604.649,634.705C613.723,639.912 620.36,648.502 623.11,658.596L629.251,681.237C631.989,691.346 630.606,702.132 625.395,711.221C620.188,720.307 611.586,726.959 601.477,729.705L550.219,743.627C540.102,746.365 529.313,744.978 520.219,739.767C511.125,734.553 504.477,725.943 501.727,715.829L495.586,693.212C492.848,683.095 494.235,672.306 499.446,663.212C504.661,654.119 513.27,647.47 523.384,644.72L523.453,644.72ZM456.961,531.42C466.531,531.428 475.711,535.233 482.473,542.006C489.239,548.776 493.035,557.959 493.032,567.529C493.029,577.099 489.223,586.279 482.454,593.045C475.681,599.811 466.501,603.611 456.931,603.607C447.361,603.603 438.181,599.802 431.415,593.033C424.645,586.264 420.845,577.084 420.845,567.513C420.845,557.947 424.642,548.775 431.4,542.009C438.158,535.24 447.326,531.431 456.892,531.419L456.961,531.42Z" style="fill:white;fill-rule:nonzero;"/>
            <path d="M263.81,1103.7C282.599,1118.3 307.04,1123.48 330.138,1117.76C380.505,1105.29 435.978,1088.32 473.458,1076.37C486.075,1072.33 499.692,1072.72 512.056,1077.48C524.419,1082.24 534.783,1091.09 541.427,1102.55L552.021,1120.81C558.505,1131.98 570.443,1138.86 583.357,1138.86L921.557,1138.86C947.495,1138.96 972.889,1131.43 994.588,1117.22C1033.87,1091.3 1065.39,1052.61 1089.04,1015.64C1129.54,952.361 1151.95,879.122 1156.24,804.072C1162.47,695.202 1139.95,612.052 1119.28,560.462C1112.45,543.4 1087.17,547.267 1085.76,565.572C1074.04,717.212 1034.38,780.942 997.634,806.742C957.111,835.242 902.782,797.156 914.361,748.992C918.576,732.664 924.986,716.98 933.416,702.375C936.549,696.832 937.545,690.336 936.213,684.109C934.885,677.882 931.322,672.359 926.197,668.578L925.447,668.039C919.607,663.816 912.267,662.226 905.205,663.66C898.142,665.093 892.006,669.418 888.275,675.586C833.97,763.055 682.475,856.386 682.475,856.386C606.842,896.816 412.005,942.636 348.355,956.976C334.871,960.027 320.726,957.741 308.886,950.601C256.855,919.171 188.866,866.765 145.316,832.051C128.328,819.164 105.992,815.699 85.894,822.832C65.8,829.969 50.652,846.742 45.593,867.461C40.534,888.176 46.253,910.047 60.8,925.637C132.073,998.809 219.14,1069.01 263.82,1103.69L263.81,1103.7Z" style="fill:white;fill-rule:nonzero;"/>
            <path d="M321.23,888.68C325.753,893.215 331.468,896.383 337.71,897.817C343.956,899.25 350.476,898.895 356.526,896.789L408.838,878.578C419.264,874.899 427.135,866.219 429.779,855.484C432.424,844.75 429.486,833.406 421.963,825.304C373.377,773.601 310.563,712.354 277.283,681.604C267.404,672.468 254.638,667.081 241.201,666.37C227.764,665.659 214.502,669.671 203.713,677.714C190.283,687.714 181.861,703.062 180.643,719.761C179.424,736.464 185.525,752.87 197.362,764.714L321.23,888.68Z" style="fill:white;fill-rule:nonzero;"/>
        </g>
    </g>
</svg>
