<?xml version="1.0" encoding="UTF-8"?>
<svg width="1200pt" height="1200pt" version="1.1" viewBox="0 0 1200 1200" xmlns="http://www.w3.org/2000/svg">
 <g fill="#fff">
  <path d="m1143.5 713.88h-51.797v-25.992c0-2.4492-0.97266-4.7969-2.7031-6.5312-1.7344-1.7305-4.082-2.7031-6.5312-2.7031h-85.758c-5.0781 0.0625-9.1836 4.1562-9.2578 9.2344v25.992h-51.797c-4.5234 0.003907-8.6016 2.7227-10.348 6.8945s-0.81641 8.9844 2.3555 12.207l98.109 99.398c3.6445 3.6914 8.6172 5.7656 13.805 5.7656s10.16-2.0742 13.805-5.7656l98.109-99.398c3.1719-3.2227 4.1016-8.0352 2.3555-12.207-1.7461-4.1719-5.8242-6.8906-10.348-6.8945z"/>
  <path d="m1143.5 970.48h-51.797v-25.945c0.007812-2.4531-0.96484-4.8086-2.6953-6.543-1.7344-1.7383-4.0859-2.7148-6.5391-2.7148h-85.758c-5.0859 0.0625-9.1953 4.1719-9.2578 9.2578v25.969h-51.797c-4.5234 0.003906-8.6016 2.7227-10.348 6.8945s-0.81641 8.9844 2.3555 12.207l98.109 99.398c3.6445 3.6914 8.6172 5.7656 13.805 5.7656s10.16-2.0742 13.805-5.7656l98.109-99.398c3.1875-3.2227 4.1289-8.043 2.3789-12.227-1.7461-4.1836-5.8398-6.9023-10.371-6.8984z"/>
  <path d="m751.8 845.41h-101.79c-16.945-0.019531-33.75-3.0742-49.617-9.0234-17.023-4.1562-33.484-10.34-49.031-18.422-5.9453-3.0234-10.57-8.1211-13.004-14.328-2.4336-6.2109-2.5-13.098-0.19141-19.352 2.7773-7.0586 8.4375-12.598 15.559-15.215 7.1172-2.6211 15.016-2.0742 21.707 1.5039 12.477 6.5625 25.738 11.5 39.469 14.695 4.5547 1.1367 9.3203-0.80859 11.773-4.8086 2.457-4 2.0352-9.1289-1.0391-12.676l-5.3438-6.2344c-12.043-13.957-19.789-31.098-22.312-49.359l-17.695-127.95c-1.0117-7.3164-2.5273-14.551-4.5469-21.656l-26.133-92.203c-9.4609-33.406-9.8203-68.73-1.0508-102.32 8.7734-33.594 26.363-64.23 50.949-88.742l134.34-134.02c4.4219-4.3984 6.9102-10.383 6.9102-16.621 0-6.2383-2.4883-12.219-6.9141-16.617-4.4258-4.3984-10.422-6.8516-16.66-6.8164h-368.3c-13.957-0.0625-26.977 7.0117-34.523 18.75-8.0547 12.559-17.277 24.328-27.539 35.156-17.438 28.125-48.188 83.953-63.539 150.19-1.3555 5.832-4.6367 11.035-9.3164 14.77-4.6797 3.7305-10.48 5.7812-16.465 5.8086-8.2969 0.011718-16.121-3.8555-21.156-10.449-5.0352-6.5938-6.7031-15.16-4.5078-23.16 5.625-23.766 12.965-47.09 21.961-69.797 1.6836-4.293 0.87109-9.168-2.1172-12.684-2.9922-3.5117-7.6719-5.0977-12.18-4.1211-43.383 9.1406-102.68 36.562-126.26 116.91-39.188 133.01 78 223.73 78 223.73 19.383 17.766 36.797 34.828 52.43 51.117 73.438 76.016 123.56 171.48 144.45 275.09 3.5781 18.801 8.8555 37.234 15.773 55.078 7.6406 19.074 20.926 35.355 38.082 46.668 17.152 11.309 37.352 17.105 57.895 16.613 57-1.1953 97.43-4.3359 125.18-7.5703 19.359-2.3438 50.859 0.35156 71.484 2.5781 16.172 1.7656 32.391 2.8984 48.656 3.3984l66.023 2.1094c20.191 0 39.551-8.0195 53.828-22.297s22.297-33.637 22.297-53.828c0-1.7109 0-3.3984-0.16406-5.0859-2.5547-39.047-36.234-68.812-75.375-68.812z"/>
 </g>
</svg>
