<?xml version="1.0" encoding="UTF-8" standalone="no"?>
<!DOCTYPE svg PUBLIC "-//W3C//DTD SVG 1.1//EN" "http://www.w3.org/Graphics/SVG/1.1/DTD/svg11.dtd">
<svg width="100%" height="100%" viewBox="0 0 512 512" version="1.1" xmlns="http://www.w3.org/2000/svg" xmlns:xlink="http://www.w3.org/1999/xlink" xml:space="preserve" xmlns:serif="http://www.serif.com/" style="fill-rule:evenodd;clip-rule:evenodd;stroke-linejoin:round;stroke-miterlimit:2;">
    <g transform="matrix(1,0,0,1,-69.0518,-69.2099)">
        <g transform="matrix(0.482179,0,0,0.482179,35.7564,35.8383)">
            <path d="M808.45,389.67C806.657,373.557 797.005,359.373 782.669,351.795L741.255,329.811C735.548,326.725 728.427,328.639 725.036,334.17C722.833,337.96 720.247,341.518 717.325,344.787C698.458,365.881 669.067,366.068 649.731,345.35C638.458,333.28 633.09,317.905 630.536,304.991C626.767,287.042 629.571,268.335 638.435,252.28C646.145,238.803 659.223,225.327 680.786,225.327C708.513,225.327 720.959,246.421 726.325,261.327C729.986,271.843 736.571,281.097 745.309,287.999L754.895,295.499C758.196,298.073 762.329,299.347 766.508,299.073C770.684,298.8 774.618,296.999 777.555,294.015C780.489,291.03 782.227,287.073 782.434,282.89C786.114,216.117 770.832,168.75 751.004,135.94C725.34,94.213 679.754,68.917 630.774,69.213L569.227,69.213C520.243,68.916 474.657,94.213 448.997,135.94C429.169,168.752 413.841,216.143 417.567,282.92C417.774,287.103 419.513,291.06 422.446,294.045C425.384,297.029 429.317,298.83 433.493,299.103C437.673,299.377 441.806,298.103 445.106,295.529L454.692,288.029C463.415,281.123 469.985,271.869 473.63,261.357C478.997,246.357 491.442,225.357 519.169,225.357C540.731,225.357 553.81,238.834 561.521,252.31C570.42,268.345 573.263,287.04 569.537,304.998C566.982,317.912 561.615,333.287 550.342,345.357C531.006,366.076 501.615,365.959 482.748,344.794C479.826,341.521 477.236,337.962 475.013,334.177C471.63,328.65 464.517,326.736 458.818,329.818L417.193,351.802C402.857,359.38 393.205,373.564 391.412,389.677C390.318,399.415 392.178,409.259 396.752,417.927C401.322,426.595 408.397,433.689 417.053,438.286C429.612,444.88 442.619,450.575 455.983,455.325C460.956,457.138 465.335,460.282 468.643,464.415C471.948,468.548 474.057,473.513 474.733,478.763C474.991,480.778 475.295,482.911 475.624,485.185C477.03,494.782 483.12,503.052 491.866,507.24C503.112,512.541 514.839,516.763 526.882,519.849C529.425,520.532 532.139,520.048 534.288,518.525C536.436,517.001 537.796,514.599 537.991,511.974C538.155,509.63 538.366,507.286 538.6,504.755C538.866,500.255 540.948,496.06 544.366,493.122C547.784,490.188 552.249,488.766 556.737,489.188C561.221,489.606 565.346,491.833 568.163,495.349C570.979,498.868 572.245,503.38 571.671,507.849C571.319,511.622 571.061,515.231 570.874,518.677C570.62,523.477 574.28,527.587 579.077,527.887C585.733,528.286 592.671,528.52 599.983,528.52C607.295,528.52 614.233,528.286 620.866,527.887C625.721,527.563 629.401,523.368 629.092,518.512C628.928,515.348 628.671,512.067 628.366,508.645C627.874,504.426 628.964,500.176 631.421,496.715C633.881,493.25 637.534,490.821 641.679,489.895C646.28,489 651.046,490.094 654.8,492.911C658.55,495.723 660.936,499.993 661.366,504.661C661.6,507.004 661.811,509.512 661.975,511.879C662.171,514.504 663.53,516.907 665.678,518.43C667.827,519.954 670.542,520.438 673.085,519.754C685.14,516.668 696.874,512.438 708.124,507.121C716.858,502.93 722.936,494.672 724.343,485.09C724.671,482.747 724.975,480.661 725.233,478.668C725.905,473.418 728.011,468.449 731.319,464.316C734.624,460.184 739.007,457.039 743.983,455.231C757.362,450.516 770.385,444.852 782.96,438.286C791.589,433.668 798.632,426.567 803.179,417.899C807.726,409.231 809.566,399.399 808.46,389.676L808.45,389.67ZM627,426.209C609.895,434.088 590.199,434.088 573.094,426.209C567.981,423.803 564.032,419.459 562.121,414.143C560.207,408.823 560.488,402.963 562.898,397.85C564.871,393.627 567.176,389.569 569.789,385.709C576.601,375.658 587.953,369.639 600.094,369.639C612.235,369.639 623.586,375.659 630.399,385.709C633.012,389.568 635.317,393.627 637.29,397.85C639.7,402.975 639.969,408.846 638.04,414.166C636.106,419.49 632.133,423.822 627.001,426.209L627,426.209Z" style="fill:white;fill-rule:nonzero;"/>
            <path d="M664.64,555.87C662.488,556.284 660.824,557.995 660.468,560.159C659.605,565.683 658.46,571.159 657.046,576.565C655.917,580.991 653.015,584.753 649.027,586.971C645.034,589.19 640.304,589.662 635.953,588.284C631.886,586.897 628.5,584.018 626.476,580.225C624.453,576.436 623.945,572.018 625.054,567.87L625.054,567.682C625.449,566.089 625.066,564.401 624.023,563.132C622.98,561.862 621.398,561.159 619.757,561.237C613.406,561.589 606.843,561.776 599.999,561.776C593.155,561.776 586.593,561.589 580.241,561.237C578.601,561.159 577.019,561.862 575.976,563.132C574.933,564.401 574.55,566.089 574.945,567.682L574.945,567.823C576.042,571.96 575.546,576.362 573.546,580.147C571.55,583.936 568.198,586.831 564.163,588.26C562.484,588.803 560.726,589.081 558.96,589.081C555.288,589.077 551.722,587.854 548.815,585.608C545.909,583.358 543.831,580.214 542.905,576.659C541.491,571.253 540.347,565.776 539.483,560.253C539.147,558.073 537.479,556.335 535.311,555.917C524.538,553.851 513.909,551.101 503.483,547.69C500.636,546.765 497.511,547.546 495.432,549.698C493.354,551.854 492.686,555.003 493.71,557.815C503.085,583.807 516.749,611.159 536.39,634.549C548.863,649.623 566.027,660.088 585.14,664.268C594.901,666.393 605.003,666.393 614.765,664.268C633.878,660.089 651.042,649.623 663.515,634.549C683.156,611.111 696.773,583.807 706.195,557.815C707.218,555.003 706.55,551.854 704.472,549.698C702.394,547.546 699.269,546.765 696.421,547.69C686.011,551.085 675.394,553.815 664.64,555.87L664.64,555.87Z" style="fill:white;fill-rule:nonzero;"/>
            <path d="M600,824.02C594.738,824.016 589.68,822.004 585.852,818.391C582.028,814.778 579.727,809.844 579.422,804.59L575.415,727.973C575.02,721.204 577.434,714.571 582.086,709.641C586.739,704.708 593.219,701.911 600,701.911C606.782,701.918 613.258,704.715 617.914,709.645C622.567,714.575 624.989,721.204 624.61,727.973L620.579,804.59C620.274,809.844 617.973,814.778 614.149,818.391C610.321,822.004 605.262,824.016 600.001,824.02L600,824.02Z" style="fill:white;fill-rule:nonzero;"/>
            <path d="M524.58,709.24C528.662,713.459 531.135,718.978 531.564,724.834C531.99,730.69 530.35,736.51 526.924,741.279C513.94,759.209 499.268,791.177 520.314,828.42C523.092,833.451 522.35,839.697 518.475,843.94C514.596,848.186 508.444,849.483 503.182,847.171C493.607,842.874 485.002,836.679 477.893,828.96C464.077,813.87 456.416,794.151 456.416,773.694C456.416,753.237 464.076,733.518 477.893,718.428C481.951,714.056 486.408,710.068 491.205,706.522C496.142,702.822 502.26,701.057 508.408,701.557C514.556,702.061 520.306,704.791 524.58,709.24L524.58,709.24Z" style="fill:white;fill-rule:nonzero;"/>
            <path d="M412.88,769.05C412.528,798.136 417.849,858.37 464.044,891.28C468.423,894.346 470.13,900.014 468.165,904.987C466.204,909.96 461.087,912.936 455.794,912.186C431.372,908.952 400.505,898.686 369.075,871.991C352.528,857.925 333.43,847.167 312.825,840.303C276.13,827.963 238.137,819.889 199.595,816.233C191.033,815.518 183.048,811.612 177.224,805.295C171.4,798.975 168.158,790.701 168.142,782.107C168.142,772.572 172.134,763.474 179.146,757.013C186.158,750.552 195.552,747.322 205.056,748.099C239.04,750.935 290.931,758.857 336.146,780.911C343.185,784.364 351.162,785.407 358.853,783.884C366.544,782.36 373.521,778.349 378.708,772.474C383.595,766.943 389.438,762.337 395.958,758.88C399.525,756.962 403.841,757.067 407.313,759.153C410.782,761.239 412.899,765.001 412.88,769.052L412.88,769.05Z" style="fill:white;fill-rule:nonzero;"/>
            <path d="M213.68,918.26C214.547,936.822 209.414,957.776 187.899,972.401C176.337,980.682 168.786,993.436 167.087,1007.56C162.31,1043.08 159.368,1078.82 158.275,1114.65C157.946,1123.69 151.689,1130.82 144.094,1130.82L85.5,1130.82C75.938,1130.82 68.414,1121.14 69.094,1109.73C71.954,1064.72 81.047,957.895 105.422,891.285C109.047,881.137 114.922,871.937 122.602,864.379C130.782,856.504 138.844,850.317 157.219,851.067C163.376,851.403 169.4,852.997 174.914,855.754L175.313,855.942C197.04,866.395 212.368,890.465 213.68,918.262L213.68,918.26Z" style="fill:white;fill-rule:nonzero;"/>
            <path d="M600,824.02C605.262,824.016 610.32,822.004 614.148,818.391C617.972,814.778 620.273,809.844 620.578,804.59L624.609,727.973C624.988,721.204 622.566,714.575 617.914,709.645C613.257,704.715 606.781,701.919 600,701.911C593.218,701.911 586.738,704.708 582.086,709.641C577.433,714.571 575.019,721.203 575.414,727.973L579.422,804.59C579.726,809.844 582.027,814.778 585.851,818.391C589.679,822.004 594.738,824.016 599.999,824.02L600,824.02Z" style="fill:white;fill-rule:nonzero;"/>
            <path d="M675.42,709.24C671.338,713.459 668.865,718.978 668.436,724.834C668.01,730.69 669.65,736.51 673.076,741.279C686.06,759.209 700.732,791.177 679.709,828.42C676.943,833.447 677.682,839.682 681.553,843.92C685.42,848.158 691.557,849.467 696.819,847.17C706.397,842.877 715.003,836.682 722.108,828.959C735.924,813.869 743.585,794.15 743.585,773.693C743.585,753.236 735.925,733.517 722.108,718.427C718.049,714.056 713.592,710.068 708.796,706.521C703.858,702.822 697.741,701.056 691.593,701.556C685.444,702.06 679.695,704.791 675.421,709.24L675.42,709.24Z" style="fill:white;fill-rule:nonzero;"/>
            <path d="M910.45,1024.5C898.966,1014.66 882.864,1016.09 870.888,1025.3C796.427,1082.53 690.188,1068.84 646.028,1059.75L644.856,1024.9C681.372,1027.24 723.044,1024.31 751.496,1021.48C785.695,1018.21 818.832,1007.83 848.785,991.007C872.055,978.062 892.91,961.191 910.426,941.132C915.867,934.718 918.324,926.288 917.184,917.956C916.043,909.62 911.414,902.163 904.45,897.444C891.958,888.913 876.114,892.124 865.216,902.6C796.075,969.092 685.776,965.694 642.726,961.358L640.523,896.436C640.16,885.932 635.73,875.979 628.171,868.678C620.608,861.377 610.511,857.295 599.999,857.295C599.999,857.295 560.53,857.295 559.476,896.483L557.273,961.405C514.218,965.741 403.923,969.14 334.783,902.647C323.885,892.17 308.041,888.959 295.549,897.491C288.584,902.21 283.955,909.667 282.815,918.003C281.674,926.335 284.131,934.765 289.572,941.179C307.088,961.238 327.943,978.109 351.213,991.054C381.166,1007.87 414.303,1018.25 448.502,1021.52C476.955,1024.36 518.627,1027.27 555.142,1024.94L553.971,1059.8C509.815,1068.89 403.571,1082.58 329.111,1025.34C317.134,1016.13 300.986,1014.7 289.549,1024.55C283.146,1030.01 279.373,1037.93 279.162,1046.34C278.951,1054.75 282.326,1062.86 288.447,1068.63C308.056,1086.64 330.642,1101.11 355.197,1111.41C386.83,1124.79 420.908,1131.43 455.247,1130.91C482.294,1130.6 717.747,1130.6 744.747,1130.91C779.091,1131.43 813.169,1124.79 844.797,1111.41C869.352,1101.11 891.938,1086.64 911.547,1068.63C917.683,1062.86 921.07,1054.74 920.859,1046.32C920.648,1037.9 916.863,1029.96 910.445,1024.5L910.45,1024.5Z" style="fill:white;fill-rule:nonzero;"/>
            <path d="M787.12,769.05C787.472,798.136 782.151,858.37 735.956,891.28C731.577,894.346 729.87,900.014 731.835,904.987C733.796,909.96 738.913,912.936 744.206,912.186C768.628,908.952 799.495,898.686 830.925,871.991C847.476,857.929 866.57,847.171 887.175,840.303C923.87,827.963 961.863,819.889 1000.4,816.233C1008.97,815.522 1016.96,811.62 1022.78,805.299C1028.61,798.979 1031.85,790.701 1031.86,782.108C1031.86,772.573 1027.87,763.475 1020.85,757.014C1013.84,750.553 1004.45,747.323 994.944,748.1C960.96,750.936 909.092,758.858 863.884,780.912C856.841,784.361 848.861,785.404 841.165,783.881C833.474,782.357 826.493,778.35 821.298,772.475C816.411,766.944 810.568,762.338 804.048,758.881C800.482,756.963 796.165,757.068 792.693,759.154C789.224,761.24 787.107,765.002 787.127,769.053L787.12,769.05Z" style="fill:white;fill-rule:nonzero;"/>
            <path d="M979.2,918.26C978.333,936.822 983.419,957.776 1004.75,972.401C1016.24,980.721 1023.73,993.467 1025.39,1007.56C1030.13,1043.08 1033.05,1078.82 1034.14,1114.65C1034.44,1123.69 1040.65,1130.82 1048.2,1130.82L1106.25,1130.82C1115.63,1130.82 1123.2,1121.14 1122.47,1109.73C1119.64,1064.72 1110.61,957.895 1086.45,891.285C1082.86,881.148 1077.04,871.953 1069.41,864.379C1061.33,856.504 1053.33,850.317 1035.1,851.067C1028.99,851.407 1023.01,853.001 1017.54,855.754L1017.17,855.942C995.7,866.395 980.489,890.465 979.2,918.262L979.2,918.26Z" style="fill:white;fill-rule:nonzero;"/>
            <path d="M1118.6,655.88C1106.88,635.091 1088.67,619.95 1073.18,602.396C1052.53,578.958 1049.04,552.31 1045.45,522.052C1041.87,491.794 1039.1,460.763 1037.18,430.013C1035.96,409.693 1005.49,409.083 1005.49,428.911C1000.08,440.63 999.302,455.583 997.427,467.606C994.38,487.106 992.74,506.934 988.568,526.2C988.24,527.7 987.911,529.2 987.56,530.677C983.411,540.568 977.529,549.685 968.81,555.732C958.896,559.435 947.716,559.201 939.326,552.24C921.818,537.592 932.904,504.896 936.607,486.615C942.041,459.576 945.853,432.24 948.021,404.748C950.201,377.209 949.193,349.271 953.13,321.896C956.927,295.388 966.325,270.099 970.099,243.568C973.31,221.115 973.193,196.506 962.131,176.162C950.412,154.67 931.381,152.068 911.108,143.842C889.358,135.006 863.202,61.951 832.616,69.944C826.549,69.514 820.671,72.155 816.96,76.975C803.179,94.67 820.639,115.483 828.069,131.631C849.842,178.834 843.467,231.17 856.522,280.431C868.405,325.314 898.827,364.947 901.053,412.431C902.201,435.411 897.424,458.298 887.178,478.9C876.608,499.525 859.826,514.619 843.889,530.697C817.03,557.767 795.28,590.65 805.217,631.077C813.842,666.233 844.17,695.202 879.772,698.413C904.17,700.616 927.092,690.89 951.022,688.311C974.999,685.819 999.217,689.362 1021.48,698.623C1049.46,710.342 1099.01,764.623 1125.36,719.975C1136.75,700.616 1128.61,673.663 1118.61,655.873L1118.6,655.88Z" style="fill:white;fill-rule:nonzero;"/>
            <path d="M1053.2,340.64C1062.15,325.031 1065.06,301.687 1051.98,287.671C1049.51,285.269 1046.41,283.62 1043.05,282.909C1039.68,282.198 1036.18,282.46 1032.95,283.663C1019.45,284.554 1013.05,297.093 1012.14,309.819C1011.61,320.542 1014.04,331.206 1019.17,340.639C1026.18,354.256 1045.96,353.272 1053.2,340.639L1053.2,340.64Z" style="fill:white;fill-rule:nonzero;"/>
            <path d="M81.422,655.88C93.141,635.091 111.352,619.95 126.844,602.396C147.492,578.958 150.985,552.31 154.571,522.052C158.157,491.794 160.923,460.763 162.844,430.013C164.063,409.693 194.532,409.083 194.532,428.911C199.946,440.63 200.72,455.583 202.595,467.606C205.642,487.106 207.282,506.934 211.454,526.2C211.782,527.7 212.111,529.2 212.462,530.677C216.611,540.568 222.493,549.685 231.212,555.732C241.126,559.435 252.306,559.201 260.696,552.24C278.204,537.592 267.118,504.896 263.415,486.615C257.981,459.576 254.169,432.24 252.001,404.748C249.821,377.209 250.829,349.271 246.892,321.896C243.095,295.388 233.697,270.099 229.923,243.568C226.712,221.115 226.829,196.506 237.891,176.162C249.61,154.67 268.641,152.068 288.914,143.842C310.664,135.006 336.82,61.951 367.406,69.944C373.473,69.514 379.351,72.155 383.062,76.975C396.843,94.67 379.383,115.483 371.953,131.631C350.18,178.834 356.555,231.17 343.5,280.431C331.617,325.314 301.195,364.947 298.969,412.431C297.821,435.411 302.598,458.298 312.844,478.9C323.414,499.525 340.196,514.619 356.133,530.697C382.992,557.767 404.742,590.65 394.805,631.077C386.18,666.233 355.852,695.202 320.25,698.413C295.852,700.616 272.93,690.89 249,688.311C225.047,685.764 200.836,689.245 178.57,698.436C150.586,710.155 101.039,764.436 74.69,719.788C63.276,700.616 71.409,673.663 81.417,655.874L81.422,655.88Z" style="fill:white;fill-rule:nonzero;"/>
            <path d="M146.81,340.64C137.857,325.031 134.951,301.687 148.029,287.671C150.49,285.257 153.583,283.593 156.955,282.87C160.322,282.151 163.826,282.401 167.06,283.593C180.56,284.483 186.958,297.023 187.872,309.749C188.395,320.472 185.965,331.136 180.84,340.569C173.833,354.257 154.051,353.272 146.809,340.639L146.81,340.64Z" style="fill:white;fill-rule:nonzero;"/>
        </g>
    </g>
</svg>
