<?xml version="1.0" encoding="UTF-8"?>
<svg width="1200pt" height="1200pt" version="1.1" viewBox="0 0 1200 1200" xmlns="http://www.w3.org/2000/svg">
 <g fill="#fff">
  <path d="m1142.8 1072.2c-48.305-45.328-104.34-123-135.84-251.91-1.0312-3.9375-3.6289-7.2773-7.1953-9.2422-3.5625-1.9609-7.7773-2.375-11.652-1.1445-3.8789 1.2344-7.082 4.0078-8.8555 7.668l-17.484 37.5c-3.75 7.668-10.395 13.531-18.473 16.297-8.0742 2.7656-16.918 2.207-24.582-1.5547-6.0273-2.8711-10.961-7.625-14.051-13.543-3.0898-5.918-4.1719-12.684-3.082-19.27 8.9531-52.289 42.398-187.27 161.48-335.62 18.938-23.578-7.5-56.25-35.484-43.828-94.289 41.742-232.78 144.47-311.86 396.09-8.2031 26.086-46.008 26.484-54.727 0.58594-7.0078-20.633-12.57-41.73-16.641-63.141-3.8203-20.648-32.812-24.117-41.648-5.0391-5.9531 12.68-12.07 26.859-17.953 42.188-12.516 32.812-60.938 30.281-70.102-3.4688-5.7422-21.094-8.2266-49.219-4.0547-85.875 0 0 11.086-132 39.422-249.3 5.0859-21.094-24.117-32.812-35.859-14.367-11.742 18.445-24.117 39.492-35.672 62.133-20.367 39.844-81.305 32.648-91.148-10.898-6.1367-26.352-6.0078-53.77 0.375-80.062 21.094-86.227 41.812-179.39 155.13-336.54 16.406-22.758-10.781-51.094-35.156-36.68-203.04 119.77-610.36 446.27-404.95 1057.5h1015.7c31.406 0 46.922-37.195 24.328-58.43z"/>
  <path d="m580.69 397.24c8.2773-0.22266 16.133-3.707 21.855-9.6914 5.7227-5.9844 8.8516-13.988 8.7031-22.27-0.15234-8.2812-3.5625-16.168-9.5-21.941-5.9336-5.7773-13.91-8.9727-22.191-8.8984-8.2812 0.078125-16.195 3.4219-22.023 9.3047-5.8281 5.8828-9.0977 13.832-9.0938 22.113 0.11719 8.4375 3.582 16.484 9.6289 22.367 6.0469 5.8867 14.184 9.1289 22.621 9.0156z"/>
 </g>
</svg>
