<?xml version="1.0" encoding="UTF-8"?>
<svg width="1200pt" height="1200pt" version="1.1" viewBox="0 0 1200 1200" xmlns="http://www.w3.org/2000/svg">
 <g fill="#fff">
  <path d="m653.58 526.64c-28.453-111.16-117.68-352.92-370.41-463.36-38.086-16.641-80.297 14.367-75.633 55.664 5.1797 45.938 2.5781 110.72-21.844 197.53-7.4492 26.117-16.457 51.766-26.977 76.805-31.172 75-124.22 354.4 125.55 544.1 24.789 18.84 41.496 46.395 46.734 77.086l15.328 89.297c1.793 10.484 7.2305 20 15.359 26.859 8.125 6.8633 18.418 10.633 29.055 10.641 11.98 0.03125 23.484-4.7109 31.961-13.176 8.4805-8.4648 13.238-19.961 13.227-31.941v-15.68c0-20.906-0.86719-41.781-2.6016-62.625-23.18-274.88-86.461-541.78-87.164-545.06-1.9766-8.2852 0.61719-16.996 6.8047-22.852 6.1875-5.8516 15.027-7.9609 23.191-5.5312 8.1641 2.4336 14.41 9.0352 16.387 17.32 0.70312 2.9531 51.891 219.12 79.477 464.27 0.58984 5.3516 3.082 10.312 7.0234 13.977 3.9453 3.668 9.0742 5.7891 14.453 5.9883 5.3789 0.19531 10.652-1.5508 14.852-4.918 56.812-45.797 129.8-126 151.95-246.7 9.9023-55.727 7.6055-112.94-6.7266-167.7z"/>
  <path d="m554.79 1141.2c-8.3672 0.035156-16.449-3.0469-22.664-8.6445-6.2188-5.5977-10.129-13.312-10.969-21.637-3.2109-34.711 7.3359-94.383 93.164-152.93 119.32-81.422 143.74-205.9 140.62-272.98-0.92969-16.715 5.418-33.016 17.414-44.695 21.68-20.812 64.359-46.711 141.3-44.344 27.027 0.97266 53.77-5.7656 77.109-19.43 7.1289-4.1914 13.805-9.1094 19.922-14.672 7.0273-6.332 16.727-8.793 25.922-6.5703 9.1953 2.2227 16.703 8.8359 20.062 17.68 9.2852 24.336 16.453 49.43 21.422 75 36.234 187.99-92.391 370.31-282 396.84-25.668 3.9336-51.816 3.5078-77.344-1.2656-15.461-3.375-31.43-3.7031-47.016-0.96094-28.945 5.5078-68.156 22.781-84.633 74.578-2.1367 6.9297-6.4258 13-12.246 17.328-5.8203 4.3281-12.867 6.6914-20.121 6.7422z"/>
 </g>
</svg>
