<?xml version="1.0" encoding="UTF-8" standalone="no"?>
<!DOCTYPE svg PUBLIC "-//W3C//DTD SVG 1.1//EN" "http://www.w3.org/Graphics/SVG/1.1/DTD/svg11.dtd">
<svg width="100%" height="100%" viewBox="0 0 503 512" version="1.1" xmlns="http://www.w3.org/2000/svg" xmlns:xlink="http://www.w3.org/1999/xlink" xml:space="preserve" xmlns:serif="http://www.serif.com/" style="fill-rule:evenodd;clip-rule:evenodd;stroke-linejoin:round;stroke-miterlimit:2;">
    <g transform="matrix(1,0,0,1,-81.8014,-72.2835)">
        <g transform="matrix(0.485107,0,0,0.485107,42.119,37.2183)">
            <path d="M146.09,465.07L146.207,465.304L146.09,465.07Z" style="fill:white;fill-rule:nonzero;"/>
            <path d="M146.2,465.3L146.2,465.183L145.989,464.761C145.825,464.456 145.638,463.941 145.473,463.566C145.098,462.769 144.77,461.691 144.395,460.777C143.716,458.761 142.989,456.698 142.427,454.519C141.216,450.062 140.27,445.538 139.591,440.972C138.239,431.503 137.934,421.913 138.677,412.378C138.841,407.526 139.755,402.675 140.364,397.823C141.442,392.995 142.145,388.12 143.669,383.339C144.348,380.995 144.934,378.511 145.684,376.12L148.192,369.089L149.458,365.503C149.903,364.331 150.442,363.159 150.934,361.987L153.958,354.956C162.778,335.839 174.052,317.952 187.497,301.753C190.661,297.441 194.528,293.573 198.02,289.495L203.41,283.425L209.176,277.612C213.067,273.815 216.77,269.784 220.895,266.104L233.153,255.065L236.223,252.3L239.458,249.675L245.903,244.448C250.262,241.003 254.387,237.417 258.958,234.065C268.005,227.549 276.747,220.612 286.239,214.565L300.301,205.19C304.988,202.073 309.887,199.284 314.692,196.307L329.106,187.495L343.942,179.198C383.907,157.225 425.09,137.542 467.292,120.253L467.503,120.253C473.55,117.87 477.862,112.444 478.823,106.019C479.784,99.589 477.241,93.14 472.155,89.097C467.069,85.05 460.214,84.027 454.167,86.409C409.835,102.526 366.456,121.167 324.257,142.237L308.39,150.3L292.781,158.972C287.601,161.925 282.328,164.667 277.219,167.784L261.914,177.159C251.602,183.206 241.828,190.284 231.82,196.94C226.781,200.221 222.07,204.089 217.195,207.628L209.929,213.066L206.25,215.62L202.734,218.527L188.672,230.246C183.985,234.16 179.602,238.496 175.055,242.621L168.328,248.902L161.883,255.582C157.641,260.082 153.141,264.324 149.203,269.199C132.23,288.105 117.765,309.121 106.172,331.73L101.977,340.519C101.297,341.972 100.547,343.425 99.914,344.925L98.086,349.472L94.477,358.589C93.352,361.683 92.414,364.847 91.383,367.964C89.227,374.198 87.867,380.737 86.227,387.183C85.055,393.769 83.649,400.331 83.063,407.058C81.481,420.609 81.387,434.292 82.781,447.863C83.512,454.808 84.66,461.703 86.227,468.511C86.977,471.956 87.985,475.542 89.039,478.964C89.649,480.769 90.141,482.48 90.867,484.378L91.945,487.214L92.578,488.784L92.953,489.651L93.539,490.894C98.278,500.023 107.461,505.999 117.727,506.636C127.997,507.272 137.844,502.475 143.676,494.003C149.508,485.526 150.465,474.616 146.204,465.253L146.2,465.3Z" style="fill:white;fill-rule:nonzero;"/>
            <path d="M579.47,615.77C579.47,629.04 568.716,639.793 555.447,639.793C542.177,639.793 531.424,629.039 531.424,615.77C531.424,602.5 542.178,591.747 555.447,591.747C568.717,591.747 579.47,602.501 579.47,615.77" style="fill:white;fill-rule:nonzero;"/>
            <path d="M1100.9,392.32C1096.34,388.875 1093.08,384 1091.62,378.476C1090.16,372.949 1090.6,367.097 1092.86,361.851C1104.56,335.23 1111.53,306.773 1113.46,277.757C1114.75,258.069 1088.81,249.632 1078.1,266.202C1063.7,288.374 1044.79,313.382 1022.46,333.397C1010.17,344.413 992.103,342.96 982.775,329.366L982.236,328.569C979.205,323.803 977.795,318.19 978.22,312.557C978.642,306.928 980.873,301.584 984.58,297.327C1001.1,278.155 1035.93,233.061 1045.52,183.557C1054.12,139.19 1026.53,95.737 983.221,82.777C928.377,66.511 825.651,60.933 649.241,128.691C637.522,133.191 641.928,150.652 654.35,149.058C701.764,142.964 760.05,141.16 820.22,152.995C822.861,153.507 824.724,155.886 824.583,158.574C824.439,161.261 822.337,163.429 819.658,163.659C740.791,169.706 553.638,199.026 397.458,339.699C392.93,343.629 390.047,349.117 389.376,355.074C388.708,361.031 390.305,367.019 393.848,371.855C397.571,376.66 403.036,379.809 409.059,380.625C415.083,381.437 421.184,379.855 426.051,376.215C473.582,340.543 619.391,242.855 806.861,229.375C806.861,229.375 838.853,227.383 866.345,236.289C885.775,242.594 890.228,268.328 874.431,281.266C836.579,312.297 765.871,352.75 663.491,392.196C663.491,392.196 436.451,465.391 318.441,432.532C318.441,432.532 257.199,402.649 322.918,341.407C322.918,341.407 397.496,275.782 488.198,212.127C501.089,203.08 490.167,183.111 475.659,189.182C402.229,219.909 307.309,269.69 222.999,345.582C194.429,371.363 186.249,413.551 204.882,447.182C217.07,469.19 241.14,491.502 286.421,508.002C294.542,510.967 300.753,517.642 303.132,525.955C308.358,544.049 332.312,574.611 434.942,571.447C434.942,571.447 701.732,562.189 890.052,421.987C893.579,419.413 898.466,419.835 901.501,422.979C904.532,426.124 904.778,431.022 902.075,434.456C871.278,472.8 799.585,533.198 633.955,593.366C628.232,595.44 624.877,601.378 626.049,607.35C627.217,613.323 632.561,617.553 638.643,617.319C701.081,614.764 797.643,598.686 889.093,533.975C892.526,531.588 897.151,531.873 900.265,534.662C903.378,537.455 904.167,542.018 902.171,545.693C881.499,582.701 827.171,643.591 686.551,676.003C644.61,686.023 600.899,686.023 558.961,676.003C538.91,671.32 519.676,663.64 501.914,653.222C497.047,650.304 493.613,645.492 492.434,639.937C491.258,634.387 492.441,628.593 495.703,623.949L496.102,623.387C497.5,621.43 497.371,618.77 495.797,616.953C494.219,615.137 491.602,614.637 489.469,615.746C469.715,626.226 451.094,638.715 433.899,653.012C428.5,657.469 424.84,663.676 423.555,670.555C422.27,677.438 423.441,684.551 426.867,690.653C437.941,709.626 452.512,726.325 469.805,739.872C473.227,742.552 474.247,747.294 472.227,751.142C470.208,754.99 465.727,756.845 461.579,755.552C441.798,749.318 415.665,735.396 386.837,705.138C363.634,680.81 322.665,696.092 320.626,729.654C319.571,747.256 322.97,769.006 334.829,795.466C327.833,787.22 319.517,780.196 310.22,774.677C297.474,767.377 282.068,766.373 268.482,771.951C254.892,777.533 244.642,789.072 240.705,803.224C232.197,833.224 230.838,887.365 298.033,944.064C300.752,946.103 301.623,949.794 300.103,952.833C298.584,955.872 295.107,957.392 291.846,956.439C249.655,947.517 213.436,920.669 192.635,882.892C190.146,878.181 185.771,874.751 180.604,873.458C175.436,872.165 169.963,873.134 165.549,876.118C161.135,879.103 158.201,883.825 157.478,889.102C154.9,904.946 155.697,925.008 164.51,948.985C167.029,955.708 167.244,963.079 165.119,969.938C158.463,991.032 149.627,1041.28 195.892,1086.33C223.607,1112.79 260.419,1127.59 298.732,1127.69C323.646,1127.98 355.755,1126.03 386.412,1117.48C403.732,1112.62 401.342,1087.31 383.412,1086C356.553,1084.03 325.967,1076.95 299.037,1058.65C296.197,1056.71 295.056,1053.07 296.275,1049.85C297.494,1046.64 300.756,1044.67 304.17,1045.1C325.006,1047.59 354.795,1048.76 381.725,1040.88C388.799,1038.89 396.264,1038.7 403.428,1040.34C436.24,1047.37 530.668,1062.7 603.258,1021.01C616.824,1013.05 632.297,1008.94 648.024,1009.1C707.977,1010.3 860.044,998.343 918.424,853.711C922.865,842.66 930.76,833.34 940.924,827.133C970.151,809.297 1032.33,762.071 1068.61,667.363C1076.84,645.824 1048.81,629.113 1033.74,646.551C984.52,703.481 903.029,770.651 781.529,792.521C781.529,792.521 709.154,799.318 657.449,776.115C652.328,773.794 649.437,768.287 650.433,762.752C651.429,757.217 656.058,753.068 661.667,752.678C743.839,746.818 946.877,710.608 1094.91,502.508C1107.35,485.434 1115.17,465.438 1117.62,444.453C1119.61,425.867 1117.13,405.008 1100.91,392.328L1100.9,392.32ZM700.8,907.45C711.933,909.489 709.425,924.325 700.8,927.583C657.206,943.989 606.37,937.333 563.2,922.896C540.266,915.439 518.251,905.408 497.575,892.99C479.786,882.045 458.528,868.662 451.098,848.248C447.231,837.584 458.575,830.037 467.786,831.584C487.239,834.865 505.567,851.248 522.747,860.529C540.751,870.38 559.688,878.42 579.278,884.529C619.239,896.693 660.067,899.998 700.798,907.451L700.8,907.45Z" style="fill:white;fill-rule:nonzero;"/>
            <path d="M212.34,554.93C212.34,571.446 198.949,584.836 182.434,584.836C165.919,584.836 152.528,571.445 152.528,554.93C152.528,538.414 165.919,525.024 182.434,525.024C198.949,525.024 212.34,538.415 212.34,554.93" style="fill:white;fill-rule:nonzero;"/>
        </g>
    </g>
</svg>
