<?xml version="1.0" encoding="UTF-8" standalone="no"?>
<!DOCTYPE svg PUBLIC "-//W3C//DTD SVG 1.1//EN" "http://www.w3.org/Graphics/SVG/1.1/DTD/svg11.dtd">
<svg width="100%" height="100%" viewBox="0 0 512 505" version="1.1" xmlns="http://www.w3.org/2000/svg" xmlns:xlink="http://www.w3.org/1999/xlink" xml:space="preserve" xmlns:serif="http://www.serif.com/" style="fill-rule:evenodd;clip-rule:evenodd;stroke-linejoin:round;stroke-miterlimit:2;">
    <g transform="matrix(1,0,0,1,-70.0052,-77.6815)">
        <g transform="matrix(0.482946,0,0,0.482946,36.1965,40.1656)">
            <path d="M127.76,316.52C126.893,320.844 127.748,325.336 130.143,329.043C132.537,332.746 136.283,335.371 140.581,336.359C144.882,337.348 149.397,336.621 153.167,334.332C165.644,326.895 178.694,320.461 192.19,315.09C216.241,305.633 241.284,298.918 266.838,295.074C273.998,293.984 280.463,290.172 284.885,284.433C301.385,263.234 320.194,243.945 340.971,226.917C345.69,223.023 348.018,216.937 347.111,210.886C346.205,204.836 342.193,199.702 336.541,197.363C302.838,183.09 267.963,177.722 235.151,189.207C163.479,214.332 136.948,270.113 127.761,316.517L127.76,316.52Z" style="fill:white;fill-rule:nonzero;"/>
            <path d="M1128.2,972.66C1114.86,941.043 1084.44,881.019 1031.76,837.92C957.036,776.795 1007.99,708.87 1007.99,708.87C1068.07,658.831 1106.8,587.76 1116.27,510.14C1117.02,504.378 1115.54,498.55 1112.12,493.851C1108.71,489.152 1103.62,485.941 1097.91,484.878C1092.2,483.812 1086.3,484.98 1081.42,488.132C1075.63,491.835 1069.7,495.163 1064,498.046C1059.01,487.73 1052.79,478.05 1045.49,469.218C1043.4,466.789 1040.08,465.812 1037.01,466.722C1033.94,467.636 1031.69,470.261 1031.26,473.437C1029.64,487.574 1025.99,501.402 1020.43,514.499C1016.61,515.507 1012.89,516.444 1009.39,517.194C1000.18,519.183 990.57,516.597 983.593,510.253C976.616,503.909 973.132,494.589 974.238,485.226C981.55,426.468 1008.36,399.609 1026.93,387.843C1031.7,384.78 1036.19,381.308 1040.36,377.46C1049.21,385.436 1057.03,394.491 1063.63,404.413C1065.43,407.171 1068.72,408.573 1071.96,407.975C1075.2,407.378 1077.77,404.889 1078.46,401.671C1082.36,384.609 1084.77,356.062 1074.08,317.296C1098.93,233.296 1071.06,152.926 1047.41,105.496C1041.55,93.676 1031.26,84.648 1018.77,80.375C1006.29,76.105 992.625,76.937 980.753,82.691C920.933,111.519 859.713,137.332 797.303,160.035C782.1,165.625 765.877,167.894 749.725,166.691C404.565,140.136 305.095,337.901 305.095,337.901C305.095,337.901 119.935,340.245 96.785,493.131C92.355,520.846 92.718,549.115 97.863,576.709C109.886,639.006 176.121,675.147 234.833,651.076C256.771,642.193 281.075,628.131 307.513,607.037C312.274,603.147 318.353,601.233 324.486,601.697C330.619,602.158 336.341,604.959 340.466,609.522C344.552,614.322 346.517,620.577 345.911,626.854C345.306,633.131 342.184,638.893 337.255,642.827C281.755,687.077 232.845,705.1 193.095,710.163C178.533,711.956 165.54,720.19 157.704,732.593C68.384,874.533 66.907,1025.86 71.36,1090.25C71.961,1098.94 75.833,1107.07 82.2,1113C88.563,1118.93 96.946,1122.23 105.649,1122.22L1072.96,1122.22C1080.73,1122.22 1088.13,1118.88 1093.28,1113.05C1098.42,1107.23 1100.81,1099.47 1099.84,1091.75C1099.42,1088.17 1098.97,1084.72 1098.53,1081.25C1097.51,1073.12 1093.53,1065.66 1087.35,1060.28C1081.17,1054.89 1073.23,1051.97 1065.04,1052.07L1056.2,1052.07C946.321,1052.07 871.041,1019.49 823.541,987.431C805.853,975.49 789.369,961.857 774.322,946.72C772.822,945.181 770.658,944.486 768.541,944.861C766.423,945.236 764.63,946.634 763.752,948.595C758.033,961.579 744.51,984.548 717.697,994.017C693.47,1002.76 666.552,999.678 644.924,985.697C549.697,923.072 564.51,783.407 565.236,777.497C566.31,769.353 571.599,762.38 579.15,759.145C586.7,755.911 595.396,756.899 602.033,761.743C608.665,766.587 612.256,774.571 611.478,782.747C611.267,784.716 599.619,900.167 670.564,946.807C679.771,952.916 691.349,954.233 701.689,950.346C711.454,946.865 718.955,938.905 721.845,928.948C725.9,915.003 726.532,896.956 723.884,875.3C723.122,870.151 724.056,864.894 726.54,860.32C729.028,855.746 732.931,852.105 737.665,849.941C743.243,847.562 749.532,847.46 755.188,849.648C760.84,851.835 765.418,856.148 767.946,861.66C768.134,862.058 791.384,910.34 851.993,950.441C919.47,995.089 1008.01,1012.83 1110.58,1002.8C1117.45,1002.11 1123.58,998.206 1127.11,992.277C1130.64,986.343 1131.14,979.093 1128.47,972.73L1128.2,972.66ZM712.21,394.46C693.898,411.558 668.98,419.722 644.101,416.772C630.238,415.299 617.046,410.045 605.968,401.584C595.495,393.303 589.07,380.932 588.32,367.6C588.308,367.412 588.308,367.225 588.32,367.037C587.851,358.42 589.754,349.842 593.82,342.228C597.886,334.615 603.961,328.267 611.382,323.865C642.671,304.888 680.718,300.603 715.442,312.146C720.794,313.869 725.501,317.166 728.946,321.607C732.391,326.049 734.415,331.428 734.755,337.037C736.399,358.615 728.094,379.764 712.208,394.459L712.21,394.46Z" style="fill:white;fill-rule:nonzero;"/>
        </g>
    </g>
</svg>
