<?xml version="1.0" encoding="UTF-8"?>
<svg width="1200pt" height="1200pt" version="1.1" viewBox="0 0 1200 1200" xmlns="http://www.w3.org/2000/svg">
 <g fill="#fff">
  <path d="m81.656 947.88c55.473-4.8867 110.59-13.215 165.02-24.938 17.016-3.6523 34.473-4.8047 51.82-3.4219 268.29 21.422 454.95-117.59 454.95-117.59l45.68-16.406c13.582-4.7539 24.852-14.484 31.535-27.227 6.6797-12.742 8.2773-27.547 4.4648-41.422l-136.85-490.15c-7.4961-26.68-24.148-49.863-47.039-65.484l-104.74-71.695c-7.7031-5.2539-17.039-7.5703-26.305-6.5195-9.2656 1.0508-17.848 5.3945-24.18 12.238l-81.164 88.43c-7.9727 8.7344-12.41 20.121-12.453 31.945-0.042969 11.828 4.3125 23.246 12.219 32.039l72.656 81.164c5.3438 5.9805 12.094 10.539 19.641 13.266 5.5195 1.9336 11.512 2.0742 17.117 0.40625 5.6055-1.6719 10.539-5.0703 14.102-9.7109l22.031-28.125c4.4688-5.625 11.133-9.0625 18.305-9.4375 7.1758-0.37891 14.164 2.3438 19.195 7.4688 4.2266 4.5117 6.6719 10.402 6.8945 16.582 0.21875 6.1758-1.8047 12.227-5.6992 17.027l-33.891 43.008c-3.3281 4.2344-5.3711 9.3359-5.8828 14.695l-13.57 140.84c-0.23437 2.5781-0.44531 5.1562-0.60937 7.7344 2.8125 31.523 12.422 79.031 43.289 115.12 4.2852 4.957 6.5 11.371 6.1836 17.914-0.3125 6.5469-3.1328 12.719-7.8711 17.242-4.9609 4.5508-11.547 6.9102-18.27 6.5469-6.7227-0.36719-13.012-3.4297-17.449-8.4922-26.297-30.469-40.57-66.445-48.258-98.555-2.0312-8.6016-6.6992-16.352-13.352-22.168s-14.957-9.4062-23.75-10.27c-16.031-1.5469-34.781-2.7188-48-1.7578-24.023 1.8438-47.191 9.7227-67.359 22.898-37.043 24.152-69.258 55-94.992 90.961-4.043 5.5977-10.223 9.2734-17.07 10.16s-13.758-1.0938-19.094-5.4727c-4.9102-4.2461-8.0391-10.188-8.7617-16.641-0.72266-6.4531 1.0195-12.938 4.8711-18.164 19.441-26.98 42.109-51.484 67.5-72.961 2.7344-2.2852 4.2969-5.6758 4.2656-9.2383s-1.6562-6.9219-4.4297-9.1602h-0.14062c-33.117-26.461-85.148-57.797-148.34-60.938h-1.0547c-21.816-0.85547-43.039 7.2305-58.754 22.387-15.715 15.16-24.562 36.074-24.496 57.91v201.8c-0.003906 5.3359 2.6797 10.312 7.1367 13.246s10.09 3.4219 14.988 1.3086c20.652-8.7891 38.918-22.355 53.297-39.586 5.332-7.1797 14.094-10.969 22.977-9.9414 8.8867 1.0312 16.547 6.7227 20.098 14.93 3.5547 8.2109 2.4531 17.691-2.8789 24.871-1.7578 2.3438-36.891 48.844-103.52 65.93-3.4219 0.85938-6.4609 2.832-8.6367 5.6055-2.1758 2.7734-3.3672 6.1953-3.3867 9.7227v60.469c-0.007813 8.2812 3.4492 16.188 9.5273 21.809 6.082 5.6211 14.234 8.4453 22.488 7.793z"/>
  <path d="m1049 963.49c-3.6406-3.7031-8.6133-5.7852-13.805-5.7852s-10.164 2.082-13.805 5.7852l-98.109 99.398c-3.1719 3.2227-4.1016 8.0352-2.3555 12.207 1.7461 4.1719 5.8242 6.8906 10.348 6.8945h51.797v25.969c0.0625 5.0859 4.1719 9.1953 9.2578 9.2578h85.805c2.4531 0 4.8047-0.97656 6.5391-2.7148 1.7305-1.7344 2.7031-4.0898 2.6953-6.543v-25.969h51.703c4.5234-0.003907 8.6016-2.7227 10.348-6.8945s0.81641-8.9844-2.3555-12.207z"/>
  <path d="m1049 706.9c-3.6406-3.7031-8.6133-5.7852-13.805-5.7852s-10.164 2.082-13.805 5.7852l-98.109 99.352c-3.1719 3.2227-4.1016 8.0352-2.3555 12.207 1.7461 4.1719 5.8242 6.8906 10.348 6.8945h51.797v25.969c0.0625 5.0859 4.1719 9.1953 9.2578 9.2578h85.805c2.4531 0 4.8047-0.97656 6.5391-2.7148 1.7305-1.7344 2.7031-4.0898 2.6953-6.543v-25.922h51.703c4.5234-0.003907 8.6016-2.7227 10.348-6.8945s0.81641-8.9844-2.3555-12.207z"/>
 </g>
</svg>
