<?xml version="1.0" encoding="UTF-8"?>
<svg width="1200pt" height="1200pt" version="1.1" viewBox="0 0 1200 1200" xmlns="http://www.w3.org/2000/svg">
 <g fill="#fff">
  <path d="m743.65 425.04c-80.977 59.203-135.42 120.26-216.23 175.55-83.18 56.93-279.49 125.98-279.49 125.98-77.227 27.258-140.86 99.961-140.86 99.961s-91.875 106.57-25.031 213.63c28.898 46.242 77.344 67.172 116.25 76.617 41.793 10.34 85.648 8.7148 126.56-4.6875 117.63-39.234 141.12-153.82 141.12-153.82 22.734-99.961 126.33-272.62 126.33-272.62 46.312-78.141 116.62-167.67 174.12-236.44 12.633-15.141-6.8438-35.812-22.758-24.164zm-374.67 411.02c-13.266 34.406-43.711 108.96-76.828 159.09-8.8242 13.461-22.648 22.855-38.414 26.109-1.0781 0.21094-2.2031 0.42188-3.3281 0.58594-51.562 8.1094-89.414-49.219-61.617-93.445 2.168-3.4414 4.5117-6.7656 7.0312-9.9609 32.156-40.992 122.2-78.984 161.46-94.102 3.3438-1.293 7.1367-0.49219 9.668 2.0469s3.3281 6.332 2.0273 9.6719z"/>
  <path d="m757.45 613.38c2.8086 0.77344 5.7695 0.77344 8.5781 0 2.0508-0.46094 3.9414-1.457 5.4844-2.8828 3.293-2.5312 5.5078-6.2148 6.1914-10.312 0.67969-4.0977-0.21484-8.3047-2.5117-11.766-3.0195-5.082-8.4805-8.2109-14.391-8.25-4.3789 0.09375-8.5664 1.832-11.719 4.875-7.2656 7.2656-6.2812 21.258 3.375 26.203 1.5391 0.96875 3.2266 1.6914 4.9922 2.1328z"/>
  <path d="m1135.5 558.07c-0.9375-4.2188-1.9688-8.4141-3.0938-12.586v-0.58594c-1.2578-9.3867-3.0664-18.691-5.4141-27.867-5.1875-21.117-12.426-41.676-21.609-61.383-12.168-26.613-26.777-52.043-43.641-75.961-14.273-20.367-28.945-42.914-47.555-59.578-11.977-10.734-31.172 3.6328-22.102 17.039 31.266 46.195 47.18 77.625 53.461 103.34 1.2734 4.8672-1.168 9.9336-5.7656 11.977-4.5938 2.043-9.9922 0.45312-12.75-3.75-22.617-34.172-56.25-84.633-62.297-92.016-34.875-42.492-70.781-89.18-112.17-125.41-25.945-22.688-73.828-55.359-103.12-74.789-2.8789-1.9453-4.0781-5.5938-2.9141-8.8672 1.168-3.2734 4.3984-5.3438 7.8594-5.0312 4.5586 0.26953 9.0859 0.95312 13.523 2.0391 69.398 22.758 96.094 52.758 97.289 53.438 22.945 12.773 38.414-0.46875 22.594-25.641-14.438-22.875-74.227-55.383-74.484-55.477-9.6211-5.0234-19.637-9.2383-29.953-12.609-23.297-7.9219-48.68-11.227-73.195-12.281-23.438-0.98438-45.539-0.49219-68.859-1.2891-19.613-0.85938-39.102-3.543-58.219-8.0156-0.16406 0-46.359-9.0234-65.977-5.4141-32.367 5.9531-60.047 26.695-79.875 52.242-20.906 26.789-30.094 56.836-43.102 87.562-4.875 11.531-18.75 39.844-34.242 29.344s-24.445-45.727-41.648-36.539c-11.32 6.0234-17.086 32.133 15.188 104.74 15.07 33.891 39.188 66.352 60.938 96.445 17.875 24.852 37.551 48.352 58.875 70.312 22.031 22.664 48.305 52.523 82.758 50.742h0.21094c4.3516-0.46094 8.0859-3.3125 9.6797-7.3906 1.5898-4.0781 0.77734-8.7031-2.1094-11.992-15.188-17.367-52.031-67.406-60.656-151.92-2.3438-22.523 3.5391-43.688 12.398-64.5 10.805-25.406 33.891-29.461 20.555 9.1172-7.5703 21.867-5.3438 45.609-1.1719 68.391 3.625 20.16 11.285 39.383 22.523 56.508 10.148 15.164 24.539 33.891 42.938 38.625 8.9531 2.3438 22.711-9.1172 0.46875-37.758-8.0156-10.312-11.953-23.109-15.844-35.578-6.375-20.344-13.289-49.734 0.70312-68.672 7.1719-9.7266 19.922-14.977 33.516-17.695 3.3633-0.67578 6.8477 0.30078 9.375 2.625l0.39844 0.375c2.0859 1.9648 3.2734 4.7031 3.2812 7.5703 0.35547 19.852 6.9102 39.094 18.75 55.031 9.6367 13.488 21.598 25.152 35.32 34.453 2.6719 1.7109 21.375 13.078 23.578 3.9141 1.9219-7.9219-3.2812-13.383-7.9922-19.406-8.1562-10.477-17.016-20.391-24.141-31.617-9.1992-13.691-13.824-29.945-13.219-46.43 1.2422-3.7734 3.6094-4.0547 8.9297-5.6719 0.98437-0.28125 1.9922-0.51562 2.9766-0.77344 4.7148 1.0625 9.3398 2.4961 13.828 4.2891 9.8438 3.9375 58.477 33.75 73.078 45.68 23.273 18.984 45.82 38.883 67.266 59.906 17.367 17.062 34.359 34.641 50.531 52.875 10.992 12.422 27.117 26.156 26.789 43.266-0.23438 13.102-19.031 26.766-38.648 21.094-21.703-6.2109-25.148-14.602-42.938-17.883-3.9492-0.94531-8.0508 0.8125-10.098 4.3203-2.0469 3.5078-1.5508 7.9414 1.2148 10.914 15.188 17.297 29.32 27.352 51.375 33.961 15.633 4.6875 37.617 4.1953 51.352-5.1562 1.1289-0.80859 2.5391-1.1055 3.8984-0.82422 1.3555 0.27734 2.5352 1.1133 3.25 2.3008 2.5352 4.1367 4.7812 8.4453 6.7266 12.891 1.1328 2.8008 2.082 5.6758 2.8359 8.6016 0 0.39844 7.8984 28.336-23.133 43.336-18.633 9.0234-39.961-0.67969-56.461-10.922-15.984-9.9141-30.469 11.719-19.219 24.914 29.062 33.492 80.109 47.273 117.98 19.852 5.1211-3.6992 9.7422-8.0391 13.758-12.914 1.418-1.668 3.7656-2.1992 5.7656-1.3047 1.9961 0.89844 3.1602 3.0039 2.8594 5.1719-0.42969 3.4492-1.125 6.8555-2.0859 10.195-8.1094 28.125-39.844 54.656-66.188 54.375-45.648-0.63672-90.273-13.59-129.16-37.5-20.156-12-43.008-33.562-62.508-46.594-14.25-9.5391-27.82 10.922-17.484 22.641 0.63281 0.72656 37.992 42.188 56.25 60.539 16.406 16.406 32.531 33.234 50.883 47.578 37.148 29.039 82.031 38.906 128.53 40.312 44.859 1.3594 90.727-6.2344 130.97-26.719 21.516-10.969 42.656-27.211 55.945-47.766l0.25781-0.375c18.789-22.613 31.16-49.859 35.812-78.891 4.8984-31.172 2.6719-62.789-4.1953-93.492z"/>
  <path d="m948.87 206.67c-1.6172 5.7891-1.6797 11.902-0.17969 17.727 1.4961 5.8203 4.5 11.145 8.7109 15.438 5.8594 5.9688 13.703 9.5781 22.051 10.156 8.3438 0.57422 16.609-1.9297 23.23-7.0391 17.254-13.297 32.234-29.301 44.367-47.391l42.797-63.844c12.234-18.234-9.9375-39.844-27.82-27.117l-82.688 58.758c-14.816 10.523-25.57 25.812-30.469 43.312z"/>
 </g>
</svg>
