<?xml version="1.0" encoding="UTF-8" standalone="no"?>
<!DOCTYPE svg PUBLIC "-//W3C//DTD SVG 1.1//EN" "http://www.w3.org/Graphics/SVG/1.1/DTD/svg11.dtd">
<svg width="100%" height="100%" viewBox="0 0 493 512" version="1.1" xmlns="http://www.w3.org/2000/svg" xmlns:xlink="http://www.w3.org/1999/xlink" xml:space="preserve" xmlns:serif="http://www.serif.com/" style="fill-rule:evenodd;clip-rule:evenodd;stroke-linejoin:round;stroke-miterlimit:2;">
    <g transform="matrix(1,0,0,1,-89.02,-69.1643)">
        <g transform="matrix(0.482284,0,0,0.482284,46.0871,35.8075)">
            <path d="M867.91,350.58C867.91,357.607 862.211,363.307 855.183,363.307C848.155,363.307 842.456,357.608 842.456,350.58C842.456,343.552 848.155,337.853 855.183,337.853C862.211,337.853 867.91,343.552 867.91,350.58" style="fill:white;fill-rule:nonzero;"/>
            <path d="M1103,349.22C1101.11,320.443 1086.2,294.099 1062.5,277.669C1038.8,261.235 1008.9,256.517 981.289,264.845C975.125,266.646 968.496,265.947 962.844,262.9C942.336,252.048 910.953,228.259 915.219,185.392C919.906,138.892 939.172,117.611 948.992,109.665C951.844,107.399 952.496,103.333 950.492,100.29C945.926,92.692 942.816,84.306 941.328,75.563C940.613,71.864 937.383,69.184 933.617,69.164L891.711,69.164C889.457,69.16 887.359,70.309 886.149,72.211C884.938,74.11 884.781,76.496 885.734,78.539C888.899,86.016 890.633,101.836 883.953,114C875.164,132.23 871.133,152.387 872.234,172.594C872.445,176.087 871.066,179.485 868.48,181.84C865.891,184.196 862.379,185.251 858.922,184.712C841.274,181.852 814.063,169.735 815.164,122.321C815.164,122.321 816.617,93.704 803.094,76.032C799.793,71.75 794.691,69.25 789.289,69.258L636.409,69.258C633.678,69.266 631.272,71.055 630.483,73.668C629.69,76.282 630.698,79.102 632.963,80.625C660.08,98.508 707.541,139.219 729.361,214.995C730.154,217.741 731.748,220.187 733.94,222.019C736.135,223.855 738.822,224.991 741.666,225.284C773.283,228.495 873.406,241.972 922.346,286.386C925.436,289.168 927.491,292.91 928.182,297.007C928.87,301.109 928.151,305.32 926.143,308.956C913.674,331.085 910.62,357.296 917.674,381.698C924.725,406.1 941.291,426.643 963.643,438.706C912.362,444.988 884.799,414.776 871.416,391.433C869.928,388.914 866.901,387.746 864.108,388.617C861.315,389.488 859.486,392.172 859.697,395.09C860.447,407.824 863.764,420.278 869.447,431.699C870.842,434.199 871.393,437.085 871.018,439.925C868.674,453.448 856.229,459.284 846.01,455.113C826.237,447.043 807.151,437.379 788.94,426.215C764.987,411.379 762.362,385.106 763.018,370.34C763.311,364.161 758.854,358.77 752.729,357.895L708.502,351.497C704.189,350.864 699.783,351.497 695.822,353.325C666.513,366.618 635.955,376.973 604.603,384.239C595.243,386.594 585.556,387.383 575.939,386.583C553.345,384.239 539.048,363.31 543.291,340.997C545.806,328.892 546.06,316.423 544.041,304.224C543.373,300.704 540.384,298.095 536.806,297.903C533.228,297.716 529.982,299.997 528.947,303.427C523.345,321.216 510.877,340.927 489.385,350.443C484.119,353.072 478.229,354.181 472.369,353.654C495.639,326.986 503.119,290.025 492.053,256.408C480.987,222.791 453.018,197.502 418.459,189.869C383.9,182.232 347.877,193.388 323.682,219.217C319.276,223.912 312.893,226.221 306.502,225.428C286.635,223.139 267.424,216.932 249.971,207.17C244.842,204.15 238.362,204.724 233.846,208.599C220.205,220.505 193.135,251.466 177.854,318.759C177.237,321.521 175.885,324.064 173.948,326.127C172.01,328.185 169.557,329.689 166.838,330.478L135.502,339.478C131.342,340.701 128.483,344.517 128.471,348.853L128.471,391.556C128.455,393.15 129.506,394.556 131.037,394.994C132.569,395.431 134.205,394.794 135.034,393.431L151.886,366.454C153.55,363.794 156.206,361.911 159.268,361.228L200.307,352.11C204.175,351.243 206.944,347.845 207.01,343.884C207.221,333.126 209.214,311.259 221.072,291.759C235.978,267.126 267.736,264.571 287.33,280.415C293.127,285.341 296.768,292.341 297.478,299.915C298.779,311.216 302.006,322.212 307.018,332.423C292.791,356.118 246.479,423.501 154.958,473.043C152.465,474.355 150.399,476.347 148.993,478.785C147.587,481.222 146.899,484.012 147.012,486.824C148.067,508.363 158.731,559.48 193.887,604.554C193.887,604.554 227.028,651.077 288.715,662.093C292.438,662.698 296.121,660.808 297.797,657.429C299.477,654.054 298.758,649.976 296.028,647.374C276.762,629.022 249.997,596.655 244.184,554.351C242.965,545.812 245.895,537.206 252.067,531.183C258.242,525.163 266.922,522.449 275.426,523.882C280.441,524.82 285.316,526.398 289.934,528.57C298.543,532.62 307.598,535.652 316.911,537.593C335.38,541.202 365.099,545.14 390.669,539.937C397.657,538.503 404.896,540.699 409.911,545.773C427.677,563.773 469.747,607.203 504.2,648.643C506.75,651.725 511.164,652.498 514.61,650.459C518.051,648.424 519.504,644.182 518.028,640.463C501.926,600.01 477.598,543.432 451.419,498.853C449.712,495.939 447.133,493.634 444.047,492.259C440.962,490.884 437.524,490.509 434.215,491.189C404.567,497.236 323.475,509.751 291.575,473.564C291.575,473.564 269.614,448.58 296.099,423.572C315.177,405.595 351.927,391.134 371.099,384.455C385.329,388.244 400.224,388.849 414.716,386.236C428.88,383.908 443.31,388.439 453.599,398.447C476.072,420.193 494.486,445.771 507.974,473.986C509.396,476.994 511.595,479.572 514.341,481.447C517.091,483.326 520.286,484.439 523.607,484.674L573.482,488.33C577.353,488.65 581.228,487.732 584.544,485.705C622.888,461.705 665.263,461.447 691.794,464.611C708.407,466.689 724.36,472.412 738.505,481.369C791.4,514.521 830.052,566.181 846.925,626.279C847.807,629.462 850.585,631.755 853.882,632.013C857.175,632.271 860.28,630.439 861.643,627.427C907.416,527.63 1009.53,462.967 1046.35,442.267C1051.06,440.209 1055.59,437.771 1059.9,434.978C1074.08,425.83 1085.56,413.052 1093.13,397.97C1100.71,382.892 1104.12,366.06 1103,349.22L1103,349.22ZM390.01,315.236C380.584,315.244 371.541,311.502 364.873,304.841C358.205,298.177 354.459,289.138 354.455,279.712C354.451,270.286 358.197,261.243 364.861,254.579C371.525,247.915 380.568,244.169 389.994,244.173C399.42,244.177 408.459,247.923 415.123,254.591C421.783,261.259 425.525,270.302 425.518,279.728C425.51,289.142 421.768,298.166 415.108,304.822C408.452,311.474 399.424,315.213 390.01,315.213L390.01,315.236ZM994.51,377.345C985.088,377.345 976.049,373.603 969.385,366.939C962.721,360.275 958.979,351.236 958.979,341.814C958.979,332.392 962.721,323.353 969.385,316.689C976.049,310.025 985.088,306.283 994.51,306.283C1003.93,306.283 1012.97,310.025 1019.63,316.689C1026.3,323.353 1030.04,332.392 1030.04,341.814C1030.05,351.24 1026.31,360.279 1019.64,366.947C1012.98,373.611 1003.94,377.353 994.51,377.345Z" style="fill:white;fill-rule:nonzero;"/>
            <path d="M359.39,125.25C365.085,120.984 371.249,116.555 377.695,112.242C392.136,102.582 409.484,98.234 426.777,99.945C444.07,101.652 460.23,109.316 472.5,121.617C474.984,124.148 477.516,126.844 480.047,129.703C482.734,132.754 484.043,136.781 483.664,140.828C483.285,144.879 481.258,148.59 478.051,151.094C474.848,153.598 470.754,154.668 466.735,154.055C433.989,148.961 400.821,147.098 367.712,148.5C362.044,148.762 356.868,145.293 354.958,139.949C353.044,134.61 354.845,128.644 359.391,125.25L359.39,125.25Z" style="fill:white;fill-rule:nonzero;"/>
            <path d="M550.71,195.87C550.71,206.667 541.96,215.417 531.163,215.417C520.366,215.417 511.616,206.667 511.616,195.87C511.616,185.073 520.366,176.323 531.163,176.323C541.96,176.323 550.71,185.073 550.71,195.87" style="fill:white;fill-rule:nonzero;"/>
            <path d="M372.56,674.13C372.56,684.111 364.47,692.2 354.49,692.2C344.51,692.2 336.42,684.11 336.42,674.13C336.42,664.15 344.51,656.06 354.49,656.06C364.471,656.06 372.56,664.15 372.56,674.13" style="fill:white;fill-rule:nonzero;"/>
            <path d="M326.95,974.48L273.044,972.628C265.052,972.347 257.376,975.761 252.232,981.886C230.064,1007.85 204.185,1030.4 175.427,1048.8C171.552,1051.28 166.462,1050.63 163.333,1047.27C160.2,1043.9 159.927,1038.77 162.677,1035.09C185.739,1004.11 217.075,957.253 234.232,911.039C236.283,905.516 241.56,901.859 247.451,901.875L270.349,901.875C274.571,901.871 278.571,903.762 281.247,907.031C289.661,917.343 309.911,940.898 332.809,958.148C335.977,960.547 337.219,964.726 335.879,968.468C334.535,972.21 330.922,974.644 326.949,974.484L326.95,974.48Z" style="fill:white;fill-rule:nonzero;"/>
            <path d="M147.38,1101.6C147.38,1117.72 134.318,1130.78 118.2,1130.78C102.083,1130.78 89.02,1117.72 89.02,1101.6C89.02,1085.48 102.082,1072.42 118.2,1072.42C134.317,1072.42 147.38,1085.48 147.38,1101.6" style="fill:white;fill-rule:nonzero;"/>
            <path d="M1040.2,939.84C1037.5,898.563 1017.43,860.363 984.973,834.72C952.516,809.075 910.707,798.388 869.923,805.31C864.79,806.193 859.564,804.365 856.099,800.474C852.634,796.584 851.419,791.185 852.884,786.185C853.974,782.697 855.646,779.416 857.83,776.482C876.205,751.123 962.03,749.412 1027.54,781.17C1029.19,782.005 1031.2,781.517 1032.29,780.021C1033.38,778.525 1033.22,776.463 1031.92,775.146C1019.71,762.466 1003.8,745.521 989.734,729.677C987.512,727.15 984.312,725.697 980.945,725.693C947.789,729.943 914.117,727.505 881.922,718.521C879.387,718.521 876.918,719.345 874.891,720.865C863.172,729.888 814.657,766.123 750.671,720.466C746.706,717.626 741.507,717.185 737.124,719.318C721.327,726.982 681.249,743.88 636.344,742.756C636.344,742.756 566.992,740.951 536.36,742.31C531.337,742.549 526.305,741.998 521.454,740.67C488.349,731.553 455.981,719.936 424.634,705.912C422.193,704.771 419.282,705.592 417.794,707.842C416.31,710.092 416.697,713.088 418.704,714.888C440.642,734.786 470.712,761.318 495.509,780.279C500.572,784.154 506.9,785.994 513.251,785.436C520.751,784.826 532.235,783.959 546.368,783.092C556.798,782.42 566.993,786.381 574.235,793.92C589.297,809.115 601.747,826.697 611.079,845.951C612.365,848.83 614.755,851.068 617.712,852.162C628.54,856.006 666.931,879.256 697.4,901.639C700.631,904.166 705.232,903.924 708.181,901.072C711.13,898.225 711.533,893.635 709.119,890.318C694.092,869.228 674.451,851.841 651.697,839.482C646.673,836.357 642.396,832.174 639.158,827.224C635.587,822.33 632.615,817.025 630.298,811.427C627.568,804.556 628.486,796.771 632.736,790.72C636.986,784.67 644.002,781.166 651.392,781.404C680.923,782.341 710.501,784.826 735.392,789.912C735.392,789.912 771.908,798.982 791.642,827.014C793.763,830.045 794.759,833.725 794.458,837.416C794.153,841.103 792.568,844.572 789.978,847.217C763.244,874.49 748.287,911.166 748.33,949.357C748.326,954.142 745.369,958.431 740.9,960.138C704.314,974.2 635.43,978.208 524.83,905.341C520.775,902.649 515.92,901.426 511.072,901.872C487.025,904.216 412.634,917.95 354.772,1000.89C354.772,1000.89 302.53,1078.24 245.672,1097.69C245.672,1097.69 224.578,1105.12 200.602,1112.48C196.879,1113.62 194.52,1117.28 195.024,1121.14C195.532,1125 198.75,1127.93 202.641,1128.07L270.774,1130.41C275.192,1130.58 279.532,1129.21 283.055,1126.54C308.485,1107.35 417.045,1027.29 468.605,1019.48C509.902,1013.23 585.605,1018.43 626.715,1022.04C631.094,1022.44 635.168,1024.46 638.129,1027.71C641.094,1030.96 642.731,1035.21 642.723,1039.61C642.715,1044 641.059,1048.24 638.082,1051.48C627.687,1063.15 614.16,1071.59 599.105,1075.78C595.039,1076.88 590.847,1077.42 586.636,1077.4C572.081,1077.4 533.831,1075.57 500.245,1058.65C496.194,1056.68 491.327,1057.63 488.315,1060.98C485.304,1064.33 484.874,1069.27 487.261,1073.09C497.949,1089.98 513.37,1109.09 534.136,1122.3C537.007,1124.23 540.323,1125.41 543.768,1125.7L607.963,1130.25C612.901,1130.61 617.807,1129.23 621.838,1126.36C641.854,1112.06 710.338,1068.42 799.708,1069.62C807.154,1069.82 814.419,1071.94 820.802,1075.78C851.513,1093.62 887.665,1099.67 922.512,1092.81C957.36,1085.95 988.516,1066.64 1010.17,1038.5C1031.83,1010.35 1042.5,975.285 1040.2,939.844L1040.2,939.84ZM898.99,1000.33C886.388,1000.34 874.299,995.336 865.385,986.43C856.471,977.52 851.463,965.434 851.459,952.832C851.455,940.23 856.463,928.141 865.373,919.23C874.283,910.32 886.373,905.312 898.975,905.316C911.577,905.32 923.663,910.328 932.573,919.242C941.479,928.156 946.483,940.246 946.475,952.847C946.444,965.421 941.428,977.468 932.526,986.347C923.624,995.226 911.565,1000.21 898.991,1000.21L898.99,1000.33Z" style="fill:white;fill-rule:nonzero;"/>
            <path d="M1111,850.57C1111,863.5 1100.52,873.984 1087.59,873.984C1074.66,873.984 1064.17,863.5 1064.17,850.57C1064.17,837.64 1074.66,827.156 1087.59,827.156C1100.52,827.156 1111,837.64 1111,850.57" style="fill:white;fill-rule:nonzero;"/>
        </g>
    </g>
</svg>
