<?xml version="1.0" encoding="UTF-8"?>
<svg width="1200pt" height="1200pt" version="1.1" viewBox="0 0 1200 1200" xmlns="http://www.w3.org/2000/svg">
 <g fill="#fff">
  <path d="m1053.4 939.84c-3.6406-3.7031-8.6133-5.7852-13.805-5.7852-5.1914 0-10.164 2.082-13.805 5.7852l-98.109 99.398c-3.1797 3.2188-4.1133 8.0312-2.3633 12.203 1.7461 4.1719 5.832 6.8828 10.355 6.875h51.797v25.992c0.0625 5.0859 4.1719 9.1953 9.2578 9.2578h85.758c2.4531 0 4.8047-0.97656 6.5391-2.7148 1.7305-1.7344 2.7031-4.0898 2.6953-6.543v-25.992h51.797c4.5234 0.007813 8.6094-2.7031 10.355-6.875 1.75-4.1719 0.81641-8.9844-2.3633-12.203z"/>
  <path d="m1053.4 683.25c-3.6406-3.7031-8.6133-5.7852-13.805-5.7852-5.1914 0-10.164 2.082-13.805 5.7852l-98.109 99.398c-3.1797 3.2188-4.1133 8.0312-2.3633 12.203 1.7461 4.1719 5.832 6.8828 10.355 6.875h51.797v25.992c0.0625 5.0859 4.1719 9.1953 9.2578 9.2578h85.758c2.4531 0 4.8047-0.97656 6.5391-2.7148 1.7305-1.7344 2.7031-4.0898 2.6953-6.543v-25.992h51.797c4.5234 0.007813 8.6094-2.7031 10.355-6.875 1.75-4.1719 0.81641-8.9844-2.3633-12.203z"/>
  <path d="m131.25 551.55c19.383 17.766 36.797 34.828 52.43 51.094 73.445 76.039 123.57 171.52 144.45 275.16 3.5742 18.773 8.8438 37.188 15.75 55.008 7.6406 19.074 20.926 35.355 38.082 46.668 17.152 11.309 37.352 17.105 57.895 16.613 57-1.2188 97.43-4.3359 125.18-7.5938 19.359-2.3438 50.859 0.35156 71.484 2.6016 16.172 1.7656 32.391 2.8984 48.656 3.3984l66.023 2.1094c20.188 0 39.551-8.0156 53.828-22.285 14.281-14.273 22.309-33.629 22.32-53.816 0-1.7109 0-3.3984-0.16406-5.0859-2.5547-39.047-36.234-68.812-75.375-68.812h-101.79c-16.945-0.03125-33.746-3.0859-49.617-9.0234-17.023-4.1562-33.484-10.34-49.031-18.422-5.9453-3.0234-10.57-8.1211-13.004-14.328-2.4336-6.2109-2.5-13.098-0.19141-19.352 2.7773-7.0586 8.4375-12.598 15.559-15.215 7.1172-2.6211 15.016-2.0742 21.707 1.5039 12.48 6.5508 25.742 11.492 39.469 14.695 4.5547 1.1172 9.3047-0.83984 11.758-4.8359 2.4492-3.9961 2.0352-9.1211-1.0234-12.672l-5.3438-6.2109c-12.039-13.961-19.785-31.102-22.312-49.359l-17.695-127.95c-1.0117-7.3164-2.5273-14.551-4.5469-21.656l-26.133-92.227c-9.4609-33.402-9.8242-68.723-1.0508-102.31 8.7734-33.59 26.363-64.223 50.949-88.73l134.34-133.97c4.457-4.3945 6.9688-10.391 6.9805-16.648s-2.4805-12.262-6.9219-16.672-10.465-6.8594-16.723-6.8047h-368.3c-13.957-0.0625-26.977 7.0117-34.523 18.75-8.043 12.566-17.266 24.336-27.539 35.156-17.461 28.125-48.188 83.953-63.539 150.21-1.6523 7.2031-6.2422 13.391-12.652 17.066-6.4141 3.6758-14.07 4.5078-21.121 2.293-13.477-4.125-20.953-18.75-17.742-32.391 5.6289-23.773 12.969-47.105 21.961-69.82 1.6914-4.293 0.87891-9.168-2.1133-12.68-2.9922-3.5117-7.6758-5.0898-12.184-4.1016-43.383 9.1172-102.68 36.562-126.26 116.88-39.117 133.01 78.07 223.76 78.07 223.76z"/>
 </g>
</svg>
