<?xml version="1.0" encoding="UTF-8"?>
<svg width="1200pt" height="1200pt" version="1.1" viewBox="0 0 1200 1200" xmlns="http://www.w3.org/2000/svg">
 <g fill="#fff">
  <path d="m908.58 168.75c-72.113-52.133-156.23-85.188-244.55-96.094-6.7812-0.82812-13.598 1.2461-18.77 5.707-5.1719 4.4609-8.2188 10.902-8.3945 17.73-3.2344 119.67 0.53906 260.55 2.625 323.55 0.12109 4.0625 1.3633 8.0117 3.5859 11.41 2.2266 3.4023 5.3477 6.1211 9.0234 7.8555 24.848 11.594 46.453 29.137 62.906 51.07 2.9961 4.2031 7.5391 7.043 12.629 7.8984 5.0898 0.85156 10.309-0.35547 14.512-3.3516l0.375-0.30469c11.086-8.7422 12.844-24.891 5.1328-36.727l-0.65625-0.98438c-2.957-4.4336-4.4688-9.6719-4.3242-14.996 0.14062-5.3281 1.9297-10.48 5.1211-14.746l166.27-223.78c3.8828-5.2422 5.4922-11.832 4.4609-18.273-1.0352-6.4453-4.6172-12.199-9.9453-15.969zm-185.16 141.02c-5.5742-1.0469-10.504-4.2656-13.703-8.9453-3.1992-4.6836-4.4062-10.441-3.3594-16.016l5.2266-27.727c0.94141-5.6797 4.1328-10.738 8.8516-14.035 4.7148-3.3008 10.562-4.5586 16.219-3.4922 5.6602 1.0664 10.648 4.3672 13.84 9.1562 3.1953 4.7852 4.3242 10.66 3.1367 16.293l-5.2266 27.727c-1.0273 5.6016-4.25 10.559-8.9492 13.777-4.6992 3.2148-10.488 4.4219-16.082 3.3555z"/>
  <path d="m861.75 621.94c-5.1602-1.3398-8.5859-6.2266-8.0938-11.535 0.49609-5.3086 4.7656-9.4766 10.086-9.8398l241.2-17.883c6.4766-0.49609 12.484-3.5586 16.691-8.5039 4.207-4.9453 6.2656-11.367 5.7148-17.84-5.8242-72.949-26.762-143.89-61.477-208.31-3.3125-6.1445-9.1094-10.566-15.914-12.133s-13.953-0.125-19.617 3.9531l-274.22 196.88c-3.8945 2.7969-6.9219 6.6367-8.7383 11.074-1.8164 4.4414-2.3438 9.3008-1.5273 14.027 6.7266 39.227-0.85156 79.562-21.352 113.67-2.2031 3.6484-3.2461 7.8828-2.9961 12.137 0.25391 4.2539 1.7891 8.332 4.4023 11.699l121.27 155.62c8.1328 10.453-5.8359 23.672-15.82 14.977l-148.97-129.77c-3.1953-2.7773-7.1523-4.5312-11.359-5.0273-4.207-0.49609-8.4609 0.28125-12.219 2.2383-23.73 12.379-50.109 18.812-76.875 18.75-6.2656-0.019532-12.523-0.37891-18.75-1.0781-3.043 4.3594-4.582 9.5938-4.3828 14.906 0.37891 6.0586 2.9102 11.781 7.1406 16.137s9.875 7.0508 15.922 7.6055l16.406 1.7344c16.781 1.8047 27.656 14.883 26.531 29.742l-21.094 278.11c-0.53125 6.9648 1.9688 13.824 6.8555 18.812 4.8906 4.9922 11.691 7.6328 18.668 7.25 37.051-2.1289 73.773-8.1406 109.57-17.93 6.3594-1.75 11.734-6.0156 14.879-11.812 3.1445-5.8008 3.7891-12.629 1.7852-18.914l-61.43-193.52c-5.2266-16.406 17.719-26.484 26.25-11.461l101.7 179.23c3.168 5.5703 8.4102 9.6602 14.582 11.387 6.1719 1.7266 12.773 0.94141 18.371-2.1758 23.855-13.211 46.656-28.242 68.203-44.953 5.125-3.9453 8.4609-9.7695 9.2773-16.184 0.8125-6.4141-0.96484-12.891-4.9414-17.988l-42.633-54.469c-10.664-13.617 8.3438-30.469 20.602-18.281l48.07 47.766c4.6719 4.6445 11.035 7.1875 17.621 7.0469 6.5859-0.14062 12.832-2.957 17.301-7.7969 63.781-69.004 108.05-153.74 128.25-245.51 1.3398-6.1094 0.27344-12.5-2.9805-17.844-3.25-5.3438-8.4375-9.2266-14.48-10.844zm89.977 189.59-22.711-16.711c-6.1562-4.5273-9.4258-11.992-8.5859-19.586 0.84375-7.5898 5.6719-14.156 12.668-17.227 6.9961-3.0664 15.098-2.168 21.254 2.3594l22.734 16.711c5.9141 4.6172 8.9766 11.988 8.0781 19.438-0.90234 7.4453-5.6328 13.879-12.477 16.953-6.8438 3.0703-14.797 2.3359-20.961-1.9375z"/>
  <path d="m504.7 737.13c-12-6.3008-23.184-14.047-33.305-23.062-2.293-2.0781-5.1484-3.4375-8.207-3.9023-3.0586-0.46875-6.1875-0.023438-8.9961 1.2773l-40.312 18.75c-20.133 9.375-36.633-18.281-18.75-31.5l23.438-17.414c4.5977-3.3789 7.9453-8.1836 9.5195-13.668 1.5742-5.4844 1.2852-11.336-0.82422-16.637-11.555-29.258-14.578-61.191-8.7227-92.098s20.352-59.523 41.805-82.527c21.457-23.004 48.992-39.453 79.418-47.445 5.2266-1.4297 9.875-4.457 13.297-8.6602 3.418-4.2031 5.4414-9.3711 5.7812-14.777l20.062-309.07c0.46875-7.0508-2.1602-13.953-7.1992-18.906-5.0391-4.9531-11.988-7.4648-19.027-6.875-46.34 3.9375-91.961 13.969-135.68 29.836-6.2539 2.2734-11.301 7.0195-13.957 13.117-2.6602 6.1016-2.6953 13.027-0.10547 19.156l87.492 206.77c1.2812 2.9258 0.13281 6.3438-2.6523 7.9062s-6.3008 0.75781-8.1289-1.8594l-134.11-187.29c-3.6445-5.0703-9.0977-8.543-15.234-9.6992-6.1328-1.1562-12.48 0.09375-17.719 3.4883-34.996 22.398-67.246 48.82-96.094 78.727-4.7305 4.8984-7.1836 11.559-6.7656 18.355 0.42188 6.7969 3.6758 13.105 8.9688 17.387l193.66 156.28c3.2109 2.4062 5.2969 6.0234 5.7734 10.008 0.47266 3.9883-0.70703 7.9922-3.2656 11.086-8.0234 9.7734-15.398 20.059-22.078 30.797-1.9805 3.2227-5.1289 5.5547-8.7891 6.5117-3.6602 0.95703-7.5469 0.46094-10.852-1.3789l-219.14-122.13c-5.8398-3.2461-12.758-3.9375-19.125-1.9219-6.3711 2.0195-11.625 6.5703-14.531 12.586-19.293 39.883-33.465 82.047-42.188 125.48-1.0664 5.4336-0.089843 11.07 2.7422 15.828 2.8359 4.7578 7.3242 8.3008 12.609 9.9531l177.61 56.25c25.547 8.8594 21.773 46.102-5.0391 49.688l-172.34 22.898c-6.3945 0.83984-12.188 4.1914-16.098 9.3164-3.9102 5.1289-5.6172 11.602-4.7383 17.988 5.1094 35.766 24.188 91.969 35.812 124.22 2.3594 6.5 7.2734 11.754 13.605 14.539 6.3281 2.7852 13.523 2.8594 19.91 0.20313l178.12-73.898c19.547-8.1094 33.75 19.266 15.867 30.469l-162.63 102.94c-5.6445 3.5781-9.5625 9.3242-10.836 15.883-1.2734 6.5586 0.21484 13.352 4.1094 18.781 38.852 54.066 87.48 100.39 143.37 136.57 5.5273 3.5742 12.27 4.75 18.68 3.2617 6.4102-1.4883 11.941-5.5156 15.328-11.16l166.85-278.32c2.2188-3.75 2.7891-8.25 1.5781-12.434-1.2148-4.1836-4.0977-7.6836-7.9766-9.668zm-185.16 120.63 21.094-18.75c4.2344-3.7695 9.793-5.7031 15.453-5.3789 5.6602 0.32812 10.957 2.8828 14.734 7.1133 3.7695 4.2383 5.7031 9.8008 5.3789 15.465-0.32422 5.6641-2.8828 10.965-7.1133 14.746l-21.094 18.75c-5.7617 4.5781-13.469 5.875-20.41 3.4375-6.9414-2.4414-12.145-8.2773-13.773-15.453-1.6289-7.1758 0.54688-14.684 5.7539-19.883z"/>
 </g>
</svg>
