<?xml version="1.0" encoding="UTF-8"?>
<svg width="1200pt" height="1200pt" version="1.1" viewBox="0 0 1200 1200" xmlns="http://www.w3.org/2000/svg">
 <g fill="#fff">
  <path d="m423.91 821.02c61.895 43.863 119.03 94.094 170.46 149.86 5.0898 5.5859 12.297 8.7656 19.852 8.7656 7.5547 0 14.762-3.1797 19.852-8.7656 51.418-55.773 108.54-106 170.44-149.86 0 0 147.84-102.47 137.67-250.34-10.172-147.87-140.62-169.9-140.62-169.9s-96.094-23.438-168.56 50.789c-4.9453 5.0195-11.699 7.8477-18.75 7.8477s-13.805-2.8281-18.75-7.8477c-72.492-74.109-168.66-50.789-168.66-50.789s-130.29 21.961-140.62 169.8 137.7 250.43 137.7 250.43z"/>
  <path d="m867.19 994.95c67.969 24 94.922 85.547 103.64 133.59 1.6172 9.0234 16.406 8.9297 18.445 0 11.297-48.023 27.961-105.73 103.64-133.59 7.0312-2.625 7.7812-14.789 0.53906-16.992-37.758-11.578-87.773-33.375-104.11-127.55-1.5938-9.2578-16.406-9.1406-18.586 0-17.625 76.219-61.219 112.12-104.11 127.55-7.1484 2.5547-6.6328 14.461 0.53906 16.992z"/>
  <path d="m333.35 199.22c-37.781-11.578-87.773-33.375-104.11-127.52-1.6172-9.375-16.406-9.1641-18.586 0-17.625 76.195-61.219 112.08-104.11 127.52-7.0312 2.5547-6.6094 14.461 0.51562 16.992 67.969 24 94.922 85.547 103.64 133.59 1.6406 9 16.406 8.9062 18.469 0 11.273-48.047 27.938-105.75 103.64-133.59 7.0312-2.6484 7.7578-14.812 0.53906-16.992z"/>
  <path d="m859.66 231.14c-5.2031 1.875-4.8281 10.594 0.39844 12.422 49.734 17.555 69.422 62.578 75.797 97.711 1.1953 6.6094 11.977 6.5391 13.523 0 8.25-35.156 20.438-77.344 75.797-97.711 5.2031-1.8984 5.6719-10.805 0.39844-12.422-27.633-8.4609-64.195-24.398-76.148-93.281-1.1953-6.7734-12.07-6.7031-13.617 0-12.891 55.758-44.766 82.008-76.148 93.281z"/>
 </g>
</svg>
