<?xml version="1.0" encoding="UTF-8" standalone="no"?>
<!DOCTYPE svg PUBLIC "-//W3C//DTD SVG 1.1//EN" "http://www.w3.org/Graphics/SVG/1.1/DTD/svg11.dtd">
<svg width="100%" height="100%" viewBox="0 0 507 512" version="1.1" xmlns="http://www.w3.org/2000/svg" xmlns:xlink="http://www.w3.org/1999/xlink" xml:space="preserve" xmlns:serif="http://www.serif.com/" style="fill-rule:evenodd;clip-rule:evenodd;stroke-linejoin:round;stroke-miterlimit:2;">
    <g transform="matrix(1,0,0,1,-58.9305,-52.697)">
        <g transform="matrix(0.467733,0,0,0.467733,31.3667,28.0489)">
            <path d="M1139.6,222.66C1139.1,220.879 1137.78,219.445 1136.04,218.805C1134.31,218.164 1132.37,218.394 1130.83,219.426L1098.26,241.41C1094.99,243.667 1092.42,246.8 1090.85,250.445C1089.27,254.093 1088.76,258.109 1089.35,262.035C1089.8,265.359 1089.99,268.711 1089.94,272.066C1088.79,337.691 1083.44,503.396 1058.9,626.326C1055.44,643.861 1047.55,660.224 1035.98,673.857C998.366,717.201 953.647,753.834 903.753,782.187C901.066,783.652 899.968,786.945 901.238,789.73C902.507,792.519 905.71,793.847 908.581,792.781C985.315,764.211 1050.92,718.742 1081.22,695.843C1092.7,687.116 1100.24,674.183 1102.17,659.89C1127.67,472.2 1137.52,312.29 1141.03,237.19C1141.3,232.303 1140.82,227.4 1139.6,222.659L1139.6,222.66Z" style="fill:white;fill-rule:nonzero;"/>
            <path d="M1069.7,208.9L1095.69,191.416C1097.67,190.092 1098.64,187.697 1098.15,185.369C1097.66,183.037 1095.81,181.24 1093.46,180.822L1093.33,180.822C965.265,162.892 887.445,89.955 861.295,61.432C858.162,57.971 854.174,55.397 849.729,53.971C845.287,52.542 840.545,52.311 835.983,53.299L828.647,54.917C824.991,55.776 821.983,58.362 820.584,61.846C819.186,65.331 819.569,69.276 821.616,72.424C822.202,73.338 822.741,74.299 823.256,75.284C844.748,115.62 899.686,185.444 1026.18,199.834C1035.8,200.92 1045.04,204.17 1053.22,209.349C1055.71,210.888 1058.6,211.666 1061.53,211.588C1064.45,211.51 1067.3,210.576 1069.7,208.904L1069.7,208.9Z" style="fill:white;fill-rule:nonzero;"/>
            <path d="M868.57,741.12C869.801,744.597 872.523,747.339 875.988,748.597C879.457,749.854 883.304,749.491 886.476,747.612C929.343,722.007 967.855,689.733 1000.57,652.01C1008.39,642.741 1013.72,631.635 1016.06,619.737C1040.01,499.687 1045.26,337.127 1046.53,271.477C1046.69,263.762 1043.97,256.266 1038.91,250.438C1033.86,244.614 1026.81,240.876 1019.15,239.954C874.122,223.548 812.222,138.424 790.662,97.904C788.381,93.646 784.131,90.81 779.322,90.338C774.517,89.869 769.794,91.826 766.732,95.561C714.373,158.584 639.512,177.944 598.502,183.897C590.111,185.178 582.459,189.436 576.943,195.889C571.427,202.342 568.412,210.565 568.454,219.053C568.618,316.155 579.071,415.253 588.704,486.243C589.353,491.043 592.755,495.016 597.4,496.391C608.197,499.656 618.72,503.156 628.97,506.891C632.278,508.129 635.993,507.519 638.735,505.293C641.478,503.066 642.837,499.555 642.306,496.062C633.005,435.8 628.466,374.902 628.736,313.932C628.79,301.174 632.88,288.764 640.42,278.475C647.963,268.186 658.565,260.545 670.713,256.651C697.221,248.144 735.541,231.573 767.51,200.94C770.826,197.757 775.322,196.101 779.912,196.366C784.501,196.632 788.771,198.8 791.697,202.347C792.165,202.886 838.572,257.894 929.787,291.105C941.185,295.374 951.045,302.964 958.092,312.89C965.139,322.815 969.053,334.624 969.326,346.792C970.404,392.308 970.896,480.382 962.037,558.812C959.111,584.851 946.576,608.863 926.881,626.148C904.272,646.027 880.162,664.128 854.764,680.289C848.943,683.976 846.865,691.477 849.959,697.633C857.01,711.754 863.225,726.281 868.568,741.133L868.57,741.12Z" style="fill:white;fill-rule:nonzero;"/>
            <path d="M921.09,550.05C929.223,478.167 928.754,397 927.746,355.03C927.66,349.932 926.051,344.979 923.129,340.803C920.203,336.627 916.098,333.42 911.34,331.592C866.18,315.424 824.496,290.83 788.5,259.123C785.902,256.807 782.578,255.463 779.098,255.322C775.621,255.182 772.199,256.252 769.422,258.35C744.742,276.452 717.258,290.389 688.07,299.6C682.941,301.244 678.461,304.463 675.273,308.803C672.082,313.143 670.343,318.377 670.304,323.764C670.054,387.909 675.609,451.944 686.898,515.084C688.093,522.056 692.41,528.1 698.617,531.49C736.144,551.455 769.726,578.076 797.734,610.052C800.078,612.583 805.703,618.958 813.086,628.802C816.692,633.641 822.028,636.899 827.977,637.903C833.93,638.911 840.036,637.579 845.032,634.192C863.762,621.622 881.661,607.852 898.61,592.965C911.176,581.949 919.188,566.653 921.087,550.051L921.09,550.05Z" style="fill:white;fill-rule:nonzero;"/>
            <path d="M358.41,1147.3L704.77,1147.3C725.086,1147.29 744.141,1137.44 755.887,1120.86C950.297,846.762 762.051,650.682 762.051,650.682C625.551,491.702 347.351,515.912 347.351,515.912L347.351,434.396C347.347,426.865 343.582,419.83 337.316,415.65C331.05,411.47 323.113,410.693 316.156,413.584C183.966,468.17 100.226,566.744 63.946,617.254C59.2,623.886 58.177,632.488 61.231,640.051C64.286,647.613 70.993,653.09 79.016,654.567C179.046,673.481 274.886,717.426 323.306,742.036C330.287,745.582 338.607,745.246 345.279,741.149C351.951,737.051 356.013,729.778 356.002,721.95L356.002,633.403C520.252,641.184 570.242,717.286 582.552,782.393C591.927,831.752 579.974,882.593 552.083,924.423C496.536,1008.02 409.513,1070.48 347.403,1107.7C328.934,1118.81 336.786,1147.29 358.419,1147.29L358.41,1147.3Z" style="fill:white;fill-rule:nonzero;"/>
            <path d="M390.28,253.12C362.155,270.956 378.819,297.651 378.819,297.651C395.788,330.815 437.413,363.065 467.881,383.315C471.846,385.967 477.092,385.671 480.733,382.585C484.374,379.499 485.53,374.374 483.561,370.026C468.045,335.549 451.78,290.01 451.78,290.01C444.303,269.526 418.288,235.237 390.28,253.119L390.28,253.12Z" style="fill:white;fill-rule:nonzero;"/>
            <path d="M529.1,138.94C529.1,155.12 515.983,168.237 499.803,168.237C483.623,168.237 470.506,155.12 470.506,138.94C470.506,122.76 483.623,109.643 499.803,109.643C515.983,109.643 529.1,122.76 529.1,138.94" style="fill:white;fill-rule:nonzero;"/>
            <path d="M1011.9,814.31C1006.6,812.997 1001.02,814.83 997.521,819.025C994.029,823.224 993.24,829.048 995.494,834.021C1004.59,853.873 1021.27,881.88 1049.05,903.021C1056.88,909.044 1067,911.22 1076.61,908.947C1086.22,906.673 1094.3,900.193 1098.6,891.302C1099.04,890.341 1099.46,889.309 1099.86,888.255C1102.1,882.083 1102.39,875.372 1100.72,869.025C1099.04,862.677 1095.47,856.994 1090.49,852.724C1077.03,840.818 1052,824.013 1011.9,814.31L1011.9,814.31Z" style="fill:white;fill-rule:nonzero;"/>
            <path d="M841.41,1147.3L908.488,1147.3C914.3,1147.3 919.929,1145.26 924.386,1141.52C928.843,1137.79 931.843,1132.61 932.863,1126.89C940.738,1082.36 955.48,972.766 931.738,874.156C927.753,857.609 903.332,860.515 903.402,877.531C903.753,946.015 890.488,1040.91 830.418,1126.37C827.589,1130.45 827.265,1135.77 829.574,1140.16C831.882,1144.56 836.445,1147.31 841.41,1147.3L841.41,1147.3Z" style="fill:white;fill-rule:nonzero;"/>
            <path d="M431.25,963.66C444.07,949.996 426.281,929.582 410.93,940.363C277.34,1034.35 135.61,1099.27 64.78,1128.96C60.589,1130.73 58.221,1135.2 59.12,1139.67C60.018,1144.12 63.932,1147.33 68.483,1147.34L156.256,1147.34C165.366,1147.32 174.354,1145.22 182.529,1141.2C292.429,1087.2 373.619,1025.14 431.249,963.657L431.25,963.66Z" style="fill:white;fill-rule:nonzero;"/>
            <path d="M486.07,897.98C491.89,901.625 499.508,900.39 503.882,895.097C511.343,886.187 517.964,876.609 523.663,866.48C525.675,862.515 524.628,857.687 521.155,854.91C517.683,852.137 512.741,852.184 509.319,855.02C502.03,861.723 493.921,868.778 485.436,875.434C481.917,878.113 479.882,882.312 479.96,886.739C480.038,891.164 482.221,895.285 485.835,897.841L486.07,897.98Z" style="fill:white;fill-rule:nonzero;"/>
        </g>
    </g>
</svg>
