<?xml version="1.0" encoding="UTF-8" standalone="no"?>
<!DOCTYPE svg PUBLIC "-//W3C//DTD SVG 1.1//EN" "http://www.w3.org/Graphics/SVG/1.1/DTD/svg11.dtd">
<svg width="100%" height="100%" viewBox="0 0 504 512" version="1.1" xmlns="http://www.w3.org/2000/svg" xmlns:xlink="http://www.w3.org/1999/xlink" xml:space="preserve" xmlns:serif="http://www.serif.com/" style="fill-rule:evenodd;clip-rule:evenodd;stroke-linejoin:round;stroke-miterlimit:2;">
    <g transform="matrix(1,0,0,1,-85.8461,-77.5875)">
        <g transform="matrix(0.489979,0,0,0.489979,43.7833,39.5713)">
            <path d="M289.85,977.34L260.155,1029.28C257.065,1034.68 252.753,1039.29 247.569,1042.73L154.967,1104.44C151.381,1106.84 149.787,1111.31 151.037,1115.44C152.287,1119.58 156.088,1122.4 160.405,1122.42L295.544,1122.42C299.802,1122.42 303.88,1120.7 306.85,1117.65C309.822,1114.6 311.431,1110.48 311.318,1106.22L308.178,982.003C308.072,977.601 305.049,973.808 300.783,972.722C296.514,971.636 292.045,973.523 289.849,977.339L289.85,977.34Z" style="fill:white;fill-rule:nonzero;"/>
            <path d="M763.71,1011.3C752.601,1002.07 730.898,984.066 708.351,965.339C705.499,962.964 701.55,962.401 698.152,963.894C694.75,965.382 692.484,968.663 692.297,972.37L685.734,1105.96C685.523,1110.28 687.09,1114.5 690.07,1117.62C693.05,1120.76 697.183,1122.53 701.508,1122.53L905.088,1122.53C908.791,1122.53 912.182,1120.45 913.854,1117.15C915.529,1113.85 915.201,1109.88 913.01,1106.9L866.791,1044.09C861.076,1036.3 852.537,1031.06 843.002,1029.51L781.338,1019.38C774.846,1018.31 768.76,1015.51 763.713,1011.3L763.71,1011.3Z" style="fill:white;fill-rule:nonzero;"/>
            <path d="M357.89,1107L349.546,777.91C349.042,757.82 341.968,738.453 329.413,722.762C305.015,692.293 260.272,638.715 211.033,590.102C206.264,585.426 203.092,579.36 201.971,572.774C200.854,566.184 201.842,559.415 204.799,553.422C226.854,509.102 277.455,403.282 294.026,335.452C294.838,332.05 296.838,329.046 299.666,326.983C302.491,324.921 305.959,323.932 309.452,324.194C312.94,324.46 316.221,325.956 318.705,328.421C325.737,335.452 334.503,343.819 344.182,352.609C353.12,360.703 358.225,372.191 358.244,384.25L358.244,479.969C358.248,486.977 361.248,493.649 366.487,498.305C371.729,502.965 378.706,505.16 385.667,504.344C393.882,503.371 401.062,498.332 404.769,490.938C421.175,458.313 465.308,363.738 475.457,273.318C476.879,261.584 482.496,250.763 491.277,242.849C527.347,210.037 621.827,123.859 666.687,81.999C669.917,78.987 674.222,77.405 678.632,77.604C683.042,77.807 687.186,79.78 690.124,83.077L766.038,168.46C768.092,170.773 769.096,173.831 768.819,176.913C768.538,179.991 766.999,182.819 764.561,184.726L740.256,203.874C734.299,208.534 726.944,211.042 719.381,211.003C711.815,210.96 704.49,208.366 698.584,203.639L681.522,189.811C676.096,185.46 668.213,186.108 663.569,191.288C647.819,208.913 612.311,248.64 581.421,282.999C573.878,291.429 569.706,302.343 569.702,313.655L569.702,390.999C569.702,390.999 676.602,355.843 829.672,214.399C832.617,211.668 836.395,210.012 840.395,209.692C844.395,209.375 848.387,210.414 851.727,212.641L962.427,287.477C965.072,289.215 966.857,291.989 967.341,295.118C967.822,298.247 966.958,301.43 964.958,303.883L955.794,314.992C948.595,323.758 938.513,329.68 927.349,331.699C916.185,333.715 904.669,331.699 894.857,326.008C887.799,321.844 880.529,318.039 873.084,314.617C865.084,310.929 856.197,309.613 847.471,310.828C838.749,312.039 830.553,315.73 823.866,321.461C790.655,350.008 727.444,410.523 705.086,474.061C711.989,486.229 724.375,494.288 738.297,495.67C738.297,495.67 884.997,440.381 967.187,386.15C970.984,383.642 975.527,382.509 980.058,382.935C984.589,383.361 988.836,385.322 992.101,388.494C1011.44,407.244 1052.19,443.9 1092.02,461.15C1095.51,462.638 1098.02,465.798 1098.66,469.544C1099.31,473.29 1098.02,477.11 1095.23,479.689L1068.98,503.759C1064.17,508.181 1058.16,511.091 1051.71,512.115C1045.25,513.142 1038.64,512.24 1032.69,509.525C1013.03,500.501 980.358,488.595 944.944,488.595C944.944,488.595 854.686,547.611 821.424,596.405C821.424,596.405 930.364,626.358 1012.48,630.553C1017.43,630.799 1022.1,632.869 1025.61,636.365C1029.11,639.857 1031.2,644.525 1031.47,649.467L1037.05,751.847C1037.4,757.503 1033.48,762.535 1027.91,763.566L1007.82,767.222C999.48,768.808 990.847,767.156 983.675,762.609C976.507,758.058 971.339,750.953 969.218,742.73C966.074,729.042 960.249,716.117 952.085,704.691C952.085,704.691 849.945,692.808 778.645,709.379C778.645,709.379 728.465,775.238 682.27,822.859C662.368,843.355 650.618,870.402 649.223,898.937L638.981,1107.37C638.79,1111.42 637.04,1115.24 634.106,1118.04C631.169,1120.84 627.262,1122.39 623.208,1122.39L373.668,1122.39C369.551,1122.39 365.598,1120.77 362.652,1117.9C359.707,1115.02 358,1111.11 357.894,1106.99L357.89,1107Z" style="fill:white;fill-rule:nonzero;"/>
            <path d="M177.38,881.72L212.536,923.697C215.001,926.642 215.938,930.576 215.067,934.314L201.005,995.041C199.822,1000.08 195.599,1003.83 190.458,1004.42L99.474,1014.85C94.787,1015.37 90.209,1013.16 87.708,1009.16C85.208,1005.16 85.228,1000.08 87.755,996.096L157.646,883.076C159.732,879.772 163.271,877.658 167.169,877.393C171.068,877.123 174.861,878.729 177.38,881.717L177.38,881.72Z" style="fill:white;fill-rule:nonzero;"/>
            <path d="M110.16,715.59L118.551,769.121C119.113,772.879 121.89,775.926 125.582,776.832L214.644,799.379C218.019,800.297 221.624,799.258 223.995,796.684C226.367,794.113 227.105,790.434 225.917,787.145L203.487,721.309C202.354,717.906 199.378,715.449 195.823,714.98L120.823,704.738C117.843,704.281 114.827,705.285 112.714,707.434C110.601,709.582 109.647,712.617 110.159,715.59L110.16,715.59Z" style="fill:white;fill-rule:nonzero;"/>
            <path d="M755.23,905.27L793.246,971.528C795.484,975.446 799.82,977.676 804.308,977.223L905.398,967.121C909.41,966.715 912.91,964.231 914.621,960.582C916.328,956.93 915.996,952.649 913.742,949.309L863.586,875.036C861.004,871.22 856.383,869.325 851.867,870.232L762.875,888.279C759.254,889.009 756.207,891.443 754.691,894.814C753.176,898.181 753.379,902.075 755.234,905.271L755.23,905.27Z" style="fill:white;fill-rule:nonzero;"/>
            <path d="M934.01,1032.8C949.713,1019.46 980.252,992.066 995.744,978.097C997.721,976.312 1000.49,975.718 1003.02,976.535C1005.56,977.351 1007.46,979.456 1008.02,982.058L1020.26,1037.67C1020.65,1039.41 1021.64,1040.95 1023.05,1042.03L1111.24,1109.02C1113.8,1110.96 1114.83,1114.32 1113.81,1117.36C1112.78,1120.4 1109.93,1122.45 1106.72,1122.45L987.87,1122.45C981.929,1122.45 976.386,1119.45 973.128,1114.48L931.409,1050.92C927.585,1045.09 928.698,1037.32 934.011,1032.8L934.01,1032.8Z" style="fill:white;fill-rule:nonzero;"/>
            <path d="M971.18,843.49L950.508,872.763C948.938,875.005 948.559,877.869 949.492,880.439C950.426,883.009 952.555,884.966 955.195,885.677L1005.07,899.739C1007.33,900.372 1009.75,900.028 1011.74,898.794C1013.74,897.563 1015.12,895.552 1015.57,893.247L1021.62,861.888C1022.4,857.775 1020.05,853.708 1016.09,852.349L980.93,840.396C977.356,839.107 973.36,840.376 971.18,843.49L971.18,843.49Z" style="fill:white;fill-rule:nonzero;"/>
        </g>
    </g>
</svg>
