<?xml version="1.0" encoding="UTF-8" standalone="no"?>
<!DOCTYPE svg PUBLIC "-//W3C//DTD SVG 1.1//EN" "http://www.w3.org/Graphics/SVG/1.1/DTD/svg11.dtd">
<svg width="100%" height="100%" viewBox="0 0 444 512" version="1.1" xmlns="http://www.w3.org/2000/svg" xmlns:xlink="http://www.w3.org/1999/xlink" xml:space="preserve" xmlns:serif="http://www.serif.com/" style="fill-rule:evenodd;clip-rule:evenodd;stroke-linejoin:round;stroke-miterlimit:2;">
    <g transform="matrix(1,0,0,1,-147.825,-78.3098)">
        <g transform="matrix(0.490711,0,0,0.490711,75.2858,39.8823)">
            <path d="M1026.4,567.7L991.525,580.731C983.486,563.692 969.869,538.825 951.869,520.942C948.682,517.868 943.877,517.196 939.971,519.278C936.061,521.36 933.94,525.723 934.713,530.083C939.034,553.255 940.452,576.872 938.932,600.395L878.744,622.872C873.06,624.993 866.775,624.805 861.224,622.352C855.677,619.899 851.31,615.372 849.056,609.743C846.802,604.111 846.841,597.817 849.165,592.216C879.634,518.575 925.524,434.976 965.485,367.376C977.7,378.216 987.532,391.474 994.36,406.306C996.306,410.377 1000.61,412.771 1005.09,412.283C1009.58,411.791 1013.26,408.521 1014.28,404.127C1019.67,381.322 1022.56,345.018 1009.81,294.577C1016.67,283.608 1022.84,273.882 1028.09,265.725C1040.12,246.959 1045.21,224.569 1042.45,202.444L1030.19,103.116C1029.07,93.624 1023.2,85.354 1014.61,81.159C1006.01,76.967 995.882,77.424 987.703,82.374L675.143,269.524C657.491,280.11 637.295,285.696 616.713,285.696L476.603,285.696C460.294,285.696 444.353,290.524 430.783,299.571L310.833,379.68C290.325,393.352 266.794,401.821 242.278,404.36L184.27,410.36C174.27,411.403 165.008,416.113 158.278,423.587C151.548,431.059 147.821,440.759 147.825,450.814L147.825,1121.69L751.715,1121.69C763.777,1121.68 775.465,1117.5 784.805,1109.87C794.141,1102.23 800.559,1091.61 802.973,1079.79C807.637,1058.09 810.676,1036.06 812.067,1013.9C812.301,1009.49 815.102,1005.63 819.223,1004.05C823.34,1002.46 828.012,1003.44 831.145,1006.55L849.895,1025.3C853.091,1028.5 857.899,1029.45 862.075,1027.72C866.255,1025.98 868.966,1021.9 868.95,1017.37C868.95,998.365 869.536,980.295 870.38,963.467C874.599,880.393 907.423,801.337 963.286,739.707C983.466,717.441 1002.29,698.809 1016.04,685.801C1030.71,671.856 1040.51,653.567 1043.98,633.629L1051.81,588.957C1052.6,584.527 1051.79,579.961 1049.54,576.062C1047.28,572.168 1043.73,569.191 1039.5,567.66C1035.26,566.132 1030.63,566.144 1026.4,567.699L1026.4,567.7ZM579.8,471.091C568.597,491.341 546.542,526.825 515.323,557.2C506.073,566.177 494.069,571.782 481.245,573.114C462.097,575.13 431.886,577.216 406.245,574.145C402.253,573.594 398.823,571.028 397.167,567.352C395.511,563.676 395.858,559.411 398.089,556.051L436.433,500.363C442.597,491.41 451.855,485.047 462.425,482.504C484.105,477.301 524.839,467.738 570.235,458.34C573.594,457.571 577.094,458.848 579.161,461.606C581.231,464.364 581.477,468.082 579.797,471.09L579.8,471.091Z" style="fill:white;fill-rule:nonzero;"/>
        </g>
    </g>
</svg>
