<?xml version="1.0" encoding="UTF-8"?>
<svg width="1200pt" height="1200pt" version="1.1" viewBox="0 0 1200 1200" xmlns="http://www.w3.org/2000/svg">
 <g fill="#fff">
  <path d="m1009.1 785.7-3.5859-2.8828c-2.0273-1.3203-4.3789-2.0664-6.7969-2.1562-4.0391-0.67969-8.1875 0.082031-11.719 2.1562-2.6367 1.6875-4.875 3.9258-6.5625 6.5625-1.1836 1.918-1.9375 4.0664-2.2031 6.3047-0.78516 3.2344-0.78516 6.6094 0 9.8438 1.0977 3.8438 3.4258 7.2227 6.6328 9.6094 1.1328 1.1211 2.5391 1.9258 4.0781 2.3438 1.418 0.83984 3.0391 1.2773 4.6875 1.2656 4.043 0.67187 8.1953-0.10938 11.719-2.2031 2.7969-1.7734 5.1914-4.1133 7.0312-6.8672 1.7266-3.0352 2.6289-6.4688 2.625-9.9609-0.125-5.25-2.2344-10.258-5.9062-14.016z"/>
  <path d="m851.2 489.47c1.125 0.56641 2.3125 1 3.5391 1.2891 4.5742 1.6367 9.6367 1.168 13.828-1.2891 2.6016-1.5 4.7617-3.6641 6.2578-6.2695 1.4922-2.6055 2.2695-5.5625 2.25-8.5664-0.125-1.6875-0.36719-3.3633-0.72656-5.0156 0.34375-6.6367-0.19141-13.285-1.5938-19.781-0.9375-3.3008-2.8242-6.2539-5.4219-8.4961-2.6016-2.2422-5.8008-3.6719-9.2031-4.1133-6.3984-0.84375-14.648 2.1094-17.531 8.4141-0.14062 0.26562-0.26562 0.53906-0.375 0.82031-0.1875 0.30469-0.42187 0.53906-0.58594 0.84375-0.84375 1.3359-1.5586 2.7461-2.1328 4.2188-1.4688 3.7266-2.1367 7.7188-1.9688 11.719 0.19141 5.9023 1.7969 11.676 4.6875 16.828 1.7539 4.1172 4.9453 7.457 8.9766 9.3984z"/>
  <path d="m756.82 179.41c10.148-16.641 12.023-42.609-2.3438-57.07-5.5078-8.3672-17.977-12.492-25.43-3.2812-12.305 15.188-11.719 37.945-6.2109 55.898 1.3789 4.6641 4.5156 8.6094 8.75 11.004 4.2344 2.3945 9.2344 3.0508 13.941 1.8281 4.7109-1.2227 8.7578-4.2266 11.293-8.3789z"/>
  <path d="m335.16 442.52c4.9648 0.66797 10.008-0.47266 14.203-3.2148 4.1953-2.7422 7.2656-6.8984 8.6484-11.715 1.2891-4.3359 2.625-8.6484 3.9141-12.961 1.043-4 0.89062-8.2188-0.44531-12.129-1.332-3.9141-3.7852-7.3477-7.0547-9.8789-2.8555-2.2539-6.2773-3.6719-9.8906-4.1016-2.168-0.29297-4.3711-0.29297-6.5391 0-7.3594 0.53906-15.469 5.4141-16.547 13.172l-0.21094 1.4297c-3.0469 5.6484-3.5391 12.68-4.125 18.961-0.023437 5.5234 2.1719 10.828 6.0938 14.719 3.2812 3.1172 7.4648 5.1211 11.953 5.7188z"/>
  <path d="m228.7 919.69c-1.3398-3.1914-3.5391-5.9492-6.3516-7.9688-4.4453-3.8633-10.098-6.0586-15.984-6.2109l-5.6016 0.75c-2.6836 0.61719-5.1602 1.918-7.1953 3.7734-3.6562 2.7227-6.3125 6.5781-7.5469 10.969-1.2891 4.4336-1.2891 9.1367 0 13.57 0.88281 2.5938 2.1719 5.0312 3.8203 7.2188 2.457 6.0156 7.5508 10.566 13.805 12.328 7.2461 1.8945 14.953-0.14063 20.32-5.3672 1.5703-1.5352 2.9336-3.2695 4.0547-5.1562 1.1953-1.9375 2.0586-4.0586 2.5547-6.2812 0.57422-2.2188 0.83594-4.5078 0.77344-6.7969-0.035156-2.3828-0.40234-4.75-1.1016-7.0312-0.42188-1.3008-0.94141-2.5703-1.5469-3.7969z"/>
  <path d="m747.66 901.24c0-0.28125 0-0.5625 0.11719-0.86719-0.011719-0.085938-0.011719-0.17188 0-0.25781-0.11719 0.375-0.11719 0.75-0.11719 1.125z"/>
  <path d="m726.33 884.2 0.42188-0.25781h-0.14062z"/>
  <path d="m1008.1 907.17c0-0.70312 0.21094-1.3828 0.28125-2.1094 0.5-3.6758-0.76953-7.3672-3.4219-9.9609-1.2617-2.8594-2.9453-5.5156-4.9922-7.875-6.7031-7.6875-17.625-2.5078-20.695 5.4609-1.918 5.6367-3.1055 11.496-3.5391 17.438-6.4219 9.6094-18.07 13.242-30.469 8.9531-17.297-5.9531-27.211-22.711-27.586-40.289-0.39844-18.023 4.2891-36.469 6.6562-54.258 2.7188-20.414 4.8984-40.898 6-61.453 2.2812-35.945 0.15625-72.031-6.3281-107.46-6.1406-31.734-16.406-67.125-39.07-91.172-2.9062-3.8945-7.7891-5.7812-12.562-4.8516-10.734 2.0859-14.508 10.43-10.688 20.648 10.047 26.07 15.457 53.699 15.984 81.633 0.16406 13.383 0.63281 29.391-6.5156 41.344-7.1484 11.953-19.195 14.977-28.125 3.9141-15.117-18.75-7.1953-50.016-12.398-72.094-6.2109-26.32-28.125-44.531-35.156-70.312-7.4766-27.211 1.2422-56.977 4.1719-84.258 2.7656-25.641 1.9922-52.242-5.1562-77.18-7.6172-25.945-25.359-47.039-34.008-72.422-8.8359-25.992-5.625-52.523-5.7188-79.312 3.5859-8.625-0.70313-20.93-12.961-21.094-47.836-0.9375-73.828 45.914-70.5 89.062 1.7812 23.203 17.508 50.766 10.523 73.734-3.8203 12.539-14.273 17.273-26.531 11.719-10.359-4.6875-16.406-15.117-20.695-25.148-20.93-50.039-21.281-110.16-19.805-163.55 0.79687-28.125 3-56.016 4.4531-84.047 0.91406-17.625 1.8516-38.695-8.5781-53.602-0.71484-2.3164-1.5664-4.5859-2.5547-6.7969-3.6797-8.2734-18-6.1875-19.641 2.5547-3.4922 18.75-5.9531 35.156-15.727 52.219-9.375 16.406-21.891 30.469-34.078 44.789-23.273 27.422-41.836 56.648-51.211 91.734-8.6133 32.859-9.2227 67.309-1.7812 100.45 6.7266 29.789 30.258 78.094-3.8438 99.891-1.8945 1.1953-3.5547 2.7305-4.8984 4.5234-21.094 17.531-39.211 40.148-53.906 62.227-9.8203 14.699-18.277 30.266-25.266 46.5-6.5391 15.164-9.9141 35.789-21.094 48.234-4.6875 5.1328-14.648 10.945-19.383 3.1641-2.625-4.3125 0-12.75 0.77344-17.367 2.0859-12.82 5.1094-25.945 0.39844-38.578-5.6719-15.141-19.734-17.953-30.469-28.125-5.8359-5.4062-9.7734-12.543-11.238-20.359-1.4648-7.8164-0.375-15.898 3.1055-23.047 1.8281-5.4258 0.0625-11.418-4.4219-14.984-4.4844-3.5625-10.719-3.9336-15.594-0.92969-37.055 31.758-52.969 85.57-49.875 133.12 1.8047 27.539 11.156 51.797 20.648 77.344 4.4766 12.047 9.0234 24.609 9.7031 37.5 0.84375 16.406-5.8125 31.008-12.141 45.75-19.148 44.531-18.469 93.023 6 135.73 11.449 20.035 27.613 36.98 47.086 49.359 23.273 14.648 54.07 22.242 70.969 45.656 16.898 23.414-44.766 44.086-60.703 44.273-37.266 0.46875-47.367-49.406-51.562-78.211-2.2031-15.07-28.641-11.719-26.836 3.6328 0.60938 5.25 1.3125 10.641 2.1328 16.102-4.4062 53.438 12.797 115.76 68.906 132.77 27.375 8.2969 59.93 6.6328 86.977-2.1797 13.727-4.3516 26.664-10.879 38.32-19.336 8.8125-6.5156 14.344-12.117 18.445-19.617 60.562 16.008 134.7 16.828 193.1-6.8672 39.844-16.148 78-47.859 91.406-89.062 11.016-4.6875 30.07 1.9688 39.703 3.8438 16.125 3.1641 32.156 7.0312 48.422 9.375 29.742 4.5 60.398 6.2344 89.719-1.8984 26.086-7.2656 48.727-22.266 63.82-44.906 8.625-12.586 15.867-32.742 14.016-49.945zm-589.85-79.172c-1.0234 1.7031-2.3594 3.1992-3.9375 4.4062-2.6367 2-5.832 3.1289-9.1406 3.2344-3.2461 0.1875-6.4727-0.62891-9.2344-2.3438-3.2578-1.2578-6.0664-3.4531-8.082-6.3047-2.0156-2.8516-3.1406-6.2383-3.2383-9.7266 0.015625-3.332 0.99219-6.5859 2.8125-9.375 1.3477-3.375 3.8359-6.1719 7.0312-7.8984 4.0938-2.2344 8.875-2.8594 13.406-1.7578 3.3633 0.94531 6.4141 2.7656 8.8477 5.2734 2.4336 2.5039 4.1602 5.6094 5.0039 9 1.4336 5.4219 0.14063 11.199-3.4688 15.492zm225-257.13c-0.13672-2.082 0.29297-4.1641 1.2422-6.0234 0.23828-0.83594 0.60938-1.6289 1.1016-2.3438 2.5078-4.8672 7.2305-8.2109 12.656-8.9531 3.2852-0.4375 6.625 0.089844 9.6172 1.5234 2.9883 1.4297 5.4922 3.7031 7.2109 6.5391l0.16406 0.25781c2.5586 4.582 2.8945 10.078 0.91797 14.938-1.9805 4.8594-6.0586 8.5547-11.09 10.047-1.9219 0.49219-3.9141 0.63281-5.8828 0.42188h0.82031c-4.4922 0.17187-8.8477-1.5781-11.977-4.8047-1.0586-1.125-1.9883-2.3672-2.7656-3.7031-1.1289-1.7266-1.7695-3.7266-1.8516-5.7891-0.25391-0.67187-0.35156-1.3945-0.28125-2.1094zm109.62 330.09c-0.089844 0.78906-0.22266 1.5703-0.39844 2.3438-0.73047 2.9922-2.3672 5.6875-4.6875 7.7109-1.2148 1.4883-2.6523 2.7773-4.2656 3.8203-1.5781 1.2383-3.3867 2.1562-5.3203 2.6953l-4.0781 0.53906c-4.0352-0.085937-7.8906-1.6836-10.805-4.4766-3.2031-2.8984-5.0898-6.9766-5.2266-11.297-0.90625-4.0547-0.35156-8.3008 1.5703-11.984 1.9219-3.6875 5.0859-6.5703 8.9297-8.1484 1.5508-0.77344 3.2383-1.2422 4.9688-1.3828 2.4844-0.30859 5.0078-0.19141 7.4531 0.35156 4.2031 1.1016 7.7773 3.8555 9.9141 7.6406 2.1328 3.6836 2.7852 8.0391 1.8281 12.188zm30.844-36c-7.5469 2.0156-16.195-3.8203-15.82-12.047 0.58594-12.703 9.0938-21.094 3.9375-34.359-0.81641-2.0195-1.8398-3.9531-3.0469-5.7656-5.293-5.5938-12.156-9.4531-19.688-11.062-10.617-2.7656-19.43-2.6484-26.719 6.6094-0.84375 1.0781-1.5938 2.1562-2.3438 3.1875-1.1445 12.934-5.3789 25.398-12.352 36.352-9.7109 14.379-22.523 26.395-37.5 35.156-16.266 9.8438-31.242 10.195-49.219 13.336-18.75 3.2578-32.25 19.781-51.75 23.672-17.203 3.4219-34.922 1.8047-52.195-0.14062-18.094-2.0391-35.93-5.6016-51.82-14.953-12.633-7.4531-29.625-19.148-32.977-34.195-1.0781-4.8516 2.3438-11.719 8.3203-10.945 12.891 1.6172 20.93 10.617 31.688 17.32 12.281 7.6406 25.055 10.922 39.258 12.703 14.203 1.7812 29.016 3.7266 43.289 2.5078 9.1992-0.92969 18.043-4.0586 25.781-9.1172 5.0391-4.3359 10.242-8.5078 15.094-13.031l3.5391-5.8359c0.375-1.5312 0.48828-3.1172 0.32813-4.6875-1.0156-7.0508-7.3086-12.117-14.414-11.602-19.547 1.0312-38.18 5.8359-57.492-2.7656-35.156-15.633-60.75-64.219-68.391-100.1-5.0156-23.438-0.65625-45.609 7.5-67.852s12.445-46.312 21.094-68.32c6.7969-17.086 18.75-31.992 37.125-36.961 20.109-5.4375 42.562 1.6875 62.789 3.1406 4.5039 0.15234 8.3789 3.2266 9.5586 7.5742 1.1758 4.3477-0.61719 8.957-4.4258 11.363-19.477 13.852-39.539 0-59.719 7.7109-15.75 6-19.594 26.039-22.992 43.078-1.2891 11.836 0 20.484 2.7422 26.766 2.3594 5.5156 7.4258 9.3984 13.363 10.246 5.9414 0.84766 11.891-1.4648 15.699-6.0977 17.367-21.352 48.938-36.867 70.312-39.352 48.047-5.6016 95.391 26.836 116.3 68.766 4.5234 9.0703-0.86719 21.094-12.023 20.93-7.4531-0.1875-19.195-2.1562-26.367 0.30469-6.6094 2.3438-12.656 16.406 5.0156 28.383 1.5 1.0078 3.2578 1.3125 4.6875 2.1328 11.109 1.6406 22.406 2.625 33.398 4.9688 17.156 3.6562 34.172 10.266 47.742 21.609 13.578 10.973 21.836 27.211 22.711 44.648 0.44531 14.742-4.3828 32.508-20.133 36.727z"/>
  <path d="m639.56 739.9c-3.5703-5.9102-8.6992-10.723-14.828-13.902-6.1289-3.1797-13.02-4.6055-19.906-4.1211-6.1055 0.28125-12.078 1.8789-17.508 4.6875-1.9531 1.0469-3.7891 2.2969-5.4844 3.7266-4.7539 3.5117-8.2812 8.4336-10.078 14.062-1.707 4.1719-2.582 8.6406-2.5781 13.148 0.17187 6.6523 2.1094 13.137 5.6133 18.793 3.5039 5.6523 8.4531 10.273 14.332 13.387 14.578 7.2422 32.672 5.6484 44.531-6.1875 5.5352-5.668 9.0977-12.969 10.164-20.82 1.0625-7.8516-0.42969-15.836-4.2578-22.773z"/>
 </g>
</svg>
