<?xml version="1.0" encoding="UTF-8"?>
<svg width="1200pt" height="1200pt" version="1.1" viewBox="0 0 1200 1200" xmlns="http://www.w3.org/2000/svg">
 <path d="m891.66 933.68c-1.3906-7.2109-2.1758-14.527-2.3438-21.867-0.39844-17.195 8.1797-33.359 22.641-42.668 14.461-9.3086 32.723-10.422 48.211-2.9414 25.781 12.422 50.25 23.438 73.406 33.211 49.711 20.859 92.391-41.531 54.914-80.297-96.492-99.797-190.27-190.03-279.59-271.05v-70.102c-0.003907-20.559-6.6289-40.57-18.891-57.07-8.2031-11.062-16.266-21.867-23.133-31.055-4.8164-6.2852-7.1211-14.133-6.4648-22.023 0.65234-7.8867 4.2188-15.25 10.004-20.656 6.2969-5.6797 14.633-8.5547 23.09-7.9688 8.4609 0.58984 16.32 4.5898 21.77 11.086 18.305 21.844 40.125 48.164 58.734 70.664 21.746 26.352 50.453 46.078 82.852 56.93 35.246 11.824 71.152 21.59 107.53 29.25 26.016 5.4609 47.32-22.102 34.547-45.422-76.617-139.85-198.09-234.98-198.09-234.98-151.97-113.86-280.12-160.9-347.6-179.46-7.0547-1.9258-14.57-1.2188-21.145 1.9844-6.5742 3.207-11.758 8.6953-14.586 15.441-2.8281 6.7422-3.1094 14.289-0.78516 21.223 39.281 116.7 96.727 177.26 96.727 177.26s65.625 77.203 71.25 175.48c-222.23-189.73-407.77-316.76-524.23-386.32-37.758-22.547-80.203 21.258-56.391 58.219 5.7656 8.9531 11.602 17.82 17.508 26.602h-0.14062s91.828 169.1 79.875 477.14l0.82031 88.523c0.4375 29.191-4.7109 58.195-15.164 85.453-2.5039 6.4531-5.3516 12.766-8.5312 18.914-13.371 24.934-20.926 52.566-22.102 80.836-0.89062 28.875 5.1094 61.594 29.766 85.219 17.895 16.898 42.004 25.602 66.562 24.027 24.562-1.5742 47.363-13.281 62.953-32.324 14.367-17.836 25.102-43.852 23.859-81.703-0.81641-19.211-5.4375-38.066-13.594-55.477-21.602-48.363-33.133-100.62-33.891-153.59v-111.42c0-24.445 6.3047-48.477 18.305-69.773 4.7656-8.4375 7.0195-18.059 6.5-27.73-0.51953-9.6758-3.7891-19-9.4297-26.879l-38.672-53.977c-2.8594-3.9961-4.207-8.8789-3.8047-13.773 0.40234-4.8984 2.5312-9.4961 6.0078-12.969 4.0469-4.0508 9.5898-6.25 15.316-6.0781 5.7227 0.17578 11.121 2.7031 14.918 6.9922l46.477 43.266c45.359 42.039 82.387 92.254 109.15 148.01 3.8672 7.9922 7.2891 15.586 9.6328 22.055 15.426 41.883 25.719 85.484 30.656 129.84 0 0 16.969 152.74 7.0312 232.03 0 0-4.3359 43.312-14.906 80.695-5.0625 17.332-7.5898 35.309-7.5 53.367 0.074219 13.699 1.8125 27.34 5.1797 40.617 17.32 64.828 109.88 58.734 118.83-7.7812 2.9531-21.891 1.6172-51.164-7.1953-90.305-4.6875-20.789-8.625-41.742-11.297-62.883-6.3984-50.25-14.297-135.28-3.9141-191.93 5.9766-32.648 25.57-47.484 47.414-53.391 23.77-6.1172 49.023-1.5469 69.141 12.516 9 6.1406 17.977 12.164 26.93 18.07 32.266 20.895 56.805 51.781 69.867 87.938 5.0312 14.086 7.9609 28.84 8.6953 43.781v23.438c0.097656 15.84-3.7344 31.453-11.156 45.445-0.72656 1.3594-1.5 2.7188-2.3438 4.125-6.5156 11.074-10.582 23.41-11.93 36.188-2.9766 29.555-0.5625 77.812 42.047 96.281 13.75 6.2344 29.516 6.2344 43.266 0 22.664-10.852 48.492-42.727 26.438-136.24zm-635.16-64.406c-3.9609 22.195-20.742 37.781-37.5 34.805s-27.07-23.438-23.133-45.586c3.9375-22.148 20.742-37.781 37.5-34.805 16.758 2.9766 27.07 23.391 23.133 45.586z" fill="#fff"/>
</svg>
