<?xml version="1.0" encoding="UTF-8"?>
<svg width="1200pt" height="1200pt" version="1.1" viewBox="0 0 1200 1200" xmlns="http://www.w3.org/2000/svg">
 <g fill="#fff">
  <path d="m404.48 1110.2 27.141 17.156 27.117 17.227c7.0234 4.457 15.531 5.9453 23.648 4.1289 8.1211-1.8164 15.184-6.7812 19.641-13.809l129.21-203.6 81.117 51.562c5.7148 3.6641 12.656 4.8945 19.281 3.4219 6.6289-1.4727 12.395-5.5312 16.016-11.273l12.609-19.875c3.625-5.7031 4.8281-12.617 3.3516-19.211-1.4766-6.5938-5.5156-12.332-11.227-15.945l-134.84-85.594-134.74-85.453c-5.7031-3.625-12.613-4.8359-19.207-3.3633s-12.332 5.5078-15.949 11.215l-12.609 19.875c-3.625 5.7031-4.8359 12.613-3.3633 19.207s5.5078 12.332 11.215 15.949l81.117 51.562-129.21 203.6c-4.4414 7.0156-5.918 15.508-4.1055 23.613 1.8164 8.1016 6.7734 15.156 13.785 19.605z"/>
  <path d="m1123.8 71.062c-1.2305-6.8828-5.293-12.934-11.195-16.676-5.9062-3.7422-13.109-4.8359-19.859-3.0117-105.47 28.359-230.67 77.062-285.26 99.047-17.895 7.2148-32.164 21.281-39.633 39.07-68.953 164.06-160.43 433.59-188.48 517.31-2.4492 7.3086-2.3828 15.23 0.19922 22.492 2.5781 7.2656 7.5156 13.457 14.027 17.586l35.742 22.688 325.34-512.62c4.7617-7.4805 13.148-11.855 22.012-11.473 8.8594 0.37891 16.84 5.4609 20.941 13.324 4.0977 7.8633 3.6914 17.316-1.0703 24.797l-325.34 512.55 35.742 22.688c6.5039 4.1328 14.207 5.9648 21.875 5.207 7.6719-0.76172 14.863-4.0742 20.43-9.4023 63.82-60.938 268.76-258.56 387.84-390.77 12.93-14.328 19.59-33.23 18.492-52.5-3.3516-58.758-12.562-192.73-31.805-300.3z"/>
  <path d="m70.805 979.69h135.68c10.809 0.007812 21.398-3.0234 30.566-8.7383 9.1719-5.7188 16.551-13.898 21.301-23.605l65.086-132.59c3.4375-7.0195 3.0156-15.316-1.125-21.945-4.1367-6.6328-11.402-10.66-19.219-10.656h-232.29c-7.0195 0-13.754 2.7812-18.727 7.7383-4.9727 4.9531-7.7812 11.68-7.8047 18.699v144.61c0.011718 7.0273 2.8125 13.766 7.7891 18.73 4.9727 4.9648 11.715 7.7539 18.742 7.7539z"/>
  <path d="m70.805 660.35h292.17c10.793 0.007813 21.371-3.0078 30.535-8.7031 9.168-5.6953 16.559-13.844 21.332-23.523l64.969-132.63c3.5-7.043 3.0977-15.402-1.0703-22.074-4.168-6.6719-11.5-10.703-19.367-10.645h-388.57c-7.0352 0-13.785 2.7969-18.762 7.7695-4.9727 4.9766-7.7695 11.727-7.7695 18.762v144.52c0 7.0352 2.7969 13.785 7.7695 18.762 4.9766 4.9727 11.727 7.7695 18.762 7.7695z"/>
  <path d="m70.805 340.97h448.64c10.805 0 21.395-3.0352 30.562-8.75 9.168-5.7188 16.547-13.891 21.305-23.594l64.969-132.63c3.4492-7.0156 3.0312-15.316-1.1016-21.953-4.1328-6.6367-11.398-10.672-19.219-10.672h-545.16c-7.0352 0-13.785 2.7969-18.762 7.7695-4.9727 4.9766-7.7695 11.727-7.7695 18.762v144.54c0 7.0352 2.7969 13.785 7.7695 18.762 4.9766 4.9727 11.727 7.7695 18.762 7.7695z"/>
 </g>
</svg>
