<?xml version="1.0" encoding="UTF-8" standalone="no"?>
<!DOCTYPE svg PUBLIC "-//W3C//DTD SVG 1.1//EN" "http://www.w3.org/Graphics/SVG/1.1/DTD/svg11.dtd">
<svg width="100%" height="100%" viewBox="0 0 509 512" version="1.1" xmlns="http://www.w3.org/2000/svg" xmlns:xlink="http://www.w3.org/1999/xlink" xml:space="preserve" xmlns:serif="http://www.serif.com/" style="fill-rule:evenodd;clip-rule:evenodd;stroke-linejoin:round;stroke-miterlimit:2;">
    <g transform="matrix(1,0,0,1,-57.6547,-54.2689)">
        <g transform="matrix(0.469169,0,0,0.469169,30.6049,28.8077)">
            <path d="M1109.8,56.508C1065.83,76.735 990.13,122.578 926.99,154.946C898.084,169.821 868.506,183.352 838.256,195.54C768.787,223.407 616.776,294.235 474.736,426.82C470.908,430.386 468.095,434.91 466.588,439.922C465.08,444.934 464.931,450.254 466.158,455.344L479.096,508.266C480.139,512.532 479.639,517.032 477.686,520.969C475.733,524.903 472.447,528.016 468.416,529.766C464.385,531.512 459.865,531.774 455.658,530.508L411.713,517.406C406.166,515.754 400.26,515.777 394.725,517.469C389.194,519.164 384.284,522.449 380.612,526.922C294.456,631.802 221.352,764.482 186.642,930.042C183.779,943.808 177.627,956.671 168.712,967.542L64.062,1095.3C57.578,1103.81 55.886,1115.03 59.578,1125.07C63.269,1135.11 71.828,1142.56 82.277,1144.84C92.726,1147.12 103.613,1143.91 111.148,1136.32L232.858,1022.11L233.092,1021.9C397.362,782.056 684.242,481.476 698.322,466.756C704.213,460.608 712.935,458.065 721.209,460.092C729.483,462.12 736.041,468.405 738.424,476.58C740.807,484.756 738.643,493.584 732.752,499.732C729.729,502.896 498.372,745.242 332.162,966.142C329.451,969.756 328.283,974.291 328.908,978.763C329.533,983.232 331.904,987.275 335.498,990.005C339.096,992.732 343.627,993.931 348.1,993.329C457.77,978.704 562.82,939.903 655.67,879.729C661.147,876.186 665.295,870.925 667.463,864.768C669.631,858.616 669.694,851.916 667.647,845.721L642.077,769.033C640.631,764.772 641.753,760.057 644.967,756.904C648.178,753.752 652.913,752.717 657.147,754.244L747.686,786.353C752.94,788.213 758.616,788.541 764.049,787.295C769.479,786.049 774.447,783.283 778.365,779.322C812.263,744.865 842.99,707.424 870.17,667.452C873.272,662.897 875.03,657.561 875.245,652.054C875.459,646.546 874.123,641.089 871.389,636.304L830.28,564.327C828.241,560.768 827.608,556.577 828.507,552.573C829.405,548.569 831.768,545.05 835.136,542.706C838.499,540.362 842.62,539.362 846.687,539.905L915.664,549.28C921.851,550.12 928.144,548.964 933.625,545.975C939.109,542.983 943.492,538.319 946.133,532.663C947.961,528.757 949.765,524.812 951.547,520.827C951.828,520.202 952.086,519.569 952.32,518.929C957.523,504.867 1018.27,341.459 1047.73,253.099C1063.74,205.052 1111.88,131.899 1138.65,89.739C1151.09,70.309 1130.61,46.872 1109.8,56.505L1109.8,56.508Z" style="fill:white;fill-rule:nonzero;"/>
        </g>
    </g>
</svg>
