<?xml version="1.0" encoding="UTF-8" standalone="no"?>
<!DOCTYPE svg PUBLIC "-//W3C//DTD SVG 1.1//EN" "http://www.w3.org/Graphics/SVG/1.1/DTD/svg11.dtd">
<svg width="100%" height="100%" viewBox="0 0 450 512" version="1.1" xmlns="http://www.w3.org/2000/svg" xmlns:xlink="http://www.w3.org/1999/xlink" xml:space="preserve" xmlns:serif="http://www.serif.com/" style="fill-rule:evenodd;clip-rule:evenodd;stroke-linejoin:round;stroke-miterlimit:2;">
    <g transform="matrix(1,0,0,1,-129.098,-63.6404)">
        <g transform="matrix(0.477296,0,0,0.477296,67.4802,33.2651)">
            <path d="M520.15,763.2C528.298,753.153 536.998,743.567 546.212,734.489C564.63,716.583 589.607,707.044 615.274,708.118C640.938,709.188 665.032,720.778 681.891,740.161C697.391,757.864 711.883,776.423 725.297,795.755C742.317,820.216 750.867,849.571 749.645,879.349C748.422,909.122 737.493,937.677 718.524,960.661C686.508,999.286 638.579,1041.71 571.264,1065.61C538.948,1076.99 504.346,1080.32 470.454,1075.32C436.559,1070.32 404.392,1057.14 376.735,1036.92C341.579,1011.35 303.329,974.557 277.29,924.424C254.255,880.178 247.005,829.397 256.735,780.474C267.001,728.794 294.235,655.314 365.295,588.894C365.295,588.894 437.951,512.816 551.295,483.094C669.235,452.133 793.665,491.508 876.445,581.039C884.554,589.828 892.687,599.32 900.656,609.562C1015.76,757.592 994.992,968.152 857.508,1095.68C843.446,1108.75 828.504,1120.84 812.789,1131.87C792.75,1145.93 767.039,1124.37 777,1102.03C799.781,1050.89 827.766,977.064 840.281,900.234C845.48,868.464 843.523,835.933 834.55,805.015C825.578,774.097 809.816,745.574 788.413,721.523C753.413,682.164 711.097,649.98 663.823,626.765C639.671,614.96 612.718,610.105 585.964,612.73C559.21,615.359 533.718,625.371 512.323,641.648C464.186,677.996 427.401,727.304 406.273,783.798C393.894,816.509 397.953,853.169 417.195,882.376C422.848,890.954 429.062,899.142 435.804,906.892C473.749,950.251 539.144,958.712 584.094,922.665C590.247,917.794 595.758,912.161 600.5,905.907C618.031,882.469 613.156,847.149 590.985,828.118C574.391,814.087 554.473,804.548 533.141,800.415C525.281,798.708 518.871,793.04 516.223,785.442C513.571,777.848 515.063,769.422 520.156,763.196L520.15,763.2Z" style="fill:white;fill-rule:nonzero;"/>
            <path d="M349.59,146.48C350.656,139.582 354.524,133.429 360.278,129.472C366.032,125.519 373.161,124.113 379.985,125.589C386.809,127.066 392.719,131.292 396.325,137.269C417.352,172.414 428.27,212.683 427.872,253.639L427.872,287.178C427.884,311.287 422.868,335.135 413.145,357.194C403.426,379.256 389.211,399.049 371.411,415.311C320.364,461.834 247.541,533.131 208.991,593.431C202.538,603.564 191.452,609.802 179.44,610.06C167.432,610.322 156.085,604.564 149.202,594.72C135.725,575.322 128.698,552.173 129.116,528.556C129.632,498.306 140.757,469.197 160.546,446.314L269.366,318.224C303.721,278.06 328.698,230.751 342.491,179.734C345.444,168.781 347.811,157.679 349.593,146.476L349.59,146.48Z" style="fill:white;fill-rule:nonzero;"/>
            <path d="M570.8,92.977C580.972,58.969 626.862,52.875 644.909,83.438C655.667,101.696 663.94,122.907 663.94,144.985L663.94,304.875C663.94,342.375 617.768,359.93 592.69,332.086C569.651,306.516 549.917,271.5 549.917,226.616C549.917,176.178 560.159,128.905 570.8,92.976L570.8,92.977Z" style="fill:white;fill-rule:nonzero;"/>
            <path d="M800.62,209.91C782.011,243.004 766.495,296.137 804.44,355.71C817.112,375.194 833.569,391.933 852.838,404.929C887.526,428.835 965.738,489.304 1000.96,570.209C1004,577.197 1009.67,582.709 1016.74,585.549C1023.81,588.393 1031.72,588.334 1038.75,585.385C1045.78,582.44 1051.37,576.846 1054.3,569.811C1063.68,547.663 1070.87,517.241 1070.87,476.436C1070.87,476.436 1068.01,369.376 967.632,309.136C922.093,282.171 881.816,247.175 848.752,205.846C842.713,198.244 833.272,194.162 823.596,194.979C813.92,195.796 805.295,201.393 800.612,209.901L800.62,209.91Z" style="fill:white;fill-rule:nonzero;"/>
        </g>
    </g>
</svg>
