<?xml version="1.0" encoding="UTF-8" standalone="no"?>
<!DOCTYPE svg PUBLIC "-//W3C//DTD SVG 1.1//EN" "http://www.w3.org/Graphics/SVG/1.1/DTD/svg11.dtd">
<svg width="100%" height="100%" viewBox="0 0 512 492" version="1.1" xmlns="http://www.w3.org/2000/svg" xmlns:xlink="http://www.w3.org/1999/xlink" xml:space="preserve" xmlns:serif="http://www.serif.com/" style="fill-rule:evenodd;clip-rule:evenodd;stroke-linejoin:round;stroke-miterlimit:2;">
    <g transform="matrix(1,0,0,1,-78.9451,-99.4344)">
        <g transform="matrix(0.491322,0,0,0.491322,40.1577,50.5801)">
            <path d="M561.12,692.72L386.09,616.548C383.606,615.497 380.742,615.962 378.719,617.739C376.692,619.517 375.86,622.294 376.574,624.892L416.418,764.602C422.055,773.828 430.176,781.278 439.856,786.094L566.236,849.375C569.983,851.172 574.404,850.843 577.849,848.523C581.295,846.199 583.252,842.226 582.994,838.078L572.916,709.338C572.654,705.756 571.42,702.315 569.342,699.385C567.264,696.455 564.424,694.151 561.127,692.721L561.12,692.72Z" style="fill:white;fill-rule:nonzero;"/>
            <path d="M528.84,423.7L337.99,431.763C334.045,431.93 330.392,433.891 328.08,437.091C325.763,440.286 325.037,444.368 326.107,448.169L352.123,539.294C354.529,547.751 360.604,554.685 368.67,558.185L568.31,645.091C573.998,647.571 580.322,648.188 586.38,646.852C592.439,645.516 597.919,642.302 602.036,637.661L691.098,537.391C693.618,534.559 694.762,530.762 694.227,527.012C693.696,523.262 691.54,519.934 688.333,517.914L545.763,428.195C540.712,425.008 534.81,423.437 528.841,423.695L528.84,423.7Z" style="fill:white;fill-rule:nonzero;"/>
            <path d="M291.52,373.64C298.098,381.882 308.219,386.48 318.754,386.015L543.354,376.64C548.073,376.46 552.733,377.703 556.737,380.203L718.457,482.063C723.219,485.07 728.812,486.484 734.434,486.106C740.055,485.727 745.407,483.57 749.723,479.953L861.893,386.203C866.975,381.941 872.623,378.398 878.674,375.68L1057.59,294.797C1061.89,292.852 1064.95,288.903 1065.76,284.25C1066.57,279.602 1065.02,274.852 1061.62,271.57L953.155,166.76C943.772,157.682 930.835,153.26 917.858,154.69L755.948,172.338C745.171,173.522 734.268,172.014 724.214,167.955L563.014,103.127C553.307,99.202 542.619,98.381 532.428,100.784C406.918,130.245 226.688,151.011 151.658,158.886C147.814,159.3 144.248,161.085 141.611,163.909C138.975,166.737 137.443,170.417 137.295,174.28C137.146,178.143 138.393,181.928 140.807,184.948L291.52,373.64Z" style="fill:white;fill-rule:nonzero;"/>
            <path d="M720.61,1068.5L746.11,959.12L835.758,491.1C836.582,487.045 834.75,482.913 831.192,480.799C827.633,478.69 823.125,479.061 819.962,481.725L776.509,518.053C760.876,531.123 746.236,545.334 732.704,560.569L631.194,675.039C622.748,684.508 618.518,697.004 619.475,709.656L639.233,961.706C641.018,970.217 644.186,978.382 648.608,985.87L699.702,1071.84C702.041,1075.92 706.659,1078.13 711.304,1077.39C715.948,1076.65 719.651,1073.12 720.608,1068.51L720.61,1068.5Z" style="fill:white;fill-rule:nonzero;"/>
            <path d="M893.62,436.22L840.581,713.09C839.948,716.43 841.507,719.801 844.456,721.488C847.405,723.176 851.101,722.805 853.659,720.567L965.409,622.645C973.561,615.508 979.171,605.918 981.393,595.317C997.998,518.04 1023.37,442.917 1057.03,371.397C1059.4,366.408 1058.41,360.463 1054.54,356.522C1050.66,352.576 1044.74,351.479 1039.71,353.772L913.636,410.749C903.23,415.495 895.769,424.991 893.62,436.226L893.62,436.22Z" style="fill:white;fill-rule:nonzero;"/>
            <path d="M314.23,576.05L273.402,433.08C271.191,425.4 267.488,418.232 262.504,411.986L167.066,292.456C165.183,290.132 161.929,289.452 159.273,290.823C156.617,292.198 155.289,295.249 156.097,298.128L224.863,535.618C229.273,550.891 238.445,564.36 251.043,574.056L316.199,624.306C318.355,625.95 321.324,626.032 323.566,624.505C325.813,622.982 326.828,620.189 326.09,617.579L314.23,576.05Z" style="fill:white;fill-rule:nonzero;"/>
            <path d="M120.52,636.54L193.598,714.517C197.793,719.001 197.668,726.005 193.317,730.337L151.575,771.821C147.747,775.626 141.766,776.204 137.278,773.204L84.005,737.72C79.974,735.044 78.087,730.099 79.317,725.415L101.255,641.438C102.294,637.434 105.431,634.313 109.439,633.293C113.451,632.274 117.697,633.516 120.521,636.539L120.52,636.54Z" style="fill:white;fill-rule:nonzero;"/>
            <path d="M501.73,958.1L501.73,1008.87C501.773,1014.21 504.843,1019.07 509.652,1021.4L557.183,1044.09C560.499,1045.66 564.417,1045.25 567.335,1043.03C570.257,1040.8 571.69,1037.14 571.058,1033.52L559.339,968.273C558.409,963.093 554.636,958.886 549.589,957.398L515.886,947.484C512.546,946.519 508.944,947.183 506.163,949.269C503.382,951.355 501.741,954.624 501.729,958.101L501.73,958.1Z" style="fill:white;fill-rule:nonzero;"/>
            <path d="M201.75,1006.4L221.227,1062.23C222.743,1066.56 222.825,1071.27 221.461,1075.65C220.098,1080.04 217.36,1083.87 213.657,1086.58L200.087,1096.47C196.227,1099.29 191.532,1100.74 186.755,1100.58C181.973,1100.43 177.387,1098.67 173.72,1095.6L148.806,1074.72C144.255,1070.92 141.489,1065.4 141.161,1059.48C140.837,1053.56 142.985,1047.78 147.095,1043.5L185.978,1002.96C188.236,1000.53 191.607,999.467 194.849,1000.17C198.087,1000.88 200.712,1003.25 201.751,1006.4L201.75,1006.4Z" style="fill:white;fill-rule:nonzero;"/>
            <path d="M1042.4,687.54L1023.16,772.149C1022.29,775.954 1023.62,779.922 1026.6,782.438L1057.63,808.594C1059.8,810.422 1062.62,811.289 1065.45,810.992C1068.27,810.696 1070.85,809.262 1072.59,807.024L1118.85,747.399C1122.22,743.039 1121.62,736.817 1117.49,733.172L1059.46,682.031C1056.7,679.601 1052.87,678.8 1049.37,679.933C1045.87,681.062 1043.22,683.952 1042.4,687.538L1042.4,687.54Z" style="fill:white;fill-rule:nonzero;"/>
            <path d="M962.95,986.34L918.184,1044.49C915.622,1047.8 916.008,1052.52 919.075,1055.36L938.856,1073.74C941.153,1075.88 944.473,1076.5 947.387,1075.33L1010.15,1050.14C1012.74,1049.11 1014.62,1046.82 1015.13,1044.09C1015.63,1041.35 1014.69,1038.54 1012.64,1036.66C997.59,1022.92 985.367,1006.38 976.66,987.957C975.473,985.406 973.051,983.653 970.258,983.321C967.461,982.992 964.695,984.133 962.949,986.34L962.95,986.34Z" style="fill:white;fill-rule:nonzero;"/>
        </g>
    </g>
</svg>
