<?xml version="1.0" encoding="UTF-8"?>
<svg width="1200pt" height="1200pt" version="1.1" viewBox="0 0 1200 1200" xmlns="http://www.w3.org/2000/svg">
 <path d="m1004.5 740.18c-4.4297-48.824-16.457-96.66-35.648-141.77-16.984-39.07-39.531-75.477-66.938-108.09-41.789-50.273-170.23-209.06-201.16-301.8l-30.07-79.688c-24.609-65.25-116.91-65.25-141.52 0l-29.977 79.688c-30.938 92.742-159.38 251.53-201.14 301.8-27.422 32.609-49.977 69.02-66.961 108.09-19.199 45.129-31.227 92.977-35.648 141.82-3.8828 43.77 1.4258 87.871 15.586 129.47 36.961 109.24 107.81 175.43 178.88 215.48 63.941 35.926 136.03 54.852 209.37 54.977 73.34 0.12109 145.49-18.562 209.55-54.273 71.414-39.844 142.62-106.03 179.86-215.46 14.328-41.828 19.719-86.199 15.82-130.24zm-354.3 183.82c-32.926 11.695-69.188 9.5781-100.53-5.8711-31.344-15.449-55.102-42.918-65.879-76.16-21.797-67.617 12.117-142.24 32.32-206.81 5.6016-17.93 24.961-87.047 36.867-99.469 5.1094-8.3008 13.332-14.211 22.828-16.406 17.883-4.5234 35.602 2.1562 47.648 14.625 13.711 14.203 57.773 143.95 67.078 165.84 7.3555 13.641 13.844 27.73 19.43 42.188 24.539 64.828 20.016 154.22-59.766 182.06z" fill="#fff"/>
</svg>
