<?xml version="1.0" encoding="UTF-8" standalone="no"?>
<!DOCTYPE svg PUBLIC "-//W3C//DTD SVG 1.1//EN" "http://www.w3.org/Graphics/SVG/1.1/DTD/svg11.dtd">
<svg width="100%" height="100%" viewBox="0 0 512 482" version="1.1" xmlns="http://www.w3.org/2000/svg" xmlns:xlink="http://www.w3.org/1999/xlink" xml:space="preserve" xmlns:serif="http://www.serif.com/" style="fill-rule:evenodd;clip-rule:evenodd;stroke-linejoin:round;stroke-miterlimit:2;">
    <g transform="matrix(1,0,0,1,-49.57,-82.779)">
        <g transform="matrix(0.46515,0,0,0.46515,26.5125,44.2743)">
            <path d="M81.656,947.88C137.129,942.993 192.246,934.665 246.676,922.942C263.692,919.29 281.149,918.137 298.496,919.52C566.786,940.942 753.446,801.93 753.446,801.93L799.126,785.524C812.708,780.77 823.978,771.04 830.661,758.297C837.341,745.555 838.938,730.75 835.126,716.875L698.276,226.725C690.78,200.045 674.128,176.862 651.237,161.241L546.497,89.546C538.794,84.292 529.458,81.976 520.192,83.027C510.926,84.077 502.344,88.421 496.012,95.265L414.848,183.695C406.875,192.429 402.438,203.816 402.395,215.64C402.352,227.468 406.707,238.886 414.614,247.679L487.27,328.843C492.614,334.823 499.364,339.382 506.911,342.109C512.43,344.042 518.423,344.183 524.028,342.515C529.633,340.843 534.567,337.445 538.13,332.804L560.161,304.679C564.63,299.054 571.294,295.616 578.466,295.241C585.642,294.863 592.63,297.585 597.661,302.71C601.887,307.222 604.333,313.112 604.555,319.292C604.774,325.468 602.751,331.519 598.856,336.319L564.965,379.327C561.637,383.562 559.594,388.663 559.082,394.022L545.512,534.862C545.278,537.44 545.067,540.018 544.903,542.597C547.715,574.12 557.325,621.628 588.192,657.717C592.477,662.674 594.692,669.088 594.376,675.631C594.063,682.178 591.243,688.35 586.504,692.873C581.544,697.423 574.957,699.783 568.234,699.42C561.512,699.052 555.222,695.99 550.785,690.927C524.488,660.458 510.215,624.482 502.527,592.372C500.496,583.771 495.828,576.02 489.175,570.204C482.523,564.388 474.218,560.798 465.425,559.934C449.394,558.387 430.644,557.216 417.425,558.177C393.402,560.02 370.234,567.899 350.066,581.075C313.023,605.227 280.808,636.075 255.074,672.036C251.031,677.633 244.851,681.309 238.004,682.196C231.157,683.082 224.246,681.102 218.91,676.723C214,672.477 210.871,666.535 210.149,660.082C209.426,653.629 211.168,647.144 215.02,641.918C234.461,614.938 257.129,590.434 282.52,568.957C285.254,566.672 286.817,563.281 286.785,559.719C286.754,556.156 285.129,552.797 282.356,550.558L282.215,550.558C249.098,524.097 197.067,492.761 133.875,489.62L132.82,489.62C111.004,488.765 89.781,496.851 74.066,512.007C58.351,527.167 49.504,548.081 49.57,569.917L49.57,771.717C49.567,777.053 52.25,782.029 56.707,784.963C61.164,787.897 66.797,788.385 71.695,786.272C92.347,777.483 110.613,763.917 124.992,746.686C130.324,739.506 139.086,735.717 147.969,736.745C156.856,737.776 164.516,743.467 168.067,751.675C171.622,759.885 170.52,769.366 165.188,776.546C163.43,778.889 128.297,825.39 61.668,842.476C58.246,843.335 55.207,845.308 53.032,848.081C50.856,850.854 49.664,854.276 49.645,857.804L49.645,918.273C49.637,926.554 53.094,934.461 59.172,940.082C65.254,945.703 73.406,948.527 81.66,947.875L81.656,947.88Z" style="fill:white;fill-rule:nonzero;"/>
            <path d="M1049,963.49C1045.36,959.787 1040.39,957.705 1035.19,957.705C1030,957.705 1025.03,959.787 1021.39,963.49L923.281,1062.89C920.109,1066.11 919.179,1070.92 920.925,1075.1C922.672,1079.27 926.75,1081.99 931.273,1081.99L983.07,1081.99L983.07,1107.96C983.133,1113.04 987.242,1117.15 992.328,1117.22L1078.13,1117.22C1080.59,1117.22 1082.94,1116.24 1084.67,1114.5C1086.4,1112.77 1087.38,1110.41 1087.37,1107.96L1087.37,1081.99L1139.07,1081.99C1143.59,1081.99 1147.67,1079.27 1149.42,1075.1C1151.16,1070.92 1150.24,1066.11 1147.06,1062.89L1049,963.49Z" style="fill:white;fill-rule:nonzero;"/>
            <path d="M1049,706.9C1045.36,703.197 1040.39,701.115 1035.19,701.115C1030,701.115 1025.03,703.197 1021.39,706.9L923.281,806.252C920.109,809.475 919.179,814.287 920.925,818.459C922.672,822.631 926.75,825.35 931.273,825.353L983.07,825.353L983.07,851.323C983.133,856.408 987.242,860.518 992.328,860.58L1078.13,860.58C1080.59,860.58 1082.94,859.604 1084.67,857.866C1086.4,856.131 1087.38,853.776 1087.37,851.323L1087.37,825.401L1139.07,825.401C1143.59,825.397 1147.67,822.678 1149.42,818.506C1151.16,814.334 1150.24,809.522 1147.06,806.299L1049,706.9Z" style="fill:white;fill-rule:nonzero;"/>
        </g>
    </g>
</svg>
