<?xml version="1.0" encoding="UTF-8"?>
<svg width="1200pt" height="1200pt" version="1.1" viewBox="0 0 1200 1200" xmlns="http://www.w3.org/2000/svg">
 <g fill="#fff">
  <path d="m1097 742.27c-2.8359-24.07-9.8438-47.156-15.258-70.711-5.4102-23.203-6.332-47.23-2.7188-70.781 6.75-47.953-1.8516-88.781-20.016-133.24-9.0938-22.242-20.367-44.531-18.328-68.719 7.5938-90.703 26.625-125.53 35.789-162.98 8.3203-33.914 9.8438-69.727-1.6406-103.41-25.945-76.148-105.35-63.281-120.14-25.781-14.391 36.305-17.953 78.656-6.3047 114.21 5.6484 17.25 16.875 35.367 16.031 54.047-0.86719 19.617-23.977 22.289-39.469 15.633-33.84-13.152-60.402-40.199-72.938-74.273-11.719-31.289-59.508-103.29-59.531-103.34-26.062-42.492-76.805-51.984-122.16-37.312-53.227 17.156-90.773 62.367-141.14 85.312-50.883 23.18-107.3 31.031-159 52.594-25.969 10.875-50.508 24.516-71.062 43.922-3.3555 3.4453-6.4844 7.1016-9.375 10.945-11.484 9.0938-17.602 22.805-18.445 37.992-0.44531 8.3906 7.4062 14.93 15.305 15.188s12.352-2.3438 19.242-6.1875c2.625-1.5 5.3438-5.5781 8.7891-4.8984 4.4766 0.84375 6.1641 10.453 6.1172 13.242-0.30469 17.391-12.938 33.773-22.945 47.086-15.891 21.094-44.273 59.812-73.711 35.695-27.656-22.641-21.094-70.758-16.406-101.53 5.5078-36.609 16.922-72.656 16.945-109.97 0-31.078-8.4375-63.727-30.68-86.719-21.656-22.289-53.32-25.219-72.516 1.3594-19.195 26.578-28.359 102.35-8.3672 205.83 8.9531 46.336 12.492 93.539 18.609 140.3 0.21094 1.5703 0.39844 3.1641 0.58594 4.6875 0 0.79688 0 1.5938 0.11719 2.3438 0.65625 15.625 1.7812 31.25 3.375 46.875 1.4766 14.531 3.2812 29.039 5.7188 43.453 2.5078 14.883 3.9375 31.102 11.719 44.273 1.5078 2.9609 4.8086 4.5469 8.0625 3.8672 2.6289 0.80469 5.4727 0.45703 7.8281-0.96094 8.9062-5.3438 11.719-15.445 20.062-21.234 10.781-7.1953 25.359-4.8516 34.875 3.3516 16.406 14.344 18.164 42.188 19.172 62.25 1.1484 22.641-0.63281 47.414-19.5 62.883-18.352 15.07-46.148 11.906-53.555-12.984-0.65234-2.2344-1.7422-4.3125-3.2109-6.1172-5.0156-12.117-22.594-12.492-28.125 1.3594-8.8359 22.289-4.2422 47.625 0 70.453 4.9453 26.203 10.992 51.562 8.0156 78.516-5.3672 48.75-26.578 102.12 5.1094 146.91 27.773 39.281 79.078 48.727 124.22 43.664 6.2109-0.70312 67.266-4.6875 91.641-4.9688 29.32-0.46875 119.23 2.3438 171.09 31.406 25.898 14.484 53.133 25.922 80.156 38.086 56.906 25.664 121.57 31.383 183.49 29.109 31.277-1.0938 62.406-4.7891 93.07-11.039 14.793-2.7969 29.27-7.0586 43.219-12.727 6.9336-3 13.5-6.7812 19.57-11.273 5.9688-3.293 11.375-7.5156 16.008-12.516l0.30469-0.25781c1.7969-1.3789 3.2578-3.1484 4.2656-5.1797 2.3867-3.1523 4.5039-6.5 6.3281-10.008 5.3906-10.383-0.98437-27.586-15-25.969-21.094 2.3438-68.32 15.938-80.883-8.1562-14.297-27.445 8.5078-68.156 19.664-93.094 13.363-29.766 28.227-58.832 44.531-87.094 10.758-18.75 24.117-44.836 44.227-57.234 10.641 0.16406 19.992 0.84375 25.43 14.32 6.2578 15.445 7.0312 29.789 4.8047 46.008-1.0547 7.3828 2.6016 15.469 9.1406 18.211 6.4453 5.7891 15.984 7.1719 22.922-1.5703 27.984-35.25 42.164-78.141 36.867-123.14zm-909.21-542.09c-0.35156 12.586-4.0547 22.688-14.766 30.07-7.9922 5.4844-22.43 2.0625-26.578-6.9141-4.4375-9.2734-7.0469-19.316-7.6875-29.578-0.49219-8.3438-0.14062-21.328 5.1797-28.289 3.0469-4.2031 7.3594-7.3242 12.305-8.9062 4.0703-1.6016 8.543-1.8477 12.766-0.71094 4.2188 1.1406 7.9609 3.6094 10.672 7.0391 8.1562 9.6562 8.4375 25.289 8.1094 37.289zm68.789 767.79c-2.5547 1.5625-5.2852 2.8203-8.1328 3.75-23.836 13.172-50.25-1.875-60.938-24.281-0.14062-0.23438-0.30469-0.44531-0.46875-0.67969-2.1016-3.2891-3.3125-7.0703-3.5156-10.969-5.2969-22.125-0.98438-49.031 20.602-60.938 23.789-13.031 54.516-1.125 67.969 21.094 13.969 23.32 8.2031 57.234-15.516 72.023zm518.65-660.94c4.3359-18.75 23.625-32.602 42.891-26.742 1.0078 0.29297 1.9961 0.65234 2.9531 1.0781 13.125 3.7969 22.852 14.062 27.633 27.305 5.7891 15.961-0.16406 35.32-14.883 44.297s-34.453 6-46.594-5.7422c-10.75-10.379-15.301-25.621-12-40.195zm-138.89-168.75c21.094-10.078 40.5-20.789 64.758-16.875 22.289 3.6328 39.703 17.25 51.562 35.883 10.898 17.109-7.3125 33.305-22.922 30.305-10.969 0-20.789-5.5078-31.758-8.4375-14.742-4.2578-30.254-5.1133-45.375-2.5078-22.125 4.0781-39.141-27.562-16.266-38.367zm128.91 573.66 84.773-43.688c5.4531-2.7695 11.773-3.2969 17.609-1.4727 5.8398 1.8281 10.73 5.8633 13.633 11.246 2.8398 5.4414 3.3867 11.789 1.5234 17.633-1.8672 5.8477-5.9922 10.703-11.461 13.492l-56.25 28.945 48.281 25.359c5.4453 2.832 9.5352 7.7266 11.359 13.586 1.8203 5.8633 1.2266 12.211-1.6562 17.633-2.9336 5.4102-7.875 9.4492-13.758 11.246-5.8867 1.8008-12.242 1.2109-17.695-1.6367l-48.281-25.336 7.7344 62.461c0.74609 6.1172-0.98047 12.281-4.793 17.121-3.8164 4.8398-9.4062 7.957-15.527 8.6602-0.9375 0-1.875 0.16406-2.7891 0.16406-5.668 0.007813-11.145-2.0547-15.395-5.8008-4.2539-3.7461-6.9883-8.918-7.6914-14.543l-11.367-94.172-54.422-28.781-58.594 52.594v66.047l78.492 53.906c5.0664 3.4609 8.5352 8.8047 9.6406 14.84 1.1055 6.0352-0.25 12.262-3.7578 17.293-3.5508 5.0273-8.9336 8.457-14.988 9.5469-6.0547 1.0938-12.297-0.23828-17.379-3.7109l-52.008-35.766v54.234c-0.25781 8.1367-4.7461 15.543-11.84 19.539-7.0898 3.9961-15.754 3.9961-22.844 0-7.0938-3.9961-11.582-11.402-11.84-19.539v-54.141l-52.031 35.766c-5.0273 3.7266-11.348 5.2617-17.523 4.2539-6.1758-1.0078-11.68-4.4727-15.262-9.6055-3.5781-5.1328-4.9297-11.496-3.7422-17.641s4.8086-11.547 10.043-14.977l78.516-53.906v-66.141l-58.945-52.57-54.492 28.594-11.367 94.172c-0.70312 5.625-3.4375 10.797-7.6914 14.543-4.25 3.7461-9.7266 5.8086-15.395 5.8008-0.91406 0-1.8516 0-2.7891-0.16406-6.1211-0.70313-11.711-3.8203-15.527-8.6602-3.8125-4.8398-5.5391-11.004-4.793-17.121l7.5469-62.391-48.281 25.336c-5.4219 2.9961-11.824 3.6953-17.766 1.9336-5.9414-1.7617-10.926-5.8359-13.84-11.305-2.9141-5.4688-3.5117-11.879-1.6602-17.793 1.8555-5.9141 6-10.836 11.516-13.664l48.281-25.359-56.25-28.945c-5.4609-2.793-9.582-7.6484-11.449-13.492-1.8672-5.8438-1.3203-12.191 1.5117-17.633 2.8867-5.4297 7.793-9.5078 13.66-11.355 5.8672-1.8438 12.223-1.3086 17.699 1.4883l84.773 43.688 55.57-29.18v-69.094l-55.453-29.18-84.773 43.688c-5.4531 3.0195-11.891 3.7109-17.859 1.918-5.9688-1.793-10.965-5.918-13.848-11.441-2.8867-5.5234-3.4258-11.977-1.4883-17.902 1.9375-5.9219 6.1836-10.812 11.773-13.566l56.25-28.945-48.281-25.359c-5.4375-2.8164-9.5273-7.6836-11.367-13.527-1.8398-5.8398-1.2734-12.176 1.5703-17.598 2.9336-5.4102 7.875-9.4492 13.758-11.246 5.8867-1.8008 12.242-1.2109 17.695 1.6367l48.281 25.336-7.5469-62.391c-0.70312-8.1055 2.8789-15.988 9.4492-20.793 6.5664-4.8008 15.164-5.8281 22.676-2.7031s12.848 9.9453 14.07 17.988l11.367 94.172 53.625 28.125 59.578-53.32v-66.164l-78.516-53.906c-5.0586-3.4648-8.5273-8.8086-9.6289-14.84-1.1055-6.0352 0.24219-12.258 3.7461-17.293 3.5508-5.0273 8.9336-8.457 14.988-9.5469 6.0547-1.0938 12.297 0.23828 17.379 3.7109l52.031 35.766v-54.328c0.25781-8.1367 4.7461-15.543 11.84-19.539 7.0898-3.9961 15.754-3.9961 22.844 0 7.0938 3.9961 11.582 11.402 11.84 19.539v54.328l52.008-35.859c5.082-3.4727 11.324-4.8047 17.379-3.7109 6.0547 1.0898 11.438 4.5195 14.988 9.5469 3.5078 5.0312 4.8633 11.258 3.7578 17.293-1.1055 6.0352-4.5742 11.379-9.6406 14.84l-78.492 53.906v66.07l59.578 53.344 53.648-28.125 11.367-94.172c1.2227-8.043 6.5586-14.863 14.07-17.988s16.109-2.0977 22.676 2.7031c6.5703 4.8047 10.152 12.688 9.4492 20.793l-7.5469 62.391 48.281-25.336c5.4531-2.8477 11.809-3.4375 17.695-1.6367 5.8828 1.7969 10.824 5.8359 13.758 11.246 2.8828 5.4219 3.4766 11.77 1.6562 17.633-1.8242 5.8594-5.9141 10.754-11.359 13.586l-48.281 25.359 56.25 28.945c5.4531 2.8242 9.5547 7.7148 11.387 13.578 1.8281 5.8633 1.2422 12.215-1.6367 17.641-2.8906 5.4258-7.8008 9.5-13.664 11.34-5.8672 1.8398-12.223 1.3047-17.695-1.4961l-84.68-43.688-55.594 29.203v69.141zm248.44-50.672c-12.633 21.938-47.273 23.789-56.906-1.4531-10.406-27.258-5.9766-102.54 41.203-80.531 0.99609 0.47656 1.9453 1.0391 2.8359 1.6875 10.102 4.4062 17.273 14.719 19.617 26.812 3.1406 16.922 1.9219 38.109-6.8672 53.391zm17.578-455.2c-4.6875 3.0469-14.062 4.6875-19.406 2.5312l-2.3438-0.98438c-6.0703-1.5234-11.906-5.0625-14.32-10.594-6.2344-14.062-8.5312-28.688-4.1016-43.828 1.3398-4.5703 3.9805-8.6562 7.6016-11.754 3.6211-3.0938 8.0625-5.0703 12.789-5.6836 10.312-1.3828 18.75 3.3984 24.445 11.719 8.5078 12.902 11.07 28.84 7.0312 43.758-1.8828 6.2461-6.0586 11.547-11.695 14.836z"/>
  <path d="m550.88 609.87v75.164l56.109 50.227 56.109-50.227v-75.164l-56.109-50.227z"/>
  <path d="m398.48 111.98c0 23.637-13.348 42.797-29.812 42.797s-29.812-19.16-29.812-42.797 13.348-42.797 29.812-42.797 29.812 19.16 29.812 42.797"/>
  <path d="m1077.5 932c12.754 7.3672 15.699 26.152 6.5742 41.957-9.125 15.805-26.867 22.648-39.621 15.285-12.758-7.3672-15.703-26.152-6.5781-41.957 9.1289-15.805 26.867-22.648 39.625-15.285"/>
  <path d="m403.76 1111.3c-17.508-9.375-14.062-29.438 6.1875-35.156 23.766-6.7969 56.367-11.203 89.062 0 10.102 3.4922 18.75 6.8672 25.781 10.031 23.812 10.547 18.047 37.5-9 41.859-30.469 5.0625-71.719 5.0156-112.03-16.734z"/>
 </g>
</svg>
