<?xml version="1.0" encoding="UTF-8"?>
<svg width="1200pt" height="1200pt" version="1.1" viewBox="0 0 1200 1200" xmlns="http://www.w3.org/2000/svg">
 <path d="m673.57 1139.1c89.391-45.07 235.8-147.05 296.74-350.09l12.516-1.8281c22.684-3.4141 42.047-18.188 51.328-39.164 26.766-59.906 30.844-124.71 30.469-162.66-0.25-20.199-9.4766-39.242-25.172-51.961l-42.938-34.875c-9.4688-110.77-43.969-259.73-152.77-360.21-137.02-126.35-350.48-126.35-487.5 0-108.8 100.38-143.3 249.35-152.72 360.12l-42.938 34.969c-15.695 12.719-24.922 31.762-25.172 51.961-0.39844 37.945 3.6797 102.75 30.469 162.66 9.2812 20.977 28.645 35.75 51.328 39.164l12.516 1.8281c60.938 203.04 207.33 305.02 296.72 350.02 46.262 23.312 100.83 23.34 147.12 0.070312zm45.961-603.47 4.2891-41.062c1.6172-14.625 10.883-27.289 24.332-33.258 13.449-5.9688 29.055-4.3477 40.988 4.2617 11.93 8.6094 18.391 22.906 16.969 37.551l-4.2891 41.133c-1.5391 14.699-10.805 27.461-24.309 33.477-13.5 6.0156-29.184 4.3711-41.145-4.3125-11.957-8.6836-18.375-23.09-16.836-37.789zm-321.35 8.5547-4.2891-41.133c-1.2852-14.578 5.2266-28.746 17.125-37.266s27.41-10.121 40.797-4.207c13.387 5.9102 22.652 18.457 24.367 32.988l4.2891 41.062c1.4219 14.645-5.0391 28.941-16.969 37.551-11.934 8.6094-27.539 10.23-40.988 4.2617s-22.715-18.633-24.332-33.258zm75.258 427.78-10.219-11.906c-7.2344-8.4297-10.824-19.383-9.9844-30.457 0.83984-11.074 6.0391-21.363 14.461-28.605l55.922-48-65.953-58.43c-8.3125-7.3633-13.359-17.727-14.031-28.812-0.67187-11.086 3.0859-21.98 10.445-30.297l10.406-11.719c7.3594-8.3164 17.727-13.367 28.812-14.039 11.086-0.67578 21.984 3.0859 30.297 10.453l76.172 67.383 77.344-66.375c8.4219-7.2383 19.375-10.832 30.445-9.9922 11.074 0.83984 21.359 6.043 28.594 14.469l10.219 11.906c7.2383 8.4219 10.832 19.375 9.9922 30.445-0.83984 11.074-6.043 21.359-14.469 28.594l-66.891 57.539 55.266 48.961c8.3164 7.3594 13.367 17.727 14.039 28.812 0.67578 11.086-3.0859 21.984-10.453 30.297l-10.383 11.719c-7.3672 8.3125-17.734 13.359-28.824 14.031-11.09 0.67578-21.988-3.082-30.309-10.445l-65.461-57.984-66.352 56.93c-8.4297 7.2383-19.391 10.836-30.469 9.9961-11.082-0.83984-21.375-6.0469-28.617-14.473z" fill="#fff"/>
</svg>
