<?xml version="1.0" encoding="UTF-8"?>
<svg width="1200pt" height="1200pt" version="1.1" viewBox="0 0 1200 1200" xmlns="http://www.w3.org/2000/svg">
 <g fill="#fff">
  <path d="m971.06 314.41 73.195-71.133c3.7266-3.6289 9.1914-4.8281 14.098-3.0977 4.9062 1.7305 8.4062 6.0898 9.0352 11.254 8.3438 67.664 20.414 248.55-66.773 367.83-11.32 15.469-35.742 5.4141-32.812-13.523 9.6797-63.281 18.188-165.35-6.1641-257.27-1.5977-6-1.5664-12.32 0.089844-18.305 1.6562-5.9883 4.8789-11.422 9.332-15.75z"/>
  <path d="m1095.8 82.852c-505.55 261.98-899.18 826.92-1009.9 1010-9.375 15.586 8.8828 33.094 24.047 23.039l77.203-51.234c21.578-14.344 45.922-24.008 71.461-28.371s51.711-3.332 76.828 3.0352c409.88 104.41 549.63-154.85 593.34-286.71 5.7891-17.461-15.82-30.469-28.781-17.367-190.08 191.25-404.27 165.63-476.55 140.95-6.082-2.0625-10.723-7.0391-12.355-13.254-1.6328-6.2109-0.039063-12.828 4.2461-17.613 32.812-36.75 67.594-74.859 100.97-111.77 6.9648-7.6992 16.332-12.816 26.574-14.516 10.242-1.7031 20.758 0.10937 29.84 5.1406 7.5977 4.1953 15.484 7.8477 23.602 10.922 4.4062 1.6523 9.2383 1.7812 13.727 0.375 4.4883-1.4102 8.375-4.2812 11.047-8.1562l59.391-86.297c2.168-3.1641 6.0859-4.6289 9.8008-3.668 3.7109 0.95703 6.4258 4.1406 6.793 7.957l7.5938 78.984c0.41016 4.332 2.7852 8.2383 6.4414 10.594 3.6562 2.3594 8.1914 2.9141 12.309 1.5 36.375-12.941 67.77-36.969 89.773-68.691 22-31.727 33.496-69.555 32.867-108.16-0.625-38.602-13.348-76.035-36.367-107.03-4.5703-6.2227-6.8164-13.852-6.3438-21.559 0.46875-7.7109 3.6289-15.008 8.9219-20.629 97.102-102.98 196.69-204.82 300.33-304.88 11.156-11.719-2.5312-30.047-16.852-22.617zm-344.53 482.13c-3.6094 12.391-13.195 22.148-25.523 25.969-3.5312 1.0781-7.1719 1.7539-10.852 2.0156-4.1484 0.31641-8.1758-1.4961-10.688-4.8125-2.5117-3.3203-3.1641-7.6875-1.7344-11.594 5.8398-15.922 14.203-30.801 24.773-44.062 3.1094-3.7695 8.0078-5.5703 12.816-4.7148 4.8125 0.85547 8.7891 4.2305 10.41 8.8398 3.2305 9.1406 3.4688 19.074 0.67969 28.359z"/>
 </g>
</svg>
