<?xml version="1.0" encoding="UTF-8" standalone="no"?>
<!DOCTYPE svg PUBLIC "-//W3C//DTD SVG 1.1//EN" "http://www.w3.org/Graphics/SVG/1.1/DTD/svg11.dtd">
<svg width="100%" height="100%" viewBox="0 0 512 512" version="1.1" xmlns="http://www.w3.org/2000/svg" xmlns:xlink="http://www.w3.org/1999/xlink" xml:space="preserve" xmlns:serif="http://www.serif.com/" style="fill-rule:evenodd;clip-rule:evenodd;stroke-linejoin:round;stroke-miterlimit:2;">
    <g transform="matrix(1,0,0,1,0,-3.07649e-05)">
        <g transform="matrix(0.487348,0,0,0.487623,-36.3439,-36.5804)">
            <path d="M1076.2,701.62C1031.58,715.495 985.075,722.995 938.58,722.995C684.33,722.995 477.33,515.995 477.33,261.375C477.33,213.75 484.455,167.25 498.33,123.755C502.455,110.63 499.08,96.005 488.955,86.255C479.205,76.13 464.955,72.755 451.455,76.505C226.075,146.255 74.575,352.125 74.575,588.755C74.575,884.635 315.325,1125.01 610.825,1125.01C847.075,1125.01 1053.33,973.505 1123.44,748.505C1127.57,735.005 1124.19,720.38 1114.07,710.63C1104.32,700.88 1089.69,697.13 1076.19,701.63L1076.2,701.62Z" style="fill:white;fill-rule:nonzero;"/>
        </g>
    </g>
</svg>
