<?xml version="1.0" encoding="UTF-8" standalone="no"?>
<!DOCTYPE svg PUBLIC "-//W3C//DTD SVG 1.1//EN" "http://www.w3.org/Graphics/SVG/1.1/DTD/svg11.dtd">
<svg width="100%" height="100%" viewBox="0 0 399 512" version="1.1" xmlns="http://www.w3.org/2000/svg" xmlns:xlink="http://www.w3.org/1999/xlink" xml:space="preserve" xmlns:serif="http://www.serif.com/" style="fill-rule:evenodd;clip-rule:evenodd;stroke-linejoin:round;stroke-miterlimit:2;">
    <g transform="matrix(1,0,0,1,-185.054,-66.6103)">
        <g transform="matrix(0.480053,0,0,0.480053,96.2182,34.6339)">
            <path d="M1009.1,785.7L1005.51,782.817C1003.49,781.497 1001.13,780.751 998.717,780.661C994.678,779.981 990.53,780.743 986.998,782.817C984.361,784.505 982.123,786.743 980.436,789.38C979.252,791.298 978.498,793.446 978.233,795.684C977.447,798.919 977.447,802.294 978.233,805.528C979.33,809.372 981.658,812.751 984.865,815.138C985.998,816.259 987.404,817.063 988.943,817.481C990.361,818.321 991.983,818.759 993.631,818.747C997.674,819.419 1001.83,818.638 1005.35,816.544C1008.15,814.771 1010.54,812.431 1012.38,809.677C1014.11,806.642 1015.01,803.208 1015.01,799.716C1014.88,794.466 1012.77,789.458 1009.1,785.7L1009.1,785.7Z" style="fill:white;fill-rule:nonzero;"/>
            <path d="M851.2,489.47C852.325,490.036 853.513,490.47 854.739,490.759C859.313,492.396 864.376,491.927 868.567,489.47C871.169,487.97 873.329,485.806 874.825,483.201C876.317,480.595 877.094,477.638 877.075,474.634C876.95,472.947 876.708,471.271 876.348,469.619C876.692,462.982 876.157,456.334 874.755,449.838C873.817,446.537 871.93,443.584 869.333,441.341C866.731,439.099 863.532,437.67 860.13,437.228C853.731,436.384 845.482,439.338 842.599,445.642C842.458,445.908 842.333,446.181 842.224,446.463C842.036,446.767 841.802,447.002 841.638,447.306C840.794,448.642 840.079,450.052 839.505,451.525C838.036,455.252 837.368,459.244 837.536,463.244C837.727,469.146 839.333,474.92 842.224,480.072C843.977,484.189 847.169,487.529 851.2,489.47L851.2,489.47Z" style="fill:white;fill-rule:nonzero;"/>
            <path d="M756.82,179.41C766.968,162.769 768.843,136.801 754.476,122.34C748.968,113.973 736.499,109.848 729.046,119.059C716.741,134.247 717.327,157.004 722.835,174.957C724.214,179.621 727.351,183.566 731.585,185.961C735.82,188.355 740.82,189.012 745.526,187.789C750.237,186.566 754.284,183.562 756.819,179.41L756.82,179.41Z" style="fill:white;fill-rule:nonzero;"/>
            <path d="M335.16,442.52C340.125,443.188 345.168,442.047 349.363,439.305C353.558,436.563 356.629,432.407 358.011,427.59C359.301,423.254 360.636,418.942 361.926,414.629C362.969,410.629 362.816,406.41 361.48,402.5C360.148,398.586 357.695,395.152 354.425,392.621C351.57,390.367 348.148,388.949 344.535,388.52C342.367,388.227 340.164,388.227 337.996,388.52C330.636,389.059 322.527,393.934 321.449,401.692L321.238,403.121C318.191,408.77 317.699,415.801 317.113,422.082C317.089,427.606 319.285,432.91 323.207,436.801C326.488,439.919 330.671,441.923 335.16,442.52L335.16,442.52Z" style="fill:white;fill-rule:nonzero;"/>
            <path d="M228.7,919.69C227.36,916.499 225.161,913.741 222.348,911.721C217.903,907.858 212.25,905.663 206.364,905.51L200.763,906.26C198.079,906.877 195.603,908.178 193.568,910.034C189.911,912.756 187.255,916.612 186.021,921.003C184.732,925.436 184.732,930.139 186.021,934.573C186.903,937.167 188.193,939.604 189.841,941.792C192.298,947.807 197.392,952.358 203.646,954.12C210.892,956.014 218.599,953.979 223.966,948.752C225.536,947.217 226.9,945.483 228.021,943.596C229.216,941.659 230.079,939.538 230.575,937.315C231.15,935.096 231.411,932.807 231.349,930.518C231.314,928.135 230.946,925.768 230.247,923.487C229.825,922.186 229.306,920.917 228.7,919.69L228.7,919.69Z" style="fill:white;fill-rule:nonzero;"/>
            <path d="M747.66,901.24C747.66,900.959 747.66,900.678 747.777,900.373C747.765,900.287 747.765,900.201 747.777,900.115C747.66,900.49 747.66,900.865 747.66,901.24Z" style="fill:white;fill-rule:nonzero;"/>
            <path d="M726.33,884.2L726.752,883.942L726.611,883.942L726.33,884.2Z" style="fill:white;fill-rule:nonzero;"/>
            <path d="M1008.1,907.17C1008.1,906.467 1008.31,905.787 1008.38,905.061C1008.88,901.385 1007.61,897.693 1004.96,895.1C1003.7,892.24 1002.01,889.584 999.967,887.225C993.264,879.537 982.342,884.717 979.272,892.686C977.354,898.322 976.167,904.182 975.733,910.124C969.311,919.733 957.663,923.366 945.264,919.077C927.967,913.124 918.053,896.366 917.678,878.788C917.28,860.765 921.967,842.319 924.334,824.53C927.053,804.116 929.233,783.632 930.334,763.077C932.615,727.132 930.49,691.046 924.006,655.617C917.866,623.883 907.6,588.492 884.936,564.445C882.03,560.55 877.147,558.663 872.374,559.593C861.64,561.679 857.866,570.023 861.686,580.241C871.733,606.311 877.143,633.94 877.67,661.874C877.834,675.257 878.303,691.265 871.155,703.218C864.006,715.171 851.96,718.195 843.03,707.132C827.913,688.382 835.834,657.116 830.632,635.038C824.421,608.718 802.507,590.507 795.476,564.726C787.999,537.515 796.718,507.749 799.647,480.468C802.413,454.827 801.64,428.226 794.491,403.288C786.874,377.343 769.132,356.249 760.483,330.866C751.647,304.874 754.858,278.343 754.764,251.554C758.35,242.929 754.061,230.624 741.803,230.46C693.967,229.523 667.975,276.374 671.303,319.522C673.085,342.725 688.811,370.288 681.826,393.256C678.006,405.795 667.553,410.529 655.295,404.975C644.936,400.288 638.889,389.858 634.6,379.827C613.67,329.788 613.319,269.667 614.795,216.277C615.592,188.152 617.795,160.261 619.249,132.23C620.163,114.605 621.1,93.535 610.67,78.628C609.956,76.312 609.104,74.042 608.116,71.831C604.436,63.558 590.116,65.644 588.475,74.386C584.983,93.136 582.522,109.542 572.748,126.605C563.373,143.011 550.857,157.074 538.67,171.394C515.397,198.816 496.834,228.042 487.459,263.128C478.845,295.987 478.236,330.437 485.678,363.578C492.404,393.367 515.936,441.672 481.834,463.469C479.939,464.664 478.279,466.199 476.935,467.992C455.841,485.523 437.724,508.14 423.029,530.219C413.209,544.918 404.752,560.485 397.763,576.719C391.224,591.883 387.849,612.508 376.669,624.953C371.982,630.086 362.021,635.898 357.286,628.117C354.661,623.805 357.286,615.367 358.06,610.75C360.146,597.93 363.169,584.805 358.458,572.172C352.786,557.031 338.724,554.219 327.989,544.047C322.153,538.641 318.216,531.504 316.751,523.688C315.286,515.872 316.376,507.79 319.857,500.641C321.685,495.216 319.919,489.223 315.435,485.657C310.95,482.095 304.716,481.724 299.841,484.728C262.786,516.486 246.872,570.298 249.966,617.848C251.771,645.387 261.122,669.645 270.614,695.192C275.09,707.239 279.637,719.801 280.317,732.692C281.161,749.098 274.504,763.7 268.176,778.442C249.028,822.973 249.707,871.465 274.176,914.172C285.625,934.207 301.789,951.152 321.262,963.531C344.535,978.179 375.332,985.773 392.231,1009.19C409.129,1032.6 347.465,1053.27 331.528,1053.46C294.262,1053.93 284.161,1004.05 279.966,975.249C277.763,960.179 251.325,963.53 253.13,978.882C253.739,984.132 254.442,989.523 255.263,994.984C250.857,1048.42 268.06,1110.74 324.169,1127.75C351.544,1136.05 384.099,1134.39 411.146,1125.57C424.873,1121.22 437.81,1114.69 449.466,1106.24C458.278,1099.72 463.81,1094.12 467.911,1086.62C528.473,1102.63 602.611,1103.45 661.011,1079.75C700.855,1063.61 739.011,1031.89 752.417,990.692C763.433,986.004 782.487,992.661 792.12,994.536C808.245,997.7 824.276,1001.57 840.542,1003.91C870.284,1008.41 900.94,1010.14 930.261,1002.01C956.347,994.747 978.988,979.746 994.081,957.106C1002.71,944.52 1009.95,924.364 1008.1,907.161L1008.1,907.17ZM418.25,827.998C417.227,829.701 415.891,831.197 414.313,832.404C411.676,834.404 408.481,835.533 405.172,835.639C401.926,835.826 398.699,835.01 395.938,833.295C392.68,832.037 389.871,829.842 387.856,826.99C385.84,824.139 384.715,820.752 384.617,817.264C384.633,813.932 385.609,810.678 387.43,807.889C388.777,804.514 391.266,801.717 394.461,799.99C398.555,797.756 403.336,797.131 407.867,798.232C411.23,799.178 414.281,800.998 416.715,803.506C419.148,806.01 420.875,809.115 421.719,812.506C423.152,817.928 421.859,823.705 418.25,827.998L418.25,827.998ZM643.25,570.868C643.113,568.786 643.543,566.704 644.492,564.845C644.73,564.009 645.102,563.216 645.594,562.501C648.102,557.634 652.824,554.29 658.25,553.548C661.535,553.11 664.875,553.638 667.867,555.071C670.855,556.501 673.359,558.774 675.078,561.61L675.242,561.868C677.801,566.45 678.136,571.946 676.16,576.806C674.179,581.665 670.101,585.361 665.07,586.853C663.148,587.345 661.156,587.486 659.187,587.275L660.007,587.275C655.515,587.447 651.16,585.697 648.03,582.47C646.972,581.345 646.042,580.103 645.265,578.767C644.136,577.04 643.495,575.04 643.413,572.978C643.159,572.306 643.062,571.583 643.132,570.869L643.25,570.868ZM752.87,900.958C752.78,901.747 752.647,902.528 752.472,903.302C751.741,906.294 750.104,908.989 747.784,911.013C746.569,912.501 745.132,913.79 743.518,914.833C741.94,916.071 740.132,916.989 738.198,917.528L734.12,918.067C730.085,917.981 726.229,916.384 723.315,913.591C720.112,910.692 718.225,906.614 718.088,902.294C717.182,898.239 717.737,893.993 719.659,890.31C721.581,886.622 724.745,883.739 728.588,882.161C730.139,881.388 731.827,880.919 733.557,880.779C736.042,880.47 738.565,880.587 741.01,881.13C745.213,882.232 748.788,884.986 750.924,888.771C753.057,892.454 753.71,896.81 752.753,900.959L752.87,900.958ZM783.714,864.958C776.167,866.974 767.519,861.138 767.894,852.911C768.48,840.208 776.988,831.817 771.832,818.552C771.015,816.532 769.992,814.599 768.785,812.786C763.492,807.193 756.629,803.333 749.097,801.724C738.48,798.959 729.667,799.076 722.378,808.334C721.534,809.412 720.784,810.49 720.034,811.521C718.889,824.455 714.655,836.919 707.682,847.873C697.971,862.252 685.159,874.268 670.182,883.029C653.916,892.873 638.94,893.224 620.963,896.365C602.213,899.623 588.713,916.146 569.213,920.037C552.01,923.459 534.291,921.842 517.018,919.897C498.924,917.858 481.088,914.295 465.198,904.944C452.565,897.491 435.573,885.796 432.221,870.749C431.143,865.897 434.565,859.03 440.541,859.804C453.432,861.421 461.471,870.421 472.229,877.124C484.51,884.764 497.284,888.046 511.487,889.827C525.69,891.608 540.503,893.553 554.776,892.334C563.975,891.405 572.819,888.276 580.557,883.217C585.596,878.881 590.799,874.709 595.651,870.186L599.19,864.35C599.565,862.819 599.678,861.233 599.518,859.663C598.503,852.612 592.21,847.546 585.104,848.061C565.557,849.092 546.924,853.897 527.612,845.295C492.456,829.662 466.862,781.076 459.221,745.195C454.206,721.757 458.565,699.586 466.721,677.343C474.878,655.1 479.166,631.031 487.815,609.023C494.612,591.937 506.565,577.031 524.94,572.062C545.049,566.625 567.502,573.75 587.729,575.203C592.233,575.355 596.108,578.429 597.288,582.777C598.464,587.125 596.671,591.734 592.862,594.14C573.385,607.992 553.323,594.14 533.143,601.851C517.393,607.851 513.549,627.89 510.151,644.929C508.862,656.765 510.151,665.413 512.893,671.695C515.253,677.211 520.319,681.093 526.256,681.941C532.198,682.789 538.147,680.476 541.955,675.843C559.322,654.491 590.893,638.976 612.267,636.491C660.314,630.89 707.658,663.327 728.567,705.257C733.091,714.328 727.7,726.351 716.544,726.187C709.091,726 697.349,724.031 690.177,726.492C683.568,728.836 677.521,742.898 695.193,754.875C696.693,755.883 698.451,756.187 699.88,757.008C710.989,758.648 722.286,759.633 733.278,761.977C750.434,765.633 767.45,772.243 781.02,783.586C794.598,794.559 802.856,810.797 803.731,828.234C804.177,842.976 799.349,860.742 783.598,864.961L783.714,864.958Z" style="fill:white;fill-rule:nonzero;"/>
            <path d="M639.56,739.9C635.99,733.99 630.861,729.177 624.732,725.998C618.603,722.818 611.712,721.392 604.826,721.877C598.721,722.158 592.748,723.756 587.318,726.564C585.365,727.611 583.529,728.861 581.834,730.291C577.08,733.803 573.552,738.725 571.756,744.353C570.049,748.525 569.174,752.994 569.178,757.501C569.349,764.153 571.287,770.638 574.791,776.294C578.295,781.946 583.244,786.567 589.123,789.681C603.701,796.923 621.795,795.329 633.654,783.494C639.189,777.826 642.752,770.525 643.818,762.674C644.88,754.822 643.388,746.838 639.56,739.901L639.56,739.9Z" style="fill:white;fill-rule:nonzero;"/>
        </g>
    </g>
</svg>
