<?xml version="1.0" encoding="UTF-8"?>
<svg width="1200pt" height="1200pt" version="1.1" viewBox="0 0 1200 1200" xmlns="http://www.w3.org/2000/svg">
 <g fill="#fff">
  <path d="m627.47 350.93c-4.8672 5.5352-11.918 8.6641-19.289 8.5547h-4.4766c-47.902-0.03125-94.582 15.098-133.36 43.219-2.3711 1.7344-3.9414 4.3516-4.3555 7.2578-0.41406 2.9102 0.35938 5.8594 2.1523 8.1875 6.375 8.3203 14.531 18.75 23.438 29.461 3.5273 4.2539 9.7305 5.0781 14.25 1.8984 17.914-12.621 38.109-21.645 59.461-26.578 0.49219 1.0312 0-0.16406 0.42188 0.86719-17.508 15.703 5.8125 41.508 21.094 26.602 120.16-117.59 226.48-185.44 291.59-220.71 31.523-17.062 68.25 11.203 60.516 46.594-13.383 61.195-42.516 117.3-68.906 158.74-8.3906 13.172 8.2266 27.891 19.922 17.672 78.492-68.766 135.61-157.03 175.41-235.88 42.586-84.375-49.477-173.44-131.02-127.01-117.84 67.219-225.26 169.95-306.84 261.12z"/>
  <path d="m831.33 366.56c-1.0156 1.9922-0.48438 4.4258 1.2734 5.8086 1.7539 1.3867 4.2461 1.3398 5.9453-0.11328 14.18-14.297 32.602-38.625 45.422-76.547 1.3203-3.9453 1.0938-8.2422-0.63672-12.023-1.7305-3.7852-4.8281-6.7695-8.6758-8.3516-3.8438-1.5859-8.1484-1.6484-12.039-0.17969-23.836 9.6094-60.422 29.742-103.12 71.555-4.2656 4.1992-6.4336 10.082-5.9102 16.047 0.51953 5.9609 3.6758 11.379 8.6055 14.773l0.46875 0.30469c3.8945 2.6836 8.6367 3.8359 13.328 3.2461 4.6875-0.59375 8.9961-2.8906 12.102-6.457 13.738-15.73 28.621-30.418 44.531-43.945 2.9883-2.4141 7.2578-2.4102 10.238 0.011718 2.9844 2.4219 3.8633 6.6016 2.1133 10.02-3.5625 7.2891-8.0391 15.938-13.641 25.852z"/>
  <path d="m618.75 304.69c17.109-8.1562 30.07-24.422 42.961-37.969 13.906-14.625 28.07-29.008 42.492-43.148 28.828-28.297 58.562-55.578 89.203-81.844 16.406-14.062-7.3594-38.133-23.719-24.023-31.344 26.984-61.695 55.109-91.055 84.375-14.297 14.25-28.359 28.75-42.188 43.5-13.031 13.945-27.258 28.406-33.633 46.875-3.4219 9.8906 8.0859 16.008 15.938 12.234z"/>
  <path d="m825.7 105.19c1.418 1.2148 2.8984 2.3555 4.4297 3.4219 1.625 0.90234 3.3477 1.6172 5.1328 2.1328 5.125 1.3125 10.559 0.58984 15.164-2.0156l3.9844-3.1172c1.8867-1.7578 3.2891-3.9688 4.0781-6.4219 1.832-4.0898 2.1797-8.6875 0.98437-13.008l-0.28125-0.70313c-0.28125-2.2227-1.0391-4.3594-2.2266-6.2578-1.8516-2.9023-4.2969-5.3789-7.1719-7.2656-2.2188-1.4375-4.7891-2.2461-7.4297-2.3438-2.6406-0.60938-5.3945-0.48828-7.9688 0.35156-3.3477 1.0977-6.418 2.9023-9 5.2969-3.2578 3.2383-5.3555 7.4609-5.9648 12.012-0.61328 4.5547 0.30078 9.1797 2.5898 13.16 1.0664 1.7031 2.3008 3.2969 3.6797 4.7578z"/>
  <path d="m1045.3 330.82c-10.672 15.625-21.883 30.789-33.633 45.492-11.438 14.32-23.438 28.125-35.555 41.789-11.062 12.609-26.461 24.961-31.219 41.578-0.98438 3.7109 0.0625 7.668 2.7617 10.406 2.6953 2.7344 6.6367 3.8398 10.363 2.9062 16.57-4.2422 28.688-20.25 40.406-32.367 13.922-14.555 26.812-30.281 39.281-46.125 11.578-14.703 22.703-29.734 33.375-45.094 9.6797-14.062 26.344-31.453 25.781-49.359-0.375-10.383-10.289-15.094-19.031-11.062-15.141 6.9141-23.414 28.5-32.531 41.836z"/>
  <path d="m1059 412.97c-23.836 30.844-48.797 60.609-74.391 89.953-12.109 13.891-24.43 27.602-36.961 41.133-11.32 12.164-27.211 24.82-28.125 42.445 0 5.4062 4.3438 9.8125 9.75 9.8906 16.57-0.72656 28.43-15.422 39.445-26.695 13.57-13.898 26.953-28.008 40.008-42.398 26.133-28.805 50.719-59.062 74.508-89.836 13.312-17.344-10.688-42-24.234-24.492z"/>
  <path d="m694.69 675.8c3.3711-3.375 5.2695-7.9492 5.2734-12.723 0.007812-4.7695-1.8711-9.3516-5.2344-12.738-3.3594-3.3867-7.9258-5.3047-12.695-5.3359-4.7148 0.066406-9.2227 1.9688-12.562 5.2969-3.3477 3.3984-5.2266 7.9766-5.2266 12.75s1.8789 9.3516 5.2266 12.75c3.3086 3.3867 7.8398 5.293 12.574 5.293s9.2656-1.9062 12.574-5.293z"/>
  <path d="m289.27 169.2c15.492 14.297 33.82 25.477 50.766 37.898 18.094 13.219 35.719 27.141 53.719 40.594 16.898 12.633 33.773 26.273 51.703 37.266 16.688 10.242 32.812 27.375 51.375 33.445 1.7031 0.43359 3.5039-0.066407 4.7383-1.3164 1.2344-1.2461 1.7148-3.0586 1.2617-4.7539-6.6797-18.305-24.445-32.227-35.883-47.602-13.031-17.531-30.188-32.953-46.617-47.156-16.43-14.203-33.023-26.766-50.297-39.211-18.75-13.453-37.805-28.57-58.922-37.875-17.227-7.5938-38.32 13.5-21.844 28.711z"/>
  <path d="m424.22 164.06c11.883 11.719 23.93 23.133 35.531 35.156 20.812 21.445 43.008 47.18 68.906 62.227 5.3203 3.0938 12.75-2.0625 10.734-8.3672-9.2109-28.828-32.273-55.43-52.617-77.062-10.711-11.391-22.008-22.406-33.516-32.953-10.523-9.6562-23.227-24.492-38.508-23.133-6.1406 0.5625-12.258 5.0859-11.883 12.047 0.82031 14.578 11.484 22.336 21.352 32.086z"/>
  <path d="m120.14 249.8c20.531 42.188 48.023 80.883 77.109 117.3 10.031 12.586 71.859 98.086 89.227 72.234 7.4062-11.039-3.0703-23.93-9.2344-33.023-9.7969-14.531-21.094-27.82-32.039-41.438-22.238-27.141-42.98-55.473-62.133-84.867-17.648-27.656-33.82-56.766-43.57-88.336-4.8984-15.867-9.6094-33.867-9.0703-50.648 0-1.1016 0.14062-2.3438 0.21094-3.4219 2.3438 2.1094 7.0312 4.2188 8.8359 5.9766 3.0195 2.9141 5.6602 6.1953 7.8516 9.7734 14.32 22.289 49.945 1.2422 35.156-20.906-11.391-17.602-28.852-34.219-50.109-38.086-19.359-3.5156-34.758 9.375-39.844 27.773-5.5547 20.086-0.70312 43.969 3.9609 63.797 5.5117 22.094 13.441 43.512 23.648 63.867z"/>
  <path d="m321.4 458.3c-4.2656 0.039063-8.3516 1.7188-11.414 4.6875-3.0391 3.0625-4.75 7.2031-4.7617 11.52-0.007812 4.3203 1.6836 8.4648 4.7109 11.543s7.1484 4.8359 11.465 4.8984c4.2734-0.035156 8.3672-1.7148 11.438-4.6875 2.9844-3.1289 4.6641-7.2773 4.6875-11.602 0.042968-4.3242-1.6367-8.4883-4.6758-11.566-3.0352-3.0781-7.1719-4.8203-11.496-4.8398z"/>
  <path d="m166.69 463.29c18.906 21.391 39.023 41.672 60.258 60.75 10.898 10.055 21.867 20.18 33.469 29.414 10.781 8.5781 21.938 19.43 35.156 23.438 11.18 3.4453 18.164-9.0703 14.062-18.375-5.6953-12.609-18.352-23.203-27.609-33.352-9.2578-10.148-18.281-19.406-27.164-29.367-18.445-20.648-35.695-42.328-53.461-63.586-17.766-21.258-34.453-42.984-50.93-65.062-8.0156-10.703-15.828-21.555-23.438-32.555-8.4609-12.164-16.266-25.781-29.086-33.633-11.344-6.8906-30.469 1.7344-28.664 16.664 3.2812 28.641 27.398 55.594 43.758 78.328 16.734 23.297 34.922 45.633 53.648 67.336z"/>
  <path d="m300.82 637.15c-26.93 7.7344-46.055 29.344-65.883 48.703-21.438 20.891-42.078 42.57-61.922 65.039-19.852 22.547-39.422 45.188-57.961 68.766-14.273 18.188-41.836 42.844-36.797 67.828 1.1758 4.1953 5.0195 7.0781 9.375 7.0312 14.32-0.9375 22.031-10.195 30.727-20.883s17.578-21.492 26.461-32.227c18.445-22.359 37.008-44.531 56.25-66.258 19.242-21.727 38.672-43.195 58.336-64.453 18.75-20.344 40.172-38.719 49.477-65.32 1.7109-4.8984-3.5156-9.5156-8.0625-8.2266z"/>
  <path d="m319.8 723.3c-6.9258 0.089843-13.301 3.7969-16.805 9.7734l-0.30469 0.49219-1.9688 4.6875c-0.79687 2.5273-0.91016 5.2188-0.32812 7.8047 0.4375 4.2539 2.3125 8.2305 5.3203 11.273 2.4453 2.2773 5.3555 4 8.5312 5.0391 5.043 1.1602 10.336 0.46094 14.906-1.9688l0.44531-0.35156c2.9141-1.6953 5.3359-4.1172 7.0312-7.0312 1.75-3.0195 2.6641-6.4492 2.6484-9.9375-0.066406-5.2031-2.1016-10.184-5.6953-13.945-3.6562-3.668-8.6016-5.7617-13.781-5.8359z"/>
  <path d="m459.98 884.3c36.492-44.414 75.586-90.82 102.82-141.59 6.3281-11.719-1.1016-22.852-10.711-26.32-6.1758-3.8203-14.262-2.1562-18.422 3.7969-6.0703 7.4766-12.258 14.836-18.469 22.195-22.992-14.07-42.414-33.273-56.742-56.105-14.332-22.832-23.18-48.672-25.852-75.496l2.5781 2.3438c13.43 12.234 27.445 23.883 41.672 35.156s29.695 24.797 46.875 30.469c10.148 3.3516 21.773-10.148 14.789-19.523-10.172-13.688-25.266-23.93-38.367-34.711-14.062-11.555-27.586-23.602-40.969-35.906-4.9688-4.5625-9.9062-9.1406-14.812-13.734-3.3945-3.1992-5.8711-7.25-7.1719-11.73-1.3047-4.4805-1.3828-9.2266-0.23438-13.746 2.3906-9.4531 5.5664-18.688 9.4922-27.609 41.812 41.742 87.023 79.5 139.62 107.34 16.734 8.8594 30.633-15.234 14.766-25.617-41.25-26.977-76.43-63.281-110.37-98.648-31.453-32.812-62.18-66.281-91.781-100.78-27.68-32.273-54.797-65.039-80.719-98.812l-0.5625-0.72656c0-0.375-0.11719-0.75-0.11719-1.125 0-7.0312 2.1094-4.6875 8.7422-3.7266l3.1406 0.72656 2.6953 0.96094c9.7266 5.1797 18.914 11.297 28.125 17.367 18.75 12.352 37.758 23.648 58.945 30.914 11.508 3.9375 23.883-8.6953 20.039-20.344-3.0469-9.2109-8.9297-17.367-16.406-21.094l-0.44531-0.39844c-31.25-23.062-63.281-44.938-96.094-65.625-15.516-9.8203-31.125-19.523-46.875-28.898s-33-22.055-51.211-22.852h-0.75c-12.047-4.1953-27.984 5.0859-22.992 20.484 7.6875 23.039 24.211 42.961 37.5 62.789 14.062 20.883 28.805 41.297 44.016 61.336 28.289 37.219 57.492 73.805 88.406 108.84 6.875 7.8125 13.781 15.57 20.719 23.273 2.5781 2.8945 4.2344 6.4961 4.7461 10.34 0.51562 3.8438-0.13281 7.75-1.8633 11.223-4.6758 9.457-8.7031 19.223-12.047 29.227-1.3125-0.82031-2.6484-1.6406-4.0312-2.3438-9.0703-4.6875-22.992 3.3281-18.75 14.695 3.3242 8.4336 8.082 16.227 14.062 23.039-2.2539 13.082-3.4141 26.332-3.4688 39.609-0.10156 38.332 9.2148 76.102 27.137 109.98 17.922 33.887 43.895 62.848 75.637 84.336-51.215 56.934-105.74 110.8-163.29 161.32-17.93 15.75-37.781 33.539-61.852 38.156-15.633 2.9766-36.352-0.98438-45.375-15.656-12.656-20.578 4.2891-53.672 12.844-72.961 3.3516-7.5469 17.977-36.938 35.883-59.297 14.227-17.719-9.375-41.953-24.773-25.125-38.699 42.176-72.312 88.754-100.15 138.77-13.363 24.109-25.32 48.973-35.812 74.461-8.1094 19.734-19.664 43.875-13.219 69.07 2.2734 8.4062 6.9297 15.98 13.41 21.801 6.4805 5.8203 14.504 9.6445 23.105 11.012h0.23438c26.602 4.3828 53.906 0.96094 79.312-7.6875 56.719-19.266 101.16-61.57 142.76-103.36 42.398-42.445 82.523-87.117 120.63-133.5z"/>
  <path d="m277.92 913.15c24.844 11.719 46.57-11.086 63.281-26.766l0.28125-0.28125c8.793-6.7227 16.574-14.668 23.109-23.602 12.406-13.719 24.07-28.09 34.945-43.055 12.352-16.875-14.789-37.758-28.617-22.406-17.25 19.148-34.406 38.414-51.773 57.469l-2.5312 2.8359-1.125 0.84375c-5.6719 4.0156-12.25 6.5586-19.148 7.4062-6.3047 0.5625-12.164-1.7812-18.445-0.30469-25.453 5.9297-19.406 38.719 0.023437 47.859z"/>
  <path d="m399.66 1011.2c-21.094 24.891-46.102 48.328-65.109 75-5.8398 6.0938-10.902 12.887-15.07 20.227-6.6094 12.234 15.609 27.984 31.406 15.234 18.75-15.117 35.977-33.234 52.031-51.258 6.3984-7.1719 15.609-16.875 21.445-27.352 1.5938-2.8359 3.3281-5.6016 4.875-8.4609 9.7969-18.281-14.766-40.969-29.578-23.391z"/>
  <path d="m1074.7 998.25c-47.32 3.1172-92.977-14.625-135.14-34.758-39.93-19.402-77.812-42.75-113.09-69.703-34.852-26.75-68.016-55.625-99.305-86.461-15.891-15.375-31.805-30.75-47.438-46.406-15.633-15.656-30.961-33.656-50.484-45.117-15-8.8125-30.469 8.4609-22.945 23.25 6.5625 12.773 14.859 23.438 5.5547 34.57-11.719 14.062-24.445 26.953-36.562 40.734-13.188 14.984-26.469 29.914-39.844 44.789-25.781 28.875-53.25 57.117-76.852 87.914-14.062 18.352 7.6875 42.07 25.641 26.016 32.648-29.203 61.336-63.75 90.75-95.859 8.7188-9.5156 17.25-19.195 25.781-28.945l1.6641-1.8984c10.734-12.34 25.316-20.695 41.391-23.719 3.2344-0.58594 6.4219-1.2188 9.5859-1.9219 12.035-2.7344 24.637 0.89453 33.375 9.6094 4.9219 4.8906 9.8906 9.7422 14.906 14.555 34.324 33.168 70.742 64.098 109.03 92.602 3.6562 2.7031 7.375 5.3984 11.156 8.0859 2.1953 1.4648 2.9492 4.3398 1.7539 6.6914-1.1992 2.3516-3.9648 3.4336-6.4414 2.5195-15.348-5.2617-30.391-11.391-45.047-18.352-14.129-6.7734-27.754-14.543-40.781-23.25-11.836-7.9453-24.023-19.383-37.945-22.781-4.0469-1.0508-8.3516 0.13281-11.289 3.1094-2.9375 2.9766-4.0664 7.293-2.9609 11.328 7.8516 28.242 45.445 49.219 68.93 62.836 29.988 16.855 61.762 30.312 94.734 40.125 33.656 10.297 67.809 18.902 102.33 25.781 19.266 3.9375 37.5 6.3984 57.188 5.2969 11.109-0.60938 62.883-2.2031 77.156-4.6875 20.086-3.2109 15.516-37.289-4.8047-35.953z"/>
  <path d="m1123.4 904.12c-3.25-11.965-8.6328-23.25-15.891-33.305-17.18-24.891-36.562-48.539-55.758-71.812-19.734-23.953-40.031-47.438-61.43-69.891-20.461-21.492-42.445-49.828-68.789-63.727-17.086-9-37.617 9.5391-27.117 27.492 13.57 23.18 37.055 41.578 55.172 61.195 17.461 18.914 34.711 38.062 51.422 57.633 4.0312 4.6875 8.0391 9.375 12 14.227 20.625 25.594 17.461 52.969-12.211 42.352-14.062-8.1562-47.602-27.75-69.82-42.188-27.719-17.875-54.891-36.625-81.516-56.25-13.172-9.7031-26.273-21.094-39.844-31.641-3.8984-3.1055-6.5703-7.4883-7.543-12.375-0.97266-4.8867-0.1875-9.957 2.2227-14.32 19.715-36.387 29.922-77.164 29.672-118.55 0.11328-39.574-9.8086-78.535-28.844-113.23-19.035-34.699-46.559-64-80-85.168-3.2617-2.0195-7.1367-2.8125-10.93-2.2422-3.7969 0.57031-7.2656 2.4688-9.7891 5.3594l-33.07 37.148-35.836 40.219c-10.125 12 5.3672 28.594 17.742 19.008l35.578-27.656c4.7617-3.7344 10.699-5.6445 16.742-5.3945 6.0469 0.25391 11.805 2.6562 16.234 6.7773 17.168 16 30.832 35.383 40.133 56.93 9.2969 21.543 14.027 44.785 13.891 68.25 0.097656 44.852-17.016 88.027-47.812 120.63-3.4297 3.7031-5.2539 8.6133-5.0781 13.656 0.17578 5.0469 2.3359 9.8164 6.0156 13.273l23.906 22.641c1.9922 1.9688 4.0312 3.8906 6.1172 5.7891 10.172 9.1172 21.375 17.273 31.781 25.312 18.984 14.719 38.297 28.992 57.938 42.82 41.125 28.969 83.523 55.969 127.2 81 19.445 11.137 39.508 21.152 60.094 30 17.812 7.6406 37.945 16.406 57.352 15.375 20.273-1.1953 38.039-14.883 37.5-36.727-0.26953-8.0938-2.8477-15.941-7.4297-22.617z"/>
  <path d="m915.84 1068c-23.859-8.6484-49.219-13.383-73.547-21.258s-48.586-16.031-72-26.133c-47.484-20.531-90.234-48.375-133.99-75.75-20.344-12.727-42.984 16.758-25.594 33.656 40.406 39.211 92.18 66.727 144.12 86.461 25.66 9.9609 52.23 17.395 79.336 22.195 26.344 4.5469 55.102 8.0859 81.68 4.3828 12.914-1.7578 9.9375-19.992 0-23.555z"/>
 </g>
</svg>
