<?xml version="1.0" encoding="UTF-8"?>
<svg width="1200pt" height="1200pt" version="1.1" viewBox="0 0 1200 1200" xmlns="http://www.w3.org/2000/svg">
 <path d="m1161.6 608.4c-12-12-31.199-12-43.199 0-6 6-14.398 13.199-24 20.398-56.402 43.203-130.8 34.805-182.4-16.797-38.398-39.602-90-69.602-144-82.801 61.199-157.2 51.602-357.6-168-357.6-219.6 0.003906-229.2 200.4-168 357.6-54 13.199-105.6 43.199-144 82.801-61.199 61.199-144 56.398-202.8-2.3984-10.801-12-28.801-14.398-42-4.8008-30 24 2.3984 55.199 20.398 73.199 78 79.199 199.2 78 285.6 14.398 4.8008-3.6016 12-8.3984 15.602-10.801 10.801-7.1992 21.602-13.199 32.398-18-20.398 25.199-36 52.801-48 81.602-32.398 79.199-111.6 106.8-188.4 75.602-14.398-7.1992-32.398-2.3984-40.801 12-19.199 33.602 22.801 50.398 46.801 60 102 43.199 214.8-3.6016 270-96 3.6016-4.8008 7.1992-12 9.6016-15.602 9.6016-14.398 20.398-27.602 32.398-38.398-3.6016 24-3.6016 49.199-3.6016 74.398 6 86.398-52.801 145.2-135.6 151.2-39.602 0-43.199 57.602-3.6016 61.199 128.4 10.801 229.2-79.199 240-206.4 1.1992-6 1.1992-14.398 2.3984-18 2.3984-24 10.801-48 21.602-68.398 10.801 20.398 19.199 44.398 21.602 68.398 1.1992 3.6016 1.1992 12 2.3984 18 8.3984 108 88.801 199.2 199.2 205.2 24 2.3984 66 7.1992 68.398-27.602 1.1992-18-13.199-33.602-31.199-33.602-82.801-4.8008-141.6-64.801-135.6-151.2 1.1992-24 1.1992-49.199-3.6016-74.398 12 10.801 22.801 24 32.398 38.398 2.3984 3.6016 6 9.6016 9.6016 15.602 55.199 92.398 168 139.2 270 96 21.602-8.3984 62.398-22.801 49.199-55.199-7.1992-16.801-26.398-24-43.199-15.602-76.801 32.398-156 4.8008-188.4-75.602-13.199-28.801-27.602-57.602-48-81.602 12 4.8008 22.801 10.801 32.398 18 3.6016 2.3984 9.6016 7.1992 15.602 10.801 86.398 64.801 207.6 64.801 285.6-14.398 18.004-16.797 49.207-44.395 25.207-69.598zm-637.2-97.199c-18 0-33.602-14.398-33.602-33.602 0-18 14.398-33.602 33.602-33.602 18 0 33.602 14.398 33.602 33.602s-15.602 33.602-33.602 33.602zm151.2 0c-18 0-33.602-14.398-33.602-33.602 0-18 14.398-33.602 33.602-33.602 18 0 33.602 14.398 33.602 33.602-0.003906 19.203-15.602 33.602-33.602 33.602z" fill="#fff"/>
</svg>
