<?xml version="1.0" encoding="UTF-8" standalone="no"?>
<!DOCTYPE svg PUBLIC "-//W3C//DTD SVG 1.1//EN" "http://www.w3.org/Graphics/SVG/1.1/DTD/svg11.dtd">
<svg width="100%" height="100%" viewBox="0 0 683 683" version="1.1" xmlns="http://www.w3.org/2000/svg" xmlns:xlink="http://www.w3.org/1999/xlink" xml:space="preserve" xmlns:serif="http://www.serif.com/" style="fill-rule:evenodd;clip-rule:evenodd;stroke-linejoin:round;stroke-miterlimit:2;">
    <g transform="matrix(1.33333,0,0,1.33333,-79.2197,-79.2197)">
        <g transform="matrix(0.473557,0,0,0.473557,31.2785,31.2785)">
            <path d="M874.59,600C874.59,751.65 751.65,874.59 600,874.59C448.35,874.59 325.41,751.65 325.41,600C325.41,448.35 448.35,325.41 600,325.41C751.65,325.41 874.59,448.35 874.59,600" style="fill:white;fill-rule:nonzero;"/>
            <path d="M582.02,71.508C562.004,122.344 532.028,192.188 514.684,237.138C513.016,241.337 512.918,245.997 514.414,250.263C515.907,254.529 518.891,258.111 522.817,260.349C526.743,262.587 531.344,263.333 535.778,262.451C578.29,254.388 621.938,254.388 664.448,262.451C668.87,263.302 673.448,262.533 677.346,260.286C681.248,258.04 684.209,254.466 685.693,250.217C687.178,245.967 687.08,241.322 685.424,237.139C667.963,192.186 637.986,122.339 617.971,71.509C616.561,67.946 614.115,64.887 610.948,62.731C607.78,60.575 604.037,59.419 600.206,59.415L599.784,59.415C595.952,59.419 592.209,60.575 589.042,62.731C585.874,64.887 583.428,67.946 582.018,71.509L582.02,71.508Z" style="fill:white;fill-rule:nonzero;"/>
            <path d="M582.02,1128.5C562.004,1077.66 532.028,1007.82 514.684,962.87C513.016,958.671 512.918,954.011 514.414,949.745C515.907,945.479 518.891,941.897 522.817,939.659C526.743,937.421 531.344,936.675 535.778,937.557C578.29,945.62 621.938,945.62 664.448,937.557C668.87,936.706 673.448,937.475 677.346,939.722C681.248,941.968 684.209,945.542 685.693,949.792C687.178,954.041 687.08,958.686 685.424,962.87C668.127,1007.75 638.104,1077.71 618.088,1128.5C616.678,1132.06 614.232,1135.12 611.065,1137.28C607.897,1139.43 604.154,1140.59 600.323,1140.59L599.901,1140.59C596.049,1140.61 592.28,1139.47 589.089,1137.31C585.901,1135.15 583.436,1132.08 582.018,1128.5L582.02,1128.5Z" style="fill:white;fill-rule:nonzero;"/>
            <path d="M1128.5,582.02C1077.66,562.004 1007.82,532.028 962.87,514.684C958.671,513.016 954.011,512.918 949.745,514.414C945.479,515.907 941.897,518.891 939.659,522.817C937.421,526.743 936.675,531.344 937.557,535.778C945.62,578.29 945.62,621.938 937.557,664.448C936.706,668.87 937.475,673.448 939.722,677.346C941.968,681.248 945.542,684.209 949.792,685.693C954.041,687.178 958.686,687.08 962.87,685.424C1007.75,668.127 1077.71,638.104 1128.5,618.088C1132.06,616.678 1135.12,614.232 1137.28,611.065C1139.43,607.897 1140.59,604.154 1140.59,600.323L1140.59,599.901C1140.61,596.049 1139.47,592.28 1137.31,589.089C1135.15,585.901 1132.08,583.436 1128.5,582.018L1128.5,582.02Z" style="fill:white;fill-rule:nonzero;"/>
            <path d="M71.508,582.02C122.344,562.004 192.188,532.028 237.138,514.684C241.337,513.016 245.997,512.918 250.263,514.414C254.529,515.907 258.111,518.891 260.349,522.817C262.587,526.743 263.333,531.344 262.451,535.778C254.388,578.29 254.388,621.938 262.451,664.448C263.302,668.87 262.533,673.448 260.286,677.346C258.04,681.248 254.466,684.209 250.217,685.693C245.967,687.178 241.322,687.08 237.139,685.424C192.186,667.963 122.339,637.986 71.509,617.971C67.946,616.561 64.887,614.115 62.731,610.948C60.575,607.78 59.419,604.037 59.415,600.206L59.415,599.784C59.419,595.952 60.575,592.209 62.731,589.042C64.887,585.874 67.946,583.428 71.509,582.018L71.508,582.02Z" style="fill:white;fill-rule:nonzero;"/>
            <path d="M960.94,213.59C910.854,235.387 840.17,263.582 796.2,283.106C792.044,284.887 788.673,288.11 786.708,292.176C784.739,296.247 784.309,300.891 785.493,305.254C786.677,309.614 789.399,313.403 793.153,315.918C828.903,340.293 859.762,371.152 884.137,406.902C886.653,410.656 890.442,413.379 894.801,414.562C899.165,415.746 903.809,415.316 907.879,413.348C911.946,411.383 915.168,408.012 916.95,403.855C936.473,359.886 964.669,289.195 986.466,239.115C987.985,235.6 988.415,231.709 987.696,227.947C986.977,224.186 985.141,220.729 982.434,218.022L982.153,217.74C979.45,214.987 975.977,213.119 972.192,212.377C968.403,211.639 964.481,212.061 960.942,213.592L960.94,213.59Z" style="fill:white;fill-rule:nonzero;"/>
            <path d="M213.59,960.94C235.387,910.854 263.582,840.17 283.106,796.2C284.887,792.044 288.11,788.673 292.176,786.708C296.247,784.739 300.891,784.309 305.254,785.493C309.614,786.677 313.403,789.399 315.918,793.153C340.293,828.903 371.152,859.762 406.902,884.137C410.656,886.653 413.379,890.442 414.562,894.801C415.746,899.165 415.316,903.809 413.348,907.879C411.383,911.946 408.012,915.168 403.855,916.95C359.886,936.473 289.195,964.669 239.115,986.466C235.6,987.985 231.709,988.415 227.947,987.696C224.186,986.977 220.729,985.141 218.022,982.434L217.74,982.153C214.987,979.45 213.119,975.977 212.377,972.192C211.639,968.403 212.061,964.481 213.592,960.942L213.59,960.94Z" style="fill:white;fill-rule:nonzero;"/>
            <path d="M986.41,960.94C964.613,910.854 936.418,840.17 916.894,796.2C915.113,792.044 911.89,788.673 907.824,786.708C903.753,784.739 899.109,784.309 894.746,785.493C890.386,786.677 886.597,789.399 884.082,793.153C859.707,828.903 828.848,859.762 793.098,884.137C789.344,886.653 786.621,890.442 785.438,894.801C784.254,899.165 784.684,903.809 786.652,907.879C788.617,911.946 791.988,915.168 796.145,916.95C840.114,936.473 910.805,964.669 960.885,986.466C964.4,987.985 968.291,988.415 972.053,987.696C975.814,986.977 979.271,985.141 981.978,982.434L982.26,982.153C985.013,979.45 986.881,975.977 987.623,972.192C988.361,968.403 987.939,964.481 986.408,960.942L986.41,960.94Z" style="fill:white;fill-rule:nonzero;"/>
            <path d="M239.06,213.59C289.146,235.387 359.83,263.582 403.8,283.106C407.956,284.887 411.327,288.11 413.292,292.176C415.261,296.247 415.691,300.891 414.507,305.254C413.323,309.614 410.601,313.403 406.847,315.918C371.097,340.293 340.238,371.152 315.863,406.902C313.347,410.656 309.558,413.379 305.199,414.562C300.836,415.746 296.191,415.316 292.121,413.348C288.054,411.383 284.832,408.012 283.051,403.855C263.528,359.886 235.332,289.195 213.535,239.115C212.015,235.6 211.585,231.709 212.304,227.947C213.023,224.186 214.859,220.729 217.566,218.022L217.847,217.74C220.55,214.987 224.023,213.119 227.808,212.377C231.597,211.639 235.519,212.061 239.058,213.592L239.06,213.59Z" style="fill:white;fill-rule:nonzero;"/>
        </g>
    </g>
</svg>
