<?xml version="1.0" encoding="UTF-8"?>
<svg width="1200pt" height="1200pt" version="1.1" viewBox="0 0 1200 1200" xmlns="http://www.w3.org/2000/svg">
 <g fill="#fff">
  <path d="m914.3 1005.1c-102.82-104.58-131.48-260.98-77.578-397.31 55.945-141.26 158.27-272.11 224.39-347.72 11.297-12.938-3.75-31.922-18.938-23.836 0 0-268.52 158.86-378.12 177-78.117 12.961-151.9-40.711-167.18-118.5-2.3555-12.059-4.0781-24.23-5.1562-36.469-0.53125-5.5898-4.6289-10.191-10.117-11.363-5.4922-1.1758-11.109 1.3477-13.883 6.2305-32.953 58.969-77.695 92.625-116.44 111.77-75.844 37.5-167.44 18.211-220.01-48.047-25.055-31.477-42.773-68.133-54.703-98.883-1.8359-4.7812-6.8242-7.5664-11.855-6.6172-5.0312 0.95313-8.6641 5.3633-8.6289 10.484v358.99c0.03125 8.3594 3.3867 16.363 9.3281 22.246 5.9375 5.8867 13.977 9.1641 22.336 9.1133h0.30469c283.27 0 517.69 208.92 557.65 481.08 1.6406 11.578 7.4023 22.176 16.23 29.848 8.8242 7.6719 20.121 11.902 31.816 11.918h389.67c13.734 0 16.781-19.195 3.75-23.438-75.07-25.125-131.13-63.938-172.88-106.5z"/>
  <path d="m278.88 215.75c2.4805 31.148-14.234 57.891-37.332 59.73-23.098 1.8359-43.828-21.926-46.309-53.074-2.4805-31.148 14.234-57.891 37.332-59.727 23.098-1.8398 43.832 21.922 46.309 53.07"/>
  <path d="m714.56 122.27c0 31.637-25.645 57.281-57.281 57.281s-57.281-25.645-57.281-57.281c0-31.637 25.645-57.281 57.281-57.281s57.281 25.645 57.281 57.281"/>
  <path d="m934.48 764.27c36.844-29.227 91.172-67.969 141.56-87.727 5.9688-2.3516 12.336-3.5312 18.75-3.4688h0.84375c55.969 1.0078 67.195 81.047 13.43 96.609-8.9141 2.5078-18.051 4.1406-27.281 4.875-5.8125 0.49219-11.719 1.1953-17.414 2.0156l-117.19 16.922c-4.8594 0.83203-9.8359-0.56641-13.551-3.8086-3.7188-3.2422-5.7773-7.9844-5.6133-12.91 0.16406-4.9297 2.5352-9.5234 6.4609-12.508z"/>
  <path d="m262.71 778.12c13.055 50.625 42 131.58 99.211 169.59 11.414 7.5938 11.719 25.594 0.14062 33.047-31.922 20.695-78 63.562-99.188 145.76-0.97266 4.9297-5.2969 8.4844-10.324 8.4844-5.0273 0-9.3516-3.5547-10.324-8.4844-13.758-51.305-42.352-125.27-97.57-158.23-4.707-3-7.7734-8-8.3086-13.559-0.53516-5.5547 1.5195-11.051 5.5664-14.895 29.578-26.812 82.031-83.344 103.43-161.84 0.86328-4.1289 4.5156-7.0742 8.7305-7.0469 4.2188 0.03125 7.8281 3.0273 8.6367 7.1641z"/>
 </g>
</svg>
