<?xml version="1.0" encoding="UTF-8"?>
<svg width="1200pt" height="1200pt" version="1.1" viewBox="0 0 1200 1200" xmlns="http://www.w3.org/2000/svg">
 <g fill="#fff">
  <path d="m1139.6 222.66c-0.5-1.7812-1.8203-3.2148-3.5586-3.8555-1.7344-0.64062-3.6719-0.41016-5.207 0.62109l-32.578 21.984c-3.2656 2.2578-5.832 5.3906-7.4062 9.0352-1.5781 3.6484-2.0938 7.6641-1.5 11.59 0.44531 3.3242 0.64062 6.6758 0.58594 10.031-1.1484 65.625-6.4922 231.33-31.031 354.26-3.4688 17.535-11.359 33.898-22.922 47.531-37.617 43.344-82.336 79.977-132.23 108.33-2.6875 1.4648-3.7852 4.7578-2.5156 7.543 1.2695 2.7891 4.4727 4.1172 7.3438 3.0508 76.734-28.57 142.34-74.039 172.64-96.938 11.484-8.7266 19.023-21.66 20.953-35.953 25.5-187.69 35.344-347.6 38.859-422.7 0.26172-4.8867-0.21875-9.7891-1.4297-14.531z"/>
  <path d="m1069.7 208.9 25.992-17.484c1.9766-1.3242 2.9531-3.7188 2.4609-6.0469-0.48828-2.332-2.3438-4.1289-4.6875-4.5469h-0.14062c-128.06-17.93-205.88-90.867-232.03-119.39-3.1328-3.4609-7.1211-6.0352-11.566-7.4609-4.4414-1.4297-9.1836-1.6602-13.746-0.67188l-7.3359 1.6172c-3.6562 0.85938-6.6641 3.4453-8.0625 6.9297-1.3984 3.4844-1.0156 7.4297 1.0312 10.578 0.58594 0.91406 1.125 1.875 1.6406 2.8594 21.492 40.336 76.43 110.16 202.92 124.55 9.6211 1.0859 18.867 4.3359 27.047 9.5156 2.4922 1.5391 5.3789 2.3164 8.3047 2.2383s5.7695-1.0117 8.1719-2.6836z"/>
  <path d="m868.57 741.12c1.2305 3.4766 3.9531 6.2188 7.418 7.4766 3.4688 1.2578 7.3164 0.89453 10.488-0.98438 42.867-25.605 81.379-57.879 114.09-95.602 7.8203-9.2695 13.152-20.375 15.492-32.273 23.953-120.05 29.203-282.61 30.469-348.26 0.16016-7.7148-2.5547-15.211-7.6133-21.039-5.0586-5.8242-12.102-9.5625-19.762-10.484-145.03-16.406-206.93-101.53-228.49-142.05-2.2812-4.2578-6.5312-7.0938-11.34-7.5664-4.8047-0.46875-9.5273 1.4883-12.59 5.2227-52.359 63.023-127.22 82.383-168.23 88.336-8.3906 1.2812-16.043 5.5391-21.559 11.992-5.5156 6.4531-8.5312 14.676-8.4883 23.164 0.16406 97.102 10.617 196.2 20.25 267.19 0.64844 4.8008 4.0508 8.7734 8.6953 10.148 10.797 3.2656 21.32 6.7656 31.57 10.5 3.3086 1.2383 7.0234 0.62891 9.7656-1.5977 2.7422-2.2266 4.1016-5.7383 3.5703-9.2305-9.3008-60.262-13.84-121.16-13.57-182.13 0.054687-12.758 4.1445-25.168 11.684-35.457 7.543-10.289 18.145-17.93 30.293-21.824 26.508-8.5078 64.828-25.078 96.797-55.711 3.3164-3.1836 7.8125-4.8398 12.402-4.5742s8.8594 2.4336 11.785 5.9805c0.46875 0.53906 46.875 55.547 138.09 88.758 11.398 4.2695 21.258 11.859 28.305 21.785 7.0469 9.9258 10.961 21.734 11.234 33.902 1.0781 45.516 1.5703 133.59-7.2891 212.02-2.9258 26.039-15.461 50.051-35.156 67.336-22.609 19.879-46.719 37.98-72.117 54.141-5.8203 3.6875-7.8984 11.188-4.8047 17.344 7.0508 14.121 13.266 28.648 18.609 43.5z"/>
  <path d="m921.09 550.05c8.1328-71.883 7.6641-153.05 6.6562-195.02-0.085938-5.0977-1.6953-10.051-4.6172-14.227-2.9258-4.1758-7.0312-7.3828-11.789-9.2109-45.16-16.168-86.844-40.762-122.84-72.469-2.5977-2.3164-5.9219-3.6602-9.4023-3.8008-3.4766-0.14062-6.8984 0.92969-9.6758 3.0273-24.68 18.102-52.164 32.039-81.352 41.25-5.1289 1.6445-9.6094 4.8633-12.797 9.2031-3.1914 4.3398-4.9297 9.5742-4.9688 14.961-0.25 64.145 5.3047 128.18 16.594 191.32 1.1953 6.9727 5.5117 13.016 11.719 16.406 37.527 19.965 71.109 46.586 99.117 78.562 2.3438 2.5312 7.9688 8.9062 15.352 18.75 3.6055 4.8398 8.9414 8.0977 14.891 9.1016 5.9531 1.0078 12.059-0.32422 17.055-3.7109 18.73-12.57 36.629-26.34 53.578-41.227 12.566-11.016 20.578-26.312 22.477-42.914z"/>
  <path d="m358.41 1147.3h346.36c20.316-0.007813 39.371-9.8594 51.117-26.438 194.41-274.1 6.1641-470.18 6.1641-470.18-136.5-158.98-414.7-134.77-414.7-134.77v-81.516c-0.003906-7.5312-3.7695-14.566-10.035-18.746-6.2656-4.1797-14.203-4.957-21.16-2.0664-132.19 54.586-215.93 153.16-252.21 203.67-4.7461 6.6328-5.7695 15.234-2.7148 22.797 3.0547 7.5625 9.7617 13.039 17.785 14.516 100.03 18.914 195.87 62.859 244.29 87.469 6.9805 3.5469 15.301 3.2109 21.973-0.88672s10.734-11.371 10.723-19.199v-88.547c164.25 7.7812 214.24 83.883 226.55 148.99 9.375 49.359-2.5781 100.2-30.469 142.03-55.547 83.602-142.57 146.06-204.68 183.28-18.469 11.109-10.617 39.586 11.016 39.586z"/>
  <path d="m390.28 253.12c-28.125 17.836-11.461 44.531-11.461 44.531 16.969 33.164 58.594 65.414 89.062 85.664 3.9648 2.6523 9.2109 2.3555 12.852-0.73047 3.6406-3.0859 4.7969-8.2109 2.8281-12.559-15.516-34.477-31.781-80.016-31.781-80.016-7.4766-20.484-33.492-54.773-61.5-36.891z"/>
  <path d="m529.1 138.94c0 16.18-13.117 29.297-29.297 29.297-16.18 0-29.297-13.117-29.297-29.297s13.117-29.297 29.297-29.297c16.18 0 29.297 13.117 29.297 29.297"/>
  <path d="m1011.9 814.31c-5.3008-1.3125-10.883 0.51953-14.379 4.7148-3.4922 4.1992-4.2812 10.023-2.0273 14.996 9.0938 19.852 25.781 47.859 53.555 69 7.8281 6.0234 17.949 8.1992 27.562 5.9258 9.6094-2.2734 17.684-8.7539 21.984-17.645 0.44531-0.96094 0.86719-1.9922 1.2656-3.0469 2.2344-6.1719 2.5352-12.883 0.85937-19.23-1.6758-6.3477-5.2461-12.031-10.234-16.301-13.453-11.906-38.484-28.711-78.586-38.414z"/>
  <path d="m841.41 1147.3h67.078c5.8125 0 11.441-2.043 15.898-5.7773 4.457-3.7305 7.457-8.9141 8.4766-14.637 7.875-44.531 22.617-154.12-1.125-252.73-3.9844-16.547-28.406-13.641-28.336 3.375 0.35156 68.484-12.914 163.38-72.984 248.84-2.8281 4.082-3.1523 9.3984-0.84375 13.793 2.3086 4.3984 6.8711 7.1484 11.836 7.1367z"/>
  <path d="m431.25 963.66c12.82-13.664-4.9688-34.078-20.32-23.297-133.59 93.984-275.32 158.91-346.15 188.6-4.1914 1.7656-6.5586 6.2422-5.6602 10.703 0.89844 4.457 4.8125 7.668 9.3633 7.6719h87.773c9.1094-0.019532 18.098-2.1211 26.273-6.1406 109.9-54 191.09-116.06 248.72-177.54z"/>
  <path d="m486.07 897.98c5.8203 3.6445 13.438 2.4102 17.812-2.8828 7.4609-8.9102 14.082-18.488 19.781-28.617 2.0117-3.9648 0.96484-8.793-2.5078-11.57-3.4727-2.7734-8.4141-2.7266-11.836 0.10938-7.2891 6.7031-15.398 13.758-23.883 20.414-3.5195 2.6797-5.5547 6.8789-5.4766 11.305 0.078124 4.4258 2.2617 8.5469 5.875 11.102z"/>
 </g>
</svg>
