<?xml version="1.0" encoding="UTF-8"?>
<svg width="1200pt" height="1200pt" version="1.1" viewBox="0 0 1200 1200" xmlns="http://www.w3.org/2000/svg">
 <g fill="#fff">
  <path d="m406.22 964.52c93.434 49.539 202.29 61.445 304.22 33.281 4.9102-1.3359 9.0625-4.625 11.48-9.1055 2.418-4.4766 2.8945-9.75 1.3164-14.59l-3.7031-11.086c-1.5039-4.5352-4.6992-8.3164-8.9219-10.551s-9.1445-2.7539-13.742-1.4492c-89.543 24.555-185.07 14.105-267.19-29.227-5.3359-2.7891-11.926-0.83984-14.883 4.4062l-13.008 22.852c-1.5039 2.6289-1.8828 5.7578-1.0508 8.668 0.83594 2.9141 2.8125 5.3672 5.4805 6.8008z"/>
  <path d="m987.3 742.97c1.4727-4.0508 1.2344-8.5312-0.66016-12.402-1.8984-3.875-5.2891-6.8086-9.3945-8.1289l-16.125-5.25c-3.9023-1.2578-8.1406-0.95703-11.828 0.83984-3.6875 1.793-6.5352 4.9453-7.9531 8.793-26.637 71.703-75.227 133.17-138.84 175.64l-54.328-82.031c-10.031-15.117-33.586-5.2969-29.883 12.469 2.1758 10.387 5.5508 20.484 10.055 30.094l104.04 221.32c3.4062 7.2695 8.8203 13.418 15.598 17.719 6.7812 4.3008 14.648 6.5781 22.676 6.5625h13.055c7.2031-0.003906 14.16-2.625 19.582-7.3672 5.4219-4.7461 8.9375-11.297 9.8945-18.438 0.96094-7.1367-0.70312-14.383-4.6797-20.391l-79.102-119.39c72.457-48.309 127.74-118.34 157.9-200.04z"/>
  <path d="m395.74 787.5-67.969 54.211c-50.695-57.113-82.156-128.71-89.938-204.68s8.5117-152.46 46.578-218.67c3.2578-5.6016 4.2617-12.234 2.8008-18.547-1.457-6.3125-5.2656-11.832-10.652-15.438l-7.8984-5.25c-3.2422-2.168-7.2227-2.9258-11.031-2.0977-3.8086 0.82812-7.1211 3.1641-9.1719 6.4805-46.25 75.168-67.203 163.18-59.781 251.12 7.418 87.945 42.816 171.2 101.01 237.55l-223.45 178.43c-13.883 11.066-21.965 27.855-21.961 45.609v1.1484c0 16.074 6.6328 31.441 18.328 42.469 11.695 11.031 27.422 16.75 43.469 15.809 16.051-0.94141 31-8.457 41.328-20.777l270.66-324.54c12.352-14.836-7.2188-34.828-22.312-22.828z"/>
  <path d="m1012.8 600c0.39453-101.79-37.215-200.06-105.47-275.58l152.84-146.93c6.5742-6.3125 10.332-15.004 10.426-24.121 0.089844-9.1133-3.4883-17.879-9.9336-24.324l-24.188-24.234c-7.0586-7.0312-16.852-10.605-26.777-9.7734-9.9297 0.82813-18.992 5.9805-24.785 14.086l-210.14 294.82c-3.3008 4.7656-4.0195 10.863-1.9141 16.266 2.1055 5.4023 6.7578 9.4023 12.418 10.676 5.6562 1.2734 11.574-0.34766 15.793-4.3242l71.156-68.414c59.516 66.461 92.254 152.64 91.875 241.85 0 5.9766-0.21094 11.953-0.49219 17.93h-25.453c-19.57 0-22.43 28.125-3.2344 32.133l220.85 44.93v-77.062h-143.39c0.16406-5.9766 0.42187-11.977 0.42187-17.93z"/>
  <path d="m723.74 220.57c2.9766 18.32-9.4688 35.586-27.789 38.559s-35.586-9.4688-38.559-27.789c-2.9766-18.324 9.4648-35.586 27.789-38.562 18.32-2.9727 35.586 9.4688 38.559 27.793"/>
  <path d="m867.35 610.08-87.609-17.109c-1.4141-35.336-13.207-69.473-33.91-98.148-20.703-28.672-49.395-50.609-82.492-63.07s-69.133-14.891-103.61-6.9922c-5.4727 1.2539-10.258 4.5508-13.383 9.2188-3.1211 4.6641-4.3477 10.344-3.4219 15.883l11.25 67.219c0.77734 4.7109-1.8516 9.3242-6.3008 11.059-4.4531 1.7305-9.5078 0.10938-12.121-3.8867l-44.039-67.922-107.09-157.5c21.445-23.438 40.641-42.516 73.617-65.625 3.0977-2.0312 4.8867-5.5586 4.6875-9.2578-0.26953-3.1289-2.0078-5.9453-4.6836-7.5859-2.6797-1.6406-5.9766-1.9141-8.8867-0.73438-31.402 12.312-61.16 28.469-88.594 48.094l-127.55-187.5c-13.5-19.957-36.02-31.926-60.117-31.945h-29.461c-6.9727 0.03125-13.672 2.7109-18.746 7.4961-5.0703 4.7852-8.1328 11.316-8.5703 18.277-0.4375 6.957 1.7891 13.824 6.2227 19.203l332.84 403.71c-23.617 31.809-36.023 70.547-35.273 110.16 1.5938 94.781 78.07 173.02 172.8 176.67 34.113 1.3477 67.902-7.043 97.422-24.188 29.523-17.145 53.555-42.336 69.289-72.633 1.9766-3.8398 2.4922-8.2656 1.4492-12.457-1.043-4.1914-3.5742-7.8594-7.1211-10.324l-23.32-16.289c-3.1719-2.2148-4.543-6.2305-3.3828-9.918 1.1602-3.6914 4.5781-6.2031 8.4453-6.207l128.91 4.4766c13.898 0.72656 16.383-19.5 2.7422-22.172z"/>
 </g>
</svg>
