<?xml version="1.0" encoding="UTF-8"?>
<svg width="1200pt" height="1200pt" version="1.1" viewBox="0 0 1200 1200" xmlns="http://www.w3.org/2000/svg">
 <g fill="#fff">
  <path d="m123.98 550.9c82.898 25.312 195.23 64.992 211.2 98.438 19.102 39.844 31.758 208.78 54.234 332.3 5.6016 30.727 49.594 30.727 55.172 0 22.477-123.52 35.156-292.36 54.234-332.3 15.961-33.352 128.3-73.031 211.22-98.438 25.195-7.6875 25.195-43.383 0-51.07-82.922-25.312-195.26-64.969-211.22-98.438-19.102-39.844-31.758-208.78-54.234-332.3-5.5781-30.727-49.57-30.727-55.172 0-22.477 123.52-35.156 292.36-54.234 332.3-15.961 33.375-128.3 73.031-211.2 98.438-25.195 7.6875-25.195 43.383 0 51.07z"/>
  <path d="m1082.1 811.78c-56.25-17.133-132.33-44.039-143.13-66.656-12.938-27.047-21.516-141.47-36.75-225.19-3.7969-20.812-33.609-20.812-37.5 0-15.211 83.719-23.789 198.14-36.727 225.19-10.828 22.617-86.953 49.523-143.16 66.656-4.9805 1.5156-9.0664 5.1055-11.211 9.8477-2.1484 4.7422-2.1484 10.18 0 14.922 2.1445 4.7422 6.2305 8.332 11.211 9.8477 56.25 17.133 132.33 44.039 143.16 66.656 12.938 27.047 21.516 141.47 36.727 225.19 3.7969 20.812 33.609 20.812 37.5 0 15.234-83.719 23.812-198.14 36.75-225.19 10.805-22.617 86.953-49.523 143.13-66.656 4.9805-1.5156 9.0664-5.1055 11.211-9.8477 2.1484-4.7422 2.1484-10.18 0-14.922-2.1445-4.7422-6.2305-8.332-11.211-9.8477z"/>
 </g>
</svg>
