<?xml version="1.0" encoding="UTF-8"?>
<svg width="1200pt" height="1200pt" version="1.1" viewBox="0 0 1200 1200" xmlns="http://www.w3.org/2000/svg">
 <g fill="#fff">
  <path d="m570.02 96.891c19.453 277.45 235.62 500.77 509.93 531 16.297 1.7852 32.582-3.4492 44.789-14.391 12.203-10.945 19.176-26.566 19.172-42.961v-453.68c0-16.117-6.4023-31.574-17.801-42.973-11.398-11.398-26.855-17.801-42.973-17.801h-475.29c-10.555 0.015624-20.625 4.4219-27.801 12.164-7.1758 7.7383-10.809 18.113-10.027 28.641z"/>
  <path d="m408.84 56.086h-308.79c-11.66 0-22.844 4.6328-31.09 12.879s-12.879 19.43-12.879 31.09v282.54c-0.003907 14.074 6.7305 27.301 18.113 35.574 11.383 8.2773 26.039 10.605 39.426 6.2617l334.59-108.33c11.227-3.6172 20.52-11.605 25.789-22.156 5.2695-10.551 6.0703-22.781 2.2188-33.93-21.094-60.586-27.539-127.69-29.484-167.81-0.46875-9.7344-4.668-18.918-11.723-25.641-7.0547-6.7227-16.43-10.477-26.176-10.477z"/>
  <path d="m536.72 481.64-462.66 339.02c-11.305 8.2891-17.98 21.469-17.977 35.484v243.75c0 11.66 4.6328 22.844 12.879 31.09 8.2461 8.2461 19.43 12.879 31.09 12.879h229.97c13.656 0.003906 26.543-6.332 34.875-17.156l354.77-461.09c7.0586-9.1719 10.215-20.754 8.7852-32.238-1.4297-11.484-7.332-21.941-16.426-29.098-42.629-33.641-81.215-72.109-114.98-114.63-7.0742-8.8672-17.305-14.656-28.551-16.148-11.246-1.4961-22.633 1.418-31.777 8.1328z"/>
  <path d="m1102.8 752.84c-57.508-3.3242-114.38-13.777-169.31-31.125-10.965-3.4648-22.848-2.4922-33.102 2.7109-10.254 5.1992-18.062 14.215-21.742 25.109l-113.98 336.28c-4.543 13.414-2.3477 28.195 5.8945 39.711 8.2383 11.516 21.523 18.363 35.684 18.391h293.7c11.66 0 22.844-4.6328 31.09-12.879s12.879-19.43 12.879-31.09v-303.23c0.035157-11.176-4.2031-21.941-11.844-30.098-7.6445-8.1562-18.109-13.086-29.266-13.777z"/>
 </g>
</svg>
