<?xml version="1.0" encoding="UTF-8"?>
<svg width="1200pt" height="1200pt" version="1.1" viewBox="0 0 1200 1200" xmlns="http://www.w3.org/2000/svg">
 <g fill="#fff">
  <path d="m146.09 465.07 0.11719 0.23438z"/>
  <path d="m146.2 465.3v-0.11719l-0.21094-0.42188c-0.16406-0.30469-0.35156-0.82031-0.51563-1.1953-0.375-0.79687-0.70312-1.875-1.0781-2.7891-0.67969-2.0156-1.4062-4.0781-1.9688-6.2578-1.2109-4.457-2.1562-8.9805-2.8359-13.547-1.3516-9.4688-1.6562-19.059-0.91406-28.594 0.16406-4.8516 1.0781-9.7031 1.6875-14.555 1.0781-4.8281 1.7812-9.7031 3.3047-14.484 0.67969-2.3438 1.2656-4.8281 2.0156-7.2188l2.5078-7.0312 1.2656-3.5859c0.44531-1.1719 0.98437-2.3438 1.4766-3.5156l3.0234-7.0312c8.8203-19.117 20.094-37.004 33.539-53.203 3.1641-4.3125 7.0312-8.1797 10.523-12.258l5.3906-6.0703 5.7656-5.8125c3.8906-3.7969 7.5938-7.8281 11.719-11.508l12.258-11.039 3.0703-2.7656 3.2344-2.625 6.4453-5.2266c4.3594-3.4453 8.4844-7.0312 13.055-10.383 9.0469-6.5156 17.789-13.453 27.281-19.5l14.062-9.375c4.6875-3.1172 9.5859-5.9062 14.391-8.8828l14.414-8.8125 14.836-8.2969c39.965-21.973 81.148-41.656 123.35-58.945h0.21094c6.0469-2.3828 10.359-7.8086 11.32-14.234 0.96094-6.4297-1.582-12.879-6.668-16.922-5.0859-4.0469-11.941-5.0703-17.988-2.6875-44.332 16.117-87.711 34.758-129.91 55.828l-15.867 8.0625-15.609 8.6719c-5.1797 2.9531-10.453 5.6953-15.562 8.8125l-15.305 9.375c-10.312 6.0469-20.086 13.125-30.094 19.781-5.0391 3.2812-9.75 7.1484-14.625 10.688l-7.2656 5.4375-3.6797 2.5547-3.5156 2.9062-14.062 11.719c-4.6875 3.9141-9.0703 8.25-13.617 12.375l-6.7266 6.2812-6.4453 6.6797c-4.2422 4.5-8.7422 8.7422-12.68 13.617-16.973 18.906-31.438 39.922-43.031 62.531l-4.1953 8.7891c-0.67969 1.4531-1.4297 2.9062-2.0625 4.4062l-1.8281 4.5469-3.6094 9.1172c-1.125 3.0938-2.0625 6.2578-3.0938 9.375-2.1562 6.2344-3.5156 12.773-5.1562 19.219-1.1719 6.5859-2.5781 13.148-3.1641 19.875-1.582 13.551-1.6758 27.234-0.28125 40.805 0.73047 6.9453 1.8789 13.84 3.4453 20.648 0.75 3.4453 1.7578 7.0312 2.8125 10.453 0.60938 1.8047 1.1016 3.5156 1.8281 5.4141l1.0781 2.8359 0.63281 1.5703 0.375 0.86719 0.58594 1.2422c4.7383 9.1289 13.922 15.105 24.188 15.742 10.27 0.63672 20.117-4.1602 25.949-12.633 5.832-8.4766 6.7891-19.387 2.5273-28.75z"/>
  <path d="m579.47 615.77c0 13.27-10.754 24.023-24.023 24.023-13.27 0-24.023-10.754-24.023-24.023 0-13.27 10.754-24.023 24.023-24.023 13.27 0 24.023 10.754 24.023 24.023"/>
  <path d="m1100.9 392.32c-4.5586-3.4453-7.8242-8.3203-9.2812-13.844-1.4609-5.5273-1.0195-11.379 1.2422-16.625 11.695-26.621 18.668-55.078 20.602-84.094 1.2891-19.688-24.656-28.125-35.367-11.555-14.391 22.172-33.305 47.18-55.641 67.195-12.281 11.016-30.352 9.5625-39.68-4.0312l-0.53906-0.79688c-3.0312-4.7656-4.4414-10.379-4.0156-16.012 0.42188-5.6289 2.6523-10.973 6.3594-15.23 16.523-19.172 51.352-64.266 60.938-113.77 8.6016-44.367-18.984-87.82-62.297-100.78-54.844-16.266-157.57-21.844-333.98 45.914-11.719 4.5-7.3125 21.961 5.1094 20.367 47.414-6.0938 105.7-7.8984 165.87 3.9375 2.6406 0.51172 4.5039 2.8906 4.3633 5.5781-0.14453 2.6875-2.2461 4.8555-4.9258 5.0859-78.867 6.0469-266.02 35.367-422.2 176.04-4.5273 3.9297-7.4102 9.418-8.082 15.375-0.66797 5.957 0.92969 11.945 4.4727 16.781 3.7227 4.8047 9.1875 7.9531 15.211 8.7695 6.0234 0.8125 12.125-0.76953 16.992-4.4102 47.531-35.672 193.34-133.36 380.81-146.84 0 0 31.992-1.9922 59.484 6.9141 19.43 6.3047 23.883 32.039 8.0859 44.977-37.852 31.031-108.56 71.484-210.94 110.93 0 0-227.04 73.195-345.05 40.336 0 0-61.242-29.883 4.4766-91.125 0 0 74.578-65.625 165.28-129.28 12.891-9.0469 1.9688-29.016-12.539-22.945-73.43 30.727-168.35 80.508-252.66 156.4-28.57 25.781-36.75 67.969-18.117 101.6 12.188 22.008 36.258 44.32 81.539 60.82 8.1211 2.9648 14.332 9.6406 16.711 17.953 5.2266 18.094 29.18 48.656 131.81 45.492 0 0 266.79-9.2578 455.11-149.46 3.5273-2.5742 8.4141-2.1523 11.449 0.99219 3.0312 3.1445 3.2773 8.043 0.57422 11.477-30.797 38.344-102.49 98.742-268.12 158.91-5.7227 2.0742-9.0781 8.0117-7.9062 13.984 1.168 5.9727 6.5117 10.203 12.594 9.9688 62.438-2.5547 159-18.633 250.45-83.344 3.4336-2.3867 8.0586-2.1016 11.172 0.6875 3.1133 2.793 3.9023 7.3555 1.9062 11.031-20.672 37.008-75 97.898-215.62 130.31-41.941 10.02-85.652 10.02-127.59 0-20.051-4.6836-39.285-12.363-57.047-22.781-4.8672-2.918-8.3008-7.7305-9.4805-13.285-1.1758-5.5508 0.007813-11.344 3.2695-15.988l0.39844-0.5625c1.3984-1.957 1.2695-4.6172-0.30469-6.4336-1.5781-1.8164-4.1953-2.3164-6.3281-1.207-19.754 10.48-38.375 22.969-55.57 37.266-5.3984 4.457-9.0586 10.664-10.344 17.543-1.2852 6.8828-0.11328 13.996 3.3125 20.098 11.074 18.973 25.645 35.672 42.938 49.219 3.4219 2.6797 4.4414 7.4219 2.4219 11.27-2.0195 3.8477-6.5 5.7031-10.648 4.4102-19.781-6.2344-45.914-20.156-74.742-50.414-23.203-24.328-64.172-9.0469-66.211 24.516-1.0547 17.602 2.3438 39.352 14.203 65.812-6.9961-8.2461-15.312-15.27-24.609-20.789-12.746-7.3008-28.152-8.3047-41.738-2.7266-13.59 5.582-23.84 17.121-27.777 31.273-8.5078 30-9.8672 84.141 57.328 140.84 2.7188 2.0391 3.5898 5.7305 2.0703 8.7695-1.5195 3.0391-4.9961 4.5586-8.2578 3.6055-42.191-8.9219-78.41-35.77-99.211-73.547-2.4883-4.7109-6.8633-8.1406-12.031-9.4336s-10.641-0.32422-15.055 2.6602c-4.4141 2.9844-7.3477 7.707-8.0703 12.984-2.5781 15.844-1.7812 35.906 7.0312 59.883 2.5195 6.7227 2.7344 14.094 0.60938 20.953-6.6562 21.094-15.492 71.344 30.773 116.39 27.715 26.457 64.527 41.262 102.84 41.367 24.914 0.28125 57.023-1.6641 87.68-10.219 17.32-4.8516 14.93-30.164-3-31.477-26.859-1.9688-57.445-9.0469-84.375-27.352-2.8398-1.9414-3.9805-5.5742-2.7617-8.793 1.2188-3.2148 4.4805-5.1797 7.8945-4.7539 20.836 2.4844 50.625 3.6562 77.555-4.2188 7.0742-1.9922 14.539-2.1797 21.703-0.53906 32.812 7.0312 127.24 22.359 199.83-19.336 13.566-7.9531 29.039-12.07 44.766-11.906 59.953 1.1953 212.02-10.758 270.4-155.39 4.4414-11.051 12.336-20.371 22.5-26.578 29.227-17.836 91.406-65.062 127.69-159.77 8.2266-21.539-19.805-38.25-34.875-20.812-49.219 56.93-130.71 124.1-252.21 145.97 0 0-72.375 6.7969-124.08-16.406-5.1211-2.3203-8.0117-7.8281-7.0156-13.363s5.625-9.6836 11.234-10.074c82.172-5.8594 285.21-42.07 433.24-250.17 12.438-17.074 20.262-37.07 22.711-58.055 1.9922-18.586-0.49219-39.445-16.711-52.125zm-400.1 515.13c11.133 2.0391 8.625 16.875 0 20.133-43.594 16.406-94.43 9.75-137.6-4.6875-22.934-7.457-44.949-17.488-65.625-29.906-17.789-10.945-39.047-24.328-46.477-44.742-3.8672-10.664 7.4766-18.211 16.688-16.664 19.453 3.2812 37.781 19.664 54.961 28.945 18.004 9.8516 36.941 17.891 56.531 24 39.961 12.164 80.789 15.469 121.52 22.922z"/>
  <path d="m212.34 554.93c0 16.516-13.391 29.906-29.906 29.906s-29.906-13.391-29.906-29.906c0-16.516 13.391-29.906 29.906-29.906s29.906 13.391 29.906 29.906"/>
 </g>
</svg>
