<?xml version="1.0" encoding="UTF-8" standalone="no"?>
<!DOCTYPE svg PUBLIC "-//W3C//DTD SVG 1.1//EN" "http://www.w3.org/Graphics/SVG/1.1/DTD/svg11.dtd">
<svg width="100%" height="100%" viewBox="0 0 512 499" version="1.1" xmlns="http://www.w3.org/2000/svg" xmlns:xlink="http://www.w3.org/1999/xlink" xml:space="preserve" xmlns:serif="http://www.serif.com/" style="fill-rule:evenodd;clip-rule:evenodd;stroke-linejoin:round;stroke-miterlimit:2;">
    <g transform="matrix(1,0,0,1,-72.5665,-85.9615)">
        <g transform="matrix(0.485293,0,0,0.485293,37.3505,44.245)">
            <path d="M934.17,103.88L862.92,224.26C856.401,235.256 855.096,248.58 859.357,260.635C869.974,290.635 881.013,351.573 813.28,385.205C795.592,393.807 776.159,398.201 756.491,398.049L514.69,398.049C508.28,398.045 502.124,400.553 497.534,405.026C492.945,409.502 490.288,415.596 490.128,422.003C489.331,454.323 482.206,513.409 444.987,562.623C444.987,562.623 414.917,616.061 334.647,603.545C325.042,601.939 315.62,599.377 306.522,595.904C286.385,588.388 265.315,583.658 243.897,581.842C174.311,576.569 117.197,638.631 131.257,706.932C134.371,722.897 141.792,737.705 152.726,749.752C163.613,761.139 169.851,776.19 170.21,791.94C170.238,795.87 169.91,799.792 169.226,803.659C168.8,805.94 169.816,808.249 171.781,809.479C173.745,810.71 176.265,810.612 178.132,809.237C182.234,806.139 186.148,802.796 189.851,799.229C200.73,788.709 207.433,774.608 208.726,759.53C210.019,744.452 205.812,729.417 196.882,717.198C186.57,703.136 178.132,679.557 203.023,652.206C224.375,628.768 258.546,630.948 286.179,638.144C308.003,644 328.632,653.648 347.117,666.644C354.711,671.964 363.711,678.363 371.047,683.941C408.359,712.511 382.25,775.793 335.399,778.136C330.086,778.453 324.758,777.949 319.602,776.636C312.84,775.062 305.942,778.656 303.36,785.097C294.782,808.839 266.165,850.722 208.672,907.417L73.042,1066.58C72.382,1067.38 72.413,1068.55 73.112,1069.31C73.815,1070.08 74.975,1070.21 75.831,1069.62L257.381,940.434C262.729,936.606 269.471,935.27 275.873,936.774C282.279,938.278 287.721,942.473 290.803,948.286C299.862,965.931 305.139,985.274 306.295,1005.08C306.893,1013.23 303.994,1021.25 298.322,1027.14C292.654,1033.03 284.748,1036.23 276.576,1035.94C262.818,1035.38 249.295,1032.2 236.732,1026.57C232.818,1024.83 228.467,1024.35 224.271,1025.19C220.072,1026.03 216.24,1028.15 213.294,1031.25L138.083,1109.3C137.099,1110.28 136.989,1111.84 137.833,1112.94C138.677,1114.05 140.208,1114.35 141.411,1113.66L222.177,1069.13C231.713,1063.84 242.896,1062.39 253.466,1065.05C270.743,1069.55 288.454,1072.18 306.294,1072.9C319.771,1073.37 332.845,1068.26 342.431,1058.78C352.017,1049.29 357.267,1036.27 356.943,1022.79C356.611,1000.36 354.686,977.974 351.178,955.81C348.787,940.998 352.525,925.849 361.533,913.849C370.544,901.849 384.049,894.033 398.943,892.201C417.58,889.662 436.42,888.955 455.193,890.091C459.021,890.42 462.818,889.17 465.701,886.631C468.584,884.088 470.298,880.478 470.451,876.638C472.162,829.13 484.303,683.138 568.092,604.758C591.877,582.41 623.447,570.235 656.076,570.82C684.365,571.406 719.92,578.859 747.787,606.656C750.791,609.586 754.552,611.617 758.646,612.52C762.743,613.422 767.009,613.16 770.966,611.766C822.528,594 1003.17,536.766 1115.06,566.625C1118.05,567.394 1121.23,566.734 1123.67,564.836C1126.11,562.933 1127.54,560.011 1127.53,556.922L1127.53,449.582C1127.51,445.707 1125.26,442.187 1121.75,440.546C1118.24,438.906 1114.1,439.441 1111.12,441.917C1086.84,462.589 1034.08,494.839 942.768,492.894C935.303,492.676 928.436,488.762 924.448,482.449C920.456,476.137 919.866,468.254 922.87,461.418C959.55,378.238 1024.8,310.948 1106.81,271.718C1113.01,268.754 1118.24,264.105 1121.92,258.3C1125.6,252.5 1127.57,245.777 1127.6,238.905L1127.6,122.445C1127.6,112.774 1123.76,103.496 1116.92,96.656C1110.08,89.821 1100.8,85.976 1091.13,85.976L965.65,85.976C952.732,85.945 940.763,92.758 934.197,103.882L934.17,103.88Z" style="fill:white;fill-rule:nonzero;"/>
            <path d="M152.67,880.36C152.67,894.481 141.221,905.93 127.1,905.93C112.979,905.93 101.53,894.481 101.53,880.36C101.53,866.239 112.979,854.79 127.1,854.79C141.221,854.79 152.67,866.239 152.67,880.36" style="fill:white;fill-rule:nonzero;"/>
            <path d="M603.61,905.93C603.61,921.875 590.68,934.805 574.735,934.805C558.79,934.805 545.86,921.875 545.86,905.93C545.86,889.985 558.79,877.055 574.735,877.055C590.68,877.055 603.61,889.985 603.61,905.93" style="fill:white;fill-rule:nonzero;"/>
            <path d="M563.77,806.72C581.184,784.408 601.082,759.4 617.301,740.251C627.028,728.747 641.051,721.739 656.09,720.868C663.426,720.446 671.84,720.141 680.254,720.188C697.274,720.305 713.293,728.247 723.684,741.727C746.864,771.727 799.223,823.758 865.974,790.946C949.365,750.258 1035.94,679.686 1108.2,700.032C1113.78,701.653 1118.68,705.044 1122.17,709.696C1125.65,714.345 1127.53,720.005 1127.52,725.813L1127.52,838.453C1127.53,840.278 1126.43,841.922 1124.74,842.61C1123.05,843.297 1121.11,842.887 1119.85,841.571L1119.2,840.914C1098.98,820.57 1072.74,807.301 1044.37,803.078C1016,798.856 987.032,803.906 961.766,817.476C948.219,824.695 931.86,834.117 913.93,845.859C891.032,861.035 864.196,869.183 836.727,869.297C802.071,869.297 768.653,856.406 742.977,833.133C724.536,816.41 707.207,798.496 691.11,779.508C682.489,769.324 669.813,763.457 656.469,763.477C646.121,763.458 636.074,766.973 627.992,773.438C615.406,783.516 594.945,799.993 574.25,817.008C571.356,819.575 566.969,819.465 564.207,816.754C561.45,814.043 561.258,809.66 563.774,806.719L563.77,806.72Z" style="fill:white;fill-rule:nonzero;"/>
            <path d="M763.83,91.641C754.529,112.528 742.6,132.141 728.322,150C714.822,166.707 696.771,179.141 676.349,185.793C655.931,192.449 634.017,193.043 613.267,187.5C586.435,180.363 561.197,168.223 538.876,151.711C534.278,148.289 528.228,147.516 522.915,149.672C499.618,159.258 434.837,187.172 386.485,219.984C383.262,222.179 380.68,225.191 379.005,228.714C377.329,232.234 376.618,236.136 376.946,240.023C378.938,264.492 382.407,319.195 377.415,354.323C376.645,359.687 379.083,365.003 383.649,367.917C397.711,376.789 409.899,388.323 419.532,401.878C420.622,403.582 422.68,404.394 424.641,403.894C426.598,403.394 428.016,401.691 428.157,399.675L432.845,359.433C433.778,350.804 431.825,342.109 427.29,334.706C419.204,321.276 409.384,295.448 426.563,264.722C436.852,246.3 455.696,235.613 474.469,229.378C501.434,220.714 530.348,220.159 557.625,227.784C586.781,235.659 631.875,249.839 661.315,268.612C672.014,275.402 685.413,276.355 696.963,271.144C732.119,255.417 801.053,214.894 830.253,130.144C833.765,119.773 838.796,109.976 845.183,101.082C847.402,98.222 847.773,94.339 846.14,91.109C844.508,87.878 841.16,85.875 837.543,85.964L772.504,85.964C768.746,85.972 765.343,88.195 763.832,91.636L763.83,91.641Z" style="fill:white;fill-rule:nonzero;"/>
        </g>
    </g>
</svg>
