<?xml version="1.0" encoding="UTF-8" standalone="no"?>
<!DOCTYPE svg PUBLIC "-//W3C//DTD SVG 1.1//EN" "http://www.w3.org/Graphics/SVG/1.1/DTD/svg11.dtd">
<svg width="100%" height="100%" viewBox="0 0 683 609" version="1.1" xmlns="http://www.w3.org/2000/svg" xmlns:xlink="http://www.w3.org/1999/xlink" xml:space="preserve" xmlns:serif="http://www.serif.com/" style="fill-rule:evenodd;clip-rule:evenodd;stroke-linejoin:round;stroke-miterlimit:2;">
    <g transform="matrix(1.33333,0,0,1.33333,-60.291,-140.326)">
        <g transform="matrix(0.46146,0,0,0.46146,24.3518,56.6784)">
            <path d="M1143.5,713.88L1091.7,713.88L1091.7,687.888C1091.7,685.439 1090.73,683.091 1089,681.357C1087.27,679.626 1084.92,678.654 1082.47,678.654L996.711,678.654C991.633,678.716 987.527,682.81 987.453,687.888L987.453,713.88L935.656,713.88C931.133,713.884 927.054,716.603 925.308,720.775C923.562,724.946 924.491,729.759 927.663,732.982L1025.77,832.38C1029.42,836.071 1034.39,838.145 1039.58,838.145C1044.77,838.145 1049.74,836.071 1053.38,832.38L1151.49,732.982C1154.66,729.759 1155.59,724.946 1153.85,720.775C1152.1,716.603 1148.02,713.884 1143.5,713.88L1143.5,713.88Z" style="fill:white;fill-rule:nonzero;"/>
            <path d="M1143.5,970.48L1091.7,970.48L1091.7,944.535C1091.71,942.082 1090.74,939.726 1089.01,937.992C1087.27,936.254 1084.92,935.277 1082.47,935.277L996.711,935.277C991.625,935.34 987.515,939.449 987.453,944.535L987.453,970.504L935.656,970.504C931.132,970.508 927.054,973.227 925.308,977.399C923.561,981.57 924.491,986.383 927.663,989.606L1025.77,1089C1029.42,1092.69 1034.39,1094.77 1039.58,1094.77C1044.77,1094.77 1049.74,1092.69 1053.38,1089L1151.49,989.606C1154.68,986.383 1155.62,981.563 1153.87,977.379C1152.12,973.195 1148.03,970.476 1143.5,970.48L1143.5,970.48Z" style="fill:white;fill-rule:nonzero;"/>
            <path d="M751.8,845.41L650.01,845.41C633.065,845.39 616.26,842.336 600.393,836.387C583.37,832.23 566.909,826.047 551.362,817.965C545.417,814.941 540.792,809.843 538.358,803.637C535.924,797.426 535.858,790.539 538.167,784.285C540.944,777.226 546.604,771.687 553.726,769.07C560.843,766.449 568.742,766.995 575.433,770.574C587.91,777.136 601.171,782.074 614.902,785.269C619.456,786.405 624.222,784.46 626.675,780.46C629.132,776.46 628.71,771.331 625.635,767.784L620.292,761.55C608.249,747.593 600.503,730.452 597.98,712.19L580.285,584.24C579.273,576.924 577.757,569.689 575.738,562.584L549.605,470.381C540.144,436.975 539.784,401.651 548.554,368.061C557.327,334.467 574.917,303.831 599.503,279.319L733.843,145.299C738.265,140.901 740.753,134.916 740.753,128.678C740.753,122.44 738.265,116.459 733.839,112.061C729.413,107.663 723.417,105.21 717.179,105.245L348.879,105.245C334.922,105.183 321.902,112.257 314.356,123.995C306.301,136.554 297.079,148.323 286.817,159.151C269.379,187.276 238.629,243.104 223.278,309.341C221.923,315.173 218.641,320.376 213.962,324.111C209.282,327.842 203.482,329.892 197.497,329.92C189.2,329.931 181.376,326.064 176.341,319.471C171.305,312.877 169.638,304.311 171.833,296.311C177.458,272.545 184.798,249.221 193.794,226.514C195.477,222.221 194.665,217.346 191.677,213.83C188.684,210.318 184.005,208.732 179.497,209.709C136.114,218.849 76.817,246.271 53.237,326.619C14.049,459.629 131.237,550.349 131.237,550.349C150.62,568.115 168.034,585.177 183.667,601.466C257.105,677.482 307.227,772.946 328.117,876.556C331.695,895.357 336.972,913.79 343.89,931.634C351.53,950.708 364.816,966.989 381.972,978.302C399.124,989.611 419.324,995.407 439.867,994.915C496.867,993.719 537.297,990.579 565.047,987.344C584.406,985 615.906,987.696 636.531,989.922C652.703,991.688 668.922,992.821 685.187,993.321L751.21,995.43C771.401,995.43 790.761,987.411 805.038,973.133C819.315,958.856 827.335,939.496 827.335,919.305C827.335,917.594 827.335,915.907 827.171,914.219C824.616,875.172 790.937,845.407 751.796,845.407L751.8,845.41Z" style="fill:white;fill-rule:nonzero;"/>
        </g>
    </g>
</svg>
