<?xml version="1.0" encoding="UTF-8" standalone="no"?>
<!DOCTYPE svg PUBLIC "-//W3C//DTD SVG 1.1//EN" "http://www.w3.org/Graphics/SVG/1.1/DTD/svg11.dtd">
<svg width="100%" height="100%" viewBox="0 0 358 512" version="1.1" xmlns="http://www.w3.org/2000/svg" xmlns:xlink="http://www.w3.org/1999/xlink" xml:space="preserve" xmlns:serif="http://www.serif.com/" style="fill-rule:evenodd;clip-rule:evenodd;stroke-linejoin:round;stroke-miterlimit:2;">
    <g transform="matrix(1,0,0,1,-212.063,-44.3107)">
        <g transform="matrix(0.460698,0,0,0.460698,114.366,23.8968)">
            <path d="M807.42,717.19C797.936,713.12 787.455,711.956 777.307,713.846C767.162,715.737 757.803,720.596 750.42,727.807C731.975,745.291 707.506,779.721 701.014,842.367C700.561,846.832 703.061,851.07 707.19,852.828C711.319,854.586 716.112,853.453 719.014,850.031C727.451,839.719 737.936,831.277 749.811,825.234C754.971,822.867 760.44,821.234 766.053,820.383C782.459,817.664 829.756,805.805 831.35,759.938C832.194,735.282 820.592,723.094 807.42,717.188L807.42,717.19Z" style="fill:white;fill-rule:nonzero;"/>
            <path d="M987.38,486.68C987.38,486.68 981.989,429.399 950.935,394.524C947.349,390.489 942.509,387.79 937.193,386.856C931.877,385.922 926.404,386.817 921.662,389.391C895.506,403.379 867.779,414.215 839.068,421.664C833.888,423.035 829.295,426.047 825.963,430.246C822.635,434.445 820.756,439.606 820.6,444.961C819.826,466.871 815.127,488.461 806.725,508.711C804.111,515.211 798.869,520.305 792.295,522.727C785.721,525.145 778.428,524.669 772.225,521.415C766.779,518.407 762.627,513.504 760.561,507.634C758.494,501.766 758.658,495.341 761.022,489.587C796.46,400.525 727.178,352.927 724.202,350.927C718.385,347.044 714.475,340.888 713.432,333.974C712.389,327.06 714.307,320.025 718.717,314.599C722.764,309.833 728.432,306.731 734.627,305.892C740.822,305.052 747.111,306.536 752.279,310.052C771.705,323.607 787.849,341.337 799.529,361.943C802.271,366.712 806.525,370.435 811.619,372.525C816.709,374.611 822.349,374.947 827.654,373.474C852.451,366.939 876.392,357.497 898.974,345.349C912.162,338.048 923.154,327.349 930.814,314.369C938.474,301.389 942.525,286.596 942.544,271.521C942.544,218.13 927.732,153.891 870.052,104.081C847.896,84.222 822.536,68.253 795.052,56.854C765.083,44.709 732.286,41.292 700.454,47.003C668.626,52.71 639.059,67.312 615.181,89.116C591.298,110.921 574.079,139.042 565.505,170.221C556.458,205.565 554.001,242.272 558.263,278.501C560.216,295.677 563.602,312.657 568.388,329.267C572.927,345.79 576.138,362.646 577.997,379.681C579.286,390.31 576.435,401.029 570.028,409.611C564.52,416.759 559.27,418.071 554.301,418.071C548.024,418.068 541.985,415.685 537.399,411.4C532.813,407.114 530.024,401.248 529.598,394.986C528.364,377.256 525.356,359.689 520.622,342.556L520.622,342.391C517.591,331.418 510.88,321.817 501.614,315.203C461.684,286.902 412.469,274.883 363.994,281.594C361.861,281.876 359.752,282.204 357.689,282.532C222.689,304.47 209.309,494.082 338.939,537.762C379.064,551.285 430.345,558.574 494.989,552.035C524.45,549.058 553.301,559.582 575.919,576.433C579.779,579.32 583.45,582.452 586.911,585.808C591.888,590.601 594.7,597.214 594.7,604.124C594.7,611.034 591.888,617.647 586.911,622.44C582.204,626.745 576.016,629.065 569.641,628.928C563.262,628.788 557.184,626.194 552.668,621.69C550.703,619.667 548.555,617.831 546.246,616.206C541.195,612.768 535.769,609.916 530.074,607.698C516.691,602.424 501.41,615.995 507.926,628.792C539.918,691.839 539.449,866.522 539.449,880.112L539.449,942.971C539.449,942.971 465.668,910.159 427.419,967.557C427.419,967.557 411.013,1003.09 424.7,1033.18C424.7,1033.18 370.044,1093.3 260.64,1113.48C236.851,1117.86 244.374,1155.67 268.562,1155.67L895.632,1155.67C921.413,1155.67 928.913,1120.7 905.546,1110.03C885.941,1101.19 867.007,1090.92 848.898,1079.31C821.929,1062 798.851,1039.26 781.14,1012.56C767.8,991.694 747.781,975.971 724.351,967.955C716.101,965.111 707.171,964.881 698.785,967.295C690.399,969.705 682.957,974.642 677.476,981.432C668.5,992.916 660.859,1010.07 660.109,1035.34C659.914,1041.77 657.223,1047.88 652.602,1052.37C647.981,1056.85 641.797,1059.36 635.36,1059.36L634.61,1059.36C628.071,1059.1 621.895,1056.29 617.403,1051.53C612.907,1046.78 610.453,1040.45 610.563,1033.91C611.547,1000.77 620.829,976.275 632.922,958.275C636.094,953.646 637.594,948.072 637.164,942.478C634.422,910.111 632.641,853.79 645.086,797.168C664.422,709.441 733.774,640.418 822.086,623.848C824.195,623.449 826.305,623.074 828.461,622.746C851.164,619.289 873.309,612.84 894.32,603.574C937.515,584.191 994.281,546.762 987.39,486.664L987.38,486.68Z" style="fill:white;fill-rule:nonzero;"/>
            <path d="M251.84,276.56C278.887,254.13 313.129,238.427 357.31,232.615C398.529,226.916 440.525,232.013 479.19,247.404C485.311,249.877 492.256,249.197 497.784,245.584C503.311,241.974 506.722,235.888 506.917,229.287C507.796,199.994 512.651,170.955 521.355,142.967C522.941,138.064 522.574,132.74 520.328,128.104C518.085,123.467 514.136,119.873 509.308,118.077C461.159,100.272 408.628,98.085 359.168,111.819C306.258,126.12 261.141,160.741 233.638,208.147C226.208,221.069 219.767,234.538 214.372,248.436C214.161,248.975 213.95,249.514 213.762,250.053C204.879,273.069 232.793,292.264 251.848,276.561L251.84,276.56Z" style="fill:white;fill-rule:nonzero;"/>
            <path d="M423.98,732.77C442.105,738.196 459.218,746.563 474.628,757.543C478.472,760.262 483.523,760.578 487.671,758.352C491.823,756.129 494.359,751.75 494.222,747.043C491.761,665.457 455.363,625.353 433.284,608.453C426.046,602.921 417.444,599.445 408.393,598.398L407.947,598.398C394.408,596.804 380.791,600.667 370.111,609.14C359.431,617.612 352.568,629.992 351.041,643.538C349.248,660.433 353.018,677.448 361.771,692.011C370.529,706.57 383.794,717.874 399.556,724.21C406.705,727.139 414.837,730.022 423.978,732.764L423.98,732.77Z" style="fill:white;fill-rule:nonzero;"/>
        </g>
    </g>
</svg>
