<?xml version="1.0" encoding="UTF-8" standalone="no"?>
<!DOCTYPE svg PUBLIC "-//W3C//DTD SVG 1.1//EN" "http://www.w3.org/Graphics/SVG/1.1/DTD/svg11.dtd">
<svg width="100%" height="100%" viewBox="0 0 494 512" version="1.1" xmlns="http://www.w3.org/2000/svg" xmlns:xlink="http://www.w3.org/1999/xlink" xml:space="preserve" xmlns:serif="http://www.serif.com/" style="fill-rule:evenodd;clip-rule:evenodd;stroke-linejoin:round;stroke-miterlimit:2;">
    <g transform="matrix(1,0,0,1,-63.823,-43.8087)">
        <g transform="matrix(0.460237,0,0,0.460237,34.4493,23.6463)">
            <path d="M161.02,283.41C185.512,287.441 209.559,281.301 222.872,258.543C232.247,242.605 236.513,218.02 235.692,199.949C233.723,156.683 200.747,122.84 156.544,124.387C135.849,125.114 113.419,131.067 97.95,145.481C97.598,145.809 97.27,146.161 96.942,146.489C69.028,165.731 57.544,203.911 76.669,235.153C93.544,262.786 130.341,278.348 161.021,283.411L161.02,283.41Z" style="fill:white;fill-rule:nonzero;"/>
            <path d="M733.95,111.66C735.009,115.523 737.052,119.043 739.88,121.879C740.395,122.742 740.966,123.574 741.591,124.363C744.22,128.402 747.669,131.844 751.716,134.465C756.134,138.532 761.54,141.376 767.396,142.715C775.419,144.919 783.888,144.919 791.912,142.715L792.38,142.598L803.396,137.911L804.24,137.442C811.506,133.528 813.756,130.411 818.162,124.598C821.154,121.317 823.408,117.434 824.772,113.207C825.791,111.141 826.65,109.004 827.35,106.809C827.889,102.73 828.428,98.676 828.99,94.621L828.99,93.191L827.35,81.074L827.35,80.605L827.186,80.136L822.498,69.238L821.889,68.207C819.6,64.867 817.127,61.66 814.482,58.598C812.861,57.137 811.147,55.781 809.35,54.543C803.209,49.856 801.522,48.285 792.662,45.707L791.748,45.426L791.279,45.426L779.232,43.809L778.294,43.809L766.271,45.426L765.803,45.426L755.022,49.973C749.858,52.727 745.494,56.762 742.342,61.692C740.213,63.821 738.529,66.356 737.396,69.145L736.271,70.598L731.584,81.614C729.666,87.563 729.385,93.919 730.763,100.012C730.76,104.11 731.861,108.137 733.951,111.66L733.95,111.66Z" style="fill:white;fill-rule:nonzero;"/>
            <path d="M1044.4,460.22C1069.69,466.736 1097.32,463.173 1115.86,443.486C1135.27,422.884 1139.02,392.205 1134.38,365.392C1124.53,308.204 1060.74,258.122 1003.79,288.915C986.06,298.274 973.568,315.204 969.849,334.899C969.064,337.075 968.392,339.29 967.833,341.532C955.294,393.282 994.716,447.442 1044.4,460.222L1044.4,460.22Z" style="fill:white;fill-rule:nonzero;"/>
            <path d="M64.57,1011.3C63.632,1030.75 73.031,1049.36 88.265,1061.81C92.019,1066.58 96.367,1070.86 101.203,1074.54C123.707,1091.21 153.058,1095.53 179.414,1086.04C192.316,1081.57 204.105,1074.38 213.984,1064.95C225.093,1054.89 233.539,1042.24 238.57,1028.13C243.601,1014.23 244.758,999.215 241.918,984.703C239.074,970.195 232.347,956.726 222.445,945.746C191.156,904.426 128.695,900.441 91.825,938.152C74.973,955.355 62.833,980.34 63.887,1004.6C63.988,1006.84 64.215,1009.08 64.566,1011.3L64.57,1011.3Z" style="fill:white;fill-rule:nonzero;"/>
            <path d="M582.91,759.7C593.441,761.13 604.121,761.091 614.644,759.583C620.55,758.653 625.73,755.126 628.757,749.97C631.784,744.809 632.343,738.572 630.277,732.958C626.273,722.06 619.82,712.228 611.41,704.224C607.519,700.403 602.238,698.333 596.785,698.485C591.335,698.641 586.18,701.009 582.512,705.044C575.094,713.356 569.645,723.232 566.574,733.942C564.839,739.551 565.652,745.633 568.796,750.59C571.941,755.547 577.097,758.875 582.909,759.699L582.91,759.7Z" style="fill:white;fill-rule:nonzero;"/>
            <path d="M476.02,704.25L476.887,704.766C486.364,710.039 497.555,711.309 507.973,708.301C518.391,705.289 527.18,698.246 532.387,688.735C546.942,663.122 553.473,633.727 551.137,604.36C550.047,590.922 542.36,578.899 530.617,572.274C518.875,565.649 504.609,565.278 492.543,571.289C459.027,588.117 443.16,612.516 436.293,627.07C432.445,635.152 431.449,644.297 433.457,653.015C441.871,689.624 476.019,704.249 476.019,704.249L476.02,704.25Z" style="fill:white;fill-rule:nonzero;"/>
            <path d="M604.69,628.41C620.803,644.117 635.905,660.832 649.901,678.449C655.245,685.386 663.272,689.742 671.999,690.453C680.726,691.164 689.351,688.156 695.745,682.176C706.972,671.348 718.151,653.301 723.378,623.207C723.378,623.207 729.941,578.066 708.026,541.551C701.44,530.778 690.905,523 678.671,519.879C666.433,516.758 653.46,518.539 642.519,524.84C623.652,535.352 607.851,550.606 596.675,569.09C591.23,578.461 589.062,589.383 590.511,600.125C591.964,610.867 596.952,620.82 604.691,628.41L604.69,628.41Z" style="fill:white;fill-rule:nonzero;"/>
            <path d="M174.98,856.99C191.445,864.572 208.48,870.842 225.933,875.74C274.613,889.572 313.038,927.017 328.123,975.326C350.365,1047.18 405.748,1141.48 543.563,1155.8C543.563,1155.8 686.013,1166.2 773.883,1090.34C795.793,1071.16 824.559,1061.72 853.571,1064.18C874.219,1066.29 895.075,1065.16 915.376,1060.83C939.31,1055.22 960.86,1042.2 976.966,1023.63C993.068,1005.06 1002.9,981.882 1005.07,957.398C1007.42,932.132 1005.54,900.89 990.891,870.328C985.168,858.164 983.043,844.621 984.77,831.289C986.493,817.961 991.993,805.402 1000.62,795.094C1019.51,772.289 1039.38,737.391 1044.75,688.194L1044.75,687.093C1052.35,614.062 994.454,549.863 921.091,549.633C907.439,549.637 893.806,550.746 880.333,552.961C873.837,554 867.212,552.133 862.212,547.855C857.212,543.578 854.345,537.32 854.364,530.742L854.364,530.297C854.29,523.492 857.501,517.07 862.989,513.047C864.184,512.203 865.333,511.336 866.458,510.469C888.97,492.469 900.505,464.067 896.927,435.469C888.818,364.5 853.919,257.349 727.097,181.449C622.707,119.035 491.857,116.738 388.217,180.465C337.803,211.496 289.147,260.598 255.097,337.845C245.249,359.97 242.98,384.732 248.648,408.279C254.316,431.822 267.597,452.841 286.433,468.064L288.402,469.611C295.202,474.708 298.773,483.041 297.777,491.478C296.968,497.739 293.663,503.412 288.616,507.205C283.57,510.998 277.206,512.595 270.964,511.634L268.457,511.259C224.086,504.787 178.918,515.517 142.197,541.255C105.478,566.989 79.982,605.786 70.927,649.705C70.763,650.596 70.575,651.486 70.411,652.377C62.618,693.256 68.669,735.565 87.606,772.617C106.543,809.669 137.294,839.359 174.989,856.984L174.98,856.99ZM887.1,699.28C896.28,699.28 905.084,702.928 911.577,709.421C918.069,715.913 921.718,724.718 921.718,733.898C921.718,743.078 918.07,751.882 911.577,758.375C905.085,764.867 896.28,768.516 887.1,768.516C877.92,768.516 869.116,764.868 862.623,758.375C856.131,751.883 852.482,743.078 852.482,733.898C852.474,724.714 856.123,715.906 862.615,709.414C869.107,702.922 877.916,699.273 887.099,699.281L887.1,699.28ZM428.9,290.48C438.517,290.48 447.74,294.3 454.537,301.101C461.338,307.898 465.158,317.121 465.158,326.738C465.158,336.355 461.338,345.578 454.537,352.375C447.74,359.176 438.517,362.996 428.9,362.996C419.283,362.996 410.06,359.176 403.263,352.375C396.462,345.578 392.642,336.355 392.642,326.738C392.642,317.121 396.462,307.898 403.263,301.101C410.06,294.3 419.283,290.48 428.9,290.48ZM376.142,559.03C402.322,503.132 441.767,470.249 479.102,450.94C509.282,435.374 542.586,426.819 576.536,425.917C610.481,425.019 644.192,431.792 675.157,445.737C748.048,478.549 774.321,540.378 782.737,592.197C788.354,628.213 786.487,665.002 777.253,700.267C762.98,756.165 762.253,800.437 763.612,825.287C763.893,831.056 761.795,836.693 757.811,840.873C753.823,845.057 748.295,847.42 742.518,847.412L741.416,847.412C737.373,847.361 733.447,846.053 730.182,843.674C726.917,841.291 724.471,837.955 723.182,834.123C722.901,833.303 722.596,832.553 722.268,831.779C714.018,812.677 687.44,810.685 675.768,827.912C660.182,850.904 657.791,890.514 657.979,914.842C658.022,920.451 655.815,925.842 651.85,929.807C647.885,933.772 642.495,935.979 636.885,935.936L627.252,935.936C621.545,935.94 616.084,933.616 612.131,929.502C608.174,925.389 606.069,919.842 606.299,914.139C608.643,849.03 580.119,835.366 567.979,832.483C565.522,831.866 562.983,831.647 560.456,831.827C542.597,833.491 534.675,855.265 531.276,870.944C530.245,875.604 527.651,879.772 523.924,882.756C520.198,885.74 515.565,887.362 510.791,887.35L508.94,887.35C503.651,887.354 498.557,885.354 494.682,881.752C490.811,878.151 488.444,873.217 488.057,867.943C483.369,805.716 418.893,751.743 418.893,751.743C329.034,686.095 376.143,559.043 376.143,559.043L376.142,559.03Z" style="fill:white;fill-rule:nonzero;"/>
        </g>
    </g>
</svg>
