<?xml version="1.0" encoding="UTF-8"?>
<svg width="1200pt" height="1200pt" version="1.1" viewBox="0 0 1200 1200" xmlns="http://www.w3.org/2000/svg">
 <g fill="#fff">
  <path d="m127.76 316.52c-0.86719 4.3242-0.011718 8.8164 2.3828 12.523 2.3945 3.7031 6.1406 6.3281 10.438 7.3164 4.3008 0.98828 8.8164 0.26172 12.586-2.0273 12.477-7.4375 25.527-13.871 39.023-19.242 24.051-9.457 49.094-16.172 74.648-20.016 7.1602-1.0898 13.625-4.9023 18.047-10.641 16.5-21.199 35.309-40.488 56.086-57.516 4.7188-3.8945 7.0469-9.9805 6.1406-16.031s-4.918-11.184-10.57-13.523c-33.703-14.273-68.578-19.641-101.39-8.1562-71.672 25.125-98.203 80.906-107.39 127.31z"/>
  <path d="m1128.2 972.66c-13.336-31.617-43.758-91.641-96.445-134.74-74.719-61.125-23.766-129.05-23.766-129.05 60.082-50.039 98.809-121.11 108.28-198.73 0.75-5.7617-0.73437-11.59-4.1484-16.289-3.4141-4.6992-8.5039-7.9102-14.211-8.9727-5.7109-1.0664-11.613 0.10156-16.492 3.2539-5.7891 3.7031-11.719 7.0312-17.414 9.9141-4.9922-10.316-11.211-19.996-18.516-28.828-2.0898-2.4297-5.4062-3.4062-8.4766-2.4961-3.0742 0.91406-5.3242 3.5391-5.75 6.7148-1.6211 14.137-5.2695 27.965-10.828 41.062-3.8203 1.0078-7.5469 1.9453-11.039 2.6953-9.2148 1.9883-18.824-0.59766-25.801-6.9414-6.9766-6.3438-10.461-15.664-9.3555-25.027 7.3125-58.758 34.125-85.617 52.688-97.383 4.7734-3.0625 9.2656-6.5352 13.43-10.383 8.8555 7.9766 16.672 17.031 23.273 26.953 1.8047 2.7578 5.0898 4.1602 8.3281 3.5625 3.2422-0.59766 5.8086-3.0859 6.5078-6.3047 3.8906-17.062 6.3047-45.609-4.3828-84.375 24.844-84-3.0234-164.37-26.672-211.8-5.8594-11.82-16.152-20.848-28.637-25.121-12.48-4.2695-26.148-3.4375-38.02 2.3164-59.82 28.828-121.04 54.641-183.45 77.344-15.203 5.5898-31.426 7.8594-47.578 6.6562-345.16-26.555-444.63 171.21-444.63 171.21s-185.16 2.3438-208.31 155.23c-4.4297 27.715-4.0664 55.984 1.0781 83.578 12.023 62.297 78.258 98.438 136.97 74.367 21.938-8.8828 46.242-22.945 72.68-44.039 4.7617-3.8906 10.84-5.8047 16.973-5.3398 6.1328 0.46094 11.855 3.2617 15.98 7.8242 4.0859 4.8008 6.0508 11.055 5.4453 17.332-0.60547 6.2773-3.7266 12.039-8.6562 15.973-55.5 44.25-104.41 62.273-144.16 67.336-14.562 1.793-27.555 10.027-35.391 22.43-89.32 141.94-90.797 293.27-86.344 357.66 0.60156 8.6836 4.4727 16.812 10.84 22.746 6.3633 5.9336 14.746 9.2305 23.449 9.2227h967.31c7.7734 0 15.172-3.3398 20.316-9.168s7.5352-13.586 6.5664-21.301c-0.42188-3.5859-0.86719-7.0312-1.3125-10.5-1.0234-8.1289-5.0039-15.594-11.18-20.977-6.1797-5.3828-14.121-8.3008-22.312-8.2031h-8.8359c-109.88 0-185.16-32.578-232.66-64.641-17.688-11.941-34.172-25.574-49.219-40.711-1.5-1.5391-3.6641-2.2344-5.7812-1.8594-2.1172 0.375-3.9102 1.7734-4.7891 3.7344-5.7188 12.984-19.242 35.953-46.055 45.422-24.227 8.7383-51.145 5.6602-72.773-8.3203-95.227-62.625-80.414-202.29-79.688-208.2 1.0742-8.1445 6.3633-15.117 13.914-18.352 7.5508-3.2344 16.246-2.2461 22.883 2.5977 6.6328 4.8438 10.223 12.828 9.4453 21.004-0.21094 1.9688-11.859 117.42 59.086 164.06 9.207 6.1094 20.785 7.4258 31.125 3.5391 9.7656-3.4805 17.266-11.441 20.156-21.398 4.0547-13.945 4.6875-31.992 2.0391-53.648-0.76172-5.1484 0.17187-10.406 2.6562-14.98 2.4883-4.5742 6.3906-8.2148 11.125-10.379 5.5781-2.3789 11.867-2.4805 17.523-0.29297 5.6523 2.1875 10.23 6.5 12.758 12.012 0.1875 0.39844 23.438 48.68 84.047 88.781 67.477 44.648 156.02 62.391 258.59 52.359 6.8672-0.6875 13-4.5938 16.527-10.523 3.5273-5.9336 4.0312-13.184 1.3555-19.547zm-415.99-578.2c-18.312 17.098-43.23 25.262-68.109 22.312-13.863-1.4727-27.055-6.7266-38.133-15.188-10.473-8.2812-16.898-20.652-17.648-33.984-0.011719-0.1875-0.011719-0.375 0-0.5625-0.46875-8.6172 1.4336-17.195 5.5-24.809 4.0664-7.6133 10.141-13.961 17.562-18.363 31.289-18.977 69.336-23.262 104.06-11.719 5.3516 1.7227 10.059 5.0195 13.504 9.4609 3.4453 4.4414 5.4688 9.8203 5.8086 15.43 1.6445 21.578-6.6602 42.727-22.547 57.422z"/>
 </g>
</svg>
