<?xml version="1.0" encoding="UTF-8"?>
<svg width="1200pt" height="1200pt" version="1.1" viewBox="0 0 1200 1200" xmlns="http://www.w3.org/2000/svg">
 <g fill="#fff">
  <path d="m525 799.78c25.449-29.328 57.84-51.809 94.219-65.391 4.4336-1.6836 8.2539-4.6719 10.953-8.5742 2.6992-3.8984 4.1523-8.5273 4.1641-13.27v-196.92c-0.011719-4.7422-1.4609-9.3672-4.1562-13.266-2.6953-3.8984-6.5078-6.8906-10.938-8.5781-36.918-13.789-69.727-36.734-95.344-66.68-2.207-2.6406-5.5391-4.0742-8.9727-3.8555-3.4375 0.21875-6.5625 2.0586-8.418 4.957-26.742 41.953-59.109 110.32-59.109 195.68 0 77.086 31.57 136.71 60.75 175.36 1.9727 2.6133 5.0234 4.1953 8.2969 4.3008 3.2734 0.10547 6.418-1.2773 8.5547-3.7617z"/>
  <path d="m800.09 515.62v196.88c0.011718 4.7422 1.4648 9.3711 4.1641 13.27 2.6992 3.9023 6.5195 6.8906 10.953 8.5742 36.363 13.609 68.738 36.105 94.172 65.438 2.1172 2.4922 5.25 3.8906 8.5195 3.8047 3.2695-0.085938 6.3242-1.6484 8.3086-4.25 29.203-38.648 60.75-98.273 60.75-175.36 0-85.359-32.344-153.73-59.109-195.68-1.8516-2.8984-4.9727-4.7383-8.4023-4.957-3.4336-0.21875-6.7617 1.2148-8.9648 3.8555-25.625 29.945-58.441 52.891-95.367 66.68-4.4023 1.6914-8.1914 4.6758-10.871 8.5547-2.6797 3.8789-4.1289 8.4805-4.1523 13.195z"/>
  <path d="m441.38 920.27c3.9961 3.9258 9.7812 5.4297 15.184 3.9531 5.4062-1.4766 9.6211-5.7109 11.066-11.125 3.9883-15.266 9.0664-30.223 15.188-44.766 2.1641-5.0156 2.9102-10.531 2.1641-15.945-0.75-5.4102-2.9648-10.516-6.4062-14.758-35.859-44.039-77.789-116.3-77.789-213.66 0-109.64 45.773-193.03 77.625-237.77 6.0078-8.3711 7.2773-19.254 3.3516-28.781-5.6328-13.68-10.332-27.73-14.062-42.047-1.4141-5.4609-5.6289-9.7578-11.062-11.277-5.4375-1.5156-11.266-0.023437-15.305 3.918-42.188 41.414-135.35 150.26-135.35 306.12 0 155.86 93.117 264.77 135.4 306.14z"/>
  <path d="m993.05 308.02c-4.0312-3.9453-9.8633-5.4375-15.297-3.9219-5.4297 1.5195-9.6406 5.8203-11.047 11.281-3.7422 14.312-8.4414 28.363-14.062 42.047-3.9297 9.5234-2.6719 20.406 3.3281 28.781 31.805 44.742 77.625 128.13 77.625 237.77 0 97.359-41.883 169.62-77.742 213.66-3.4375 4.2461-5.6484 9.3477-6.3984 14.762-0.74609 5.4102 0 10.922 2.1562 15.941 6.1328 14.539 11.207 29.496 15.188 44.766 1.4531 5.4141 5.6719 9.6484 11.078 11.125 5.4062 1.4727 11.191-0.03125 15.195-3.9531 42.188-41.391 135.38-150.26 135.38-306.14 0-155.88-93.117-264.7-135.4-306.12z"/>
  <path d="m694.12 509.74c-3.5273-0.007813-6.9141 1.3906-9.4102 3.8828-2.5 2.4922-3.9023 5.8789-3.9023 9.4062v607.78h72.656v-607.78c0-7.3398-5.9492-13.289-13.289-13.289z"/>
  <path d="m235.5 443.34c21.68-107.48 82.758-146.48 134.79-163.24 10.617-3.4219 10.641-20.414 0.16406-24.211-96.094-34.758-119.3-126.56-134.93-178.88-1.457-4.5977-5.7227-7.7227-10.547-7.7227-4.8242 0-9.0898 3.125-10.547 7.7227-15.633 52.383-37.805 146.55-134.93 178.88-10.57 3.5156-10.359 20.555 0.16406 24.211 55.43 19.219 111.61 55.758 134.79 163.24 2.2266 10.664 18.891 10.688 21.047 0z"/>
 </g>
</svg>
