<?xml version="1.0" encoding="UTF-8" standalone="no"?>
<!DOCTYPE svg PUBLIC "-//W3C//DTD SVG 1.1//EN" "http://www.w3.org/Graphics/SVG/1.1/DTD/svg11.dtd">
<svg width="100%" height="100%" viewBox="0 0 512 512" version="1.1" xmlns="http://www.w3.org/2000/svg" xmlns:xlink="http://www.w3.org/1999/xlink" xml:space="preserve" xmlns:serif="http://www.serif.com/" style="fill-rule:evenodd;clip-rule:evenodd;stroke-linejoin:round;stroke-miterlimit:2;">
    <g transform="matrix(1,0,0,1,-56.081,-56.085)">
        <g transform="matrix(0.470661,0,0,0.470661,29.6859,29.688)">
            <path d="M570.02,96.891C589.473,374.341 805.64,597.661 1079.95,627.891C1096.25,629.676 1112.53,624.442 1124.74,613.5C1136.94,602.555 1143.91,586.934 1143.91,570.539L1143.91,116.859C1143.91,100.742 1137.51,85.285 1126.11,73.886C1114.71,62.488 1099.26,56.085 1083.14,56.085L607.847,56.085C597.292,56.101 587.222,60.507 580.046,68.249C572.87,75.987 569.237,86.362 570.019,96.89L570.02,96.891Z" style="fill:white;fill-rule:nonzero;"/>
            <path d="M408.84,56.086L100.05,56.086C88.39,56.086 77.206,60.719 68.96,68.965C60.714,77.211 56.081,88.395 56.081,100.055L56.081,382.595C56.077,396.669 62.811,409.896 74.194,418.169C85.577,426.446 100.233,428.774 113.62,424.431L448.21,316.101C459.437,312.484 468.73,304.496 473.999,293.945C479.268,283.394 480.069,271.164 476.218,260.015C455.124,199.429 448.679,132.325 446.734,92.205C446.265,82.47 442.066,73.287 435.011,66.564C427.956,59.841 418.581,56.087 408.835,56.087L408.84,56.086Z" style="fill:white;fill-rule:nonzero;"/>
            <path d="M536.72,481.64L74.06,820.66C62.755,828.949 56.08,842.129 56.083,856.144L56.083,1099.89C56.083,1111.55 60.716,1122.74 68.962,1130.98C77.208,1139.23 88.392,1143.86 100.052,1143.86L330.022,1143.86C343.678,1143.87 356.565,1137.53 364.897,1126.71L719.667,665.617C726.726,656.445 729.882,644.863 728.452,633.379C727.022,621.895 721.12,611.438 712.026,604.281C669.397,570.64 630.811,532.172 597.046,489.651C589.972,480.784 579.741,474.995 568.495,473.503C557.249,472.007 545.862,474.921 536.718,481.636L536.72,481.64Z" style="fill:white;fill-rule:nonzero;"/>
            <path d="M1102.8,752.84C1045.29,749.516 988.42,739.063 933.49,721.715C922.525,718.25 910.642,719.223 900.388,724.426C890.134,729.625 882.326,738.641 878.646,749.535L764.666,1085.82C760.123,1099.23 762.318,1114.01 770.561,1125.53C778.799,1137.04 792.084,1143.89 806.245,1143.92L1099.94,1143.92C1111.61,1143.92 1122.79,1139.28 1131.04,1131.04C1139.28,1122.79 1143.91,1111.61 1143.91,1099.95L1143.91,796.718C1143.95,785.542 1139.71,774.777 1132.07,766.62C1124.42,758.464 1113.96,753.534 1102.8,752.843L1102.8,752.84Z" style="fill:white;fill-rule:nonzero;"/>
        </g>
    </g>
</svg>
