<?xml version="1.0" encoding="UTF-8"?>
<svg width="1200pt" height="1200pt" version="1.1" viewBox="0 0 1200 1200" xmlns="http://www.w3.org/2000/svg">
 <g fill="#fff">
  <path d="m607.5 374.55c-4.3008-3.7383-10.699-3.7383-15 0l-105.47 92.156c-2.4805 2.1602-3.8984 5.2891-3.8906 8.5781v249.42c-0.007813 3.2891 1.4102 6.418 3.8906 8.5781l105.47 92.156c4.3008 3.7383 10.699 3.7383 15 0l105.47-92.156c2.4805-2.1602 3.8984-5.2891 3.8906-8.5781v-249.42c0.007813-3.2891-1.4102-6.418-3.8906-8.5781z"/>
  <path d="m934.99 307.64-262.83-229.69c-19.984-17.465-45.625-27.09-72.164-27.09s-52.18 9.625-72.164 27.09l-262.83 229.69c-21.473 18.762-33.801 45.879-33.82 74.391v435.94c0 28.539 12.332 55.684 33.82 74.461l262.83 229.69c19.984 17.465 45.625 27.09 72.164 27.09s52.18-9.625 72.164-27.09l262.83-229.69c21.488-18.777 33.82-45.922 33.82-74.461v-435.94c-0.019531-28.512-12.348-55.629-33.82-74.391zm-143.23 417.19c-0.003906 24.906-10.762 48.598-29.508 64.992l-105.47 92.156c-15.766 13.668-35.934 21.191-56.801 21.191-20.867 0-41.035-7.5234-56.801-21.191l-105.47-92.156c-18.746-16.395-29.504-40.086-29.508-64.992v-249.54c0.003906-24.906 10.762-48.598 29.508-64.992l105.47-92.156c15.766-13.66 35.93-21.18 56.789-21.18 20.859 0 41.023 7.5195 56.789 21.18l105.47 92.156c18.746 16.395 29.504 40.086 29.508 64.992z"/>
 </g>
</svg>
