<?xml version="1.0" encoding="UTF-8"?>
<svg width="1200pt" height="1200pt" version="1.1" viewBox="0 0 1200 1200" xmlns="http://www.w3.org/2000/svg">
 <g fill="#fff">
  <path d="m520.15 763.2c8.1484-10.047 16.848-19.633 26.062-28.711 18.418-17.906 43.395-27.445 69.062-26.371 25.664 1.0703 49.758 12.66 66.617 32.043 15.5 17.703 29.992 36.262 43.406 55.594 17.02 24.461 25.57 53.816 24.348 83.594-1.2227 29.773-12.152 58.328-31.121 81.312-32.016 38.625-79.945 81.047-147.26 104.95-32.316 11.375-66.918 14.707-100.81 9.7109-33.895-5-66.062-18.18-93.719-38.398-35.156-25.57-73.406-62.367-99.445-112.5-23.035-44.246-30.285-95.027-20.555-143.95 10.266-51.68 37.5-125.16 108.56-191.58 0 0 72.656-76.078 186-105.8 117.94-30.961 242.37 8.4141 325.15 97.945 8.1094 8.7891 16.242 18.281 24.211 28.523 115.1 148.03 94.336 358.59-43.148 486.12-14.062 13.066-29.004 25.16-44.719 36.188-20.039 14.062-45.75-7.5-35.789-29.836 22.781-51.141 50.766-124.97 63.281-201.8 5.1992-31.77 3.2422-64.301-5.7305-95.219-8.9727-30.918-24.734-59.441-46.137-83.492-35-39.359-77.316-71.543-124.59-94.758-24.152-11.805-51.105-16.66-77.859-14.035-26.754 2.6289-52.246 12.641-73.641 28.918-48.137 36.348-84.922 85.656-106.05 142.15-12.379 32.711-8.3203 69.371 10.922 98.578 5.6523 8.5781 11.867 16.766 18.609 24.516 37.945 43.359 103.34 51.82 148.29 15.773 6.1523-4.8711 11.664-10.504 16.406-16.758 17.531-23.438 12.656-58.758-9.5156-77.789-16.594-14.031-36.512-23.57-57.844-27.703-7.8594-1.707-14.27-7.375-16.918-14.973-2.6523-7.5938-1.1602-16.02 3.9336-22.246z"/>
  <path d="m349.59 146.48c1.0664-6.8984 4.9336-13.051 10.688-17.008 5.7539-3.9531 12.883-5.3594 19.707-3.8828s12.734 5.7031 16.34 11.68c21.027 35.145 31.945 75.414 31.547 116.37v33.539c0.011719 24.109-5.0039 47.957-14.727 70.016-9.7188 22.062-23.934 41.855-41.734 58.117-51.047 46.523-123.87 117.82-162.42 178.12-6.4531 10.133-17.539 16.371-29.551 16.629-12.008 0.26172-23.355-5.4961-30.238-15.34-13.477-19.398-20.504-42.547-20.086-66.164 0.51562-30.25 11.641-59.359 31.43-82.242l108.82-128.09c34.355-40.164 59.332-87.473 73.125-138.49 2.9531-10.953 5.3203-22.055 7.1016-33.258z"/>
  <path d="m570.8 92.977c10.172-34.008 56.062-40.102 74.109-9.5391 10.758 18.258 19.031 39.469 19.031 61.547v159.89c0 37.5-46.172 55.055-71.25 27.211-23.039-25.57-42.773-60.586-42.773-105.47 0-50.438 10.242-97.711 20.883-133.64z"/>
  <path d="m800.62 209.91c-18.609 33.094-34.125 86.227 3.8203 145.8 12.672 19.484 29.129 36.223 48.398 49.219 34.688 23.906 112.9 84.375 148.12 165.28 3.0391 6.9883 8.7109 12.5 15.781 15.34 7.0742 2.8438 14.98 2.7852 22.012-0.16406 7.0273-2.9453 12.617-8.5391 15.551-15.574 9.375-22.148 16.57-52.57 16.57-93.375 0 0-2.8594-107.06-103.24-167.3-45.539-26.965-85.816-61.961-118.88-103.29-6.0391-7.6016-15.48-11.684-25.156-10.867s-18.301 6.4141-22.984 14.922z"/>
 </g>
</svg>
