<?xml version="1.0" encoding="UTF-8"?>
<svg width="1200pt" height="1200pt" version="1.1" viewBox="0 0 1200 1200" xmlns="http://www.w3.org/2000/svg">
 <g fill="#fff">
  <path d="m561.12 692.72-175.03-76.172c-2.4844-1.0508-5.3477-0.58594-7.3711 1.1914-2.0273 1.7773-2.8594 4.5547-2.1445 7.1523l39.844 139.71c5.6367 9.2266 13.758 16.676 23.438 21.492l126.38 63.281c3.7461 1.7969 8.168 1.4688 11.613-0.85156 3.4453-2.3242 5.4023-6.2969 5.1445-10.445l-10.078-128.74c-0.26172-3.582-1.4961-7.0234-3.5742-9.9531-2.0781-2.9297-4.918-5.2344-8.2148-6.6641z"/>
  <path d="m528.84 423.7-190.85 8.0625c-3.9453 0.16797-7.5977 2.1289-9.9102 5.3281-2.3164 3.1953-3.043 7.2773-1.9727 11.078l26.016 91.125c2.4062 8.457 8.4805 15.391 16.547 18.891l199.64 86.906c5.6875 2.4805 12.012 3.0977 18.07 1.7617 6.0586-1.3359 11.539-4.5508 15.656-9.1914l89.062-100.27c2.5195-2.832 3.6641-6.6289 3.1289-10.379-0.53125-3.75-2.6875-7.0781-5.8945-9.0977l-142.57-89.719c-5.0508-3.1875-10.953-4.7578-16.922-4.5z"/>
  <path d="m291.52 373.64c6.5781 8.2422 16.699 12.84 27.234 12.375l224.6-9.375c4.7188-0.17969 9.3789 1.0625 13.383 3.5625l161.72 101.86c4.7617 3.0078 10.355 4.4219 15.977 4.043 5.6211-0.37891 10.973-2.5352 15.289-6.1523l112.17-93.75c5.082-4.2617 10.73-7.8047 16.781-10.523l178.92-80.883c4.3008-1.9453 7.3594-5.8945 8.1641-10.547 0.80859-4.6484-0.73828-9.3984-4.1328-12.68l-108.47-104.81c-9.3828-9.0781-22.32-13.5-35.297-12.07l-161.91 17.648c-10.777 1.1836-21.68-0.32422-31.734-4.3828l-161.2-64.828c-9.707-3.9258-20.395-4.7461-30.586-2.3438-125.51 29.461-305.74 50.227-380.77 58.102-3.8438 0.41406-7.4102 2.1992-10.047 5.0234-2.6367 2.8281-4.168 6.5078-4.3164 10.371-0.14844 3.8633 1.0977 7.6484 3.5117 10.668z"/>
  <path d="m720.61 1068.5 25.5-109.38 89.648-468.02c0.82422-4.0547-1.0078-8.1875-4.5664-10.301-3.5586-2.1094-8.0664-1.7383-11.23 0.92578l-43.453 36.328c-15.633 13.07-30.273 27.281-43.805 42.516l-101.51 114.47c-8.4453 9.4688-12.676 21.965-11.719 34.617l19.758 252.05c1.7852 8.5117 4.9531 16.676 9.375 24.164l51.094 85.969c2.3398 4.082 6.957 6.2891 11.602 5.5508 4.6445-0.73828 8.3477-4.2734 9.3047-8.8789z"/>
  <path d="m893.62 436.22-53.039 276.87c-0.63281 3.3398 0.92578 6.7109 3.875 8.3984 2.9492 1.6875 6.6445 1.3164 9.2031-0.92188l111.75-97.922c8.1523-7.1367 13.762-16.727 15.984-27.328 16.605-77.277 41.98-152.4 75.633-223.92 2.3789-4.9883 1.3867-10.934-2.4883-14.875-3.875-3.9453-9.8008-5.043-14.832-2.75l-126.07 56.977c-10.406 4.7461-17.867 14.242-20.016 25.477z"/>
  <path d="m314.23 576.05-40.828-142.97c-2.2109-7.6797-5.9141-14.848-10.898-21.094l-95.438-119.53c-1.8828-2.3242-5.1367-3.0039-7.793-1.6328-2.6562 1.375-3.9844 4.4258-3.1758 7.3047l68.766 237.49c4.4102 15.273 13.582 28.742 26.18 38.438l65.156 50.25c2.1562 1.6445 5.125 1.7266 7.3672 0.19922 2.2461-1.5234 3.2617-4.3164 2.5234-6.9258z"/>
  <path d="m120.52 636.54 73.078 77.977c4.1953 4.4844 4.0703 11.488-0.28125 15.82l-41.742 41.484c-3.8281 3.8047-9.8086 4.3828-14.297 1.3828l-53.273-35.484c-4.0312-2.6758-5.918-7.6211-4.6875-12.305l21.938-83.977c1.0391-4.0039 4.1758-7.125 8.1836-8.1445 4.0117-1.0195 8.2578 0.22266 11.082 3.2461z"/>
  <path d="m501.73 958.1v50.766c0.042969 5.3438 3.1133 10.203 7.9219 12.539l47.531 22.688c3.3164 1.5703 7.2344 1.1602 10.152-1.0625 2.9219-2.2266 4.3555-5.8906 3.7227-9.5078l-11.719-65.25c-0.92969-5.1797-4.7031-9.3867-9.75-10.875l-33.703-9.9141c-3.3398-0.96484-6.9414-0.30078-9.7227 1.7852-2.7812 2.0859-4.4219 5.3555-4.4336 8.832z"/>
  <path d="m201.75 1006.4 19.477 55.828c1.5156 4.3359 1.5977 9.0391 0.23438 13.426-1.3633 4.3828-4.1016 8.2148-7.8047 10.926l-13.57 9.8906c-3.8594 2.8203-8.5547 4.2695-13.332 4.1133-4.7812-0.15625-9.3672-1.9102-13.035-4.9805l-24.914-20.883c-4.5508-3.8008-7.3164-9.3164-7.6445-15.238-0.32422-5.918 1.8242-11.707 5.9336-15.98l38.883-40.547c2.2578-2.4297 5.6289-3.4883 8.8711-2.7812 3.2383 0.71094 5.8633 3.0781 6.9023 6.2266z"/>
  <path d="m1042.4 687.54-19.242 84.609c-0.86719 3.8047 0.46094 7.7734 3.4453 10.289l31.031 26.156c2.168 1.8281 4.9883 2.6953 7.8125 2.3984 2.8203-0.29688 5.3984-1.7305 7.1406-3.9688l46.266-59.625c3.3672-4.3594 2.7695-10.582-1.3594-14.227l-58.031-51.141c-2.7617-2.4297-6.5977-3.2305-10.098-2.0977-3.5 1.1289-6.1484 4.0195-6.9648 7.6055z"/>
  <path d="m962.95 986.34-44.766 58.148c-2.5625 3.3086-2.1758 8.0273 0.89062 10.875l19.781 18.375c2.2969 2.1367 5.6172 2.7578 8.5312 1.5938l62.766-25.195c2.5898-1.0273 4.4688-3.3125 4.9727-6.0508 0.50391-2.7383-0.4375-5.543-2.4883-7.4258-15.047-13.738-27.27-30.281-35.977-48.703-1.1875-2.5508-3.6094-4.3047-6.4023-4.6367-2.7969-0.32812-5.5625 0.8125-7.3086 3.0195z"/>
 </g>
</svg>
