<?xml version="1.0" encoding="UTF-8" standalone="no"?>
<!DOCTYPE svg PUBLIC "-//W3C//DTD SVG 1.1//EN" "http://www.w3.org/Graphics/SVG/1.1/DTD/svg11.dtd">
<svg width="100%" height="100%" viewBox="0 0 512 149" version="1.1" xmlns="http://www.w3.org/2000/svg" xmlns:xlink="http://www.w3.org/1999/xlink" xml:space="preserve" xmlns:serif="http://www.serif.com/" style="fill-rule:evenodd;clip-rule:evenodd;stroke-linejoin:round;stroke-miterlimit:2;">
    <g transform="matrix(1,0,0,1,-42.5156,-438.56)">
        <g transform="matrix(0.45915,0,0,0.45915,22.9946,237.195)">
            <path d="M1000,683.6C996.418,685.163 994.18,688.78 994.383,692.682C994.586,696.584 997.188,699.952 1000.91,701.131C1012.73,704.955 1025.48,704.83 1037.22,700.78C1115.95,673.639 1157.62,650.53 1157.62,605.6C1157.62,550.147 1097.34,506.225 978.509,475.08C876.959,448.478 750.559,439.174 608.009,439.174C593.384,439.174 558.79,436.83 533.876,441.306C526.024,442.763 519.427,448.06 516.31,455.408C513.193,462.76 513.97,471.185 518.384,477.842C522.794,484.495 530.251,488.494 538.236,488.487C561.181,488.487 595.119,489.706 612.322,489.706C749.082,489.706 861.602,504.378 957.552,529.55C992.708,538.785 1016.87,549.659 1033.3,560.019C1065.27,580.128 1071.65,624.8 1045.98,652.527C1035.9,663.402 1021.21,674.371 999.998,683.605L1000,683.6Z" style="fill:white;fill-rule:nonzero;"/>
            <path d="M933.98,712.9C933.98,729.029 920.906,742.103 904.777,742.103C888.648,742.103 875.574,729.029 875.574,712.9C875.574,696.771 888.648,683.697 904.777,683.697C920.906,683.697 933.98,696.771 933.98,712.9" style="fill:white;fill-rule:nonzero;"/>
            <path d="M587.6,758.41C668.553,754.707 749.15,748.238 818.34,735.816C826.778,734.293 830.481,723.675 825.067,716.668C817.278,706.391 804.895,700.648 792.02,701.34C443.53,722.598 289.14,657.793 230.6,620.41C205.17,604.168 202.873,566.129 225.912,546.16C238.689,535.371 253.295,526.961 269.037,521.316C277.311,518.972 285.443,516.628 293.529,514.285C321.654,506.433 346.873,499.754 360.935,496.051C364.31,495.156 367.388,493.383 369.861,490.914C372.33,488.441 374.103,485.363 374.998,481.988C378.373,469.144 369.045,456.676 356.576,456.98C214.006,460.566 42.516,496.168 42.516,596.32C42.516,655.031 102.797,701.51 221.626,734.46C323.016,762.796 445.316,764.952 587.606,758.413L587.6,758.41Z" style="fill:white;fill-rule:nonzero;"/>
        </g>
    </g>
</svg>
