<?xml version="1.0" encoding="UTF-8"?>
<svg width="1200pt" height="1200pt" version="1.1" viewBox="0 0 1200 1200" xmlns="http://www.w3.org/2000/svg">
 <g fill="#fff">
  <path d="m222.63 136.17c0 19.52-15.047 35.344-33.609 35.344s-33.609-15.824-33.609-35.344 15.047-35.344 33.609-35.344 33.609 15.824 33.609 35.344"/>
  <path d="m1043.8 399.1c15.906 10.137 16.852 37.094 2.1172 60.215-14.734 23.117-39.57 33.645-55.477 23.508-15.902-10.137-16.852-37.094-2.1172-60.215s39.574-33.645 55.477-23.508"/>
  <path d="m987.4 113.67c2.8359-14.625-1.5938-27.75-11.203-33.258l-4.2422-2.3438-4.2188-2.3438c-9.6094-5.5312-22.523-2.3438-32.672 8.0859-6.1133 6.3672-10.461 14.219-12.609 22.781l-15.164 60.188c-4.5234 17.93 16.875 30.211 28.781 16.406l39.844-45.984c5.7578-6.6992 9.6797-14.773 11.391-23.438z"/>
  <path d="m1062.4 824.34 64.945-115.45c2.6367-4.5352 3.8125-9.7695 3.3672-14.992-0.44531-5.2266-2.4883-10.188-5.8516-14.211-4.5312-5.3008-11.301-8.1484-18.258-7.6875-6.9609 0.46094-13.293 4.1797-17.086 10.031-11.344 17.477-28.043 30.809-47.602 37.992-7.8047 2.8828-19.664 1.0312-21.094-7.5234-16.734-108.14-83.297-207.59-184.78-242.79-7.2188-2.5078-7.0312-14.062-5.6016-21.961 3.5156-19.5 15.281-65.156 54.188-162.82 1.6523-4.1172 1.918-8.6562 0.76562-12.941-1.1562-4.2812-3.668-8.0703-7.1641-10.801l-0.44531-0.35156c-4.1367-3.1016-9.3711-4.3594-14.465-3.4688-5.0938 0.88672-9.5977 3.8398-12.441 8.1562l-88.266 129.14-43.898 60.422c-8.0391 11.062-24.82 3.6094-22.875-10.172l7.6172-53.906c1.0547-6.6523-0.32812-13.465-3.8984-19.176-3.5703-5.7109-9.0898-9.9375-15.531-11.902-54.07-14.711-110.91-16.039-165.61-3.8672-25.945 5.5273-51.012 14.57-74.508 26.883l-0.375 0.1875c-31.301 16.906-51.578 48.855-53.555 84.375-0.59766 10.375-0.59766 20.773 0 31.148 0.43359 3.6797-1.8477 7.1328-5.4023 8.1758-3.5547 1.0469-7.3438-0.62891-8.9648-3.957l-36.328-71.391-91.805-192.19c-5.3672-11.25-38.672-4.9219-29.508 28.43l52.969 181.48c1.6484 5.5352 1.7344 11.418 0.24219 17-1.4883 5.5781-4.4922 10.641-8.6797 14.617-13.359 12.422-32.812 31.43-42.961 45.352-21.168 29.188-35.957 62.504-43.406 97.781 0 0.28125 0 0.5625-0.16406 0.82031-9.1172 43.82 1.4648 89.43 28.945 124.76l6.3281 8.0859c3.3945 4.2539 5.2969 9.5039 5.418 14.945 0.125 5.4375-1.5391 10.77-4.7383 15.172-3.6875 4.9766-9.3477 8.1211-15.523 8.6172-6.1758 0.5-12.266-1.6953-16.703-6.0156l-31.5-30.188-34.617-37.688c-3.793-4.4023-9.0391-7.2969-14.785-8.1562-5.7461-0.85938-11.613 0.37109-16.527 3.4688-12.047 8.0391-18.188 27.188-7.7812 36.164 57.703 49.969 37.031 133.05 36.305 141.23-2.7305 32.316-1.3711 64.848 4.0547 96.82 1.2656 7.6641 2.7891 17.602 5.1328 27.797 0.54688 10.59-1.3359 21.164-5.5078 30.914-6.6562 15.234-24.422 23.438-31.031 38.625-3.668 8.3594-2.8555 18.008 2.1602 25.637 5.0195 7.6289 13.555 12.199 22.684 12.145h980.86c6.5859-0.19141 12.832-2.9883 17.355-7.7773 4.5273-4.7891 6.9688-11.18 6.7852-17.77 0-5.0859 0-8.5547-5.5078-17.391-17.648-28.383-16.125-65.625-20.953-96.094-1.1875-7.3594-3.0469-14.59-5.5547-21.609-8.3906-23.789-36.375-32.016-55.383-16.406-9.582 7.9414-18.688 16.449-27.258 25.477-3.1523 3.5352-8.3203 4.4453-12.492 2.2031-5.5234-3.4297-7.2969-10.645-3.9844-16.242zm-372.66-315.21c8.3438-19.336 35.367-25.359 60.375-13.43 25.008 11.93 38.555 37.242 30.211 56.578s-35.367 25.359-60.375 13.453-38.555-37.242-30.234-56.602zm-389.55 126.02c9.2578-28.875 36.867-45.141 61.664-36.352 24.797 8.7891 37.5 39.305 28.125 68.18s-36.867 45.117-61.641 36.328c-24.773-8.7891-37.383-39.305-28.148-68.156zm636.61 343.52c-25.43 102.12-113.2 102.12-113.2 102.12h-453.28c-39 0-74.438-24.633-89.062-62.672-21.094-55.406-6.5859-119.77 7.9219-161.39 8.4375-24.258 34.617-35.953 57.047-25.43 20.648 9.7031 30.469 34.758 22.148 56.859-10.008 26.672-11.719 48.984-9.375 67.172 0.82422 7.6133 5.1641 14.402 11.73 18.348 6.5664 3.9414 14.602 4.582 21.711 1.7305 7.1055-2.8555 12.469-8.8711 14.488-16.258 29.461-94.336 98.18-116.25 141.8-120.19 18.023-1.6406 24.281-25.945 9.7734-37.312-15.938-12.492-36.703-21.375-58.875-20.438h-1.2656c-29.133 1.0078-53.156-24.469-51.562-55.078 1.4883-25.773 9.9648-50.652 24.516-71.977 22.348-33.363 56.195-57.332 95.086-67.336 86.391-22.758 135.75 15.422 160.05 45.773 11.098 14.16 18.75 30.703 22.359 48.328 0.39844 1.875 0.82031 3.7266 1.2656 5.5312 5.3086 22.18 17.492 42.113 34.809 56.949 17.316 14.84 38.883 23.824 61.613 25.668 25.406 1.9688 40.289 12.867 48.867 23.438 10.543 13.223 13.461 30.973 7.7109 46.875-5.9297 15.938-18.492 22.688-29.883 25.43-11.02 2.6211-22.633 0.77734-32.297-5.1328-19.945-12.023-41.789-16.57-61.242-17.578-15.516-0.79688-21.398 20.906-7.7109 28.617 29.578 16.664 60.938 41.953 58.195 73.359-1.2266 12.125-1.1016 24.348 0.375 36.445 2.7656 19.711 24.469 29.25 39.844 17.719 11.777-8.7383 21.445-20.008 28.289-32.977 2.4297-4.9727 6.75-8.7656 11.996-10.527 5.2461-1.7617 10.98-1.3477 15.918 1.1523 4.0352 2.0781 7.2422 5.4609 9.1055 9.6016 1.8594 4.1367 2.2617 8.7852 1.1367 13.18z"/>
  <path d="m629.69 678.88c5.3945 20.719-9.9258 42.641-34.215 48.965-24.289 6.3203-48.352-5.3477-53.746-26.066-5.3906-20.723 9.9258-42.645 34.215-48.965 24.289-6.3242 48.352 5.3477 53.746 26.066"/>
  <path d="m744.91 957.12c6.1094 27.219-6.1602 53.148-27.402 57.914-21.242 4.7695-43.418-13.43-49.527-40.648-6.1094-27.219 6.1602-53.145 27.406-57.914 21.242-4.7695 43.414 13.43 49.523 40.648"/>
 </g>
</svg>
