<?xml version="1.0" encoding="UTF-8"?>
<svg width="1200pt" height="1200pt" version="1.1" viewBox="0 0 1200 1200" xmlns="http://www.w3.org/2000/svg">
 <g fill="#fff">
  <path d="m527.88 487.73c12.516 59.859 65.414 103.34 126.82 101.18 58.594-2.0625 106.45-44.977 117.96-101.11h0.63281c13.773 0.19141 26.605-6.9766 33.66-18.809 7.0508-11.836 7.2578-26.531 0.53906-38.555-6.7227-12.027-19.348-19.555-33.121-19.746-0.25781-16.594-0.46875-33.609-0.60938-50.742-0.49219-70.594-56.766-127.66-126.02-127.95-69.938-0.28125-126.56 57.398-126.68 128.7 0 16.172 0.23438 33.234 0.84375 50.719-12.371 2.5586-22.703 11.012-27.664 22.633-4.9609 11.617-3.918 24.926 2.7891 35.633 6.7109 10.703 18.234 17.445 30.852 18.047zm171.56-137.04c8.0664 0.03125 15.793 3.2617 21.484 8.9805 5.6875 5.7188 8.8789 13.461 8.8672 21.527s-3.2188 15.801-8.9258 21.504c-5.7031 5.707-13.438 8.9141-21.504 8.9258-8.0664 0.011719-15.809-3.1797-21.527-8.8672-5.7188-5.6914-8.9492-13.418-8.9805-21.484-0.03125-8.1211 3.1797-15.918 8.9258-21.66 5.7422-5.7461 13.539-8.957 21.66-8.9258zm-35.367 98.555c10.043-0.34766 19.809 3.3047 27.156 10.156 7.3516 6.8516 11.676 16.344 12.031 26.383v0.72656c0.35547 10.043-3.2969 19.816-10.148 27.164-6.8555 7.3516-16.348 11.676-26.391 12.023l-27.891 0.98438c-10.039 0.35938-19.812-3.2852-27.164-10.133-7.3477-6.8516-11.676-16.344-12.023-26.383v-0.75c-0.35938-10.039 3.2852-19.812 10.133-27.164 6.8516-7.3477 16.344-11.676 26.383-12.023zm-68.25-98.555c8.0664 0.03125 15.793 3.2617 21.484 8.9805 5.6875 5.7188 8.8789 13.461 8.8672 21.527-0.011719 8.0664-3.2188 15.801-8.9258 21.504-5.7031 5.707-13.438 8.9141-21.504 8.9258-8.0664 0.011719-15.809-3.1797-21.527-8.8672-5.7188-5.6914-8.9492-13.418-8.9805-21.484-0.03125-8.1211 3.1797-15.918 8.9258-21.66 5.7422-5.7461 13.539-8.957 21.66-8.9258z"/>
  <path d="m556.03 1157.6h264.28c6.5039-0.007812 12.66-2.9375 16.773-7.9805 4.1094-5.043 5.7383-11.66 4.4375-18.035-3.043-15.113-8.0156-29.77-14.789-43.617-7.7969-16.098-12.367-33.566-13.453-51.422l-23.18-352.34c-0.83594-12.648-6.332-24.539-15.422-33.371-9.0898-8.8359-21.129-13.988-33.797-14.465l-178.88-6.3516c-13.957-0.5-27.512 4.7227-37.527 14.461-10.012 9.7344-15.617 23.137-15.512 37.102 0.58594 100.2 4.4531 318.75 25.781 457.66 0.78516 5.0898 3.3594 9.7344 7.2617 13.098 3.8984 3.3633 8.8711 5.2266 14.02 5.2539z"/>
  <path d="m1076.3 771.09c-6.4258-32.766-23.77-62.387-49.199-84.027-25.43-21.645-57.441-34.023-90.816-35.129l-69.656-2.3438c-7.1172-0.22266-13.984 2.6445-18.824 7.8672-4.8398 5.2227-7.1797 12.289-6.418 19.367l5.2734 47.906c0.61328 5.5781 3.1133 10.777 7.0859 14.742 3.9727 3.9648 9.1797 6.4531 14.758 7.0547l52.383 5.5781c12.387 1.3242 24.094 6.332 33.602 14.379 9.5117 8.0469 16.387 18.762 19.742 30.762l33.562 120.59c4.4727 15.996 16.938 28.52 32.91 33.07s33.164 0.47656 45.398-10.758c12.234-11.234 17.754-28.016 14.574-44.32z"/>
  <path d="m254.04 391.62 0.375 157.48c-2.3789 33.324 6.6172 66.473 25.516 94.023 18.895 27.551 46.578 47.879 78.523 57.664l66.633 20.391c6.8242 2.0898 14.219 1.1172 20.266-2.6719 6.0508-3.7852 10.156-10.012 11.258-17.062l7.4531-47.719c0.86328-5.543-0.19141-11.219-2.9922-16.082-2.8008-4.8633-7.1758-8.625-12.406-10.66l-49.219-19.078c-11.605-4.5156-21.59-12.406-28.664-22.656s-10.91-22.383-11.016-34.836l-10.383-155.79c-0.11328-16.629-8.8711-32.004-23.113-40.586-14.246-8.582-31.926-9.1367-46.684-1.4688-14.754 7.6719-24.457 22.465-25.617 39.055z"/>
  <path d="m965.06 209.6-91.148-68.625c-3.6289-2.7305-8.168-3.9609-12.68-3.4375-4.5117 0.52344-8.6484 2.7617-11.555 6.25l-23.93 28.688c-3.0508 3.6562-4.5 8.3867-4.0195 13.125 0.48047 4.7344 2.8516 9.0781 6.5742 12.047l64.852 51.562c6.0391 4.8242 9.1875 12.402 8.3438 20.086l-16.055 145.57c-0.60547 5.2148 0.21094 10.496 2.3594 15.285 2.1484 4.793 5.5547 8.9102 9.8516 11.926l130.92 91.641c3.7891 2.6484 8.4609 3.707 13.02 2.9531s8.6445-3.2578 11.379-6.9844l27.141-36.609c2.957-3.9844 4.1016-9.0273 3.1641-13.895-0.94141-4.8711-3.8828-9.125-8.1094-11.723l-92.906-57.023c-4.418-2.7109-8.0234-6.5625-10.441-11.148-2.418-4.5859-3.5547-9.7383-3.293-14.914l7.5234-151.31c0.44531-9.1562-3.6719-17.941-10.992-23.461z"/>
  <path d="m1149.8 354.21-45.352-30.656c-2.4375-1.6445-4.3906-3.9062-5.668-6.5547-1.2773-2.6484-1.8281-5.5859-1.5977-8.5156l11.32-142.97c0.64453-7.7969-2.6875-15.395-8.8594-20.203l-127.73-99.398c-3.4062-2.6523-7.707-3.8789-12-3.4141-4.2891 0.46484-8.2344 2.5781-10.992 5.8984l-23.203 28.125c-2.9336 3.5352-4.2734 8.1289-3.6953 12.684 0.57812 4.5586 3.0195 8.6719 6.7422 11.363l103.48 75c5.6953 4.1641 8.9336 10.902 8.625 17.953l-7.6875 157.78c-0.46875 9.875 4.2852 19.273 12.516 24.75l59.789 39.609c3.5078 2.332 7.7695 3.2422 11.926 2.5508s7.8945-2.9336 10.457-6.2773l25.781-33.703c2.832-3.6406 4.0273-8.293 3.2969-12.848-0.72656-4.5547-3.3125-8.6016-7.1406-11.176z"/>
  <path d="m80.578 980.79 134.11 52.805c7.0547 2.7734 12.199 8.9648 13.641 16.406l15.211 80.203c0.86719 4.6016 3.5586 8.6602 7.457 11.254 3.8984 2.5938 8.6797 3.5039 13.262 2.5273l35.977-7.6641c4.3672-0.92969 8.2109-3.5 10.734-7.1797 2.5273-3.6836 3.5391-8.1914 2.8359-12.602l-17.859-110.86c-1.4414-8.9141-7.2109-16.535-15.398-20.344l-135.23-62.812c-4.6328-2.1484-8.5977-5.5039-11.484-9.7148-2.8867-4.2109-4.5859-9.1211-4.9219-14.215l-7.0312-107.11c-0.33203-4.8633-2.6836-9.3672-6.4883-12.418-3.8008-3.0508-8.707-4.3672-13.527-3.6367l-44.344 6.8203c-4.457 0.70312-8.4648 3.1094-11.176 6.7148-2.7109 3.6055-3.9141 8.1211-3.3555 12.598l19.641 156.05c0.63281 5.1211 2.6367 9.9766 5.793 14.055 3.1602 4.0781 7.3594 7.2305 12.16 9.125z"/>
  <path d="m235.9 764.18-41.203 7.0312c-4.082 0.70703-7.7422 2.9336-10.25 6.2266-2.5078 3.2969-3.6758 7.418-3.2734 11.539l7.0312 70.312c0.96484 9.6836 6.9609 18.141 15.773 22.266l140.88 65.789c6.3164 2.9219 10.727 8.8398 11.719 15.727l17.695 124.43c0.65625 4.4688 3.125 8.4688 6.8203 11.059 3.6992 2.5898 8.3047 3.543 12.727 2.6289l35.086-7.3359c4.125-0.88672 7.75-3.332 10.121-6.8242 2.3711-3.4922 3.3047-7.7617 2.6055-11.926l-27.938-156.87c-1.3438-7.5664-6.3984-13.949-13.453-16.992l-129.63-55.781c-2.6562-1.1484-4.9609-2.9766-6.6797-5.3008-1.7227-2.3281-2.7969-5.0664-3.1172-7.9414l-5.8594-53.578c-0.47266-4.5039-2.7891-8.6133-6.3984-11.355-3.6094-2.7383-8.1875-3.8633-12.656-3.1055z"/>
 </g>
</svg>
