<?xml version="1.0" encoding="UTF-8"?>
<svg width="512pt" height="512pt" version="1.1" viewBox="0 0 512 512" xmlns="http://www.w3.org/2000/svg">
 <path d="m483.2 203.2c0 6.3984-2.3984 12.801-7.1992 17.602l-61.602 61.602c-9.6016 9.6016-25.602 9.6016-36 0l-18.398-18.402c-9.6016-9.6016-9.6016-25.602 0-36l3.1992-3.1992-6.3984-6.3984c-4.8008-3.1992-11.199-2.3984-15.199 2.3984-3.1992 3.1992-8 3.1992-11.199 0l-0.80078-0.80078-57.602 57.602 0.80078 0.80078c3.1992 3.1992 3.1992 8 0 11.199l-171.2 170.4c-16.801 16.801-44 16.801-60.801 0-16.801-16-16.801-43.199 0-60l172-172c3.1992-3.1992 8-3.1992 11.199 0l0.80078 0.80078 57.602-57.602-0.80078-0.80078c-3.1992-3.1992-3.1992-8 0-11.199l16-16-12.801-12.801c-20-19.199-44.801-32.801-72-37.602l-26.402-4.7969c-4-0.80078-7.1992-4.8008-6.3984-9.6016 0.80078-2.3984 2.3984-4.8008 4.8008-5.6016l43.199-20.801c48-22.398 100-16 132.8 16.801l60 60c3.1992 3.1992 3.1992 8 0 11.199-4.8008 4-5.6016 10.398-2.3984 15.199l7.1992 7.1992c10.398-6.3984 23.199-4.8008 32 3.1992l18.398 18.398c4.8008 5.6094 7.1992 12.008 7.1992 19.207z" fill="#fff"/>
</svg>
