<?xml version="1.0" encoding="UTF-8"?>
<svg width="512pt" height="512pt" version="1.1" viewBox="0 0 512 512" xmlns="http://www.w3.org/2000/svg">
 <path d="m481.6 108-77.602-77.602c-8.8008-8.8008-23.199-8.8008-32.801 0-8 8-8.8008 20.801-2.3984 30.398-22.398 24.801-24 44.801-17.602 60.801l-168.8 168.8-36.801-36.801c-11.199-11.199-28.801-11.199-39.199 0l-25.602 25.602c-37.602 37.602-58.398 88-56.801 135.2 1.6016 40 33.602 72 73.602 73.602h6.3984c48.801-1.6016 95.199-21.602 128.8-56.801l25.602-25.602c11.199-11.199 11.199-28.801 0-39.199l-36.801-36.801 168.8-169.6c4.8008 2.3984 10.398 3.1992 16 3.1992 12.801 0 27.199-5.6016 44-21.602 10.398 7.1992 24.801 5.6016 32-4.8008 8-7.9922 7.2031-20.793-0.79688-28.793zm-102.4 24.801c-15.199-15.199-25.602-30.398 0.80078-60.801l60 60c-30.398 26.398-46.398 16-60.801 0.80078z" fill="#fff"/>
</svg>
