<?xml version="1.0" encoding="UTF-8" standalone="no"?>
<!DOCTYPE svg PUBLIC "-//W3C//DTD SVG 1.1//EN" "http://www.w3.org/Graphics/SVG/1.1/DTD/svg11.dtd">
<svg width="100%" height="100%" viewBox="0 0 509 512" version="1.1" xmlns="http://www.w3.org/2000/svg" xmlns:xlink="http://www.w3.org/1999/xlink" xml:space="preserve" xmlns:serif="http://www.serif.com/" style="fill-rule:evenodd;clip-rule:evenodd;stroke-linejoin:round;stroke-miterlimit:2;">
    <g transform="matrix(1,0,0,1,-60.0062,-56.1093)">
        <g transform="matrix(0.47063,0,0,0.47063,31.7655,29.7026)">
            <path d="M774.98,754.97C771.933,754.103 768.91,753.212 765.886,752.251C757.378,749.907 716.902,737.298 671.433,705.376C665.843,701.45 659.093,699.517 652.273,699.884C645.449,700.255 638.949,702.907 633.816,707.415C598.66,738.095 551.644,771.704 497.876,790.337L518.454,702.282C519.345,698.47 518.767,694.458 516.845,691.048C514.919,687.638 511.782,685.076 508.056,683.865C504.333,682.654 500.29,682.888 496.728,684.517L433.447,713.439C412.838,722.869 396.783,740.048 388.775,761.251C370.306,810.329 312.322,910.011 131.975,1007.46C101.319,1024.01 78.28,1051.8 67.709,1084.99C65.365,1092.59 63.021,1100.93 60.795,1110.02C57.092,1125.7 66.771,1141.41 82.733,1143.75C89.03,1144.64 95.436,1143.24 100.78,1139.79C141.96,1113.63 369.49,970.569 504.14,918.679C601.265,881.179 704.3,838.523 780,787.429C783.832,784.851 786.539,780.91 787.566,776.406C788.589,771.902 787.859,767.179 785.523,763.195C783.187,759.211 779.418,756.269 774.984,754.968L774.98,754.97Z" style="fill:white;fill-rule:nonzero;"/>
            <path d="M1084.4,192.19C1068.67,196.338 1059.77,214.292 1064.5,232.292C1069.24,250.292 1085.85,261.565 1101.58,257.417C1117.31,253.269 1126.21,235.315 1121.48,217.292C1116.74,199.269 1100.13,187.972 1084.4,192.19Z" style="fill:white;fill-rule:nonzero;"/>
            <path d="M1098.8,362.44C1089,378.846 1075.67,380.487 1064.58,377.862C1050.5,374.206 1039.05,363.999 1033.78,350.44C1024.76,328.502 1021.18,298.01 1019.72,279.963C1018.48,261.955 1015.63,244.096 1011.21,226.596C985.058,125.816 921.964,79.386 878.694,58.806C869.819,54.568 859.362,55.368 851.233,60.904C843.104,66.439 838.534,75.881 839.225,85.689C847.592,201.639 808.17,236.109 784.92,246.329C774.572,251.001 762.729,251.079 752.318,246.54C731.904,237.352 727.779,215.251 728.435,196.454C728.545,192.247 727.127,188.137 724.435,184.899C721.748,181.66 717.97,179.508 713.814,178.844C709.654,178.18 705.4,179.051 701.834,181.289C594.024,247.781 579.214,401.319 579.214,401.319C566.792,647.739 783.124,706.269 783.124,706.269C987.034,770.089 1093.36,608.746 1093.36,608.746C1161.52,490.106 1139.82,403.806 1121.65,363.946C1119.66,359.595 1115.45,356.688 1110.68,356.376C1105.9,356.063 1101.34,358.392 1098.8,362.446L1098.8,362.44ZM972.89,525.61C963.515,577.782 934.734,601.313 907.031,616.548C878.219,632.728 843.754,635.435 812.765,623.954C782.577,612.399 763.171,590.251 750.867,568.923C731.258,534.548 725.461,494.001 734.648,455.513C741.804,423.872 759.73,395.704 785.367,375.825C790.301,372.079 796.469,370.333 802.633,370.935C808.801,371.54 814.512,374.45 818.625,379.083C822.582,383.755 827.164,387.853 832.242,391.271C838.765,395.65 846.734,397.31 854.465,395.908C862.192,394.502 869.07,390.138 873.633,383.748C881.891,372.31 888.321,359.662 892.688,346.248C893.817,342.775 896.161,339.826 899.286,337.935C902.411,336.045 906.11,335.345 909.712,335.959C913.309,336.572 916.567,338.463 918.891,341.279C948.821,377.467 963.633,423.732 970.571,453.639C976.232,477.225 977.021,501.717 972.892,525.616L972.89,525.61Z" style="fill:white;fill-rule:nonzero;"/>
        </g>
    </g>
</svg>
