<?xml version="1.0" encoding="UTF-8"?>
<svg width="1200pt" height="1200pt" version="1.1" viewBox="0 0 1200 1200" xmlns="http://www.w3.org/2000/svg">
 <g fill="#fff">
  <path d="m774.98 754.97c-3.0469-0.86719-6.0703-1.7578-9.0938-2.7188-8.5078-2.3438-48.984-14.953-94.453-46.875-5.5898-3.9258-12.34-5.8594-19.16-5.4922-6.8242 0.37109-13.324 3.0234-18.457 7.5312-35.156 30.68-82.172 64.289-135.94 82.922l20.578-88.055c0.89062-3.8125 0.3125-7.8242-1.6094-11.234-1.9258-3.4102-5.0625-5.9727-8.7891-7.1836-3.7227-1.2109-7.7656-0.97656-11.328 0.65234l-63.281 28.922c-20.609 9.4297-36.664 26.609-44.672 47.812-18.469 49.078-76.453 148.76-256.8 246.21-30.656 16.547-53.695 44.34-64.266 77.531-2.3438 7.5938-4.6875 15.938-6.9141 25.031-3.7031 15.68 5.9766 31.383 21.938 33.727 6.2969 0.89453 12.703-0.51172 18.047-3.9609 41.18-26.156 268.71-169.22 403.36-221.11 97.125-37.5 200.16-80.156 275.86-131.25 3.832-2.5781 6.5391-6.5195 7.5664-11.023 1.0234-4.5039 0.29297-9.2266-2.043-13.211-2.3359-3.9844-6.1055-6.9258-10.539-8.2266z"/>
  <path d="m1084.4 192.19c-15.727 4.1484-24.633 22.102-19.898 40.102s21.352 29.273 37.078 25.125c15.727-4.1484 24.633-22.102 19.898-40.125-4.7344-18.023-21.352-29.32-37.078-25.102z"/>
  <path d="m1098.8 362.44c-9.7969 16.406-23.133 18.047-34.219 15.422-14.078-3.6562-25.535-13.863-30.797-27.422-9.0234-21.938-12.609-52.43-14.062-70.477-1.2461-18.008-4.0938-35.867-8.5078-53.367-26.156-100.78-89.25-147.21-132.52-167.79-8.875-4.2383-19.332-3.4375-27.461 2.0977-8.1289 5.5352-12.699 14.977-12.008 24.785 8.3672 115.95-31.055 150.42-54.305 160.64-10.348 4.6719-22.191 4.75-32.602 0.21094-20.414-9.1875-24.539-31.289-23.883-50.086 0.10937-4.207-1.3086-8.3164-4-11.555-2.6875-3.2383-6.4648-5.3906-10.621-6.0547-4.1602-0.66406-8.4141 0.20703-11.98 2.4453-107.81 66.492-122.62 220.03-122.62 220.03-12.422 246.42 203.91 304.95 203.91 304.95 203.91 63.82 310.24-97.523 310.24-97.523 68.156-118.64 46.453-204.94 28.289-244.8-1.9883-4.3516-6.2031-7.2578-10.977-7.5703-4.7734-0.3125-9.3359 2.0156-11.875 6.0703zm-125.91 163.17c-9.375 52.172-38.156 75.703-65.859 90.938-28.812 16.18-63.277 18.887-94.266 7.4062-30.188-11.555-49.594-33.703-61.898-55.031-19.609-34.375-25.406-74.922-16.219-113.41 7.1562-31.641 25.082-59.809 50.719-79.688 4.9336-3.7461 11.102-5.4922 17.266-4.8906 6.168 0.60547 11.879 3.5156 15.992 8.1484 3.957 4.6719 8.5391 8.7695 13.617 12.188 6.5234 4.3789 14.492 6.0391 22.223 4.6367 7.7266-1.4062 14.605-5.7695 19.168-12.16 8.2578-11.438 14.688-24.086 19.055-37.5 1.1289-3.4727 3.4727-6.4219 6.5977-8.3125 3.125-1.8906 6.8242-2.5898 10.426-1.9766 3.5977 0.61328 6.8555 2.5039 9.1797 5.3203 29.93 36.188 44.742 82.453 51.68 112.36 5.6602 23.586 6.4492 48.078 2.3203 71.977z"/>
 </g>
</svg>
