<?xml version="1.0" encoding="UTF-8" standalone="no"?>
<!DOCTYPE svg PUBLIC "-//W3C//DTD SVG 1.1//EN" "http://www.w3.org/Graphics/SVG/1.1/DTD/svg11.dtd">
<svg width="100%" height="100%" viewBox="0 0 513 512" version="1.1" xmlns="http://www.w3.org/2000/svg" xmlns:xlink="http://www.w3.org/1999/xlink" xml:space="preserve" xmlns:serif="http://www.serif.com/" style="fill-rule:evenodd;clip-rule:evenodd;stroke-linejoin:round;stroke-miterlimit:2;">
    <g transform="matrix(1,0,0,1,-67.7589,-67.8475)">
        <g transform="matrix(0.481049,0,0,0.481049,35.1635,35.2095)">
            <path d="M283.9,519.8C268.627,507.788 248.806,503.183 229.798,507.218C210.794,511.257 194.56,523.523 185.486,540.702C176.412,557.886 175.431,578.21 182.814,596.182C197.134,632.979 234.142,667.596 234.142,667.596L309.376,742.76C316.736,750.104 321.126,759.908 321.7,770.287C322.274,780.67 318.997,790.896 312.493,799.01L162.373,986.72C155.201,995.818 144.307,1001.19 132.725,1001.35C113.584,1001.41 95.444,1009.9 83.131,1024.55C68.51,1041.93 63.94,1065.65 71.057,1087.22C78.174,1108.79 95.959,1125.13 118.057,1130.4C140.151,1135.67 163.397,1129.11 179.483,1113.07C191.534,1101.05 198.397,1084.79 198.608,1067.77C198.721,1056.01 204.108,1044.93 213.28,1037.58L401.01,887.579C409.123,881.079 419.354,877.806 429.737,878.384C440.116,878.962 449.921,883.356 457.26,890.72L532.401,965.861C532.401,965.861 567.042,1002.87 603.839,1017.19C624.804,1025.82 648.745,1022.99 667.124,1009.71C685.503,996.435 695.702,974.591 694.089,951.978C692.476,929.361 679.277,909.189 659.198,898.65C639.124,888.115 615.022,888.717 595.495,900.236C591.87,902.318 587.577,902.904 583.526,901.869C579.475,900.83 575.991,898.252 573.815,894.681L476.69,737.651C473.135,731.882 468.28,727.026 462.51,723.471L305.48,626.369C301.914,624.19 299.34,620.705 298.308,616.655C297.273,612.604 297.863,608.311 299.949,604.69C308.031,591.002 310.863,574.842 307.906,559.221C304.953,543.6 296.418,529.588 283.894,519.799L283.9,519.8Z" style="fill:white;fill-rule:nonzero;"/>
            <path d="M1118.6,69.352L373.52,581.722C368.875,584.921 366.125,590.214 366.176,595.855C366.227,601.492 369.075,606.734 373.778,609.847C407.505,632.089 471.981,673.527 484.868,681.8L780.698,386C786.639,380.059 795.3,377.738 803.413,379.914C811.53,382.09 817.866,388.426 820.042,396.543C822.218,404.656 819.897,413.316 813.956,419.258L518.106,715.088C526.379,727.979 567.84,792.432 590.083,826.178C593.196,830.881 598.438,833.729 604.075,833.78C609.715,833.83 615.009,831.08 618.208,826.436L1130.6,81.336C1132.94,77.91 1132.5,73.301 1129.57,70.367C1126.63,67.437 1122.02,67.011 1118.6,69.359L1118.6,69.352Z" style="fill:white;fill-rule:nonzero;"/>
        </g>
    </g>
</svg>
