<?xml version="1.0" encoding="UTF-8"?>
<svg width="1200pt" height="1200pt" version="1.1" viewBox="0 0 1200 1200" xmlns="http://www.w3.org/2000/svg">
 <path d="m773.33 48.332c-11.668-8.332-26.668-8.332-38.332 0-108.33 73.332-210 165-303.33 261.67-26.668-23.332-66.668-21.668-91.668 5-21.668 25-18.332 65 3.332 88.332-131.66 153.34-243.33 315-330 453.34-21.668 33.332 26.668 68.332 51.668 38.332 136.67-161.67 258.33-286.67 363.33-385 5-3.332 11.668-3.332 15 0l578.33 616.67c35 38.332 95 45 135 11.668 45-38.332 46.668-105 5-145l-611.66-573.34c-5-5-5-11.668 0-16.668 151.67-125 260-185 321.67-211.67 23.332-10 30-43.332 10-58.332z" fill="#fff"/>
</svg>
