<?xml version="1.0" encoding="UTF-8"?>
<svg width="1200pt" height="1200pt" version="1.1" viewBox="0 0 1200 1200" xmlns="http://www.w3.org/2000/svg">
 <g fill="#fff">
  <path d="m124.83 1075.2 55.922 55.945c3.5586 3.5586 9.332 3.5586 12.891 0l23.438-23.438c3.5586-3.5586 3.5586-9.332 0-12.891l-55.992-55.875-55.945-55.945c-3.5586-3.5586-9.332-3.5586-12.891 0l-23.438 23.438c-1.7148 1.7031-2.6758 4.0195-2.6758 6.4336 0 2.4141 0.96094 4.7305 2.6758 6.4336z"/>
  <path d="m1117.4 66.234-97.312 7.2188c-4.1133 0.30469-7.9805 2.0742-10.898 4.9922l-607.36 607.36c-1.8359 1.832-2.8672 4.3203-2.8672 6.9141s1.0312 5.082 2.8672 6.9141l25.898 25.898c3.8242 3.8242 10.027 3.8242 13.852 0l577.08-577.08c4.2891-4.4297 10.129-7.0312 16.293-7.2539 6.168-0.22266 12.176 1.9492 16.777 6.0586 4.5977 4.3008 7.2539 10.277 7.3672 16.57 0.11719 6.293-2.3203 12.363-6.7578 16.828l-577.88 577.76c-3.8242 3.8242-3.8242 10.027 0 13.852l25.898 25.898c1.832 1.8359 4.3203 2.8672 6.9141 2.8672s5.082-1.0312 6.9141-2.8672l607.36-607.36c2.918-2.918 4.6875-6.7852 4.9922-10.898l7.2188-97.312c0.32422-4.4297-1.293-8.7852-4.4336-11.926s-7.4961-4.7578-11.926-4.4336z"/>
  <path d="m221.11 1033.2c2.4844 2.4922 5.8555 3.8906 9.375 3.8906s6.8906-1.3984 9.375-3.8906l164.98-165 42.188 42.305c1.7031 1.7148 4.0195 2.6758 6.4336 2.6758 2.4141 0 4.7305-0.96094 6.4336-2.6758l37.031-37.008c3.5586-3.5586 3.5586-9.332 0-12.891l-78.773-78.797-78.727-78.656c-3.5586-3.5586-9.332-3.5586-12.891 0l-37.008 37.031c-1.7148 1.7031-2.6758 4.0195-2.6758 6.4336 0 2.4141 0.96094 4.7305 2.6758 6.4336l42.305 42.305-165 164.98c-2.4922 2.4844-3.8906 5.8555-3.8906 9.375 0 3.5195 1.3984 6.8906 3.8906 9.375z"/>
 </g>
</svg>
