<?xml version="1.0" encoding="UTF-8"?>
<svg width="1200pt" height="1200pt" version="1.1" viewBox="0 0 1200 1200" xmlns="http://www.w3.org/2000/svg">
 <g fill="#fff">
  <path d="m86.977 1113 2.9062 2.9297c7.25 7.2344 17.074 11.297 27.316 11.297 10.242 0 20.066-4.0625 27.316-11.297l1.0781-1.0781c4.8398-4.8516 8.3086-10.902 10.055-17.531 1.7344-6.6328 5.207-12.684 10.055-17.531l115.55-115.62c8.7305-8.7266 20.566-13.625 32.906-13.625s24.176 4.8984 32.906 13.625l24.609 24.609 0.35156 32.203c0.054687 5.6445 2.3203 11.043 6.3164 15.035 3.9922 3.9961 9.3906 6.2617 15.035 6.3164l40.57 0.44531c5.8008 0.058593 11.383-2.2227 15.484-6.3281 4.1016-4.1055 6.375-9.6914 6.3125-15.492l-0.42188-40.57c-0.0625-5.6445-2.3281-11.039-6.3203-15.031-3.9922-3.9922-9.3867-6.2578-15.031-6.3203l-33-0.35156-79.875-79.805-79.688-79.922-0.35156-33c-0.0625-5.6445-2.3281-11.039-6.3203-15.031s-9.3867-6.2578-15.031-6.3203l-40.57-0.42187c-5.8008-0.0625-11.387 2.2109-15.492 6.3125-4.1055 4.1016-6.3867 9.6836-6.3281 15.484l0.44531 40.57c0.054688 5.6445 2.3203 11.043 6.3164 15.035 3.9922 3.9961 9.3906 6.2617 15.035 6.3164l32.203 0.35156 24.609 24.609c8.7266 8.7305 13.625 20.566 13.625 32.906s-4.8984 24.176-13.625 32.906l-115.73 115.59c-4.8477 4.8477-10.898 8.3203-17.531 10.055-6.6289 1.7461-12.68 5.2148-17.531 10.055l-1.0781 1.0781c-7.2344 7.25-11.297 17.074-11.297 27.316 0 10.242 4.0625 20.066 11.297 27.316z"/>
  <path d="m375.47 867.35c1.2656 1.2695 2.9883 1.9844 4.7812 1.9844s3.5156-0.71484 4.7812-1.9844l27.703-27.703c12.848-13.172 30.59-20.418 48.984-20.016 10.094 0.46484 19.992 2.9766 29.086 7.3828 1.1914 0.57812 2.6172 0.36328 3.5859-0.53906 0.97266-0.90234 1.2891-2.3086 0.79688-3.5391l-0.1875-0.46875c-15.234-38.109 16.711-78.633 57.375-73.031l2.7188 0.42188c3.9531 0.64844 7.9727-0.66406 10.781-3.5156l417.42-417.42c2.6758-2.6562 4.4844-6.0664 5.1797-9.7734 3.5156-19.195 22.43-85.453 118.57-122.18 3.3438-1.2578 6.2578-3.4414 8.4141-6.2891 2.1523-2.8516 3.4531-6.2539 3.75-9.8125l8.1328-98.273c0.21484-2.6641-0.75-5.2891-2.6406-7.1797-1.8906-1.8906-4.5156-2.8555-7.1797-2.6406l-98.273 7.9688c-3.5625 0.29297-6.9688 1.5938-9.8242 3.7461-2.8555 2.1523-5.0391 5.0703-6.3008 8.418-36.727 96.094-102.98 115.05-122.18 118.57-3.707 0.69531-7.1172 2.5039-9.7734 5.1797l-417.42 417.42c-2.8516 2.8086-4.1641 6.8281-3.5156 10.781 0.16406 0.91406 0.30469 1.8281 0.42188 2.7188 5.6016 40.664-34.922 72.656-73.031 57.375l-0.46875-0.1875c-1.2305-0.49219-2.6367-0.17578-3.5391 0.79688-0.90234 0.96875-1.1172 2.3945-0.53906 3.5859 4.3828 9.1172 6.8594 19.027 7.2891 29.133 0.41797 18.414-6.832 36.172-20.016 49.031l-27.703 27.703c-1.2695 1.2656-1.9844 2.9883-1.9844 4.7812s0.71484 3.5156 1.9844 4.7812z"/>
 </g>
</svg>
