<?xml version="1.0" encoding="UTF-8" standalone="no"?>
<!DOCTYPE svg PUBLIC "-//W3C//DTD SVG 1.1//EN" "http://www.w3.org/Graphics/SVG/1.1/DTD/svg11.dtd">
<svg width="100%" height="100%" viewBox="0 0 450 512" version="1.1" xmlns="http://www.w3.org/2000/svg" xmlns:xlink="http://www.w3.org/1999/xlink" xml:space="preserve" xmlns:serif="http://www.serif.com/" style="fill-rule:evenodd;clip-rule:evenodd;stroke-linejoin:round;stroke-miterlimit:2;">
    <g transform="matrix(1,0,0,1,-122.969,-55.632)">
        <g transform="matrix(0.474073,0,0,0.474073,64.6725,29.2584)">
            <path d="M896.09,160.44C848.664,153.503 803.496,137.905 761.89,114.073L660.25,55.632L585.441,190.452L605.925,201.815L592.101,226.725C573.644,259.991 558.585,295.041 547.16,331.335L537.297,362.679C515.625,431.511 481.664,494.819 436.347,550.899C423.085,567.301 408.195,585.278 392.632,604.094C383.718,614.871 374.562,625.946 365.394,637.094L365.167,637.18L365.214,637.313C322.652,689.055 279.331,743.243 252.604,786.123C179.885,902.803 135.584,1058.07 123.734,1102.87C121.922,1109.74 123.363,1119.01 127.683,1124.63C132.027,1130.28 138.628,1135.63 145.769,1135.63L269.589,1135.63C282.046,1135.63 292.28,1123.42 292.378,1111.01C292.679,1076.37 298.511,953.53 360.972,840.96C408.874,754.644 473.422,683.58 530.382,621.35C561.952,586.862 591.773,554.006 613.925,523.623C680.921,431.752 717.305,320.743 734.625,273.363L759.871,287.043C766.746,290.773 772.687,296.019 777.234,302.379L906.764,483.699L917.612,473.679C992.721,404.245 1044.54,313.299 1065.97,213.289L1071.79,186.144L896.09,160.44Z" style="fill:white;fill-rule:nonzero;"/>
        </g>
    </g>
</svg>
