<?xml version="1.0" encoding="UTF-8"?>
<svg width="1200pt" height="1200pt" version="1.1" viewBox="0 0 1200 1200" xmlns="http://www.w3.org/2000/svg">
 <path d="m896.09 160.44c-47.426-6.9375-92.594-22.535-134.2-46.367l-101.64-58.441-74.809 134.82 20.484 11.363-13.824 24.91c-18.457 33.266-33.516 68.316-44.941 104.61l-9.8633 31.344c-21.672 68.832-55.633 132.14-100.95 188.22-13.262 16.402-28.152 34.379-43.715 53.195-8.9141 10.777-18.07 21.852-27.238 33l-0.22656 0.085937 0.046875 0.13281c-42.562 51.742-85.883 105.93-112.61 148.81-72.719 116.68-117.02 271.95-128.87 316.75-1.8125 6.8633-0.37109 16.141 3.9492 21.758 4.3438 5.6523 10.945 11.004 18.086 11.004h123.82c12.457 0 22.691-12.215 22.789-24.625 0.30078-34.645 6.1328-157.48 68.594-270.05 47.902-86.316 112.45-157.38 169.41-219.61 31.57-34.488 61.391-67.344 83.543-97.727 66.996-91.871 103.38-202.88 120.7-250.26l25.246 13.68c6.875 3.7305 12.816 8.9766 17.363 15.336l129.53 181.32 10.848-10.02c75.109-69.434 126.93-160.38 148.36-260.39l5.8203-27.145z" fill="#fff"/>
</svg>
