<?xml version="1.0" encoding="UTF-8" standalone="no"?>
<!DOCTYPE svg PUBLIC "-//W3C//DTD SVG 1.1//EN" "http://www.w3.org/Graphics/SVG/1.1/DTD/svg11.dtd">
<svg width="100%" height="100%" viewBox="0 0 512 512" version="1.1" xmlns="http://www.w3.org/2000/svg" xmlns:xlink="http://www.w3.org/1999/xlink" xml:space="preserve" xmlns:serif="http://www.serif.com/" style="fill-rule:evenodd;clip-rule:evenodd;stroke-linejoin:round;stroke-miterlimit:2;">
    <g transform="matrix(1,0,0,1,-68.4079,-68.5151)">
        <g transform="matrix(0.481582,0,0,0.481582,35.4639,35.5195)">
            <path d="M98.438,1128.6C139.317,1103.15 183.157,1082.82 228.988,1068.04C271.668,1055 316.23,1049.21 360.828,1050.9C438.781,1053.39 693.128,1046.66 869.958,869.825C1046.8,692.985 1053.52,438.575 1051.04,360.695C1049.34,316.101 1055.14,271.539 1068.17,228.855C1082.92,183.074 1103.22,139.273 1128.62,98.425C1131.17,94.319 1132.12,89.409 1131.27,84.648C1130.42,79.886 1127.84,75.609 1124.02,72.64C1120.2,69.667 1115.42,68.218 1110.59,68.566C1083.57,70.605 1069.41,86.543 1069.41,86.543L1046.82,109.137C1046.71,109.211 1046.62,109.297 1046.54,109.395L526.227,629.705C521.625,634.177 518.926,640.256 518.696,646.67C518.465,653.084 520.715,659.342 524.985,664.135C529.477,668.908 535.708,671.662 542.262,671.764C548.813,671.865 555.129,669.307 559.766,664.674L936.966,287.304C939.767,284.526 944.028,283.843 947.556,285.605C951.087,287.362 953.107,291.175 952.575,295.085L952.575,295.39C943.146,372.21 927.911,448.21 907.013,522.73C880.911,614.152 831.939,697.41 764.723,764.65C697.504,831.888 614.263,880.88 522.843,907.01C448.32,927.908 372.323,943.143 295.503,952.572L295.199,952.572C291.289,953.103 287.476,951.083 285.718,947.552C283.957,944.025 284.64,939.763 287.417,936.962L393.757,830.412C398.363,825.939 401.066,819.861 401.297,813.447C401.531,807.029 399.273,800.775 395,795.982C390.511,791.209 384.285,788.459 377.734,788.357C371.187,788.256 364.875,790.81 360.242,795.443L108.402,1047.37L108.144,1047.65L86.441,1069.38C86.441,1069.38 70.503,1083.44 68.464,1110.56C68.097,1115.41 69.546,1120.22 72.53,1124.06C75.515,1127.9 79.823,1130.49 84.612,1131.32C89.401,1132.16 94.331,1131.18 98.44,1128.59L98.438,1128.6Z" style="fill:white;fill-rule:nonzero;"/>
            <path d="M486.05,710.72C485.163,709.392 484.152,708.15 483.027,707.017C481.906,705.896 480.671,704.892 479.347,704.017C478.034,703.122 476.628,702.376 475.152,701.79C473.695,701.173 472.179,700.712 470.628,700.408C469.085,700.087 467.515,699.931 465.941,699.939C464.367,699.935 462.796,700.091 461.253,700.408C459.702,700.72 458.187,701.181 456.73,701.79C453.796,703.013 451.124,704.79 448.855,707.017C447.734,708.15 446.73,709.388 445.855,710.72C444.976,712.033 444.23,713.431 443.628,714.892C443.019,716.361 442.546,717.884 442.222,719.439C441.636,722.537 441.636,725.716 442.222,728.814C442.546,730.365 443.015,731.876 443.628,733.337C444.214,734.814 444.96,736.22 445.855,737.533C446.738,738.853 447.742,740.083 448.855,741.212C449.995,742.333 451.234,743.345 452.558,744.236C453.874,745.107 455.273,745.853 456.73,746.462C458.179,747.072 459.687,747.525 461.23,747.822C462.769,748.154 464.343,748.318 465.917,748.314C467.492,748.31 469.062,748.15 470.605,747.845C472.156,747.54 473.671,747.079 475.128,746.462C476.597,745.857 477.999,745.111 479.324,744.236C481.98,742.47 484.261,740.189 486.027,737.533C486.945,736.212 487.726,734.81 488.37,733.337C488.988,731.88 489.449,730.365 489.753,728.814C490.058,727.271 490.218,725.701 490.222,724.126C490.226,722.552 490.062,720.978 489.73,719.439C489.433,717.896 488.98,716.388 488.37,714.939C487.734,713.462 486.956,712.048 486.05,710.72L486.05,710.72Z" style="fill:white;fill-rule:nonzero;"/>
        </g>
    </g>
</svg>
