<?xml version="1.0" encoding="UTF-8"?>
<svg width="1200pt" height="1200pt" version="1.1" viewBox="0 0 1200 1200" xmlns="http://www.w3.org/2000/svg">
 <g fill="#fff">
  <path d="m126.02 1129.4c30.539 4.3633 61.348-5.9102 83.156-27.727l42.352-42.328c15.641-15.301 25.902-35.258 29.25-56.883 2.9531-21.059 12.688-40.582 27.727-55.617l282.91-282.87c33.199-33.246 71.172-61.352 112.66-83.391 30.047-16.238 61.203-30.336 93.234-42.188 21.98-7.9062 41.926-20.594 58.406-37.148l137.37-137.37c6.543-6.5195 10.223-15.375 10.223-24.609 0-9.2344-3.6797-18.09-10.223-24.609l-107.81-107.81c-6.5195-6.543-15.375-10.223-24.609-10.223s-18.09 3.6797-24.609 10.223l-137.95 137.95c-16.496 16.645-29.102 36.734-36.914 58.828-11.828 31.801-25.844 62.742-41.953 92.602-22 41.355-50.043 79.203-83.203 112.29l-281.44 281.41c-15.305 15.633-35.262 25.891-56.883 29.227-21.016 2.9727-40.5 12.684-55.523 27.68l-43.898 43.945c-21.816 21.809-32.09 52.617-27.727 83.156 2.0039 13.996 8.4922 26.965 18.492 36.961 9.9961 10 22.965 16.488 36.961 18.492z"/>
  <path d="m675.63 257.81c5.6797 3.6367 12.434 5.2188 19.141 4.4922 6.7031-0.73047 12.961-3.7305 17.727-8.5l69.07-69.07c5.6602-5.6367 8.4336-13.555 7.5195-21.492-0.91406-7.9336-5.4141-15.016-12.207-19.219-57.445-35.297-196.88-105.7-335.16-58.852-25.531 8.8008-49.484 21.645-70.945 38.039-26.602 20.109-74.531 57.117-117.38 94.266-37.055 32.156-87.914 44.531-135.05 30.867-4.2656-1.2188-8.5469-2.6641-12.844-4.3359-5.4375-2.1445-11.527-1.8906-16.766 0.69922-5.2383 2.5898-9.1367 7.2773-10.734 12.898-1.5977 5.6211-0.74219 11.656 2.3516 16.613 10.855 17.852 24.93 33.531 41.508 46.242 20.613 15.629 34.719 38.324 39.609 63.727l77.742 382.22c1.8359 8.4766 8.0234 15.352 16.258 18.07 8.2383 2.7188 17.301 0.87891 23.82-4.8398 6.5234-5.7148 9.5391-14.457 7.9219-22.98l-84.375-414.26c24.66-3.3242 47.637-14.375 65.625-31.57 54.633-51.539 216.42-175.83 407.16-53.016z"/>
  <path d="m1076.8 829.29c16.398-21.457 29.242-45.41 38.039-70.945 46.875-138.28-23.438-277.78-58.852-335.16-4.2031-6.793-11.285-11.293-19.219-12.207-7.9375-0.91406-15.855 1.8594-21.492 7.5195l-69.07 69c-4.7812 4.7969-7.7695 11.086-8.4766 17.82-0.70312 6.7344 0.92578 13.508 4.6094 19.188 122.67 190.69-1.6172 352.48-53.109 406.95-17.195 17.988-28.246 40.965-31.57 65.625l-414.26-84.375c-8.5859-1.75-17.457 1.2148-23.266 7.7773-5.8086 6.5586-7.6758 15.723-4.8984 24.035 2.7773 8.3086 9.7812 14.508 18.367 16.258l382.03 77.742c25.469 4.8516 48.234 18.961 63.914 39.609 12.703 16.594 28.383 30.68 46.242 41.531 16.734 10.523 37.5-6.3047 30.469-24.727-1.4766-3.7734-2.7656-7.5469-3.9141-11.297-14.102-47.66-2.7852-99.219 29.977-136.59 37.219-42.938 74.297-91.055 94.477-117.75z"/>
 </g>
</svg>
