<?xml version="1.0" encoding="UTF-8"?>
<svg width="1200pt" height="1200pt" version="1.1" viewBox="0 0 1200 1200" xmlns="http://www.w3.org/2000/svg">
 <g fill="#fff">
  <path d="m895.31 637.05c162.33-36.562 217.15-191.98 230.62-241.17 1.2227-4.4492 1.1797-9.1484-0.12891-13.574-1.3125-4.4219-3.832-8.3906-7.2773-11.457-6.4688-5.7891-13.453-11.859-20.836-18.141-2.1211-1.8125-5-2.457-7.6914-1.7188-2.6875 0.73828-4.8359 2.7578-5.7383 5.3984-5.7578 17.398-12.859 34.324-21.234 50.625-26.93 52.383-78.727 119.09-175.78 157.57-4.5 1.8047-8.3203 4.9844-10.914 9.0781-2.5977 4.0977-3.8359 8.9102-3.5469 13.75 0.72656 12.047 0.67969 22.805 0.32813 31.5-0.19141 5.6211 2.2539 11.008 6.6055 14.562 4.3555 3.5586 10.121 4.8828 15.59 3.5781z"/>
  <path d="m594.8 468.75c14.953-13.68 31.156-25.93 48.398-36.586 65.344-39.844 151.36-22.875 194.39 40.359 7.582 11.285 13.871 23.383 18.75 36.07 1.625 4.2266 4.8945 7.6094 9.0625 9.3789 4.1641 1.7656 8.8711 1.7656 13.039-0.003906 107.81-46.383 149.3-133.59 165.16-188.27 1.4609-5.1055 1.3711-10.531-0.26172-15.586-1.6328-5.0547-4.7305-9.5078-8.9023-12.797-45.328-35.859-96.422-74.414-144.14-109.69l3.375-16.852c2.0234-9.5977-0.46484-19.59-6.75-27.117-6.6875-7.7031-14.078-14.766-22.078-21.094-5.7148-4.5312-12.793-7-20.086-7-7.293 0-14.371 2.4688-20.086 7h-0.11719c-3.1914 2.5-7.1055 3.8984-11.156 3.9883-4.0508 0.089844-8.0234-1.1367-11.32-3.4961-28.312-20.438-51.562-37.078-66.492-47.602-4.875-3.5-10.855-5.1094-16.824-4.5273-5.9727 0.58203-11.531 3.3164-15.637 7.6914l-43.945 47.016c-3.3359 3.6094-5.3203 8.2617-5.625 13.168-0.30469 4.9062 1.0977 9.7656 3.9609 13.762 7.4375 10.57 12.812 22.453 15.844 35.016 2.9609 12.238 2.6523 25.039-0.90234 37.121-3.5547 12.078-10.23 23.008-19.348 31.691-246.38 236.04-454.55 558.91-523.34 670.64-26.875 43.402-44.805 91.742-52.734 142.17-1.6641 10.758-2.8359 20.461-3.6562 28.5-0.58203 6.0781 1.457 12.113 5.6094 16.59 4.1484 4.4766 10.012 6.9688 16.117 6.8477l75.305-1.5234c5.4727-0.074219 10.707-2.2617 14.609-6.0977 3.9023-3.8359 6.1758-9.0312 6.3438-14.504 5.5078-248.27 403.43-634.27 403.43-634.27z"/>
 </g>
</svg>
