<?xml version="1.0" encoding="UTF-8" standalone="no"?>
<!DOCTYPE svg PUBLIC "-//W3C//DTD SVG 1.1//EN" "http://www.w3.org/Graphics/SVG/1.1/DTD/svg11.dtd">
<svg width="100%" height="100%" viewBox="0 0 512 511" version="1.1" xmlns="http://www.w3.org/2000/svg" xmlns:xlink="http://www.w3.org/1999/xlink" xml:space="preserve" xmlns:serif="http://www.serif.com/" style="fill-rule:evenodd;clip-rule:evenodd;stroke-linejoin:round;stroke-miterlimit:2;">
    <g transform="matrix(1,0,0,1,-73.281,-74.8082)">
        <g transform="matrix(0.485983,0,0,0.485983,37.6677,38.4527)">
            <path d="M895.31,637.05C1057.64,600.488 1112.46,445.07 1125.93,395.88C1127.15,391.431 1127.11,386.732 1125.8,382.306C1124.49,377.884 1121.97,373.915 1118.52,370.849C1112.06,365.06 1105.07,358.99 1097.69,352.708C1095.57,350.895 1092.69,350.251 1090,350.989C1087.31,351.727 1085.16,353.747 1084.26,356.388C1078.5,373.786 1071.4,390.712 1063.02,407.013C1036.09,459.396 984.297,526.103 887.244,564.583C882.744,566.387 878.924,569.567 876.33,573.661C873.732,577.758 872.494,582.571 872.783,587.411C873.51,599.458 873.463,610.216 873.111,618.911C872.92,624.532 875.365,629.919 879.717,633.473C884.072,637.031 889.838,638.355 895.307,637.051L895.31,637.05Z" style="fill:white;fill-rule:nonzero;"/>
            <path d="M594.8,468.75C609.753,455.07 625.956,442.82 643.198,432.164C708.542,392.32 794.558,409.289 837.588,472.523C845.17,483.808 851.459,495.906 856.338,508.593C857.963,512.82 861.232,516.202 865.401,517.972C869.565,519.737 874.272,519.737 878.439,517.968C986.249,471.585 1027.74,384.378 1043.6,329.698C1045.06,324.592 1044.97,319.167 1043.34,314.112C1041.7,309.057 1038.61,304.604 1034.43,301.315C989.107,265.456 938.013,226.901 890.295,191.625L893.67,174.773C895.694,165.175 893.206,155.183 886.92,147.656C880.233,139.953 872.842,132.89 864.842,126.562C859.128,122.031 852.049,119.562 844.756,119.562C837.463,119.562 830.385,122.031 824.67,126.562L824.553,126.562C821.362,129.062 817.448,130.46 813.397,130.55C809.346,130.64 805.374,129.414 802.077,127.054C773.765,106.616 750.515,89.976 735.585,79.452C730.71,75.952 724.73,74.343 718.761,74.925C712.789,75.507 707.23,78.241 703.124,82.616L659.179,129.632C655.843,133.242 653.859,137.894 653.554,142.8C653.25,147.706 654.652,152.566 657.515,156.562C664.953,167.132 670.327,179.015 673.359,191.578C676.32,203.816 676.011,216.617 672.457,228.699C668.902,240.777 662.227,251.707 653.109,260.39C406.729,496.43 198.559,819.3 129.769,931.03C102.894,974.432 84.964,1022.77 77.035,1073.2C75.371,1083.96 74.199,1093.66 73.379,1101.7C72.797,1107.78 74.836,1113.81 78.988,1118.29C83.136,1122.77 89,1125.26 95.105,1125.14L170.41,1123.62C175.883,1123.54 181.117,1121.35 185.019,1117.52C188.921,1113.68 191.195,1108.49 191.363,1103.01C196.871,854.743 594.793,468.743 594.793,468.743L594.8,468.75Z" style="fill:white;fill-rule:nonzero;"/>
        </g>
    </g>
</svg>
