<?xml version="1.0" encoding="UTF-8" standalone="no"?>
<!DOCTYPE svg PUBLIC "-//W3C//DTD SVG 1.1//EN" "http://www.w3.org/Graphics/SVG/1.1/DTD/svg11.dtd">
<svg width="100%" height="100%" viewBox="0 0 512 513" version="1.1" xmlns="http://www.w3.org/2000/svg" xmlns:xlink="http://www.w3.org/1999/xlink" xml:space="preserve" xmlns:serif="http://www.serif.com/" style="fill-rule:evenodd;clip-rule:evenodd;stroke-linejoin:round;stroke-miterlimit:2;">
    <g transform="matrix(1,0,0,1,-69.5543,-69.5681)">
        <g transform="matrix(0.482605,0,0,0.482605,35.987,35.9942)">
            <path d="M312.59,938.95C330.07,922.399 349.871,908.485 371.371,897.653L386.394,890.13C389.953,888.341 392.433,884.95 393.066,881.02C393.695,877.087 392.402,873.09 389.582,870.278L329.676,810.372C326.859,807.564 322.867,806.278 318.942,806.915C315.016,807.552 311.633,810.032 309.848,813.583L302.301,828.583C291.5,850.083 277.617,869.895 261.098,887.388L155.278,999.468C145.165,1010.19 130.794,1015.82 116.09,1014.84L91.106,1013.18C86.184,1012.8 81.297,1014.23 77.348,1017.19C72.817,1020.62 69.992,1025.84 69.602,1031.51C69.207,1037.18 71.289,1042.75 75.309,1046.77L114.379,1085.81L152.887,1124.34C155.863,1127.41 159.731,1129.46 163.942,1130.19C168.149,1130.93 172.485,1130.32 176.325,1128.44C179.715,1126.68 182.524,1123.97 184.399,1120.64C186.278,1117.31 187.145,1113.51 186.895,1109.69L185.161,1083.96C184.192,1069.25 189.829,1054.88 200.536,1044.75L312.59,938.95Z" style="fill:white;fill-rule:nonzero;"/>
            <path d="M538.34,904.29L615.918,748.81C620.606,739.404 626.328,730.552 632.98,722.419L1128.19,86.229C1135.6,76.713 1123.34,64.432 1113.82,71.838L477.633,567.048C469.492,573.7 460.645,579.431 451.242,584.134L295.732,661.689C288.158,665.478 282.869,672.673 281.513,681.033C280.158,689.388 282.9,697.888 288.888,703.877L496.168,911.157C502.152,917.141 510.652,919.884 519.008,918.524C527.364,917.161 534.555,911.864 538.332,904.29L538.34,904.29Z" style="fill:white;fill-rule:nonzero;"/>
        </g>
    </g>
</svg>
