<?xml version="1.0" encoding="UTF-8"?>
<svg width="1200pt" height="1200pt" version="1.1" viewBox="0 0 1200 1200" xmlns="http://www.w3.org/2000/svg">
 <g fill="#fff">
  <path d="m1118.6 281.72c-67.289-56.555-168.54-158.79-211.15-202.41-5.3828-5.5273-12.652-8.8242-20.359-9.2344-7.7031-0.41016-15.281 2.1016-21.219 7.0312-90.609 75-211.2 147.66-253.92 172.73-4.7188 2.7734-8.6094 6.7578-11.262 11.543-2.6562 4.7891-3.9766 10.195-3.832 15.668 3.3984 137.16-39.68 283.41-57.867 338.65-4.7422 14.414-15.625 25.992-29.719 31.617l-142.03 56.883c-24.449 9.8086-43.039 30.305-50.414 55.594l-35.977 123.56c-3.25 11.098-9.6406 21.02-18.398 28.57-29.977 25.945-120.7 135.94-187.34 193.62-12.469 10.781 1.0078 30.469 15.562 22.641 82.219-43.688 189.38-132.16 233.32-152.7 15.945-7.3789 27.785-21.461 32.32-38.438 10.922-41.391 27.68-80.578 39.422-105.47 8.5977-18.27 23.395-32.895 41.766-41.273 45.023-20.578 108.35-42.188 145.69-54.539 9.1602-2.9844 17.293-8.4922 23.465-15.895 6.168-7.4023 10.125-16.395 11.41-25.941 15.984-117.85 45.93-233.38 89.203-344.16 12.934-33.141 33.125-62.961 59.086-87.281 53.156-49.219 105.28-50.789 140.39-43.078 31.234 6.7422 58.457 25.742 75.562 52.734 44.414 71.039-28.875 130.36-28.875 130.36-37.289 29.297-94.875 19.734-121.1 13.195-3.3984-0.85938-7.0039-0.13281-9.8047 1.9727-2.8008 2.1094-4.4961 5.375-4.6094 8.8789l-1.2422 32.109c-0.14062 3.7305 1.5273 7.3008 4.4766 9.5859l76.969 59.812c6.9648 5.4102 15.727 7.9766 24.512 7.1758 8.7812-0.80078 16.938-4.9062 22.809-11.488l176.39-197.98c5.5156-6.2266 8.2852-14.418 7.6758-22.715s-4.543-15.992-10.91-21.348z"/>
  <path d="m875.39 376.05c14.336 0.55469 28.309-4.6094 38.84-14.352s16.766-23.27 17.324-37.609c0.5625-14.336-4.5938-28.309-14.332-38.848-9.7383-10.535-23.262-16.773-37.598-17.344-14.336-0.56641-28.312 4.5781-38.855 14.312s-16.789 23.254-17.363 37.59c-0.57812 14.355 4.5781 28.352 14.328 38.902 9.7539 10.551 23.301 16.793 37.656 17.348z"/>
 </g>
</svg>
