<?xml version="1.0" encoding="UTF-8"?>
<svg width="1200pt" height="1200pt" version="1.1" viewBox="0 0 1200 1200" xmlns="http://www.w3.org/2000/svg">
 <g fill="#fff">
  <path d="m933.49 249.87c-30.258 1.5938-71.602 9.375-108.82 35.156-8.5352 5.9766-14.02 15.395-15.008 25.77-0.98828 10.371 2.6211 20.656 9.875 28.137 5.5039 5.6523 12.805 9.2148 20.648 10.07s15.742-1.0508 22.336-5.3828c20.539-13.801 44.988-20.602 69.703-19.383 8.9883 0.52734 17.852-2.293 24.875-7.9219 7.0273-5.6289 11.719-13.66 13.164-22.547 0.14062-0.84375 0.21094-1.3125 0.21094-1.3125 3.7969-22.922-14.227-43.781-36.984-42.586z"/>
  <path d="m1120.7 344.86-19.219-17.344c-5.2148-4.7461-12.121-7.1836-19.16-6.7656-7.0391 0.41797-13.609 3.6602-18.223 8.9922-4.6758 5.3711-7.0625 12.359-6.6484 19.469 0.41016 7.1094 3.5898 13.773 8.8516 18.57l19.195 17.344c5.2266 4.7695 12.156 7.2266 19.219 6.8047 7.0625-0.41797 13.656-3.6758 18.281-9.0312 4.6562-5.3867 7.0234-12.379 6.5938-19.488-0.42969-7.1055-3.6211-13.766-8.8906-18.551z"/>
  <path d="m1101.1 192.19-21.984 13.5c-6.0391 3.7695-10.363 9.7539-12.039 16.672-1.6797 6.918-0.57813 14.219 3.0625 20.336 3.5625 6.0898 9.4297 10.484 16.273 12.199 6.8477 1.7109 14.09 0.58984 20.102-3.1055l21.984-13.5c6.0352-3.7695 10.352-9.75 12.031-16.66 1.6758-6.9141 0.58203-14.211-3.0547-20.324-3.5586-6.0938-9.4258-10.496-16.27-12.211s-14.094-0.60156-20.105 3.0938z"/>
  <path d="m1011.9 88.383c-6.6875-2.2773-14.008-1.7734-20.32 1.3945-6.3164 3.168-11.094 8.7344-13.266 15.457l-8.2734 24.75c-2.2422 6.7344-1.7461 14.078 1.375 20.453 3.1211 6.3711 8.6172 11.266 15.312 13.625 6.6875 2.2773 14.008 1.7734 20.32-1.3945 6.3164-3.168 11.094-8.7344 13.266-15.457l8.25-24.75c2.25-6.7305 1.7617-14.074-1.3555-20.449-3.1172-6.375-8.6172-11.27-15.309-13.629z"/>
  <path d="m782.32 376.69-87.023-88.406c-4.0273-4.1172-9.1953-6.9336-14.84-8.0898-5.6406-1.1602-11.5-0.60156-16.824 1.5977 0 0-32.273 13.312-53.906 22.102-4.707 1.9609-8.2773 5.9414-9.7109 10.836-1.4336 4.8906-0.57812 10.168 2.3281 14.359 8.25 11.715 17.422 22.758 27.422 33.023 9.1406 9.375 10.148 24.656 1.3125 34.336-4.3633 4.8203-10.527 7.6211-17.027 7.7461s-12.762-2.4414-17.309-7.0898c-23.703-24.367-43.625-52.145-59.109-82.406-4.1133-8.0977-11.883-13.707-20.859-15.07-62.492-9.0078-126.23-2.9961-185.94 17.539-59.707 20.535-113.66 55-157.39 100.54-152.34 157.59-153.16 412.9-1.6172 571.36 49.18 51.855 111.43 89.484 180.21 108.93 68.773 19.441 141.52 19.977 210.56 1.543 69.051-18.43 131.85-55.145 181.79-106.27 92.977-94.523 130.88-223.85 113.74-346.73-1.2852-9.0352-6.8047-16.918-14.859-21.211-29.613-15.699-56.707-35.742-80.391-59.461-4.2695-4.2344-6.875-9.8555-7.3438-15.852-0.46875-5.9922 1.2305-11.953 4.7891-16.797 4.1523-5.4648 10.477-8.8555 17.324-9.2812 6.8516-0.42969 13.551 2.1484 18.348 7.0547 10.277 10.406 21.375 19.969 33.188 28.594 4.1328 2.9375 9.3945 3.7969 14.246 2.332 4.8555-1.4688 8.7578-5.0977 10.574-9.832 8.6484-21.938 21.727-54.75 21.727-54.75 2.1758-5.4062 2.7305-11.332 1.5977-17.051-1.1289-5.7148-3.9023-10.98-7.9727-15.152z"/>
 </g>
</svg>
