<?xml version="1.0" encoding="UTF-8"?>
<svg width="1200pt" height="1200pt" version="1.1" viewBox="0 0 1200 1200" xmlns="http://www.w3.org/2000/svg">
 <g fill="#fff">
  <path d="m319.92 838.31c-3.3477-3.3438-7.8867-5.2227-12.621-5.2227s-9.2734 1.8789-12.621 5.2227l-217.08 217.08c-3.7461 3.75-5.8516 8.832-5.8516 14.133 0 5.3008 2.1055 10.383 5.8516 14.133l38.766 38.766c3.75 3.7461 8.832 5.8516 14.133 5.8516s10.383-2.1055 14.133-5.8516l217.08-217.08c3.3438-3.3477 5.2227-7.8867 5.2227-12.621s-1.8789-9.2734-5.2227-12.621l-3.8203-3.8203 375.38-375.42c4.9219-4.9219 5.0352-12.867 0.25781-17.93-2.6562-2.7812-5.3594-5.5625-8.1094-8.3438-2.7656-2.7422-5.5547-5.4609-8.3438-8.1094-5.0625-4.7773-13.008-4.6641-17.93 0.25781l-375.4 375.4z"/>
  <path d="m793.62 128.18c-23.93-19.055-44.789-37.828-58.289-50.438-4.3242-4.0391-10.082-6.1875-15.992-5.9688-5.9141 0.22266-11.496 2.793-15.508 7.1406l-169.62 183.59c-3.9023 4.2266-6.0156 9.7969-5.9023 15.543 0.11328 5.75 2.4453 11.234 6.5117 15.301l58.594 58.594c2.5352 2.5391 6.0039 3.9219 9.5898 3.8242 3.5898-0.097657 6.9766-1.668 9.3711-4.3398l182.81-204.07c2.4688-2.6914 3.7031-6.2891 3.4062-9.9297s-2.1016-6.9883-4.9766-9.2422z"/>
  <path d="m848.25 606.63 58.594 58.594c4.0664 4.0664 9.5508 6.3984 15.301 6.5117 5.7461 0.11328 11.316-2 15.543-5.9023l183.47-169.62c4.3477-4.0117 6.918-9.5938 7.1406-15.508 0.21875-5.9102-1.9297-11.668-5.9688-15.992-12.609-13.5-31.383-34.359-50.438-58.289-2.2422-2.8203-5.5508-4.5938-9.1445-4.9023-3.5898-0.30469-7.1523 0.88281-9.8398 3.2852l-204.07 182.81c-2.6953 2.3867-4.2891 5.7773-4.4023 9.3789-0.10938 3.5977 1.2695 7.082 3.8164 9.6289z"/>
  <path d="m663.47 370.85c45.328 32.672 89.859 75.82 89.859 75.82s43.148 44.531 75.82 89.859c1.1602 1.6562 2.9805 2.7305 4.9883 2.9492 2.0117 0.21875 4.0195-0.4375 5.5117-1.8008l159.75-144.35c1.6133-1.4453 2.4727-3.5547 2.3242-5.7148-0.14453-2.1602-1.2812-4.1328-3.0742-5.3477-29.438-20.156-67.664-48.797-99.891-81.023-32.227-32.227-60.938-70.453-81.023-99.891-1.2148-1.793-3.1875-2.9297-5.3477-3.0742-2.1602-0.14844-4.2695 0.71094-5.7148 2.3242l-144.35 159.75c-1.3633 1.4922-2.0195 3.5-1.8008 5.5117 0.21875 2.0078 1.293 3.8281 2.9492 4.9883z"/>
  <path d="m918.21 281.79s13.688 14.602 25.781 21.094c2.5781 1.4297 5.7891 0.98047 7.875-1.1016l10.734-10.711c2.4688-2.457 3.8555-5.7969 3.8555-9.2812 0-3.4844-1.3867-6.8242-3.8555-9.2812l-17.531-17.555-17.555-17.531c-2.457-2.4688-5.7969-3.8555-9.2812-3.8555s-6.8242 1.3867-9.2812 3.8555l-10.711 10.734c-2.082 2.0859-2.5312 5.2969-1.1016 7.875 6.4688 12.07 21.07 25.758 21.07 25.758z"/>
 </g>
</svg>
