<?xml version="1.0" encoding="UTF-8" standalone="no"?>
<!DOCTYPE svg PUBLIC "-//W3C//DTD SVG 1.1//EN" "http://www.w3.org/Graphics/SVG/1.1/DTD/svg11.dtd">
<svg width="100%" height="100%" viewBox="0 0 512 512" version="1.1" xmlns="http://www.w3.org/2000/svg" xmlns:xlink="http://www.w3.org/1999/xlink" xml:space="preserve" xmlns:serif="http://www.serif.com/" style="fill-rule:evenodd;clip-rule:evenodd;stroke-linejoin:round;stroke-miterlimit:2;">
    <g transform="matrix(1,0,0,1,-69.1451,-69.1631)">
        <g transform="matrix(0.482243,0,0,0.482243,35.8003,35.8097)">
            <path d="M964.73,611.39C965.976,613.988 968.793,615.449 971.636,614.968C974.476,614.492 976.66,612.191 976.988,609.328C979.089,584.082 978.617,558.683 975.582,533.531C970.406,490.128 952.273,449.292 923.551,416.34C845.949,326.669 759.491,285.65 700.571,267.04C687.255,262.779 672.759,264.29 660.61,271.212C648.333,278.009 639.587,289.771 636.61,303.485C635.602,308.173 634.641,312.603 633.727,316.938C632.629,322.548 633.696,328.368 636.707,333.227C639.719,338.086 644.457,341.626 649.969,343.141C820.009,392.735 913.449,503.121 964.739,611.382L964.73,611.39Z" style="fill:white;fill-rule:nonzero;"/>
            <path d="M964.9,217.48C924.978,179.558 875.666,152.964 822.05,140.441C726.566,117.777 604.08,85.339 547.48,70.129C539.941,68.035 531.863,69.383 525.41,73.809C518.961,78.234 514.797,85.289 514.035,93.075C499.973,258.525 434.816,413.205 391.365,500.415C370.939,541.454 344.553,579.247 313.06,612.565C240.591,689.206 177.12,775.975 143.28,824.345C120.018,857.458 102.639,894.337 91.905,933.355C74.116,998.98 69.944,1064.61 69.147,1101.14C69.057,1109.04 72.151,1116.63 77.733,1122.21C83.311,1127.8 90.905,1130.9 98.795,1130.82L124.693,1130.82C132.88,1130.9 140.724,1127.55 146.33,1121.58C151.935,1115.61 154.791,1107.57 154.201,1099.41C139.881,918.61 275.091,781.43 357.311,715.5C400.456,681 436.264,638.227 462.641,589.69L529.696,465.96C539.821,447.292 548.579,427.913 555.899,407.976L573.618,359.765C577.825,348.327 581.102,336.574 583.415,324.609C585.22,315.234 587.352,304.734 589.813,293.507C595.786,266.812 612.829,243.913 636.688,230.53C660.629,217.069 689.075,214.108 715.274,222.35C780.102,242.834 875.184,287.834 960.074,385.94C994.898,425.92 1016.88,475.463 1023.14,528.11C1028.28,571.798 1028.58,629.57 1010.02,687.95C1005.06,703.528 1004.44,720.165 1008.24,736.067C1016.41,770.094 1022.03,804.68 1025.07,839.547C1026.21,853.094 1044.57,856.891 1051.36,845.055C1227.91,537.765 1070.18,318.275 964.902,217.465L964.9,217.48Z" style="fill:white;fill-rule:nonzero;"/>
        </g>
    </g>
</svg>
