<?xml version="1.0" encoding="UTF-8" standalone="no"?>
<!DOCTYPE svg PUBLIC "-//W3C//DTD SVG 1.1//EN" "http://www.w3.org/Graphics/SVG/1.1/DTD/svg11.dtd">
<svg width="100%" height="100%" viewBox="0 0 512 512" version="1.1" xmlns="http://www.w3.org/2000/svg" xmlns:xlink="http://www.w3.org/1999/xlink" xml:space="preserve" xmlns:serif="http://www.serif.com/" style="fill-rule:evenodd;clip-rule:evenodd;stroke-linejoin:round;stroke-miterlimit:2;">
    <g transform="matrix(1,0,0,1,-72.7562,-72.7443)">
        <g transform="matrix(0.485485,0,0,0.485485,37.4342,37.428)">
            <path d="M86.977,1113L89.883,1115.93C97.133,1123.16 106.957,1127.23 117.199,1127.23C127.441,1127.23 137.265,1123.16 144.515,1115.93L145.593,1114.85C150.433,1110 153.902,1103.95 155.648,1097.32C157.383,1090.69 160.855,1084.64 165.703,1079.79L281.253,964.17C289.984,955.443 301.819,950.545 314.159,950.545C326.499,950.545 338.335,955.443 347.065,964.17L371.674,988.779L372.026,1020.98C372.081,1026.63 374.346,1032.03 378.342,1036.02C382.334,1040.01 387.733,1042.28 393.377,1042.33L433.947,1042.78C439.748,1042.84 445.33,1040.56 449.431,1036.45C453.533,1032.35 455.806,1026.76 455.744,1020.96L455.322,980.388C455.259,974.744 452.994,969.349 449.002,965.357C445.009,961.365 439.615,959.099 433.971,959.037L400.971,958.685L321.096,878.88L241.408,798.958L241.056,765.958C240.994,760.314 238.728,754.919 234.736,750.927C230.744,746.935 225.349,744.67 219.705,744.607L179.135,744.185C173.334,744.123 167.748,746.396 163.643,750.498C159.537,754.599 157.256,760.181 157.315,765.982L157.76,806.552C157.815,812.196 160.08,817.595 164.076,821.587C168.069,825.583 173.467,827.848 179.111,827.903L211.314,828.255L235.923,852.864C244.65,861.594 249.548,873.43 249.548,885.77C249.548,898.11 244.65,909.946 235.923,918.676L120.193,1034.27C115.346,1039.11 109.295,1042.59 102.662,1044.32C96.033,1046.07 89.982,1049.54 85.131,1054.38L84.053,1055.45C76.819,1062.7 72.756,1072.53 72.756,1082.77C72.756,1093.01 76.819,1102.84 84.053,1110.09L86.977,1113Z" style="fill:white;fill-rule:nonzero;"/>
            <path d="M375.47,867.35C376.736,868.62 378.458,869.334 380.251,869.334C382.044,869.334 383.767,868.62 385.032,867.35L412.735,839.647C425.583,826.475 443.325,819.229 461.719,819.631C471.813,820.096 481.711,822.608 490.805,827.014C491.997,827.592 493.423,827.377 494.391,826.475C495.364,825.572 495.68,824.166 495.188,822.936L495.001,822.467C479.767,784.358 511.712,743.834 552.376,749.436L555.094,749.858C559.048,750.506 563.067,749.194 565.875,746.342L983.295,328.922C985.971,326.266 987.78,322.856 988.475,319.149C991.991,299.954 1010.9,233.696 1107.05,196.969C1110.39,195.711 1113.3,193.527 1115.46,190.68C1117.61,187.828 1118.91,184.426 1119.21,180.867L1127.34,82.594C1127.56,79.93 1126.59,77.305 1124.7,75.414C1122.81,73.524 1120.19,72.559 1117.52,72.774L1019.25,80.743C1015.69,81.036 1012.28,82.336 1009.43,84.489C1006.57,86.641 1004.38,89.559 1003.12,92.907C966.397,189.001 900.144,207.957 880.944,211.477C877.237,212.172 873.827,213.981 871.17,216.656L453.75,634.076C450.899,636.885 449.586,640.905 450.235,644.857C450.399,645.772 450.539,646.686 450.657,647.576C456.258,688.24 415.735,720.232 377.626,704.951L377.157,704.764C375.926,704.272 374.52,704.588 373.618,705.561C372.715,706.529 372.501,707.955 373.079,709.147C377.462,718.264 379.938,728.174 380.368,738.28C380.786,756.694 373.536,774.452 360.352,787.311L332.649,815.014C331.379,816.279 330.664,818.002 330.664,819.795C330.664,821.588 331.379,823.31 332.649,824.576L375.47,867.35Z" style="fill:white;fill-rule:nonzero;"/>
        </g>
    </g>
</svg>
