<?xml version="1.0" encoding="UTF-8" standalone="no"?>
<!DOCTYPE svg PUBLIC "-//W3C//DTD SVG 1.1//EN" "http://www.w3.org/Graphics/SVG/1.1/DTD/svg11.dtd">
<svg width="100%" height="100%" viewBox="0 0 493 512" version="1.1" xmlns="http://www.w3.org/2000/svg" xmlns:xlink="http://www.w3.org/1999/xlink" xml:space="preserve" xmlns:serif="http://www.serif.com/" style="fill-rule:evenodd;clip-rule:evenodd;stroke-linejoin:round;stroke-miterlimit:2;">
    <g transform="matrix(1,0,0,1,-85.0427,-64.3451)">
        <g transform="matrix(0.477967,0,0,0.477967,44.3951,33.5903)">
            <path d="M552.38,277.12C566.716,260.698 577.72,241.64 584.771,221.011C596.607,181.167 562.013,173.972 562.013,173.972C562.013,173.972 527.419,166.706 522.169,207.886C520.298,229.601 522.685,251.472 529.2,272.269C530.618,276.999 534.513,280.574 539.348,281.585C544.18,282.597 549.18,280.886 552.379,277.121L552.38,277.12Z" style="fill:white;fill-rule:nonzero;"/>
            <path d="M1113.7,125.6L1088.18,71.928C1086.67,68.748 1083.97,66.299 1080.66,65.115C1077.35,63.936 1073.7,64.115 1070.53,65.623L548.688,313.683C542.813,316.48 536.149,317.156 529.833,315.594C523.517,314.027 517.938,310.32 514.048,305.106L478.329,257.223C474.697,252.379 468.321,250.492 462.638,252.574C456.955,254.66 453.31,260.226 453.674,266.269C454.986,289.957 454.201,313.714 451.33,337.261C448.642,359.269 436.885,379.148 418.892,392.105L376.119,422.855C372.787,425.257 370.279,428.636 368.943,432.523C367.607,436.41 367.513,440.613 368.666,444.558C370.412,450.628 373.486,456.23 377.666,460.964L387.322,471.862C398.627,484.647 414.072,493.042 430.947,495.581C447.826,498.116 465.056,494.632 479.619,485.737L581.879,423.37C590.891,417.812 596.918,408.487 598.285,397.987C601.968,371.796 618.633,349.237 642.582,338.01L935.152,200.06C952.328,192.01 971.097,187.931 990.066,188.13L991.05,188.13C1003.85,188.361 1016.53,185.583 1028.06,180.021L1112.43,139.287C1115.37,135.314 1115.86,130.041 1113.7,125.599L1113.7,125.6Z" style="fill:white;fill-rule:nonzero;"/>
            <path d="M1054.4,211.78L1047.65,215.085C1042.27,217.682 1036.72,219.936 1031.06,221.835C1026.69,223.288 1022.89,226.061 1020.17,229.776C1017.46,233.487 1015.97,237.956 1015.92,242.553C1015.53,262.881 1009.76,282.741 999.204,300.115L995.876,305.6C993.993,308.646 994.372,312.572 996.806,315.201C999.235,317.83 1003.12,318.514 1006.31,316.873L1080.18,279.631C1085.55,276.912 1089.63,272.205 1091.58,266.51C1093.52,260.819 1093.15,254.592 1090.56,249.162L1076.27,219.49C1074.39,215.568 1071.03,212.556 1066.93,211.111C1062.83,209.666 1058.32,209.904 1054.4,211.779L1054.4,211.78Z" style="fill:white;fill-rule:nonzero;"/>
            <path d="M621.77,563.7C631.735,554.544 642.75,546.598 654.582,540.028L834.422,438.568C853.266,427.927 869.328,412.982 881.297,394.951C887.508,385.576 892.805,380.068 901.641,364.482C910.301,349.127 919.93,334.341 930.469,320.209L966.657,271.881C969.966,266.44 972.345,260.483 973.688,254.256C974.641,249.272 972.735,244.174 968.739,241.045C964.747,237.912 959.337,237.279 954.727,239.397L953.813,239.818L660.843,377.868C650.32,382.982 643.097,393.071 641.648,404.68C638.441,428.032 624.878,448.692 604.734,460.93L502.504,523.274C479.129,537.555 451.473,543.153 424.379,539.09C397.289,535.028 372.492,521.563 354.332,501.055C351.82,498.227 348.297,496.497 344.523,496.239C340.75,495.981 337.027,497.216 334.152,499.673C75.612,720.263 81.802,978.803 86.302,1033.01C86.822,1039.59 88.115,1046.08 90.146,1052.35C107.818,1106.26 137.537,1126.37 163.107,1133.07C185.962,1138.71 210.134,1134.63 229.88,1121.82C326.583,1060.69 337.5,955.228 337.5,955.228L346.664,829.818C349.582,788.701 363.641,749.154 387.328,715.418C389.879,711.812 393.844,709.465 398.234,708.961C402.621,708.453 407.015,709.84 410.32,712.769C432.89,733.042 454.687,735.316 470.156,732.972C473.523,732.386 476.137,729.707 476.637,726.328C477.137,722.945 475.414,719.625 472.359,718.089C459.57,711.828 449.828,700.702 445.312,687.198C443.043,680.241 443.258,672.71 445.922,665.893C448.586,659.077 453.531,653.393 459.914,649.815L460.078,649.815L485.39,635.542C490.409,632.726 496.324,631.957 501.898,633.398C507.472,634.839 512.273,638.378 515.296,643.277C523.964,656.754 530.515,671.48 534.726,686.941C537.429,698.539 536.816,710.66 532.956,721.925C529.097,733.187 522.151,743.14 512.905,750.644L498.843,762.222C484.07,774.57 465.113,780.765 445.898,779.519L445.172,779.519C432.844,778.511 425.461,793.066 434.086,801.925C436.93,804.847 440.07,807.464 443.461,809.73C465.727,824.589 495.258,822.668 516.445,806.308L552,778.886C581.484,756.128 595.406,717.948 585.492,681.972C585.117,680.628 584.718,679.292 584.297,677.964C577.472,657.925 577.761,636.148 585.117,616.3C593.172,596.206 605.707,578.218 621.773,563.706L621.77,563.7Z" style="fill:white;fill-rule:nonzero;"/>
        </g>
    </g>
</svg>
