<?xml version="1.0" encoding="UTF-8"?>
<svg width="1200pt" height="1200pt" version="1.1" viewBox="0 0 1200 1200" xmlns="http://www.w3.org/2000/svg">
 <g fill="#fff">
  <path d="m1091.5 75.586-615.14 615.14c-4.5 4.4844-6.9883 10.605-6.8906 16.961 0.097656 6.3555 2.7695 12.395 7.4062 16.742 4.6445 4.1406 10.711 6.3281 16.926 6.1055 6.2188-0.22266 12.113-2.8398 16.449-7.3008l456.84-456.87c2.5898-2.5742 6.5977-3.0586 9.7266-1.1758 3.1289 1.8828 4.5781 5.6523 3.5156 9.1445-15.59 51.742-21.078 106-16.172 159.82 1.6445 17.656 1.8242 35.422 0.53906 53.109-2.0391 25.406-6.8203 60.938-18.094 92.414-10.805 29.391-35.32 51.621-65.625 59.508-4.125 1.1016-8.5312 2.3438-13.172 3.7969-3.1484 0.96484-5.5625 3.5117-6.3555 6.7109-0.78906 3.1953 0.15234 6.5742 2.4883 8.8984l53.203 53.227c2.6875 2.6602 6.707 3.4453 10.195 1.9922 22.781-9.6484 46.98-15.523 71.648-17.391 4.8125-0.28516 9.4492-1.9219 13.371-4.7266 3.9219-2.8008 6.9727-6.6562 8.8008-11.117 15.422-37.805 49.336-141.19 25.125-272.81-6.2422-44.75-9.0547-89.914-8.4141-135.09 0.98047-50.41 21.434-98.488 57.07-134.16l29.062-29.039c4.4609-4.3359 7.0781-10.23 7.3008-16.449 0.22266-6.2148-1.9648-12.281-6.1055-16.926-4.3477-4.6367-10.387-7.3086-16.742-7.4062-6.3555-0.097656-12.477 2.3906-16.961 6.8906z"/>
  <path d="m109.48 1124 45.516-45.539c35.641-35.609 83.668-56.059 134.04-57.07 45.211-0.64844 90.406 2.1641 135.19 8.4141 131.62 24.211 235.03-9.7031 272.81-25.125 4.4609-1.8281 8.3164-4.8789 11.117-8.8008 2.8047-3.9219 4.4414-8.5586 4.7266-13.371 1.8789-24.668 7.7539-48.863 17.391-71.648 1.4531-3.4883 0.66797-7.5078-1.9922-10.195l-53.273-53.227c-2.3164-2.2656-5.6406-3.1758-8.7891-2.4023-3.1484 0.77344-5.6758 3.1172-6.6797 6.1992-1.4531 4.6875-2.6953 9.0469-3.8203 13.172-7.8867 30.305-30.117 54.82-59.508 65.625-31.477 11.273-67.008 16.055-92.414 18.094-17.688 1.2852-35.453 1.1055-53.109-0.53906-53.816-4.9062-108.08 0.58203-159.82 16.172-3.5 1.0938-7.293-0.35156-9.1797-3.4961-1.8867-3.1445-1.375-7.1719 1.2344-9.7461l49.898-49.852c4.4688-4.332 7.0859-10.227 7.3086-16.445 0.22266-6.2227-1.9688-12.289-6.1133-16.93-4.3477-4.6367-10.387-7.3086-16.742-7.4062-6.3555-0.097656-12.477 2.3906-16.961 6.8906l-224.72 224.72c-4.5 4.4844-6.9883 10.605-6.8906 16.961 0.097657 6.3555 2.7695 12.395 7.4062 16.742 4.6445 4.1406 10.711 6.3281 16.926 6.1055 6.2188-0.22266 12.113-2.8398 16.449-7.3008z"/>
  <path d="m861.96 749.25c8.25-5.3906 8.8359-17.484 1.2188-25.102l-53.508-53.508c-2.4844-2.6406-5.75-4.418-9.3203-5.0664-3.5664-0.65234-7.25-0.14062-10.508 1.457-45.453 23.816-82.551 60.938-106.34 106.41-1.5977 3.2578-2.1094 6.9414-1.457 10.508 0.64844 3.5703 2.4258 6.8359 5.0664 9.3203l53.508 53.438c7.6172 7.6172 19.711 7.0312 25.125-1.2422 12.418-19.242 26.594-37.289 42.352-53.906 16.605-15.738 34.637-29.898 53.859-42.305z"/>
  <path d="m382.36 804.68c0.63281 1.4844 1.418 2.8984 2.3438 4.2188 0.89453 1.332 1.9141 2.5703 3.0469 3.7031 1.1133 1.1289 2.3398 2.1406 3.6562 3.0234 1.3164 0.88672 2.7227 1.6367 4.1953 2.2266 1.4766 0.61328 3.0039 1.0859 4.5703 1.4062 1.543 0.30859 3.1133 0.47266 4.6875 0.49219 1.5742-0.015625 3.1445-0.17969 4.6875-0.49219 4.7383-0.93359 9.0859-3.2578 12.492-6.6797 1.1484-1.1211 2.168-2.3633 3.0469-3.7031 0.88281-1.3281 1.6289-2.7422 2.2266-4.2188 2.5273-5.9961 2.5273-12.754 0-18.75-0.59766-1.4766-1.3438-2.8906-2.2266-4.2188-1.793-2.668-4.082-4.957-6.75-6.75-2.6758-1.75-5.6562-2.9805-8.7891-3.6328-1.543-0.30469-3.1133-0.46094-4.6875-0.46875-1.5742 0.011718-3.1445 0.16797-4.6875 0.46875-1.5664 0.32031-3.0938 0.79297-4.5703 1.4062-2.9648 1.2188-5.6562 3.0117-7.9219 5.2734-1.1328 1.1328-2.1523 2.3711-3.0469 3.7031-0.92578 1.3203-1.7109 2.7344-2.3438 4.2188-2.5273 5.9961-2.5273 12.754 0 18.75z"/>
 </g>
</svg>
