<?xml version="1.0" encoding="UTF-8" standalone="no"?>
<!-- Created with Inkscape (http://www.inkscape.org/) -->

<svg
   width="100"
   height="100"
   viewBox="0 0 26.458333 26.458333"
   version="1.1"
   id="svg9283"
   inkscape:version="1.2.1 (9c6d41e410, 2022-07-14)"
   sodipodi:docname="0_Key_Dark.svg"
   xmlns:inkscape="http://www.inkscape.org/namespaces/inkscape"
   xmlns:sodipodi="http://sodipodi.sourceforge.net/DTD/sodipodi-0.dtd"
   xmlns="http://www.w3.org/2000/svg"
   xmlns:svg="http://www.w3.org/2000/svg">
  <sodipodi:namedview
     id="namedview9285"
     pagecolor="#ffffff"
     bordercolor="#000000"
     borderopacity="0.25"
     inkscape:showpageshadow="2"
     inkscape:pageopacity="0.0"
     inkscape:pagecheckerboard="true"
     inkscape:deskcolor="#d1d1d1"
     inkscape:document-units="mm"
     showgrid="false"
     inkscape:zoom="10.35098"
     inkscape:cx="61.588372"
     inkscape:cy="50.381704"
     inkscape:window-width="2560"
     inkscape:window-height="1351"
     inkscape:window-x="2391"
     inkscape:window-y="-9"
     inkscape:window-maximized="1"
     inkscape:current-layer="layer1" />
  <defs
     id="defs9280" />
  <g
     inkscape:label="Layer 1"
     inkscape:groupmode="layer"
     id="layer1">
    <g
       id="g9060"
       transform="matrix(0.35802892,0,0,0.35802736,-4.8512938,-4.8357822)">
      <g
         id="use9054">
        <path
           fill="#353535"
           stroke="none"
           d="m 84.95,77.8 q -1.25,-27.3 0,-54.65 0,-5.85 -5.85,-5.85 H 21.9 q -5.85,0 -5.85,5.85 1.25,27.35 0,54.65 0,5.85 5.85,5.85 h 57.2 q 5.85,0 5.85,-5.85 M 54.15,26.45 h 1.25 16.15 q 4.25,0 4.25,4.25 -1.15,19.8 0,39.55 0,4.2 -4.25,4.2 H 55.4 54.15 29.45 q -4.25,0 -4.25,-4.2 1.15,-19.75 0,-39.55 0,-4.25 4.25,-4.25 z"
           id="path9434" />
        <path
           fill="#595959"
           stroke="none"
           d="m 55.4,26.45 h -1.25 -24.7 q -4.25,0 -4.25,4.25 1.15,19.8 0,39.55 0,4.2 4.25,4.2 h 24.7 1.25 16.15 q 4.25,0 4.25,-4.2 -1.15,-19.75 0,-39.55 0,-4.25 -4.25,-4.25 H 55.4 m -9.45,13.1 q 1.8,-1.15 4.55,-1.15 2.8,0 4.55,1.15 1.8,1.2 2.8,3.05 1.05,1.85 1.45,4.15 0.4,2.25 0.4,4.45 0,2.2 -0.4,4.5 -0.4,2.25 -1.45,4.1 -1,1.9 -2.8,3.05 -1.75,1.2 -4.55,1.2 -2.75,0 -4.55,-1.2 -1.75,-1.15 -2.8,-3.05 -1.05,-1.85 -1.45,-4.1 -0.4,-2.3 -0.4,-4.5 0,-2.2 0.4,-4.45 0.4,-2.3 1.45,-4.15 1.05,-1.85 2.8,-3.05 m 4.55,3.7 q -1.45,0 -2.2,0.85 -0.8,0.85 -1.2,2.15 -0.35,1.25 -0.45,2.6 -0.1,1.4 -0.1,2.35 0,1 0.1,2.35 0.1,1.35 0.45,2.65 0.4,1.25 1.2,2.1 0.75,0.9 2.2,0.9 1.4,0 2.2,-0.9 0.8,-0.85 1.2,-2.1 0.4,-1.3 0.45,-2.65 0.1,-1.35 0.1,-2.35 0,-0.95 -0.1,-2.35 -0.05,-1.35 -0.45,-2.6 -0.4,-1.3 -1.2,-2.15 -0.8,-0.85 -2.2,-0.85 z"
           id="path9436" />
        <path
           fill="#cdcdcd"
           stroke="none"
           d="m 50.5,38.4 q -2.75,0 -4.55,1.15 -1.75,1.2 -2.8,3.05 -1.05,1.85 -1.45,4.15 -0.4,2.25 -0.4,4.45 0,2.2 0.4,4.5 0.4,2.25 1.45,4.1 1.05,1.9 2.8,3.05 1.8,1.2 4.55,1.2 2.8,0 4.55,-1.2 1.8,-1.15 2.8,-3.05 1.05,-1.85 1.45,-4.1 0.4,-2.3 0.4,-4.5 0,-2.2 -0.4,-4.45 -0.4,-2.3 -1.45,-4.15 -1,-1.85 -2.8,-3.05 Q 53.3,38.4 50.5,38.4 m -2.2,5.7 q 0.75,-0.85 2.2,-0.85 1.4,0 2.2,0.85 0.8,0.85 1.2,2.15 0.4,1.25 0.45,2.6 0.1,1.4 0.1,2.35 0,1 -0.1,2.35 -0.05,1.35 -0.45,2.65 -0.4,1.25 -1.2,2.1 -0.8,0.9 -2.2,0.9 -1.45,0 -2.2,-0.9 -0.8,-0.85 -1.2,-2.1 -0.35,-1.3 -0.45,-2.65 -0.1,-1.35 -0.1,-2.35 0,-0.95 0.1,-2.35 0.1,-1.35 0.45,-2.6 0.4,-1.3 1.2,-2.15 z"
           id="path9438" />
      </g>
      <path
         id="use9056"
         stroke="#1d1d1d"
         stroke-width="5"
         stroke-linejoin="round"
         stroke-linecap="round"
         fill="none"
         d="m 84.95,23.15 q -1.25,27.35 0,54.65 0,5.85 -5.85,5.85 H 21.9 q -5.85,0 -5.85,-5.85 1.25,-27.3 0,-54.65 0,-5.85 5.85,-5.85 h 57.2 q 5.85,0 5.85,5.85 z" />
      <path
         id="use9058"
         stroke="#696969"
         stroke-width="4"
         stroke-linejoin="round"
         stroke-linecap="round"
         fill="none"
         d="m 54.15,26.45 h -24.7 q -4.25,0 -4.25,4.25 1.15,19.8 0,39.55 0,4.2 4.25,4.2 h 24.7 m 1.25,0 h 16.15 q 4.25,0 4.25,-4.2 -1.15,-19.75 0,-39.55 0,-4.25 -4.25,-4.25 H 55.4" />
    </g>
  </g>
</svg>
