<?xml version="1.0" encoding="UTF-8" standalone="no"?>
<!-- Created with Inkscape (http://www.inkscape.org/) -->

<svg
   width="100"
   height="100"
   viewBox="0 0 26.458333 26.458333"
   version="1.1"
   id="svg255"
   inkscape:version="1.2.1 (9c6d41e410, 2022-07-14)"
   sodipodi:docname="8_Key_Dark.svg"
   xmlns:inkscape="http://www.inkscape.org/namespaces/inkscape"
   xmlns:sodipodi="http://sodipodi.sourceforge.net/DTD/sodipodi-0.dtd"
   xmlns="http://www.w3.org/2000/svg"
   xmlns:svg="http://www.w3.org/2000/svg">
  <sodipodi:namedview
     id="namedview257"
     pagecolor="#ffffff"
     bordercolor="#000000"
     borderopacity="0.25"
     inkscape:showpageshadow="2"
     inkscape:pageopacity="0.0"
     inkscape:pagecheckerboard="true"
     inkscape:deskcolor="#d1d1d1"
     inkscape:document-units="mm"
     showgrid="false"
     inkscape:zoom="10.35098"
     inkscape:cx="79.847513"
     inkscape:cy="48.35291"
     inkscape:window-width="2560"
     inkscape:window-height="1351"
     inkscape:window-x="2391"
     inkscape:window-y="-9"
     inkscape:window-maximized="1"
     inkscape:current-layer="layer1" />
  <defs
     id="defs252" />
  <g
     inkscape:label="Layer 1"
     inkscape:groupmode="layer"
     id="layer1">
    <g
       id="g13246"
       transform="matrix(0.35802887,0,0,0.35802887,-4.8512911,-4.8358064)">
      <g
         id="use13240">
        <path
           fill="#353535"
           stroke="none"
           d="m 84.95,77.8 q -1.25,-27.3 0,-54.65 0,-5.85 -5.85,-5.85 H 21.9 q -5.85,0 -5.85,5.85 1.25,27.35 0,54.65 0,5.85 5.85,5.85 h 57.2 q 5.85,0 5.85,-5.85 M 54.15,26.45 h 1.25 16.15 q 4.25,0 4.25,4.25 -1.15,19.8 0,39.55 0,4.2 -4.25,4.2 H 55.4 54.15 29.45 q -4.25,0 -4.25,-4.2 1.15,-19.75 0,-39.55 0,-4.25 4.25,-4.25 z"
           id="path424" />
        <path
           fill="#595959"
           stroke="none"
           d="m 55.4,26.45 h -1.25 -24.7 q -4.25,0 -4.25,4.25 1.15,19.8 0,39.55 0,4.2 4.25,4.2 h 24.7 1.25 16.15 q 4.25,0 4.25,-4.2 -1.15,-19.75 0,-39.55 0,-4.25 -4.25,-4.25 H 55.4 M 47.3,38.8 q 1.5,-0.4 3.2,-0.4 1.7,0 3.2,0.4 1.5,0.45 2.65,1.3 1.1,0.85 1.8,2.1 0.65,1.3 0.65,3 0,2.05 -1.1,3.5 -1.1,1.4 -3.1,2 v 0.1 q 2.25,0.6 3.45,2.15 1.15,1.55 1.15,3.85 0,1.8 -0.7,3.15 -0.7,1.4 -1.95,2.25 -1.15,0.9 -2.75,1.35 -1.6,0.5 -3.3,0.5 -1.7,0 -3.3,-0.5 -1.55,-0.45 -2.75,-1.35 -1.2,-0.85 -1.95,-2.25 -0.7,-1.35 -0.7,-3.15 0,-2.3 1.2,-3.85 1.15,-1.55 3.4,-2.15 v -0.1 q -2,-0.6 -3.1,-2 -1.1,-1.45 -1.1,-3.5 0,-1.7 0.65,-3 0.65,-1.25 1.8,-2.1 1.15,-0.85 2.65,-1.3 m 5.75,19.5 Q 54,57.35 54,56.1 54,54.75 53.05,53.8 52.1,52.9 50.5,52.9 q -1.55,0 -2.5,0.9 -0.95,0.95 -0.95,2.3 0,1.25 0.95,2.2 0.95,0.9 2.5,0.9 1.6,0 2.55,-0.9 M 48.3,47.9 q 0.85,0.8 2.2,0.8 1.35,0 2.2,-0.8 0.85,-0.8 0.85,-1.95 0,-1.1 -0.85,-1.9 -0.85,-0.8 -2.2,-0.8 -1.35,0 -2.2,0.8 -0.85,0.8 -0.85,1.9 0,1.15 0.85,1.95 z"
           id="path426" />
        <path
           fill="#cdcdcd"
           stroke="none"
           d="m 50.5,38.4 q -1.7,0 -3.2,0.4 -1.5,0.45 -2.65,1.3 -1.15,0.85 -1.8,2.1 -0.65,1.3 -0.65,3 0,2.05 1.1,3.5 1.1,1.4 3.1,2 v 0.1 q -2.25,0.6 -3.4,2.15 -1.2,1.55 -1.2,3.85 0,1.8 0.7,3.15 0.75,1.4 1.95,2.25 1.2,0.9 2.75,1.35 1.6,0.5 3.3,0.5 1.7,0 3.3,-0.5 1.6,-0.45 2.75,-1.35 1.25,-0.85 1.95,-2.25 0.7,-1.35 0.7,-3.15 0,-2.3 -1.15,-3.85 -1.2,-1.55 -3.45,-2.15 v -0.1 q 2,-0.6 3.1,-2 1.1,-1.45 1.1,-3.5 0,-1.7 -0.65,-3 -0.7,-1.25 -1.8,-2.1 -1.15,-0.85 -2.65,-1.3 -1.5,-0.4 -3.2,-0.4 m 0,10.3 q -1.35,0 -2.2,-0.8 -0.85,-0.8 -0.85,-1.95 0,-1.1 0.85,-1.9 0.85,-0.8 2.2,-0.8 1.35,0 2.2,0.8 0.85,0.8 0.85,1.9 0,1.15 -0.85,1.95 -0.85,0.8 -2.2,0.8 m 3.5,7.4 q 0,1.25 -0.95,2.2 -0.95,0.9 -2.55,0.9 -1.55,0 -2.5,-0.9 -0.95,-0.95 -0.95,-2.2 0,-1.35 0.95,-2.3 0.95,-0.9 2.5,-0.9 1.6,0 2.55,0.9 0.95,0.95 0.95,2.3 z"
           id="path428" />
      </g>
      <path
         id="use13242"
         stroke="#1d1d1d"
         stroke-width="5"
         stroke-linejoin="round"
         stroke-linecap="round"
         fill="none"
         d="m 84.95,23.15 q -1.25,27.35 0,54.65 0,5.85 -5.85,5.85 H 21.9 q -5.85,0 -5.85,-5.85 1.25,-27.3 0,-54.65 0,-5.85 5.85,-5.85 h 57.2 q 5.85,0 5.85,5.85 z" />
      <path
         id="use13244"
         stroke="#696969"
         stroke-width="4"
         stroke-linejoin="round"
         stroke-linecap="round"
         fill="none"
         d="m 54.15,26.45 h -24.7 q -4.25,0 -4.25,4.25 1.15,19.8 0,39.55 0,4.2 4.25,4.2 h 24.7 m 1.25,0 h 16.15 q 4.25,0 4.25,-4.2 -1.15,-19.75 0,-39.55 0,-4.25 -4.25,-4.25 H 55.4" />
    </g>
  </g>
</svg>
