<?xml version="1.0" encoding="UTF-8" standalone="no"?>
<!-- Created with Inkscape (http://www.inkscape.org/) -->

<svg
   width="100"
   height="100"
   viewBox="0 0 26.458333 26.458333"
   version="1.1"
   id="svg5785"
   inkscape:version="1.2.1 (9c6d41e410, 2022-07-14)"
   sodipodi:docname="Ctrl_Key_Dark.svg"
   xmlns:inkscape="http://www.inkscape.org/namespaces/inkscape"
   xmlns:sodipodi="http://sodipodi.sourceforge.net/DTD/sodipodi-0.dtd"
   xmlns="http://www.w3.org/2000/svg"
   xmlns:svg="http://www.w3.org/2000/svg">
  <sodipodi:namedview
     id="namedview5787"
     pagecolor="#ffffff"
     bordercolor="#000000"
     borderopacity="0.25"
     inkscape:showpageshadow="2"
     inkscape:pageopacity="0.0"
     inkscape:pagecheckerboard="true"
     inkscape:deskcolor="#d1d1d1"
     inkscape:document-units="mm"
     showgrid="false"
     inkscape:zoom="7.319248"
     inkscape:cx="90.104885"
     inkscape:cy="43.242147"
     inkscape:window-width="2560"
     inkscape:window-height="1351"
     inkscape:window-x="2391"
     inkscape:window-y="-9"
     inkscape:window-maximized="1"
     inkscape:current-layer="layer1" />
  <defs
     id="defs5782" />
  <g
     inkscape:label="Layer 1"
     inkscape:groupmode="layer"
     id="layer1">
    <g
       id="g5251"
       transform="matrix(0.29430849,0,0,0.29430849,-1.6334121,-1.6144881)">
      <g
         id="use5245">
        <path
           fill="#353535"
           stroke="none"
           d="m 92.95,27.1 q 0,-5 -5,-5 h -74.9 q -5,0 -5,5 1.05,23.4 0,46.7 0,5 5,5 h 74.9 q 5,0 5,-5 -1.1,-23.3 0,-46.7 M 81.5,29.95 q 3.6,0 3.6,3.6 -0.95,16.95 0,33.8 0,3.6 -3.6,3.6 H 67.7 66.6 19.5 q -3.65,0 -3.65,-3.6 1,-16.85 0,-33.8 0,-3.6 3.65,-3.6 h 47.1 1.1 z"
           id="path5940" />
        <path
           fill="#595959"
           stroke="none"
           d="m 85.1,33.55 q 0,-3.6 -3.6,-3.6 H 67.7 66.6 19.5 q -3.65,0 -3.65,3.6 1,16.95 0,33.8 0,3.6 3.65,3.6 h 47.1 1.1 13.8 q 3.6,0 3.6,-3.6 -0.95,-16.85 0,-33.8 M 45.75,47 h 2.4 V 43.4 H 51.9 V 47 h 3.3 v 3 h -3.3 v 4.05 q 0,0.5 0.05,0.9 0.05,0.45 0.25,0.75 0.15,0.3 0.5,0.45 0.35,0.15 0.95,0.15 0.3,0 0.8,-0.05 0.5,-0.05 0.75,-0.3 v 3.15 q -0.65,0.2 -1.3,0.3 -0.65,0.05 -1.35,0.05 -0.95,0 -1.75,-0.2 -0.75,-0.2 -1.4,-0.65 -0.6,-0.4 -0.9,-1.1 -0.35,-0.7 -0.35,-1.7 V 50 h -2.4 v -3 m -0.9,-3.4 -3,2.45 q -0.6,-0.7 -1.4,-1.05 -0.85,-0.4 -1.95,-0.4 -1.1,0 -2.05,0.45 -0.95,0.4 -1.65,1.15 -0.65,0.8 -1.05,1.85 -0.4,1.05 -0.4,2.25 0,1.25 0.4,2.3 0.4,1 1.05,1.8 0.7,0.75 1.6,1.15 0.9,0.45 1.95,0.45 1.2,0 2.15,-0.5 0.9,-0.5 1.5,-1.4 l 3.25,2.45 q -1.1,1.55 -2.85,2.3 -1.7,0.75 -3.55,0.75 -2.05,0 -3.8,-0.65 Q 33.3,58.3 32,57.1 30.75,55.9 30,54.15 29.3,52.4 29.3,50.3 q 0,-2.1 0.7,-3.85 0.75,-1.75 2,-2.95 1.3,-1.2 3.05,-1.85 1.75,-0.65 3.8,-0.65 0.75,0 1.6,0.15 0.8,0.15 1.55,0.4 0.8,0.35 1.55,0.85 0.7,0.5 1.3,1.2 m 20.25,3.1 q 0.3,0.05 0.6,0.1 v 3.45 Q 65.25,50.1 64.9,50.05 64.5,50 64.1,50 q -1.1,0 -1.7,0.3 -0.65,0.3 -1,0.85 -0.35,0.5 -0.4,1.25 -0.1,0.75 -0.1,1.65 v 5.1 H 57.15 V 47 h 3.75 v 1.95 h 0.05 q 0.6,-1.15 1.4,-1.7 0.8,-0.55 2.1,-0.55 0.3,0 0.65,0 m 2.3,-6.45 h 3.75 v 18.9 H 67.4 Z"
           id="path5942" />
        <path
           fill="#cdcdcd"
           stroke="none"
           d="M 71.15,40.25 H 67.4 v 18.9 h 3.75 V 40.25 M 65.7,46.8 q -0.3,-0.05 -0.6,-0.1 -0.35,0 -0.65,0 -1.3,0 -2.1,0.55 -0.8,0.55 -1.4,1.7 H 60.9 V 47 h -3.75 v 12.15 h 3.75 v -5.1 q 0,-0.9 0.1,-1.65 0.05,-0.75 0.4,-1.25 0.35,-0.55 1,-0.85 0.6,-0.3 1.7,-0.3 0.4,0 0.8,0.05 0.35,0.05 0.8,0.2 V 46.8 m -23.85,-0.75 3,-2.45 Q 44.25,42.9 43.55,42.4 42.8,41.9 42,41.55 41.25,41.3 40.45,41.15 39.6,41 38.85,41 36.8,41 35.05,41.65 33.3,42.3 32,43.5 q -1.25,1.2 -2,2.95 -0.7,1.75 -0.7,3.85 0,2.1 0.7,3.85 0.75,1.75 2,2.95 1.3,1.2 3.05,1.85 1.75,0.65 3.8,0.65 1.85,0 3.55,-0.75 1.75,-0.75 2.85,-2.3 L 42,54.1 Q 41.4,55 40.5,55.5 39.55,56 38.35,56 37.3,56 36.4,55.55 q -0.9,-0.4 -1.6,-1.15 -0.65,-0.8 -1.05,-1.8 -0.4,-1.05 -0.4,-2.3 0,-1.2 0.4,-2.25 0.4,-1.05 1.05,-1.85 0.7,-0.75 1.65,-1.15 0.95,-0.45 2.05,-0.45 1.1,0 1.95,0.4 0.8,0.35 1.4,1.05 m 6.3,0.95 h -2.4 v 3 h 2.4 v 5.8 q 0,1 0.35,1.7 0.3,0.7 0.9,1.1 0.65,0.45 1.4,0.65 0.8,0.2 1.75,0.2 0.7,0 1.35,-0.05 0.65,-0.1 1.3,-0.3 v -3.15 q -0.25,0.25 -0.75,0.3 -0.5,0.05 -0.8,0.05 -0.6,0 -0.95,-0.15 Q 52.35,56 52.2,55.7 52,55.4 51.95,54.95 51.9,54.55 51.9,54.05 V 50 h 3.3 v -3 h -3.3 v -3.6 h -3.75 z"
           id="path5944" />
      </g>
      <path
         id="use5247"
         stroke="#696969"
         stroke-width="4"
         stroke-linejoin="round"
         stroke-linecap="round"
         fill="none"
         d="m 67.7,70.95 h 13.8 q 3.6,0 3.6,-3.6 -0.95,-16.85 0,-33.8 0,-3.6 -3.6,-3.6 H 67.7 m -1.1,0 H 19.5 q -3.65,0 -3.65,3.6 1,16.95 0,33.8 0,3.6 3.65,3.6 h 47.1" />
      <path
         id="use5249"
         stroke="#1d1d1d"
         stroke-width="5"
         stroke-linejoin="round"
         stroke-linecap="round"
         fill="none"
         d="m 87.95,22.1 q 5,0 5,5 -1.1,23.4 0,46.7 0,5 -5,5 h -74.9 q -5,0 -5,-5 1.05,-23.3 0,-46.7 0,-5 5,-5 z" />
    </g>
  </g>
</svg>
