<?xml version="1.0" encoding="UTF-8" standalone="no"?>
<!-- Created with Inkscape (http://www.inkscape.org/) -->

<svg
   width="100"
   height="100"
   viewBox="0 0 26.458333 26.458333"
   version="1.1"
   id="svg25243"
   inkscape:version="1.2.1 (9c6d41e410, 2022-07-14)"
   sodipodi:docname="D_Key_Dark.svg"
   xmlns:inkscape="http://www.inkscape.org/namespaces/inkscape"
   xmlns:sodipodi="http://sodipodi.sourceforge.net/DTD/sodipodi-0.dtd"
   xmlns="http://www.w3.org/2000/svg"
   xmlns:svg="http://www.w3.org/2000/svg">
  <sodipodi:namedview
     id="namedview25245"
     pagecolor="#ffffff"
     bordercolor="#000000"
     borderopacity="0.25"
     inkscape:showpageshadow="2"
     inkscape:pageopacity="0.0"
     inkscape:pagecheckerboard="true"
     inkscape:deskcolor="#d1d1d1"
     inkscape:document-units="mm"
     showgrid="false"
     inkscape:zoom="10.35098"
     inkscape:cx="60.71889"
     inkscape:cy="48.932566"
     inkscape:window-width="2560"
     inkscape:window-height="1351"
     inkscape:window-x="2391"
     inkscape:window-y="-9"
     inkscape:window-maximized="1"
     inkscape:current-layer="layer1" />
  <defs
     id="defs25240" />
  <g
     inkscape:label="Layer 1"
     inkscape:groupmode="layer"
     id="layer1">
    <g
       id="g24797"
       transform="matrix(0.35802892,0,0,0.35802736,-4.8512938,-4.8357822)">
      <g
         id="use24791">
        <path
           fill="#353535"
           stroke="none"
           d="m 84.95,77.8 q -1.25,-27.3 0,-54.65 0,-5.85 -5.85,-5.85 H 21.9 q -5.85,0 -5.85,5.85 1.25,27.35 0,54.65 0,5.85 5.85,5.85 h 57.2 q 5.85,0 5.85,-5.85 M 54.15,26.45 h 1.25 16.15 q 4.25,0 4.25,4.25 -1.15,19.8 0,39.55 0,4.2 -4.25,4.2 H 55.4 54.15 29.45 q -4.25,0 -4.25,-4.2 1.15,-19.75 0,-39.55 0,-4.25 4.25,-4.25 z"
           id="path25398" />
        <path
           fill="#595959"
           stroke="none"
           d="m 55.4,26.45 h -1.25 -24.7 q -4.25,0 -4.25,4.25 1.15,19.8 0,39.55 0,4.2 4.25,4.2 h 24.7 1.25 16.15 q 4.25,0 4.25,-4.2 -1.15,-19.75 0,-39.55 0,-4.25 -4.25,-4.25 H 55.4 M 47.9,38.8 q 3,0 5.65,0.7 2.7,0.65 4.65,2.15 2,1.5 3.2,3.85 1.15,2.4 1.15,5.8 0,3 -1.1,5.3 -1.15,2.3 -3.1,3.85 -1.9,1.55 -4.4,2.35 -2.55,0.8 -5.3,0.8 h -8.9 V 38.8 h 8.15 m 8.3,9.05 Q 55.5,46.5 54.4,45.6 53.2,44.75 51.65,44.3 50.1,43.85 48.4,43.85 h -3.2 v 14.7 H 48 q 1.9,0 3.5,-0.4 1.65,-0.35 2.85,-1.25 1.15,-0.9 1.85,-2.35 0.7,-1.45 0.7,-3.55 0,-1.8 -0.7,-3.15 z"
           id="path25400" />
        <path
           fill="#cdcdcd"
           stroke="none"
           d="M 53.55,39.5 Q 50.9,38.8 47.9,38.8 h -8.15 v 24.8 h 8.9 q 2.75,0 5.3,-0.8 2.5,-0.8 4.4,-2.35 1.95,-1.55 3.1,-3.85 1.1,-2.3 1.1,-5.3 0,-3.4 -1.15,-5.8 -1.2,-2.35 -3.2,-3.85 -1.95,-1.5 -4.65,-2.15 m 0.85,6.1 q 1.1,0.9 1.8,2.25 0.7,1.35 0.7,3.15 0,2.1 -0.7,3.55 -0.7,1.45 -1.85,2.35 -1.2,0.9 -2.85,1.25 -1.6,0.4 -3.5,0.4 h -2.8 v -14.7 h 3.2 q 1.7,0 3.25,0.45 1.55,0.45 2.75,1.3 z"
           id="path25402" />
      </g>
      <path
         id="use24793"
         stroke="#1d1d1d"
         stroke-width="5"
         stroke-linejoin="round"
         stroke-linecap="round"
         fill="none"
         d="m 84.95,23.15 q -1.25,27.35 0,54.65 0,5.85 -5.85,5.85 H 21.9 q -5.85,0 -5.85,-5.85 1.25,-27.3 0,-54.65 0,-5.85 5.85,-5.85 h 57.2 q 5.85,0 5.85,5.85 z" />
      <path
         id="use24795"
         stroke="#696969"
         stroke-width="4"
         stroke-linejoin="round"
         stroke-linecap="round"
         fill="none"
         d="m 54.15,26.45 h -24.7 q -4.25,0 -4.25,4.25 1.15,19.8 0,39.55 0,4.2 4.25,4.2 h 24.7 m 1.25,0 h 16.15 q 4.25,0 4.25,-4.2 -1.15,-19.75 0,-39.55 0,-4.25 -4.25,-4.25 H 55.4" />
    </g>
  </g>
</svg>
