<?xml version="1.0" encoding="UTF-8" standalone="no"?>
<!-- Created with Inkscape (http://www.inkscape.org/) -->

<svg
   width="100"
   height="100"
   viewBox="0 0 26.458333 26.458333"
   version="1.1"
   id="svg337"
   inkscape:version="1.2.1 (9c6d41e410, 2022-07-14)"
   sodipodi:docname="Enter_Key_Dark.svg"
   xmlns:inkscape="http://www.inkscape.org/namespaces/inkscape"
   xmlns:sodipodi="http://sodipodi.sourceforge.net/DTD/sodipodi-0.dtd"
   xmlns="http://www.w3.org/2000/svg"
   xmlns:svg="http://www.w3.org/2000/svg">
  <sodipodi:namedview
     id="namedview339"
     pagecolor="#ffffff"
     bordercolor="#000000"
     borderopacity="0.25"
     inkscape:showpageshadow="2"
     inkscape:pageopacity="0.0"
     inkscape:pagecheckerboard="true"
     inkscape:deskcolor="#d1d1d1"
     inkscape:document-units="mm"
     showgrid="false"
     inkscape:zoom="10.35098"
     inkscape:cx="88.542342"
     inkscape:cy="50.671532"
     inkscape:window-width="2560"
     inkscape:window-height="1351"
     inkscape:window-x="2391"
     inkscape:window-y="-9"
     inkscape:window-maximized="1"
     inkscape:current-layer="layer1" />
  <defs
     id="defs334" />
  <g
     inkscape:label="Layer 1"
     inkscape:groupmode="layer"
     id="layer1">
    <g
       id="g28"
       transform="matrix(0.29430849,0,0,0.29430849,-1.6334121,-1.2179515)">
      <g
         id="use24">
        <path
           fill="#353535"
           stroke="none"
           d="m 92.95,14.65 q 0,-5 -5,-5 H 56.8 q -3.75,0.1 -4.5,3.2 v 15.4 q -0.6,3.5 -4.6,3.65 H 13.05 q -5,0 -5,5 1.05,23.4 0,46.7 0,5 5,5 h 74.9 q 5,0 5,-5 Q 92.4,71.45 92.4,59.3 92.4,25.85 92.95,14.65 M 81.6,15.5 q 5.45,0.05 5.5,5.5 0,0.05 0,0.1 0,0.05 0,0.1 v 0.1 q -0.45,8.05 -0.45,38 -0.05,8.85 0.45,17.7 v 0.05 q 0,0.05 0,0.1 0,0.1 0,0.2 -0.1,5.35 -5.5,5.4 H 67.7 q -0.3,0 -0.55,-0.05 -0.25,0.05 -0.55,0.05 H 19.4 q -5.5,-0.05 -5.55,-5.5 v -0.1 q 0,-0.05 0,-0.1 v -0.1 q 1,-16.65 0,-33.4 V 43.5 q 0,-0.1 0,-0.15 v -0.1 q 0.05,-5.45 5.55,-5.5 h 38.45 v -16.6 q 0.1,-5.25 5.45,-5.65 h 0.05 q 0.1,0 0.15,0 z"
           id="path487" />
        <path
           fill="#696969"
           stroke="none"
           d="M 87.1,21 Q 87.05,15.55 81.6,15.5 H 63.5 q -0.05,0 -0.15,0 H 63.3 q -5.35,0.4 -5.45,5.65 v 16.6 H 19.4 q -5.5,0.05 -5.55,5.5 v 0.1 q 0,0.05 0,0.15 v 0.05 q 1,16.75 0,33.4 v 0.1 q 0,0.05 0,0.1 v 0.1 q 0.05,5.45 5.55,5.5 h 47.2 q 0.3,0 0.55,-0.05 0.25,0.05 0.55,0.05 h 13.9 q 5.4,-0.05 5.5,-5.4 0,-0.1 0,-0.2 0,-0.05 0,-0.1 V 77 q -0.5,-8.85 -0.45,-17.7 0,-29.95 0.45,-38 v -0.1 q 0,-0.05 0,-0.1 0,-0.05 0,-0.1 m -4,0 q 0,0.05 0,0.1 -0.45,8.1 -0.45,38.2 -0.05,8.95 0.45,17.85 0,0.05 0,0.1 -0.05,1.45 -1.55,1.5 H 67.7 q -0.3,0 -0.55,0.1 -0.25,-0.1 -0.55,-0.1 H 19.45 q -1.5,0 -1.6,-1.45 1,-17 0,-34.05 0.1,-1.5 1.6,-1.5 h 40.4 q 0.85,0 1.45,-0.55 0.55,-0.6 0.55,-1.45 v -18.5 q 0.05,-1.65 1.8,-1.75 h 17.9 q 1.5,0.05 1.55,1.5 z"
           id="path489" />
        <path
           fill="#595959"
           stroke="none"
           d="m 83.1,21.1 q 0,-0.05 0,-0.1 -0.05,-1.45 -1.55,-1.5 h -17.9 q -1.75,0.1 -1.8,1.75 v 18.5 q 0,0.85 -0.55,1.45 -0.6,0.55 -1.45,0.55 h -40.4 q -1.5,0 -1.6,1.5 1,17.05 0,34.05 0.1,1.45 1.6,1.45 H 66.6 q 0.3,0 0.55,0.1 0.25,-0.1 0.55,-0.1 h 13.85 q 1.5,-0.05 1.55,-1.5 0,-0.05 0,-0.1 -0.5,-8.9 -0.45,-17.85 0,-30.1 0.45,-38.2 M 40.35,60.15 q -0.1,0.5 -0.1,1 v 5.35 h -3.3 V 55.8 h 3.2 v 1.45 h 0.05 q 0.15,-0.3 0.4,-0.6 0.3,-0.3 0.7,-0.55 0.4,-0.25 0.9,-0.4 0.5,-0.15 1.1,-0.15 1.25,0 2.05,0.4 0.75,0.35 1.15,1.05 0.45,0.7 0.6,1.6 0.15,0.95 0.15,2 v 5.9 h -3.3 v -5.25 q 0,-0.45 0,-0.95 -0.05,-0.5 -0.2,-0.9 -0.2,-0.45 -0.55,-0.7 -0.3,-0.25 -0.95,-0.25 -0.65,0 -1.05,0.25 -0.4,0.2 -0.6,0.6 -0.2,0.4 -0.25,0.85 m -6.1,-9.25 v 3.2 H 27.1 V 57 h 6.75 v 3.15 H 27.1 v 3.2 h 7.55 v 3.15 h -11 V 50.9 h 10.6 m 43.4,4.65 q 0.25,0 0.55,0 0.3,0.05 0.55,0.1 v 3 q -0.35,-0.1 -0.7,-0.15 -0.35,-0.05 -0.7,-0.05 -0.95,0 -1.5,0.25 -0.55,0.25 -0.85,0.75 -0.3,0.45 -0.4,1.15 -0.1,0.65 -0.1,1.45 V 66.5 H 71.2 V 55.8 h 3.3 v 1.7 h 0.05 q 0.55,-0.95 1.25,-1.45 0.75,-0.5 1.85,-0.5 m -11.4,0.4 q 0.95,0.4 1.6,1.1 0.65,0.75 1,1.8 0.35,1.05 0.35,2.3 v 1.05 h -7.65 q 0.2,0.95 0.85,1.5 0.65,0.55 1.6,0.55 0.85,0 1.4,-0.35 0.55,-0.35 1,-0.95 l 2.3,1.7 q -0.8,1 -2,1.55 -1.2,0.55 -2.5,0.55 -1.25,0 -2.35,-0.4 -1.1,-0.4 -1.9,-1.1 -0.8,-0.75 -1.25,-1.8 -0.45,-1 -0.45,-2.3 0,-1.25 0.45,-2.3 0.45,-1.05 1.25,-1.8 0.8,-0.7 1.9,-1.1 1.1,-0.4 2.35,-0.4 1.1,0 2.05,0.4 M 50.7,52.65 H 54 v 3.15 h 2.9 v 2.65 H 54 V 62 q 0,0.45 0.05,0.8 0.05,0.4 0.2,0.65 0.15,0.25 0.45,0.4 Q 55,64 55.55,64 55.8,64 56.25,63.95 56.7,63.9 56.9,63.7 v 2.75 q -0.55,0.2 -1.15,0.25 -0.6,0.05 -1.15,0.05 -0.85,0 -1.55,-0.15 -0.7,-0.2 -1.25,-0.55 -0.5,-0.4 -0.8,-1 -0.3,-0.65 -0.3,-1.5 v -5.1 H 48.6 V 55.8 h 2.1 v -3.15 m 14.65,5.85 q -0.6,-0.6 -1.5,-0.6 -0.55,0 -0.95,0.2 -0.4,0.15 -0.7,0.45 -0.3,0.25 -0.5,0.65 -0.15,0.35 -0.15,0.75 h 4.35 q 0,-0.85 -0.55,-1.45 z"
           id="path491" />
        <path
           fill="#cdcdcd"
           stroke="none"
           d="m 54,52.65 h -3.3 v 3.15 h -2.1 v 2.65 h 2.1 v 5.1 q 0,0.85 0.3,1.5 0.3,0.6 0.8,1 0.55,0.35 1.25,0.55 0.7,0.15 1.55,0.15 0.55,0 1.15,-0.05 0.6,-0.05 1.15,-0.25 V 63.7 Q 56.7,63.9 56.25,63.95 55.8,64 55.55,64 55,64 54.7,63.85 54.4,63.7 54.25,63.45 54.1,63.2 54.05,62.8 54,62.45 54,62 v -3.55 h 2.9 V 55.8 H 54 v -3.15 m 13.85,4.4 q -0.65,-0.7 -1.6,-1.1 -0.95,-0.4 -2.05,-0.4 -1.25,0 -2.35,0.4 -1.1,0.4 -1.9,1.1 -0.8,0.75 -1.25,1.8 -0.45,1.05 -0.45,2.3 0,1.3 0.45,2.3 0.45,1.05 1.25,1.8 0.8,0.7 1.9,1.1 1.1,0.4 2.35,0.4 1.3,0 2.5,-0.55 1.2,-0.55 2,-1.55 l -2.3,-1.7 q -0.45,0.6 -1,0.95 -0.55,0.35 -1.4,0.35 -0.95,0 -1.6,-0.55 -0.65,-0.55 -0.85,-1.5 h 7.65 v -1.05 q 0,-1.25 -0.35,-2.3 -0.35,-1.05 -1,-1.8 m -4,0.85 q 0.9,0 1.5,0.6 0.55,0.6 0.55,1.45 h -4.35 q 0,-0.4 0.15,-0.75 0.2,-0.4 0.5,-0.65 0.3,-0.3 0.7,-0.45 0.4,-0.2 0.95,-0.2 M 78.2,55.55 q -0.3,0 -0.55,0 -1.1,0 -1.85,0.5 -0.7,0.5 -1.25,1.45 H 74.5 v -1.7 h -3.3 v 10.7 h 3.3 v -4.45 q 0,-0.8 0.1,-1.45 0.1,-0.7 0.4,-1.15 0.3,-0.5 0.85,-0.75 0.55,-0.25 1.5,-0.25 0.35,0 0.7,0.05 0.35,0.05 0.7,0.15 v -3 Q 78.5,55.6 78.2,55.55 M 34.25,54.1 v -3.2 h -10.6 v 15.6 h 11 V 63.35 H 27.1 v -3.2 h 6.75 V 57 H 27.1 v -2.9 h 7.15 m 6,7.05 q 0,-0.5 0.1,-1 0.05,-0.45 0.25,-0.85 0.2,-0.4 0.6,-0.6 0.4,-0.25 1.05,-0.25 0.65,0 0.95,0.25 0.35,0.25 0.55,0.7 0.15,0.4 0.2,0.9 0,0.5 0,0.95 v 5.25 h 3.3 v -5.9 q 0,-1.05 -0.15,-2 -0.15,-0.9 -0.6,-1.6 -0.4,-0.7 -1.15,-1.05 -0.8,-0.4 -2.05,-0.4 -0.6,0 -1.1,0.15 -0.5,0.15 -0.9,0.4 -0.4,0.25 -0.7,0.55 -0.25,0.3 -0.4,0.6 H 40.15 V 55.8 h -3.2 v 10.7 h 3.3 z"
           id="path493" />
      </g>
      <path
         id="use26"
         stroke="#1d1d1d"
         stroke-width="5"
         stroke-linejoin="round"
         stroke-linecap="round"
         fill="none"
         d="m 87.95,9.65 q 5,0 5,5 -0.55,11.2 -0.55,44.65 0,12.15 0.55,24.3 0,5 -5,5 h -74.9 q -5,0 -5,-5 1.05,-23.3 0,-46.7 0,-5 5,-5 H 47.7 q 4,-0.15 4.6,-3.65 v -15.4 q 0.75,-3.1 4.5,-3.2 z" />
    </g>
  </g>
</svg>
