<?xml version="1.0" encoding="UTF-8" standalone="no"?>
<!-- Created with Inkscape (http://www.inkscape.org/) -->

<svg
   width="100"
   height="100"
   viewBox="0 0 26.458333 26.458333"
   version="1.1"
   id="svg363"
   inkscape:version="1.2.1 (9c6d41e410, 2022-07-14)"
   sodipodi:docname="Enter_Tall_Key_Dark.svg"
   xmlns:inkscape="http://www.inkscape.org/namespaces/inkscape"
   xmlns:sodipodi="http://sodipodi.sourceforge.net/DTD/sodipodi-0.dtd"
   xmlns="http://www.w3.org/2000/svg"
   xmlns:svg="http://www.w3.org/2000/svg">
  <sodipodi:namedview
     id="namedview365"
     pagecolor="#ffffff"
     bordercolor="#000000"
     borderopacity="0.25"
     inkscape:showpageshadow="2"
     inkscape:pageopacity="0.0"
     inkscape:pagecheckerboard="true"
     inkscape:deskcolor="#d1d1d1"
     inkscape:document-units="mm"
     showgrid="false"
     inkscape:zoom="10.35098"
     inkscape:cx="74.727225"
     inkscape:cy="49.802049"
     inkscape:window-width="2560"
     inkscape:window-height="1351"
     inkscape:window-x="2391"
     inkscape:window-y="-9"
     inkscape:window-maximized="1"
     inkscape:current-layer="layer1" />
  <defs
     id="defs360" />
  <g
     inkscape:label="Layer 1"
     inkscape:groupmode="layer"
     id="layer1">
    <g
       id="g28"
       transform="matrix(0.28557294,0,0,0.28557294,-1.1924433,-1.1851277)">
      <g
         id="use22">
        <path
           fill="#353535"
           stroke="none"
           d="m 74.4,11.5 q 0,-4.85 -4.1,-4.85 H 30.65 q -4.05,0 -4.05,4.85 0.4,11.05 0.45,54.95 0,11.5 -0.45,23 0,4.85 4.05,4.85 H 70.3 q 4.1,0 4.1,-4.85 -0.5,-11.5 -0.45,-23 0,-43.9 0.45,-54.95 M 53,14.2 h 0.9 11.15 q 2.95,0 2.95,3.55 -0.35,7.95 -0.35,48.7 0,8.4 0.35,16.75 0,3.5 -2.95,3.5 H 53.9 53 35.9 q -2.95,0 -2.95,-3.5 0.4,-8.35 0.4,-16.75 0,-40.75 -0.4,-48.7 0,-3.55 2.95,-3.55 z"
           id="path518" />
        <path
           fill="#595959"
           stroke="none"
           d="M 53.9,14.2 H 53 35.9 q -2.95,0 -2.95,3.55 0.4,7.95 0.4,48.7 0,8.4 -0.4,16.75 0,3.5 2.95,3.5 H 53 53.9 65.05 Q 68,86.7 68,83.2 67.65,74.85 67.65,66.45 67.65,25.7 68,17.75 68,14.2 65.05,14.2 H 53.9 m -10.3,33 v 1.6 H 40 v 1.45 h 3.4 v 1.6 H 40 v 1.55 h 3.8 V 55 h -5.5 v -7.8 h 5.3 m 7.2,0.85 h 1.65 v 1.6 H 53.9 V 51 h -1.45 v 1.75 q 0,0.25 0.05,0.4 0,0.2 0.1,0.3 0.05,0.15 0.25,0.25 0.15,0.05 0.4,0.05 0.15,0 0.35,-0.05 0.2,0 0.3,-0.1 v 1.35 q -0.25,0.1 -0.55,0.15 -0.3,0.05 -0.6,0.05 -0.4,0 -0.75,-0.1 -0.35,-0.1 -0.6,-0.3 Q 51.1,54.6 50.95,54.25 50.8,53.95 50.8,53.5 V 51 h -1.05 v -1.35 h 1.05 v -1.6 m 13.05,1.55 v 1.5 q -0.2,-0.05 -0.35,-0.1 -0.15,-0.05 -0.35,-0.05 -0.5,0 -0.75,0.15 -0.3,0.15 -0.45,0.35 -0.15,0.25 -0.15,0.6 -0.05,0.3 -0.05,0.7 V 55 H 60.1 v -5.35 h 1.65 V 50.5 Q 62,50 62.4,49.75 q 0.35,-0.25 0.9,-0.25 0.15,0 0.3,0.05 0.15,0 0.25,0.05 m -4.45,1.55 q 0.2,0.55 0.2,1.2 v 0.5 h -3.85 q 0.1,0.45 0.45,0.75 0.35,0.3 0.8,0.3 0.4,0 0.7,-0.2 0.3,-0.2 0.5,-0.45 l 1.15,0.85 q -0.4,0.5 -1,0.75 -0.6,0.3 -1.25,0.3 -0.65,0 -1.15,-0.2 Q 55.4,54.75 55,54.35 54.6,54 54.35,53.5 54.1,52.95 54.1,52.35 q 0,-0.65 0.25,-1.2 0.25,-0.5 0.65,-0.85 0.4,-0.4 0.95,-0.6 0.5,-0.2 1.15,-0.2 0.55,0 1.05,0.2 0.45,0.2 0.75,0.6 0.35,0.35 0.5,0.85 m -10.15,-0.9 q 0.25,0.35 0.3,0.8 0.1,0.45 0.1,1 V 55 H 48 v -2.6 q 0,-0.25 -0.05,-0.5 0,-0.25 -0.1,-0.45 -0.05,-0.2 -0.25,-0.35 -0.15,-0.15 -0.5,-0.15 -0.3,0 -0.5,0.15 -0.2,0.1 -0.3,0.3 -0.1,0.2 -0.15,0.45 0,0.2 0,0.5 V 55 H 44.5 v -5.35 h 1.55 v 0.75 h 0.05 q 0.05,-0.15 0.2,-0.35 0.15,-0.15 0.35,-0.25 0.2,-0.1 0.45,-0.2 0.25,-0.1 0.55,-0.1 0.65,0 1,0.2 0.4,0.2 0.6,0.55 m 7.7,0.45 q -0.3,0 -0.5,0.1 -0.2,0.1 -0.35,0.25 -0.15,0.1 -0.25,0.3 -0.05,0.15 -0.1,0.35 h 2.2 q 0,-0.4 -0.3,-0.7 -0.25,-0.3 -0.7,-0.3 z"
           id="path520" />
        <path
           fill="#cdcdcd"
           stroke="none"
           d="m 49.55,51.05 q -0.05,-0.45 -0.3,-0.8 -0.2,-0.35 -0.6,-0.55 -0.35,-0.2 -1,-0.2 -0.3,0 -0.55,0.1 -0.25,0.1 -0.45,0.2 -0.2,0.1 -0.35,0.25 -0.15,0.2 -0.2,0.35 H 46.05 V 49.65 H 44.5 V 55 h 1.65 v -2.65 q 0,-0.3 0,-0.5 0.05,-0.25 0.15,-0.45 0.1,-0.2 0.3,-0.3 0.2,-0.15 0.5,-0.15 0.35,0 0.5,0.15 0.2,0.15 0.25,0.35 0.1,0.2 0.1,0.45 Q 48,52.15 48,52.4 V 55 h 1.65 v -2.95 q 0,-0.55 -0.1,-1 m 10.05,1.3 q 0,-0.65 -0.2,-1.2 -0.15,-0.5 -0.5,-0.85 -0.3,-0.4 -0.75,-0.6 -0.5,-0.2 -1.05,-0.2 -0.65,0 -1.15,0.2 -0.55,0.2 -0.95,0.6 -0.4,0.35 -0.65,0.85 -0.25,0.55 -0.25,1.2 0,0.6 0.25,1.15 0.25,0.5 0.65,0.85 0.4,0.4 0.95,0.6 0.5,0.2 1.15,0.2 0.65,0 1.25,-0.3 0.6,-0.25 1,-0.75 L 58.2,53.25 q -0.2,0.25 -0.5,0.45 -0.3,0.2 -0.7,0.2 -0.45,0 -0.8,-0.3 -0.35,-0.3 -0.45,-0.75 h 3.85 v -0.5 M 56.45,50.8 q 0.2,-0.1 0.5,-0.1 0.45,0 0.7,0.3 0.3,0.3 0.3,0.7 h -2.2 q 0.05,-0.2 0.1,-0.35 0.1,-0.2 0.25,-0.3 0.15,-0.15 0.35,-0.25 m 7.4,0.3 V 49.6 Q 63.75,49.55 63.6,49.55 63.45,49.5 63.3,49.5 62.75,49.5 62.4,49.75 62,50 61.75,50.5 V 49.65 H 60.1 V 55 h 1.65 v -2.25 q 0,-0.4 0.05,-0.7 0,-0.35 0.15,-0.6 0.15,-0.2 0.45,-0.35 0.25,-0.15 0.75,-0.15 0.2,0 0.35,0.05 0.15,0.05 0.35,0.1 M 52.45,48.05 H 50.8 v 1.6 H 49.75 V 51 h 1.05 v 2.5 q 0,0.45 0.15,0.75 0.15,0.35 0.45,0.5 0.25,0.2 0.6,0.3 0.35,0.1 0.75,0.1 0.3,0 0.6,-0.05 0.3,-0.05 0.55,-0.15 V 53.6 q -0.1,0.1 -0.3,0.1 -0.2,0.05 -0.35,0.05 -0.25,0 -0.4,-0.05 -0.2,-0.1 -0.25,-0.25 -0.1,-0.1 -0.1,-0.3 Q 52.45,53 52.45,52.75 V 51 h 1.45 v -1.35 h -1.45 v -1.6 M 43.6,48.8 V 47.2 H 38.3 V 55 h 5.5 V 53.4 H 40 v -1.55 h 3.4 v -1.6 H 40 V 48.8 Z"
           id="path522" />
      </g>
      <path
         id="use24"
         stroke="#696969"
         stroke-width="4"
         stroke-linejoin="round"
         stroke-linecap="round"
         fill="none"
         d="M 53,14.2 H 35.9 q -2.95,0 -2.95,3.55 0.4,7.95 0.4,48.7 0,8.4 -0.4,16.75 0,3.5 2.95,3.5 H 53 m 0.9,0 H 65.05 Q 68,86.7 68,83.2 67.65,74.85 67.65,66.45 67.65,25.7 68,17.75 68,14.2 65.05,14.2 H 53.9" />
      <path
         id="use26"
         stroke="#1d1d1d"
         stroke-width="5"
         stroke-linejoin="round"
         stroke-linecap="round"
         fill="none"
         d="m 70.3,6.65 q 4.1,0 4.1,4.85 -0.45,11.05 -0.45,54.95 -0.05,11.5 0.45,23 0,4.85 -4.1,4.85 H 30.65 q -4.05,0 -4.05,-4.85 0.45,-11.5 0.45,-23 Q 27,22.55 26.6,11.5 q 0,-4.85 4.05,-4.85 z" />
    </g>
  </g>
</svg>
