<?xml version="1.0" encoding="UTF-8" standalone="no"?>
<!-- Created with Inkscape (http://www.inkscape.org/) -->

<svg
   width="100"
   height="100"
   viewBox="0 0 26.458333 26.458333"
   version="1.1"
   id="svg1165"
   inkscape:version="1.2.1 (9c6d41e410, 2022-07-14)"
   sodipodi:docname="F3_Key_Dark.svg"
   xmlns:inkscape="http://www.inkscape.org/namespaces/inkscape"
   xmlns:sodipodi="http://sodipodi.sourceforge.net/DTD/sodipodi-0.dtd"
   xmlns="http://www.w3.org/2000/svg"
   xmlns:svg="http://www.w3.org/2000/svg">
  <sodipodi:namedview
     id="namedview1167"
     pagecolor="#ffffff"
     bordercolor="#000000"
     borderopacity="0.25"
     inkscape:showpageshadow="2"
     inkscape:pageopacity="0.0"
     inkscape:pagecheckerboard="true"
     inkscape:deskcolor="#d1d1d1"
     inkscape:document-units="mm"
     showgrid="false"
     inkscape:zoom="10.35098"
     inkscape:cx="45.647852"
     inkscape:cy="52.217279"
     inkscape:window-width="2560"
     inkscape:window-height="1351"
     inkscape:window-x="2391"
     inkscape:window-y="-9"
     inkscape:window-maximized="1"
     inkscape:current-layer="layer1" />
  <defs
     id="defs1162" />
  <g
     inkscape:label="Layer 1"
     inkscape:groupmode="layer"
     id="layer1">
    <g
       id="g7280"
       transform="matrix(0.35802887,0,0,0.35802887,-4.8512912,-4.8358064)">
      <g
         id="use7274">
        <path
           fill="#353535"
           stroke="none"
           d="m 84.95,77.8 q -1.25,-27.3 0,-54.65 0,-5.85 -5.85,-5.85 H 21.9 q -5.85,0 -5.85,5.85 1.25,27.35 0,54.65 0,5.85 5.85,5.85 h 57.2 q 5.85,0 5.85,-5.85 M 54.15,26.45 h 1.25 16.15 q 4.25,0 4.25,4.25 -1.15,19.8 0,39.55 0,4.2 -4.25,4.2 H 55.4 54.15 29.45 q -4.25,0 -4.25,-4.2 1.15,-19.75 0,-39.55 0,-4.25 4.25,-4.25 z"
           id="path424"
           style="display:inline" />
        <path
           id="path426"
           style="display:inline;fill:#595959;fill-opacity:1"
           d="m 29.450047,26.449353 c -2.833331,0 -4.250694,1.417363 -4.250694,4.250694 0.766666,13.199986 0.766666,26.382836 0,39.54949 0,2.799997 1.417363,4.200175 4.250694,4.200175 h 24.700208 1.24995 16.149748 c 2.83333,0 4.250693,-1.400178 4.250693,-4.200175 -0.766666,-13.166654 -0.766666,-26.349504 0,-39.54949 0,-2.833331 -1.417363,-4.250694 -4.250693,-4.250694 h -16.149748 -1.24995 z" />
      </g>
      <path
         id="use7276"
         stroke="#1d1d1d"
         stroke-width="5"
         stroke-linejoin="round"
         stroke-linecap="round"
         fill="none"
         d="m 84.95,23.15 q -1.25,27.35 0,54.65 0,5.85 -5.85,5.85 H 21.9 q -5.85,0 -5.85,-5.85 1.25,-27.3 0,-54.65 0,-5.85 5.85,-5.85 h 57.2 q 5.85,0 5.85,5.85 z" />
      <path
         id="use7278"
         stroke="#696969"
         stroke-width="4"
         stroke-linejoin="round"
         stroke-linecap="round"
         fill="none"
         d="m 54.15,26.45 h -24.7 q -4.25,0 -4.25,4.25 1.15,19.8 0,39.55 0,4.2 4.25,4.2 h 24.7 m 1.25,0 h 16.15 q 4.25,0 4.25,-4.2 -1.15,-19.75 0,-39.55 0,-4.25 -4.25,-4.25 H 55.4" />
    </g>
    <path
       fill="#cdcdcd"
       stroke="none"
       d="M 9.3919229,10.595071 H 13.383945 V 8.7870245 H 7.4406658 V 17.666141 H 9.3919229 V 14.211163 H 13.079621 V 12.403117 H 9.3919229 Z"
       id="path26459"
       style="display:inline;stroke-width:0.358029" />
    <path
       fill="#cdcdcd"
       stroke="none"
       d="m 13.829188,10.774255 2.058666,0.429634 q 0.08951,-0.358028 0.37593,-0.590747 0.286424,-0.232719 0.73396,-0.232719 0.465437,0 0.769761,0.25062 0.322226,0.268522 0.322226,0.680255 0,0.304325 -0.12531,0.501241 -0.125311,0.196915 -0.322225,0.304324 -0.214818,0.107409 -0.465438,0.143212 -0.25062,0.0358 -0.50124,0.0358 h -0.626551 v 1.629031 h 0.447536 q 0.304325,0 0.626551,0.0179 0.304324,0.0179 0.554943,0.12531 0.250621,0.08951 0.411734,0.304325 0.161113,0.196916 0.161113,0.572846 0,0.501241 -0.304325,0.823467 -0.286422,0.322226 -0.912973,0.322226 -0.590747,0 -0.895072,-0.286424 -0.304324,-0.268521 -0.411733,-0.75186 l -1.969159,0.465437 q 0.268522,1.199397 1.127791,1.754342 0.85927,0.554945 2.040765,0.554945 0.662353,0 1.235198,-0.179015 0.590748,-0.161113 1.020383,-0.483339 0.429634,-0.340127 0.680255,-0.841368 0.268521,-0.50124 0.268521,-1.163594 0,-0.393831 -0.107408,-0.733959 -0.125311,-0.358029 -0.340128,-0.62655 -0.214817,-0.268522 -0.519142,-0.465438 -0.304324,-0.196916 -0.716057,-0.232719 v -0.0358 q 0.75186,-0.161113 1.145692,-0.680255 0.37593,-0.537044 0.37593,-1.271003 0,-0.644452 -0.25062,-1.109888 -0.232719,-0.4654382 -0.644452,-0.7697622 -0.411733,-0.304325 -0.966678,-0.447536 -0.537042,-0.143212 -1.12779,-0.143212 -0.554945,0 -1.074086,0.107409 -0.501241,0.12531 -0.912974,0.37593 -0.411733,0.25062 -0.716058,0.662353 -0.304324,0.4117342 -0.447536,0.9845792 z"
       id="path11235"
       style="stroke-width:0.358029" />
  </g>
</svg>
