<?xml version="1.0" encoding="UTF-8" standalone="no"?>
<!-- Created with Inkscape (http://www.inkscape.org/) -->

<svg
   width="100"
   height="100"
   viewBox="0 0 26.458333 26.458333"
   version="1.1"
   id="svg27796"
   inkscape:version="1.2.1 (9c6d41e410, 2022-07-14)"
   sodipodi:docname="G_Key_Dark.svg"
   xmlns:inkscape="http://www.inkscape.org/namespaces/inkscape"
   xmlns:sodipodi="http://sodipodi.sourceforge.net/DTD/sodipodi-0.dtd"
   xmlns="http://www.w3.org/2000/svg"
   xmlns:svg="http://www.w3.org/2000/svg">
  <sodipodi:namedview
     id="namedview27798"
     pagecolor="#ffffff"
     bordercolor="#000000"
     borderopacity="0.25"
     inkscape:showpageshadow="2"
     inkscape:pageopacity="0.0"
     inkscape:pagecheckerboard="true"
     inkscape:deskcolor="#d1d1d1"
     inkscape:document-units="mm"
     showgrid="false"
     inkscape:zoom="10.35098"
     inkscape:cx="59.752797"
     inkscape:cy="49.995267"
     inkscape:window-width="2560"
     inkscape:window-height="1351"
     inkscape:window-x="2391"
     inkscape:window-y="-9"
     inkscape:window-maximized="1"
     inkscape:current-layer="layer1" />
  <defs
     id="defs27793" />
  <g
     inkscape:label="Layer 1"
     inkscape:groupmode="layer"
     id="layer1">
    <g
       id="g27269"
       transform="matrix(0.35802887,0,0,0.35802887,-4.8512911,-4.8358064)">
      <g
         id="use27263">
        <path
           fill="#353535"
           stroke="none"
           d="m 84.95,77.8 q -1.25,-27.3 0,-54.65 0,-5.85 -5.85,-5.85 H 21.9 q -5.85,0 -5.85,5.85 1.25,27.35 0,54.65 0,5.85 5.85,5.85 h 57.2 q 5.85,0 5.85,-5.85 M 54.15,26.45 h 1.25 16.15 q 4.25,0 4.25,4.25 -1.15,19.8 0,39.55 0,4.2 -4.25,4.2 H 55.4 54.15 29.45 q -4.25,0 -4.25,-4.2 1.15,-19.75 0,-39.55 0,-4.25 4.25,-4.25 z"
           id="path27951" />
        <path
           fill="#595959"
           stroke="none"
           d="m 55.4,26.45 h -1.25 -24.7 q -4.25,0 -4.25,4.25 1.15,19.8 0,39.55 0,4.2 4.25,4.2 h 24.7 1.25 16.15 q 4.25,0 4.25,-4.2 -1.15,-19.75 0,-39.55 0,-4.25 -4.25,-4.25 H 55.4 M 41.8,41.7 q 1.8,-1.7 4.25,-2.6 2.45,-0.9 5.4,-0.9 2.95,0 5.45,0.7 2.5,0.7 4.4,2.45 l -3.85,4.2 q -1.15,-1.1 -2.55,-1.7 -1.4,-0.6 -3.45,-0.6 -1.8,0 -3.2,0.6 -1.4,0.6 -2.45,1.65 -1,1.05 -1.55,2.55 -0.55,1.45 -0.55,3.15 0,1.75 0.55,3.2 0.55,1.45 1.55,2.55 1.05,1.05 2.45,1.65 1.4,0.6 3.15,0.6 1.8,0 3.1,-0.4 1.3,-0.4 2.05,-0.85 v -4 H 52.1 V 48.9 h 9.7 v 12.95 q -2.4,1.25 -5.05,1.8 -2.6,0.6 -5.35,0.6 -2.9,0 -5.35,-0.9 Q 43.6,62.4 41.8,60.7 40.05,59 39.05,56.6 q -1,-2.4 -1,-5.4 0,-2.95 1,-5.35 1,-2.45 2.75,-4.15 z"
           id="path27953" />
        <path
           fill="#cdcdcd"
           stroke="none"
           d="m 46.05,39.1 q -2.45,0.9 -4.25,2.6 -1.75,1.7 -2.75,4.15 -1,2.4 -1,5.35 0,3 1,5.4 1,2.4 2.75,4.1 1.8,1.7 4.25,2.65 2.45,0.9 5.35,0.9 2.75,0 5.35,-0.6 2.65,-0.55 5.05,-1.8 V 48.9 h -9.7 v 5.05 h 4.45 v 4 q -0.75,0.45 -2.05,0.85 -1.3,0.4 -3.1,0.4 -1.75,0 -3.15,-0.6 -1.4,-0.6 -2.45,-1.65 -1,-1.1 -1.55,-2.55 -0.55,-1.45 -0.55,-3.2 0,-1.7 0.55,-3.15 0.55,-1.5 1.55,-2.55 1.05,-1.05 2.45,-1.65 1.4,-0.6 3.2,-0.6 2.05,0 3.45,0.6 1.4,0.6 2.55,1.7 l 3.85,-4.2 q -1.9,-1.75 -4.4,-2.45 -2.5,-0.7 -5.45,-0.7 -2.95,0 -5.4,0.9 z"
           id="path27955" />
      </g>
      <path
         id="use27265"
         stroke="#1d1d1d"
         stroke-width="5"
         stroke-linejoin="round"
         stroke-linecap="round"
         fill="none"
         d="m 84.95,23.15 q -1.25,27.35 0,54.65 0,5.85 -5.85,5.85 H 21.9 q -5.85,0 -5.85,-5.85 1.25,-27.3 0,-54.65 0,-5.85 5.85,-5.85 h 57.2 q 5.85,0 5.85,5.85 z" />
      <path
         id="use27267"
         stroke="#696969"
         stroke-width="4"
         stroke-linejoin="round"
         stroke-linecap="round"
         fill="none"
         d="m 54.15,26.45 h -24.7 q -4.25,0 -4.25,4.25 1.15,19.8 0,39.55 0,4.2 4.25,4.2 h 24.7 m 1.25,0 h 16.15 q 4.25,0 4.25,-4.2 -1.15,-19.75 0,-39.55 0,-4.25 -4.25,-4.25 H 55.4" />
    </g>
  </g>
</svg>
