<?xml version="1.0" encoding="UTF-8" standalone="no"?>
<!-- Created with Inkscape (http://www.inkscape.org/) -->

<svg
   width="100"
   height="100"
   viewBox="0 0 26.458333 26.458333"
   version="1.1"
   id="svg4913"
   inkscape:version="1.2.1 (9c6d41e410, 2022-07-14)"
   sodipodi:docname="Home_Key_Dark.svg"
   xmlns:inkscape="http://www.inkscape.org/namespaces/inkscape"
   xmlns:sodipodi="http://sodipodi.sourceforge.net/DTD/sodipodi-0.dtd"
   xmlns="http://www.w3.org/2000/svg"
   xmlns:svg="http://www.w3.org/2000/svg">
  <sodipodi:namedview
     id="namedview4915"
     pagecolor="#ffffff"
     bordercolor="#000000"
     borderopacity="0.25"
     inkscape:showpageshadow="2"
     inkscape:pageopacity="0.0"
     inkscape:pagecheckerboard="true"
     inkscape:deskcolor="#d1d1d1"
     inkscape:document-units="mm"
     showgrid="false"
     inkscape:zoom="10.35098"
     inkscape:cx="84.00171"
     inkscape:cy="51.154578"
     inkscape:window-width="2560"
     inkscape:window-height="1351"
     inkscape:window-x="2391"
     inkscape:window-y="-9"
     inkscape:window-maximized="1"
     inkscape:current-layer="layer1" />
  <defs
     id="defs4910" />
  <g
     inkscape:label="Layer 1"
     inkscape:groupmode="layer"
     id="layer1">
    <g
       id="g4742"
       transform="matrix(0.35802887,0,0,0.35802887,-4.8512911,-4.8358064)">
      <g
         id="use4736">
        <path
           fill="#353535"
           stroke="none"
           d="m 84.95,77.8 q -1.25,-27.3 0,-54.65 0,-5.85 -5.85,-5.85 H 21.9 q -5.85,0 -5.85,5.85 1.25,27.35 0,54.65 0,5.85 5.85,5.85 h 57.2 q 5.85,0 5.85,-5.85 M 54.15,26.45 h 1.25 16.15 q 4.25,0 4.25,4.25 -1.15,19.8 0,39.55 0,4.2 -4.25,4.2 H 55.4 54.15 29.45 q -4.25,0 -4.25,-4.2 1.15,-19.75 0,-39.55 0,-4.25 4.25,-4.25 z"
           id="path5068" />
        <path
           fill="#595959"
           stroke="none"
           d="m 55.4,26.45 h -1.25 -24.7 q -4.25,0 -4.25,4.25 1.15,19.8 0,39.55 0,4.2 4.25,4.2 h 24.7 1.25 16.15 q 4.25,0 4.25,-4.2 -1.15,-19.75 0,-39.55 0,-4.25 -4.25,-4.25 H 55.4 M 38.35,61.3 v -3.95 h 2.35 v 10.6 h -2.35 v -4.6 H 33.8 v 4.6 h -2.3 v -10.6 h 2.3 v 3.95 h 4.55 m 27.2,-0.55 q 0.75,-0.25 1.55,-0.25 0.8,0 1.45,0.25 0.6,0.25 1.05,0.75 0.45,0.5 0.7,1.25 0.25,0.7 0.25,1.55 V 65 H 65.3 q 0.15,0.65 0.6,1.05 0.45,0.4 1.1,0.4 0.55,0 0.95,-0.25 0.4,-0.25 0.65,-0.65 l 1.6,1.15 q -0.55,0.7 -1.35,1.05 -0.85,0.4 -1.75,0.4 -0.8,0 -1.55,-0.3 -0.75,-0.25 -1.3,-0.75 -0.55,-0.5 -0.85,-1.2 -0.35,-0.75 -0.35,-1.6 0,-0.85 0.35,-1.55 0.3,-0.75 0.85,-1.25 0.55,-0.5 1.3,-0.75 m -4.7,0 q 0.5,0.25 0.8,0.65 0.3,0.45 0.45,1 0.1,0.6 0.1,1.25 v 4.3 H 59.95 V 63.7 q 0,-0.5 -0.2,-0.9 -0.2,-0.35 -0.8,-0.35 -0.35,0 -0.65,0.15 -0.25,0.1 -0.4,0.35 -0.15,0.2 -0.25,0.5 -0.05,0.3 -0.05,0.65 v 3.85 H 55.35 V 64.1 q 0,-0.2 0,-0.5 0,-0.25 -0.1,-0.55 -0.1,-0.25 -0.3,-0.4 -0.2,-0.2 -0.6,-0.2 -0.45,0 -0.7,0.15 -0.3,0.15 -0.4,0.45 -0.15,0.25 -0.2,0.6 Q 53,63.95 53,64.3 v 3.65 h -2.25 v -7.3 h 2.15 v 1 h 0.05 q 0.1,-0.2 0.3,-0.4 0.2,-0.25 0.45,-0.4 0.25,-0.15 0.6,-0.25 0.35,-0.1 0.75,-0.1 0.8,0 1.35,0.3 0.6,0.3 0.9,1 0.4,-0.7 0.95,-1 0.55,-0.3 1.4,-0.3 0.7,0 1.2,0.25 M 43,61.5 q 0.55,-0.5 1.3,-0.75 0.75,-0.25 1.6,-0.25 0.8,0 1.55,0.25 0.75,0.25 1.3,0.75 0.55,0.5 0.85,1.25 0.3,0.7 0.3,1.55 0,0.85 -0.3,1.6 -0.3,0.7 -0.85,1.2 -0.55,0.5 -1.3,0.75 -0.75,0.3 -1.55,0.3 -0.85,0 -1.6,-0.3 -0.75,-0.25 -1.3,-0.75 -0.55,-0.5 -0.85,-1.2 -0.3,-0.75 -0.3,-1.6 0,-0.85 0.3,-1.55 Q 42.45,62 43,61.5 m 4.2,4.15 q 0.45,-0.5 0.45,-1.35 0,-0.8 -0.45,-1.35 -0.45,-0.5 -1.3,-0.5 -0.9,0 -1.35,0.5 -0.45,0.55 -0.45,1.35 0,0.85 0.45,1.35 0.45,0.5 1.35,0.5 0.85,0 1.3,-0.5 M 66.9,62.1 q -0.35,0 -0.65,0.1 -0.3,0.15 -0.5,0.35 -0.2,0.15 -0.3,0.4 -0.1,0.25 -0.15,0.55 h 3 q 0,-0.6 -0.4,-1 -0.4,-0.4 -1,-0.4 z"
           id="path5070" />
        <path
           fill="#cdcdcd"
           stroke="none"
           d="M 44.3,60.75 Q 43.55,61 43,61.5 q -0.55,0.5 -0.85,1.25 -0.3,0.7 -0.3,1.55 0,0.85 0.3,1.6 0.3,0.7 0.85,1.2 0.55,0.5 1.3,0.75 0.75,0.3 1.6,0.3 0.8,0 1.55,-0.3 0.75,-0.25 1.3,-0.75 0.55,-0.5 0.85,-1.2 0.3,-0.75 0.3,-1.6 0,-0.85 -0.3,-1.55 Q 49.3,62 48.75,61.5 48.2,61 47.45,60.75 46.7,60.5 45.9,60.5 q -0.85,0 -1.6,0.25 m 3.35,3.55 q 0,0.85 -0.45,1.35 -0.45,0.5 -1.3,0.5 -0.9,0 -1.35,-0.5 -0.45,-0.5 -0.45,-1.35 0,-0.8 0.45,-1.35 0.45,-0.5 1.35,-0.5 0.85,0 1.3,0.5 0.45,0.55 0.45,1.35 m 14,-2.9 q -0.3,-0.4 -0.8,-0.65 -0.5,-0.25 -1.2,-0.25 -0.85,0 -1.4,0.3 -0.55,0.3 -0.95,1 -0.3,-0.7 -0.9,-1 -0.55,-0.3 -1.35,-0.3 -0.4,0 -0.75,0.1 -0.35,0.1 -0.6,0.25 -0.25,0.15 -0.45,0.4 -0.2,0.2 -0.3,0.4 H 52.9 v -1 h -2.15 v 7.3 H 53 V 64.3 q 0,-0.35 0.05,-0.65 0.05,-0.35 0.2,-0.6 0.1,-0.3 0.4,-0.45 0.25,-0.15 0.7,-0.15 0.4,0 0.6,0.2 0.2,0.15 0.3,0.4 0.1,0.3 0.1,0.55 0,0.3 0,0.5 v 3.85 H 57.6 V 64.1 q 0,-0.35 0.05,-0.65 0.1,-0.3 0.25,-0.5 0.15,-0.25 0.4,-0.35 0.3,-0.15 0.65,-0.15 0.6,0 0.8,0.35 0.2,0.4 0.2,0.9 v 4.25 h 2.25 v -4.3 q 0,-0.65 -0.1,-1.25 -0.15,-0.55 -0.45,-1 m 5.45,-0.9 q -0.8,0 -1.55,0.25 -0.75,0.25 -1.3,0.75 -0.55,0.5 -0.85,1.25 -0.35,0.7 -0.35,1.55 0,0.85 0.35,1.6 0.3,0.7 0.85,1.2 0.55,0.5 1.3,0.75 0.75,0.3 1.55,0.3 0.9,0 1.75,-0.4 0.8,-0.35 1.35,-1.05 l -1.6,-1.15 q -0.25,0.4 -0.65,0.65 -0.4,0.25 -0.95,0.25 -0.65,0 -1.1,-0.4 -0.45,-0.4 -0.6,-1.05 h 5.25 v -0.7 q 0,-0.85 -0.25,-1.55 Q 70.05,62 69.6,61.5 69.15,61 68.55,60.75 67.9,60.5 67.1,60.5 m -0.85,1.7 q 0.3,-0.1 0.65,-0.1 0.6,0 1,0.4 0.4,0.4 0.4,1 h -3 q 0.05,-0.3 0.15,-0.55 0.1,-0.25 0.3,-0.4 0.2,-0.2 0.5,-0.35 M 38.35,57.35 V 61.3 H 33.8 v -3.95 h -2.3 v 10.6 h 2.3 v -4.6 h 4.55 v 4.6 h 2.35 v -10.6 z"
           id="path5072" />
      </g>
      <path
         id="use4738"
         stroke="#1d1d1d"
         stroke-width="5"
         stroke-linejoin="round"
         stroke-linecap="round"
         fill="none"
         d="m 84.95,23.15 q -1.25,27.35 0,54.65 0,5.85 -5.85,5.85 H 21.9 q -5.85,0 -5.85,-5.85 1.25,-27.3 0,-54.65 0,-5.85 5.85,-5.85 h 57.2 q 5.85,0 5.85,5.85 z" />
      <path
         id="use4740"
         stroke="#696969"
         stroke-width="4"
         stroke-linejoin="round"
         stroke-linecap="round"
         fill="none"
         d="m 54.15,26.45 h -24.7 q -4.25,0 -4.25,4.25 1.15,19.8 0,39.55 0,4.2 4.25,4.2 h 24.7 m 1.25,0 h 16.15 q 4.25,0 4.25,-4.2 -1.15,-19.75 0,-39.55 0,-4.25 -4.25,-4.25 H 55.4" />
    </g>
  </g>
</svg>
