<?xml version="1.0" encoding="UTF-8" standalone="no"?>
<!-- Created with Inkscape (http://www.inkscape.org/) -->

<svg
   width="100"
   height="100"
   viewBox="0 0 26.458333 26.458333"
   version="1.1"
   id="svg907"
   inkscape:version="1.2.1 (9c6d41e410, 2022-07-14)"
   sodipodi:docname="Mouse_Middle_Key_Dark.svg"
   xmlns:inkscape="http://www.inkscape.org/namespaces/inkscape"
   xmlns:sodipodi="http://sodipodi.sourceforge.net/DTD/sodipodi-0.dtd"
   xmlns="http://www.w3.org/2000/svg"
   xmlns:svg="http://www.w3.org/2000/svg">
  <sodipodi:namedview
     id="namedview909"
     pagecolor="#ffffff"
     bordercolor="#000000"
     borderopacity="0.25"
     inkscape:showpageshadow="2"
     inkscape:pageopacity="0.0"
     inkscape:pagecheckerboard="true"
     inkscape:deskcolor="#d1d1d1"
     inkscape:document-units="mm"
     showgrid="false"
     inkscape:zoom="7.319248"
     inkscape:cx="102.12798"
     inkscape:cy="65.102316"
     inkscape:window-width="2560"
     inkscape:window-height="1351"
     inkscape:window-x="2391"
     inkscape:window-y="-9"
     inkscape:window-maximized="1"
     inkscape:current-layer="layer1" />
  <defs
     id="defs904" />
  <g
     inkscape:label="Layer 1"
     inkscape:groupmode="layer"
     id="layer1">
    <g
       id="g28"
       transform="matrix(0.28712245,0,0,0.28712245,-1.1308947,-1.1341337)">
      <g
         id="use26">
        <path
           fill="#1d1d1d"
           stroke="none"
           d="m 83.6,48.25 q 0,-0.3 0,-0.55 -0.1,-1.6 -0.2,-2.95 -0.15,-4.1 -0.3,-6.7 -0.2,-2.5 -0.3,-3.6 -0.15,-4.15 -0.55,-8.5 -0.35,-4.4 -1.65,-11 V 14.9 Q 80.45,14.65 80.45,14.45 79.25,10.3 76.35,8.25 74.4,6.7 71.9,6 66.4,4.45 54.9,3.95 q -0.05,0 -0.1,0 -0.05,0 -0.1,0 h -9.35 q -0.1,0 -0.15,0 H 45.1 Q 33.65,4.45 28.25,6 25.5,6.7 23.7,8.25 L 23.85,8.2 q -3.05,2.05 -4.2,6.25 -0.05,0.2 -0.1,0.45 l -0.05,0.05 q -1.35,6.55 -1.7,11 -0.45,4.3 -0.6,8.45 -0.1,1.05 -0.25,3.65 -0.2,2.6 -0.3,6.7 L 16.7,44.7 q -0.1,1.45 -0.2,3.15 v 0.05 q -0.05,0.15 -0.05,0.35 0,0.05 0,0.1 Q 16,55.9 15,67.65 q -0.25,2.45 -0.1,4.75 0.7,11.8 10.85,18.1 0.2,0.15 0.45,0.35 10.45,5.15 22.95,5.25 0.4,0 0.85,0 0.45,0 0.9,0 h 0.05 q 12.4,-0.1 22.9,-5.25 0.25,-0.2 0.55,-0.35 10,-6.3 10.75,-18.1 0.1,-2.3 -0.1,-4.75 -1,-11.85 -1.45,-19.4 M 72.75,12.7 72.8,12.75 q 1.55,1.2 2.3,3.45 1.3,6.3 1.7,10.45 0.4,4.15 0.5,8.2 0,0.1 0.05,0.2 0.15,0.95 0.35,3.6 0.1,2.5 0.35,6.55 h 0.05 q -0.05,0.25 0,0.55 H 52.7 l 0.05,-7.55 q 0,-0.2 0,-0.4 1.45,-0.6 2.65,-1.7 2.25,-2.15 2.3,-5.15 l 0.15,-10.1 q 0,-3.15 -2.25,-5.4 -0.9,-0.85 -1.85,-1.35 -0.3,-0.2 -0.6,-0.3 -0.15,-0.05 -0.3,-0.1 0,-0.3 0,-0.5 V 9.6 h 1.7 q 0.05,0 0.1,0 10.55,0.4 15.55,1.8 1.45,0.35 2.55,1.3 M 45.35,9.6 h 1.85 v 3.6 q 0,0.2 0.1,0.5 l -1,0.4 -0.65,0.4 Q 45.3,14.7 45,14.95 V 15 q -0.3,0.15 -0.55,0.45 -0.85,0.85 -1.35,1.9 l -0.8,2.6 v 0.15 q -0.1,0.35 -0.05,0.75 l 0.1,10.1 q 0.05,3 2.25,5.15 1.2,1.1 2.75,1.7 -0.05,0.2 -0.05,0.4 l 0.05,7.55 h -25.4 q 0,-0.3 0.05,-0.55 0.2,-4.05 0.35,-6.65 0.15,-2.55 0.35,-3.5 0,-0.1 0,-0.2 0.15,-4.05 0.6,-8.2 V 26.6 q 0.35,-4.2 1.75,-10.4 0.6,-2.25 2.2,-3.45 0.05,-0.1 0.15,-0.1 1,-0.9 2.45,-1.2 L 29.9,11.4 Q 34.8,10 45.35,9.6 m 1.5,7.75 q 1.3,-1.3 3.15,-1.3 1.85,0 3.2,1.3 1.25,1.25 1.25,3.1 v 1.7 q 0,0.05 0,0.15 v 0.05 q 0,0.15 0,0.3 L 54.4,31 q 0,1.75 -1.3,3 Q 51.8,35.2 50,35.25 48.2,35.2 46.9,34 45.6,32.75 45.6,31 l -0.05,-8.35 q 0,-0.1 0.05,-0.2 l -0.05,-2 q 0,-1.85 1.3,-3.1 M 28.55,87 q -9.65,-6.2 -8.4,-18.75 0.95,-10.4 1.5,-17.5 h 56.8 q 0.5,7.15 1.5,17.5 Q 81.1,80.8 71.5,87 q -9.4,4.7 -20.6,4.8 -0.45,0 -0.9,0 -0.4,0 -0.85,0 -11.2,-0.1 -20.6,-4.8 z"
           id="path1052" />
        <path
           fill="#353535"
           stroke="none"
           d="M 20.15,68.25 Q 18.9,80.8 28.55,87 q 9.4,4.7 20.6,4.8 0.45,0 0.85,0 0.45,0 0.9,0 11.2,-0.1 20.6,-4.8 9.6,-6.2 8.45,-18.75 -1,-10.35 -1.5,-17.5 h -56.8 q -0.55,7.1 -1.5,17.5 m 5.3,-0.7 q 5.2,3.1 7.85,5.3 7.25,3.75 15.85,3.85 h 0.15 q 0.35,0 0.7,0 0.35,0 0.8,0 h 0.15 q 8.45,-0.05 15.65,-3.75 2.75,-2.2 8.1,-5.4 -1.45,5 -5.65,8.25 -0.25,0.15 -0.5,0.3 -0.05,0 -0.1,0.05 -8,4.15 -17.45,4.25 h -0.2 q -0.45,0 -0.8,0 -0.35,0 -0.7,0 H 49.1 Q 39.6,80.3 31.55,76.1 31.4,76.05 31.35,76 31.2,75.9 31.1,75.85 L 31.05,75.8 q -4.35,-3.25 -5.6,-8.25 z"
           id="path1054" />
        <path
           fill="#595959"
           stroke="none"
           d="m 33.3,72.85 q -2.65,-2.2 -7.85,-5.3 1.25,5 5.6,8.25 l 0.05,0.05 q 0.1,0.05 0.25,0.15 0.05,0.05 0.2,0.1 8.05,4.2 17.55,4.3 h 0.2 q 0.35,0 0.7,0 0.35,0 0.8,0 H 51 q 9.45,-0.1 17.45,-4.25 0.05,-0.05 0.1,-0.05 0.25,-0.15 0.5,-0.3 4.2,-3.25 5.65,-8.25 -5.35,3.2 -8.1,5.4 -7.2,3.7 -15.65,3.75 H 50.8 q -0.45,0 -0.8,0 -0.35,0 -0.7,0 H 49.15 Q 40.55,76.6 33.3,72.85 M 47.2,9.6 H 45.35 Q 34.8,10 29.9,11.4 l -0.05,0.05 q -1.45,0.3 -2.45,1.2 -0.1,0 -0.15,0.1 -1.6,1.2 -2.2,3.45 -1.4,6.2 -1.75,10.4 v 0.05 q -0.45,4.15 -0.6,8.2 0,0.1 0,0.2 -0.2,0.95 -0.35,3.5 -0.15,2.6 -0.35,6.65 -0.05,0.25 -0.05,0.55 h 25.4 L 47.3,38.2 q 0,-0.2 0.05,-0.4 -1.55,-0.6 -2.75,-1.7 -2.2,-2.15 -2.25,-5.15 l -0.1,-10.1 Q 42.2,20.45 42.3,20.1 v -0.15 l 0.8,-2.6 Q 43.6,16.3 44.45,15.45 44.7,15.15 45,15 v -0.05 q 0.3,-0.25 0.65,-0.45 l 0.65,-0.4 1,-0.4 Q 47.2,13.4 47.2,13.2 V 9.6 m -4.1,30.6 0.05,1.45 h -16.4 q 0,-1.95 0.15,-3.45 0.15,-1.55 0.35,-3.1 0.25,-2.9 0.45,-5.9 0.05,-1 0.15,-2 0.45,-4.9 1.65,-9.6 0.4,-1.5 1.9,-1.85 2.75,-0.7 5.7,-1 1.25,-0.15 2.5,-0.25 -1.7,2.85 -1.65,6.35 0.1,5.65 0.35,11.3 0.1,1.1 0.45,2.2 0.1,0.5 0.35,1.05 0.2,0.5 0.5,1 1.25,2.2 3.5,3.8 M 72.8,12.75 72.75,12.7 q -1.1,-0.95 -2.55,-1.3 -5,-1.4 -15.55,-1.8 -0.05,0 -0.1,0 h -1.7 v 3.6 q 0,0.2 0,0.5 0.15,0.05 0.3,0.1 0.3,0.1 0.6,0.3 0.95,0.5 1.85,1.35 2.25,2.25 2.25,5.4 l -0.15,10.1 q -0.05,3 -2.3,5.15 -1.2,1.1 -2.65,1.7 0,0.2 0,0.4 l -0.05,7.55 h 25.4 q -0.05,-0.3 0,-0.55 H 78.05 Q 77.8,41.15 77.7,38.65 77.5,36 77.35,35.05 77.3,34.95 77.3,34.85 77.2,30.8 76.8,26.65 76.4,22.5 75.1,16.2 74.35,13.95 72.8,12.75 m -9.65,2 q 2.95,0.3 5.7,1 1.45,0.35 1.9,1.85 1.2,4.7 1.65,9.6 0.05,1 0.15,2 0.15,3 0.45,5.9 0.15,1.55 0.35,3.1 0.15,1.5 0.15,3.45 H 57.1 V 40.2 q 2.25,-1.6 3.55,-3.8 0.25,-0.5 0.5,-1 0.2,-0.55 0.35,-1.05 0.3,-1.1 0.4,-2.2 0.25,-5.65 0.4,-11.3 0.05,-3.5 -1.65,-6.35 1.25,0.1 2.5,0.25 z"
           id="path1056" />
        <path
           fill="#ffffff"
           stroke="none"
           d="m 50,16.05 q -1.85,0 -3.15,1.3 -1.3,1.25 -1.3,3.1 l 0.05,2 q -0.05,0.1 -0.05,0.2 L 45.6,31 q 0,1.75 1.3,3 1.3,1.2 3.1,1.25 1.8,-0.05 3.1,-1.25 1.3,-1.25 1.3,-3 l 0.05,-8.35 q 0,-0.15 0,-0.3 V 22.3 q 0,-0.1 0,-0.15 v -1.7 q 0,-1.85 -1.25,-3.1 -1.35,-1.3 -3.2,-1.3 z"
           id="path1058" />
        <path
           fill="#696969"
           stroke="none"
           d="M 43.15,41.65 43.1,40.2 q -2.25,-1.6 -3.5,-3.8 -0.3,-0.5 -0.5,-1 -0.25,-0.55 -0.35,-1.05 -0.35,-1.1 -0.45,-2.2 -0.25,-5.65 -0.35,-11.3 -0.05,-3.5 1.65,-6.35 -1.25,0.1 -2.5,0.25 -2.95,0.3 -5.7,1 -1.5,0.35 -1.9,1.85 -1.2,4.7 -1.65,9.6 -0.1,1 -0.15,2 -0.2,3 -0.45,5.9 -0.2,1.55 -0.35,3.1 -0.15,1.5 -0.15,3.45 h 16.4 m 25.7,-25.9 q -2.75,-0.7 -5.7,-1 -1.25,-0.15 -2.5,-0.25 1.7,2.85 1.65,6.35 -0.15,5.65 -0.4,11.3 -0.1,1.1 -0.4,2.2 -0.15,0.5 -0.35,1.05 -0.25,0.5 -0.5,1 -1.3,2.2 -3.55,3.8 v 1.45 h 16.4 q 0,-1.95 -0.15,-3.45 -0.2,-1.55 -0.35,-3.1 -0.3,-2.9 -0.45,-5.9 -0.1,-1 -0.15,-2 -0.45,-4.9 -1.65,-9.6 -0.45,-1.5 -1.9,-1.85 z"
           id="path1060" />
      </g>
    </g>
  </g>
</svg>
