<?xml version="1.0" encoding="UTF-8" standalone="no"?>
<!-- Created with Inkscape (http://www.inkscape.org/) -->

<svg
   width="100"
   height="100"
   viewBox="0 0 26.458333 26.458333"
   version="1.1"
   id="svg3562"
   inkscape:version="1.2.1 (9c6d41e410, 2022-07-14)"
   sodipodi:docname="Num_Lock_Key_Dark.svg"
   xmlns:inkscape="http://www.inkscape.org/namespaces/inkscape"
   xmlns:sodipodi="http://sodipodi.sourceforge.net/DTD/sodipodi-0.dtd"
   xmlns="http://www.w3.org/2000/svg"
   xmlns:svg="http://www.w3.org/2000/svg">
  <sodipodi:namedview
     id="namedview3564"
     pagecolor="#ffffff"
     bordercolor="#000000"
     borderopacity="0.25"
     inkscape:showpageshadow="2"
     inkscape:pageopacity="0.0"
     inkscape:pagecheckerboard="true"
     inkscape:deskcolor="#d1d1d1"
     inkscape:document-units="mm"
     showgrid="false"
     inkscape:zoom="10.35098"
     inkscape:cx="81.48987"
     inkscape:cy="47.580037"
     inkscape:window-width="2560"
     inkscape:window-height="1351"
     inkscape:window-x="2391"
     inkscape:window-y="-9"
     inkscape:window-maximized="1"
     inkscape:current-layer="layer1" />
  <defs
     id="defs3559" />
  <g
     inkscape:label="Layer 1"
     inkscape:groupmode="layer"
     id="layer1">
    <g
       id="g3391"
       transform="matrix(0.35802887,0,0,0.35802887,-4.8512911,-4.8358064)">
      <g
         id="use3385">
        <path
           fill="#353535"
           stroke="none"
           d="m 84.95,77.8 q -1.25,-27.3 0,-54.65 0,-5.85 -5.85,-5.85 H 21.9 q -5.85,0 -5.85,5.85 1.25,27.35 0,54.65 0,5.85 5.85,5.85 h 57.2 q 5.85,0 5.85,-5.85 M 54.15,26.45 h 1.25 16.15 q 4.25,0 4.25,4.25 -1.15,19.8 0,39.55 0,4.2 -4.25,4.2 H 55.4 54.15 29.45 q -4.25,0 -4.25,-4.2 1.15,-19.75 0,-39.55 0,-4.25 4.25,-4.25 z"
           id="path3717" />
        <path
           fill="#595959"
           stroke="none"
           d="m 55.4,26.45 h -1.25 -24.7 q -4.25,0 -4.25,4.25 1.15,19.8 0,39.55 0,4.2 4.25,4.2 h 24.7 1.25 16.15 q 4.25,0 4.25,-4.2 -1.15,-19.75 0,-39.55 0,-4.25 -4.25,-4.25 H 55.4 M 45.4,48.3 Q 45.3,47.55 45.3,46.7 V 42 h 2.65 v 4.2 q 0,0.35 0,0.75 0.05,0.4 0.15,0.75 0.15,0.3 0.4,0.55 0.3,0.2 0.8,0.2 0.5,0 0.85,-0.2 0.3,-0.2 0.45,-0.5 0.2,-0.3 0.25,-0.7 0.05,-0.35 0.05,-0.8 V 42 h 2.65 v 8.55 H 51 V 49.4 h -0.05 q -0.15,0.25 -0.35,0.5 -0.2,0.25 -0.55,0.45 -0.3,0.15 -0.7,0.3 -0.4,0.1 -0.9,0.1 -1,0 -1.6,-0.3 -0.65,-0.3 -1,-0.85 Q 45.5,49.05 45.4,48.3 M 57.95,42 v 1.15 q 0.15,-0.25 0.35,-0.5 0.25,-0.25 0.55,-0.45 0.35,-0.2 0.75,-0.3 0.4,-0.15 0.85,-0.15 0.9,0 1.6,0.4 0.7,0.35 1.05,1.15 0.45,-0.8 1.1,-1.2 0.65,-0.35 1.65,-0.35 0.85,0 1.45,0.3 0.55,0.3 0.9,0.8 0.35,0.5 0.5,1.2 0.15,0.65 0.15,1.45 v 5.05 H 66.2 v -5 q 0,-0.6 -0.25,-1.05 -0.25,-0.4 -0.9,-0.4 -0.45,0 -0.75,0.15 -0.3,0.15 -0.5,0.4 -0.2,0.25 -0.3,0.6 -0.05,0.4 -0.05,0.75 v 4.55 H 60.8 V 46 q 0,-0.2 0,-0.55 -0.05,-0.35 -0.15,-0.65 -0.1,-0.3 -0.35,-0.5 -0.2,-0.2 -0.7,-0.2 -0.5,0 -0.8,0.2 -0.35,0.15 -0.5,0.45 -0.15,0.35 -0.2,0.7 -0.05,0.4 -0.05,0.85 v 4.25 H 55.4 V 42 h 2.55 m -23,-3.95 5.3,8.7 h 0.05 v -8.7 h 2.75 v 12.5 h -3.6 L 34,41.65 h -0.05 v 8.9 H 31.2 v -12.5 h 3.75 M 32,55.6 h 2.7 v 9.95 h 5.1 V 68.1 H 32 V 55.6 m 33.85,3.95 h 3.25 l -3.4,3.85 3.5,4.7 h -3.35 l -2.9,-4.35 V 68.1 H 60.3 V 54.8 h 2.65 v 8.1 l 2.9,-3.35 m -12.95,1 q 0.65,-0.6 1.5,-0.9 0.9,-0.35 1.9,-0.35 0.75,0 1.55,0.3 0.85,0.25 1.5,0.85 L 57.6,62.3 q -0.2,-0.3 -0.55,-0.45 -0.35,-0.2 -0.75,-0.2 -1.05,0 -1.6,0.6 -0.55,0.6 -0.55,1.55 0,1 0.55,1.6 0.55,0.6 1.6,0.6 0.4,0 0.75,-0.2 0.3,-0.2 0.55,-0.45 l 1.75,1.8 q -0.65,0.65 -1.5,0.9 -0.8,0.25 -1.55,0.25 -1,0 -1.9,-0.3 -0.85,-0.3 -1.5,-0.9 -0.65,-0.6 -1,-1.45 -0.4,-0.8 -0.4,-1.85 0,-1 0.4,-1.85 0.35,-0.8 1,-1.4 m -9.3,-0.9 q 0.9,-0.35 1.9,-0.35 0.95,0 1.85,0.35 0.85,0.3 1.5,0.9 0.65,0.6 1,1.4 0.4,0.85 0.4,1.85 0,1.05 -0.4,1.85 -0.35,0.85 -1,1.45 -0.65,0.6 -1.5,0.9 -0.9,0.3 -1.85,0.3 -1,0 -1.9,-0.3 -0.85,-0.3 -1.5,-0.9 -0.65,-0.6 -1,-1.45 -0.4,-0.8 -0.4,-1.85 0,-1 0.4,-1.85 0.35,-0.8 1,-1.4 0.65,-0.6 1.5,-0.9 m 3.45,5.75 q 0.55,-0.6 0.55,-1.6 0,-0.95 -0.55,-1.55 -0.55,-0.6 -1.55,-0.6 -1.05,0 -1.6,0.6 -0.55,0.6 -0.55,1.55 0,1 0.55,1.6 0.55,0.6 1.6,0.6 1,0 1.55,-0.6 z"
           id="path3719" />
        <path
           fill="#cdcdcd"
           stroke="none"
           d="m 45.5,59.3 q -1,0 -1.9,0.35 -0.85,0.3 -1.5,0.9 -0.65,0.6 -1,1.4 -0.4,0.85 -0.4,1.85 0,1.05 0.4,1.85 0.35,0.85 1,1.45 0.65,0.6 1.5,0.9 0.9,0.3 1.9,0.3 0.95,0 1.85,-0.3 0.85,-0.3 1.5,-0.9 0.65,-0.6 1,-1.45 0.4,-0.8 0.4,-1.85 0,-1 -0.4,-1.85 -0.35,-0.8 -1,-1.4 -0.65,-0.6 -1.5,-0.9 -0.9,-0.35 -1.85,-0.35 m 2.1,4.5 q 0,1 -0.55,1.6 -0.55,0.6 -1.55,0.6 -1.05,0 -1.6,-0.6 -0.55,-0.6 -0.55,-1.6 0,-0.95 0.55,-1.55 0.55,-0.6 1.6,-0.6 1,0 1.55,0.6 0.55,0.6 0.55,1.55 m 6.8,-4.15 q -0.85,0.3 -1.5,0.9 -0.65,0.6 -1,1.4 -0.4,0.85 -0.4,1.85 0,1.05 0.4,1.85 0.35,0.85 1,1.45 0.65,0.6 1.5,0.9 0.9,0.3 1.9,0.3 0.75,0 1.55,-0.25 0.85,-0.25 1.5,-0.9 L 57.6,65.35 Q 57.35,65.6 57.05,65.8 56.7,66 56.3,66 q -1.05,0 -1.6,-0.6 -0.55,-0.6 -0.55,-1.6 0,-0.95 0.55,-1.55 0.55,-0.6 1.6,-0.6 0.4,0 0.75,0.2 0.35,0.15 0.55,0.45 l 1.75,-1.85 q -0.65,-0.6 -1.5,-0.85 -0.8,-0.3 -1.55,-0.3 -1,0 -1.9,0.35 m 14.7,-0.1 h -3.25 l -2.9,3.35 V 54.8 H 60.3 v 13.3 h 2.65 v -4.35 l 2.9,4.35 h 3.35 l -3.5,-4.7 3.4,-3.85 M 34.7,55.6 H 32 v 12.5 h 7.8 V 65.55 H 34.7 V 55.6 m 5.55,-8.85 -5.3,-8.7 H 31.2 v 12.5 h 2.75 v -8.9 H 34 l 5.45,8.9 h 3.6 V 38.05 H 40.3 v 8.7 h -0.05 m 17.7,-3.6 V 42 H 55.4 v 8.55 h 2.65 V 46.3 q 0,-0.45 0.05,-0.85 0.05,-0.35 0.2,-0.7 0.15,-0.3 0.5,-0.45 0.3,-0.2 0.8,-0.2 0.5,0 0.7,0.2 0.25,0.2 0.35,0.5 0.1,0.3 0.15,0.65 0,0.35 0,0.55 v 4.55 h 2.65 V 46 q 0,-0.35 0.05,-0.75 0.1,-0.35 0.3,-0.6 0.2,-0.25 0.5,-0.4 0.3,-0.15 0.75,-0.15 0.65,0 0.9,0.4 0.25,0.45 0.25,1.05 v 5 h 2.65 V 45.5 q 0,-0.8 -0.15,-1.45 -0.15,-0.7 -0.5,-1.2 -0.35,-0.5 -0.9,-0.8 -0.6,-0.3 -1.45,-0.3 -1,0 -1.65,0.35 -0.65,0.4 -1.1,1.2 -0.35,-0.8 -1.05,-1.15 -0.7,-0.4 -1.6,-0.4 -0.45,0 -0.85,0.15 -0.4,0.1 -0.75,0.3 -0.3,0.2 -0.55,0.45 -0.2,0.25 -0.35,0.5 M 45.3,46.7 q 0,0.85 0.1,1.6 0.1,0.75 0.45,1.3 0.35,0.55 1,0.85 0.6,0.3 1.6,0.3 0.5,0 0.9,-0.1 0.4,-0.15 0.7,-0.3 0.35,-0.2 0.55,-0.45 0.2,-0.25 0.35,-0.5 H 51 v 1.15 h 2.55 V 42 H 50.9 v 4.25 q 0,0.45 -0.05,0.8 -0.05,0.4 -0.25,0.7 -0.15,0.3 -0.45,0.5 -0.35,0.2 -0.85,0.2 -0.5,0 -0.8,-0.2 Q 48.25,48 48.1,47.7 48,47.35 47.95,46.95 q 0,-0.4 0,-0.75 V 42 H 45.3 Z"
           id="path3721" />
      </g>
      <path
         id="use3387"
         stroke="#1d1d1d"
         stroke-width="5"
         stroke-linejoin="round"
         stroke-linecap="round"
         fill="none"
         d="m 84.95,23.15 q -1.25,27.35 0,54.65 0,5.85 -5.85,5.85 H 21.9 q -5.85,0 -5.85,-5.85 1.25,-27.3 0,-54.65 0,-5.85 5.85,-5.85 h 57.2 q 5.85,0 5.85,5.85 z" />
      <path
         id="use3389"
         stroke="#696969"
         stroke-width="4"
         stroke-linejoin="round"
         stroke-linecap="round"
         fill="none"
         d="m 54.15,26.45 h -24.7 q -4.25,0 -4.25,4.25 1.15,19.8 0,39.55 0,4.2 4.25,4.2 h 24.7 m 1.25,0 h 16.15 q 4.25,0 4.25,-4.2 -1.15,-19.75 0,-39.55 0,-4.25 -4.25,-4.25 H 55.4" />
    </g>
  </g>
</svg>
