<?xml version="1.0" encoding="UTF-8" standalone="no"?>
<!-- Created with Inkscape (http://www.inkscape.org/) -->

<svg
   width="100"
   height="100"
   viewBox="0 0 26.458333 26.458333"
   version="1.1"
   id="svg22022"
   inkscape:version="1.2.1 (9c6d41e410, 2022-07-14)"
   sodipodi:docname="P_Key_Dark.svg"
   xmlns:inkscape="http://www.inkscape.org/namespaces/inkscape"
   xmlns:sodipodi="http://sodipodi.sourceforge.net/DTD/sodipodi-0.dtd"
   xmlns="http://www.w3.org/2000/svg"
   xmlns:svg="http://www.w3.org/2000/svg">
  <sodipodi:namedview
     id="namedview22024"
     pagecolor="#ffffff"
     bordercolor="#000000"
     borderopacity="0.25"
     inkscape:showpageshadow="2"
     inkscape:pageopacity="0.0"
     inkscape:pagecheckerboard="true"
     inkscape:deskcolor="#d1d1d1"
     inkscape:document-units="mm"
     showgrid="false"
     inkscape:zoom="10.35098"
     inkscape:cx="75.210271"
     inkscape:cy="50.671532"
     inkscape:window-width="2560"
     inkscape:window-height="1351"
     inkscape:window-x="2391"
     inkscape:window-y="-9"
     inkscape:window-maximized="1"
     inkscape:current-layer="layer1" />
  <defs
     id="defs22019" />
  <g
     inkscape:label="Layer 1"
     inkscape:groupmode="layer"
     id="layer1">
    <g
       id="g21856"
       transform="matrix(0.35802887,0,0,0.35802887,-4.8512911,-4.8358064)">
      <g
         id="use21850">
        <path
           fill="#353535"
           stroke="none"
           d="m 84.95,77.8 q -1.25,-27.3 0,-54.65 0,-5.85 -5.85,-5.85 H 21.9 q -5.85,0 -5.85,5.85 1.25,27.35 0,54.65 0,5.85 5.85,5.85 h 57.2 q 5.85,0 5.85,-5.85 M 54.15,26.45 h 1.25 16.15 q 4.25,0 4.25,4.25 -1.15,19.8 0,39.55 0,4.2 -4.25,4.2 H 55.4 54.15 29.45 q -4.25,0 -4.25,-4.2 1.15,-19.75 0,-39.55 0,-4.25 4.25,-4.25 z"
           id="path22177" />
        <path
           fill="#595959"
           stroke="none"
           d="m 55.4,26.45 h -1.25 -24.7 q -4.25,0 -4.25,4.25 1.15,19.8 0,39.55 0,4.2 4.25,4.2 h 24.7 1.25 16.15 q 4.25,0 4.25,-4.2 -1.15,-19.75 0,-39.55 0,-4.25 -4.25,-4.25 H 55.4 m 2.4,13.9 q 1.3,0.9 2.05,2.35 0.75,1.45 0.75,3.65 0,2.15 -0.7,3.65 -0.7,1.45 -1.95,2.35 -1.2,0.85 -2.9,1.2 -1.65,0.4 -3.65,0.4 H 47.45 V 63.6 H 42 V 38.8 h 9.15 q 1.95,0 3.65,0.35 1.75,0.35 3,1.2 m -7.55,3.1 h -2.8 v 5.9 h 3.6 q 0.75,0 1.45,-0.15 0.65,-0.15 1.2,-0.5 0.55,-0.3 0.9,-0.9 0.3,-0.55 0.3,-1.45 0,-0.95 -0.45,-1.55 -0.4,-0.55 -1.1,-0.85 Q 52.7,43.6 51.85,43.5 51,43.45 50.25,43.45 Z"
           id="path22179" />
        <path
           fill="#cdcdcd"
           stroke="none"
           d="M 59.85,42.7 Q 59.1,41.25 57.8,40.35 56.55,39.5 54.8,39.15 53.1,38.8 51.15,38.8 H 42 v 24.8 h 5.45 v -9.65 h 3.95 q 2,0 3.65,-0.4 1.7,-0.35 2.9,-1.2 1.25,-0.9 1.95,-2.35 0.7,-1.5 0.7,-3.65 0,-2.2 -0.75,-3.65 m -12.4,0.75 h 2.8 q 0.75,0 1.6,0.05 0.85,0.1 1.5,0.45 0.7,0.3 1.1,0.85 0.45,0.6 0.45,1.55 0,0.9 -0.3,1.45 -0.35,0.6 -0.9,0.9 -0.55,0.35 -1.2,0.5 -0.7,0.15 -1.45,0.15 h -3.6 z"
           id="path22181" />
      </g>
      <path
         id="use21852"
         stroke="#1d1d1d"
         stroke-width="5"
         stroke-linejoin="round"
         stroke-linecap="round"
         fill="none"
         d="m 84.95,23.15 q -1.25,27.35 0,54.65 0,5.85 -5.85,5.85 H 21.9 q -5.85,0 -5.85,-5.85 1.25,-27.3 0,-54.65 0,-5.85 5.85,-5.85 h 57.2 q 5.85,0 5.85,5.85 z" />
      <path
         id="use21854"
         stroke="#696969"
         stroke-width="4"
         stroke-linejoin="round"
         stroke-linecap="round"
         fill="none"
         d="m 54.15,26.45 h -24.7 q -4.25,0 -4.25,4.25 1.15,19.8 0,39.55 0,4.2 4.25,4.2 h 24.7 m 1.25,0 h 16.15 q 4.25,0 4.25,-4.2 -1.15,-19.75 0,-39.55 0,-4.25 -4.25,-4.25 H 55.4" />
    </g>
  </g>
</svg>
