<?xml version="1.0" encoding="UTF-8" standalone="no"?>
<!-- Created with Inkscape (http://www.inkscape.org/) -->

<svg
   width="100"
   height="100"
   viewBox="0 0 26.458333 26.458333"
   version="1.1"
   id="svg12842"
   inkscape:version="1.2.1 (9c6d41e410, 2022-07-14)"
   sodipodi:docname="PS5_Dpad_Left.svg"
   xmlns:inkscape="http://www.inkscape.org/namespaces/inkscape"
   xmlns:sodipodi="http://sodipodi.sourceforge.net/DTD/sodipodi-0.dtd"
   xmlns="http://www.w3.org/2000/svg"
   xmlns:svg="http://www.w3.org/2000/svg">
  <sodipodi:namedview
     id="namedview12844"
     pagecolor="#ffffff"
     bordercolor="#000000"
     borderopacity="0.25"
     inkscape:showpageshadow="2"
     inkscape:pageopacity="0.0"
     inkscape:pagecheckerboard="true"
     inkscape:deskcolor="#d1d1d1"
     inkscape:document-units="mm"
     showgrid="false"
     inkscape:zoom="10.35098"
     inkscape:cx="64.583258"
     inkscape:cy="49.898658"
     inkscape:window-width="2560"
     inkscape:window-height="1351"
     inkscape:window-x="2391"
     inkscape:window-y="-9"
     inkscape:window-maximized="1"
     inkscape:current-layer="layer1" />
  <defs
     id="defs12839" />
  <g
     inkscape:label="Layer 1"
     inkscape:groupmode="layer"
     id="layer1">
    <g
       id="g6164"
       style="display:inline"
       transform="matrix(0.2826745,0,0,0.2826745,-0.90455841,-0.90455841)">
      <g
         id="use6154">
        <path
           fill="#96989d"
           stroke="none"
           d="m 33.35,88.15 q -0.3,5.4 4.95,6.45 5.4,1.15 11.75,1.2 6.25,-0.05 11.65,-1.2 5.25,-1.05 4.95,-6.45 L 64.85,72 q -0.55,-2.55 -6.3,-9.3 -0.9,-1.1 -1.65,-1.95 -1.4,-1.45 -2.55,-2.95 -0.85,-1.25 -2.1,-1.85 -1.6,-0.7 -3.2,-0.3 -1.65,0.35 -2.75,1.5 -0.75,0.75 -1.5,1.6 -0.95,1.15 -1.95,2.25 -0.65,0.8 -1.4,1.7 -5.75,6.75 -6.3,9.3 l -1.8,16.15 m 16.4,-26.3 h 0.5 q 0.4,0.1 1.8,1.95 1.5,1.85 3.2,3.75 1.75,1.85 3.8,4.85 L 61.1,89 q -4.95,1.25 -10.85,1.25 -0.1,0 -0.25,0 -0.15,0 -0.25,0 -5.9,0 -10.8,-1.25 l 2,-16.6 q 2.05,-3 3.8,-4.85 1.7,-1.9 3.2,-3.75 1.4,-1.85 1.8,-1.95 M 14.8,49.7 l 5.9,3.75 v -7.6 L 14.8,49.7 M 66.65,11.85 Q 66.95,6.45 61.7,5.4 56.3,4.25 50.05,4.2 43.7,4.25 38.3,5.4 33.05,6.45 33.35,11.85 L 35.15,28 q 0.55,2.55 6.3,9.3 0.75,0.9 1.4,1.7 1,1.1 1.95,2.25 0.75,0.85 1.5,1.6 1.1,1.15 2.75,1.5 1.6,0.4 3.2,-0.3 1.25,-0.6 2.1,-1.85 1.15,-1.5 2.55,-2.95 0.75,-0.85 1.65,-1.95 5.75,-6.75 6.3,-9.3 l 1.8,-16.15 m -16.9,-2.1 q 0.1,0 0.25,0 0.15,0 0.25,0 5.9,0 10.85,1.25 l -2.05,16.6 q -2.05,3 -3.8,4.85 -1.7,1.9 -3.2,3.75 -1.4,1.85 -1.8,1.95 h -0.5 q -0.4,-0.1 -1.8,-1.95 -1.5,-1.85 -3.2,-3.75 Q 43,30.6 40.95,27.6 l -2,-16.6 q 4.9,-1.25 10.8,-1.25 M 94.6,38.3 Q 93.55,33.05 88.15,33.35 L 72,35.15 q -2.55,0.55 -9.3,6.3 -1.1,0.9 -1.95,1.65 -1.45,1.4 -2.95,2.55 -1.25,0.85 -1.85,2.1 -0.7,1.6 -0.3,3.2 0.35,1.65 1.5,2.75 0.75,0.75 1.6,1.5 1.15,0.95 2.25,1.95 0.8,0.65 1.7,1.4 6.75,5.75 9.3,6.3 l 16.15,1.8 q 5.4,0.3 6.45,-4.95 1.15,-5.4 1.2,-11.75 Q 95.75,43.7 94.6,38.3 m -4.35,11.45 q 0,0.1 0,0.25 0,0.15 0,0.25 0,5.9 -1.25,10.8 l -16.6,-2 q -3,-2.05 -4.85,-3.8 -1.9,-1.7 -3.75,-3.2 -1.85,-1.4 -1.95,-1.8 v -0.5 q 0.1,-0.4 1.95,-1.8 1.85,-1.5 3.75,-3.2 Q 69.4,43 72.4,40.95 L 89,38.9 q 1.25,4.95 1.25,10.85 z"
           id="path13003" />
        <path
           fill="#bcbfc4"
           stroke="none"
           d="m 50.25,61.85 h -0.5 q -0.4,0.1 -1.8,1.95 -1.5,1.85 -3.2,3.75 -1.75,1.85 -3.8,4.85 l -2,16.6 q 4.9,1.25 10.8,1.25 0.1,0 0.25,0 0.15,0 0.25,0 5.9,0 10.85,-1.25 L 59.05,72.4 q -2.05,-3 -3.8,-4.85 -1.7,-1.9 -3.2,-3.75 -1.4,-1.85 -1.8,-1.95 m 3.9,17.45 -3.85,5.9 -3.75,-5.9 h 7.6 M 50,9.75 q -0.15,0 -0.25,0 -5.9,0 -10.8,1.25 l 2,16.6 q 2.05,3 3.8,4.85 1.7,1.9 3.2,3.75 1.4,1.85 1.8,1.95 h 0.5 q 0.4,-0.1 1.8,-1.95 1.5,-1.85 3.2,-3.75 Q 57,30.6 59.05,27.6 L 61.1,11 Q 56.15,9.75 50.25,9.75 q -0.1,0 -0.25,0 m -3.45,10.95 3.75,-5.9 3.85,5.9 h -7.6 M 90.25,50 q 0,-0.15 0,-0.25 0,-5.9 -1.25,-10.85 l -16.6,2.05 q -3,2.05 -4.85,3.8 -1.9,1.7 -3.75,3.2 -1.85,1.4 -1.95,1.8 v 0.5 q 0.1,0.4 1.95,1.8 1.85,1.5 3.75,3.2 1.85,1.75 4.85,3.8 l 16.6,2 q 1.25,-4.9 1.25,-10.8 0,-0.1 0,-0.25 M 79.3,53.45 v -7.6 l 5.9,3.85 z"
           id="path13005" />
        <path
           fill="#54565a"
           stroke="none"
           d="m 50.3,85.2 3.85,-5.9 h -7.6 l 3.75,5.9 m 0,-70.4 -3.75,5.9 h 7.6 L 50.3,14.8 m 29,31.05 v 7.6 l 5.9,-3.75 z"
           id="path13007" />
        <path
           fill="#d6d9de"
           stroke="none"
           d="M 44.05,47.75 Q 43.45,46.5 42.2,45.65 40.7,44.5 39.25,43.1 38.4,42.35 37.3,41.45 30.55,35.7 28,35.15 L 11.85,33.35 Q 6.45,33.05 5.4,38.3 4.25,43.7 4.2,49.95 4.25,56.3 5.4,61.7 q 1.05,5.25 6.45,4.95 L 28,64.85 q 2.55,-0.55 9.3,-6.3 0.9,-0.75 1.7,-1.4 1.1,-1 2.25,-1.95 0.85,-0.75 1.6,-1.5 1.15,-1.1 1.5,-2.75 0.4,-1.6 -0.3,-3.2 M 27.6,40.95 q 3,2.05 4.85,3.8 1.9,1.7 3.75,3.2 1.85,1.4 1.95,1.8 v 0.5 q -0.1,0.4 -1.95,1.8 -1.85,1.5 -3.75,3.2 -1.85,1.75 -4.85,3.8 l -16.6,2 q -1.25,-4.9 -1.25,-10.8 0,-0.1 0,-0.25 0,-0.15 0,-0.25 0,-5.9 1.25,-10.85 z"
           id="path13009" />
        <path
           fill="#ffffff"
           stroke="none"
           d="M 32.45,44.75 Q 30.6,43 27.6,40.95 L 11,38.9 q -1.25,4.95 -1.25,10.85 0,0.1 0,0.25 0,0.15 0,0.25 0,5.9 1.25,10.8 l 16.6,-2 q 3,-2.05 4.85,-3.8 1.9,-1.7 3.75,-3.2 1.85,-1.4 1.95,-1.8 v -0.5 q -0.1,-0.4 -1.95,-1.8 -1.85,-1.5 -3.75,-3.2 m -11.75,8.7 -5.9,-3.75 5.9,-3.85 z"
           id="path13011" />
      </g>
      <path
         id="use6156"
         stroke="#434345"
         stroke-width="2"
         stroke-linejoin="round"
         stroke-linecap="round"
         fill="none"
         d="m 88.15,33.35 q 5.4,-0.3 6.45,4.95 1.15,5.4 1.2,11.65 -0.05,6.35 -1.2,11.75 -1.05,5.25 -6.45,4.95 L 72,64.85 q -2.55,-0.55 -9.3,-6.3 -0.9,-0.75 -1.7,-1.4 -1.1,-1 -2.25,-1.95 -0.85,-0.75 -1.6,-1.5 -1.15,-1.1 -1.5,-2.75 -0.4,-1.6 0.3,-3.2 0.6,-1.25 1.85,-2.1 1.5,-1.15 2.95,-2.55 0.85,-0.75 1.95,-1.65 6.75,-5.75 9.3,-6.3 z M 66.65,11.85 Q 66.95,6.45 61.7,5.4 56.3,4.25 50.05,4.2 43.7,4.25 38.3,5.4 33.05,6.45 33.35,11.85 L 35.15,28 q 0.55,2.55 6.3,9.3 0.75,0.9 1.4,1.7 1,1.1 1.95,2.25 0.75,0.85 1.5,1.6 1.1,1.15 2.75,1.5 1.6,0.4 3.2,-0.3 1.25,-0.6 2.1,-1.85 1.15,-1.5 2.55,-2.95 0.75,-0.85 1.65,-1.95 5.75,-6.75 6.3,-9.3 z m 0,76.3 q 0.3,5.4 -4.95,6.45 -5.4,1.15 -11.65,1.2 Q 43.7,95.75 38.3,94.6 33.05,93.55 33.35,88.15 L 35.15,72 q 0.55,-2.55 6.3,-9.3 0.75,-0.9 1.4,-1.7 1,-1.1 1.95,-2.25 0.75,-0.85 1.5,-1.6 1.1,-1.15 2.75,-1.5 1.6,-0.4 3.2,0.3 1.25,0.6 2.1,1.85 1.15,1.5 2.55,2.95 0.75,0.85 1.65,1.95 5.75,6.75 6.3,9.3 z" />
      <path
         id="use6158"
         stroke="#e3e7ed"
         stroke-width="4"
         stroke-linejoin="round"
         stroke-linecap="round"
         fill="none"
         d="m 61.85,50.25 q 0.1,0.4 1.95,1.8 1.85,1.5 3.75,3.2 1.85,1.75 4.85,3.8 l 16.6,2 q 1.25,-4.9 1.25,-10.8 0,-0.1 0,-0.25 0,-0.15 0,-0.25 0,-5.9 -1.25,-10.85 l -16.6,2.05 q -3,2.05 -4.85,3.8 -1.9,1.7 -3.75,3.2 -1.85,1.4 -1.95,1.8 m -12.1,-11.6 q -0.4,-0.1 -1.8,-1.95 -1.5,-1.85 -3.2,-3.75 Q 43,30.6 40.95,27.6 l -2,-16.6 q 4.9,-1.25 10.8,-1.25 0.1,0 0.25,0 0.15,0 0.25,0 5.9,0 10.85,1.25 l -2.05,16.6 q -2.05,3 -3.8,4.85 -1.7,1.9 -3.2,3.75 -1.4,1.85 -1.8,1.95 m -0.5,23.7 q -0.4,0.1 -1.8,1.95 -1.5,1.85 -3.2,3.75 -1.75,1.85 -3.8,4.85 l -2,16.6 q 4.9,1.25 10.8,1.25 0.1,0 0.25,0 0.15,0 0.25,0 5.9,0 10.85,-1.25 L 59.05,72.4 q -2.05,-3 -3.8,-4.85 -1.7,-1.9 -3.2,-3.75 -1.4,-1.85 -1.8,-1.95" />
      <path
         id="use6160"
         stroke="#ffffff"
         stroke-width="4"
         stroke-linejoin="round"
         stroke-linecap="round"
         fill="none"
         d="m 38.15,50.25 q -0.1,0.4 -1.95,1.8 -1.85,1.5 -3.75,3.2 -1.85,1.75 -4.85,3.8 l -16.6,2 q -1.25,-4.9 -1.25,-10.8 0,-0.1 0,-0.25 0,-0.15 0,-0.25 0,-5.9 1.25,-10.85 l 16.6,2.05 q 3,2.05 4.85,3.8 1.9,1.7 3.75,3.2 1.85,1.4 1.95,1.8" />
      <path
         id="use6162"
         stroke="#bcbfc4"
         stroke-width="2"
         stroke-linejoin="round"
         stroke-linecap="round"
         fill="none"
         d="m 28,64.85 q 2.55,-0.55 9.3,-6.3 0.9,-0.75 1.7,-1.4 1.1,-1 2.25,-1.95 0.85,-0.75 1.6,-1.5 1.15,-1.1 1.5,-2.75 0.4,-1.6 -0.3,-3.2 Q 43.45,46.5 42.2,45.65 40.7,44.5 39.25,43.1 38.4,42.35 37.3,41.45 30.55,35.7 28,35.15 L 11.85,33.35 Q 6.45,33.05 5.4,38.3 4.25,43.7 4.2,49.95 4.25,56.3 5.4,61.7 q 1.05,5.25 6.45,4.95 z" />
    </g>
  </g>
</svg>
