<?xml version="1.0" encoding="UTF-8" standalone="no"?>
<!-- Created with Inkscape (http://www.inkscape.org/) -->

<svg
   width="100"
   height="100"
   viewBox="0 0 26.458333 26.458333"
   version="1.1"
   id="svg811"
   inkscape:version="1.2.1 (9c6d41e410, 2022-07-14)"
   sodipodi:docname="PS5_L2.svg"
   xmlns:inkscape="http://www.inkscape.org/namespaces/inkscape"
   xmlns:sodipodi="http://sodipodi.sourceforge.net/DTD/sodipodi-0.dtd"
   xmlns="http://www.w3.org/2000/svg"
   xmlns:svg="http://www.w3.org/2000/svg">
  <sodipodi:namedview
     id="namedview813"
     pagecolor="#ffffff"
     bordercolor="#000000"
     borderopacity="0.25"
     inkscape:showpageshadow="2"
     inkscape:pageopacity="0.0"
     inkscape:pagecheckerboard="true"
     inkscape:deskcolor="#d1d1d1"
     inkscape:document-units="mm"
     showgrid="false"
     inkscape:zoom="7.319248"
     inkscape:cx="59.500648"
     inkscape:cy="48.980442"
     inkscape:window-width="2560"
     inkscape:window-height="1351"
     inkscape:window-x="2391"
     inkscape:window-y="-9"
     inkscape:window-maximized="1"
     inkscape:current-layer="layer1" />
  <defs
     id="defs808" />
  <g
     inkscape:label="Layer 1"
     inkscape:groupmode="layer"
     id="layer1">
    <g
       id="g20713"
       style="display:inline"
       transform="matrix(0.31066489,0,0,0.31066489,-2.5370105,-2.6274187)">
      <g
         id="use20707">
        <path
           fill="#313131"
           stroke="none"
           d="M 85.5,43.35 V 28.8 q -0.15,-4.5 -0.45,-9.05 -0.3,-4.65 -4.25,-7 -4.1,-2.4 -8.75,-1.6 -1.8,0.1 -3.6,0.25 -0.25,0 -0.5,0.05 -25.5,1.95 -45.4,0.3 Q 15.9,15.65 16,25 q 4.9,22.75 1.35,45.8 -1.2,6.85 3.9,13.85 5.1,4.7 13.15,5.95 15.9,2.5 26.65,-6.65 L 67.6,70.35 Q 70.8,59 77.85,53.75 q 6.3,-3.4 7.65,-10.4 M 57.05,19.1 q 1.1,-0.1 2.2,-0.2 2,1.2 2.9,3.05 0.95,2.1 0.7,4.3 -0.1,0.9 -0.15,1.8 0,0.85 0,1.7 -0.05,0.85 -0.1,1.75 0,0.85 -0.05,1.7 -0.05,0.85 -0.15,1.75 -0.05,0.85 -0.15,1.7 -0.05,0.85 -0.1,1.7 -0.1,0.85 -0.2,1.7 -0.1,0.85 -0.2,1.7 -0.15,0.85 -0.3,1.7 -0.15,0.85 -0.3,1.7 -0.1,0.8 -0.25,1.65 -0.2,0.85 -0.4,1.7 -0.15,0.8 -0.35,1.65 -0.2,0.8 -0.4,1.65 -0.5,1.95 -1.05,3.95 -0.9,3.25 -2.35,6.65 -1.35,3.15 -3.05,6.35 -0.95,1.7 -2,3.4 -0.75,1.3 -1.6,2.55 -0.8,1.1 -1.7,2.15 -1.25,1.25 -2.65,2.45 -1.25,1.05 -2.65,1.95 -1.2,0.7 -2.55,1.25 -1.65,0.6 -3.4,0.85 Q 35.2,83.7 33.2,83.7 32.8,83.65 32,83.5 31.45,83.3 30.9,83.15 30.45,82.95 29.95,82.75 29.5,82.5 29.05,82.3 28.7,82.05 28.3,81.8 27.6,81.25 26.95,80.65 26.6,80.35 26.35,80 26.1,79.7 25.9,79.3 25.45,78.6 25.15,77.85 24.8,77.05 24.6,76.25 24.2,74.4 24.45,72.45 24.55,71.7 24.6,71 q 0.15,-1.55 0.3,-3.1 0.15,-1.6 0.25,-3.2 0.15,-1.7 0.25,-3.4 0.1,-1.75 0.2,-3.5 0.1,-2.85 0.15,-5.55 0.05,-2.95 0.15,-5.9 0.05,-2.9 -0.2,-5.8 Q 25.5,37.9 25.2,35.6 24.85,32.5 24.4,29.5 24.05,27.05 23.65,24.7 23.5,23 24.2,21.4 q 0.65,-1.55 1.9,-2.5 4.1,0.3 8.05,0.6 4.15,0.15 8.25,0.15 1.05,0 2.05,0 1.05,0 2.1,0 1.05,-0.05 2.1,-0.05 1.05,-0.05 2.1,-0.1 1.05,-0.05 2.1,-0.1 1.05,-0.1 2.1,-0.15 1.05,-0.1 2.1,-0.15 z"
           id="path966" />
        <path
           fill="#4f4f4f"
           stroke="none"
           d="m 59.25,18.9 q -1.1,0.1 -2.2,0.2 -1.05,0.05 -2.1,0.15 -1.05,0.05 -2.1,0.15 -1.05,0.05 -2.1,0.1 -1.05,0.05 -2.1,0.1 -1.05,0 -2.1,0.05 -1.05,0 -2.1,0 -1,0 -2.05,0 -4.1,0 -8.25,-0.15 -3.95,-0.3 -8.05,-0.6 -1.25,0.95 -1.9,2.5 -0.7,1.6 -0.55,3.3 0.4,2.35 0.75,4.8 0.45,3 0.8,6.1 0.3,2.3 0.5,4.95 0.25,2.9 0.2,5.8 -0.1,2.95 -0.15,5.9 -0.05,2.7 -0.15,5.55 -0.1,1.75 -0.2,3.5 -0.1,1.7 -0.25,3.4 -0.1,1.6 -0.25,3.2 -0.15,1.55 -0.3,3.1 -0.05,0.7 -0.15,1.45 -0.25,1.95 0.15,3.8 0.2,0.8 0.55,1.6 0.3,0.75 0.75,1.45 0.2,0.4 0.45,0.7 0.25,0.35 0.6,0.65 0.65,0.6 1.35,1.15 0.4,0.25 0.75,0.5 0.45,0.2 0.9,0.45 0.5,0.2 0.95,0.4 0.55,0.15 1.1,0.35 0.8,0.15 1.2,0.2 2,0 3.55,-0.35 1.75,-0.25 3.4,-0.85 1.35,-0.55 2.55,-1.25 1.4,-0.9 2.65,-1.95 1.4,-1.2 2.65,-2.45 0.9,-1.05 1.7,-2.15 0.85,-1.25 1.6,-2.55 1.05,-1.7 2,-3.4 1.7,-3.2 3.05,-6.35 1.45,-3.4 2.35,-6.65 0.55,-2 1.05,-3.95 0.2,-0.85 0.4,-1.65 0.2,-0.85 0.35,-1.65 0.2,-0.85 0.4,-1.7 0.15,-0.85 0.25,-1.65 0.15,-0.85 0.3,-1.7 0.15,-0.85 0.3,-1.7 0.1,-0.85 0.2,-1.7 0.1,-0.85 0.2,-1.7 0.05,-0.85 0.1,-1.7 0.1,-0.85 0.15,-1.7 0.1,-0.9 0.15,-1.75 0.05,-0.85 0.05,-1.7 0.05,-0.9 0.1,-1.75 0,-0.85 0,-1.7 0.05,-0.9 0.15,-1.8 0.25,-2.2 -0.7,-4.3 -0.9,-1.85 -2.9,-3.05 m -4.65,8.9 q 0.4,0.9 0.4,2.1 0,0.7 -0.2,1.3 -0.15,0.6 -0.45,1.1 -0.25,0.5 -0.65,0.95 -0.35,0.4 -0.8,0.8 l -4.7,4.05 h 6.85 V 41 h -10.8 v -3.5 l 6,-5.4 q 0.5,-0.4 0.95,-1 0.5,-0.5 0.5,-1.15 0,-0.85 -0.6,-1.3 -0.55,-0.45 -1.35,-0.45 -0.95,0 -1.45,0.6 -0.5,0.55 -0.6,1.4 l -3.3,-0.25 q 0.1,-1.2 0.55,-2.1 0.45,-0.9 1.15,-1.5 0.7,-0.6 1.7,-0.85 1,-0.35 2.1,-0.35 1.1,0 2,0.35 0.95,0.25 1.65,0.85 0.65,0.6 1.05,1.45 M 42.35,37.85 V 41 h -9.8 V 25.45 H 36 v 12.4 z"
           id="path968" />
        <path
           fill="#8f8f8f"
           stroke="none"
           d="M 42.35,41 V 37.85 H 36 V 25.45 H 32.55 V 41 h 9.8 M 55,29.9 q 0,-1.2 -0.4,-2.1 -0.4,-0.85 -1.05,-1.45 -0.7,-0.6 -1.65,-0.85 -0.9,-0.35 -2,-0.35 -1.1,0 -2.1,0.35 -1,0.25 -1.7,0.85 -0.7,0.6 -1.15,1.5 -0.45,0.9 -0.55,2.1 l 3.3,0.25 q 0.1,-0.85 0.6,-1.4 0.5,-0.6 1.45,-0.6 0.8,0 1.35,0.45 0.6,0.45 0.6,1.3 0,0.65 -0.5,1.15 -0.45,0.6 -0.95,1 l -6,5.4 V 41 h 10.8 V 38.1 H 48.2 l 4.7,-4.05 q 0.45,-0.4 0.8,-0.8 0.4,-0.45 0.65,-0.95 0.3,-0.5 0.45,-1.1 0.2,-0.6 0.2,-1.3 z"
           id="path970" />
      </g>
      <path
         id="use20709"
         stroke="#1b1b1b"
         stroke-width="5"
         stroke-linejoin="round"
         stroke-linecap="round"
         fill="none"
         d="m 85.5,28.8 q -0.15,-4.5 -0.45,-9.05 -0.3,-4.65 -4.25,-7 -4.1,-2.4 -8.75,-1.6 -1.8,0.1 -3.6,0.25 -0.25,0 -0.5,0.05 -25.5,1.95 -45.4,0.3 Q 15.9,15.65 16,25 q 4.9,22.75 1.35,45.8 -1.2,6.85 3.9,13.85 5.1,4.7 13.15,5.95 15.9,2.5 26.65,-6.65 L 67.6,70.35 Q 70.8,59 77.85,53.75 q 6.3,-3.4 7.65,-10.4 z" />
      <path
         id="use20711"
         stroke="#626262"
         stroke-width="3"
         stroke-linejoin="round"
         stroke-linecap="round"
         fill="none"
         d="m 26.1,18.9 q 4.1,0.3 8.05,0.6 4.15,0.15 8.25,0.15 1.05,0 2.05,0 1.05,0 2.1,0 1.05,-0.05 2.1,-0.05 1.05,-0.05 2.1,-0.1 1.05,-0.05 2.1,-0.1 1.05,-0.1 2.1,-0.15 1.05,-0.1 2.1,-0.15 1.1,-0.1 2.2,-0.2 2,1.2 2.9,3.05 0.95,2.1 0.7,4.3 -0.1,0.9 -0.15,1.8 0,0.85 0,1.7 -0.05,0.85 -0.1,1.75 0,0.85 -0.05,1.7 -0.05,0.85 -0.15,1.75 -0.05,0.85 -0.15,1.7 -0.05,0.85 -0.1,1.7 -0.1,0.85 -0.2,1.7 -0.1,0.85 -0.2,1.7 -0.15,0.85 -0.3,1.7 -0.15,0.85 -0.3,1.7 -0.1,0.8 -0.25,1.65 -0.2,0.85 -0.4,1.7 -0.15,0.8 -0.35,1.65 -0.2,0.8 -0.4,1.65 -0.5,1.95 -1.05,3.95 -0.9,3.25 -2.35,6.65 -1.35,3.15 -3.05,6.35 -0.95,1.7 -2,3.4 -0.75,1.3 -1.6,2.55 -0.8,1.1 -1.7,2.15 -1.25,1.25 -2.65,2.45 -1.25,1.05 -2.65,1.95 -1.2,0.7 -2.55,1.25 -1.65,0.6 -3.4,0.85 Q 35.2,83.7 33.2,83.7 32.8,83.65 32,83.5 31.45,83.3 30.9,83.15 30.45,82.95 29.95,82.75 29.5,82.5 29.05,82.3 28.7,82.05 28.3,81.8 27.6,81.25 26.95,80.65 26.6,80.35 26.35,80 26.1,79.7 25.9,79.3 25.45,78.6 25.15,77.85 24.8,77.05 24.6,76.25 24.2,74.4 24.45,72.45 24.55,71.7 24.6,71 q 0.15,-1.55 0.3,-3.1 0.15,-1.6 0.25,-3.2 0.15,-1.7 0.25,-3.4 0.1,-1.75 0.2,-3.5 0.1,-2.85 0.15,-5.55 0.05,-2.95 0.15,-5.9 0.05,-2.9 -0.2,-5.8 Q 25.5,37.9 25.2,35.6 24.85,32.5 24.4,29.5 24.05,27.05 23.65,24.7 23.5,23 24.2,21.4 q 0.65,-1.55 1.9,-2.5 z" />
    </g>
  </g>
</svg>
