<?xml version="1.0" encoding="UTF-8" standalone="no"?>
<!-- Created with Inkscape (http://www.inkscape.org/) -->

<svg
   width="100"
   height="100"
   viewBox="0 0 26.458333 26.458333"
   version="1.1"
   id="svg363"
   inkscape:version="1.2.1 (9c6d41e410, 2022-07-14)"
   sodipodi:docname="Question_Key_Dark.svg"
   xmlns:inkscape="http://www.inkscape.org/namespaces/inkscape"
   xmlns:sodipodi="http://sodipodi.sourceforge.net/DTD/sodipodi-0.dtd"
   xmlns="http://www.w3.org/2000/svg"
   xmlns:svg="http://www.w3.org/2000/svg">
  <sodipodi:namedview
     id="namedview365"
     pagecolor="#ffffff"
     bordercolor="#000000"
     borderopacity="0.25"
     inkscape:showpageshadow="2"
     inkscape:pageopacity="0.0"
     inkscape:pagecheckerboard="true"
     inkscape:deskcolor="#d1d1d1"
     inkscape:document-units="mm"
     showgrid="false"
     inkscape:zoom="10.35098"
     inkscape:cx="77.722111"
     inkscape:cy="49.802049"
     inkscape:window-width="2560"
     inkscape:window-height="1351"
     inkscape:window-x="2391"
     inkscape:window-y="-9"
     inkscape:window-maximized="1"
     inkscape:current-layer="layer1" />
  <defs
     id="defs360" />
  <g
     inkscape:label="Layer 1"
     inkscape:groupmode="layer"
     id="layer1">
    <g
       id="g28"
       transform="matrix(0.35802887,0,0,0.35802887,-4.8512911,-4.8358064)">
      <g
         id="use22">
        <path
           fill="#353535"
           stroke="none"
           d="m 84.95,77.8 q -1.25,-27.3 0,-54.65 0,-5.85 -5.85,-5.85 H 21.9 q -5.85,0 -5.85,5.85 1.25,27.35 0,54.65 0,5.85 5.85,5.85 h 57.2 q 5.85,0 5.85,-5.85 M 54.15,26.45 h 1.25 16.15 q 4.25,0 4.25,4.25 -1.15,19.8 0,39.55 0,4.2 -4.25,4.2 H 55.4 54.15 29.45 q -4.25,0 -4.25,-4.2 1.15,-19.75 0,-39.55 0,-4.25 4.25,-4.25 z"
           id="path518" />
        <path
           fill="#595959"
           stroke="none"
           d="m 55.4,26.45 h -1.25 -24.7 q -4.25,0 -4.25,4.25 1.15,19.8 0,39.55 0,4.2 4.25,4.2 h 24.7 1.25 16.15 q 4.25,0 4.25,-4.2 -1.15,-19.75 0,-39.55 0,-4.25 -4.25,-4.25 H 55.4 m -3.9,9.25 q 1.85,0 3.5,0.5 1.6,0.5 2.85,1.5 1.2,1 1.95,2.5 0.7,1.45 0.7,3.4 0,1.15 -0.25,2.1 Q 60,46.65 59.45,47.55 58.85,48.5 57.9,49.4 57,50.35 55.55,51.45 54.6,52.2 54.3,52.9 54,53.55 54,54.25 v 1.15 h -6 v -1.75 q 0,-1.2 0.3,-2.05 0.35,-0.85 1.1,-1.55 1.1,-1.1 2.05,-1.9 0.95,-0.8 1.6,-1.5 0.7,-0.7 1.1,-1.3 0.35,-0.65 0.35,-1.3 0,-1.35 -0.8,-2.05 -0.85,-0.75 -2.05,-0.75 -1.9,0 -2.9,1 -0.95,1.05 -1.1,2.55 L 41.5,44.4 q 0.45,-4.25 3.1,-6.45 2.7,-2.25 6.9,-2.25 M 51,57.6 q 0.75,0 1.4,0.3 0.7,0.3 1.2,0.8 0.5,0.5 0.8,1.15 0.25,0.7 0.25,1.45 0,0.75 -0.25,1.45 -0.3,0.65 -0.8,1.2 -0.5,0.45 -1.2,0.75 -0.65,0.3 -1.4,0.3 -0.75,0 -1.45,-0.3 -0.7,-0.3 -1.2,-0.75 -0.5,-0.55 -0.8,-1.2 -0.25,-0.7 -0.25,-1.45 0,-0.75 0.25,-1.45 0.3,-0.65 0.8,-1.15 0.5,-0.5 1.2,-0.8 0.7,-0.3 1.45,-0.3 z"
           id="path520" />
        <path
           fill="#cdcdcd"
           stroke="none"
           d="m 52.4,57.9 q -0.65,-0.3 -1.4,-0.3 -0.75,0 -1.45,0.3 -0.7,0.3 -1.2,0.8 -0.5,0.5 -0.8,1.15 -0.25,0.7 -0.25,1.45 0,0.75 0.25,1.45 0.3,0.65 0.8,1.2 0.5,0.45 1.2,0.75 0.7,0.3 1.45,0.3 0.75,0 1.4,-0.3 0.7,-0.3 1.2,-0.75 0.5,-0.55 0.8,-1.2 0.25,-0.7 0.25,-1.45 0,-0.75 -0.25,-1.45 Q 54.1,59.2 53.6,58.7 53.1,58.2 52.4,57.9 M 55,36.2 q -1.65,-0.5 -3.5,-0.5 -4.2,0 -6.9,2.25 -2.65,2.2 -3.1,6.45 l 6.15,0.4 q 0.15,-1.5 1.1,-2.55 1,-1 2.9,-1 1.2,0 2.05,0.75 0.8,0.7 0.8,2.05 0,0.65 -0.35,1.3 -0.4,0.6 -1.1,1.3 -0.65,0.7 -1.6,1.5 -0.95,0.8 -2.05,1.9 -0.75,0.7 -1.1,1.55 -0.3,0.85 -0.3,2.05 v 1.75 h 6 v -1.15 q 0,-0.7 0.3,-1.35 0.3,-0.7 1.25,-1.45 1.45,-1.1 2.35,-2.05 0.95,-0.9 1.55,-1.85 0.55,-0.9 0.8,-1.85 0.25,-0.95 0.25,-2.1 0,-1.95 -0.7,-3.4 -0.75,-1.5 -1.95,-2.5 -1.25,-1 -2.85,-1.5 z"
           id="path522" />
      </g>
      <path
         id="use24"
         stroke="#1d1d1d"
         stroke-width="5"
         stroke-linejoin="round"
         stroke-linecap="round"
         fill="none"
         d="m 84.95,23.15 q -1.25,27.35 0,54.65 0,5.85 -5.85,5.85 H 21.9 q -5.85,0 -5.85,-5.85 1.25,-27.3 0,-54.65 0,-5.85 5.85,-5.85 h 57.2 q 5.85,0 5.85,5.85 z" />
      <path
         id="use26"
         stroke="#696969"
         stroke-width="4"
         stroke-linejoin="round"
         stroke-linecap="round"
         fill="none"
         d="m 54.15,26.45 h -24.7 q -4.25,0 -4.25,4.25 1.15,19.8 0,39.55 0,4.2 4.25,4.2 h 24.7 m 1.25,0 h 16.15 q 4.25,0 4.25,-4.2 -1.15,-19.75 0,-39.55 0,-4.25 -4.25,-4.25 H 55.4" />
    </g>
  </g>
</svg>
