<?xml version="1.0" encoding="UTF-8" standalone="no"?>
<!-- Created with Inkscape (http://www.inkscape.org/) -->

<svg
   width="100"
   height="100"
   viewBox="0 0 26.458333 26.458333"
   version="1.1"
   id="svg14137"
   inkscape:version="1.2.1 (9c6d41e410, 2022-07-14)"
   sodipodi:docname="R_Key_Dark.svg"
   xmlns:inkscape="http://www.inkscape.org/namespaces/inkscape"
   xmlns:sodipodi="http://sodipodi.sourceforge.net/DTD/sodipodi-0.dtd"
   xmlns="http://www.w3.org/2000/svg"
   xmlns:svg="http://www.w3.org/2000/svg">
  <sodipodi:namedview
     id="namedview14139"
     pagecolor="#ffffff"
     bordercolor="#000000"
     borderopacity="0.25"
     inkscape:showpageshadow="2"
     inkscape:pageopacity="0.0"
     inkscape:pagecheckerboard="true"
     inkscape:deskcolor="#d1d1d1"
     inkscape:document-units="mm"
     showgrid="false"
     inkscape:zoom="7.319248"
     inkscape:cx="44.745034"
     inkscape:cy="65.102316"
     inkscape:window-width="2560"
     inkscape:window-height="1351"
     inkscape:window-x="2391"
     inkscape:window-y="-9"
     inkscape:window-maximized="1"
     inkscape:current-layer="layer1" />
  <defs
     id="defs14134" />
  <g
     inkscape:label="Layer 1"
     inkscape:groupmode="layer"
     id="layer1">
    <g
       id="g13981"
       transform="matrix(0.35802887,0,0,0.35802887,-4.8512911,-4.8358064)">
      <g
         id="use13975">
        <path
           fill="#353535"
           stroke="none"
           d="m 84.95,77.8 q -1.25,-27.3 0,-54.65 0,-5.85 -5.85,-5.85 H 21.9 q -5.85,0 -5.85,5.85 1.25,27.35 0,54.65 0,5.85 5.85,5.85 h 57.2 q 5.85,0 5.85,-5.85 M 54.15,26.45 h 1.25 16.15 q 4.25,0 4.25,4.25 -1.15,19.8 0,39.55 0,4.2 -4.25,4.2 H 55.4 54.15 29.45 q -4.25,0 -4.25,-4.2 1.15,-19.75 0,-39.55 0,-4.25 4.25,-4.25 z"
           id="path14288" />
        <path
           fill="#595959"
           stroke="none"
           d="m 55.4,26.45 h -1.25 -24.7 q -4.25,0 -4.25,4.25 1.15,19.8 0,39.55 0,4.2 4.25,4.2 h 24.7 1.25 16.15 q 4.25,0 4.25,-4.2 -1.15,-19.75 0,-39.55 0,-4.25 -4.25,-4.25 H 55.4 m 2.4,13.95 q 1.3,0.85 2.05,2.3 0.75,1.45 0.75,3.65 0,2.6 -1.35,4.45 -1.4,1.85 -4,2.3 l 6.3,10.5 H 55 l -5.2,-9.9 h -2.65 v 9.9 H 41.7 V 38.8 h 9.55 q 1.9,0 3.6,0.4 1.7,0.35 2.95,1.2 m -10.65,3.05 v 5.6 h 3.2 q 0.75,0 1.55,-0.05 0.8,-0.05 1.5,-0.3 0.65,-0.25 1.1,-0.8 0.4,-0.55 0.4,-1.6 0,-0.95 -0.35,-1.5 -0.4,-0.55 -1,-0.85 -0.6,-0.3 -1.35,-0.4 -0.75,-0.1 -1.5,-0.1 z"
           id="path14290" />
        <path
           fill="#cdcdcd"
           stroke="none"
           d="M 59.85,42.7 Q 59.1,41.25 57.8,40.4 56.55,39.55 54.85,39.2 53.15,38.8 51.25,38.8 H 41.7 v 24.8 h 5.45 v -9.9 h 2.65 l 5.2,9.9 h 6.55 l -6.3,-10.5 q 2.6,-0.45 4,-2.3 1.35,-1.85 1.35,-4.45 0,-2.2 -0.75,-3.65 m -12.7,6.35 v -5.6 h 3.55 q 0.75,0 1.5,0.1 0.75,0.1 1.35,0.4 0.6,0.3 1,0.85 0.35,0.55 0.35,1.5 0,1.05 -0.4,1.6 -0.45,0.55 -1.1,0.8 -0.7,0.25 -1.5,0.3 -0.8,0.05 -1.55,0.05 z"
           id="path14292" />
      </g>
      <path
         id="use13977"
         stroke="#1d1d1d"
         stroke-width="5"
         stroke-linejoin="round"
         stroke-linecap="round"
         fill="none"
         d="m 84.95,23.15 q -1.25,27.35 0,54.65 0,5.85 -5.85,5.85 H 21.9 q -5.85,0 -5.85,-5.85 1.25,-27.3 0,-54.65 0,-5.85 5.85,-5.85 h 57.2 q 5.85,0 5.85,5.85 z" />
      <path
         id="use13979"
         stroke="#696969"
         stroke-width="4"
         stroke-linejoin="round"
         stroke-linecap="round"
         fill="none"
         d="m 54.15,26.45 h -24.7 q -4.25,0 -4.25,4.25 1.15,19.8 0,39.55 0,4.2 4.25,4.2 h 24.7 m 1.25,0 h 16.15 q 4.25,0 4.25,-4.2 -1.15,-19.75 0,-39.55 0,-4.25 -4.25,-4.25 H 55.4" />
    </g>
  </g>
</svg>
