<?xml version="1.0" encoding="UTF-8" standalone="no"?>
<!-- Created with Inkscape (http://www.inkscape.org/) -->

<svg
   width="100"
   height="100"
   viewBox="0 0 26.458333 26.458333"
   version="1.1"
   id="svg24199"
   inkscape:version="1.2.1 (9c6d41e410, 2022-07-14)"
   sodipodi:docname="S_Key_Dark.svg"
   xmlns:inkscape="http://www.inkscape.org/namespaces/inkscape"
   xmlns:sodipodi="http://sodipodi.sourceforge.net/DTD/sodipodi-0.dtd"
   xmlns="http://www.w3.org/2000/svg"
   xmlns:svg="http://www.w3.org/2000/svg">
  <sodipodi:namedview
     id="namedview24201"
     pagecolor="#ffffff"
     bordercolor="#000000"
     borderopacity="0.25"
     inkscape:showpageshadow="2"
     inkscape:pageopacity="0.0"
     inkscape:pagecheckerboard="true"
     inkscape:deskcolor="#d1d1d1"
     inkscape:document-units="mm"
     showgrid="false"
     inkscape:zoom="10.35098"
     inkscape:cx="80.620387"
     inkscape:cy="47.966474"
     inkscape:window-width="2560"
     inkscape:window-height="1351"
     inkscape:window-x="2391"
     inkscape:window-y="-9"
     inkscape:window-maximized="1"
     inkscape:current-layer="layer1" />
  <defs
     id="defs24196" />
  <g
     inkscape:label="Layer 1"
     inkscape:groupmode="layer"
     id="layer1">
    <g
       id="g24033"
       transform="matrix(0.35802887,0,0,0.35802887,-4.8512911,-4.8358064)">
      <g
         id="use24027">
        <path
           fill="#353535"
           stroke="none"
           d="m 84.95,77.8 q -1.25,-27.3 0,-54.65 0,-5.85 -5.85,-5.85 H 21.9 q -5.85,0 -5.85,5.85 1.25,27.35 0,54.65 0,5.85 5.85,5.85 h 57.2 q 5.85,0 5.85,-5.85 M 54.15,26.45 h 1.25 16.15 q 4.25,0 4.25,4.25 -1.15,19.8 0,39.55 0,4.2 -4.25,4.2 H 55.4 54.15 29.45 q -4.25,0 -4.25,-4.2 1.15,-19.75 0,-39.55 0,-4.25 4.25,-4.25 z"
           id="path24354" />
        <path
           fill="#595959"
           stroke="none"
           d="m 55.4,26.45 h -1.25 -24.7 q -4.25,0 -4.25,4.25 1.15,19.8 0,39.55 0,4.2 4.25,4.2 h 24.7 1.25 16.15 q 4.25,0 4.25,-4.2 -1.15,-19.75 0,-39.55 0,-4.25 -4.25,-4.25 H 55.4 M 48.85,43.8 q -0.55,0.3 -0.9,0.8 -0.35,0.5 -0.35,1.2 0,1.1 0.85,1.7 0.8,0.6 2.1,1 1.3,0.45 2.75,0.85 1.45,0.4 2.75,1.2 1.3,0.75 2.1,2.05 0.85,1.3 0.85,3.5 0,2.05 -0.75,3.6 -0.8,1.5 -2.1,2.55 -1.3,1 -3.05,1.5 -1.7,0.5 -3.65,0.5 -2.4,0 -4.45,-0.75 -2.1,-0.75 -3.85,-2.4 L 45,56.85 q 0.85,1.1 2.15,1.75 1.25,0.6 2.65,0.6 0.65,0 1.35,-0.15 0.65,-0.15 1.2,-0.5 0.55,-0.3 0.9,-0.8 0.3,-0.5 0.3,-1.15 0,-1.1 -0.85,-1.75 -0.85,-0.65 -2.15,-1.15 -1.3,-0.4 -2.8,-0.9 -1.5,-0.45 -2.8,-1.2 -1.3,-0.8 -2.2,-2.05 -0.85,-1.25 -0.85,-3.3 0,-2 0.8,-3.5 0.8,-1.5 2.1,-2.55 1.3,-1 3.05,-1.5 1.7,-0.5 3.5,-0.5 2.1,0 4.1,0.6 1.95,0.6 3.55,2 l -3.75,4.05 q -0.7,-0.8 -1.85,-1.2 -1.1,-0.4 -2.15,-0.4 -0.6,0 -1.2,0.1 -0.65,0.15 -1.2,0.45 z"
           id="path24356" />
        <path
           fill="#cdcdcd"
           stroke="none"
           d="m 47.95,44.6 q 0.35,-0.5 0.9,-0.8 0.55,-0.3 1.2,-0.45 0.6,-0.1 1.2,-0.1 1.05,0 2.15,0.4 1.15,0.4 1.85,1.2 L 59,40.8 q -1.6,-1.4 -3.55,-2 -2,-0.6 -4.1,-0.6 -1.8,0 -3.5,0.5 -1.75,0.5 -3.05,1.5 -1.3,1.05 -2.1,2.55 -0.8,1.5 -0.8,3.5 0,2.05 0.85,3.3 0.9,1.25 2.2,2.05 1.3,0.75 2.8,1.2 1.5,0.5 2.8,0.9 1.3,0.5 2.15,1.15 0.85,0.65 0.85,1.75 0,0.65 -0.3,1.15 -0.35,0.5 -0.9,0.8 -0.55,0.35 -1.2,0.5 -0.7,0.15 -1.35,0.15 -1.4,0 -2.65,-0.6 -1.3,-0.65 -2.15,-1.75 l -3.85,4.25 q 1.75,1.65 3.85,2.4 2.05,0.75 4.45,0.75 1.95,0 3.65,-0.5 1.75,-0.5 3.05,-1.5 1.3,-1.05 2.1,-2.55 0.75,-1.55 0.75,-3.6 0,-2.2 -0.85,-3.5 -0.8,-1.3 -2.1,-2.05 -1.3,-0.8 -2.75,-1.2 -1.45,-0.4 -2.75,-0.85 -1.3,-0.4 -2.1,-1 -0.85,-0.6 -0.85,-1.7 0,-0.7 0.35,-1.2 z"
           id="path24358" />
      </g>
      <path
         id="use24029"
         stroke="#1d1d1d"
         stroke-width="5"
         stroke-linejoin="round"
         stroke-linecap="round"
         fill="none"
         d="m 84.95,23.15 q -1.25,27.35 0,54.65 0,5.85 -5.85,5.85 H 21.9 q -5.85,0 -5.85,-5.85 1.25,-27.3 0,-54.65 0,-5.85 5.85,-5.85 h 57.2 q 5.85,0 5.85,5.85 z" />
      <path
         id="use24031"
         stroke="#696969"
         stroke-width="4"
         stroke-linejoin="round"
         stroke-linecap="round"
         fill="none"
         d="m 54.15,26.45 h -24.7 q -4.25,0 -4.25,4.25 1.15,19.8 0,39.55 0,4.2 4.25,4.2 h 24.7 m 1.25,0 h 16.15 q 4.25,0 4.25,-4.2 -1.15,-19.75 0,-39.55 0,-4.25 -4.25,-4.25 H 55.4" />
    </g>
  </g>
</svg>
