<?xml version="1.0" encoding="UTF-8" standalone="no"?>
<!-- Created with Inkscape (http://www.inkscape.org/) -->

<svg
   width="100"
   height="100"
   viewBox="0 0 26.458333 26.458333"
   version="1.1"
   id="svg7986"
   inkscape:version="1.2.1 (9c6d41e410, 2022-07-14)"
   sodipodi:docname="Semicolon_Key_Dark.svg"
   xmlns:inkscape="http://www.inkscape.org/namespaces/inkscape"
   xmlns:sodipodi="http://sodipodi.sourceforge.net/DTD/sodipodi-0.dtd"
   xmlns="http://www.w3.org/2000/svg"
   xmlns:svg="http://www.w3.org/2000/svg">
  <sodipodi:namedview
     id="namedview7988"
     pagecolor="#ffffff"
     bordercolor="#000000"
     borderopacity="0.25"
     inkscape:showpageshadow="2"
     inkscape:pageopacity="0.0"
     inkscape:pagecheckerboard="true"
     inkscape:deskcolor="#d1d1d1"
     inkscape:document-units="mm"
     showgrid="false"
     inkscape:zoom="10.35098"
     inkscape:cx="82.842399"
     inkscape:cy="53.183371"
     inkscape:window-width="2560"
     inkscape:window-height="1351"
     inkscape:window-x="2391"
     inkscape:window-y="-9"
     inkscape:window-maximized="1"
     inkscape:current-layer="layer1" />
  <defs
     id="defs7983" />
  <g
     inkscape:label="Layer 1"
     inkscape:groupmode="layer"
     id="layer1">
    <g
       id="g7815"
       transform="matrix(0.35802887,0,0,0.35802887,-4.8512911,-4.8358064)">
      <g
         id="use7809">
        <path
           fill="#353535"
           stroke="none"
           d="m 84.95,77.8 q -1.25,-27.3 0,-54.65 0,-5.85 -5.85,-5.85 H 21.9 q -5.85,0 -5.85,5.85 1.25,27.35 0,54.65 0,5.85 5.85,5.85 h 57.2 q 5.85,0 5.85,-5.85 M 54.15,26.45 h 1.25 16.15 q 4.25,0 4.25,4.25 -1.15,19.8 0,39.55 0,4.2 -4.25,4.2 H 55.4 54.15 29.45 q -4.25,0 -4.25,-4.2 1.15,-19.75 0,-39.55 0,-4.25 4.25,-4.25 z"
           id="path8141" />
        <path
           fill="#595959"
           stroke="none"
           d="m 55.4,26.45 h -1.25 -24.7 q -4.25,0 -4.25,4.25 1.15,19.8 0,39.55 0,4.2 4.25,4.2 h 24.7 1.25 16.15 q 4.25,0 4.25,-4.2 -1.15,-19.75 0,-39.55 0,-4.25 -4.25,-4.25 H 55.4 M 46.8,42.6 q 0,-0.75 0.25,-1.45 0.3,-0.65 0.8,-1.15 0.5,-0.5 1.2,-0.8 0.7,-0.25 1.45,-0.25 0.75,0 1.4,0.25 0.7,0.3 1.2,0.8 0.5,0.5 0.8,1.15 0.25,0.7 0.25,1.45 0,0.75 -0.25,1.45 -0.3,0.7 -0.8,1.2 -0.5,0.5 -1.2,0.75 -0.65,0.3 -1.4,0.3 -0.75,0 -1.45,-0.3 -0.7,-0.25 -1.2,-0.75 -0.5,-0.5 -0.8,-1.2 -0.25,-0.7 -0.25,-1.45 m 1.4,9.75 h 5.75 l -3.6,11.3 h -5.1 z"
           id="path8143" />
        <path
           fill="#cdcdcd"
           stroke="none"
           d="M 53.95,52.35 H 48.2 l -2.95,11.3 h 5.1 l 3.6,-11.3 m -6.9,-11.2 q -0.25,0.7 -0.25,1.45 0,0.75 0.25,1.45 0.3,0.7 0.8,1.2 0.5,0.5 1.2,0.75 0.7,0.3 1.45,0.3 0.75,0 1.4,-0.3 0.7,-0.25 1.2,-0.75 0.5,-0.5 0.8,-1.2 0.25,-0.7 0.25,-1.45 0,-0.75 -0.25,-1.45 -0.3,-0.65 -0.8,-1.15 -0.5,-0.5 -1.2,-0.8 -0.65,-0.25 -1.4,-0.25 -0.75,0 -1.45,0.25 -0.7,0.3 -1.2,0.8 -0.5,0.5 -0.8,1.15 z"
           id="path8145" />
      </g>
      <path
         id="use7811"
         stroke="#1d1d1d"
         stroke-width="5"
         stroke-linejoin="round"
         stroke-linecap="round"
         fill="none"
         d="m 84.95,23.15 q -1.25,27.35 0,54.65 0,5.85 -5.85,5.85 H 21.9 q -5.85,0 -5.85,-5.85 1.25,-27.3 0,-54.65 0,-5.85 5.85,-5.85 h 57.2 q 5.85,0 5.85,5.85 z" />
      <path
         id="use7813"
         stroke="#696969"
         stroke-width="4"
         stroke-linejoin="round"
         stroke-linecap="round"
         fill="none"
         d="m 54.15,26.45 h -24.7 q -4.25,0 -4.25,4.25 1.15,19.8 0,39.55 0,4.2 4.25,4.2 h 24.7 m 1.25,0 h 16.15 q 4.25,0 4.25,-4.2 -1.15,-19.75 0,-39.55 0,-4.25 -4.25,-4.25 H 55.4" />
    </g>
  </g>
</svg>
