<?xml version="1.0" encoding="UTF-8" standalone="no"?>
<!-- Created with Inkscape (http://www.inkscape.org/) -->

<svg
   width="100"
   height="100"
   viewBox="0 0 26.458333 26.458333"
   version="1.1"
   id="svg5044"
   inkscape:version="1.2.1 (9c6d41e410, 2022-07-14)"
   sodipodi:docname="Shift_Key_Dark.svg"
   xmlns:inkscape="http://www.inkscape.org/namespaces/inkscape"
   xmlns:sodipodi="http://sodipodi.sourceforge.net/DTD/sodipodi-0.dtd"
   xmlns="http://www.w3.org/2000/svg"
   xmlns:svg="http://www.w3.org/2000/svg">
  <sodipodi:namedview
     id="namedview5046"
     pagecolor="#ffffff"
     bordercolor="#000000"
     borderopacity="0.25"
     inkscape:showpageshadow="2"
     inkscape:pageopacity="0.0"
     inkscape:pagecheckerboard="true"
     inkscape:deskcolor="#d1d1d1"
     inkscape:document-units="mm"
     showgrid="false"
     inkscape:zoom="7.319248"
     inkscape:cx="54.718736"
     inkscape:cy="42.968895"
     inkscape:window-width="2560"
     inkscape:window-height="1351"
     inkscape:window-x="2391"
     inkscape:window-y="-9"
     inkscape:window-maximized="1"
     inkscape:current-layer="layer1" />
  <defs
     id="defs5041" />
  <g
     inkscape:label="Layer 1"
     inkscape:groupmode="layer"
     id="layer1">
    <g
       id="g4510"
       transform="matrix(0.29430849,0,0,0.29430849,-1.6334121,-1.6144881)">
      <g
         id="use4504">
        <path
           fill="#353535"
           stroke="none"
           d="m 92.95,27.1 q 0,-5 -5,-5 h -74.9 q -5,0 -5,5 1.05,23.4 0,46.7 0,5 5,5 h 74.9 q 5,0 5,-5 -1.1,-23.3 0,-46.7 M 81.5,29.95 q 3.6,0 3.6,3.6 -0.95,16.95 0,33.8 0,3.6 -3.6,3.6 H 67.7 66.6 19.5 q -3.65,0 -3.65,-3.6 1,-16.85 0,-33.8 0,-3.6 3.65,-3.6 h 47.1 1.1 z"
           id="path5199" />
        <path
           fill="#595959"
           stroke="none"
           d="m 85.1,33.55 q 0,-3.6 -3.6,-3.6 H 67.7 66.6 19.5 q -3.65,0 -3.65,3.6 1,16.95 0,33.8 0,3.6 3.65,3.6 h 47.1 1.1 13.8 q 3.6,0 3.6,-3.6 -0.95,-16.85 0,-33.8 m -40.3,13.3 q 0.55,-0.15 1.2,-0.15 1.45,0 2.35,0.45 0.85,0.45 1.35,1.2 0.45,0.8 0.65,1.85 0.15,1.05 0.15,2.25 v 6.7 H 46.8 V 53.2 q 0,-0.55 -0.05,-1.1 Q 46.7,51.55 46.5,51.05 46.35,50.6 45.95,50.3 45.55,50 44.8,50 q -0.7,0 -1.15,0.25 -0.45,0.25 -0.7,0.7 -0.25,0.45 -0.3,1 -0.05,0.55 -0.05,1.15 v 6.05 h -3.75 v -18.9 h 3.75 v 8.4 h 0.05 q 0.1,-0.35 0.4,-0.7 0.3,-0.35 0.7,-0.65 0.45,-0.25 1.05,-0.45 m 11.85,-5.2 q 0.6,0.6 0.6,1.5 0,0.9 -0.6,1.55 -0.65,0.65 -1.55,0.65 -0.9,0 -1.55,-0.65 -0.65,-0.65 -0.65,-1.55 0,-0.9 0.65,-1.5 Q 54.2,41 55.1,41 56,41 56.65,41.65 M 53.25,47 H 57 V 59.15 H 53.25 V 47 m 13.6,-7 q 0.55,0.05 1.05,0.15 l -0.15,3.2 q -0.35,-0.15 -0.6,-0.2 -0.3,-0.05 -0.65,-0.05 -0.85,0 -1.35,0.4 -0.45,0.4 -0.45,1.6 V 47 h 2.8 v 3 h -2.8 v 9.15 H 60.95 V 50 H 58.5 v -3 h 2.45 v -2.15 q 0,-1 0.2,-1.9 0.2,-0.9 0.7,-1.55 0.5,-0.65 1.4,-1.05 0.95,-0.4 2.45,-0.4 0.6,0 1.15,0.05 m 0.9,7 h 2.4 V 43.4 H 73.9 V 47 h 3.3 v 3 h -3.3 v 4.05 q 0,0.5 0.05,0.9 0.05,0.45 0.25,0.75 0.15,0.3 0.5,0.45 0.35,0.15 0.95,0.15 0.3,0 0.8,-0.05 0.5,-0.05 0.75,-0.3 v 3.15 q -0.65,0.2 -1.3,0.3 -0.65,0.05 -1.35,0.05 -0.95,0 -1.75,-0.2 -0.75,-0.2 -1.4,-0.65 -0.6,-0.4 -0.9,-1.1 -0.35,-0.7 -0.35,-1.7 V 50 h -2.4 V 47 M 26.25,42.45 Q 27.2,41.7 28.4,41.35 29.65,41 30.95,41 q 1.5,0 2.9,0.45 1.4,0.4 2.55,1.4 l -2.7,2.9 q -0.45,-0.6 -1.3,-0.85 -0.8,-0.3 -1.5,-0.3 -0.45,0 -0.9,0.1 -0.45,0.1 -0.85,0.3 -0.4,0.2 -0.65,0.6 -0.25,0.35 -0.25,0.85 0,0.75 0.6,1.2 0.6,0.45 1.5,0.7 0.95,0.35 2,0.6 1.05,0.3 1.95,0.85 0.9,0.55 1.5,1.5 0.6,0.95 0.6,2.5 0,1.45 -0.55,2.55 -0.55,1.1 -1.5,1.8 -0.9,0.75 -2.15,1.1 -1.25,0.35 -2.6,0.35 -1.75,0 -3.2,-0.5 -1.5,-0.55 -2.75,-1.7 l 2.75,-3.05 q 0.6,0.75 1.5,1.2 0.95,0.45 1.9,0.45 0.5,0 1,-0.1 0.45,-0.1 0.85,-0.35 0.4,-0.2 0.65,-0.55 0.2,-0.4 0.2,-0.85 0,-0.8 -0.6,-1.25 -0.6,-0.5 -1.55,-0.8 -0.9,-0.3 -2,-0.65 -1.05,-0.3 -2,-0.85 -0.9,-0.6 -1.55,-1.45 -0.6,-0.95 -0.6,-2.4 0,-1.45 0.55,-2.5 0.55,-1.1 1.5,-1.8 z"
           id="path5201" />
        <path
           fill="#cdcdcd"
           stroke="none"
           d="m 28.4,41.35 q -1.2,0.35 -2.15,1.1 -0.95,0.7 -1.5,1.8 -0.55,1.05 -0.55,2.5 0,1.45 0.6,2.4 0.65,0.85 1.55,1.45 0.95,0.55 2,0.85 1.1,0.35 2,0.65 0.95,0.3 1.55,0.8 0.6,0.45 0.6,1.25 0,0.45 -0.2,0.85 -0.25,0.35 -0.65,0.55 -0.4,0.25 -0.85,0.35 -0.5,0.1 -1,0.1 -0.95,0 -1.9,-0.45 -0.9,-0.45 -1.5,-1.2 l -2.75,3.05 q 1.25,1.15 2.75,1.7 1.45,0.5 3.2,0.5 1.35,0 2.6,-0.35 1.25,-0.35 2.15,-1.1 0.95,-0.7 1.5,-1.8 0.55,-1.1 0.55,-2.55 0,-1.55 -0.6,-2.5 -0.6,-0.95 -1.5,-1.5 -0.9,-0.55 -1.95,-0.85 -1.05,-0.25 -2,-0.6 -0.9,-0.25 -1.5,-0.7 -0.6,-0.45 -0.6,-1.2 0,-0.5 0.25,-0.85 0.25,-0.4 0.65,-0.6 0.4,-0.2 0.85,-0.3 0.45,-0.1 0.9,-0.1 0.7,0 1.5,0.3 0.85,0.25 1.3,0.85 l 2.7,-2.9 q -1.15,-1 -2.55,-1.4 Q 32.45,41 30.95,41 29.65,41 28.4,41.35 M 70.15,47 h -2.4 v 3 h 2.4 v 5.8 q 0,1 0.35,1.7 0.3,0.7 0.9,1.1 0.65,0.45 1.4,0.65 0.8,0.2 1.75,0.2 0.7,0 1.35,-0.05 0.65,-0.1 1.3,-0.3 v -3.15 q -0.25,0.25 -0.75,0.3 -0.5,0.05 -0.8,0.05 -0.6,0 -0.95,-0.15 Q 74.35,56 74.2,55.7 74,55.4 73.95,54.95 73.9,54.55 73.9,54.05 V 50 h 3.3 V 47 H 73.9 V 43.4 H 70.15 V 47 M 67.9,40.15 Q 67.4,40.05 66.85,40 66.3,39.95 65.7,39.95 q -1.5,0 -2.45,0.4 -0.9,0.4 -1.4,1.05 -0.5,0.65 -0.7,1.55 -0.2,0.9 -0.2,1.9 V 47 H 58.5 v 3 h 2.45 v 9.15 H 64.7 V 50 h 2.8 v -3 h -2.8 v -1.9 q 0,-1.2 0.45,-1.6 0.5,-0.4 1.35,-0.4 0.35,0 0.65,0.05 0.25,0.05 0.6,0.2 l 0.15,-3.2 M 57,47 H 53.25 V 59.15 H 57 V 47 m 0.25,-3.85 q 0,-0.9 -0.6,-1.5 Q 56,41 55.1,41 q -0.9,0 -1.55,0.65 -0.65,0.6 -0.65,1.5 0,0.9 0.65,1.55 0.65,0.65 1.55,0.65 0.9,0 1.55,-0.65 0.6,-0.65 0.6,-1.55 M 46,46.7 q -0.65,0 -1.2,0.15 -0.6,0.2 -1.05,0.45 -0.4,0.3 -0.7,0.65 -0.3,0.35 -0.4,0.7 H 42.6 v -8.4 h -3.75 v 18.9 H 42.6 V 53.1 q 0,-0.6 0.05,-1.15 0.05,-0.55 0.3,-1 0.25,-0.45 0.7,-0.7 Q 44.1,50 44.8,50 q 0.75,0 1.15,0.3 0.4,0.3 0.55,0.75 0.2,0.5 0.25,1.05 0.05,0.55 0.05,1.1 v 5.95 h 3.7 v -6.7 q 0,-1.2 -0.15,-2.25 Q 50.15,49.15 49.7,48.35 49.2,47.6 48.35,47.15 47.45,46.7 46,46.7 Z"
           id="path5203" />
      </g>
      <path
         id="use4506"
         stroke="#696969"
         stroke-width="4"
         stroke-linejoin="round"
         stroke-linecap="round"
         fill="none"
         d="m 67.7,70.95 h 13.8 q 3.6,0 3.6,-3.6 -0.95,-16.85 0,-33.8 0,-3.6 -3.6,-3.6 H 67.7 m -1.1,0 H 19.5 q -3.65,0 -3.65,3.6 1,16.95 0,33.8 0,3.6 3.65,3.6 h 47.1" />
      <path
         id="use4508"
         stroke="#1d1d1d"
         stroke-width="5"
         stroke-linejoin="round"
         stroke-linecap="round"
         fill="none"
         d="m 87.95,22.1 q 5,0 5,5 -1.1,23.4 0,46.7 0,5 -5,5 h -74.9 q -5,0 -5,-5 1.05,-23.3 0,-46.7 0,-5 5,-5 z" />
    </g>
  </g>
</svg>
