<?xml version="1.0" encoding="UTF-8" standalone="no"?>
<!-- Created with Inkscape (http://www.inkscape.org/) -->

<svg
   width="100"
   height="100"
   viewBox="0 0 26.458333 26.458333"
   version="1.1"
   id="svg918"
   inkscape:version="1.2.1 (9c6d41e410, 2022-07-14)"
   sodipodi:docname="Space_Key_Dark.svg"
   xmlns:inkscape="http://www.inkscape.org/namespaces/inkscape"
   xmlns:sodipodi="http://sodipodi.sourceforge.net/DTD/sodipodi-0.dtd"
   xmlns="http://www.w3.org/2000/svg"
   xmlns:svg="http://www.w3.org/2000/svg">
  <sodipodi:namedview
     id="namedview920"
     pagecolor="#ffffff"
     bordercolor="#000000"
     borderopacity="0.25"
     inkscape:showpageshadow="2"
     inkscape:pageopacity="0.0"
     inkscape:pagecheckerboard="true"
     inkscape:deskcolor="#d1d1d1"
     inkscape:document-units="mm"
     showgrid="false"
     inkscape:zoom="7.319248"
     inkscape:cx="91.061267"
     inkscape:cy="46.794425"
     inkscape:window-width="2560"
     inkscape:window-height="1351"
     inkscape:window-x="2391"
     inkscape:window-y="-9"
     inkscape:window-maximized="1"
     inkscape:current-layer="layer1" />
  <defs
     id="defs915" />
  <g
     inkscape:label="Layer 1"
     inkscape:groupmode="layer"
     id="layer1">
    <g
       id="g28"
       transform="matrix(0.27909634,0,0,0.27909634,-0.86519866,-0.83293504)">
      <g
         id="use22">
        <path
           fill="#353535"
           stroke="none"
           d="m 95.4,32.7 q 0,-3.8 -3.8,-3.8 H 9.35 q -3.75,0 -3.75,3.8 0.75,17.75 0,35.45 0,3.8 3.75,3.8 H 91.6 q 3.8,0 3.8,-3.8 -0.85,-17.7 0,-35.45 m -8.7,2.2 q 2.7,0 2.7,2.7 -0.7,12.85 0,25.65 0,2.75 -2.7,2.75 H 76.2 75.4 14.25 q -2.75,0 -2.75,-2.75 0.75,-12.8 0,-25.65 0,-2.7 2.75,-2.7 h 61.15 0.8 z"
           id="path1073" />
        <path
           fill="#595959"
           stroke="none"
           d="m 89.4,37.6 q 0,-2.7 -2.7,-2.7 H 76.2 75.4 14.25 q -2.75,0 -2.75,2.7 0.75,12.85 0,25.65 0,2.75 2.75,2.75 h 61.15 0.8 10.5 q 2.7,0 2.7,-2.75 -0.7,-12.8 0,-25.65 M 51.85,49.1 q -0.75,0 -1.35,0.3 -0.6,0.3 -1.1,0.85 L 47.8,48.6 q 0.85,-0.8 1.95,-1.15 1.15,-0.4 2.35,-0.4 1.3,0 2.15,0.3 0.85,0.35 1.35,1 0.5,0.65 0.7,1.55 0.2,0.95 0.2,2.15 V 57 H 53.75 V 55.8 H 53.7 q -0.5,0.75 -1.3,1.1 -0.85,0.35 -1.75,0.35 -0.7,0 -1.35,-0.2 -0.6,-0.2 -1.1,-0.55 -0.45,-0.4 -0.75,-0.95 -0.25,-0.55 -0.25,-1.3 0,-0.85 0.3,-1.45 0.3,-0.55 0.85,-0.95 0.5,-0.35 1.2,-0.6 0.65,-0.2 1.4,-0.3 0.75,-0.1 1.45,-0.1 0.75,-0.05 1.35,-0.05 0,-0.8 -0.55,-1.25 -0.6,-0.45 -1.35,-0.45 m -8.8,-1.7 q 0.9,0.4 1.55,1.05 0.6,0.65 0.95,1.6 0.35,0.9 0.35,2 0,1.05 -0.3,1.95 -0.3,0.95 -0.9,1.65 -0.55,0.75 -1.4,1.15 -0.8,0.45 -1.85,0.45 -0.95,0 -1.75,-0.3 -0.8,-0.3 -1.3,-1 h -0.05 v 5.6 h -3 V 47.3 h 2.75 v 1.25 h 0.05 q 0.15,-0.25 0.45,-0.5 0.3,-0.3 0.7,-0.5 0.35,-0.25 0.85,-0.35 0.45,-0.15 0.95,-0.15 1.1,0 1.95,0.35 M 65.3,47.35 q 0.95,0.25 1.65,1 L 65,50.4 q -0.25,-0.3 -0.65,-0.5 -0.4,-0.2 -0.85,-0.2 -1.15,0 -1.75,0.65 -0.65,0.7 -0.65,1.8 0,1.1 0.65,1.75 0.6,0.7 1.75,0.7 0.5,0 0.85,-0.2 0.4,-0.25 0.65,-0.55 l 1.95,2.1 q -0.7,0.7 -1.65,1 -0.95,0.3 -1.8,0.3 -1.1,0 -2.1,-0.35 -1,-0.4 -1.7,-1.05 -0.75,-0.65 -1.15,-1.6 -0.45,-0.95 -0.45,-2.1 0,-1.15 0.45,-2.1 0.4,-0.95 1.15,-1.6 0.7,-0.7 1.7,-1.05 1,-0.35 2.1,-0.35 0.85,0 1.8,0.3 m 5.75,0.05 q 1,-0.35 2.1,-0.35 1.05,0 1.9,0.35 0.85,0.35 1.45,1.05 0.6,0.65 0.9,1.6 0.3,0.95 0.3,2.1 v 0.95 h -6.95 q 0.2,0.85 0.8,1.35 0.6,0.5 1.45,0.5 0.75,0 1.25,-0.3 0.55,-0.35 0.9,-0.85 l 2.1,1.55 q -0.7,0.9 -1.8,1.4 -1.1,0.5 -2.3,0.5 -1.1,0 -2.1,-0.35 -1,-0.4 -1.7,-1.05 -0.75,-0.65 -1.15,-1.6 -0.45,-0.95 -0.45,-2.1 0,-1.15 0.45,-2.1 0.4,-0.95 1.15,-1.6 0.7,-0.7 1.7,-1.05 M 26.7,42.75 q 1,-0.25 2.05,-0.25 1.2,0 2.3,0.3 1.15,0.35 2.05,1.15 l -2.15,2.35 q -0.4,-0.5 -1.05,-0.7 -0.65,-0.25 -1.2,-0.25 -0.35,0 -0.7,0.1 -0.35,0.05 -0.7,0.25 -0.3,0.15 -0.5,0.45 -0.2,0.25 -0.2,0.65 0,0.65 0.45,1 0.5,0.35 1.2,0.6 0.75,0.2 1.6,0.45 0.85,0.25 1.55,0.7 0.75,0.45 1.25,1.15 0.45,0.75 0.45,2 0,1.2 -0.45,2.05 -0.4,0.9 -1.2,1.45 -0.7,0.6 -1.7,0.9 -1,0.25 -2.1,0.25 -1.4,0 -2.55,-0.4 -1.2,-0.45 -2.2,-1.35 l 2.2,-2.45 q 0.5,0.65 1.2,1 0.75,0.35 1.55,0.35 0.35,0 0.75,-0.1 0.4,-0.1 0.7,-0.3 0.3,-0.15 0.5,-0.45 Q 30,53.4 30,53 30,52.35 29.5,52 29,51.6 28.25,51.35 q -0.7,-0.25 -1.6,-0.5 -0.85,-0.25 -1.6,-0.7 -0.7,-0.45 -1.2,-1.15 -0.5,-0.75 -0.5,-1.9 0,-1.15 0.45,-2 0.45,-0.9 1.2,-1.45 0.75,-0.6 1.7,-0.9 m 46.2,6.45 q -0.5,0 -0.9,0.15 -0.4,0.15 -0.65,0.4 -0.25,0.25 -0.4,0.6 -0.15,0.35 -0.2,0.7 H 74.7 Q 74.75,50.3 74.2,49.75 73.7,49.2 72.9,49.2 m -34.8,2.95 q 0,1.1 0.65,1.75 0.6,0.7 1.75,0.7 1.15,0 1.75,-0.7 0.65,-0.65 0.65,-1.75 0,-1.1 -0.65,-1.8 -0.6,-0.65 -1.75,-0.65 -1.15,0 -1.75,0.65 -0.65,0.7 -0.65,1.8 m 14.25,2.95 q 0.4,-0.15 0.7,-0.35 0.35,-0.25 0.5,-0.55 0.2,-0.35 0.2,-0.8 V 52.75 H 53 q -0.35,0 -0.85,0 -0.5,0.05 -0.95,0.2 -0.5,0.15 -0.8,0.4 -0.35,0.3 -0.35,0.8 0,0.55 0.45,0.8 0.5,0.25 0.95,0.25 0.45,0 0.9,-0.1 z"
           id="path1075" />
        <path
           fill="#cdcdcd"
           stroke="none"
           d="m 28.75,42.5 q -1.05,0 -2.05,0.25 -0.95,0.3 -1.7,0.9 -0.75,0.55 -1.2,1.45 -0.45,0.85 -0.45,2 0,1.15 0.5,1.9 0.5,0.7 1.2,1.15 0.75,0.45 1.6,0.7 0.9,0.25 1.6,0.5 0.75,0.25 1.25,0.65 0.5,0.35 0.5,1 0,0.4 -0.2,0.65 -0.2,0.3 -0.5,0.45 -0.3,0.2 -0.7,0.3 -0.4,0.1 -0.75,0.1 -0.8,0 -1.55,-0.35 -0.7,-0.35 -1.2,-1 l -2.2,2.45 q 1,0.9 2.2,1.35 1.15,0.4 2.55,0.4 1.1,0 2.1,-0.25 1,-0.3 1.7,-0.9 0.8,-0.55 1.2,-1.45 0.45,-0.85 0.45,-2.05 0,-1.25 -0.45,-2 Q 32.15,50 31.4,49.55 30.7,49.1 29.85,48.85 29,48.6 28.25,48.4 q -0.7,-0.25 -1.2,-0.6 -0.45,-0.35 -0.45,-1 0,-0.4 0.2,-0.65 0.2,-0.3 0.5,-0.45 0.35,-0.2 0.7,-0.25 0.35,-0.1 0.7,-0.1 0.55,0 1.2,0.25 0.65,0.2 1.05,0.7 l 2.15,-2.35 q -0.9,-0.8 -2.05,-1.15 -1.1,-0.3 -2.3,-0.3 m 44.4,4.55 q -1.1,0 -2.1,0.35 -1,0.35 -1.7,1.05 -0.75,0.65 -1.15,1.6 -0.45,0.95 -0.45,2.1 0,1.15 0.45,2.1 0.4,0.95 1.15,1.6 0.7,0.65 1.7,1.05 1,0.35 2.1,0.35 1.2,0 2.3,-0.5 1.1,-0.5 1.8,-1.4 l -2.1,-1.55 q -0.35,0.5 -0.9,0.85 -0.5,0.3 -1.25,0.3 -0.85,0 -1.45,-0.5 -0.6,-0.5 -0.8,-1.35 h 6.95 v -0.95 q 0,-1.15 -0.3,-2.1 -0.3,-0.95 -0.9,-1.6 -0.6,-0.7 -1.45,-1.05 -0.85,-0.35 -1.9,-0.35 M 72,49.35 q 0.4,-0.15 0.9,-0.15 0.8,0 1.3,0.55 0.55,0.55 0.5,1.3 h -3.95 q 0.05,-0.35 0.2,-0.7 0.15,-0.35 0.4,-0.6 0.25,-0.25 0.65,-0.4 m -5.05,-1 q -0.7,-0.75 -1.65,-1 -0.95,-0.3 -1.8,-0.3 -1.1,0 -2.1,0.35 -1,0.35 -1.7,1.05 -0.75,0.65 -1.15,1.6 -0.45,0.95 -0.45,2.1 0,1.15 0.45,2.1 0.4,0.95 1.15,1.6 0.7,0.65 1.7,1.05 1,0.35 2.1,0.35 0.85,0 1.8,-0.3 0.95,-0.3 1.65,-1 L 65,53.85 q -0.25,0.3 -0.65,0.55 -0.35,0.2 -0.85,0.2 -1.15,0 -1.75,-0.7 -0.65,-0.65 -0.65,-1.75 0,-1.1 0.65,-1.8 0.6,-0.65 1.75,-0.65 0.45,0 0.85,0.2 0.4,0.2 0.65,0.5 l 1.95,-2.05 M 44.6,48.45 Q 43.95,47.8 43.05,47.4 42.2,47.05 41.1,47.05 q -0.5,0 -0.95,0.15 -0.5,0.1 -0.85,0.35 -0.4,0.2 -0.7,0.5 -0.3,0.25 -0.45,0.5 H 38.1 V 47.3 h -2.75 v 14.25 h 3 v -5.6 h 0.05 q 0.5,0.7 1.3,1 0.8,0.3 1.75,0.3 1.05,0 1.85,-0.45 0.85,-0.4 1.4,-1.15 0.6,-0.7 0.9,-1.65 0.3,-0.9 0.3,-1.95 0,-1.1 -0.35,-2 -0.35,-0.95 -0.95,-1.6 m -5.85,5.45 q -0.65,-0.65 -0.65,-1.75 0,-1.1 0.65,-1.8 0.6,-0.65 1.75,-0.65 1.15,0 1.75,0.65 0.65,0.7 0.65,1.8 0,1.1 -0.65,1.75 -0.6,0.7 -1.75,0.7 -1.15,0 -1.75,-0.7 M 50.5,49.4 q 0.6,-0.3 1.35,-0.3 0.75,0 1.35,0.45 0.55,0.45 0.55,1.25 -0.6,0 -1.35,0.05 -0.7,0 -1.45,0.1 -0.75,0.1 -1.4,0.3 -0.7,0.25 -1.2,0.6 -0.55,0.4 -0.85,0.95 -0.3,0.6 -0.3,1.45 0,0.75 0.25,1.3 0.3,0.55 0.75,0.95 0.5,0.35 1.1,0.55 0.65,0.2 1.35,0.2 0.9,0 1.75,-0.35 0.8,-0.35 1.3,-1.1 h 0.05 V 57 h 2.75 v -4.95 q 0,-1.2 -0.2,-2.15 -0.2,-0.9 -0.7,-1.55 -0.5,-0.65 -1.35,-1 -0.85,-0.3 -2.15,-0.3 -1.2,0 -2.35,0.4 -1.1,0.35 -1.95,1.15 l 1.6,1.65 q 0.5,-0.55 1.1,-0.85 m 2.55,5.35 q -0.3,0.2 -0.7,0.35 -0.45,0.1 -0.9,0.1 -0.45,0 -0.95,-0.25 -0.45,-0.25 -0.45,-0.8 0,-0.5 0.35,-0.8 0.3,-0.25 0.8,-0.4 0.45,-0.15 0.95,-0.2 0.5,0 0.85,0 h 0.75 v 0.65 q 0,0.45 -0.2,0.8 -0.15,0.3 -0.5,0.55 z"
           id="path1077" />
      </g>
      <path
         id="use24"
         stroke="#696969"
         stroke-width="4"
         stroke-linejoin="round"
         stroke-linecap="round"
         fill="none"
         d="m 76.2,66 h 10.5 q 2.7,0 2.7,-2.75 -0.7,-12.8 0,-25.65 0,-2.7 -2.7,-2.7 H 76.2 m -0.8,0 H 14.25 q -2.75,0 -2.75,2.7 0.75,12.85 0,25.65 0,2.75 2.75,2.75 H 75.4" />
      <path
         id="use26"
         stroke="#1d1d1d"
         stroke-width="5"
         stroke-linejoin="round"
         stroke-linecap="round"
         fill="none"
         d="m 91.6,28.9 q 3.8,0 3.8,3.8 -0.85,17.75 0,35.45 0,3.8 -3.8,3.8 H 9.35 q -3.75,0 -3.75,-3.8 0.75,-17.7 0,-35.45 0,-3.8 3.75,-3.8 z" />
    </g>
  </g>
</svg>
