<?xml version="1.0" encoding="UTF-8" standalone="no"?>
<!-- Created with Inkscape (http://www.inkscape.org/) -->

<svg
   width="100"
   height="100"
   viewBox="0 0 26.458333 26.458333"
   version="1.1"
   id="svg6904"
   inkscape:version="1.2.1 (9c6d41e410, 2022-07-14)"
   sodipodi:docname="Tab_Key_Dark.svg"
   xmlns:inkscape="http://www.inkscape.org/namespaces/inkscape"
   xmlns:sodipodi="http://sodipodi.sourceforge.net/DTD/sodipodi-0.dtd"
   xmlns="http://www.w3.org/2000/svg"
   xmlns:svg="http://www.w3.org/2000/svg">
  <sodipodi:namedview
     id="namedview6906"
     pagecolor="#ffffff"
     bordercolor="#000000"
     borderopacity="0.25"
     inkscape:showpageshadow="2"
     inkscape:pageopacity="0.0"
     inkscape:pagecheckerboard="true"
     inkscape:deskcolor="#d1d1d1"
     inkscape:document-units="mm"
     showgrid="false"
     inkscape:zoom="10.35098"
     inkscape:cx="80.040732"
     inkscape:cy="50.381704"
     inkscape:window-width="2560"
     inkscape:window-height="1351"
     inkscape:window-x="2391"
     inkscape:window-y="-9"
     inkscape:window-maximized="1"
     inkscape:current-layer="layer1" />
  <defs
     id="defs6901" />
  <g
     inkscape:label="Layer 1"
     inkscape:groupmode="layer"
     id="layer1">
    <g
       id="g6733"
       transform="matrix(0.29430849,0,0,0.29430849,-1.6334121,-1.6144881)">
      <g
         id="use6727">
        <path
           fill="#353535"
           stroke="none"
           d="m 92.95,27.1 q 0,-5 -5,-5 h -74.9 q -5,0 -5,5 1.05,23.4 0,46.7 0,5 5,5 h 74.9 q 5,0 5,-5 -1.1,-23.3 0,-46.7 M 81.5,29.95 q 3.6,0 3.6,3.6 -0.95,16.95 0,33.8 0,3.6 -3.6,3.6 H 67.7 66.6 19.5 q -3.65,0 -3.65,-3.6 1,-16.85 0,-33.8 0,-3.6 3.65,-3.6 h 47.1 1.1 z"
           id="path7059" />
        <path
           fill="#595959"
           stroke="none"
           d="m 85.1,33.55 q 0,-3.6 -3.6,-3.6 H 67.7 66.6 19.5 q -3.65,0 -3.65,3.6 1,16.95 0,33.8 0,3.6 3.65,3.6 h 47.1 1.1 13.8 q 3.6,0 3.6,-3.6 -0.95,-16.85 0,-33.8 M 48.65,46.7 q 1.65,0 2.7,0.4 1.05,0.45 1.7,1.2 0.65,0.85 0.9,2 0.25,1.15 0.25,2.65 v 6.2 H 50.75 V 57.6 H 50.7 q -0.6,1 -1.65,1.45 -1.05,0.4 -2.2,0.4 Q 46,59.45 45.2,59.2 44.4,59 43.85,58.5 43.2,58.05 42.85,57.35 42.5,56.6 42.5,55.7 q 0,-1.05 0.4,-1.75 0.4,-0.75 1.05,-1.2 0.65,-0.5 1.5,-0.75 0.85,-0.25 1.8,-0.4 0.9,-0.15 1.8,-0.15 0.95,-0.05 1.7,-0.05 0,-1 -0.7,-1.55 -0.75,-0.6 -1.7,-0.6 -0.9,0 -1.7,0.4 -0.75,0.4 -1.35,1.05 l -2,-2.05 q 1.05,-0.95 2.45,-1.45 1.4,-0.5 2.9,-0.5 M 44.1,41.45 v 3.45 h -5.05 v 14.25 h -3.9 V 44.9 H 30.1 v -3.45 h 14 m 16.55,6.85 h 0.05 q 0.65,-0.9 1.7,-1.25 1,-0.35 2.2,-0.35 1.25,0 2.3,0.55 1,0.5 1.75,1.45 0.7,0.9 1.1,2.05 0.35,1.15 0.35,2.45 0,1.35 -0.4,2.5 -0.45,1.15 -1.2,2 -0.8,0.85 -1.9,1.3 -1.1,0.45 -2.45,0.45 -0.65,0 -1.2,-0.15 -0.6,-0.2 -1.1,-0.45 Q 61.4,58.55 61,58.2 60.65,57.9 60.45,57.55 H 60.4 v 1.6 h -3.5 v -18.9 h 3.75 V 48.3 M 63.4,50 q -1.45,0 -2.25,0.85 -0.75,0.85 -0.75,2.25 0,1.35 0.75,2.2 0.8,0.85 2.25,0.85 1.4,0 2.2,-0.85 0.75,-0.85 0.75,-2.2 0,-1.4 -0.75,-2.25 Q 64.8,50 63.4,50 m -12.65,4.65 v -0.8 H 49.8 q -0.4,0 -1.05,0 -0.65,0.05 -1.2,0.2 -0.6,0.2 -1,0.55 -0.45,0.35 -0.45,0.95 0,0.7 0.6,1 0.55,0.35 1.2,0.35 0.55,0 1.05,-0.15 0.55,-0.15 0.9,-0.4 0.4,-0.3 0.65,-0.7 0.25,-0.45 0.25,-1 z"
           id="path7061" />
        <path
           fill="#cdcdcd"
           stroke="none"
           d="M 60.7,48.3 H 60.65 V 40.25 H 56.9 v 18.9 h 3.5 v -1.6 h 0.05 q 0.2,0.35 0.55,0.65 0.4,0.35 0.85,0.65 0.5,0.25 1.1,0.45 0.55,0.15 1.2,0.15 1.35,0 2.45,-0.45 1.1,-0.45 1.9,-1.3 0.75,-0.85 1.2,-2 0.4,-1.15 0.4,-2.5 0,-1.3 -0.35,-2.45 -0.4,-1.15 -1.1,-2.05 -0.75,-0.95 -1.75,-1.45 -1.05,-0.55 -2.3,-0.55 -1.2,0 -2.2,0.35 -1.05,0.35 -1.7,1.25 m 0.45,2.55 Q 61.95,50 63.4,50 q 1.4,0 2.2,0.85 0.75,0.85 0.75,2.25 0,1.35 -0.75,2.2 -0.8,0.85 -2.2,0.85 -1.45,0 -2.25,-0.85 -0.75,-0.85 -0.75,-2.2 0,-1.4 0.75,-2.25 M 44.1,44.9 v -3.45 h -14 v 3.45 h 5.05 v 14.25 h 3.9 V 44.9 h 5.05 m 7.25,2.2 q -1.05,-0.4 -2.7,-0.4 -1.5,0 -2.9,0.5 -1.4,0.5 -2.45,1.45 l 2,2.05 q 0.6,-0.65 1.35,-1.05 0.8,-0.4 1.7,-0.4 0.95,0 1.7,0.6 0.7,0.55 0.7,1.55 -0.75,0 -1.7,0.05 -0.9,0 -1.8,0.15 -0.95,0.15 -1.8,0.4 -0.85,0.25 -1.5,0.75 -0.65,0.45 -1.05,1.2 -0.4,0.7 -0.4,1.75 0,0.9 0.35,1.65 0.35,0.7 1,1.15 0.55,0.5 1.35,0.7 0.8,0.25 1.65,0.25 1.15,0 2.2,-0.4 1.05,-0.45 1.65,-1.45 h 0.05 v 1.55 h 3.45 v -6.2 q 0,-1.5 -0.25,-2.65 -0.25,-1.15 -0.9,-2 -0.65,-0.75 -1.7,-1.2 m -0.6,6.75 v 0.8 q 0,0.55 -0.25,1 -0.25,0.4 -0.65,0.7 -0.35,0.25 -0.9,0.4 -0.5,0.15 -1.05,0.15 -0.65,0 -1.2,-0.35 -0.6,-0.3 -0.6,-1 0,-0.6 0.45,-0.95 0.4,-0.35 1,-0.55 0.55,-0.15 1.2,-0.2 0.65,0 1.05,0 z"
           id="path7063" />
      </g>
      <path
         id="use6729"
         stroke="#696969"
         stroke-width="4"
         stroke-linejoin="round"
         stroke-linecap="round"
         fill="none"
         d="m 67.7,70.95 h 13.8 q 3.6,0 3.6,-3.6 -0.95,-16.85 0,-33.8 0,-3.6 -3.6,-3.6 H 67.7 m -1.1,0 H 19.5 q -3.65,0 -3.65,3.6 1,16.95 0,33.8 0,3.6 3.65,3.6 h 47.1" />
      <path
         id="use6731"
         stroke="#1d1d1d"
         stroke-width="5"
         stroke-linejoin="round"
         stroke-linecap="round"
         fill="none"
         d="m 87.95,22.1 q 5,0 5,5 -1.1,23.4 0,46.7 0,5 -5,5 h -74.9 q -5,0 -5,-5 1.05,-23.3 0,-46.7 0,-5 5,-5 z" />
    </g>
  </g>
</svg>
