<?xml version="1.0" encoding="UTF-8" standalone="no"?>
<!-- Created with Inkscape (http://www.inkscape.org/) -->

<svg
   width="100"
   height="100"
   viewBox="0 0 26.458333 26.458333"
   version="1.1"
   id="svg4303"
   inkscape:version="1.2.1 (9c6d41e410, 2022-07-14)"
   sodipodi:docname="Win_Key_Dark.svg"
   xmlns:inkscape="http://www.inkscape.org/namespaces/inkscape"
   xmlns:sodipodi="http://sodipodi.sourceforge.net/DTD/sodipodi-0.dtd"
   xmlns="http://www.w3.org/2000/svg"
   xmlns:svg="http://www.w3.org/2000/svg">
  <sodipodi:namedview
     id="namedview4305"
     pagecolor="#ffffff"
     bordercolor="#000000"
     borderopacity="0.25"
     inkscape:showpageshadow="2"
     inkscape:pageopacity="0.0"
     inkscape:pagecheckerboard="true"
     inkscape:deskcolor="#d1d1d1"
     inkscape:document-units="mm"
     showgrid="false"
     inkscape:zoom="7.319248"
     inkscape:cx="79.038174"
     inkscape:cy="58.954144"
     inkscape:window-width="2560"
     inkscape:window-height="1351"
     inkscape:window-x="2391"
     inkscape:window-y="-9"
     inkscape:window-maximized="1"
     inkscape:current-layer="layer1" />
  <defs
     id="defs4300" />
  <g
     inkscape:label="Layer 1"
     inkscape:groupmode="layer"
     id="layer1">
    <g
       id="g3769"
       transform="matrix(0.35802887,0,0,0.35802887,-4.8512911,-4.8358064)">
      <g
         id="use3763">
        <path
           fill="#353535"
           stroke="none"
           d="m 84.95,77.8 q -1.25,-27.3 0,-54.65 0,-5.85 -5.85,-5.85 H 21.9 q -5.85,0 -5.85,5.85 1.25,27.35 0,54.65 0,5.85 5.85,5.85 h 57.2 q 5.85,0 5.85,-5.85 M 54.15,26.45 h 1.25 16.15 q 4.25,0 4.25,4.25 -1.15,19.8 0,39.55 0,4.2 -4.25,4.2 H 55.4 54.15 29.45 q -4.25,0 -4.25,-4.2 1.15,-19.75 0,-39.55 0,-4.25 4.25,-4.25 z"
           id="path4458" />
        <path
           fill="#595959"
           stroke="none"
           d="m 55.4,26.45 h -1.25 -24.7 q -4.25,0 -4.25,4.25 1.15,19.8 0,39.55 0,4.2 4.25,4.2 h 24.7 1.25 16.15 q 4.25,0 4.25,-4.2 -1.15,-19.75 0,-39.55 0,-4.25 -4.25,-4.25 H 55.4 M 40.75,33.1 q 1.25,-0.15 2.5,-0.05 3.35,0.45 6.55,2.45 v 12.55 q -3.25,-1.8 -6.55,-2.25 -1.25,-0.1 -2.5,0 -1.15,0.25 -2.35,0.7 -1.35,0.7 -2.7,1.7 V 35.65 q 1.35,-1.05 2.7,-1.8 1.2,-0.45 2.35,-0.75 m 0,15.45 q 1.25,-0.15 2.5,-0.05 3.35,0.45 6.55,2.45 v 12.5 q -3.25,-1.85 -6.55,-2.3 -1.25,-0.1 -2.5,0 -1.15,0.25 -2.35,0.7 -1.35,0.75 -2.7,1.75 V 51.05 q 1.35,-1 2.7,-1.75 1.2,-0.45 2.35,-0.75 M 56.2,37.8 q 2.1,0.4 4.2,0.3 1.5,-0.3 3,-0.85 1.3,-0.85 2.6,-1.9 V 47.9 q -1.3,1.05 -2.6,1.9 -1.5,0.55 -3,0.85 Q 58.25,50.8 56.2,50.4 54,49.8 51.85,48.65 v -12.5 q 2.2,1.1 4.35,1.65 m 7.2,14.85 Q 64.7,51.8 66,50.75 V 63.3 q -1.3,1.05 -2.6,1.9 -1.5,0.55 -3,0.85 Q 58.25,66.2 56.2,65.8 54,65.25 51.85,64.1 V 51.55 q 2.2,1.1 4.35,1.65 2.1,0.4 4.2,0.3 1.5,-0.3 3,-0.85 z"
           id="path4460" />
        <path
           fill="#cdcdcd"
           stroke="none"
           d="m 66,50.75 q -1.3,1.05 -2.6,1.9 -1.5,0.55 -3,0.85 -2.1,0.1 -4.2,-0.3 -2.15,-0.55 -4.35,-1.65 V 64.1 q 2.15,1.15 4.35,1.7 2.05,0.4 4.2,0.25 1.5,-0.3 3,-0.85 1.3,-0.85 2.6,-1.9 V 50.75 M 60.4,38.1 q -2.1,0.1 -4.2,-0.3 -2.15,-0.55 -4.35,-1.65 v 12.5 q 2.15,1.15 4.35,1.75 2.05,0.4 4.2,0.25 1.5,-0.3 3,-0.85 1.3,-0.85 2.6,-1.9 V 35.35 q -1.3,1.05 -2.6,1.9 -1.5,0.55 -3,0.85 M 43.25,48.5 q -1.25,-0.1 -2.5,0.05 -1.15,0.3 -2.35,0.75 -1.35,0.75 -2.7,1.75 V 63.6 q 1.35,-1 2.7,-1.75 1.2,-0.45 2.35,-0.7 1.25,-0.1 2.5,0 3.3,0.45 6.55,2.3 v -12.5 q -3.2,-2 -6.55,-2.45 m 0,-15.45 q -1.25,-0.1 -2.5,0.05 -1.15,0.3 -2.35,0.75 -1.35,0.75 -2.7,1.8 V 48.2 q 1.35,-1 2.7,-1.7 1.2,-0.45 2.35,-0.7 1.25,-0.1 2.5,0 3.3,0.45 6.55,2.25 V 35.5 q -3.2,-2 -6.55,-2.45 z"
           id="path4462" />
      </g>
      <path
         id="use3765"
         stroke="#1d1d1d"
         stroke-width="5"
         stroke-linejoin="round"
         stroke-linecap="round"
         fill="none"
         d="m 84.95,23.15 q -1.25,27.35 0,54.65 0,5.85 -5.85,5.85 H 21.9 q -5.85,0 -5.85,-5.85 1.25,-27.3 0,-54.65 0,-5.85 5.85,-5.85 h 57.2 q 5.85,0 5.85,5.85 z" />
      <path
         id="use3767"
         stroke="#696969"
         stroke-width="4"
         stroke-linejoin="round"
         stroke-linecap="round"
         fill="none"
         d="m 54.15,26.45 h -24.7 q -4.25,0 -4.25,4.25 1.15,19.8 0,39.55 0,4.2 4.25,4.2 h 24.7 m 1.25,0 h 16.15 q 4.25,0 4.25,-4.2 -1.15,-19.75 0,-39.55 0,-4.25 -4.25,-4.25 H 55.4" />
    </g>
  </g>
</svg>
