<?xml version="1.0" encoding="UTF-8" standalone="no"?>
<!-- Created with Inkscape (http://www.inkscape.org/) -->

<svg
   width="100"
   height="100"
   viewBox="0 0 26.458333 26.458333"
   version="1.1"
   id="svg526"
   inkscape:version="1.2.1 (9c6d41e410, 2022-07-14)"
   sodipodi:docname="XboxSeriesX_RTsvg.svg"
   xmlns:inkscape="http://www.inkscape.org/namespaces/inkscape"
   xmlns:sodipodi="http://sodipodi.sourceforge.net/DTD/sodipodi-0.dtd"
   xmlns="http://www.w3.org/2000/svg"
   xmlns:svg="http://www.w3.org/2000/svg">
  <sodipodi:namedview
     id="namedview528"
     pagecolor="#ffffff"
     bordercolor="#000000"
     borderopacity="0.25"
     inkscape:showpageshadow="2"
     inkscape:pageopacity="0.0"
     inkscape:pagecheckerboard="true"
     inkscape:deskcolor="#d1d1d1"
     inkscape:document-units="mm"
     showgrid="false"
     inkscape:zoom="10.35098"
     inkscape:cx="86.030503"
     inkscape:cy="52.507107"
     inkscape:window-width="2560"
     inkscape:window-height="1351"
     inkscape:window-x="2391"
     inkscape:window-y="-9"
     inkscape:window-maximized="1"
     inkscape:current-layer="layer1" />
  <defs
     id="defs523" />
  <g
     inkscape:label="Layer 1"
     inkscape:groupmode="layer"
     id="layer1">
    <g
       id="g2528"
       style="display:inline"
       transform="matrix(0.31632826,0,0,0.31632826,-2.5947652,-3.1000169)">
      <g
         id="use2522">
        <path
           fill="#313131"
           stroke="none"
           d="M 84,70.6 Q 80.45,47.55 84,26.3 84.9,14.65 77.05,12.3 H 33.8 Q 16.75,14.35 15.85,30.75 v 6.4 q -0.1,3.9 0.2,7.55 0.3,4.2 1.3,8.2 0.05,0.1 0.05,0.15 1,4.35 7.15,8.1 6.25,3.7 11.3,13.35 0.5,1.05 0.95,2.1 3.45,8.4 11.55,12.1 8.2,3.35 18.6,1.7 Q 75,89.15 80.1,84.45 85.2,77.45 84,70.6 M 76.8,20.55 q 0.95,1.45 0.75,3.05 -0.3,2.85 -0.65,5.65 -0.6,4.9 -1.05,9.8 -0.25,2.5 -0.25,5.05 -0.05,4 0.1,8 0.15,3.8 0.45,7.6 0.3,3.6 0.8,7.2 0.5,3.35 0.6,6.75 0.1,5.3 -4.5,8.05 -3.9,2.35 -8.4,2.05 -2.3,-0.15 -4.5,-0.9 -2.5,-0.7 -4.15,-2.65 -1.65,-2 -3.15,-4.15 -1.9,-2.7 -3.65,-5.5 -2.5,-4 -4.25,-8.35 -1.75,-4.45 -2.9,-9 Q 41.2,49.9 40.55,46.55 39.9,43.2 39.5,39.85 39.05,36.4 38.95,33 q -0.15,-4.2 -0.4,-7 -0.2,-2.8 0.5,-4.6 0.7,-1.8 4.65,-2.7 h 29.9 q 2.45,0.8 3.2,1.85 z"
           id="path681" />
        <path
           fill="#4f4f4f"
           stroke="none"
           d="M 77.55,23.6 Q 77.75,22 76.8,20.55 76.05,19.5 73.6,18.7 H 43.7 q -3.95,0.9 -4.65,2.7 -0.7,1.8 -0.5,4.6 0.25,2.8 0.4,7 0.1,3.4 0.55,6.85 0.4,3.35 1.05,6.7 0.65,3.35 1.5,6.65 1.15,4.55 2.9,9 1.75,4.35 4.25,8.35 1.75,2.8 3.65,5.5 1.5,2.15 3.15,4.15 1.65,1.95 4.15,2.65 2.2,0.75 4.5,0.9 4.5,0.3 8.4,-2.05 4.6,-2.75 4.5,-8.05 -0.1,-3.4 -0.6,-6.75 -0.5,-3.6 -0.8,-7.2 -0.3,-3.8 -0.45,-7.6 -0.15,-4 -0.1,-8 0,-2.55 0.25,-5.05 0.45,-4.9 1.05,-9.8 0.35,-2.8 0.65,-5.65 m -19.4,4.2 q 0.45,0.9 0.45,2.2 0,1.55 -0.8,2.65 -0.8,1.15 -2.4,1.4 l 3.8,6.3 h -3.95 l -3.1,-5.95 h -1.6 v 5.95 h -3.3 V 25.5 H 53 q 1.15,0 2.15,0.2 1.05,0.2 1.8,0.75 0.75,0.5 1.2,1.35 m 0.95,0.6 v -2.9 h 11.75 v 2.9 H 66.6 V 40.35 H 63.35 V 28.4 H 59.1 m -5.5,-0.1 q -0.5,-0.05 -0.9,-0.05 h -2.15 v 3.4 h 1.9 q 0.45,0 0.95,-0.05 0.5,-0.05 0.9,-0.2 0.4,-0.15 0.65,-0.5 0.25,-0.3 0.25,-0.95 0,-0.55 -0.2,-0.9 -0.25,-0.3 -0.6,-0.5 -0.35,-0.2 -0.8,-0.25 z"
           id="path683" />
        <path
           fill="#999999"
           stroke="none"
           d="m 59.1,25.5 v 2.9 h 4.25 V 40.35 H 66.6 V 28.4 h 4.25 V 25.5 H 59.1 M 58.6,30 q 0,-1.3 -0.45,-2.2 -0.45,-0.85 -1.2,-1.35 -0.75,-0.55 -1.8,-0.75 -1,-0.2 -2.15,-0.2 h -5.75 v 14.85 h 3.3 V 34.4 h 1.6 l 3.1,5.95 h 3.95 l -3.8,-6.3 q 1.6,-0.25 2.4,-1.4 0.8,-1.1 0.8,-2.65 m -5.9,-1.75 q 0.4,0 0.9,0.05 0.45,0.05 0.8,0.25 0.35,0.2 0.6,0.5 0.2,0.35 0.2,0.9 0,0.65 -0.25,0.95 -0.25,0.35 -0.65,0.5 -0.4,0.15 -0.9,0.2 -0.5,0.05 -0.95,0.05 h -1.9 v -3.4 z"
           id="path685" />
      </g>
      <path
         id="use2524"
         stroke="#626262"
         stroke-width="4"
         stroke-linejoin="round"
         stroke-linecap="round"
         fill="none"
         d="m 43.7,18.7 q -3.95,0.9 -4.65,2.7 -0.7,1.8 -0.5,4.6 0.25,2.8 0.4,7 0.1,3.4 0.55,6.85 0.4,3.35 1.05,6.7 0.65,3.35 1.5,6.65 1.15,4.55 2.9,9 1.75,4.35 4.25,8.35 1.75,2.8 3.65,5.5 1.5,2.15 3.15,4.15 1.65,1.95 4.15,2.65 2.2,0.75 4.5,0.9 4.5,0.3 8.4,-2.05 4.6,-2.75 4.5,-8.05 -0.1,-3.4 -0.6,-6.75 -0.5,-3.6 -0.8,-7.2 -0.3,-3.8 -0.45,-7.6 -0.15,-4 -0.1,-8 0,-2.55 0.25,-5.05 0.45,-4.9 1.05,-9.8 0.35,-2.8 0.65,-5.65 Q 77.75,22 76.8,20.55 76.05,19.5 73.6,18.7 Z" />
      <path
         id="use2526"
         stroke="#1b1b1b"
         stroke-width="5"
         stroke-linejoin="round"
         stroke-linecap="round"
         fill="none"
         d="m 84,26.3 q -3.55,21.25 0,44.3 1.2,6.85 -3.9,13.85 Q 75,89.15 66.95,90.4 56.55,92.05 48.35,88.7 40.25,85 36.8,76.6 36.35,75.55 35.85,74.5 30.8,64.85 24.55,61.15 18.4,57.4 17.4,53.05 17.4,53 17.35,52.9 q -1,-4 -1.3,-8.2 -0.3,-3.65 -0.2,-7.55 v -6.4 Q 16.75,14.35 33.8,12.3 h 43.25 q 7.85,2.35 6.95,14 z" />
    </g>
  </g>
</svg>
