<?xml version="1.0" encoding="UTF-8" standalone="no"?>
<!-- Created with Inkscape (http://www.inkscape.org/) -->

<svg
   width="100"
   height="100"
   viewBox="0 0 26.458333 26.458333"
   version="1.1"
   id="svg1058"
   inkscape:version="1.2.1 (9c6d41e410, 2022-07-14)"
   sodipodi:docname="XboxSeriesX_RB.svg"
   xmlns:inkscape="http://www.inkscape.org/namespaces/inkscape"
   xmlns:sodipodi="http://sodipodi.sourceforge.net/DTD/sodipodi-0.dtd"
   xmlns="http://www.w3.org/2000/svg"
   xmlns:svg="http://www.w3.org/2000/svg">
  <sodipodi:namedview
     id="namedview1060"
     pagecolor="#ffffff"
     bordercolor="#000000"
     borderopacity="0.25"
     inkscape:showpageshadow="2"
     inkscape:pageopacity="0.0"
     inkscape:pagecheckerboard="true"
     inkscape:deskcolor="#d1d1d1"
     inkscape:document-units="mm"
     showgrid="false"
     inkscape:zoom="7.319248"
     inkscape:cx="64.419186"
     inkscape:cy="53.625727"
     inkscape:window-width="2560"
     inkscape:window-height="1351"
     inkscape:window-x="2391"
     inkscape:window-y="-9"
     inkscape:window-maximized="1"
     inkscape:current-layer="layer1" />
  <defs
     id="defs1055" />
  <g
     inkscape:label="Layer 1"
     inkscape:groupmode="layer"
     id="layer1">
    <g
       id="g5085"
       style="display:inline"
       transform="matrix(0.32148643,0,0,0.32148643,-3.4077562,-2.8449669)">
      <g
         id="use5079">
        <path
           fill="#313131"
           stroke="none"
           d="M 84.15,78.6 Q 89.5,78 90.4,72.35 V 55.95 Q 89.9,32.3 64.3,27.7 38.6,23.15 26.25,21.6 13.8,20 13.1,31.2 v 36.2 q 0.3,10.7 12.45,11.2 h 58.6 M 82.95,54 82.85,71.15 H 45.9 q -5.45,0.05 -5.6,-4.8 V 40.3 q 0.4,-7.05 8.2,-6.65 7.15,-0.2 20.2,3.95 13.05,4.05 14.25,16.4 z"
           id="path1213" />
        <path
           fill="#4f4f4f"
           stroke="none"
           d="M 82.85,71.15 82.95,54 Q 81.75,41.65 68.7,37.6 55.65,33.45 48.5,33.65 40.7,33.25 40.3,40.3 v 26.05 q 0.15,4.85 5.6,4.8 H 82.85 M 71.95,49.8 q 1.1,0.15 1.9,0.6 0.9,0.45 1.45,1.25 0.45,0.8 0.45,2.1 0,1.45 -0.75,2.35 -0.75,0.9 -2,1.25 v 0.05 q 0.8,0.2 1.45,0.45 0.65,0.4 1.1,0.9 0.5,0.5 0.75,1.25 0.3,0.65 0.3,1.45 0,1.3 -0.6,2.15 -0.55,0.9 -1.45,1.4 -0.85,0.55 -2,0.75 -1.05,0.2 -2.1,0.2 h -6.7 v -16.3 h 6.05 q 1.05,0 2.15,0.15 m -12.7,0.9 q 0.85,0.55 1.35,1.5 0.45,0.95 0.45,2.4 0,1.7 -0.85,2.85 -0.85,1.3 -2.6,1.55 l 4.1,6.85 H 57.4 L 54.05,59.4 H 52.3 v 6.45 H 48.7 V 49.7 h 6.25 q 1.3,0 2.35,0.2 1.15,0.2 1.95,0.8 m -2.1,2.85 Q 56.9,53.25 56.5,53 56.1,52.8 55.65,52.75 55.1,52.7 54.65,52.7 H 52.3 v 3.7 h 2.1 q 0.45,0 1,-0.05 0.55,-0.05 1,-0.25 0.45,-0.15 0.7,-0.55 0.25,-0.3 0.25,-1 0,-0.6 -0.2,-1 m 14.8,6 Q 71.5,59.4 71,59.25 70.5,59.2 70.05,59.2 h -2.7 v 3.7 h 3.2 q 0.45,0 0.85,-0.05 0.45,-0.1 0.8,-0.3 0.3,-0.25 0.5,-0.6 Q 73,61.55 73,61 73,60.45 72.65,60.1 72.4,59.7 71.95,59.55 M 72,55.25 q 0.2,-0.4 0.2,-0.9 0,-0.45 -0.2,-0.8 Q 71.75,53.25 71.4,53 71.1,52.85 70.65,52.8 70.2,52.7 69.8,52.7 h -2.45 v 3.45 h 2.6 q 0.4,0 0.8,-0.1 0.4,-0.05 0.7,-0.25 0.35,-0.25 0.55,-0.55 z"
           id="path1215" />
        <path
           fill="#999999"
           stroke="none"
           d="M 60.6,52.2 Q 60.1,51.25 59.25,50.7 58.45,50.1 57.3,49.9 56.25,49.7 54.95,49.7 H 48.7 v 16.15 h 3.6 V 59.4 h 1.75 l 3.35,6.45 h 4.3 L 57.6,59 q 1.75,-0.25 2.6,-1.55 0.85,-1.15 0.85,-2.85 0,-1.45 -0.45,-2.4 M 56.5,53 q 0.4,0.25 0.65,0.55 0.2,0.4 0.2,1 0,0.7 -0.25,1 -0.25,0.4 -0.7,0.55 -0.45,0.2 -1,0.25 -0.55,0.05 -1,0.05 h -2.1 v -3.7 h 2.35 q 0.45,0 1,0.05 0.45,0.05 0.85,0.25 m 17.35,-2.6 q -0.8,-0.45 -1.9,-0.6 -1.1,-0.15 -2.15,-0.15 h -6.05 v 16.3 h 6.7 q 1.05,0 2.1,-0.2 1.15,-0.2 2,-0.75 0.9,-0.5 1.45,-1.4 0.6,-0.85 0.6,-2.15 0,-0.8 -0.3,-1.45 -0.25,-0.75 -0.75,-1.25 -0.45,-0.5 -1.1,-0.9 Q 73.8,57.6 73,57.4 v -0.05 q 1.25,-0.35 2,-1.25 0.75,-0.9 0.75,-2.35 0,-1.3 -0.45,-2.1 -0.55,-0.8 -1.45,-1.25 m -1.65,3.95 q 0,0.5 -0.2,0.9 -0.2,0.3 -0.55,0.55 -0.3,0.2 -0.7,0.25 -0.4,0.1 -0.8,0.1 h -2.6 V 52.7 h 2.45 q 0.4,0 0.85,0.1 0.45,0.05 0.75,0.2 0.35,0.25 0.6,0.55 0.2,0.35 0.2,0.8 m -1.2,4.9 q 0.5,0.15 0.95,0.3 0.45,0.15 0.7,0.55 0.35,0.35 0.35,0.9 0,0.55 -0.3,0.95 -0.2,0.35 -0.5,0.6 -0.35,0.2 -0.8,0.3 -0.4,0.05 -0.85,0.05 h -3.2 v -3.7 h 2.7 q 0.45,0 0.95,0.05 z"
           id="path1217" />
      </g>
      <path
         id="use5081"
         stroke="#1b1b1b"
         stroke-width="5"
         stroke-linejoin="round"
         stroke-linecap="round"
         fill="none"
         d="M 90.4,72.35 V 55.95 Q 89.9,32.3 64.3,27.7 38.6,23.15 26.25,21.6 13.8,20 13.1,31.2 v 36.2 q 0.3,10.7 12.45,11.2 h 58.6 Q 89.5,78 90.4,72.35 Z" />
      <path
         id="use5083"
         stroke="#626262"
         stroke-width="4"
         stroke-linejoin="round"
         stroke-linecap="round"
         fill="none"
         d="m 82.95,54 -0.1,17.15 H 45.9 q -5.45,0.05 -5.6,-4.8 V 40.3 q 0.4,-7.05 8.2,-6.65 7.15,-0.2 20.2,3.95 13.05,4.05 14.25,16.4 z" />
    </g>
  </g>
</svg>
