<?xml version="1.0" encoding="UTF-8" standalone="no"?>
<!-- Created with Inkscape (http://www.inkscape.org/) -->

<svg
   width="100"
   height="100"
   viewBox="0 0 26.458333 26.458333"
   version="1.1"
   id="svg595"
   inkscape:version="1.2.1 (9c6d41e410, 2022-07-14)"
   sodipodi:docname="XboxSeriesX_Right_Stick_Click.svg"
   xmlns:inkscape="http://www.inkscape.org/namespaces/inkscape"
   xmlns:sodipodi="http://sodipodi.sourceforge.net/DTD/sodipodi-0.dtd"
   xmlns="http://www.w3.org/2000/svg"
   xmlns:svg="http://www.w3.org/2000/svg">
  <sodipodi:namedview
     id="namedview597"
     pagecolor="#ffffff"
     bordercolor="#000000"
     borderopacity="0.25"
     inkscape:showpageshadow="2"
     inkscape:pageopacity="0.0"
     inkscape:pagecheckerboard="true"
     inkscape:deskcolor="#d1d1d1"
     inkscape:document-units="mm"
     showgrid="false"
     inkscape:zoom="10.35098"
     inkscape:cx="69.027282"
     inkscape:cy="61.105326"
     inkscape:window-width="2560"
     inkscape:window-height="1351"
     inkscape:window-x="2391"
     inkscape:window-y="-9"
     inkscape:window-maximized="1"
     inkscape:current-layer="layer1" />
  <defs
     id="defs592" />
  <g
     inkscape:label="Layer 1"
     inkscape:groupmode="layer"
     id="layer1">
    <g
       id="g20788"
       style="display:inline"
       transform="matrix(0.30151947,0,0,0.30151947,-1.8544748,-2.0051044)">
      <g
         id="use20780">
        <path
           fill="#ffffff"
           stroke="none"
           d="M 50.1,17.15 60.6,6.65 h -21 z"
           id="path758" />
        <path
           fill="#272727"
           stroke="none"
           d="M 36.15,81.05 Q 30.55,79.1 30.7,76.3 v -7.5 q -1.1,0.4 -2.15,0.85 -8.9,3.9 -8.9,9.45 0,5.55 8.9,9.4 8.9,3.9 21.45,3.9 12.55,0 21.45,-3.9 8.9,-3.85 8.9,-9.4 0,-5.55 -8.9,-9.45 Q 71.4,69.6 71.3,69.6 70.35,69.2 69.35,68.85 v 7.45 q 0,2.8 -5.65,4.75 -5.7,2 -13.75,2 -8.05,0 -13.8,-2 z"
           id="path760" />
        <path
           fill="#555555"
           stroke="none"
           d="M 90.35,37.55 Q 88.9,32.75 85.75,30.65 83.2,28.75 76.9,27.3 76,27.1 75.1,26.9 64.45,24.7 50,24.7 q -15.7,0 -26.8,2.6 -8.5,1.95 -10.4,4.6 -2.05,2.1 -3.1,5.65 -2.05,8.1 6.75,12.25 4.95,2.25 9.05,3.25 5.05,1.95 5.2,7.5 v 8.25 7.5 q -0.15,2.8 5.45,4.75 5.75,2 13.8,2 8.05,0 13.75,-2 5.65,-1.95 5.65,-4.75 v -7.45 -8.3 q 0.15,-5.55 5.2,-7.5 4.1,-1 9.05,-3.25 8.8,-4.15 6.75,-12.25 M 81.7,35.3 v 0.2 q 0,2.8 -9.25,4.75 -9.35,2 -22.55,2 -13.15,0 -22.55,-2 -9.2,-1.95 -8.95,-4.75 -0.05,-0.4 0.1,-0.75 0.9,-2.3 8.85,-4 9.4,-2 22.55,-2 13.2,0 22.55,2 8,1.7 9.1,4 0.05,0.15 0.1,0.3 0.05,0.1 0.05,0.25 M 56.75,51.8 q 1.2,0.75 1.85,2.05 0.7,1.3 0.7,3.3 0,2.35 -1.25,4 -1.25,1.65 -3.55,2.05 l 5.65,9.45 h -5.9 l -4.65,-8.9 h -2.4 v 8.9 h -4.9 v -22.3 h 8.6 q 1.7,0 3.2,0.35 1.55,0.35 2.65,1.1 m -3.8,3.2 q -0.55,-0.3 -1.2,-0.4 -0.7,-0.05 -1.35,-0.05 h -3.2 v 5 h 2.85 q 0.7,0 1.4,-0.05 0.75,0 1.35,-0.25 0.6,-0.2 1,-0.7 0.35,-0.5 0.35,-1.45 0,-0.85 -0.3,-1.35 -0.35,-0.5 -0.9,-0.75 z"
           id="path762" />
        <path
           fill="#8c8c8c"
           stroke="none"
           d="m 58.6,53.85 q -0.65,-1.3 -1.85,-2.05 -1.1,-0.75 -2.65,-1.1 -1.5,-0.35 -3.2,-0.35 h -8.6 v 22.3 h 4.9 v -8.9 h 2.4 l 4.65,8.9 h 5.9 L 54.5,63.2 q 2.3,-0.4 3.55,-2.05 1.25,-1.65 1.25,-4 0,-2 -0.7,-3.3 m -6.85,0.75 q 0.65,0.1 1.2,0.4 0.55,0.25 0.9,0.75 0.3,0.5 0.3,1.35 0,0.95 -0.35,1.45 -0.4,0.5 -1,0.7 -0.6,0.25 -1.35,0.25 -0.7,0.05 -1.4,0.05 H 47.2 v -5 h 3.2 q 0.65,0 1.35,0.05 z"
           id="path764" />
        <path
           fill="#3f3f3f"
           stroke="none"
           d="m 81.7,35.5 v -0.2 q 0,-0.15 -0.05,-0.25 -0.05,-0.15 -0.1,-0.3 -1.1,-2.3 -9.1,-4 -9.35,-2 -22.55,-2 -13.15,0 -22.55,2 -7.95,1.7 -8.85,4 -0.15,0.35 -0.1,0.75 -0.25,2.8 8.95,4.75 9.4,2 22.55,2 13.2,0 22.55,-2 9.25,-1.95 9.25,-4.75 z"
           id="path766" />
      </g>
      <path
         id="use20782"
         stroke="#151515"
         stroke-width="4"
         stroke-linejoin="round"
         stroke-linecap="round"
         fill="none"
         d="M 30.7,68.8 V 60.55 Q 30.55,55 25.5,53.05 21.4,52.05 16.45,49.8 7.65,45.65 9.7,37.55 10.75,34 12.8,31.9 14.7,29.25 23.2,27.3 34.3,24.7 50,24.7 q 14.45,0 25.1,2.2 0.9,0.2 1.8,0.4 6.3,1.45 8.85,3.35 3.15,2.1 4.6,6.9 2.05,8.1 -6.75,12.25 -4.95,2.25 -9.05,3.25 -5.05,1.95 -5.2,7.5 v 8.3 q 1,0.35 1.95,0.75 0.1,0 0.15,0.05 8.9,3.9 8.9,9.45 0,5.55 -8.9,9.4 -8.9,3.9 -21.45,3.9 -12.55,0 -21.45,-3.9 -8.9,-3.85 -8.9,-9.4 0,-5.55 8.9,-9.45 1.05,-0.45 2.15,-0.85 v 7.5 q -0.15,2.8 5.45,4.75 5.75,2 13.8,2 8.05,0 13.75,-2 5.65,-1.95 5.65,-4.75 v -7.45" />
      <path
         id="use20784"
         stroke="#6c6c6c"
         stroke-width="0.1"
         stroke-linejoin="round"
         stroke-linecap="round"
         fill="none"
         d="m 81.7,35.3 q 0,-0.15 -0.05,-0.25 -0.05,-0.15 -0.1,-0.3 m -63.05,0 q -0.15,0.35 -0.1,0.75" />
      <path
         id="use20786"
         stroke="#6c6c6c"
         stroke-width="3"
         stroke-linejoin="round"
         stroke-linecap="round"
         fill="none"
         d="m 18.4,35.5 q -0.25,2.8 8.95,4.75 9.4,2 22.55,2 13.2,0 22.55,-2 9.25,-1.95 9.25,-4.75" />
    </g>
  </g>
</svg>
