<?xml version="1.0" encoding="UTF-8" standalone="no"?>
<!-- Created with Inkscape (http://www.inkscape.org/) -->

<svg
   width="100"
   height="100"
   viewBox="0 0 26.458333 26.458333"
   version="1.1"
   id="svg9532"
   inkscape:version="1.2.1 (9c6d41e410, 2022-07-14)"
   sodipodi:docname="XboxSeriesX_Dpad_Left.svg"
   xmlns:inkscape="http://www.inkscape.org/namespaces/inkscape"
   xmlns:sodipodi="http://sodipodi.sourceforge.net/DTD/sodipodi-0.dtd"
   xmlns:xlink="http://www.w3.org/1999/xlink"
   xmlns="http://www.w3.org/2000/svg"
   xmlns:svg="http://www.w3.org/2000/svg">
  <sodipodi:namedview
     id="namedview9534"
     pagecolor="#ffffff"
     bordercolor="#000000"
     borderopacity="0.25"
     inkscape:showpageshadow="2"
     inkscape:pageopacity="0.0"
     inkscape:pagecheckerboard="true"
     inkscape:deskcolor="#d1d1d1"
     inkscape:document-units="mm"
     showgrid="false"
     inkscape:zoom="7.319248"
     inkscape:cx="83.136956"
     inkscape:cy="61.276787"
     inkscape:window-width="2560"
     inkscape:window-height="1351"
     inkscape:window-x="2391"
     inkscape:window-y="-9"
     inkscape:window-maximized="1"
     inkscape:current-layer="layer1" />
  <defs
     id="defs9529">
    <linearGradient
       id="Gradient_18"
       gradientUnits="userSpaceOnUse"
       x1="34.8875"
       y1="50.55"
       x2="26.3125"
       y2="50.55"
       spreadMethod="pad">
      <stop
         offset="0%"
         stop-color="#313131"
         id="stop28371" />
      <stop
         offset="100%"
         stop-color="#D7D7D7"
         id="stop28373" />
    </linearGradient>
    <linearGradient
       id="Gradient_19"
       gradientUnits="userSpaceOnUse"
       x1="41.65"
       y1="49.95"
       x2="33.050000000000004"
       y2="49.95"
       spreadMethod="pad">
      <stop
         offset="0%"
         stop-color="#4F4F4F"
         id="stop28376" />
      <stop
         offset="100%"
         stop-color="#F5F5F5"
         id="stop28378" />
    </linearGradient>
    <linearGradient
       id="Gradient_20"
       gradientUnits="userSpaceOnUse"
       x1="38.087500000000006"
       y1="45.35"
       x2="31.812500000000004"
       y2="45.35"
       spreadMethod="pad">
      <stop
         offset="0%"
         stop-color="#626262"
         id="stop28381" />
      <stop
         offset="100%"
         stop-color="#FFFFFF"
         id="stop28383" />
    </linearGradient>
    <linearGradient
       id="Gradient_21"
       gradientUnits="userSpaceOnUse"
       x1="29.900000000000002"
       y1="45.7"
       x2="12.3"
       y2="45.7"
       spreadMethod="pad">
      <stop
         offset="0%"
         stop-color="#1B1B1B"
         id="stop28386" />
      <stop
         offset="100%"
         stop-color="#404040"
         id="stop28388" />
    </linearGradient>
    <linearGradient
       inkscape:collect="always"
       xlink:href="#Gradient_18"
       id="linearGradient9758"
       gradientUnits="userSpaceOnUse"
       x1="34.8875"
       y1="50.55"
       x2="26.3125"
       y2="50.55"
       spreadMethod="pad" />
    <linearGradient
       inkscape:collect="always"
       xlink:href="#Gradient_19"
       id="linearGradient9760"
       gradientUnits="userSpaceOnUse"
       x1="41.65"
       y1="49.95"
       x2="33.050000000000004"
       y2="49.95"
       spreadMethod="pad" />
    <linearGradient
       inkscape:collect="always"
       xlink:href="#Gradient_20"
       id="linearGradient9764"
       gradientUnits="userSpaceOnUse"
       x1="38.087500000000006"
       y1="45.35"
       x2="31.812500000000004"
       y2="45.35"
       spreadMethod="pad" />
    <linearGradient
       inkscape:collect="always"
       xlink:href="#Gradient_21"
       id="linearGradient9768"
       gradientUnits="userSpaceOnUse"
       x1="29.900000000000002"
       y1="45.7"
       x2="12.3"
       y2="45.7"
       spreadMethod="pad" />
  </defs>
  <g
     inkscape:label="Layer 1"
     inkscape:groupmode="layer"
     id="layer1">
    <g
       id="g28740"
       style="display:inline"
       transform="matrix(0.27763204,0,0,0.27763204,-0.6524353,-0.66631689)">
      <g
         id="use28732">
        <path
           fill="#1b1b1b"
           stroke="none"
           d="M 8.2,67.65 Q 11.5,75.5 18,82 q 6.55,6.55 14.45,9.85 V 67.65 H 8.2 m 20.75,18.5 q -4.5,-2.65 -8.5,-6.65 -3.9,-3.9 -6.55,-8.35 h 15.05 v 15 m 3.5,-77.9 Q 24.55,11.55 18,18.1 11.5,24.6 8.2,32.5 H 32.45 V 8.25 m -12,12.3 q 4,-3.95 8.5,-6.65 V 29 H 13.9 q 2.65,-4.5 6.55,-8.45 M 81.95,82 q 6.5,-6.5 9.75,-14.35 H 67.6 v 24.1 Q 75.45,88.5 81.95,82 M 71.1,86.1 V 71.15 h 14.95 q -2.65,4.45 -6.6,8.35 -3.9,3.95 -8.35,6.6 M 91.7,32.5 Q 88.45,24.6 81.95,18.1 75.45,11.6 67.6,8.3 V 32.5 H 91.7 M 71.1,14 q 4.45,2.65 8.35,6.55 3.95,3.95 6.6,8.45 H 71.1 Z"
           id="path9748" />
        <path
           fill="#282828"
           stroke="none"
           d="m 20.45,79.5 q 4,4 8.5,6.65 v -15 H 13.9 q 2.65,4.45 6.55,8.35 m 8.5,-65.6 q -4.5,2.7 -8.5,6.65 Q 16.55,24.5 13.9,29 H 28.95 V 13.9 M 71.1,71.15 V 86.1 q 4.45,-2.65 8.35,-6.6 3.95,-3.9 6.6,-8.35 H 71.1 m 8.35,-50.6 Q 75.55,16.65 71.1,14 v 15 h 14.95 q -2.65,-4.5 -6.6,-8.45 z"
           id="path9750" />
        <path
           fill="url(#Gradient_18)"
           stroke="none"
           d="m 91.7,67.65 q 3.4,-8.1 3.4,-17.6 0,-9.5 -3.4,-17.55 H 67.6 V 8.3 Q 59.5,4.9 49.95,4.9 40.5,4.9 32.45,8.25 V 32.5 H 8.2 q -3.35,8.05 -3.35,17.55 0,9.5 3.35,17.6 h 24.25 v 24.2 q 8.05,3.35 17.5,3.35 9.55,0 17.65,-3.45 v -24.1 h 24.1 m -4.1,-17.6 q 0,5.3 -1.25,10.1 H 67.6 q -3.1,0 -5.3,2.2 -2.2,2.2 -2.2,5.3 v 18.8 q -4.8,1.25 -10.15,1.25 -5.25,0 -10,-1.25 v -18.8 q 0,-3.1 -2.2,-5.3 -2.2,-2.2 -5.3,-2.2 H 13.6 q -1.25,-4.8 -1.25,-10.1 0,-5.3 1.25,-10.05 h 18.85 q 3.1,0 5.3,-2.2 2.2,-2.2 2.2,-5.3 V 13.6 q 4.75,-1.2 10,-1.2 5.35,0 10.15,1.25 V 32.5 q 0,3.1 2.2,5.3 2.2,2.2 5.3,2.2 h 18.75 q 1.25,4.75 1.25,10.05 z"
           id="path9752"
           style="fill:url(#linearGradient9758)" />
        <path
           fill="url(#Gradient_19)"
           stroke="none"
           d="m 86.35,60.15 q 1.25,-4.8 1.25,-10.1 0,-5.3 -1.25,-10.05 H 67.6 q -3.1,0 -5.3,-2.2 -2.2,-2.2 -2.2,-5.3 V 13.65 Q 55.3,12.4 49.95,12.4 q -5.25,0 -10,1.2 v 18.9 q 0,3.1 -2.2,5.3 -2.2,2.2 -5.3,2.2 H 13.6 q -1.25,4.75 -1.25,10.05 0,5.3 1.25,10.1 h 18.85 q 3.1,0 5.3,2.2 2.2,2.2 2.2,5.3 v 18.8 q 4.75,1.25 10,1.25 5.35,0 10.15,-1.25 v -18.8 q 0,-3.1 2.2,-5.3 2.2,-2.2 5.3,-2.2 z"
           id="path9754"
           style="fill:url(#linearGradient9760)" />
      </g>
      <path
         id="use28734"
         stroke="#1b1b1b"
         stroke-width="5"
         stroke-linejoin="round"
         stroke-linecap="round"
         fill="none"
         d="m 67.6,8.3 q 7.85,3.3 14.35,9.8 6.5,6.5 9.75,14.4 3.4,8.05 3.4,17.55 0,9.5 -3.4,17.6 Q 88.45,75.5 81.95,82 75.45,88.5 67.6,91.75 59.5,95.2 49.95,95.2 40.5,95.2 32.45,91.85 24.55,88.55 18,82 11.5,75.5 8.2,67.65 M 8.2,32.5 Q 11.5,24.6 18,18.1 24.55,11.55 32.45,8.25 40.5,4.9 49.95,4.9 59.5,4.9 67.6,8.3 v 24.2 h 24.1 m -59.25,0 V 8.25 m 0,83.6 v -24.2 m 35.15,24.1 v -24.1 h 24.1" />
      <path
         id="use28736"
         stroke="url(#Gradient_20)"
         stroke-width="4"
         stroke-linejoin="round"
         stroke-linecap="round"
         fill="none"
         d="m 86.35,40 q 1.25,4.75 1.25,10.05 0,5.3 -1.25,10.1 H 67.6 q -3.1,0 -5.3,2.2 -2.2,2.2 -2.2,5.3 v 18.8 q -4.8,1.25 -10.15,1.25 -5.25,0 -10,-1.25 v -18.8 q 0,-3.1 -2.2,-5.3 -2.2,-2.2 -5.3,-2.2 H 13.6 q -1.25,-4.8 -1.25,-10.1 0,-5.3 1.25,-10.05 h 18.85 q 3.1,0 5.3,-2.2 2.2,-2.2 2.2,-5.3 V 13.6 q 4.75,-1.2 10,-1.2 5.35,0 10.15,1.25 V 32.5 q 0,3.1 2.2,5.3 2.2,2.2 5.3,2.2 z"
         style="stroke:url(#linearGradient9764)" />
      <path
         id="use28738"
         stroke="url(#Gradient_21)"
         stroke-width="5"
         stroke-linejoin="round"
         stroke-linecap="round"
         fill="none"
         d="M 8.2,67.65 Q 4.85,59.55 4.85,50.05 4.85,40.55 8.2,32.5 H 32.45 M 8.2,67.65 h 24.25"
         style="stroke:url(#linearGradient9768)" />
    </g>
  </g>
</svg>
