<?xml version="1.0" encoding="UTF-8" standalone="no"?>
<!-- Created with Inkscape (http://www.inkscape.org/) -->

<svg
   width="100"
   height="100"
   viewBox="0 0 26.458333 26.458333"
   version="1.1"
   id="svg1120"
   inkscape:version="1.2.1 (9c6d41e410, 2022-07-14)"
   sodipodi:docname="XboxSeriesX_B.svg"
   xmlns:inkscape="http://www.inkscape.org/namespaces/inkscape"
   xmlns:sodipodi="http://sodipodi.sourceforge.net/DTD/sodipodi-0.dtd"
   xmlns="http://www.w3.org/2000/svg"
   xmlns:svg="http://www.w3.org/2000/svg">
  <sodipodi:namedview
     id="namedview1122"
     pagecolor="#ffffff"
     bordercolor="#000000"
     borderopacity="0.25"
     inkscape:showpageshadow="2"
     inkscape:pageopacity="0.0"
     inkscape:pagecheckerboard="true"
     inkscape:deskcolor="#d1d1d1"
     inkscape:document-units="mm"
     showgrid="false"
     inkscape:zoom="7.319248"
     inkscape:cx="110.59879"
     inkscape:cy="58.680892"
     inkscape:window-width="2560"
     inkscape:window-height="1351"
     inkscape:window-x="2391"
     inkscape:window-y="-9"
     inkscape:window-maximized="1"
     inkscape:current-layer="layer1" />
  <defs
     id="defs1117" />
  <g
     inkscape:label="Layer 1"
     inkscape:groupmode="layer"
     id="layer1">
    <g
       id="g13226"
       style="display:inline"
       transform="matrix(0.32704986,0,0,0.32704986,-3.1233261,-3.1396786)">
      <g
         id="use13224">
        <path
           fill="#1b1b1b"
           stroke="none"
           d="M 78.55,21.4 H 78.6 Q 66.8,9.6 50,9.6 33.25,9.6 21.35,21.4 9.55,33.25 9.55,50 q 0,16.75 11.8,28.6 v 0.05 q 11.9,11.8 28.65,11.8 16.75,0 28.55,-11.8 L 78.6,78.6 Q 90.45,66.75 90.45,50 90.45,33.2 78.55,21.4 M 50,13.6 q 15.1,0 25.75,10.65 10.7,10.65 10.7,25.75 0,15.1 -10.7,25.8 Q 65.1,86.45 50,86.45 34.9,86.45 24.2,75.8 H 24.15 Q 13.55,65.1 13.55,50 q 0,-15.1 10.6,-25.75 L 24.2,24.2 Q 34.9,13.6 50,13.6 Z"
           id="path1265" />
        <path
           fill="#313131"
           stroke="none"
           d="M 75.75,24.25 Q 65.1,13.6 50,13.6 34.9,13.6 24.2,24.2 l -0.05,0.05 Q 13.55,34.9 13.55,50 q 0,15.1 10.6,25.8 h 0.05 q 10.7,10.65 25.8,10.65 15.1,0 25.75,-10.65 10.7,-10.7 10.7,-25.8 0,-15.1 -10.7,-25.75 m -3.85,3.8 h 0.05 Q 81,37.1 81,50 81,62.85 71.95,71.95 62.85,81 50,81 37.1,81 28.05,71.95 V 71.9 Q 19,62.8 19,50 19,37.15 28.05,28.05 37.15,19 50,19 q 12.8,0 21.9,9.05 z"
           id="path1267" />
        <path
           fill="#626262"
           stroke="none"
           d="M 71.95,28.05 H 71.9 Q 62.8,19 50,19 37.15,19 28.05,28.05 19,37.15 19,50 q 0,12.8 9.05,21.9 v 0.05 Q 37.1,81 50,81 62.85,81 71.95,71.95 81,62.85 81,50 81,37.1 71.95,28.05 M 50,23 Q 61.2,23 69.1,30.9 77,38.8 77,50 77,61.15 69.1,69.1 61.15,77 50,77 38.8,77 30.9,69.1 23,61.2 23,50 23,38.8 30.85,30.9 L 30.9,30.85 Q 38.8,23 50,23 Z"
           id="path1269" />
        <path
           fill="#4f4f4f"
           stroke="none"
           d="M 69.1,30.9 Q 61.2,23 50,23 38.8,23 30.9,30.85 L 30.85,30.9 Q 23,38.8 23,50 23,61.2 30.9,69.1 38.8,77 50,77 61.15,77 69.1,69.1 77,61.15 77,50 77,38.8 69.1,30.9 m -17.75,2.35 q 2.1,0 4.15,0.3 2.15,0.3 3.8,1.15 1.65,0.9 2.7,2.45 1,1.6 1,4.2 0,2.7 -1.5,4.5 -1.5,1.75 -3.95,2.5 v 0.1 q 1.55,0.25 2.85,0.85 1.25,0.7 2.15,1.7 0.95,1 1.45,2.35 0.5,1.35 0.5,2.9 0,2.5 -1.1,4.2 -1.05,1.7 -2.8,2.7 -1.7,1.05 -3.85,1.5 -2.1,0.45 -4.2,0.45 H 39.5 V 33.25 h 11.85 m 4.6,25.1 q 0.65,-0.45 1.1,-1.15 0.45,-0.75 0.45,-1.75 0,-1.15 -0.6,-1.85 -0.55,-0.7 -1.4,-1.05 -0.85,-0.35 -1.85,-0.5 -1,-0.15 -1.85,-0.15 h -5.3 v 7.25 h 6.3 q 0.8,0 1.65,-0.15 0.85,-0.2 1.5,-0.65 M 46.5,39.15 V 46 h 5.1 q 0.8,0 1.6,-0.2 0.8,-0.15 1.4,-0.6 0.65,-0.4 1.05,-1.05 0.35,-0.7 0.35,-1.65 0,-1 -0.4,-1.65 -0.45,-0.65 -1.15,-1 -0.65,-0.35 -1.5,-0.5 -0.85,-0.2 -1.65,-0.2 z"
           id="path1271" />
        <path
           fill="#e33535"
           stroke="none"
           d="m 55.5,33.55 q -2.05,-0.3 -4.15,-0.3 H 39.5 V 65.1 h 13.05 q 2.1,0 4.2,-0.45 2.15,-0.45 3.85,-1.5 1.75,-1 2.8,-2.7 1.1,-1.7 1.1,-4.2 0,-1.55 -0.5,-2.9 Q 63.5,52 62.55,51 61.65,50 60.4,49.3 59.1,48.7 57.55,48.45 v -0.1 Q 60,47.6 61.5,45.85 63,44.05 63,41.35 63,38.75 62,37.15 60.95,35.6 59.3,34.7 57.65,33.85 55.5,33.55 M 46.5,46 v -6.85 h 4.8 q 0.8,0 1.65,0.2 0.85,0.15 1.5,0.5 0.7,0.35 1.15,1 0.4,0.65 0.4,1.65 0,0.95 -0.35,1.65 Q 55.25,44.8 54.6,45.2 54,45.65 53.2,45.8 52.4,46 51.6,46 H 46.5 M 57.05,57.2 Q 56.6,57.9 55.95,58.35 55.3,58.8 54.45,59 53.6,59.15 52.8,59.15 H 46.5 V 51.9 h 5.3 q 0.85,0 1.85,0.15 1,0.15 1.85,0.5 0.85,0.35 1.4,1.05 0.6,0.7 0.6,1.85 0,1 -0.45,1.75 z"
           id="path1273" />
      </g>
    </g>
  </g>
</svg>
