<?xml version="1.0" encoding="UTF-8" standalone="no"?>
<!-- Created with Inkscape (http://www.inkscape.org/) -->

<svg
   width="100"
   height="100"
   viewBox="0 0 26.458333 26.458333"
   version="1.1"
   id="svg2249"
   inkscape:version="1.2.1 (9c6d41e410, 2022-07-14)"
   sodipodi:docname="XboxSeriesX_X.svg"
   xmlns:inkscape="http://www.inkscape.org/namespaces/inkscape"
   xmlns:sodipodi="http://sodipodi.sourceforge.net/DTD/sodipodi-0.dtd"
   xmlns="http://www.w3.org/2000/svg"
   xmlns:svg="http://www.w3.org/2000/svg">
  <sodipodi:namedview
     id="namedview2251"
     pagecolor="#ffffff"
     bordercolor="#000000"
     borderopacity="0.25"
     inkscape:showpageshadow="2"
     inkscape:pageopacity="0.0"
     inkscape:pagecheckerboard="true"
     inkscape:deskcolor="#d1d1d1"
     inkscape:document-units="mm"
     showgrid="false"
     inkscape:zoom="10.35098"
     inkscape:cx="91.633837"
     inkscape:cy="49.319003"
     inkscape:window-width="2560"
     inkscape:window-height="1351"
     inkscape:window-x="2391"
     inkscape:window-y="-9"
     inkscape:window-maximized="1"
     inkscape:current-layer="layer1" />
  <defs
     id="defs2246" />
  <g
     inkscape:label="Layer 1"
     inkscape:groupmode="layer"
     id="layer1">
    <g
       id="g14768"
       style="display:inline"
       transform="matrix(0.32704986,0,0,0.32704986,-3.1233261,-3.1396786)">
      <g
         id="use14766">
        <path
           fill="#1b1b1b"
           stroke="none"
           d="M 78.55,21.4 H 78.6 Q 66.8,9.6 50,9.6 33.25,9.6 21.35,21.4 9.55,33.25 9.55,50 q 0,16.75 11.8,28.6 v 0.05 q 11.9,11.8 28.65,11.8 16.75,0 28.55,-11.8 L 78.6,78.6 Q 90.45,66.75 90.45,50 90.45,33.2 78.55,21.4 M 50,13.6 q 15.1,0 25.75,10.65 10.7,10.65 10.7,25.75 0,15.1 -10.7,25.8 Q 65.1,86.45 50,86.45 34.9,86.45 24.2,75.8 H 24.15 Q 13.55,65.1 13.55,50 q 0,-15.1 10.6,-25.75 L 24.2,24.2 Q 34.9,13.6 50,13.6 Z"
           id="path2394" />
        <path
           fill="#313131"
           stroke="none"
           d="M 75.75,24.25 Q 65.1,13.6 50,13.6 34.9,13.6 24.2,24.2 l -0.05,0.05 Q 13.55,34.9 13.55,50 q 0,15.1 10.6,25.8 h 0.05 q 10.7,10.65 25.8,10.65 15.1,0 25.75,-10.65 10.7,-10.7 10.7,-25.8 0,-15.1 -10.7,-25.75 m -3.85,3.8 h 0.05 Q 81,37.1 81,50 81,62.85 71.95,71.95 62.85,81 50,81 37.1,81 28.05,71.95 V 71.9 Q 19,62.8 19,50 19,37.15 28.05,28.05 37.15,19 50,19 q 12.8,0 21.9,9.05 z"
           id="path2396" />
        <path
           fill="#626262"
           stroke="none"
           d="M 71.95,28.05 H 71.9 Q 62.8,19 50,19 37.15,19 28.05,28.05 19,37.15 19,50 q 0,12.8 9.05,21.9 v 0.05 Q 37.1,81 50,81 62.85,81 71.95,71.95 81,62.85 81,50 81,37.1 71.95,28.05 M 50,23 Q 61.2,23 69.1,30.9 77,38.8 77,50 77,61.15 69.1,69.1 61.15,77 50,77 38.8,77 30.9,69.1 23,61.2 23,50 23,38.8 30.85,30.9 L 30.9,30.85 Q 38.8,23 50,23 Z"
           id="path2398" />
        <path
           fill="#4f4f4f"
           stroke="none"
           d="M 69.1,30.9 Q 61.2,23 50,23 38.8,23 30.9,30.85 L 30.85,30.9 Q 23,38.8 23,50 23,61.2 30.9,69.1 38.8,77 50,77 61.15,77 69.1,69.1 77,61.15 77,50 77,38.8 69.1,30.9 m -18.55,13.5 6.5,-11.15 h 8.5 L 55.25,48.3 66.8,65.1 H 57.95 L 50.2,52.25 42.65,65.1 H 34.3 L 45.45,48.45 34.95,33.25 h 8.8 z"
           id="path2400" />
        <path
           fill="#4196f3"
           stroke="none"
           d="m 57.05,33.25 -6.5,11.15 -6.8,-11.15 h -8.8 L 45.45,48.45 34.3,65.1 h 8.35 L 50.2,52.25 57.95,65.1 H 66.8 L 55.25,48.3 65.55,33.25 Z"
           id="path2402" />
      </g>
    </g>
  </g>
</svg>
