<?xml version="1.0" encoding="UTF-8" standalone="no"?>
<!-- Created with Inkscape (http://www.inkscape.org/) -->

<svg
   width="100"
   height="100"
   viewBox="0 0 26.458333 26.458333"
   version="1.1"
   id="svg1082"
   inkscape:version="1.2.1 (9c6d41e410, 2022-07-14)"
   sodipodi:docname="XboxSeriesX_LB.svg"
   xmlns:inkscape="http://www.inkscape.org/namespaces/inkscape"
   xmlns:sodipodi="http://sodipodi.sourceforge.net/DTD/sodipodi-0.dtd"
   xmlns="http://www.w3.org/2000/svg"
   xmlns:svg="http://www.w3.org/2000/svg">
  <sodipodi:namedview
     id="namedview1084"
     pagecolor="#ffffff"
     bordercolor="#000000"
     borderopacity="0.25"
     inkscape:showpageshadow="2"
     inkscape:pageopacity="0.0"
     inkscape:pagecheckerboard="true"
     inkscape:deskcolor="#d1d1d1"
     inkscape:document-units="mm"
     showgrid="false"
     inkscape:zoom="7.319248"
     inkscape:cx="118.38648"
     inkscape:cy="70.977237"
     inkscape:window-width="2560"
     inkscape:window-height="1351"
     inkscape:window-x="2391"
     inkscape:window-y="-9"
     inkscape:window-maximized="1"
     inkscape:current-layer="layer1" />
  <defs
     id="defs1079" />
  <g
     inkscape:label="Layer 1"
     inkscape:groupmode="layer"
     id="layer1">
    <g
       id="g4203"
       style="display:inline"
       transform="matrix(0.32148643,0,0,0.32148643,-3.4077562,-2.8449669)">
      <g
         id="use4197">
        <path
           fill="#313131"
           stroke="none"
           d="M 90.4,67.4 V 31.2 Q 89.7,20 77.25,21.6 64.9,23.15 39.2,27.7 13.6,32.3 13.1,55.95 v 16.4 Q 14,78 19.35,78.6 h 58.6 Q 90.1,78.1 90.4,67.4 M 55,33.65 q 7.8,-0.4 8.2,6.65 v 26.05 q -0.15,4.85 -5.6,4.8 H 20.65 L 20.55,54 Q 21.75,41.65 34.8,37.6 47.85,33.45 55,33.65 Z"
           id="path1237" />
        <path
           fill="#4f4f4f"
           stroke="none"
           d="M 63.2,40.3 Q 62.8,33.25 55,33.65 47.85,33.45 34.8,37.6 21.75,41.65 20.55,54 l 0.1,17.15 H 57.6 q 5.45,0.05 5.6,-4.8 V 40.3 m -29.85,9.4 v 13 H 40 v 3.25 H 29.8 V 49.7 h 3.55 m 19,0.7 q 0.9,0.45 1.45,1.25 0.45,0.8 0.45,2.1 0,1.45 -0.75,2.35 -0.75,0.9 -2,1.25 v 0.05 q 0.8,0.2 1.45,0.45 0.65,0.4 1.1,0.9 0.5,0.5 0.75,1.25 0.3,0.65 0.3,1.45 0,1.3 -0.6,2.15 -0.55,0.9 -1.45,1.4 -0.85,0.55 -2,0.75 -1.05,0.2 -2.1,0.2 h -6.7 v -16.3 h 6.05 q 1.05,0 2.15,0.15 1.1,0.15 1.9,0.6 m -4.05,2.3 h -2.45 v 3.45 h 2.6 q 0.4,0 0.8,-0.1 0.4,-0.05 0.7,-0.25 0.35,-0.25 0.55,-0.55 0.2,-0.4 0.2,-0.9 0,-0.45 -0.2,-0.8 Q 50.25,53.25 49.9,53 49.6,52.85 49.15,52.8 48.7,52.7 48.3,52.7 m 3.2,8.3 q 0,-0.55 -0.35,-0.9 Q 50.9,59.7 50.45,59.55 50,59.4 49.5,59.25 49,59.2 48.55,59.2 h -2.7 v 3.7 h 3.2 q 0.45,0 0.85,-0.05 0.45,-0.1 0.8,-0.3 0.3,-0.25 0.5,-0.6 0.3,-0.4 0.3,-0.95 z"
           id="path1239" />
        <path
           fill="#999999"
           stroke="none"
           d="m 53.8,51.65 q -0.55,-0.8 -1.45,-1.25 -0.8,-0.45 -1.9,-0.6 -1.1,-0.15 -2.15,-0.15 h -6.05 v 16.3 h 6.7 q 1.05,0 2.1,-0.2 1.15,-0.2 2,-0.75 0.9,-0.5 1.45,-1.4 0.6,-0.85 0.6,-2.15 0,-0.8 -0.3,-1.45 -0.25,-0.75 -0.75,-1.25 -0.45,-0.5 -1.1,-0.9 Q 52.3,57.6 51.5,57.4 v -0.05 q 1.25,-0.35 2,-1.25 0.75,-0.9 0.75,-2.35 0,-1.3 -0.45,-2.1 m -2.65,8.45 q 0.35,0.35 0.35,0.9 0,0.55 -0.3,0.95 -0.2,0.35 -0.5,0.6 -0.35,0.2 -0.8,0.3 -0.4,0.05 -0.85,0.05 h -3.2 v -3.7 h 2.7 q 0.45,0 0.95,0.05 0.5,0.15 0.95,0.3 0.45,0.15 0.7,0.55 m -5.3,-7.4 h 2.45 q 0.4,0 0.85,0.1 0.45,0.05 0.75,0.2 0.35,0.25 0.6,0.55 0.2,0.35 0.2,0.8 0,0.5 -0.2,0.9 -0.2,0.3 -0.55,0.55 -0.3,0.2 -0.7,0.25 -0.4,0.1 -0.8,0.1 h -2.6 V 52.7 m -12.5,10 v -13 H 29.8 V 65.95 H 40 V 62.7 Z"
           id="path1241" />
      </g>
      <path
         id="use4199"
         stroke="#1b1b1b"
         stroke-width="5"
         stroke-linejoin="round"
         stroke-linecap="round"
         fill="none"
         d="M 90.4,67.4 V 31.2 Q 89.7,20 77.25,21.6 64.9,23.15 39.2,27.7 13.6,32.3 13.1,55.95 v 16.4 Q 14,78 19.35,78.6 h 58.6 Q 90.1,78.1 90.4,67.4 Z" />
      <path
         id="use4201"
         stroke="#626262"
         stroke-width="4"
         stroke-linejoin="round"
         stroke-linecap="round"
         fill="none"
         d="m 55,33.65 q 7.8,-0.4 8.2,6.65 v 26.05 q -0.15,4.85 -5.6,4.8 H 20.65 L 20.55,54 Q 21.75,41.65 34.8,37.6 47.85,33.45 55,33.65 Z" />
    </g>
  </g>
</svg>
