<?xml version="1.0" encoding="UTF-8" standalone="no"?>
<!DOCTYPE svg PUBLIC "-//W3C//DTD SVG 1.1//EN" "http://www.w3.org/Graphics/SVG/1.1/DTD/svg11.dtd">
<svg width="100%" height="100%" viewBox="0 0 413 430" version="1.1" xmlns="http://www.w3.org/2000/svg" xmlns:xlink="http://www.w3.org/1999/xlink" xml:space="preserve" xmlns:serif="http://www.serif.com/" style="fill-rule:evenodd;clip-rule:evenodd;stroke-linejoin:round;stroke-miterlimit:2;">
    <g transform="matrix(0.32,0,0,0.32,-162.193,-59.5978)">
        <g transform="matrix(0.639255,0.36851,-0.36851,0.639255,973.708,259.659)">
            <path d="M613.78,242.191L907.202,411.598L907.202,750.413L613.78,919.82L320.358,750.413L320.358,411.598L613.78,242.191Z" style="fill:rgb(27,0,0);"/>
            <path d="M613.78,242.191L907.202,411.598L907.202,750.413L613.78,919.82L320.358,750.413L320.358,411.598L613.78,242.191ZM613.78,248.711L901.555,414.858C901.555,447.476 901.555,714.535 901.555,747.152C901.555,747.152 613.78,913.3 613.78,913.3C613.78,913.3 326.005,747.152 326.005,747.152C326.005,747.152 326.005,414.858 326.005,414.858L613.78,248.711Z" style="fill:white;"/>
        </g>
        <g transform="matrix(0.639255,0.36851,-0.36851,0.639255,973.901,713.703)">
            <path d="M613.78,242.191L907.202,411.598L907.202,750.413L613.78,919.82L320.358,750.413L320.358,411.598L613.78,242.191Z" style="fill:rgb(27,0,0);"/>
            <path d="M613.78,242.191L907.202,411.598L907.202,750.413L613.78,919.82L320.358,750.413L320.358,411.598L613.78,242.191ZM613.78,248.711L901.555,414.858C901.555,414.858 901.555,747.152 901.555,747.152C901.555,747.152 613.78,913.3 613.78,913.3C613.78,913.3 355.937,764.434 326.005,747.152C326.005,747.152 326.005,414.858 326.005,414.858L613.78,248.711Z" style="fill:rgb(240,145,145);"/>
        </g>
        <g transform="matrix(0.639255,0.36851,-0.36851,0.639255,580.683,487.027)">
            <path d="M613.78,242.191L907.202,411.598L907.202,750.413L613.78,919.82L320.358,750.413L320.358,411.598L613.78,242.191Z" style="fill:rgb(27,0,0);"/>
            <path d="M613.78,242.191L907.202,411.598L907.202,750.413L613.78,919.82L320.358,750.413L320.358,411.598L613.78,242.191ZM613.78,248.711L901.555,414.858C901.555,414.858 901.555,747.152 901.555,747.152C901.555,747.152 643.712,896.018 613.78,913.3C613.78,913.3 326.005,747.152 326.005,747.152C326.005,714.535 326.005,447.476 326.005,414.858L613.78,248.711Z" style="fill:rgb(239,238,145);"/>
        </g>
        <g transform="matrix(0.639255,0.36851,-0.36851,0.639255,1366.93,31.9146)">
            <path d="M613.78,242.191L907.202,411.598L907.202,750.413L613.78,919.82L320.358,750.413L320.358,411.598L613.78,242.191Z" style="fill:rgb(27,0,0);"/>
            <path d="M613.78,242.191L907.202,411.598L907.202,750.413L613.78,919.82L320.358,750.413L320.358,411.598L613.78,242.191ZM613.78,248.711L901.555,414.858C901.555,414.858 901.555,747.152 901.555,747.152C901.555,747.152 643.712,896.018 613.78,913.3C585.532,896.991 354.252,763.461 326.005,747.152C326.005,714.535 326.005,447.476 326.005,414.858L613.78,248.711Z" style="fill:rgb(143,143,239);"/>
        </g>
        <g transform="matrix(0.639255,0.36851,-0.36851,0.639255,973.712,-194.762)">
            <path d="M613.78,242.191L907.202,411.598L907.202,750.413L613.78,919.82L320.358,750.413L320.358,411.598L613.78,242.191Z" style="fill:rgb(27,0,0);"/>
            <path d="M613.78,242.191L907.202,411.598L907.202,750.413L613.78,919.82L320.358,750.413L320.358,411.598L613.78,242.191ZM613.78,248.711L901.555,414.858C901.555,414.858 901.555,747.152 901.555,747.152C901.555,747.152 613.78,913.3 613.78,913.3C613.78,913.3 326.005,747.152 326.005,747.152C326.005,747.152 326.005,449.421 326.005,414.858L613.78,248.711Z" style="fill:rgb(142,239,239);"/>
        </g>
        <g transform="matrix(0.639255,0.36851,-0.36851,0.639255,1366.91,486.326)">
            <path d="M613.78,242.191L907.202,411.598L907.202,750.413L613.78,919.82L320.358,750.413L320.358,411.598L613.78,242.191Z" style="fill:rgb(27,0,0);"/>
            <path d="M613.78,242.191L907.202,411.598L907.202,750.413L613.78,919.82L320.358,750.413L320.358,411.598L613.78,242.191ZM613.78,248.711L901.555,414.858C901.555,414.858 901.555,747.152 901.555,747.152C873.307,763.461 642.028,896.991 613.78,913.3C613.78,913.3 326.005,747.152 326.005,747.152C326.005,747.152 326.005,414.858 326.005,414.858L613.78,248.711Z" style="fill:rgb(239,142,239);"/>
        </g>
        <g transform="matrix(0.639255,0.36851,-0.36851,0.639255,578.598,31.8905)">
            <path d="M613.78,242.191L907.202,411.598L907.202,750.413L613.78,919.82L320.358,750.413L320.358,411.598L613.78,242.191Z" style="fill:rgb(27,0,0);"/>
            <path d="M613.78,242.191L907.202,411.598L907.202,750.413L613.78,919.82L320.358,750.413L320.358,411.598L613.78,242.191ZM613.78,248.711L901.555,414.858C901.555,414.858 901.555,747.152 901.555,747.152C901.555,747.152 613.78,913.3 613.78,913.3C613.78,913.3 355.937,764.434 326.005,747.152C326.005,747.152 326.005,449.421 326.005,414.858L613.78,248.711Z" style="fill:rgb(142,239,142);"/>
        </g>
    </g>
</svg>
