<?xml version="1.0" encoding="UTF-8" standalone="no"?>
<!DOCTYPE svg PUBLIC "-//W3C//DTD SVG 1.1//EN" "http://www.w3.org/Graphics/SVG/1.1/DTD/svg11.dtd">
<svg width="100%" height="100%" viewBox="0 0 1310 1363" version="1.1" xmlns="http://www.w3.org/2000/svg" xmlns:xlink="http://www.w3.org/1999/xlink" xml:space="preserve" xmlns:serif="http://www.serif.com/" style="fill-rule:evenodd;clip-rule:evenodd;stroke-linecap:round;stroke-linejoin:round;stroke-miterlimit:1.5;">
    <g transform="matrix(1,0,0,1,-496.437,-175.826)">
        <g transform="matrix(0.639255,0.36851,-0.36851,0.639255,973.708,259.659)">
            <path d="M613.78,242.191L907.202,411.598L907.202,750.413L613.78,919.82L320.358,750.413L320.358,411.598L613.78,242.191Z" style="fill:rgb(27,0,0);stroke:white;stroke-width:28.23px;"/>
        </g>
        <g transform="matrix(0.639255,0.36851,-0.36851,0.639255,973.901,713.703)">
            <path d="M613.78,242.191L907.202,411.598L907.202,750.413L613.78,919.82L320.358,750.413L320.358,411.598L613.78,242.191Z" style="fill:rgb(27,0,0);stroke:rgb(240,145,145);stroke-width:28.23px;"/>
        </g>
        <g transform="matrix(0.639255,0.36851,-0.36851,0.639255,580.683,487.027)">
            <path d="M613.78,242.191L907.202,411.598L907.202,750.413L613.78,919.82L320.358,750.413L320.358,411.598L613.78,242.191Z" style="fill:rgb(27,0,0);stroke:rgb(239,238,145);stroke-width:28.23px;"/>
        </g>
        <g transform="matrix(0.639255,0.36851,-0.36851,0.639255,1366.93,31.9146)">
            <path d="M613.78,242.191L907.202,411.598L907.202,750.413L613.78,919.82L320.358,750.413L320.358,411.598L613.78,242.191Z" style="fill:rgb(27,0,0);stroke:rgb(143,143,239);stroke-width:28.23px;"/>
        </g>
        <g transform="matrix(0.639255,0.36851,-0.36851,0.639255,973.712,-194.762)">
            <path d="M613.78,242.191L907.202,411.598L907.202,750.413L613.78,919.82L320.358,750.413L320.358,411.598L613.78,242.191Z" style="fill:rgb(27,0,0);stroke:rgb(142,239,239);stroke-width:28.23px;"/>
        </g>
        <g transform="matrix(0.639255,0.36851,-0.36851,0.639255,1366.91,486.326)">
            <path d="M613.78,242.191L907.202,411.598L907.202,750.413L613.78,919.82L320.358,750.413L320.358,411.598L613.78,242.191Z" style="fill:rgb(27,0,0);stroke:rgb(239,142,239);stroke-width:28.23px;"/>
        </g>
        <g transform="matrix(0.639255,0.36851,-0.36851,0.639255,578.598,31.8905)">
            <path d="M613.78,242.191L907.202,411.598L907.202,750.413L613.78,919.82L320.358,750.413L320.358,411.598L613.78,242.191Z" style="fill:rgb(27,0,0);stroke:rgb(142,239,142);stroke-width:28.23px;"/>
        </g>
    </g>
</svg>
