<?xml version="1.0" encoding="UTF-8" standalone="no"?>
<svg
   height="512"
   width="512"
   version="1.1"
   id="svg851"
   sodipodi:docname="armor_heavy.svg"
   xmlns:inkscape="http://www.inkscape.org/namespaces/inkscape"
   xmlns:sodipodi="http://sodipodi.sourceforge.net/DTD/sodipodi-0.dtd"
   xmlns="http://www.w3.org/2000/svg"
   xmlns:svg="http://www.w3.org/2000/svg">
  <defs
     id="defs855" />
  <sodipodi:namedview
     id="namedview853"
     pagecolor="#505050"
     bordercolor="#ffffff"
     borderopacity="1"
     inkscape:showpageshadow="0"
     inkscape:pageopacity="0"
     inkscape:pagecheckerboard="1"
     inkscape:deskcolor="#505050"
     showgrid="false" />
  <g
     transform="matrix(4.0618802,0,0,4.0618802,4.2649746,-12.464858)"
     id="g849">
    <path
       d="m 56.1,81.85 q 3.05,-1.05 5.3,-3 1.95,1.7 4.55,2.75 Q 75,85.15 91.5,80.65 75.35,80.2 65,74.1 L 61.9,49.3 57.45,74.2 q -10.3,6 -26.2,6.45 Q 47.1,85 56.1,81.85 M 87,24.15 q 3.3,-4.25 8.15,-6.8 25.9,11.7 29.85,35.4 h -16.05 l -3.35,22.8 q -6.5,4.7 -7.45,16.25 -0.95,11.45 -5.6,18.55 l -2.25,3.1 q -28.5,6.75 -57,0 l -2.15,-3.1 Q 26.4,103.3 25.5,91.8 24.55,80.3 18,75.6 L 14.65,52.65 H -1.05 Q 2.85,29 28.75,17.3 q 4.85,2.55 8.2,6.8 0.7,-17.45 10.75,0 v 6.4 q 0,4.2 3.45,7.15 3.45,3 8.25,3 h 4.75 q 4.9,0 8.35,-3 Q 76,34.7 76,30.5 V 24.05 Q 86,6.65 86.75,24.1 L 87,24.15"
       fill="#ffffff"
       fill-rule="evenodd"
       stroke="none"
       id="path847" />
  </g>
</svg>
