<?xml version="1.0" encoding="UTF-8" standalone="no"?>
<svg
   height="512"
   width="512"
   version="1.1"
   id="svg516"
   sodipodi:docname="halberd.svg"
   xmlns:inkscape="http://www.inkscape.org/namespaces/inkscape"
   xmlns:sodipodi="http://sodipodi.sourceforge.net/DTD/sodipodi-0.dtd"
   xmlns="http://www.w3.org/2000/svg"
   xmlns:svg="http://www.w3.org/2000/svg">
  <defs
     id="defs520" />
  <sodipodi:namedview
     id="namedview518"
     pagecolor="#505050"
     bordercolor="#ffffff"
     borderopacity="1"
     inkscape:showpageshadow="0"
     inkscape:pageopacity="0"
     inkscape:pagecheckerboard="1"
     inkscape:deskcolor="#505050"
     showgrid="false" />
  <g
     transform="matrix(11.68783,0,0,11.68783,272.94735,257.13226)"
     id="g514">
    <path
       d="m 0.85,-8.55 q -4.65,-0.5 -8.3,2.05 l 0.95,0.95 -1.8,1.75 -1,-0.95 -1.3,1.25 -0.65,-0.8 q -2.5,-0.6 -4.65,1.05 -0.4,-2.65 0.75,-5.05 l -1.1,-1.05 1.35,-1.3 -0.9,-0.95 -0.45,-0.1 -0.55,-0.1 -0.75,-1.3 -0.5,-0.9 -0.5,-0.8 -0.85,-1.3 -0.65,-1.25 -0.65,-1.2 0.7,0.5 5.85,3.65 0.2,1.1 0.85,0.95 q 1.15,-1.5 1.75,-3.2 1.05,-2.9 0.4,-6.45 2.3,0.8 4.2,2.05 5.5,3.5 8.55,10.6 l 0.35,0.95 -1.3,-0.15 m -8.1,5.75 1.75,-1.7 22.95,24.25 q 0.35,0.35 0.35,0.85 0,0.55 -0.35,0.9 -0.35,0.35 -0.9,0.3 -0.5,0 -0.85,-0.35 L -7.25,-2.8 m -2.95,-8.65 q -0.8,0 -1.45,0.65 l 2.75,2.75 q 0.6,-0.55 0.55,-1.4 0.05,-0.8 -0.5,-1.4 -0.55,-0.55 -1.35,-0.6"
       fill="#ffffff"
       fill-rule="evenodd"
       stroke="none"
       id="path512" />
  </g>
</svg>
