<?xml version="1.0" encoding="UTF-8" standalone="no"?>
<!DOCTYPE svg PUBLIC "-//W3C//DTD SVG 1.1//EN" "http://www.w3.org/Graphics/SVG/1.1/DTD/svg11.dtd">
<svg width="100%" height="100%" viewBox="0 0 319 512" version="1.1" xmlns="http://www.w3.org/2000/svg" xmlns:xlink="http://www.w3.org/1999/xlink" xml:space="preserve" xmlns:serif="http://www.serif.com/" style="fill-rule:evenodd;clip-rule:evenodd;stroke-linejoin:round;stroke-miterlimit:2;">
    <g transform="matrix(1,0,0,1,-303,-123)">
        <g transform="matrix(0.536688,0,0,0.536688,140.384,56.9874)">
            <path d="M645.25,648.43C647.879,660.477 656.723,672.047 662.781,672.047L671.672,672.106C676.461,672.106 678.093,671.781 678.656,671.567C678.429,671.543 680.55,668.051 680.875,655.067C676.422,652.211 664.496,648.117 650.945,648.117C648.644,648.106 646.75,648.25 645.25,648.43Z" style="fill:white;fill-rule:nonzero;"/>
        </g>
    </g>
    <g transform="matrix(1,0,0,1,-303,-123)">
        <g transform="matrix(0.536688,0,0,0.536688,140.384,56.9874)">
            <path d="M519.13,655.05C519.466,668.706 521.841,671.886 521.939,672.03C521.903,671.944 521.997,671.921 522.263,671.921C522.958,671.921 524.771,672.1 528.321,672.1L536.384,672.042C543.142,672.042 552.103,660.476 554.743,648.425C553.231,648.233 551.337,648.1 549.044,648.1C535.509,648.104 523.583,652.194 519.13,655.05Z" style="fill:white;fill-rule:nonzero;"/>
        </g>
    </g>
    <g transform="matrix(1,0,0,1,-303,-123)">
        <g transform="matrix(0.536688,0,0,0.536688,140.384,56.9874)">
            <path d="M600,546.48C529.656,546.48 472.43,603.707 472.43,674.05C472.43,703.257 482.102,730.784 500.403,753.648L503.333,757.308L511.649,807.023L688.349,807.023L696.666,757.308L699.595,753.648C717.896,730.777 727.568,703.25 727.568,674.05C727.572,603.706 670.345,546.48 599.998,546.48L600,546.48ZM528.324,708.11C497.039,708.11 483.07,690.684 483.07,651.614C483.07,622.837 523.535,612.11 549.047,612.11C564.742,612.11 576.418,615.852 583.774,623.235C588.801,628.286 591.551,634.946 591.528,641.993C591.383,673.169 568.141,708.04 537.227,708.04L528.324,708.11ZM623.594,761.93C621.422,762.782 619.203,763.192 616.992,763.192C609.817,763.192 603.035,758.871 600.238,751.782L600,751.153L599.746,751.778C596.961,758.856 590.172,763.188 582.992,763.188C580.785,763.188 578.563,762.782 576.391,761.926C567.137,758.278 562.602,747.836 566.239,738.586L580.087,703.426C583.29,695.313 591.728,690.836 599.97,692.301C608.227,690.836 616.661,695.301 619.853,703.426L633.701,738.586C637.38,747.828 632.833,758.281 623.596,761.93L623.594,761.93ZM716.914,651.63C716.914,690.7 702.957,708.126 671.66,708.126L663.598,708.067C631.843,708.067 608.602,673.196 608.457,642.008C608.421,634.977 611.179,628.305 616.21,623.266C623.554,615.888 635.241,612.141 650.937,612.141C676.453,612.114 716.914,622.84 716.914,651.629L716.914,651.63Z" style="fill:white;fill-rule:nonzero;"/>
        </g>
    </g>
    <g transform="matrix(1,0,0,1,-303,-123)">
        <g transform="matrix(0.536688,0,0,0.536688,140.384,56.9874)">
            <path d="M600,123C303,615.97 303,615.97 303,780C303,944.03 435.97,1077 600,1077C764.03,1077 897,944.03 897,780C897,615.97 897,615.97 600,123ZM730.66,772.34L718.828,843.02L481.188,843.02L469.356,772.34C447.805,743.793 436.442,709.902 436.442,674.047C436.442,583.856 509.821,510.477 600.012,510.477C690.203,510.477 763.582,583.856 763.582,674.047C763.57,709.902 752.207,743.781 730.656,772.34L730.66,772.34Z" style="fill:white;fill-rule:nonzero;"/>
        </g>
    </g>
</svg>
