<?xml version="1.0" encoding="UTF-8" standalone="no"?>
<svg
   height="512"
   width="512"
   version="1.1"
   id="svg770"
   sodipodi:docname="katana.svg"
   xmlns:inkscape="http://www.inkscape.org/namespaces/inkscape"
   xmlns:sodipodi="http://sodipodi.sourceforge.net/DTD/sodipodi-0.dtd"
   xmlns="http://www.w3.org/2000/svg"
   xmlns:svg="http://www.w3.org/2000/svg">
  <defs
     id="defs774" />
  <sodipodi:namedview
     id="namedview772"
     pagecolor="#505050"
     bordercolor="#ffffff"
     borderopacity="1"
     inkscape:showpageshadow="0"
     inkscape:pageopacity="0"
     inkscape:pagecheckerboard="1"
     inkscape:deskcolor="#505050"
     showgrid="false" />
  <g
     id="g768"
     transform="matrix(4.3585301,0,0,4.3585301,-1.8070525,1.616135)">
    <path
       d="m 90.1,81.25 q 0.1,0.2 0.15,0.45 0.05,0.2 0.1,0.4 0.05,0.2 0.1,0.4 0.05,0.25 0.05,0.45 0.05,0.2 0.05,0.4 0,0.2 0,0.4 0,0.2 0,0.4 0,0.2 -0.05,0.35 0,0.15 -0.05,0.3 0,0.1 -0.05,0.25 -0.05,0.15 -0.1,0.25 0,0.15 -0.1,0.25 -0.05,0.15 -0.1,0.3 -0.05,0.1 -0.15,0.25 -0.05,0.1 -0.15,0.2 -0.05,0.15 -0.15,0.25 l -3.5,4.5 q 1.5,1.05 3.15,2.1 1.65,1.05 3.45,2.1 1.75,1 3.7,2.05 1.85,1.05 3.85,2.1 2,1 4.1,2.05 2.1,1 4.3,2 2.15,1 4.4,2 2.25,0.95 4.6,1.9 l -3.7,9.75 q -2.35,-0.95 -4.5,-1.85 -2.25,-1 -4.35,-1.95 -2.2,-1 -4.25,-2 -2.15,-1 -4.2,-2.1 -2.05,-1.05 -4.1,-2.2 -2.05,-1.15 -4.1,-2.35 -2.05,-1.25 -4.1,-2.55 -2.05,-1.3 -4.15,-2.7 l -4.5,5.35 q -0.2,0.25 -0.45,0.5 -0.2,0.25 -0.5,0.45 -0.25,0.2 -0.55,0.35 -0.3,0.15 -0.6,0.25 -0.35,0.15 -0.7,0.2 -0.35,0.1 -0.7,0.15 -0.4,0.05 -0.8,0.05 -0.4,0 -0.85,0 -0.2,0 -0.4,-0.05 -0.2,0 -0.4,-0.05 -0.25,0 -0.45,-0.05 -0.2,-0.05 -0.4,-0.1 -0.2,-0.05 -0.45,-0.1 -0.2,-0.05 -0.4,-0.15 -0.25,-0.05 -0.45,-0.15 -0.2,-0.05 -0.45,-0.15 -0.2,-0.05 -0.35,-0.15 -0.2,-0.05 -0.4,-0.15 -0.2,-0.1 -0.35,-0.2 -0.2,-0.05 -0.4,-0.2 -0.2,-0.1 -0.4,-0.2 -0.2,-0.1 -0.4,-0.25 -0.2,-0.1 -0.4,-0.25 -0.2,-0.15 -0.4,-0.3 L 72,94.3 Q 67.15,91 61.9,86.95 56.4,82.7 50.95,77.95 45.2,72.95 39.8,67.65 34.1,62.05 29,56.4 23.6,50.35 19.1,44.45 14.35,38.15 10.7,32.15 6.85,25.75 4.35,19.8 1.7,13.5 0.6,7.75 l 3.55,-8 q 2.4,6.5 5.8,13 3.25,6.2 7.4,12.45 3.9,5.9 8.65,11.85 4.45,5.55 9.65,11.15 4.85,5.25 10.35,10.45 5.1,4.9 10.7,9.75 5.2,4.45 10.8,8.9 5.15,4.05 10.6,8.1 l 7.95,-9.95 q 0.4,0.3 0.75,0.6 0.4,0.35 0.7,0.65 0.35,0.35 0.6,0.7 0.3,0.35 0.55,0.7 0.25,0.35 0.5,0.75 0.2,0.35 0.4,0.75 0.15,0.4 0.3,0.8 0.15,0.4 0.25,0.85"
       fill="#ffffff"
       fill-rule="evenodd"
       stroke="none"
       id="path766" />
  </g>
</svg>
