<?xml version="1.0" encoding="UTF-8" standalone="no"?>
<svg
   height="512"
   width="512"
   version="1.1"
   id="svg266"
   sodipodi:docname="potion_frost_resist.svg"
   xmlns:inkscape="http://www.inkscape.org/namespaces/inkscape"
   xmlns:sodipodi="http://sodipodi.sourceforge.net/DTD/sodipodi-0.dtd"
   xmlns="http://www.w3.org/2000/svg"
   xmlns:svg="http://www.w3.org/2000/svg">
  <defs
     id="defs270" />
  <sodipodi:namedview
     id="namedview268"
     pagecolor="#505050"
     bordercolor="#ffffff"
     borderopacity="1"
     inkscape:showpageshadow="0"
     inkscape:pageopacity="0"
     inkscape:pagecheckerboard="1"
     inkscape:deskcolor="#505050"
     showgrid="false" />
  <g
     transform="translate(12,20.75)"
     id="g264">
    <path
       d="m 261.25072,-20.75 q 20.35662,0 20.35662,20.97349256 V 8.8596379 h 14.80482 q 6.78554,0 11.72048,5.5518071 l 4.93494,14.187952 q 0,8.019276 -4.93494,14.804819 l -8.63614,6.168674 -4.93494,9.253012 -6.78554,0.616868 h -0.61686 v 64.15422 Q 395.72783,187.7512 391.40975,264.24277 385.24108,383.29819 345.14469,491.25 H 142.81216 Q 103.33264,385.76566 96.547099,266.71024 92.845894,190.21867 201.41458,125.44758 V 59.44277 h -0.61688 q -5.5518,0 -8.01927,-3.084337 l -3.08434,-6.785543 q -6.78554,-0.616867 -10.48674,-6.168674 -4.93494,-6.785543 -4.93494,-14.804819 l 4.93494,-14.187952 q 4.93494,-5.5518071 11.10361,-5.5518071 h 16.03856 V 0.22349256 Q 206.34952,-20.75 225.4724,-20.75 h 35.77832 m -1.85061,229.47469 q -6.78553,-6.16867 -15.42168,-6.16867 -8.01928,0 -13.57108,6.16867 l -6.16868,14.18796 q 0,8.63615 6.78554,16.65542 l 6.78555,2.46747 v 58.60241 l -9.25301,-15.42168 1.8506,-3.08435 q 1.23373,-4.31806 -1.23374,-8.63614 -3.70121,-7.40241 -14.18795,-3.08433 l -3.7012,5.5518 1.23373,8.01928 q 2.46747,4.93494 6.78554,4.93494 h 3.7012 l 8.01928,14.18795 -51.2,-28.37591 v -6.78553 q -2.46747,-8.63615 -9.25301,-12.95423 -6.78554,-4.31806 -14.80482,-2.46747 -8.01928,1.23374 -11.72049,8.63615 -4.93494,7.40241 -3.08433,16.03855 l 9.86988,11.72049 q 9.86988,3.70121 17.88915,0 l 3.08435,-1.8506 52.43373,28.3759 h -17.88915 l -1.23374,-3.08434 q -1.85061,-3.08433 -6.78555,-3.08433 -11.10361,0 -11.10361,9.86988 0,10.48674 11.10361,10.48674 l 7.40241,-3.08433 0.61688,-3.70121 h 17.27229 l -51.81687,28.99277 -4.31807,-1.8506 -16.65543,1.8506 q -6.78555,4.31808 -8.63615,11.72049 l 1.8506,14.80481 11.72049,9.25302 15.42168,-1.85061 q 8.01929,-3.70121 9.86988,-15.42168 0.61688,-4.31807 -0.61686,-6.16868 l 51.2,-28.99277 -8.63615,15.42168 h -4.31806 l -6.16868,4.93495 q -5.55181,8.01928 3.70121,13.57108 8.63614,4.93494 12.95421,-3.08433 3.08433,-4.31808 1.23374,-9.25302 l -1.23374,-1.8506 -0.61686,-0.61687 9.25301,-16.03856 v 58.60241 l -3.08435,1.23374 -3.7012,1.85061 q -6.78554,6.16867 -6.78554,16.65541 l 6.16868,13.57109 q 5.5518,6.78554 13.57108,6.78554 8.63615,0 15.42168,-6.78554 l 5.55182,-13.57109 q 0,-9.86988 -6.16868,-15.42168 l -6.78555,-4.31808 v -56.7518 l 8.63615,14.18795 -1.8506,2.46747 q -3.08434,4.31808 0.61686,9.25302 5.55182,8.01927 14.18796,3.08433 7.40241,-5.5518 3.08433,-13.57108 l -6.16867,-4.93495 h -3.70121 l -9.253,-15.42168 49.96626,28.99277 v 6.16868 q 1.23374,10.48674 10.48674,15.42168 l 14.80482,2.46747 q 8.63615,-2.46747 12.95423,-9.86988 4.31806,-8.01927 1.85059,-16.03855 -1.85059,-8.01928 -9.253,-12.33735 l -16.03856,-1.23373 -3.7012,1.23373 q -1.85061,0 -3.08435,1.8506 l -49.34939,-28.99277 h 16.65542 l 1.23373,3.70121 q 1.85061,3.08433 7.40241,3.08433 9.86989,0 9.86989,-10.48674 0,-9.86988 -9.86989,-9.86988 -4.31806,0 -7.40241,3.08433 l -1.23373,3.08434 h -17.27229 l 48.73253,-28.3759 3.7012,2.46747 3.08435,1.23373 8.63614,1.23374 8.01927,-3.08434 q 8.01929,-3.7012 9.86988,-11.72049 1.85061,-8.63614 -1.85059,-16.03855 -4.31808,-7.40241 -12.95423,-9.25301 l -14.80482,1.23374 q -9.253,5.5518 -10.48674,14.80482 v 3.08433 3.7012 l -49.96626,28.99278 8.63614,-14.80482 h 4.31807 l 6.16867,-4.93494 1.23374,-8.01928 -4.31807,-5.5518 q -9.25302,-4.31808 -14.18796,3.08433 -3.08433,4.31808 -0.61686,8.63614 l 1.23374,3.08435 -8.01929,13.57108 v -56.75181 l 6.78555,-3.08433 q 6.16868,-7.40241 6.16868,-16.03856 l -5.55182,-14.18796"
       fill="#1ffbff"
       fill-rule="evenodd"
       stroke="none"
       id="path262"
       style="stroke-width:12.3374" />
  </g>
</svg>
