<?xml version="1.0" encoding="UTF-8" standalone="no"?>
<svg
   height="512"
   width="512"
   version="1.1"
   id="svg139"
   sodipodi:docname="potion_fire_resist.svg"
   xmlns:inkscape="http://www.inkscape.org/namespaces/inkscape"
   xmlns:sodipodi="http://sodipodi.sourceforge.net/DTD/sodipodi-0.dtd"
   xmlns="http://www.w3.org/2000/svg"
   xmlns:svg="http://www.w3.org/2000/svg">
  <defs
     id="defs143" />
  <sodipodi:namedview
     id="namedview141"
     pagecolor="#505050"
     bordercolor="#ffffff"
     borderopacity="1"
     inkscape:showpageshadow="0"
     inkscape:pageopacity="0"
     inkscape:pagecheckerboard="1"
     inkscape:deskcolor="#505050"
     showgrid="false" />
  <g
     transform="matrix(12.337349,0,0,12.337349,256.61641,256)"
     id="g137">
    <path
       d="m 3,-19 v 0.7 h 1.2 q 0.55,0 0.95,0.4 l 0.35,1.15 q 0,0.65 -0.35,1.25 l -0.75,0.45 -0.3,0.55 -0.05,0.2 -0.55,0.1 H 3.45 v 5.15 q 8.75,5.15 8.4,11.4 -0.5,9.6 -3.75,18.4 H -8.25 q -3.2,-8.6 -3.7,-18.25 -0.35,-6.2 8.45,-11.4 v -5.3 h -0.05 q -0.45,0 -0.65,-0.3 l -0.25,-0.55 Q -5,-15.1 -5.3,-15.5 q -0.45,-0.6 -0.45,-1.25 l 0.45,-1.15 q 0.4,-0.4 0.9,-0.4 h 1.3 V -19 q 0,-1.75 1.55,-1.75 h 2.9 Q 3,-20.75 3,-19 M 3.45,7.7 Q 4.9,4.4 2.35,0.85 -0.15,-2.8 0.1,-3.9 -2.5,-2.25 -2,0.65 q 1.4,3.25 -0.7,4.5 0.35,-1.75 -0.7,-3.2 -1.05,2.4 -2.9,4.6 -1.85,2.85 2.5,7 -0.6,-1.85 0.8,-3 2.05,-1.7 3.35,-3.95 0.6,2.5 -1.1,5 -1.7,2.5 -0.05,6 0.05,-1.95 5.05,-5.2 5.05,-3.2 0.9,-10.45 0.5,4.2 -1.7,5.75"
       fill="#c73636"
       fill-rule="evenodd"
       stroke="none"
       id="path135" />
  </g>
</svg>
