<?xml version="1.0" encoding="UTF-8" standalone="no"?>
<svg
   height="512"
   width="512"
   version="1.1"
   id="svg1161"
   sodipodi:docname="pike.svg"
   xmlns:inkscape="http://www.inkscape.org/namespaces/inkscape"
   xmlns:sodipodi="http://sodipodi.sourceforge.net/DTD/sodipodi-0.dtd"
   xmlns="http://www.w3.org/2000/svg"
   xmlns:svg="http://www.w3.org/2000/svg">
  <defs
     id="defs1165" />
  <sodipodi:namedview
     id="namedview1163"
     pagecolor="#505050"
     bordercolor="#ffffff"
     borderopacity="1"
     inkscape:showpageshadow="0"
     inkscape:pageopacity="0"
     inkscape:pagecheckerboard="1"
     inkscape:deskcolor="#505050"
     showgrid="false" />
  <g
     id="g1159"
     transform="matrix(4.4386649,0,0,4.4386649,1.8925e-6,0.22193514)">
    <path
       d="m 115.35,105.8 q 0,0 -2.7,-2.7 -2.7,-2.7 -2.7,-2.7 0,0 5.4,5.4 l -9.45,9.45 Q 90.6,99.9 69.4,78.95 41.7,51.6 33.5,43.5 33.45,43.45 33.35,43.7 33.2,43.9 33,44.35 q -0.2,0.45 -0.35,1.05 -0.25,0.7 -0.45,1.45 -0.2,0.85 -0.35,1.7 -0.2,1 -0.3,1.95 -0.15,1.05 -0.15,2.05 -0.05,1.1 0.05,2.1 0.1,1 0.4,2.2 0.35,1.1 0.85,2.3 0.45,1.1 1.1,2.25 0.55,1.05 1.25,2.15 0.55,0.9 1.2,1.85 0.5,0.75 1,1.5 0.4,0.5 0.75,0.95 0.1,0.2 0.25,0.35 -0.8,0.45 -2.35,0.55 -1.4,0.05 -3.4,-0.2 Q 30.65,68.3 28.35,67.8 26.25,67.3 23.9,66.6 21.7,65.95 19.55,65.2 17.45,64.45 15.65,63.7 13.85,62.95 12.6,62.3 11.3,61.6 10.8,61.15 10.25,60.6 9.65,59.45 9,58.35 8.35,56.8 7.75,55.25 7.15,53.45 6.55,51.6 6.05,49.7 5.55,47.75 5.25,45.9 4.9,44 4.8,42.4 q -0.1,-1.75 0.1,-3 0.2,-1.35 0.7,-2.1 0,0 0.3,0.25 0.4,0.3 0.9,0.6 0.65,0.45 1.3,0.9 0.85,0.5 1.7,0.95 1,0.55 2,0.95 1.1,0.45 2.1,0.75 1.15,0.35 2.25,0.5 1.15,0.15 2.2,0 0.9,-0.1 1.85,-0.3 0.85,-0.2 1.8,-0.5 0.85,-0.3 1.7,-0.65 0.75,-0.3 1.5,-0.7 0.65,-0.3 1.25,-0.65 0.55,-0.3 0.95,-0.6 0.4,-0.25 0.6,-0.45 0.15,-0.15 0.1,-0.2 -1.7,-1.75 -5.7,-5.7 L 13.15,31.4 0,0 l 30.9,14.95 1.45,7.9 6.5,6.45 13.8,-9.85 -9.1,14.55 71.8,71.8"
       fill="#ffffff"
       fill-rule="evenodd"
       stroke="none"
       id="path1157" />
  </g>
</svg>
