<?xml version="1.0" encoding="UTF-8" standalone="no"?>
<svg
   height="512"
   width="512"
   version="1.1"
   id="svg139"
   sodipodi:docname="staff.svg"
   xmlns:inkscape="http://www.inkscape.org/namespaces/inkscape"
   xmlns:sodipodi="http://sodipodi.sourceforge.net/DTD/sodipodi-0.dtd"
   xmlns="http://www.w3.org/2000/svg"
   xmlns:svg="http://www.w3.org/2000/svg">
  <defs
     id="defs143" />
  <sodipodi:namedview
     id="namedview141"
     pagecolor="#505050"
     bordercolor="#ffffff"
     borderopacity="1"
     inkscape:showpageshadow="0"
     inkscape:pageopacity="0"
     inkscape:pagecheckerboard="1"
     inkscape:deskcolor="#505050"
     showgrid="false" />
  <g
     transform="matrix(0.51205769,0,0,0.51205769,137.767,-5.8422103)"
     id="g137">
    <path
       d="m 121.25,205.6 q 0.25,0.2 -0.5,0.95 0,28.6 -9,54.75 -15.1,39.6 -0.25,54.65 l 50.9,50.9 33.85,-33.85 38.85,38.65 -41.35,41.4 537.1,537.05 -55.95,55.7 -537.05,-536.85 -42.2,42.15 -38.85,-38.55 31.8,-31.9 -64.7,-65 q -49.1,-46.9 -8.25,-91.55 29.9,-33.35 29.6,-80.05 0,-49.65 -35.15,-84.75 -35.05,-35.15 -84.75,-35.15 -49.7,0.3 -84.75,35.15 -35.15,35.35 -35.15,84.75 0,49.95 35.15,85.05 5.95,6 12.55,11.25 25.75,21.7 8.75,49.7 -18.1,31.6 -44.7,18.1 -15.8,-10.55 -29.85,-24.6 -56.9,-56.95 -56.4,-137.45 -0.25,-54.7 25.6,-97.8 12.3,-21.65 31.35,-40.45 19.8,-20 43.15,-32.65 42.1,-24 94.55,-23.8 81,-0.75 137.95,56.25 57.2,57.15 57.7,137.95"
       fill="#ffffff"
       fill-rule="evenodd"
       stroke="none"
       id="path135" />
  </g>
</svg>
