<?xml version="1.0" encoding="UTF-8" standalone="no"?>
<!DOCTYPE svg PUBLIC "-//W3C//DTD SVG 1.1//EN" "http://www.w3.org/Graphics/SVG/1.1/DTD/svg11.dtd">
<svg width="100%" height="100%" viewBox="0 0 510 512" version="1.1" xmlns="http://www.w3.org/2000/svg" xmlns:xlink="http://www.w3.org/1999/xlink" xml:space="preserve" xmlns:serif="http://www.serif.com/" style="fill-rule:evenodd;clip-rule:evenodd;stroke-linejoin:round;stroke-miterlimit:2;">
    <g transform="matrix(1,0,0,1,-75.0387,-71.9196)">
        <g transform="matrix(0.484862,0,0,0.484862,38.6553,37.0485)">
            <path d="M963.47,488.37L1016.91,497.065C1020.58,497.675 1024.2,495.69 1025.65,492.261C1034.88,470.581 1070.18,393.097 1122.31,340.201C1125.05,337.451 1125.71,333.251 1123.95,329.791C1122.19,326.33 1118.41,324.392 1114.57,324.99C1041.07,336.123 957.702,319.084 934.712,313.834C931.087,312.994 927.356,314.748 925.688,318.076L901.336,366.428C900.161,368.725 900.141,371.444 901.286,373.752C902.434,376.065 904.61,377.694 907.149,378.147C955.571,386.725 963.282,411.663 963.282,411.663C963.282,411.663 979.009,432.616 957.493,476.819C956.38,479.123 956.419,481.815 957.594,484.088C958.77,486.362 960.946,487.948 963.469,488.373L963.47,488.37Z" style="fill:white;fill-rule:nonzero;"/>
            <path d="M878.23,427.55L292.01,726.28C286.991,728.839 281.397,730.05 275.768,729.796L187.104,726.046C180.901,725.815 174.792,727.643 169.737,731.249L81.284,793.382C78.319,795.464 76.229,798.569 75.417,802.096C74.6,805.624 75.116,809.331 76.866,812.502C78.616,815.674 81.475,818.088 84.893,819.28L110.979,828.42C116.483,830.346 121.034,834.319 123.682,839.514C126.331,844.71 126.878,850.725 125.206,856.311L117.19,882.795C116.167,886.248 116.444,889.959 117.975,893.221C119.506,896.483 122.182,899.069 125.495,900.487C128.807,901.905 132.522,902.057 135.94,900.913L238.27,865.944C244.133,863.924 249.172,860.038 252.614,854.882L301.669,780.913C304.786,776.233 309.055,772.428 314.067,769.874L502.037,674.085L396.497,888.285C394.001,893.332 390.247,897.648 385.599,900.824L312.287,950.84C307.166,954.336 303.341,959.43 301.412,965.324L267.756,1068.09C266.631,1071.54 266.818,1075.27 268.275,1078.59C269.736,1081.91 272.365,1084.57 275.666,1086.06C278.963,1087.56 282.697,1087.79 286.154,1086.7L312.521,1078.43C318.091,1076.66 324.126,1077.12 329.369,1079.7C334.611,1082.28 338.65,1086.79 340.646,1092.28L350.021,1118.25C351.271,1121.64 353.724,1124.46 356.915,1126.16C360.107,1127.86 363.814,1128.33 367.329,1127.47C370.841,1126.61 373.919,1124.49 375.966,1121.51L437.044,1032.26C440.56,1027.15 442.275,1021.01 441.919,1014.82L436.997,926.203C436.693,920.586 437.841,914.984 440.325,909.937L575.045,636.867L900.455,471.097C908.076,467.035 912.994,459.257 913.393,450.632C913.792,442.003 909.612,433.808 902.397,429.062C895.182,424.316 886.002,423.722 878.237,427.504L878.23,427.55Z" style="fill:white;fill-rule:nonzero;"/>
            <path d="M815.62,74.742C763.401,127.64 686.39,163.804 664.82,173.39C661.402,174.886 659.461,178.534 660.132,182.202L669.507,235.499C669.945,238.05 671.57,240.238 673.886,241.39C676.203,242.546 678.929,242.523 681.226,241.335C725.148,219.233 746.312,234.679 746.312,234.679C746.312,234.679 771.437,242.085 780.648,290.367C781.121,292.891 782.765,295.043 785.074,296.164C787.383,297.289 790.09,297.25 792.367,296.063L840.367,271.079C843.683,269.368 845.394,265.61 844.515,261.985C838.961,239.087 820.82,155.935 831.015,82.285C831.625,78.398 829.629,74.57 826.097,72.836C822.566,71.105 818.316,71.875 815.617,74.738L815.62,74.742Z" style="fill:white;fill-rule:nonzero;"/>
            <path d="M598.5,517.97L636,498.892C642.344,495.669 647.473,490.482 650.625,484.103L731.086,320.953C734.043,315.184 734.656,308.492 732.797,302.281C730.934,296.07 726.746,290.82 721.102,287.625C715.262,284.508 708.407,283.895 702.106,285.926C695.805,287.961 690.598,292.465 687.68,298.406L585.66,505.196C583.855,508.876 584.597,513.297 587.504,516.188C590.41,519.078 594.832,519.793 598.504,517.969L598.5,517.97Z" style="fill:white;fill-rule:nonzero;"/>
        </g>
    </g>
</svg>
