<?xml version="1.0" encoding="UTF-8"?>
<svg width="512pt" height="512pt" version="1.1" viewBox="0 0 512 512" xmlns="http://www.w3.org/2000/svg">
 <g fill="#fff">
  <path d="m411.66 306.45c-1.7031-1.7031-4.2578-2.4141-6.6719-1.8438l-3.9023 0.92188-8.3047-8.3047 0.99219-3.832c0.56641-2.4141-0.14062-4.9688-1.918-6.7422l-145.21-145.22c-2.6992-2.6953-7.3828-2.6953-10.078 0l-95.18 95.18c-2.7695 2.7695-2.7695 7.2383 0 10.008l145.29 145.29c1.7031 1.7031 4.2578 2.4844 6.6719 1.8438l3.9023-0.92188 8.3047 8.3047-0.99219 3.9023c-0.56641 2.4141 0.14062 4.8984 1.918 6.6719l17.742 17.742c2.625 2.625 6.1055 4.0469 9.793 4.0469 3.7617 0 7.2383-1.418 9.8633-4.0469l85.527-85.527c2.625-2.625 4.1172-6.1758 4.1172-9.8633 0-3.6914-1.4883-7.2383-4.1172-9.8672z"/>
  <path d="m226.76 131.21-10.574-10.574c-61.395-61.395-125.63-37.902-128.32-36.836-1.9141 0.71094-3.4062 2.1992-4.1172 4.1172-0.99219 2.6953-24.559 66.93 36.836 128.25l10.574 10.645 95.605-95.605z"/>
 </g>
</svg>
