<?xml version="1.0" encoding="UTF-8" standalone="no"?>
<!DOCTYPE svg PUBLIC "-//W3C//DTD SVG 1.1//EN" "http://www.w3.org/Graphics/SVG/1.1/DTD/svg11.dtd">
<svg width="100%" height="100%" viewBox="0 0 512 512" version="1.1" xmlns="http://www.w3.org/2000/svg" xmlns:xlink="http://www.w3.org/1999/xlink" xml:space="preserve" xmlns:serif="http://www.serif.com/" style="fill-rule:evenodd;clip-rule:evenodd;stroke-linejoin:round;stroke-miterlimit:2;">
    <g transform="matrix(1,0,0,1,-56.1011,-56.0637)">
        <g transform="matrix(0.47066,0,0,0.47066,29.6966,29.6768)">
            <path d="M930.75,62.812C928.641,63.445 926.531,64.101 924.422,64.804C876.188,80.765 826.664,92.179 776.182,96.445C764.229,97.453 751.76,98.391 739.057,99.187C688.506,102.363 637.767,100.98 587.467,95.062C503.912,85.219 283.767,75 145.787,213.042C140.51,218.257 135.494,223.733 130.764,229.448C9.384,373.428 39.85,594.928 194.186,700.328C214.791,714.426 236.545,726.758 259.225,737.195C274.795,744.281 292.928,742.773 307.116,733.215C321.304,723.652 329.511,707.414 328.788,690.32C328.788,689.007 328.647,687.648 328.53,686.289C327.053,670.551 318.21,656.445 304.694,648.25C262.999,623.125 159.384,547.07 184.834,423.98C184.834,423.98 221.373,248.34 444.524,204.25C477.614,197.886 511.29,195.051 544.974,195.789C587.982,196.492 667.064,198.789 725.564,206.312C761.994,211.175 798.884,211.503 835.394,207.296C868.746,203.288 907.23,195.202 940.724,179.171C958.466,170.687 979.044,169.796 996.646,178.609C1002.15,181.39 1007.29,184.855 1011.93,188.921C1023.18,199.007 1030.63,212.651 1033.02,227.569C1041.46,275.991 1013.71,439.049 904.111,595.349C904.111,595.349 804.15,740.359 510.221,761.919C489.127,763.466 470.377,776.45 464.893,797.474C464.752,797.966 464.635,798.481 464.518,798.974C461.252,811.904 463.377,825.607 470.401,836.943C477.428,848.279 488.753,856.283 501.784,859.115C579.245,875.053 772.724,890.31 911.424,759.459C911.424,759.459 1086.97,612.299 1135.74,343.629C1142.55,303.137 1145.12,262.051 1143.43,221.029C1138.2,110.479 1034,32.029 930.761,62.799L930.75,62.812Z" style="fill:white;fill-rule:nonzero;"/>
            <path d="M390.21,760.92C380.366,753.189 367.851,749.69 355.425,751.189C342.999,752.689 331.679,759.064 323.952,768.912L288.796,813.724C265.765,807.459 241.398,808.119 218.737,815.623C196.077,823.123 176.132,837.139 161.389,855.912L89.342,947.6C69.479,972.916 60.483,1005.09 64.33,1037.03C68.182,1068.98 84.564,1098.1 109.873,1117.97C135.189,1137.84 167.361,1146.85 199.314,1143C231.267,1139.15 260.388,1122.77 280.263,1097.46L352.263,1005.75C367.009,986.976 375.892,964.272 377.802,940.476C379.712,916.683 374.56,892.851 362.997,871.968L398.153,827.156C405.868,817.312 409.364,804.812 407.876,792.394C406.387,779.98 400.032,768.66 390.208,760.921L390.21,760.92Z" style="fill:white;fill-rule:nonzero;"/>
        </g>
    </g>
</svg>
