<?xml version="1.0" encoding="UTF-8" standalone="no"?>
<!DOCTYPE svg PUBLIC "-//W3C//DTD SVG 1.1//EN" "http://www.w3.org/Graphics/SVG/1.1/DTD/svg11.dtd">
<svg width="100%" height="100%" viewBox="0 0 512 502" version="1.1" xmlns="http://www.w3.org/2000/svg" xmlns:xlink="http://www.w3.org/1999/xlink" xml:space="preserve" xmlns:serif="http://www.serif.com/" style="fill-rule:evenodd;clip-rule:evenodd;stroke-linejoin:round;stroke-miterlimit:2;">
    <g transform="matrix(1,0,0,1,-51.4206,-62.9839)">
        <g transform="matrix(0.466713,0,0,0.466713,27.4219,33.5885)">
            <path d="M805.48,73.477C803.699,72.704 801.847,71.954 799.996,71.133C771.098,60.227 739.207,60.27 710.332,71.246C681.461,82.223 657.602,103.383 643.246,130.734C630.707,154.687 624.941,182.812 626.16,214.031C626.687,230.676 620.3,246.797 608.512,258.562L601.316,265.734C594.906,272.117 591.296,280.785 591.281,289.832C591.262,298.879 594.84,307.559 601.223,313.969C607.606,320.379 616.274,323.989 625.321,324.004C634.368,324.024 643.048,320.446 649.458,314.063L656.653,306.891C681.852,281.668 695.434,247.106 694.153,211.477C693.426,192.258 696.497,175.782 703.528,162.516C710.282,150.008 721.309,140.348 734.598,135.301C747.887,130.254 762.547,130.153 775.903,135.024C776.747,135.352 777.567,135.68 778.247,136.032C796.692,144.047 805.552,166.102 798.45,186.259C791.704,204.63 788.419,224.091 788.77,243.657C788.528,253.02 792.153,262.067 798.793,268.677C805.43,275.282 814.496,278.861 823.859,278.575C833.218,278.286 842.047,274.157 848.269,267.157C854.491,260.157 857.554,250.899 856.738,241.571C856.66,230.368 858.644,219.243 862.597,208.759C881.722,155.134 856.55,95.699 805.48,73.479L805.48,73.477Z" style="fill:white;fill-rule:nonzero;"/>
            <path d="M584.81,386.65C584.81,422.779 555.525,452.064 519.396,452.064C483.267,452.064 453.982,422.779 453.982,386.65C453.982,350.521 483.267,321.236 519.396,321.236C555.525,321.236 584.81,350.521 584.81,386.65" style="fill:white;fill-rule:nonzero;"/>
            <path d="M442.97,514.34C451.31,505.688 454.474,493.281 451.294,481.695C448.115,470.105 439.064,461.05 427.478,457.867C415.892,454.683 403.486,457.84 394.83,466.176L305.346,555.66C296.741,564.265 293.381,576.805 296.53,588.558C299.682,600.308 308.862,609.488 320.612,612.64C332.366,615.788 344.905,612.429 353.51,603.823L442.97,514.34Z" style="fill:white;fill-rule:nonzero;"/>
            <path d="M256.38,624.09C220.31,625.145 155.39,633.77 98.43,676.801C57.203,707.996 48.813,742.426 52.047,770.926C54.656,792.821 64.555,813.203 80.145,828.797C95.739,844.387 116.122,854.285 138.016,856.895C166.493,860.153 200.946,851.762 232.164,810.512C275.195,753.653 283.726,688.632 284.875,652.682C285.09,645.049 282.16,637.666 276.77,632.26C271.379,626.854 264.008,623.897 256.375,624.088L256.38,624.09Z" style="fill:white;fill-rule:nonzero;"/>
            <path d="M1084.9,352.88C1083.12,352.107 1081.27,351.357 1079.42,350.653C1050.53,339.739 1018.65,339.766 989.775,350.728C960.904,361.689 937.037,382.826 922.666,410.162C910.104,434.115 904.361,462.1 905.557,493.365C906.107,510.013 899.717,526.146 887.909,537.896L880.737,545.068C874.155,551.407 870.393,560.13 870.307,569.271C870.221,578.412 873.811,587.205 880.276,593.669C886.736,600.133 895.526,603.731 904.666,603.649C913.807,603.568 922.533,599.813 928.877,593.231L936.073,586.036C961.272,560.825 974.858,526.27 973.573,490.645C972.823,471.426 975.917,454.95 982.948,441.684C989.694,429.176 1000.72,419.512 1014,414.465C1027.29,409.414 1041.95,409.316 1055.3,414.191L1057.76,415.176C1076.18,423.191 1085.07,445.27 1077.96,465.403C1071.22,483.782 1067.94,503.251 1068.28,522.825C1069.3,534.489 1076.24,544.813 1086.65,550.161C1097.07,555.508 1109.5,555.129 1119.57,549.161C1129.65,543.192 1135.94,532.466 1136.25,520.763C1136.16,509.556 1138.15,498.431 1142.11,487.951C1161.14,434.513 1135.97,375.001 1084.9,352.881L1084.9,352.88Z" style="fill:white;fill-rule:nonzero;"/>
            <path d="M752.53,619.78C740.26,632.046 733.37,648.686 733.37,666.034C733.37,683.386 740.261,700.022 752.53,712.292C764.796,724.558 781.436,731.448 798.784,731.448C816.132,731.448 832.772,724.557 845.038,712.292C857.308,700.022 864.198,683.386 864.198,666.034C864.198,648.686 857.307,632.046 845.038,619.78C832.772,607.514 816.132,600.62 798.784,600.62C781.436,600.62 764.796,607.515 752.53,619.78Z" style="fill:white;fill-rule:nonzero;"/>
            <path d="M674.13,745.57L584.646,835.054C576.048,843.66 572.689,856.195 575.841,867.945C578.994,879.695 588.173,888.871 599.923,892.015C611.673,895.159 624.212,891.8 632.81,883.195L722.294,793.711C730.892,785.113 734.251,772.578 731.103,760.832C727.958,749.082 718.783,739.906 707.033,736.762C695.287,733.613 682.752,736.973 674.154,745.57L674.13,745.57Z" style="fill:white;fill-rule:nonzero;"/>
            <path d="M535.76,903.49C499.713,904.545 434.79,913.146 377.93,956.201C336.68,987.396 328.313,1021.83 331.547,1050.33C334.152,1072.22 344.047,1092.61 359.641,1108.2C375.235,1123.8 395.618,1133.69 417.516,1136.3C445.993,1139.53 480.469,1131.16 511.641,1089.84C554.696,1032.98 563.203,967.962 564.352,932.012C564.555,924.375 561.606,916.989 556.196,911.594C550.786,906.2 543.395,903.266 535.758,903.489L535.76,903.49Z" style="fill:white;fill-rule:nonzero;"/>
        </g>
    </g>
</svg>
