<?xml version="1.0" encoding="UTF-8" standalone="no"?>
<!DOCTYPE svg PUBLIC "-//W3C//DTD SVG 1.1//EN" "http://www.w3.org/Graphics/SVG/1.1/DTD/svg11.dtd">
<svg width="100%" height="100%" viewBox="0 0 327 512" version="1.1" xmlns="http://www.w3.org/2000/svg" xmlns:xlink="http://www.w3.org/1999/xlink" xml:space="preserve" xmlns:serif="http://www.serif.com/" style="fill-rule:evenodd;clip-rule:evenodd;stroke-linejoin:round;stroke-miterlimit:2;">
    <g transform="matrix(1,0,0,1,-252.888,-55.0934)">
        <g transform="matrix(0.470212,0,0,0.470212,133.977,29.1878)">
            <path d="M350.25,678.87C364.211,697.159 376.645,716.569 387.422,736.901C395.504,752.409 404.465,767.44 414.258,781.924C422.969,794.967 437.668,802.74 453.352,802.596C500.977,801.284 525.352,726.94 525.352,726.94C568.196,571.62 446.672,491.79 407.722,470.65C380.57,456.275 358.855,433.431 345.87,405.588C339.995,392.479 335.948,378.619 333.847,364.408C332.527,355.404 328.011,347.174 321.128,341.217C314.245,335.264 305.448,331.983 296.347,331.971L296.183,331.971C287.382,331.947 278.847,334.998 272.05,340.596C265.257,346.19 260.628,353.983 258.964,362.627C255.675,380.986 253.722,399.557 253.128,418.197C250.398,491.83 271.058,564.427 312.144,625.597C325.785,646.011 339.378,664.62 350.253,678.87L350.25,678.87Z" style="fill:white;fill-rule:nonzero;"/>
            <path d="M943.15,519.05C943.15,506.507 938.166,494.476 929.298,485.605C920.427,476.738 908.396,471.753 895.853,471.753L567.193,471.753C557.892,471.73 549.267,476.605 544.49,484.585C539.709,492.566 539.486,502.472 543.896,510.659C561.005,542.018 583.388,617.159 584.677,686.439C585.779,746.908 565.529,804.419 513.31,834.939C502.38,841.341 490.736,846.447 478.622,850.15C471.993,851.861 466.52,856.525 463.774,862.795C461.028,869.068 461.317,876.252 464.559,882.283C477.426,908.986 494.774,933.291 515.84,954.142C528.328,966.302 545.074,973.099 562.504,973.08L829.104,973.08C856.811,973.08 882.44,958.389 896.44,934.478C927.19,881.572 943.311,821.438 943.151,760.248L943.15,519.05Z" style="fill:white;fill-rule:nonzero;"/>
            <path d="M909.77,349.22L506.81,349.22C493.412,349.22 481.033,356.368 474.333,367.97C467.634,379.572 467.634,393.868 474.333,405.47C481.032,417.072 493.411,424.22 506.81,424.22L909.77,424.22C923.168,424.22 935.547,417.072 942.247,405.47C948.947,393.868 948.946,379.572 942.247,367.97C935.548,356.368 923.169,349.22 909.77,349.22Z" style="fill:white;fill-rule:nonzero;"/>
            <path d="M539.67,301.45C543.045,301.45 546.283,300.11 548.67,297.723C551.057,295.337 552.397,292.098 552.397,288.723L552.397,97.613C552.397,82.777 544.483,69.066 531.631,61.644C518.779,54.226 502.951,54.226 490.1,61.644C477.248,69.066 469.334,82.777 469.334,97.613L469.334,288.723C469.334,295.751 475.033,301.45 482.061,301.45L539.67,301.45Z" style="fill:white;fill-rule:nonzero;"/>
            <path d="M670.8,301.45C674.175,301.45 677.413,300.11 679.8,297.723C682.187,295.337 683.527,292.098 683.527,288.723L683.527,97.613C683.527,82.777 675.612,69.066 662.761,61.644C649.909,54.226 634.081,54.226 621.23,61.644C608.378,69.066 600.464,82.777 600.464,97.613L600.464,288.723C600.464,295.751 606.163,301.45 613.191,301.45L670.8,301.45Z" style="fill:white;fill-rule:nonzero;"/>
            <path d="M802.64,301.45C806.015,301.45 809.253,300.11 811.64,297.723C814.027,295.337 815.367,292.098 815.367,288.723L815.367,97.613C815.632,86.429 811.374,75.613 803.562,67.609C795.745,59.609 785.035,55.093 773.847,55.093C762.659,55.093 751.949,59.609 744.132,67.609C736.319,75.613 732.062,86.429 732.327,97.613L732.327,288.723C732.327,295.751 738.026,301.45 745.054,301.45L802.64,301.45Z" style="fill:white;fill-rule:nonzero;"/>
            <path d="M933.77,301.45C937.145,301.45 940.383,300.11 942.77,297.723C945.157,295.337 946.497,292.098 946.497,288.723L946.497,178.753C946.497,163.917 938.583,150.206 925.731,142.784C912.879,135.366 897.051,135.366 884.2,142.784C871.348,150.206 863.434,163.917 863.434,178.753L863.434,288.723C863.445,295.747 869.137,301.438 876.161,301.45L933.77,301.45Z" style="fill:white;fill-rule:nonzero;"/>
            <path d="M829.38,1020.8L543.16,1020.8C525.953,1020.75 509.437,1027.57 497.293,1039.76C475.473,1061.91 461.785,1089.64 453.723,1110.94C450.86,1118.42 451.864,1126.82 456.399,1133.42C460.934,1140.02 468.426,1143.96 476.434,1143.96L891.814,1143.96C899.361,1144 906.498,1140.52 911.115,1134.54C915.736,1128.57 917.314,1120.8 915.392,1113.5C908.4,1088.89 896.603,1065.9 880.681,1045.88C868.361,1030.05 849.431,1020.8 829.376,1020.8L829.38,1020.8Z" style="fill:white;fill-rule:nonzero;"/>
        </g>
    </g>
</svg>
