<?xml version="1.0" encoding="UTF-8" standalone="no"?>
<!DOCTYPE svg PUBLIC "-//W3C//DTD SVG 1.1//EN" "http://www.w3.org/Graphics/SVG/1.1/DTD/svg11.dtd">
<svg width="100%" height="100%" viewBox="0 0 512 512" version="1.1" xmlns="http://www.w3.org/2000/svg" xmlns:xlink="http://www.w3.org/1999/xlink" xml:space="preserve" xmlns:serif="http://www.serif.com/" style="fill-rule:evenodd;clip-rule:evenodd;stroke-linejoin:round;stroke-miterlimit:2;">
    <g transform="matrix(1,0,0,1,-60.4291,-60.4496)">
        <g transform="matrix(0.474403,0,0,0.474403,31.7613,31.7721)">
            <path d="M206.25,815.95C215.371,818.622 225.191,817.388 233.371,812.544C241.551,807.704 247.351,799.685 249.398,790.403C291.586,601.963 456.348,456.443 456.348,456.443C456.348,456.443 601.868,291.743 790.308,249.493C799.628,247.473 807.687,241.665 812.554,233.462C817.417,225.255 818.648,215.4 815.949,206.251C800.151,153.423 753.722,65.371 621.419,90.091C621.419,90.091 460.009,124.825 292.448,292.361C124.888,459.897 90.178,621.331 90.178,621.331C65.451,753.731 153.506,800.161 206.238,815.951L206.25,815.95Z" style="fill:white;fill-rule:nonzero;"/>
            <path d="M98.438,962.34C180.188,1102.96 347.178,1168.07 504.798,1128.07C564.306,1112.95 620.838,1087.62 671.418,1059.02C684.262,1052.18 696.613,1044.84 707.348,1038.12C711.227,1035.69 714.094,1031.93 715.418,1027.56C716.742,1023.18 716.438,1018.47 714.559,1014.29C712.676,1010.12 709.352,1006.77 705.192,1004.86C686.723,996.352 656.254,977.343 635.161,952.453C561.099,865.734 571.223,787.803 583.458,739.453C586.669,726.844 570.661,718.148 561.989,727.851C533.419,759.843 523.13,799.523 519.591,828.191C518.118,840.699 513.251,852.562 505.525,862.507C497.794,872.449 487.498,880.089 475.74,884.605C294.8,952.902 151.88,884.863 89.56,844.621C85.427,841.875 80.376,840.875 75.509,841.848C70.645,842.817 66.36,845.68 63.599,849.801C60.841,853.922 59.825,858.973 60.778,863.84C67.728,898.555 80.458,931.852 98.442,962.348L98.438,962.34Z" style="fill:white;fill-rule:nonzero;"/>
            <path d="M1038.1,707.23C1044.83,696.496 1052.16,684.144 1059.01,671.3C1087.6,620.722 1112.91,564.19 1128.05,504.68C1168.06,347.06 1102.88,180.07 962.323,98.44C931.846,80.471 898.573,67.749 863.885,60.799C859.018,59.846 853.967,60.862 849.846,63.619C845.725,66.381 842.862,70.666 841.893,75.529C840.92,80.397 841.92,85.447 844.666,89.58C884.908,151.9 952.946,294.82 884.65,475.76C880.135,487.518 872.494,497.815 862.552,505.545C852.607,513.272 840.743,518.139 828.236,519.611C799.572,523.15 759.892,533.439 727.896,562.009C718.193,570.681 726.889,586.689 739.498,583.478C787.85,571.244 865.848,561.119 952.498,635.181C977.295,656.275 996.396,686.861 1004.9,705.189C1006.84,709.318 1010.19,712.607 1014.36,714.459C1018.52,716.314 1023.21,716.599 1027.58,715.271C1031.94,713.943 1035.67,711.088 1038.09,707.228L1038.1,707.23Z" style="fill:white;fill-rule:nonzero;"/>
            <path d="M922.95,922.95C955.641,890.259 974.009,845.915 974.009,799.68C974.009,753.445 955.642,709.106 922.95,676.41C890.255,643.715 845.915,625.348 799.68,625.348C753.445,625.348 709.106,643.715 676.41,676.41C643.719,709.101 625.351,753.441 625.351,799.68C625.351,845.919 643.718,890.258 676.41,922.95C698.047,944.587 725,960.149 754.558,968.071C784.117,975.989 815.242,975.989 844.8,968.071C874.359,960.149 901.312,944.587 922.948,922.95L922.95,922.95ZM680.47,812.07C676.22,807.82 673.837,802.054 673.837,796.043C673.837,790.035 676.228,784.27 680.478,780.023C684.728,775.773 690.49,773.386 696.501,773.386C702.513,773.386 708.274,775.773 712.524,780.023C716.774,784.269 719.164,790.035 719.164,796.043C719.164,802.055 716.782,807.82 712.532,812.07C708.282,816.324 702.512,818.715 696.501,818.715C690.489,818.715 684.72,816.324 680.47,812.07L680.47,812.07ZM772.486,916.84C737.33,904.723 715.509,878.707 706.205,865.278C702.971,860.63 703.701,854.298 707.916,850.512L722.799,837.153C725.861,834.372 730.158,833.411 734.111,834.626C738.064,835.837 741.088,839.04 742.064,843.059C747.97,869.098 765.502,890.543 780.103,904.629C782.54,907.059 782.978,910.848 781.158,913.77C779.337,916.688 775.74,917.961 772.486,916.84L772.486,916.84Z" style="fill:white;fill-rule:nonzero;"/>
        </g>
    </g>
</svg>
