<?xml version="1.0" encoding="UTF-8" standalone="no"?>
<!DOCTYPE svg PUBLIC "-//W3C//DTD SVG 1.1//EN" "http://www.w3.org/Graphics/SVG/1.1/DTD/svg11.dtd">
<svg width="100%" height="100%" viewBox="0 0 435 512" version="1.1" xmlns="http://www.w3.org/2000/svg" xmlns:xlink="http://www.w3.org/1999/xlink" xml:space="preserve" xmlns:serif="http://www.serif.com/" style="fill-rule:evenodd;clip-rule:evenodd;stroke-linejoin:round;stroke-miterlimit:2;">
    <g transform="matrix(1,0,0,1,-140.565,-58.5115)">
        <g transform="matrix(0.472804,0,0,0.472804,74.1056,30.847)">
            <path d="M535.22,72.938C518.087,110.579 480.306,196.988 457.15,275.648C454.65,284.023 455.963,293.078 460.736,300.398C470.369,314.953 491.205,340.828 532.197,369.843C540.638,375.788 551.361,377.468 561.217,374.39C571.072,371.316 578.936,363.831 582.494,354.14C594.353,321.937 612.775,276.421 632.721,243.37C635.115,239.413 639.557,237.167 644.166,237.585C648.771,238.003 652.736,241.014 654.377,245.339C668.439,282.37 698.908,357.839 727.033,404.319C730.267,409.631 734.92,413.932 740.471,416.737C746.022,419.537 752.244,420.733 758.44,420.186C810.002,415.639 950.09,392.741 1051.99,277.496C1056.83,271.945 1059.43,264.797 1059.3,257.434C1059.16,250.074 1056.3,243.024 1051.26,237.653L1018.45,202.497C1005.57,188.716 998.416,170.548 998.435,151.685L998.435,85.451C998.435,77.916 995.01,70.791 989.123,66.088C983.232,61.385 975.525,59.619 968.178,61.287C901.405,76.428 733.798,104.975 564.118,59.365C558.473,57.842 552.473,58.369 547.18,60.853C541.891,63.338 537.653,67.619 535.219,72.935L535.22,72.938Z" style="fill:white;fill-rule:nonzero;"/>
            <path d="M149.48,977.72C180.3,1015.88 255.14,1099.06 347.67,1134.92C359.119,1139.35 371.744,1139.72 383.436,1135.98C434.6,1119.57 591.516,1072.55 703.526,1072.69C714.659,1072.68 725.389,1076.86 733.573,1084.41C746.514,1096.23 757.866,1109.68 767.346,1124.42C773.748,1134.91 785.127,1141.34 797.416,1141.41L925.266,1141.41C937.028,1141.44 948.016,1135.55 954.493,1125.73C978.985,1088.4 1024.6,984.993 926.368,823.623C923.841,819.443 919.466,816.728 914.598,816.31C909.735,815.892 904.961,817.826 901.758,821.513C892.145,832.888 881.41,843.271 869.719,852.497C864.692,856.404 858.309,858.138 851.996,857.31C845.68,856.482 839.961,853.161 836.109,848.091C832.386,843.001 830.793,836.661 831.668,830.419C832.543,824.173 835.816,818.517 840.797,814.646C851.395,806.181 861.02,796.556 869.485,785.958C887.333,763.653 900.54,738.001 908.321,710.513C926.79,647.232 954.938,541.243 972.212,430.693C972.84,426.92 972.047,423.045 969.989,419.818C967.93,416.591 964.751,414.244 961.063,413.22C957.376,412.201 953.442,412.58 950.016,414.287C891.426,443.377 827.976,461.404 762.846,467.467C760.502,467.678 758.159,467.771 755.698,467.771C727.483,467.67 701.327,452.978 686.557,428.935C674.459,408.611 663.467,387.654 653.627,366.146C651.302,361.174 646.216,358.084 640.732,358.31C635.247,358.533 630.435,362.029 628.525,367.178C628.337,367.67 628.15,368.162 627.986,368.678C617.931,395.631 595.314,416.28 567.4,421.881C566.017,422.162 564.61,422.42 563.228,422.607C554.825,423.724 547.31,428.388 542.58,435.423C537.849,442.454 536.365,451.177 538.502,459.38C562.877,550.271 589.502,667.97 597.213,771.1C598.771,791.467 592.189,811.62 578.908,827.139C547.478,863.772 480.47,929.419 386.958,953.419C373.29,956.923 358.79,954.857 346.646,947.677C331.267,938.794 317.314,927.646 305.255,914.607C301.036,909.88 298.38,903.962 297.661,897.669C296.938,891.372 298.184,885.009 301.223,879.45C308.254,866.677 318.637,849.638 330.121,837.919C335.567,832.47 342.883,829.302 350.582,829.06C358.012,828.802 368.676,828.45 380.207,828.192C385.047,828.126 389.344,825.095 391.031,820.56C392.719,816.024 391.445,810.919 387.824,807.708C371.301,792.942 345.965,773.489 316.433,761.489C309.433,758.696 301.788,757.926 294.374,759.274C286.96,760.622 280.073,764.028 274.503,769.106C244.222,796.434 182.487,857.817 144.633,934.946C141.282,941.797 139.961,949.462 140.821,957.04C141.68,964.618 144.684,971.794 149.485,977.72L149.48,977.72Z" style="fill:white;fill-rule:nonzero;"/>
        </g>
    </g>
</svg>
