<?xml version="1.0" encoding="UTF-8" standalone="no"?>
<!DOCTYPE svg PUBLIC "-//W3C//DTD SVG 1.1//EN" "http://www.w3.org/Graphics/SVG/1.1/DTD/svg11.dtd">
<svg width="100%" height="100%" viewBox="0 0 160 512" version="1.1" xmlns="http://www.w3.org/2000/svg" xmlns:xlink="http://www.w3.org/1999/xlink" xml:space="preserve" xmlns:serif="http://www.serif.com/" style="fill-rule:evenodd;clip-rule:evenodd;stroke-linejoin:round;stroke-miterlimit:2;">
    <g transform="matrix(1,0,0,1,-443.998,-60.0016)">
        <g transform="matrix(0.474077,0,0,0.474077,233.509,31.5562)">
            <path d="M763.88,531.38L702.919,450.142C698.013,443.244 698.13,437.087 698.13,431.865C698.13,427.81 699.896,422.06 701.79,414.775C705.56,400.255 710.86,380.384 710.86,350.408C710.86,311.455 685.614,191.858 677.118,152.818C680.033,151.209 682.626,148.955 684.548,146.111C688.497,140.256 689.302,134.951 686.661,128.4L682.451,120.002L686.638,120.002C690.704,120.002 696.033,117.424 698.255,114.002C700.474,110.58 699.251,103.635 697.583,99.912L684.575,74.447C679.7,63.592 668.841,60.002 656.927,60.002L567.068,60.002C555.154,60.002 544.302,63.591 539.42,74.451L526.412,99.916C524.744,103.634 523.783,110.33 525.99,113.752C528.201,117.17 533.291,120.002 537.357,120.002L541.545,120.002L537.322,128.4C534.681,134.951 535.486,140.244 539.435,146.111C541.357,148.955 543.947,151.224 546.865,152.818C538.369,191.853 513.123,311.458 513.123,350.408C513.123,380.385 518.428,400.256 522.193,414.775C524.076,422.048 525.854,427.806 525.854,431.865C525.854,437.096 525.975,443.24 521.064,450.142L460.103,531.38C446.552,550.81 443.998,565.294 443.998,587.099L443.998,1075.09C443.998,1106.5 465.275,1140 496.701,1140L727.291,1140C758.717,1140 779.994,1106.5 779.994,1075.09L779.994,587.099C779.994,565.294 777.44,550.81 763.877,531.38L763.88,531.38Z" style="fill:white;fill-rule:nonzero;"/>
        </g>
    </g>
</svg>
