<?xml version="1.0" encoding="UTF-8" standalone="no"?>
<svg xmlns:xlink="http://www.w3.org/1999/xlink" height="101.15px" width="104.85px" xmlns="http://www.w3.org/2000/svg">
  <g transform="matrix(1.0, 0.0, 0.0, 1.0, -3.05, -5.7)">
    <path d="M42.65 31.1 L3.05 20.2 Q4.9 18.25 7.15 16.6 9.45 14.95 12.15 13.5 14.8 12.15 17.95 11.0 21.0 9.85 24.55 8.95 28.0 8.1 31.9 7.45 35.75 6.8 40.0 6.4 44.25 6.05 48.85 5.85 53.45 5.7 58.4 5.75 L86.4 30.3 Q85.4 30.35 84.45 30.5 83.55 30.6 82.65 30.75 81.8 30.9 81.05 31.1 80.25 31.3 79.6 31.5 78.95 31.75 78.4 32.0 77.85 32.25 77.5 32.5 77.05 32.8 76.8 33.1 76.55 33.4 76.5 33.7 76.4 34.1 76.55 34.45 76.7 34.8 77.1 35.15 77.5 35.5 78.15 35.8 78.75 36.1 79.6 36.35 80.4 36.65 81.4 36.85 82.4 37.05 83.55 37.2 84.7 37.4 85.95 37.45 87.2 37.55 88.55 37.6 88.95 37.6 89.3 37.6 89.7 37.6 90.1 37.6 90.45 37.6 90.85 37.55 91.2 37.55 91.6 37.55 91.95 37.5 92.3 37.5 92.65 37.45 93.05 37.45 93.4 37.4 93.75 37.35 94.1 37.35 94.4 37.3 L107.9 49.1 57.55 35.2 Q57.9 35.1 58.2 35.0 58.5 34.9 58.75 34.8 59.0 34.7 59.25 34.55 59.5 34.45 59.7 34.35 59.9 34.2 60.05 34.1 60.25 33.95 60.35 33.8 60.5 33.7 60.55 33.55 60.65 33.4 60.7 33.25 60.8 32.95 60.65 32.65 60.5 32.35 60.2 32.1 59.85 31.8 59.35 31.6 58.85 31.35 58.2 31.1 57.55 30.9 56.75 30.75 55.95 30.55 55.05 30.45 54.1 30.3 53.1 30.25 52.1 30.15 51.0 30.15 50.4 30.15 49.8 30.15 49.2 30.15 48.65 30.2 48.05 30.2 47.5 30.25 46.95 30.3 46.4 30.35 45.85 30.45 45.35 30.5 44.85 30.6 44.4 30.7 43.9 30.8 43.5 30.9 43.05 31.0 42.65 31.1 L42.65 31.1 M37.2 12.85 Q35.8 13.05 34.55 13.3 33.3 13.55 32.3 13.9 31.25 14.25 30.45 14.6 29.7 15.0 29.1 15.4 28.55 15.8 28.3 16.25 28.0 16.7 27.95 17.15 27.95 17.6 28.25 18.05 28.5 18.55 29.1 18.95 29.7 19.4 30.5 19.8 31.35 20.15 32.35 20.5 33.4 20.8 34.6 21.05 35.8 21.3 37.1 21.45 38.45 21.6 39.85 21.7 41.25 21.8 42.7 21.8 44.15 21.8 45.6 21.7 47.1 21.6 48.5 21.4 49.9 21.2 51.15 20.95 52.35 20.7 53.4 20.35 54.4 20.05 55.2 19.65 56.0 19.3 56.55 18.85 57.1 18.45 57.4 18.0 57.7 17.55 57.7 17.1 57.75 16.65 57.45 16.2 57.2 15.75 56.6 15.3 56.0 14.85 55.2 14.45 54.35 14.1 53.3 13.8 52.3 13.45 51.1 13.2 49.9 13.0 48.55 12.8 47.25 12.65 45.85 12.55 44.45 12.45 43.0 12.5 41.5 12.5 40.1 12.55 38.6 12.65 37.2 12.85 L37.2 12.85 M56.1 39.9 L107.9 54.25 107.9 106.85 3.05 77.95 3.05 25.25 41.25 35.8 Q41.3 36.8 41.45 37.8 41.65 38.8 41.95 39.75 42.2 40.7 42.65 41.55 43.05 42.45 43.55 43.25 44.05 44.0 44.65 44.65 45.2 45.35 45.85 45.85 46.55 46.4 47.25 46.75 47.95 47.15 48.7 47.3 49.4 47.5 50.1 47.45 50.8 47.45 51.45 47.25 52.05 47.05 52.65 46.7 53.2 46.35 53.7 45.85 54.2 45.35 54.6 44.75 55.05 44.1 55.35 43.35 55.65 42.6 55.85 41.75 56.05 40.85 56.1 39.9 L56.1 39.9 M80.15 52.5 Q79.15 52.25 78.2 52.3 77.25 52.35 76.4 52.65 75.5 52.95 74.75 53.5 73.95 54.0 73.3 54.8 72.65 55.55 72.15 56.5 71.6 57.45 71.25 58.55 70.85 59.7 70.65 60.95 70.45 62.25 70.45 63.65 70.45 65.05 70.65 66.4 70.85 67.8 71.2 69.1 71.6 70.4 72.1 71.6 72.65 72.8 73.3 73.9 73.95 75.0 74.75 75.9 75.5 76.85 76.4 77.55 77.25 78.3 78.2 78.8 79.15 79.3 80.15 79.55 81.15 79.8 82.1 79.75 83.05 79.7 83.9 79.4 84.75 79.1 85.55 78.55 86.35 78.05 87.0 77.25 87.65 76.5 88.15 75.55 88.7 74.6 89.05 73.45 89.45 72.35 89.6 71.05 89.8 69.8 89.8 68.4 89.8 67.0 89.6 65.65 89.4 64.25 89.05 62.95 88.7 61.65 88.15 60.45 87.65 59.2 87.0 58.15 86.3 57.05 85.55 56.15 84.75 55.2 83.9 54.5 83.05 53.75 82.1 53.25 81.15 52.75 80.15 52.5 L80.15 52.5 M26.7 53.95 Q25.8 53.75 24.95 53.8 24.1 53.85 23.3 54.15 22.55 54.4 21.85 54.9 21.15 55.4 20.55 56.1 19.95 56.8 19.5 57.65 19.0 58.5 18.7 59.5 18.35 60.5 18.2 61.65 18.0 62.8 18.0 64.05 18.0 65.3 18.2 66.5 18.35 67.7 18.7 68.9 19.0 70.05 19.5 71.1 19.95 72.2 20.55 73.15 21.15 74.1 21.85 74.9 22.55 75.7 23.3 76.35 24.1 77.0 24.95 77.4 25.8 77.85 26.7 78.05 27.6 78.25 28.45 78.2 29.3 78.15 30.05 77.9 30.85 77.6 31.55 77.1 32.25 76.6 32.8 75.95 33.4 75.25 33.9 74.4 34.35 73.55 34.7 72.55 35.0 71.5 35.2 70.4 35.35 69.25 35.35 68.0 35.35 66.75 35.2 65.55 35.0 64.35 34.65 63.15 34.35 62.0 33.9 60.95 33.4 59.85 32.8 58.9 32.25 57.95 31.55 57.15 30.85 56.3 30.05 55.7 29.25 55.05 28.45 54.6 27.55 54.2 26.7 53.95 L26.7 53.95" fill="#ffffff" fill-rule="evenodd" stroke="none"/>
  </g>
</svg>
