<?xml version="1.0" encoding="UTF-8" standalone="no"?>
<svg xmlns:xlink="http://www.w3.org/1999/xlink" height="84.8px" width="108.8px" xmlns="http://www.w3.org/2000/svg">
  <g transform="matrix(1.0, 0.0, 0.0, 1.0, -2.95, -17.95)">
    <path d="M11.5 57.7 Q14.15 56.95 16.65 56.6 19.3 56.2 21.85 56.3 24.5 56.35 27.1 56.9 29.8 57.45 32.5 58.5 35.25 59.6 38.05 61.25 40.85 62.95 43.75 65.25 46.7 67.55 49.65 70.55 52.7 73.6 55.85 77.35 54.85 71.9 53.15 67.4 51.55 63.15 49.35 59.8 47.25 56.6 44.7 54.25 42.25 52.0 39.4 50.55 36.75 49.2 33.8 48.55 30.95 47.95 28.0 48.05 25.15 48.1 22.25 48.8 19.5 49.4 16.85 50.6 17.45 49.9 18.05 49.2 18.65 48.55 19.25 47.85 19.85 47.2 20.5 46.5 21.1 45.85 21.75 45.2 22.35 44.55 23.0 43.9 23.65 43.25 24.3 42.6 24.95 42.0 25.65 41.4 26.3 40.75 26.95 40.15 29.85 39.15 32.7 38.65 35.65 38.15 38.65 38.2 41.65 38.3 44.7 38.95 47.75 39.6 50.9 40.85 54.05 42.15 57.2 44.05 60.45 46.0 63.7 48.6 67.05 51.25 70.35 54.6 73.75 58.0 77.2 62.1 76.15 56.3 74.6 51.4 73.15 46.75 71.25 42.95 69.45 39.3 67.3 36.5 65.25 33.8 62.85 31.9 60.6 30.05 58.1 28.9 55.7 27.85 53.1 27.4 50.65 27.0 48.05 27.15 45.6 27.3 43.05 27.95 L53.1 23.35 Q56.15 23.0 58.9 22.95 61.85 22.95 64.65 23.3 67.55 23.65 70.3 24.4 73.2 25.25 75.95 26.5 78.8 27.8 81.6 29.65 84.45 31.55 87.25 34.0 90.15 36.5 92.95 39.65 95.85 42.85 98.75 46.75 98.45 43.05 97.65 39.8 96.9 36.7 95.65 33.95 94.45 31.35 92.8 29.15 91.25 27.05 89.3 25.3 87.45 23.65 85.3 22.35 83.25 21.1 80.95 20.2 78.75 19.35 76.35 18.85 74.05 18.35 71.65 18.15 75.5 17.95 79.35 18.2 83.2 18.5 86.8 19.3 90.45 20.1 93.75 21.35 97.05 22.6 99.9 24.35 102.75 26.1 105.0 28.25 107.3 30.45 108.8 33.0 110.35 35.65 111.05 38.65 111.75 41.7 111.45 45.05 111.15 48.6 110.35 51.9 109.55 55.0 108.25 57.9 107.0 60.7 105.25 63.3 103.65 65.75 101.55 68.1 99.55 70.3 97.15 72.45 94.9 74.45 92.15 76.5 89.75 78.3 86.75 80.3 84.25 81.95 80.95 84.0 L61.95 95.75 Q58.95 97.6 54.75 99.1 50.5 100.55 45.6 101.45 40.55 102.4 35.5 102.55 30.15 102.75 25.4 102.0 20.25 101.25 16.2 99.55 11.8 97.65 8.9 94.75 5.7 91.6 4.4 87.35 2.95 82.75 3.65 76.95 3.8 75.75 4.05 74.5 4.3 73.3 4.65 72.1 4.95 70.9 5.4 69.65 5.8 68.45 6.3 67.25 6.8 66.05 7.4 64.8 8.0 63.65 8.65 62.45 9.3 61.25 10.0 60.05 10.7 58.9 11.5 57.7 L11.5 57.7" fill="#ffffff" fill-rule="evenodd" stroke="none"/>
  </g>
</svg>
