<?xml version="1.0" encoding="UTF-8" standalone="no"?>
<!DOCTYPE svg PUBLIC "-//W3C//DTD SVG 1.1//EN" "http://www.w3.org/Graphics/SVG/1.1/DTD/svg11.dtd">
<svg width="100%" height="100%" viewBox="0 0 442 512" version="1.1" xmlns="http://www.w3.org/2000/svg" xmlns:xlink="http://www.w3.org/1999/xlink" xml:space="preserve" xmlns:serif="http://www.serif.com/" style="fill-rule:evenodd;clip-rule:evenodd;stroke-linejoin:round;stroke-miterlimit:2;">
    <g transform="matrix(1,0,0,1,-131.097,-56.89)">
        <g transform="matrix(0.471338,0,0,0.471338,69.3059,30.0756)">
            <path d="M144.23,772.15C144.23,772.15 208.261,1007.91 364.54,1116.28C421.845,1156.12 499.68,1151.44 550.63,1103.79C555.318,1099.4 560.005,1094.79 564.435,1089.89C583.396,1069.27 615.997,1068.4 634.747,1089.12C639.435,1094.29 644.27,1099.18 649.255,1103.79C700.208,1151.39 777.975,1156.03 835.305,1116.31C991.605,1007.96 1055.62,772.145 1055.62,772.145C1096.65,575.695 1034.05,475.945 965.709,425.575C897.365,375.205 808.259,364.895 728.499,393.559C694.507,405.844 662.776,423.653 634.585,446.27C624.745,454.199 612.487,458.524 599.851,458.524C587.215,458.524 574.956,454.199 565.117,446.27C536.926,423.653 505.195,405.844 471.203,393.559C391.398,364.895 302.103,375.278 233.873,425.645C165.646,476.012 103.113,575.785 144.225,772.145L144.23,772.15Z" style="fill:white;fill-rule:nonzero;"/>
        </g>
        <g transform="matrix(0.471338,0,0,0.471338,69.3059,30.0756)">
            <path d="M588.8,393.3C595.847,393.226 602.679,390.866 608.273,386.577C613.863,382.288 617.91,376.3 619.808,369.511C634.292,320.292 679.222,206.811 797.158,145.471C804.736,141.448 811.064,135.42 815.455,128.049C819.842,120.674 822.123,112.237 822.049,103.658C822.049,78.158 802.033,57.135 777.518,56.924C725.791,56.479 648.608,59.268 595.788,133.612C580.636,155.276 569.718,179.612 563.608,205.331C553.553,246.136 538.928,324.061 558.92,372.701C561.288,378.717 565.397,383.892 570.717,387.56C576.042,391.232 582.338,393.228 588.803,393.303L588.8,393.3Z" style="fill:white;fill-rule:nonzero;"/>
        </g>
        <g transform="matrix(0.471338,0,0,0.471338,69.3059,30.0756)">
            <path d="M293.44,300.12C374.604,327.448 427.74,326.042 454.57,328.643C461.98,329.338 469.32,326.768 474.675,321.6C480.031,316.436 482.866,309.19 482.437,301.76C479.601,251.018 458.812,146.28 338.927,108.61C252.091,81.329 188.547,98.649 153.767,114.938C144.376,119.317 137.103,127.239 133.54,136.969C129.977,146.699 130.415,157.446 134.759,166.852C152.337,205.219 195.064,266.972 293.429,300.122L293.44,300.12Z" style="fill:white;fill-rule:nonzero;"/>
        </g>
    </g>
</svg>
