<?xml version="1.0" encoding="UTF-8"?>
<svg width="512pt" height="512pt" version="1.1" viewBox="0 0 512 512" xmlns="http://www.w3.org/2000/svg">
 <g fill="#fff">
  <path d="m255.98 192c-102.87 0-256 82.945-256 138.67 0 9.4297 1.5352 16.555 4.7148 21.762 3.8203 6.2305 9.8555 9.6445 17.023 9.6445 9.8125 0 20.395-6.8906 28.352-13.547 12.375 22.441 28.609 35.008 45.781 35.008 15.809 0 30.25-9.9219 43.031-29.547 14.871 19.156 38.613 30.805 64.77 30.805 19.457 0 38.016-6.5508 52.352-18.219 14.355 11.668 32.895 18.219 52.352 18.219 26.176 0 49.898-11.648 64.77-30.805 12.777 19.625 27.199 29.547 43.031 29.547 17.516 0 34.07-13.098 46.551-36.414 7.7656 5.2266 18.238 10.793 27.586 10.793 5.0977 0 21.738-1.9609 21.738-27.266-0.050781-55.703-153.18-138.65-256.05-138.65zm-95.531 85.332c-11.051 0.49219-26.922 6.6328-34.559 17.004-2.0898 2.8359-5.3125 4.3516-8.5742 4.3516-2.2188 0-4.4141-0.68359-6.3359-2.0898-4.7344-3.5-5.7617-10.176-2.2383-14.91 12.223-16.598 34.902-24.938 50.773-25.664 6.6992-0.46875 10.879 4.3086 11.113 10.176 0.27344 5.8633-4.2734 10.855-10.18 11.133zm70.035-2.2188c-6.0156 4.6289-17.129 27.902-17.172 34.219-0.042969 5.8672-4.8203 10.625-10.668 10.625h-0.042969c-5.8672-0.019531-10.625-4.7578-10.625-10.625 0-12.16 13.91-42.219 25.492-51.113 4.6523-3.5859 11.328-2.7539 14.953 1.9609 3.5898 4.6523 2.7148 11.352-1.9375 14.934zm78.828 44.887c-5.8867 0-10.668-4.7773-10.668-10.668-0.042969-6.3164-11.137-29.566-17.172-34.219-4.6719-3.5859-5.5469-10.281-1.9609-14.953 3.6055-4.7148 10.281-5.5469 14.953-1.9609 11.586 8.8945 25.492 38.977 25.492 51.113 0.023438 5.9102-4.7578 10.688-10.645 10.688zm91.668-23.426c-1.918 1.4102-4.1172 2.0938-6.3359 2.0938-3.2656 0-6.5078-1.4922-8.5742-4.3516-7.6367-10.367-23.531-16.492-34.559-17.004-5.8867-0.27734-10.434-5.2695-10.176-11.137 0.27734-5.8672 4.7578-10.559 11.113-10.176 15.871 0.72656 38.551 9.0664 50.773 25.664 3.4961 4.7578 2.4961 11.434-2.2422 14.91z"/>
  <path d="m449.58 401.47c-3.0703-2.4766-7.2539-3.0703-10.902-1.5586-22.934 9.6836-43.199 5.1211-61.441-9.3672-3.5625-2.8594-8.5352-3.1133-12.375-0.66016-30.316 19.309-71.742 21.355-104.11 5.0547-3.0078-1.5156-6.5938-1.5156-9.5781 0-31.02 15.637-75.113 13.418-104.11-5.0547-3.8203-2.4531-8.7891-2.1992-12.375 0.66016-18.281 14.57-39.594 18.73-61.398 9.5156-3.625-1.5352-7.8281-0.91797-10.902 1.5781-3.0703 2.4961-4.4805 6.4844-3.7109 10.348l5.4609 27.309c1.6055 8.5742 18.414 51.371 191.81 51.371 173.4 0 190.21-42.793 191.79-51.242l5.5234-27.586c0.79297-3.8828-0.61328-7.8711-3.6875-10.367z"/>
  <path d="m171.01 170.67c-2.7305 0-5.4609-1.0469-7.5508-3.1172-4.1602-4.1602-4.1602-10.922 0-15.082 13.035-13.055 7.6797-28.887-2.1328-53.652-9.1289-23.039-20.5-51.711 2.1328-74.348 4.1602-4.1602 10.922-4.1602 15.082 0 4.1602 4.1602 4.1602 10.922 0 15.082-12.098 12.098-6.8711 27.414 2.625 51.395 9.3438 23.594 20.992 52.969-2.625 76.605-2.0898 2.0703-4.8008 3.1172-7.5312 3.1172z"/>
  <path d="m255.81 170.67c-2.7305 0-5.4609-1.0469-7.5508-3.1133-4.1602-4.1602-4.1602-10.922 0-15.082 13.035-13.055 7.6797-28.887-2.1328-53.652-9.1289-23.039-20.5-51.711 2.1328-74.348 4.1602-4.1602 10.922-4.1602 15.082 0s4.1602 10.922 0 15.082c-12.098 12.098-6.8711 27.414 2.625 51.391 9.3438 23.594 20.992 52.969-2.625 76.609-2.0703 2.0664-4.8008 3.1133-7.5312 3.1133z"/>
  <path d="m341.14 170.67c-2.7305 0-5.4609-1.0469-7.5508-3.1133-4.1602-4.1602-4.1602-10.922 0-15.082 13.035-13.055 7.6797-28.887-2.1328-53.652-9.1289-23.039-20.5-51.711 2.1328-74.348 4.1602-4.1602 10.922-4.1602 15.082 0s4.1602 10.922 0 15.082c-12.098 12.098-6.8711 27.414 2.625 51.391 9.3438 23.594 20.992 52.969-2.625 76.609-2.0703 2.0664-4.8008 3.1133-7.5312 3.1133z"/>
 </g>
</svg>
