<?xml version="1.0" encoding="UTF-8" standalone="no"?>
<!DOCTYPE svg PUBLIC "-//W3C//DTD SVG 1.1//EN" "http://www.w3.org/Graphics/SVG/1.1/DTD/svg11.dtd">
<svg width="100%" height="100%" viewBox="0 0 422 512" version="1.1" xmlns="http://www.w3.org/2000/svg" xmlns:xlink="http://www.w3.org/1999/xlink" xml:space="preserve" xmlns:serif="http://www.serif.com/" style="fill-rule:evenodd;clip-rule:evenodd;stroke-linejoin:round;stroke-miterlimit:2;">
    <g transform="matrix(1,0,0,1,-98.4178,-44)">
        <g transform="matrix(1,0,0,1.20872,46.0033,-5.5091)">
            <path d="M208.36,348.16C208.36,348.16 173.391,343.172 155.907,319.855C138.423,296.543 132.595,267.832 138.423,244.519C144.251,221.206 167.56,209.761 161.735,192.273C155.907,174.789 173.395,215.691 167.563,227.343C161.735,239.003 185.047,244.878 190.875,227.394C196.703,209.91 177.078,188.171 173.391,180.796C161.731,157.484 170.079,124.593 179.219,110.878C190.871,93.394 198.41,85.866 202.531,81.745C214.191,70.093 190.879,99.233 196.703,122.546C202.531,145.858 214.187,163.339 225.84,157.511C237.5,151.683 222.047,140.866 220.012,122.546C214.184,70.097 254.985,40.96 254.985,40.96C254.985,40.96 260.813,128.378 284.118,140.038C300.598,148.276 301.602,180.835 289.95,204.147C279.204,225.639 254.985,256.596 272.466,274.081C289.95,291.565 319.087,291.565 330.751,279.913C342.399,268.261 342.399,244.944 348.231,233.292C354.059,221.64 337.063,257.097 354.059,274.085C371.543,291.573 354.059,344.019 336.575,349.851C319.095,355.679 289.958,355.679 284.126,355.679C278.294,355.679 295.786,349.851 289.958,332.374C284.126,314.89 289.958,355.679 278.298,326.542C266.65,297.405 232.677,308.054 249.165,291.573C254.993,285.745 237.513,291.573 243.337,309.057C249.165,326.541 266.649,332.373 249.165,338.19C238.106,341.885 214.196,320.71 214.196,309.057C214.196,297.404 220.028,268.26 220.028,268.26C220.028,268.26 202.54,285.744 196.712,303.225C193.025,314.284 202.544,325.698 208.372,331.522C214.185,337.346 225.845,343.038 225.845,348.159C225.845,353.28 208.361,348.159 208.361,348.159L208.36,348.16Z" style="fill:white;fill-rule:nonzero;"/>
        </g>
        <g transform="matrix(1,0,0,1.20872,46.0033,-5.5091)">
            <path d="M278.29,262.42C278.29,262.42 284.114,239.111 278.29,262.42C275.138,275.065 307.435,285.736 319.091,274.08C330.751,262.42 330.751,239.111 330.751,221.627C330.751,204.143 342.399,180.83 348.231,175.006C354.051,169.174 272.458,221.627 278.29,262.42Z" style="fill:white;fill-rule:nonzero;"/>
        </g>
        <g transform="matrix(1,0,0,1.20872,46.0033,-5.5091)">
            <path d="M167.04,342.29L61.98,343.524C61.98,343.524 50.835,358.2 52.605,371.11C54.371,384.024 61.664,398.809 80.089,398.922C98.523,399.02 179.843,358.945 179.843,358.945L167.04,342.29Z" style="fill:white;fill-rule:nonzero;"/>
        </g>
        <g transform="matrix(1,0,0,1.20872,46.0033,-5.5091)">
            <path d="M361.17,343.45L351.338,362.02L440.986,393.059C440.986,393.059 461.912,394.993 471.752,376.422C481.588,357.856 457.479,337.762 457.479,337.762L361.17,343.45Z" style="fill:white;fill-rule:nonzero;"/>
        </g>
        <g transform="matrix(1,0,0,1.20872,46.0033,-5.5091)">
            <path d="M214.36,361.14L243.333,367.32L249.161,443.086C249.161,443.086 221.657,475.625 196.708,460.57C171.759,445.508 156.192,434.945 157.228,421.949C158.259,408.957 214.361,361.14 214.361,361.14L214.36,361.14Z" style="fill:white;fill-rule:nonzero;"/>
        </g>
        <g transform="matrix(1,0,0,1.20872,46.0033,-5.5091)">
            <path d="M272.46,367.32L303.882,364.738L368.112,409.05C368.112,409.05 372.823,425.886 357.546,436.206C342.284,446.534 315.972,456.995 301.605,448.905C287.238,440.815 272.46,367.319 272.46,367.319L272.46,367.32Z" style="fill:white;fill-rule:nonzero;"/>
        </g>
    </g>
</svg>
