<?xml version="1.0" encoding="UTF-8" standalone="no"?>
<!DOCTYPE svg PUBLIC "-//W3C//DTD SVG 1.1//EN" "http://www.w3.org/Graphics/SVG/1.1/DTD/svg11.dtd">
<svg width="100%" height="100%" viewBox="0 0 360 512" version="1.1" xmlns="http://www.w3.org/2000/svg" xmlns:xlink="http://www.w3.org/1999/xlink" xml:space="preserve" xmlns:serif="http://www.serif.com/" style="fill-rule:evenodd;clip-rule:evenodd;stroke-linejoin:round;stroke-miterlimit:2;">
    <g transform="matrix(1,0,0,1,0.000576944,-0.0001)">
        <g transform="matrix(0.470673,0,0,0.470673,-102.578,-26.4305)">
            <path d="M520.48,160.92L679.53,160.92C697.612,160.897 714.944,153.693 727.721,140.897C740.494,128.1 747.67,110.752 747.662,92.67L747.662,73.92C747.662,69.209 745.791,64.689 742.459,61.358C739.127,58.027 734.607,56.155 729.897,56.155L470.017,56.155C465.333,56.178 460.849,58.053 457.54,61.366C454.231,64.678 452.364,69.167 452.345,73.85L452.345,92.6C452.321,110.694 459.485,128.057 472.263,140.87C485.04,153.682 502.384,160.897 520.478,160.921L520.48,160.92Z" style="fill:white;fill-rule:nonzero;"/>
        </g>
        <g transform="matrix(0.470673,0,0,0.470673,-102.578,-26.4305)">
            <path d="M437.2,1122.7C446.591,1136 461.845,1143.92 478.122,1143.96L721.872,1143.96C738.149,1143.92 753.403,1136 762.794,1122.7C866.904,975.37 941.484,862 974.274,811.36C979.692,802.942 982.403,793.067 982.032,783.063C981.665,773.059 978.235,763.411 972.212,755.415C826.312,559.665 740.012,327.425 711.282,242.135C707.985,232.358 701.7,223.865 693.313,217.854C684.926,211.846 674.864,208.624 664.547,208.643L535.457,208.643C525.133,208.627 515.066,211.854 506.68,217.874C498.294,223.893 492.012,232.397 488.723,242.183C459.989,327.472 373.693,559.713 227.793,755.463C221.769,763.459 218.339,773.108 217.972,783.111C217.601,793.115 220.312,802.99 225.73,811.408C258.519,862.056 333.1,975.428 437.21,1122.71L437.2,1122.7ZM348.911,749.13C375.677,702.114 410.88,639.84 430.942,604.45C435.688,596.04 442.587,589.044 450.926,584.177C459.262,579.31 468.746,576.747 478.403,576.747L721.663,576.747C731.319,576.747 740.804,579.31 749.14,584.177C757.48,589.044 764.378,596.04 769.124,604.45C789.116,639.841 824.319,702.114 851.155,749.13C854.655,755.271 856.382,762.259 856.147,769.321C855.909,776.387 853.721,783.243 849.819,789.137C822.116,830.903 755.014,932.857 694.099,1030.05C686.044,1042.91 671.939,1050.72 656.763,1050.72L543.233,1050.72C528.057,1050.72 513.952,1042.91 505.897,1030.05C444.959,932.875 377.877,830.827 350.247,789.137C346.345,783.243 344.157,776.387 343.919,769.321C343.685,762.259 345.411,755.27 348.911,749.13Z" style="fill:white;fill-rule:nonzero;"/>
        </g>
        <g transform="matrix(0.470673,0,0,0.470673,-102.578,-26.4305)">
            <g transform="matrix(0.407546,0,0,0.407546,355.482,573.811)">
                <path d="M937.62,622.31L790.9,496.87C775.955,484.089 765.791,466.62 762.064,447.311C758.337,428.002 761.275,408.002 770.392,390.581L918.752,107.381C924.373,96.51 923.936,83.498 917.6,73.026C911.264,62.557 899.936,56.135 887.698,56.077L568.948,56.077C557.495,56.05 546.241,59.093 536.366,64.893C526.487,70.694 518.346,79.038 512.792,89.053L237.912,585.173C231.873,596.021 230.33,608.802 233.611,620.775C236.892,632.748 244.74,642.955 255.466,649.205L455.436,766.395C461.862,770.153 469.588,770.985 476.666,768.681C483.744,766.38 489.502,761.165 492.49,754.349L549.279,624.549C552.369,617.482 553.127,609.611 551.439,602.084C549.756,594.556 545.713,587.764 539.904,582.689L473.834,524.798C468.155,519.833 464.373,513.056 463.131,505.614C461.885,498.176 463.26,490.536 467.014,483.993L564.092,314.633C567.065,309.453 571.35,305.148 576.522,302.156C581.69,299.163 587.557,297.589 593.53,297.593L649.78,297.593C655.081,297.589 660.01,300.316 662.819,304.812C665.624,309.308 665.917,314.933 663.585,319.695L583.241,483.755C580.186,490.087 579.252,497.235 580.58,504.138C581.912,511.04 585.432,517.333 590.623,522.076L640.92,567.474C646.264,572.306 650.049,578.619 651.799,585.611C653.546,592.599 653.178,599.951 650.741,606.732L474.961,1108.93C466.148,1134.71 497.438,1155.22 517.57,1136.92L939.66,752.536C958.086,735.759 968.418,711.872 968.027,686.954C967.636,662.036 956.562,638.489 937.621,622.294L937.62,622.31Z" style="fill:white;fill-rule:nonzero;"/>
            </g>
        </g>
    </g>
</svg>
