<?xml version="1.0" encoding="UTF-8"?>
<svg width="512pt" height="512pt" version="1.1" viewBox="0 0 512 512" xmlns="http://www.w3.org/2000/svg">
 <g fill="#fff">
  <path d="m339.66 266.62 0.39062-0.17578c2.3984-1.0898 4.9219-1.7109 7.4492-1.9844 0.91016-0.55859 1.7852-1.1914 2.5586-1.9688l5.4883-5.4883c2.7617-2.7695 4.2812-6.4336 4.2812-10.336v-1.832c0-3.1445-1.0391-6.2461-2.9219-8.7617l-17.176-22.902-17.176 22.887c-1.9023 2.5508-2.9219 5.5938-2.9219 8.7852v1.832c0.007813 3.8945 1.5195 7.5664 4.2734 10.312l5.5039 5.5039c2.7305 2.7344 6.4883 4.1133 10.25 4.1289z"/>
  <path d="m261.54 330.35h-36.113l23.105 12.223 79.488-34.062c0.35156-0.21484 0.61719-0.52734 1.0156-0.6875l24.734-10.465c2.543-1.0781 4.4141-3.2148 5.1367-5.8789 0.72656-2.6641 0.18359-5.4648-1.4648-7.6719-1.4648-1.9531-3.6562-3.0547-5.9688-3.3672-2.4961 1.0391-5.1602 1.6094-7.8711 1.9531l-38.344 17.305c-6.5273 17.844-23.637 30.652-43.719 30.652z"/>
  <path d="m384.38 301.75-117.4 50.32c22.055 8.3047 46.145 8.1367 68.07-0.64062l50.305-20.121h0.007813l13.223-5.2891c4.2891-2.3125 8.207-5.0469 9.2656-7.8555 0.20703-0.54297 0.76953-2-0.76172-5.0391-6.582-13.191-8.3594-16.703-22.711-11.375z"/>
  <path d="m135.21 163.06c2.2148 2.207 6.1055 2.1914 8.3125 0l3.375-3.3672c1.0898-1.0977 1.7109-2.6094 1.7109-4.1602v-1.1289c0-1.2656-0.41406-2.5039-1.168-3.5117l-8.0703-10.77-8.0703 10.754c-0.76953 1.0312-1.168 2.2461-1.168 3.5273v1.1367c0 1.5586 0.60938 3.0391 1.7188 4.1523z"/>
  <path d="m239.45 173.57h120.41c19.121 0 34.664-15.551 34.664-34.672v-32.23c0-19.121-15.543-34.664-34.664-34.664h-120.41c-19.121 0-34.664 15.543-34.664 34.664v32.23c0 19.121 15.551 34.672 34.664 34.672z"/>
  <path d="m168.11 286.59c2.207 2.1992 6.1055 2.1992 8.3125 0l3.375-3.3672c1.0898-1.0977 1.7109-2.6094 1.7109-4.1602v-1.1289c0-1.2656-0.41406-2.5039-1.168-3.5117l-8.0703-10.77-8.0703 10.754c-0.76953 1.0234-1.168 2.2461-1.168 3.5352v1.1289c0 1.5586 0.60938 3.0391 1.7188 4.1523z"/>
  <path d="m434.14 349.94c-4.9766-9.9453-16.496-14.32-26.801-10.184l-1.9219 0.76953c-4.0156 2.1055-8.2734 3.9297-12.426 5.5938-0.94531 0.375-1.9531 0.56641-2.9688 0.56641h-0.015625l-49.023 19.609c-26.367 10.551-55.398 10.543-81.754 0-0.26562-0.11328-0.51953-0.22266-0.76953-0.35938l-69.016-36.504c-3.2461-1.7188-4.9023-5.4336-4.0234-9 0.88672-3.5586 4.0898-6.0703 7.7695-6.0703h68.344c12.938 0 23.961-8.1055 28.414-19.48-0.15234-1.9297 0.44141-3.7773 1.5742-5.3125 0.35938-1.8789 0.58594-3.8086 0.58594-5.7852 0-2.8164-2.2812-5.0977-5.0977-5.0977l-89.504-0.003906v0.39062c0 5.8398-2.2734 11.336-6.4062 15.473l-3.375 3.3672c-4.1367 4.1367-9.625 6.4141-15.465 6.4141-5.7539 0-11.391-2.3359-15.473-6.4141l-3.3672-3.3672c-1.3438-1.3438-2.4141-2.8789-3.3516-4.4805l-53.184 26.594c-13.129 6.5586-21.289 19.762-21.289 34.441v22.93c0 24.078 19.594 43.664 43.672 43.664 0.44141 0 0.87891 0.039063 1.3203 0.11328l125.52 20.922c17.77 2.9609 35.938 0.77734 52.512-6.3203l124.92-53.535c5.4062-2.3203 9.5039-6.6484 11.527-12.176 2.0391-5.5508 1.7031-11.496-0.92969-16.758z"/>
 </g>
</svg>
