<?xml version="1.0" encoding="UTF-8"?>
<svg width="512pt" height="512pt" version="1.1" viewBox="0 0 512 512" xmlns="http://www.w3.org/2000/svg">
 <path d="m446.46 176.64c-4.6094-8.1914-13.824-12.801-23.039-11.777 6.6562 2.5586 11.266 8.1914 12.289 14.848 1.0234 6.6562-1.0234 13.824-6.6562 18.434 4.0977-8.1914 2.5586-17.922-4.0977-24.062-6.6562-6.1445-16.383-7.168-24.574-2.5586 6.6562-0.51172 12.801 3.0703 15.871 8.7031 3.0703 5.6328 2.0469 12.801-2.0469 17.922 1.0234-7.6797-4.6094-15.359-12.289-16.383-7.6797-1.5352-15.359 3.5859-16.895 11.777h0.51172c3.5859-3.5859 9.7266-4.0977 13.824-1.0234 4.6094 3.0703 6.1445 8.1914 4.6094 13.312-5.6328 4.6094-8.1914 12.289-6.1445 18.945-2.0469 6.1445-6.6562 11.266-12.289 13.312-8.7031-2.0469-17.922-1.0234-26.113 2.5586 3.0703-14.336 0.51172-29.695-7.168-41.984 7.6797-17.406 1.0234-37.375-15.359-46.594-2.0469-28.672-13.824-55.809-32.77-76.801 9.2148 0.51172 18.434-2.5586 25.09-8.7031-12.801-2.5586-25.09-7.168-35.84-13.824-6.6562-13.824-21.504-22.016-36.863-20.48-10.754-5.1211-19.969-12.801-27.137-22.016-1.5352-2.0469-4.6094-1.5352-5.6328 0.51172-2.0469 4.0977-4.0977 6.6562-6.1445 8.7031-1.0234 1.0234-1.0234 3.0703 0 4.0977-1.0234 1.0234-1.0234 2.5586-0.51172 4.0977 1.0234 0 2.0469-0.51172 3.0703-1.5352 0.51172 0.51172 1.5352 1.5352 2.0469 2.5586-1.0234 1.0234-1.5352 3.0703-1.0234 4.0977 1.0234 0 2.0469-0.51172 2.5586-1.5352 1.5352 2.5586 3.0703 5.1211 4.6094 7.6797l0.51172 1.0234c0.51172 1.0234-0.51172 2.5586-1.5352 2.5586 0 0-0.51172 0-0.51172-0.51172-0.51172-0.51172-0.51172-0.51172-1.0234-1.0234 0.51172-1.0234 1.0234-2.0469 1.0234-3.5859-1.0234-0.51172-2.5586 0-3.5859 0.51172-0.51172-0.51172-1.0234-1.0234-1.5352-1.5352 1.0234-1.0234 1.5352-2.5586 1.0234-3.5859-1.5352 0-3.0703 0.51172-4.0977 1.0234-0.51172-0.51172-1.5352-1.0234-2.0469-1.5352 1.0234-1.0234 1.5352-2.0469 2.0469-3.5859-1.5352-0.51172-3.5859 0.51172-4.6094 2.0469 1.0273-0.003906 1.0273-0.003906 0.51562-0.003906-1.0234-0.51172-1.5352-0.51172-2.0469 0-3.5859 1.0234-4.0977 5.6328-1.5352 8.7031v0.51172c11.266 16.383 14.336 37.375 9.2148 56.832-3.0703 11.266-8.1914 22.527-14.336 32.77-9.2148 0.51172-17.406 5.6328-22.016 13.824-4.6094 7.6797-5.1211 17.406-1.0234 26.113-7.168 14.336-9.2148 30.719-5.6328 46.078-6.6562-1.5352-13.824-1.0234-20.48 1.5352-15.359 7.6797-33.281 7.6797-48.129 0-2.0469-4.6094-5.6328-8.7031-10.754-10.238 0.51172-2.5586-0.51172-5.6328-2.5586-7.168 0.51172-5.6328 4.0977-10.238 9.2148-12.289 5.1211-2.0469 10.754-1.0234 14.848 2.5586-2.5586-7.6797-9.7266-12.801-17.922-11.777-8.1914 0.51172-14.336 7.168-15.359 14.848-2.0469-5.6328-0.51172-11.266 3.0703-15.871 4.0977-4.0977 9.7266-6.1445 15.359-4.6094-4.6094-5.1211-11.777-7.6797-18.434-5.1211-6.6562 2.0469-11.266 7.6797-11.777 14.336v1.0234-0.51172-0.51172c-0.51172-8.1914 2.5586-15.871 8.1914-21.504-7.6797 2.0469-14.336 7.6797-17.406 14.848-3.0703 7.6797-2.5586 15.871 1.5352 23.039 5.1211 16.895 17.922 30.719 34.816 37.375 26.113 7.6797 53.246 11.266 80.895 10.238 4.6094-2.0469 8.7031-5.6328 11.266-10.238 0 17.922-5.1211 35.84-15.359 51.199-34.809 21-61.945 51.211-80.375 87.051 17.406 22.527 46.594 32.77 74.238 26.113-5.6328 38.91-31.23 66.047-70.656 67.586-3.5859 0.51172-7.168 3.0703-8.1914 6.6562h3.0703c-2.0469 1.5352-3.0703 3.5859-3.5859 5.6328 2.0469-0.51172 3.5859-0.51172 5.6328-0.51172-2.0469 2.0469-3.5859 5.1211-3.5859 8.1914 2.5586-1.0234 5.1211-1.5352 8.1914-1.5352-2.0469 2.0469-3.0703 5.1211-2.5586 8.1914 3.0703-2.0469 7.6797-3.0703 11.266-2.5586 6.6562 4.0977 14.848 3.0703 20.48-1.5352 6.6562 1.5352 13.824-0.51172 18.434-5.6328 24.574-32.258 43.52-68.098 55.297-106.5 0.51172-2.0469-1.5352-4.0977-3.5859-3.5859-11.266 3.5859-23.551 4.0977-35.328 1.5352 18.945-10.238 35.84-23.039 50.688-38.398 14.336 2.5586 26.113 12.289 31.23 26.113 16.895 24.574 42.496 40.961 71.68 45.566 7.168-3.5859 13.312-9.7266 16.895-16.895 10.754 23.039 11.777 49.152 3.0703 72.703-11.266 7.6797-17.922 20.48-17.406 34.305 6.1445-4.6094 12.801-7.168 19.969-8.7031 3.5859 3.5859 6.1445 8.1914 7.6797 13.312 2.5586-4.6094 6.1445-8.1914 10.754-10.238 5.6328 0.51172 11.266 3.0703 15.871 7.168 1.5352-3.0703 1.5352-6.6562 0-10.238 6.1445 0 11.777 1.5352 16.895 4.0977-0.51172-8.7031-4.6094-16.383-11.777-20.992-12.801-37.887-23.039-76.289-29.695-115.71-1.0234-6.6562-8.7031-9.2148-13.824-5.1211-5.6328 4.6094-11.777 8.1914-18.434 10.238-7.6797-23.551-19.969-45.055-35.84-63.488-10.754-18.434-13.312-40.449-7.6797-60.414 5.6328-20.48 19.457-37.375 37.887-47.617 4.6094 31.23 16.383 60.414 35.328 85.504 26.113-1.0234 50.176-14.848 64.512-36.863 15.359-7.168 26.625-21.504 29.695-38.398 6.1523-6.6719 6.6641-16.91 2.0586-25.102zm-172.54-131.59-2.0469 0.51172c-1.5352 0.51172-3.0703 0-4.0977-1.0234l-4.6094-4.0977c-1.5352-1.0234 0-3.0703 1.5352-2.5586l9.7266 4.0977c1.0273 0.51172 1.0273 3.0703-0.50781 3.0703z" fill="#fff"/>
</svg>
