<?xml version="1.0" encoding="UTF-8" standalone="no"?>
<!DOCTYPE svg PUBLIC "-//W3C//DTD SVG 1.1//EN" "http://www.w3.org/Graphics/SVG/1.1/DTD/svg11.dtd">
<svg width="100%" height="100%" viewBox="0 0 504 512" version="1.1" xmlns="http://www.w3.org/2000/svg" xmlns:xlink="http://www.w3.org/1999/xlink" xml:space="preserve" xmlns:serif="http://www.serif.com/" style="fill-rule:evenodd;clip-rule:evenodd;stroke-linejoin:round;stroke-miterlimit:2;">
    <g transform="matrix(1,0,0,1,-62.6198,-54.1141)">
        <g transform="matrix(0.468971,0,0,0.468971,33.2529,28.7361)">
            <path d="M1015.1,295.31C1009.74,266.693 995.166,240.611 973.616,221.037C930.725,181.357 891.96,169.17 865.476,166.31C852.925,164.904 840.371,168.935 830.984,177.388C821.601,185.841 816.281,197.908 816.375,210.536C816.586,243.606 831.305,277.52 846.187,303.442C848.722,307.833 853.113,310.837 858.125,311.61C863.133,312.387 868.227,310.848 871.969,307.426C875.461,304.262 879.282,301.075 883.383,298.051C889.051,293.782 896.016,291.598 903.11,291.88C910.2,292.157 916.973,294.876 922.29,299.575C941.743,317.059 977.087,339.794 1009.01,312.231C1013.86,308.043 1016.17,301.626 1015.1,295.309L1015.1,295.31Z" style="fill:white;fill-rule:nonzero;"/>
            <path d="M100.97,954.42C115.595,953.936 129.443,961.022 137.603,973.17C146.978,987.561 145.853,1005.98 136.455,1020.42C133.888,1024.36 132.697,1029.03 133.068,1033.72C133.443,1038.41 135.357,1042.84 138.517,1046.32C143.736,1051.99 149.322,1057.5 155.275,1062.84C159.166,1066.31 164.189,1068.23 169.396,1068.25C174.607,1068.27 179.646,1066.39 183.564,1062.96L280.689,978.139C283.447,975.741 287.494,975.569 290.443,977.725C293.392,979.877 294.459,983.784 293.017,987.139L246.142,1094.95C243.99,1099.89 244.006,1105.51 246.189,1110.43C248.373,1115.36 252.521,1119.15 257.627,1120.87C291.354,1132.05 330.799,1139.46 376.927,1141.73C385.833,1142.22 394.681,1140.07 402.368,1135.54C410.052,1131.02 416.227,1124.32 420.122,1116.3C460.243,1034.37 508.888,956.891 565.242,885.161C570.301,878.743 572.281,870.419 570.652,862.411C569.019,854.399 563.949,847.513 556.781,843.583C489.164,806.411 432.211,750.349 389.861,678.703C379.084,660.43 369.423,641.523 360.939,622.078C357.752,614.824 351.4,609.437 343.724,607.476C336.045,605.511 327.892,607.187 321.611,612.023C250.306,667 174.991,716.573 96.311,760.333C76.385,771.329 63.686,791.966 62.842,814.708C61.834,845.177 63.803,890.786 78.147,938.318C79.682,943.118 82.745,947.286 86.862,950.193C90.983,953.099 95.936,954.583 100.975,954.419L100.97,954.42Z" style="fill:white;fill-rule:nonzero;"/>
            <path d="M735.77,95.93C717.208,142.805 678.301,225.66 605.76,324.38C600.33,331.724 597.287,340.56 597.049,349.692C596.811,358.825 599.385,367.809 604.424,375.426C647.596,440.559 742.704,562.926 872.664,608.256C888.269,613.526 905.238,613.084 920.547,607.014C978.094,584.791 1038.69,571.452 1100.25,567.452C1112.12,566.663 1123.01,560.581 1129.91,550.89C1136.82,541.198 1139.01,528.917 1135.87,517.437L1135.87,517.32C1134.98,514.023 1133.14,511.066 1130.57,508.812C1128.01,506.554 1124.84,505.105 1121.46,504.64C1052.04,495.007 918.578,464.796 838.118,371.05C835.352,367.839 769.235,290.308 768.673,208.82C768.454,183.16 779.22,158.629 798.251,141.418C817.286,124.207 842.774,115.957 868.282,118.75C898.54,122.008 941.454,134.711 987.812,173.711C1020.25,201.063 1043.64,238.047 1051.66,279.741C1056.94,305.503 1055.53,332.194 1047.53,357.249C1040.92,376.788 1027.64,393.382 1010.03,404.124L1009.33,404.546C1004.93,407.225 1002.45,412.186 1002.95,417.316C1003.45,422.445 1006.84,426.835 1011.67,428.617C1034.78,436.964 1058.42,443.769 1082.43,448.984C1089.47,450.542 1096.84,449.488 1103.16,446.019C1109.48,442.546 1114.33,436.894 1116.79,430.117C1133.43,383.875 1157.1,301.537 1095.3,188.237C1095.3,188.237 1026.79,61.017 799.467,54.147C785.842,53.717 772.412,57.502 761.014,64.979C749.616,72.456 740.799,83.268 735.764,95.936L735.77,95.93Z" style="fill:white;fill-rule:nonzero;"/>
            <path d="M509.67,597.91C504.803,602.215 498.389,604.344 491.916,603.805C485.439,603.265 479.467,600.101 475.381,595.051C456.608,571.801 439.795,547.035 425.108,521.012C422.014,515.472 416.569,511.64 410.311,510.59C404.053,509.543 397.659,511.394 392.928,515.621L392.483,516.019C385.319,522.465 380.479,531.097 378.725,540.574C376.971,550.051 378.397,559.844 382.779,568.426C396.256,594.887 416.107,629.364 431.834,655.754C470.74,721.074 530.693,783.044 597.534,819.814C609.456,826.365 623.35,828.361 636.632,825.435C649.913,822.506 661.683,814.853 669.745,803.9C706.378,753.955 731.456,716.502 796.005,687.06C821.271,675.552 822.771,640.185 798.841,626.122C741.958,592.7 689.411,553.747 643.871,503.892C613.301,469.814 584.461,434.22 557.457,397.252C552.301,390.19 544.219,385.85 535.48,385.451C526.746,385.057 518.3,388.647 512.527,395.213C500.152,409.275 487.105,423.455 473.386,437.752C466.027,445.455 461.343,455.322 460.019,465.897C458.699,476.467 460.812,487.186 466.05,496.463C479.402,520.35 494.722,543.088 511.847,564.432C515.82,569.237 517.808,575.377 517.402,581.6C516.996,587.819 514.23,593.651 509.668,597.901L509.67,597.91ZM537.045,647.129C537.346,645.606 537.795,644.113 538.381,642.676C538.998,641.242 539.736,639.863 540.584,638.551C541.459,637.254 542.455,636.047 543.561,634.942C544.643,633.82 545.854,632.828 547.17,631.988C548.459,631.117 549.834,630.379 551.272,629.785C555.627,627.942 560.44,627.461 565.077,628.403C566.6,628.727 568.088,629.192 569.53,629.785C570.967,630.383 572.338,631.121 573.631,631.988C574.948,632.832 576.166,633.824 577.264,634.942C578.354,636.055 579.342,637.262 580.217,638.551C581.084,639.848 581.815,641.231 582.397,642.676C583.592,645.57 584.221,648.664 584.248,651.793C584.252,653.367 584.088,654.942 583.756,656.481C583.456,658.008 583.002,659.5 582.397,660.934C581.83,662.387 581.1,663.774 580.217,665.059C579.35,666.367 578.362,667.594 577.264,668.715C572.788,673.172 566.729,675.676 560.412,675.676C554.096,675.676 548.037,673.172 543.56,668.715C542.447,667.598 541.451,666.375 540.584,665.059C539.72,663.758 538.982,662.375 538.38,660.934C537.794,659.496 537.345,658.004 537.045,656.481C536.72,654.938 536.564,653.367 536.576,651.793C536.568,650.227 536.728,648.664 537.045,647.129L537.045,647.129Z" style="fill:white;fill-rule:nonzero;"/>
            <path d="M838.41,1039.6C832.129,1039.6 826.098,1042.08 821.637,1046.51C817.18,1050.93 814.649,1056.94 814.598,1063.22L814.082,1121.82C814.028,1128.14 816.485,1134.23 820.914,1138.74C825.344,1143.25 831.387,1145.81 837.707,1145.87L837.918,1145.87C844.203,1145.87 850.234,1143.39 854.699,1138.96C859.164,1134.53 861.699,1128.53 861.754,1122.24L862.246,1063.65C862.301,1057.33 859.844,1051.24 855.414,1046.73C850.984,1042.22 844.941,1039.65 838.621,1039.6L838.41,1039.6Z" style="fill:white;fill-rule:nonzero;"/>
            <path d="M863.32,852.47C857.883,788.204 819.258,776.579 802.898,774.564C778.996,772.025 755.363,781.337 739.617,799.502C718.031,823.666 714.469,854.791 729.562,887.135C737.308,903.346 748.582,917.615 762.562,928.901L931.312,1066.76C936.179,1070.98 942.546,1073.04 948.96,1072.49C955.374,1071.94 961.292,1068.82 965.37,1063.83C969.444,1058.85 971.331,1052.42 970.597,1046.03C969.862,1039.63 966.573,1033.8 961.476,1029.87L863.038,949.386L863.67,862.667C863.67,858.73 863.577,855.472 863.319,852.472L863.32,852.47ZM815.625,910.665L792.797,891.915C784.363,885.161 777.539,876.61 772.828,866.884C763.851,847.689 769.406,837.728 775.172,831.189C780,825.423 787.039,821.97 794.555,821.673C795.34,821.677 796.121,821.724 796.899,821.814C800.836,822.306 812.86,823.783 815.649,856.408C815.789,857.978 815.836,859.83 815.813,862.174L815.625,910.665Z" style="fill:white;fill-rule:nonzero;"/>
        </g>
    </g>
</svg>
