<?xml version="1.0" encoding="UTF-8" standalone="no"?>
<!DOCTYPE svg PUBLIC "-//W3C//DTD SVG 1.1//EN" "http://www.w3.org/Graphics/SVG/1.1/DTD/svg11.dtd">
<svg width="100%" height="100%" viewBox="0 0 414 512" version="1.1" xmlns="http://www.w3.org/2000/svg" xmlns:xlink="http://www.w3.org/1999/xlink" xml:space="preserve" xmlns:serif="http://www.serif.com/" style="fill-rule:evenodd;clip-rule:evenodd;stroke-linejoin:round;stroke-miterlimit:2;">
    <g transform="matrix(1,0,0,1,-169.679,-67.1654)">
        <g transform="matrix(0.480462,0,0,0.480462,88.1548,34.895)">
            <path d="M499.85,934.76C499.733,934.268 499.663,933.963 499.85,934.76Z" style="fill:white;fill-rule:nonzero;"/>
            <path d="M304.43,282.49C306.328,280.146 313.922,265.217 314.93,260.013C318.047,244.146 313.782,225.982 301.196,215.177C285.962,202.122 264.423,208.333 255.962,225.677C248.79,240.419 246.587,261.513 255.728,275.904C265.525,291.443 291.564,298.474 304.431,282.49L304.43,282.49Z" style="fill:white;fill-rule:nonzero;"/>
            <path d="M467.37,146.62C486.753,151.542 510.94,131.034 505.831,100.565C502.901,83.221 493.69,66.979 475.362,67.167C469.96,67.202 464.671,68.714 460.069,71.538C455.467,74.366 451.725,78.397 449.253,83.198C441.964,92.339 441.472,108.979 442.55,119.76C444.12,134.901 456.542,143.854 467.37,146.619L467.37,146.62Z" style="fill:white;fill-rule:nonzero;"/>
            <path d="M715.22,232.64C722.486,221.632 726.892,208.984 728.04,195.843C729.282,183.773 728.274,167.905 720.751,157.898C716.915,152.304 711.013,148.468 704.345,147.234C700.732,145.746 696.837,145.043 692.931,145.172C679.197,145.523 668.65,152.672 663.915,163.5C654.212,189.633 656.743,213.211 667.477,231.469C677.04,247.758 708.891,242.016 715.219,232.64L715.22,232.64Z" style="fill:white;fill-rule:nonzero;"/>
            <path d="M1005.8,745.5C1004.28,744.867 979.058,741.211 969.73,766.453C967.035,774.32 962.027,781.191 955.363,786.164C951.613,788.809 947.476,790.863 943.105,792.258C937.027,794.367 930.492,794.789 924.191,793.477C914.136,791.133 914.3,785.719 914.816,776.743C916.832,739.829 935.207,705.446 946.246,670.733C968.238,600.616 971.902,526.033 956.887,454.103C946.012,401.626 920.02,324.823 853.037,330.023C828.006,331.944 803.818,346.429 796.787,371.695C792.662,386.648 799.693,403.406 795.381,417.562C790.576,433.335 771.779,425.601 762.686,418.288C736.741,397.429 724.811,365.202 711.452,336.093C698.819,308.577 667.929,299.577 646.929,324.609C627.265,348.047 618.64,386.882 620.726,416.812C621.687,430.64 625.413,445.078 634.788,455.695C646.108,468.492 661.694,471.562 677.585,475.383C731.773,488.344 794.445,508.711 826.575,557.836C862.716,613.102 855.403,702.726 820.598,757.056C800.676,788.134 769.739,810.494 738.825,829.712C725.044,838.243 710.348,846.657 702.614,861.587C693.895,878.485 701.325,895.196 697.106,912.376C693.895,925.407 683.629,931.501 673.668,934.314C668.258,935.771 662.477,934.642 658.008,931.259C653.54,927.877 650.883,922.623 650.817,917.017C650.653,907.783 649.973,898.548 645.239,891.892C639.403,883.642 628.059,880.947 620.301,888.682C610.527,898.385 610.293,914.463 611.981,929.159C612.356,932.307 611.418,935.467 609.395,937.905C607.367,940.342 604.43,941.838 601.27,942.049L599.934,942.049C596.676,942.26 589.551,942.94 580.434,943.573C577.68,943.764 574.969,942.826 572.926,940.971C570.879,939.119 569.684,936.51 569.606,933.752C569.465,928.315 569.324,922.9 569.09,917.346C568.668,906.705 568.856,896.838 560.723,888.987C555.547,884.03 547.383,884.03 542.207,888.987C533.301,897.003 533.91,908.182 533.301,919.456C532.926,923.726 532.832,928.019 533.019,932.3C533.308,936.07 532.035,939.796 529.496,942.597C526.953,945.402 523.371,947.035 519.59,947.113C507.356,947.417 496.152,941.441 496.152,924.988C493.339,893.91 488.441,861.824 470.371,835.926C449.582,806.348 416.16,795.614 386.793,777.192C351.965,755.348 341.816,716.676 343.973,677.536C346.317,633.403 359.278,588.474 369.309,545.466C373.153,528.943 377.512,507.075 392.747,496.904C398.02,493.365 405.169,490.623 411.614,492.005C418.973,493.576 421.622,499.716 427.036,504.239C442.247,517.012 460.411,509.771 476.559,503.044C493.387,496.013 509.653,486.849 522.403,473.606C547.27,447.825 556.153,409.153 537.122,377.512C526.036,359.114 521.02,346.457 522.403,324.52C523.575,306.051 527.231,287.747 525.614,269.208C523.036,239.325 506.137,203.372 471.45,202.575C455.044,202.2 441.45,210.52 431.302,222.895C430.645,223.715 430.013,224.536 429.427,225.239C420.946,235.27 415.134,247.282 412.529,260.161C408.779,277.317 408.662,295.036 406.107,312.38C403.427,330.314 398.939,347.927 392.701,364.95C387.263,379.833 380.701,396.028 370.435,408.309C361.458,419.02 344.232,427.668 336.591,411.215C330.825,398.817 330.099,385.692 322.06,374.067C313.622,361.903 300.638,353.723 285.451,354.684C257.326,356.489 246.123,386.536 243.263,410.278C238.575,447.051 239.935,484.317 230.255,520.438C221.161,554.282 205.88,586.063 194.841,619.204C183.427,653.54 172.177,690.759 170.396,726.784C167.818,778.768 171.38,835.864 194.654,883.304C197.689,893.195 202.38,902.499 208.529,910.82C219.099,925.234 235.131,938.945 253.763,939.695C259.997,939.929 264.427,933.601 263.7,927.976C263.943,926.699 263.806,925.378 263.302,924.179C259.599,914.804 253.552,906.695 257.419,896.218C262.271,883.046 278.513,878.546 291.122,880.796C311.442,884.429 322.575,900.835 337.2,912.437C349.927,924.929 361.598,938.921 368.138,955.234C371.419,963.39 376.576,975.062 367.13,979.984C359.138,984.156 347.161,982.515 338.653,981.883C320.981,980.593 315.755,1002.65 325.364,1013.99C369.473,1066.05 430.974,1108.52 498.164,1123.51C501.254,1124.25 504.485,1124.18 507.539,1123.3C551.297,1135.93 603.281,1135.02 646.199,1126.16C698.488,1115.31 743.113,1083.43 793.859,1067.96C817.929,1060.65 842,1053.18 863.492,1039.84C883.808,1026.66 902.289,1010.86 918.453,992.824C951.265,957.316 981.195,917.379 1002.36,873.784C1018.04,841.417 1054.91,765.664 1005.81,745.514L1005.8,745.5ZM898.2,507.68C896.126,508.727 893.927,509.512 891.661,510.024C885.079,513.344 877.243,512.989 870.989,509.086C861.614,503.414 857.348,493.781 855.122,483.68C852.747,477.465 850.938,471.047 849.708,464.508C847.036,451.805 843.052,435.774 847.973,423.211C850.794,416.008 856.594,410.379 863.879,407.777C871.165,405.176 879.219,405.855 885.965,409.641C896.559,415.5 903.332,428.18 907.481,439.008C914.934,458.391 921.122,495.914 898.2,507.68L898.2,507.68Z" style="fill:white;fill-rule:nonzero;"/>
            <path d="M540.05,650.46C531.191,636.679 517.925,625.148 504.378,619.991C477.425,609.866 448.714,622.71 432.987,645.632C394.784,701.249 453.401,774.912 515.768,746.012C528.393,740.047 538.702,730.086 545.096,717.672C551.49,705.258 553.612,691.082 551.135,677.34C549.674,667.613 545.869,658.387 540.049,650.457L540.05,650.46Z" style="fill:white;fill-rule:nonzero;"/>
            <path d="M743.16,627.4C716.558,604.642 674.746,605.111 654.683,636.306C647.765,648.302 643.23,661.521 641.324,675.236C638.23,704.392 652.597,733.244 679.082,746.369C709.059,761.181 747.988,750.424 764.535,720.588C781.738,689.768 768.918,649.455 743.16,627.4L743.16,627.4Z" style="fill:white;fill-rule:nonzero;"/>
            <path d="M619.29,761.37C609.446,749.112 599.228,744.636 581.11,756.987C574.344,761.706 569.141,768.331 566.157,776.018C563.345,782.674 554.696,803.862 555.868,808.83C557.931,817.479 565.759,820.971 573.821,822.26C587.883,824.604 623.391,823.971 632.602,815.51C643.5,805.385 632.532,777.869 619.29,761.369L619.29,761.37Z" style="fill:white;fill-rule:nonzero;"/>
        </g>
    </g>
</svg>
