<?xml version="1.0" encoding="UTF-8" standalone="no"?>
<svg
   height="512"
   width="512"
   version="1.1"
   id="svg647"
   sodipodi:docname="shout.svg"
   xmlns:inkscape="http://www.inkscape.org/namespaces/inkscape"
   xmlns:sodipodi="http://sodipodi.sourceforge.net/DTD/sodipodi-0.dtd"
   xmlns="http://www.w3.org/2000/svg"
   xmlns:svg="http://www.w3.org/2000/svg">
  <defs
     id="defs651" />
  <sodipodi:namedview
     id="namedview649"
     pagecolor="#505050"
     bordercolor="#ffffff"
     borderopacity="1"
     inkscape:showpageshadow="0"
     inkscape:pageopacity="0"
     inkscape:pagecheckerboard="1"
     inkscape:deskcolor="#505050"
     showgrid="false" />
  <g
     transform="matrix(0.52996584,0,0,0.52996584,-19.211261,109.38495)"
     id="g645">
    <path
       d="m 1001.3,275.55 v 83.75 q 0,3.15 -3.2,3.15 -12.3,0 -25.7,-16.6 -22.7,-5.25 -22.7,-12.25 -9.45,-6.4 -13.5,-6.4 h -3.15 q -5.2,0 -9.35,4.15 -27.85,-4.15 -57.85,-4.15 H 689.2 q -45.55,0 -126.1,1.15 -9.4,0 -14.45,-13.45 43.4,-13.45 283.2,-30 37.2,-11.4 118.75,-18.65 l 44.5,-4.1 q 4.15,1.15 7.25,5.2 l -1.05,8.2 M 849.35,86.6 q -47.55,42.25 -59.85,48.45 -6.25,0 -61.1,-47.55 v -5.15 q 53.8,-47.6 59.95,-47.6 h 3.1 q 47.55,38.4 57.9,47.6 v 4.25 m 96.1,383.35 q -2.1,0 -5.2,-2.05 h -8.2 l -8.35,2.05 q -10.35,0 -51.6,-4.15 -115.75,2.1 -182.9,2.1 H 563.1 q -9.4,0 -14.45,-12.5 0,-4.15 76.4,-14.45 248.2,-17.55 248.2,-26.9 71.2,-8.2 122.9,-11.2 5.15,1.95 5.15,4.05 v 94 l -2.05,2.05 q -13.45,0 -30,-19.6 -14.45,0 -23.8,-13.4 M 505.5,49.35 q -36.2,85.7 -40.35,88.85 -14.5,0 -22.75,58.7 l -2.1,1.2 q -21.7,-4.2 -21.7,-20.75 V 153.6 q 0,-13.3 -1.05,-36.2 l 8.4,-23.75 q 0,-12.45 -39.3,-18.6 Q 370,58.65 370,56.5 q 3.25,-18.7 6.3,-18.7 v -0.9 q 20.65,7.15 24.85,7.15 h 96 q 6.3,0 8.35,5.3 M 402.2,278.7 q 0,11.35 -40.35,33.1 L 225.4,416.3 q -32,0 -75.45,33 -76.55,48.5 -112.8,69.25 l -0.9,-3.15 q 0,-20.6 77.5,-83.75 19.65,-19.6 29.95,-19.6 l 17.6,1.1 q 12.45,0 16.45,-15.55 54.85,-41.3 109.6,-93.05 4.2,-20.7 17.6,-29 11.4,-4.15 11.4,-17.45 v -1.2 q 0,-9.3 -13.5,-28.85 3.2,-24.7 8.3,-24.7 h 1 q 14.5,5.1 70.4,56.85 18.6,7.15 18.6,17.5 1.05,0 1.05,1 M 228.45,159.85 q -54.7,47.55 -61,47.55 -6.15,0 -60.9,-47.55 v -5.2 q 54.75,-47.6 61.95,-47.6 4.15,0 59.95,47.6 v 5.2"
       fill="#ffffff"
       fill-rule="evenodd"
       stroke="none"
       id="path643" />
  </g>
</svg>
