<?xml version="1.0" encoding="UTF-8" standalone="no"?>
<!DOCTYPE svg PUBLIC "-//W3C//DTD SVG 1.1//EN" "http://www.w3.org/Graphics/SVG/1.1/DTD/svg11.dtd">
<svg width="100%" height="100%" viewBox="0 0 512 512" version="1.1" xmlns="http://www.w3.org/2000/svg" xmlns:xlink="http://www.w3.org/1999/xlink" xml:space="preserve" xmlns:serif="http://www.serif.com/" style="fill-rule:evenodd;clip-rule:evenodd;stroke-linejoin:round;stroke-miterlimit:2;">
    <g transform="matrix(1,0,0,1,-69.1417,-69.1683)">
        <g transform="matrix(0.482254,0,0,0.482254,35.7978,35.8116)">
            <path d="M266.37,567.56C272.768,595.216 282.776,644.294 284.956,687.49C285.046,691.931 287.78,695.888 291.905,697.541C296.03,699.189 300.741,698.213 303.87,695.061C314.21,684.499 322.046,671.749 326.792,657.749C333.734,636.757 331.058,613.772 319.48,594.937C311.23,581.39 299.042,565.453 282.988,555.093C274.597,549.678 264.05,557.624 266.371,567.562L266.37,567.56Z" style="fill:white;fill-rule:nonzero;"/>
            <path d="M539.23,285.59C536.519,284.332 533.339,284.649 530.933,286.422C528.527,288.192 527.277,291.137 527.675,294.098C529.785,312.989 539.066,342.028 575.347,349.528C589.605,352.141 603.527,356.336 616.855,362.044C620.789,363.747 625.348,363.079 628.625,360.317C631.903,357.555 633.336,353.177 632.325,349.012C628.598,331.387 618.661,310.035 593.02,302.137C560.747,292.106 548.442,290.02 539.231,285.59L539.23,285.59Z" style="fill:white;fill-rule:nonzero;"/>
            <path d="M813.52,301.05C813.52,314.331 803.079,325.097 790.2,325.097C777.321,325.097 766.88,314.331 766.88,301.05C766.88,287.769 777.321,277.003 790.2,277.003C803.079,277.003 813.52,287.769 813.52,301.05" style="fill:white;fill-rule:nonzero;"/>
            <path d="M1083.3,1022.5C1078.81,1027.23 1072.41,1029.64 1065.92,1029.07C1059.42,1028.48 1053.55,1024.97 1049.97,1019.52C1044,1010.55 1038.53,996.085 1038.11,972.906C1037.53,939.976 1054.26,910.164 1066.87,892.468C1069.57,888.644 1074.2,886.679 1078.83,887.394C1083.45,888.109 1087.27,891.382 1088.69,895.843C1095.74,916.39 1100.16,937.749 1101.84,959.405C1103.14,974.51 1100.8,989.71 1095.02,1003.73C1092.23,1010.62 1088.27,1016.97 1083.3,1022.5L1083.3,1022.5Z" style="fill:white;fill-rule:nonzero;"/>
            <path d="M822.66,1007.5C823.574,1011.79 824.676,1016.57 826.012,1021.56C837.098,1063.75 878.02,1090.26 919.481,1081.7L920.863,1081.42C925.32,1080.32 929.027,1077.25 930.922,1073.07C932.821,1068.89 932.696,1064.07 930.59,1060C919.059,1036.82 891.871,997.07 838.832,989.688C834.082,989.09 829.336,990.844 826.117,994.391C822.895,997.938 821.606,1002.83 822.66,1007.5L822.66,1007.5Z" style="fill:white;fill-rule:nonzero;"/>
            <path d="M1114.2,257.46C1102.48,225.491 1082.54,189.843 1048.93,165.585C1048.93,165.585 996.005,122.929 977.536,79.218C976.063,75.601 972.395,73.382 968.509,73.753C964.622,74.128 961.442,77.007 960.685,80.835C958.864,88.835 957.583,96.944 956.841,105.116C956.423,110.983 953.317,116.331 948.431,119.604C943.544,122.881 937.419,123.717 931.833,121.874C889.06,107.179 796.153,87.983 700.743,150.983C690.243,158.014 693.547,174.421 705.875,176.342C760.813,184.639 866.915,215.717 921.855,331.712C923.613,335.423 924.82,339.372 925.441,343.431C927.129,354.986 927.222,376.759 906.246,384.704C896.746,388.278 886.211,387.922 876.973,383.719C871.825,381.458 867.212,378.126 863.45,373.946C861.103,371.38 857.384,370.594 854.2,371.997C851.017,373.395 849.079,376.669 849.388,380.133C850.864,400.008 858.06,425.297 879.857,450.68C893.861,466.778 902.314,486.95 903.974,508.219C906.107,538.36 897.833,576.657 850.068,596.649C843.642,599.282 836.869,600.974 829.959,601.665C822.287,602.442 814.568,602.599 806.873,602.134C770.428,599.79 742.631,568.15 742.232,530.486C741.857,493.408 731.638,439.502 681.81,407.016C671.919,400.57 659.169,409.617 661.443,421.477C666.622,448.641 666.974,485.789 631.302,489.188C615.423,490.442 599.747,484.946 588.13,474.047L105.22,74.997C85.556,57.114 57.806,84.137 74.025,105.466C203.725,275.786 416.755,504.046 486.525,612.256C494.462,624.342 498.185,638.709 497.119,653.131C496.513,662.033 493.603,670.627 488.681,678.069C469.462,706.194 427.743,702.702 411.337,672.655C408.868,668.088 406.74,663.35 404.962,658.475C403.779,655.209 400.544,653.154 397.087,653.467C393.63,653.783 390.818,656.389 390.243,659.811C384.478,688.709 383.658,734.506 424.86,762.931C445.137,776.853 470.028,782.357 494.282,778.283C509.005,775.83 523.954,774.99 538.86,775.775C594.008,779.103 624.008,844.423 590.282,889.585C580.732,902.362 568.602,912.991 554.68,920.78C533.278,932.932 508.551,937.936 484.11,935.053C446.798,930.623 388.157,909.272 350.14,824.893C348.379,820.741 345.051,817.448 340.879,815.733C336.707,814.018 332.027,814.018 327.856,815.733C323.684,817.447 320.356,820.74 318.594,824.893C316.395,829.791 314.485,834.815 312.875,839.94C311.266,845.471 306.973,849.815 301.461,851.495C295.953,853.171 289.965,851.956 285.547,848.26C254.516,822.479 202.391,756.854 205.859,610.3C206.328,589.722 179.843,581.847 169.976,599.753C151.976,632.378 135.265,680.894 137.679,746.753C137.679,746.753 118.132,752.964 94.179,734.12C84.429,726.433 70.296,733.488 69.757,746.143C66.101,830.799 75.898,1042.48 255.687,1112.09C288.89,1124.71 324.14,1131.07 359.657,1130.84L719.097,1130.84C739.113,1130.84 746.753,1103.87 729.855,1092.8C721.797,1087.71 713.207,1083.51 704.238,1080.27C694.269,1076.61 684.742,1071.84 675.832,1066.06C662.922,1057.63 651.309,1047.37 641.355,1035.59C622.98,1013.54 636.668,979.179 664.793,976.015C693.016,972.707 721.5,972.324 749.801,974.867C769.371,976.765 784.09,956.984 776.989,938.094C763.466,902.328 747.387,873.219 703.419,808.574L606.341,650.444C595.747,633.194 615.552,613.249 632.005,624.663C698.591,670.647 795.625,739.503 849.785,786.383C852.531,788.735 856.035,790.016 859.649,789.996C863.266,789.973 866.75,788.649 869.469,786.262C872.188,783.875 873.953,780.59 874.442,777.008C876.899,761.422 880.606,746.063 885.528,731.07C888.02,722.965 894.629,716.793 902.887,714.863C911.14,712.933 919.801,715.535 925.629,721.695C939.117,736.183 950.774,752.273 960.34,769.601C964.445,776.98 968.078,784.613 971.215,792.453C975.715,803.398 987.621,825.101 1016.33,843.336C1020.51,845.949 1025.81,845.945 1029.98,843.332C1034.15,840.719 1036.47,835.953 1035.95,831.055C1034.12,808.602 1033.61,773.563 1042.3,739.391C1043.52,733.852 1046.95,729.055 1051.8,726.114C1056.65,723.177 1062.49,722.352 1067.96,723.841C1073.44,725.325 1078.06,728.989 1080.76,733.978C1091.4,753.353 1101.04,773.263 1109.64,793.626C1111.66,798.505 1116.89,801.247 1122.05,800.145C1127.22,799.04 1130.87,794.411 1130.73,789.125L1130.73,353.635C1130.91,320.85 1125.32,288.291 1114.21,257.447L1114.2,257.46ZM572.49,557.81C572.72,563.767 570.392,569.537 566.096,573.665C561.799,577.798 555.94,579.896 549.998,579.431C544.056,578.966 538.596,575.985 534.99,571.239L441.24,459.399C433.833,449.719 446.583,437.415 455.467,445.688L565.627,540.727C570.056,544.899 572.56,550.719 572.541,556.805L572.49,557.81ZM505.904,1064.88C498.615,1077.89 481.271,1081.61 467.138,1073.2C453.005,1064.79 447.45,1047.42 454.716,1034.41C461.982,1021.4 479.349,1017.68 493.482,1026.09C507.615,1034.51 513.24,1051.87 505.904,1064.88ZM1045.1,517.97C1042.06,520.982 1037.55,521.974 1033.52,520.517C1029.49,519.06 1026.65,515.415 1026.24,511.15C1023.96,496.42 1020.12,481.97 1014.8,468.048C1002,432.212 1021.17,408.868 1035.66,397.15C1038.01,395.298 1041.18,394.892 1043.92,396.087C1046.66,397.282 1048.52,399.888 1048.76,402.868C1049.88,413.251 1054.6,425.18 1063.22,458.79C1070.16,485.509 1057.69,505.407 1045.1,517.97L1045.1,517.97Z" style="fill:white;fill-rule:nonzero;"/>
        </g>
    </g>
</svg>
