<?xml version="1.0" encoding="UTF-8" standalone="no"?>
<!DOCTYPE svg PUBLIC "-//W3C//DTD SVG 1.1//EN" "http://www.w3.org/Graphics/SVG/1.1/DTD/svg11.dtd">
<svg width="100%" height="100%" viewBox="0 0 512 507" version="1.1" xmlns="http://www.w3.org/2000/svg" xmlns:xlink="http://www.w3.org/1999/xlink" xml:space="preserve" xmlns:serif="http://www.serif.com/" style="fill-rule:evenodd;clip-rule:evenodd;stroke-linejoin:round;stroke-miterlimit:2;">
    <g transform="matrix(1,0,0,1,-44.2689,-50.5106)">
        <g transform="matrix(0.460659,0,0,0.460659,23.876,27.2424)">
            <path d="M404.48,1110.2L431.621,1127.36L458.738,1144.58C465.761,1149.04 474.269,1150.53 482.386,1148.71C490.507,1146.9 497.57,1141.93 502.027,1134.9L631.237,931.303L712.354,982.865C718.069,986.529 725.01,987.759 731.635,986.287C738.264,984.814 744.03,980.756 747.651,975.014L760.26,955.139C763.885,949.436 765.088,942.522 763.612,935.928C762.135,929.334 758.096,923.596 752.385,919.983L617.545,834.389L482.805,748.936C477.101,745.311 470.192,744.1 463.598,745.573C457.004,747.045 451.266,751.08 447.649,756.788L435.04,776.663C431.415,782.366 430.204,789.276 431.676,795.87C433.149,802.464 437.184,808.202 442.891,811.819L524.008,863.381L394.798,1066.98C390.357,1074 388.88,1082.49 390.693,1090.59C392.509,1098.69 397.466,1105.75 404.478,1110.2L404.48,1110.2Z" style="fill:white;fill-rule:nonzero;"/>
            <path d="M1123.8,71.062C1122.57,64.179 1118.51,58.128 1112.61,54.386C1106.7,50.644 1099.5,49.55 1092.75,51.374C987.276,79.733 862.076,128.436 807.486,150.421C789.591,157.636 775.322,171.702 767.853,189.491C698.9,353.551 607.423,623.081 579.373,706.801C576.924,714.11 576.99,722.031 579.572,729.293C582.15,736.559 587.088,742.75 593.599,746.879L629.341,769.567L954.681,256.947C959.443,249.467 967.829,245.092 976.693,245.474C985.553,245.853 993.533,250.935 997.634,258.798C1001.73,266.662 1001.33,276.114 996.564,283.595L671.224,796.145L706.966,818.833C713.47,822.966 721.173,824.798 728.841,824.04C736.513,823.279 743.704,819.966 749.271,814.638C813.091,753.7 1018.03,556.078 1137.11,423.868C1150.04,409.54 1156.7,390.638 1155.6,371.368C1152.25,312.61 1143.04,178.638 1123.8,71.068L1123.8,71.062Z" style="fill:white;fill-rule:nonzero;"/>
            <path d="M70.805,979.69L206.485,979.69C217.294,979.698 227.883,976.667 237.051,970.952C246.223,965.233 253.602,957.054 258.352,947.347L323.438,814.757C326.876,807.737 326.454,799.441 322.313,792.812C318.176,786.179 310.911,782.152 303.094,782.156L70.804,782.156C63.785,782.156 57.05,784.937 52.077,789.894C47.104,794.847 44.296,801.574 44.272,808.593L44.272,953.203C44.284,960.23 47.085,966.969 52.061,971.933C57.034,976.898 63.776,979.687 70.803,979.687L70.805,979.69Z" style="fill:white;fill-rule:nonzero;"/>
            <path d="M70.805,660.35L362.975,660.35C373.768,660.358 384.346,657.342 393.51,651.647C402.678,645.952 410.069,637.803 414.842,628.124L479.811,495.494C483.311,488.451 482.909,480.092 478.741,473.42C474.573,466.748 467.241,462.717 459.374,462.775L70.804,462.775C63.769,462.775 57.019,465.572 52.042,470.544C47.069,475.521 44.272,482.271 44.272,489.306L44.272,633.826C44.272,640.862 47.069,647.611 52.042,652.588C57.018,657.561 63.769,660.358 70.804,660.358L70.805,660.35Z" style="fill:white;fill-rule:nonzero;"/>
            <path d="M70.805,340.97L519.445,340.97C530.25,340.97 540.84,337.935 550.007,332.22C559.175,326.501 566.554,318.329 571.312,308.626L636.281,175.996C639.73,168.98 639.312,160.68 635.179,154.043C631.047,147.406 623.781,143.371 615.96,143.371L70.8,143.371C63.765,143.371 57.015,146.168 52.038,151.141C47.066,156.117 44.269,162.868 44.269,169.903L44.269,314.443C44.269,321.478 47.066,328.228 52.038,333.205C57.015,338.177 63.765,340.974 70.8,340.974L70.805,340.97Z" style="fill:white;fill-rule:nonzero;"/>
        </g>
    </g>
</svg>
