<?xml version="1.0" encoding="UTF-8"?>
<svg width="512pt" height="512pt" version="1.1" viewBox="0 0 512 512" xmlns="http://www.w3.org/2000/svg">
 <path transform="scale(.60449)" d="m355 264s-17.002-26.999 33.997-21.002c0 0-17.997 29.002-33.997 21.002z" fill="none" stroke="#fff" stroke-width="8.46"/>
 <path d="m95.508 233.33c14.508-8.4609 13.297-38.688 13.297-38.688-18.738 25.387-59.844 25.387-59.844 25.387l2.418-13.902c-13.902 9.0664-32.641 2.418-32.641 2.418 7.2539 36.27 105.79 72.539 147.5 1.207-34.457 32.039-70.727 23.574-70.727 23.574z" fill="#fff" fill-rule="evenodd"/>
 <path d="m180.74 191.62c14.508-58.637 60.449 18.133 11.484 18.738 0 0-1.8125 16.926-18.133 9.6719 0 0-0.60547 21.156 29.016 30.223 0 0-3.625-41.711 74.352-16.32 0 0 2.418-16.926-8.4609-25.387 0 0 21.156-9.0664 30.828 3.0234 0 0 6.043-18.738-14.508-21.156 0 0 22.969-17.531 3.0234-38.688 0 0 26.598 5.4414 15.715 30.223 0 0 58.637 9.6719-19.949 77.98-164.42 58.637-88.254 198.27 38.082 186.18 0 0-52.59-79.188 57.426-85.234 0 0-18.738-33.246-75.562-13.297 0 0 51.383-56.219 99.742 7.8594 0 0-30.828-107.6-140.24-23.574 36.27-94.301 191.62-15.715 174.7-92.488-43.523 48.359-91.277-55.613 9.0664-43.523 0 0 35.664 4.2305 54.402 38.688 0 0-27.805-123.92-154.14-45.336 0 0-15.715-59.238 78.582-42.918 0 0-36.875-39.895-103.37-22.969 0 0 45.941-29.621 50.172-62.262 0 0-24.785 47.148-96.719 63.473 0 0 41.105-25.387 45.336-68.91 0 0-24.18 46.547-65.285 64.68 0 0 19.344-32.039-1.8125-55.613 0 0 4.2305 51.383-24.18 57.426l-2.418-29.016s-32.039 61.055-52.59 67.703v-15.113s-16.926 27.203-47.148 23.574c0 0-7.8594 29.016 21.762 41.105l-1.207-18.738 16.32 7.8594-2.418-12.695 18.133 4.8359zm54.402-44.73s-10.879 17.531-20.551 12.695c0 0-10.277-16.32 20.551-12.695z" fill="#fff" fill-rule="evenodd"/>
</svg>
