<?xml version="1.0" encoding="UTF-8" standalone="no"?>
<!DOCTYPE svg PUBLIC "-//W3C//DTD SVG 1.1//EN" "http://www.w3.org/Graphics/SVG/1.1/DTD/svg11.dtd">
<svg width="100%" height="100%" viewBox="0 0 410 683" version="1.1" xmlns="http://www.w3.org/2000/svg" xmlns:xlink="http://www.w3.org/1999/xlink" xml:space="preserve" xmlns:serif="http://www.serif.com/" style="fill-rule:evenodd;clip-rule:evenodd;stroke-linejoin:round;stroke-miterlimit:2;">
    <g transform="matrix(1.33333,0,0,1.33333,-364.722,-73.9108)">
        <g transform="matrix(0.470138,0,0,0.470138,144.939,29.3719)">
            <path d="M574.73,1015C574.746,1010.31 572.503,1005.9 568.707,1003.14L386.317,870.651C379.754,865.878 375.872,858.256 375.864,850.143L375.864,348.883C375.864,340.762 379.762,333.133 386.341,328.375L568.291,196.495C572.095,193.733 574.353,189.315 574.361,184.612L574.361,70.752C574.349,67.111 572.986,63.604 570.533,60.916C568.08,58.225 564.713,56.541 561.091,56.193C557.466,55.846 553.841,56.857 550.923,59.033L287.603,254.663C278.728,261.284 273.509,271.714 273.541,282.788L273.541,916.378C273.537,927.413 278.752,937.8 287.603,944.386L551.393,1141.55C554.311,1143.73 557.936,1144.75 561.565,1144.41C565.194,1144.07 568.565,1142.38 571.019,1139.68C573.472,1136.99 574.831,1133.47 574.831,1129.83L574.73,1015Z" style="fill:white;fill-rule:nonzero;"/>
            <path d="M773.86,377.46C773.833,367.62 769.091,358.394 761.11,352.64L617.77,249.33C612.528,245.541 606.227,243.502 599.758,243.502C593.289,243.502 586.988,245.541 581.746,249.33L439.246,352.6C431.266,358.401 426.551,367.674 426.566,377.538L426.566,821.608C426.574,831.444 431.277,840.682 439.222,846.475L582.052,950.235C587.306,954.04 593.626,956.09 600.111,956.09C606.596,956.09 612.916,954.04 618.17,950.235L761.14,846.505C769.085,840.759 773.796,831.56 773.82,821.755L773.86,377.46ZM582.52,381.116L522.661,498.536C512.442,518.598 482.161,511.333 482.161,488.81L482.161,422.552C482.169,409.56 488.544,397.396 499.223,389.997L551.184,353.903C569.536,341.083 592.645,361.262 582.52,381.114L582.52,381.116Z" style="fill:white;fill-rule:nonzero;"/>
            <path d="M912.38,254.09L648.43,58.34C645.512,56.164 641.887,55.153 638.262,55.5C634.641,55.848 631.274,57.531 628.821,60.223C626.368,62.91 625.004,66.418 624.993,70.059L624.993,184.579C624.989,189.298 627.254,193.731 631.086,196.485L813.896,328.255C820.482,332.993 824.396,340.603 824.419,348.716L825.357,599.096L825.357,600.033L824.419,850.413C824.392,858.495 820.509,866.081 813.966,870.827L631.486,1003.13C627.686,1005.89 625.439,1010.31 625.439,1015.01L625.439,1129.85C625.451,1133.49 626.814,1137 629.268,1139.69C631.721,1142.38 635.088,1144.06 638.709,1144.41C642.334,1144.76 645.959,1143.75 648.877,1141.57L912.477,944.929C921.325,938.335 926.536,927.952 926.539,916.921L926.539,282.161C926.535,271.087 921.285,260.669 912.383,254.083L912.38,254.09Z" style="fill:white;fill-rule:nonzero;"/>
        </g>
    </g>
</svg>
