<?xml version="1.0" encoding="UTF-8" standalone="no"?>
<!DOCTYPE svg PUBLIC "-//W3C//DTD SVG 1.1//EN" "http://www.w3.org/Graphics/SVG/1.1/DTD/svg11.dtd">
<svg width="100%" height="100%" viewBox="0 0 428 512" version="1.1" xmlns="http://www.w3.org/2000/svg" xmlns:xlink="http://www.w3.org/1999/xlink" xml:space="preserve" xmlns:serif="http://www.serif.com/" style="fill-rule:evenodd;clip-rule:evenodd;stroke-linejoin:round;stroke-miterlimit:2;">
    <g transform="matrix(1,0,0,1,-135.388,-43.5494)">
        <g transform="matrix(0.460023,0,0,0.460023,73.1063,23.5157)">
            <path d="M673.57,1139.1C762.961,1094.03 909.37,992.05 970.31,789.01L982.826,787.182C1005.51,783.768 1024.87,768.994 1034.15,748.018C1060.92,688.112 1065,623.308 1064.62,585.358C1064.37,565.159 1055.15,546.116 1039.45,533.397L996.513,498.522C987.044,387.752 952.544,238.792 843.743,138.312C706.723,11.962 493.263,11.962 356.243,138.312C247.443,238.692 212.943,387.662 203.523,498.432L160.585,533.401C144.89,546.12 135.663,565.163 135.413,585.362C135.015,623.307 139.093,688.112 165.882,748.022C175.163,768.999 194.527,783.772 217.21,787.186L229.726,789.014C290.664,992.054 437.056,1094.03 526.446,1139.03C572.708,1162.35 627.276,1162.37 673.566,1139.1L673.57,1139.1ZM719.531,535.63L723.82,494.568C725.437,479.943 734.703,467.279 748.152,461.31C761.601,455.341 777.207,456.962 789.14,465.572C801.07,474.181 807.531,488.478 806.109,503.123L801.82,544.256C800.281,558.955 791.015,571.717 777.511,577.733C764.011,583.748 748.327,582.104 736.366,573.42C724.409,564.737 717.991,550.33 719.53,535.631L719.531,535.63ZM398.181,544.185L393.892,503.052C392.607,488.474 399.119,474.306 411.017,465.786C422.915,457.266 438.427,455.665 451.814,461.579C465.201,467.489 474.466,480.036 476.181,494.567L480.47,535.629C481.892,550.274 475.431,564.57 463.501,573.18C451.567,581.789 435.962,583.41 422.513,577.441C409.064,571.473 399.798,558.808 398.181,544.183L398.181,544.185ZM473.439,971.965L463.22,960.059C455.986,951.629 452.396,940.676 453.236,929.602C454.075,918.528 459.275,908.239 467.697,900.997L523.619,852.997L457.666,794.567C449.353,787.203 444.307,776.84 443.635,765.755C442.963,754.669 446.721,743.775 454.08,735.458L464.486,723.739C471.845,715.422 482.213,710.372 493.298,709.7C504.384,709.024 515.282,712.786 523.595,720.153L599.767,787.536L677.111,721.161C685.533,713.922 696.486,710.329 707.556,711.168C718.63,712.008 728.915,717.211 736.15,725.637L746.369,737.543C753.607,745.965 757.201,756.918 756.361,767.988C755.521,779.062 750.318,789.348 741.892,796.583L675.001,854.122L730.267,903.083C738.583,910.442 743.634,920.809 744.306,931.895C744.982,942.981 741.22,953.879 733.853,962.192L723.47,973.911C716.103,982.223 705.736,987.27 694.646,987.942C683.556,988.617 672.658,984.86 664.337,977.497L598.876,919.512L532.524,976.442C524.094,983.681 513.133,987.278 502.055,986.439C490.973,985.599 480.68,980.392 473.438,971.966L473.439,971.965Z" style="fill:white;fill-rule:nonzero;"/>
        </g>
    </g>
</svg>
