<?xml version="1.0" encoding="UTF-8" standalone="no"?>
<!DOCTYPE svg PUBLIC "-//W3C//DTD SVG 1.1//EN" "http://www.w3.org/Graphics/SVG/1.1/DTD/svg11.dtd">
<svg width="100%" height="100%" viewBox="0 0 512 511" version="1.1" xmlns="http://www.w3.org/2000/svg" xmlns:xlink="http://www.w3.org/1999/xlink" xml:space="preserve" xmlns:serif="http://www.serif.com/" style="fill-rule:evenodd;clip-rule:evenodd;stroke-linejoin:round;stroke-miterlimit:2;">
    <g transform="matrix(1,0,0,1,-72.4182,-74.346)">
        <g transform="matrix(0.485156,0,0,0.485156,37.2841,38.2766)">
            <path d="M1079.5,415.73C1104.56,415.73 1104.6,376.777 1079.5,376.777C1054.4,376.777 1054.4,415.73 1079.5,415.73Z" style="fill:white;fill-rule:nonzero;"/>
            <path d="M948.59,237.14C960.004,244.359 975.848,245.999 988.879,242.624C999.27,240.007 1008.26,233.496 1013.98,224.436C1021,212.588 1021.25,197.913 1014.64,185.834C1013.09,183.026 1011.19,180.432 1008.97,178.123C1002.24,167.877 991.41,161.041 979.27,159.373C961.973,157.03 943.106,164.577 934.528,180.467C929.22,189.928 927.724,201.057 930.333,211.588C932.946,222.119 939.478,231.256 948.591,237.139L948.59,237.14Z" style="fill:white;fill-rule:nonzero;"/>
            <path d="M427.15,110.7C429.814,113.356 433.134,115.263 436.775,116.22C440.412,117.18 444.24,117.161 447.869,116.161C449.135,115.798 450.369,115.317 451.549,114.731C452.639,114.368 453.693,113.899 454.689,113.325L458.838,110.161C460.791,108.376 462.244,106.114 463.056,103.598C463.974,102.036 464.463,100.255 464.463,98.442C464.931,96.661 464.931,94.786 464.463,93.005C464.463,91.192 463.974,89.411 463.056,87.849C462.244,85.325 460.791,83.056 458.838,81.263C454.381,76.919 448.42,74.462 442.197,74.395C434.908,73.786 427.361,78.895 423.822,84.942C421.908,88.204 420.904,91.919 420.915,95.7C420.783,98.548 421.412,101.38 422.744,103.904C423.603,106.509 425.122,108.849 427.15,110.7L427.15,110.7ZM449.204,115.388L448.9,115.388L449.204,115.388Z" style="fill:white;fill-rule:nonzero;"/>
            <path d="M143.34,225C143.336,221.031 142.758,217.086 141.629,213.281C140.91,209.933 139.66,206.719 137.926,203.765C137.598,203.203 137.293,202.64 136.942,202.125C133.508,196.511 128.379,192.136 122.294,189.633C120.227,188.719 118.075,188.004 115.872,187.5C102.044,183.164 85.403,188.789 78.606,202.195C77.633,204.207 76.852,206.301 76.262,208.453C75.485,210.176 74.797,211.933 74.199,213.726C73.922,214.636 73.727,215.57 73.613,216.515C72.875,220.008 72.477,223.562 72.418,227.132C72.594,236.363 76.254,245.187 82.66,251.835C89.199,258.187 97.945,261.749 107.058,261.773C116.699,261.562 125.878,257.601 132.652,250.738C139.422,243.874 143.257,234.64 143.34,225L143.34,225Z" style="fill:white;fill-rule:nonzero;"/>
            <path d="M217.66,960.49C213.523,961.685 209.812,964.025 206.949,967.24C203.222,971.135 201.09,976.287 200.972,981.678C201.015,987.076 203.16,992.248 206.949,996.092C210.773,999.916 215.957,1002.07 221.363,1002.07L226.8,1001.34C230.203,1000.4 233.304,998.592 235.8,996.092C239.023,993.237 241.367,989.522 242.55,985.381C247.074,970.85 232.191,955.967 217.659,960.49L217.66,960.49Z" style="fill:white;fill-rule:nonzero;"/>
            <path d="M175.78,1043.3C156.468,1014.99 113.952,1019.61 97.077,1048.22C91.018,1058.71 88.87,1071.01 91.018,1082.93C93.163,1094.86 99.46,1105.63 108.795,1113.36C113.811,1119.05 120.49,1123.04 127.893,1124.74C135.292,1126.44 143.041,1125.78 150.045,1122.85C151.167,1122.37 152.26,1121.82 153.327,1121.23C161.526,1118.57 168.737,1113.5 174.018,1106.69C179.303,1099.88 182.412,1091.63 182.951,1083.03C186.006,1069.36 183.42,1055.04 175.779,1043.3L175.78,1043.3Z" style="fill:white;fill-rule:nonzero;"/>
            <path d="M1035.7,894.59C1026.04,893.992 1016.42,896.172 1007.96,900.871C999.497,905.567 992.56,912.586 987.958,921.098C975.794,944.254 983.997,974.84 1007.27,987.614C1009.09,988.575 1010.97,989.427 1012.89,990.169C1022.38,995.228 1033.45,996.442 1043.81,993.567C1066.17,987.403 1077.75,966.544 1079.13,944.676C1080.82,917.746 1062.39,896.723 1035.7,894.59L1035.7,894.59Z" style="fill:white;fill-rule:nonzero;"/>
            <path d="M715.2,655.17C715.2,666.252 706.22,675.232 695.138,675.232C684.056,675.232 675.076,666.252 675.076,655.17C675.076,644.088 684.057,635.108 695.138,635.108C706.22,635.108 715.2,644.088 715.2,655.17" style="fill:white;fill-rule:nonzero;"/>
            <path d="M1125.4,525.87C1117.04,507.292 1106.43,489.8 1093.83,473.792C1092.3,471.8 1089.62,471.089 1087.31,472.058C1084.99,473.022 1083.62,475.429 1083.96,477.917C1088.86,515.581 1073.74,538.081 1061.04,549.987C1052.9,557.46 1042.69,562.284 1031.74,563.815C1022.1,565.346 1012.29,565.471 1002.61,564.19C992.17,562.655 982.4,558.116 974.49,551.124C966.584,544.132 960.881,534.991 958.08,524.815C936.775,448.526 889.127,385.385 870.025,362.225C867.251,358.85 865.939,354.506 866.38,350.159C866.818,345.811 868.974,341.819 872.369,339.069C874.4,337.405 876.591,335.944 878.908,334.71C883.72,332.221 889.107,331.065 894.517,331.366C899.923,331.667 905.154,333.413 909.658,336.421C930.963,350.273 944.814,375.233 950.017,386.226C951.86,390.058 955.356,392.839 959.509,393.772C979.736,398.46 1010.27,395.085 1034.51,390.937C1036.94,390.522 1038.7,388.397 1038.66,385.933C1038.62,383.468 1036.79,381.401 1034.35,381.069C1020.56,379.218 1008,376.522 999.611,374.53C991.923,372.698 984.795,369.022 978.845,363.819C954.048,342.022 927.283,302.881 916.759,286.475C914.196,282.573 908.966,281.464 905.04,283.991C883.946,297.679 851.134,306.163 832.009,310.218C823.161,312.128 813.947,309.44 807.517,303.069C770.439,266.155 722.79,249.163 703.197,243.21C693.228,240.3 684.552,234.085 678.588,225.585C673.885,218.664 670.646,210.858 669.072,202.64C667.963,197.008 669.217,191.167 672.541,186.488C675.861,181.809 680.963,178.703 686.646,177.899C692.33,177.09 698.095,178.656 702.587,182.227C716.329,193.379 729.263,205.497 741.282,218.485C744.059,221.461 747.825,223.329 751.876,223.727C755.927,224.129 759.985,223.039 763.29,220.664C790.36,200.93 798.446,176.133 800.673,159.164C800.954,156.731 799.587,154.403 797.321,153.465C795.056,152.532 792.443,153.211 790.923,155.133C785.048,163.082 777.228,169.387 768.212,173.438C763.419,175.458 758.146,176.048 753.028,175.134C747.907,174.223 743.161,171.852 739.36,168.305C723.141,153.493 705.844,127.102 695.743,110.532C693.864,107.447 690.548,105.517 686.934,105.407C683.321,105.298 679.899,107.025 677.837,109.993C652.056,146.72 604.314,192.141 581.743,212.763C573.86,220.049 570.196,230.822 571.993,241.404C583.313,310.568 611.837,390.254 624.376,423.564C625.895,427.603 629.102,430.779 633.153,432.26C637.208,433.74 641.704,433.381 645.469,431.275L658.336,424.244C670.074,417.752 683.984,416.443 696.727,420.635C717.188,427.432 735.305,440.299 750.633,454.901C793.172,495.495 816.258,552.307 816.961,611.131C817.711,666.42 803.109,706.897 791.883,729.701C789.574,734.376 785.028,737.533 779.84,738.064C774.656,738.591 769.563,736.416 766.36,732.302C758.966,722.857 750.93,713.927 742.313,705.583C738.325,701.712 732.208,701.06 727.493,704.001C722.774,706.943 720.673,712.72 722.391,718.005C742.946,781.122 748.336,841.495 749.625,875.225C749.801,879.78 747.165,883.971 742.981,885.784C738.801,887.597 733.934,886.651 730.735,883.405L695.227,847.475C692.094,844.331 688.145,842.128 683.825,841.108C679.509,840.089 674.989,840.296 670.782,841.71C558.562,878.858 491.832,844.405 465.892,825.304C461.751,822.245 458.536,818.104 456.603,813.335C454.665,808.569 454.083,803.358 454.923,798.28C456.267,790.002 458.443,781.885 461.415,774.046C462.591,770.893 462.079,767.358 460.06,764.671C458.04,761.979 454.786,760.503 451.431,760.757C413.931,763.1 372.447,777.163 346.811,787.382C343.58,788.62 339.924,787.471 337.983,784.612C336.038,781.753 336.315,777.928 338.655,775.382C345.205,768.268 352.507,761.878 360.428,756.327C372.502,747.979 385.893,741.714 400.037,737.788C454.131,722.319 472.693,684.749 478.857,663.022C480.126,658.518 482.927,654.596 486.779,651.936C490.63,649.271 495.286,648.037 499.951,648.443L540.357,652.123C542.271,652.322 544.056,651.127 544.595,649.279C545.138,647.432 544.278,645.463 542.56,644.6L473.396,608.998C470.06,607.291 466.118,607.228 462.736,608.837C459.349,610.443 456.908,613.537 456.122,617.201C441.567,681.185 398.489,694.662 376.317,697.263C372.599,697.708 368.849,696.704 365.848,694.462C362.844,692.22 360.821,688.907 360.192,685.216C354.38,652.099 355.692,615.747 358.059,589.544C360.954,554.7 372.36,521.099 391.27,491.692C419.395,448.567 454.551,429.747 477.989,421.614C484.95,419.176 492.473,418.825 499.634,420.61C506.791,422.391 513.271,426.227 518.279,431.645C541.388,456.653 572.865,489.559 598.67,516.325C602.694,520.454 609.092,521.118 613.873,517.899C618.654,514.68 620.455,508.505 618.147,503.223L458.767,142.543C457.489,138.695 453.571,136.375 449.583,137.106C445.591,137.84 442.751,141.399 442.923,145.449C442.595,151.942 442.056,157.965 441.376,163.566C437.235,198.992 414.634,229.574 381.985,243.933C334.899,264.253 327.587,305.035 327.587,305.035C318.212,337.332 298.384,361.285 282.915,376.004C276.747,381.856 268.86,385.571 260.423,386.602C251.982,387.63 243.435,385.923 236.04,381.724C211.759,368.083 172.431,331.357 143.11,308.646C133.735,301.333 121.735,313.896 129.516,322.966L215.954,428.436C230.016,444.842 223.618,470.905 203.063,477.866C199.036,479.213 194.868,480.104 190.641,480.514C184.801,481.076 179.028,482.174 173.391,483.795C98.25,505.873 93.961,582.467 93.961,582.467C90.141,641.319 119.297,673.147 140.438,690.277C147.411,695.742 154.985,700.398 163.008,704.152C210.75,724.707 240.727,780.464 251.578,803.902C254.32,809.726 252.574,816.679 247.406,820.519C206.836,850.074 198.187,881.925 198.703,904.894C198.828,909.007 201.813,912.476 205.859,913.211C209.91,913.945 213.922,911.75 215.484,907.941C217.664,902.523 220.168,897.238 222.984,892.121C231.066,877.59 245.73,867.922 262.269,866.223C278.808,864.524 295.132,871.008 305.999,883.59C341.155,923.973 387.14,955.637 411.299,970.871C415.233,973.363 417.823,977.508 418.327,982.141C418.834,986.77 417.206,991.379 413.901,994.661L386.854,1021.5C384.229,1024.23 381.112,1026.44 377.666,1028.01C361.26,1035.18 341.361,1026.65 327.932,1018.64C326.21,1017.61 324.014,1017.87 322.573,1019.26C321.128,1020.64 320.788,1022.83 321.745,1024.59L337.753,1053.91C339.893,1057.86 343.913,1060.42 348.394,1060.71L396.722,1063.8C400.667,1064.08 404.523,1062.54 407.199,1059.63C424.39,1040.32 445.929,1025.38 470.035,1016.04C482.773,1011.21 496.969,1012.06 509.035,1018.38C518.25,1023.19 527.965,1026.99 538.004,1029.7C560.82,1035.82 585.164,1031.92 604.918,1018.97C611.363,1014.75 617.809,1010.9 624.02,1007.46C638.313,999.535 655.036,997.184 670.958,1000.86C686.88,1004.54 700.876,1013.99 710.247,1027.38C715.966,1035.54 720.606,1042.87 723.185,1047.02C724.72,1049.57 726.419,1052.02 728.271,1054.36C756.396,1089.07 791.271,1090.71 813.912,1086.89C831.334,1084.12 846.447,1073.34 854.74,1057.78C868.802,1030.73 867.279,997.333 864.959,979.098C863.986,971.259 861.443,963.692 857.482,956.856C835.009,918.126 816.095,877.434 800.974,835.286C799.806,831.861 801.341,828.099 804.576,826.474C807.806,824.849 811.744,825.861 813.795,828.841L855.865,890.95C858.255,894.493 862.419,896.411 866.67,895.919C870.916,895.423 874.529,892.603 876.045,888.606C894.162,840.137 936.443,820.403 959.623,812.997C971.393,809.267 982.311,803.251 991.756,795.302C1012.71,777.654 1037.25,757.075 1050.65,745.825C1055.94,741.466 1057.31,733.934 1053.91,727.989C1046.9,715.442 1042.61,701.567 1041.3,687.255C1040.61,680.904 1041.69,674.485 1044.44,668.716C1063.05,630.325 1097.58,598.404 1112.74,585.372C1117.62,581.251 1120.93,575.572 1122.12,569.294L1127.3,541.989C1128.3,536.544 1127.63,530.927 1125.4,525.864L1125.4,525.87ZM218.72,585.636C218.142,601.042 217.517,616.448 216.845,631.855C216.165,647.793 203.65,655.902 191.251,656.16C177.189,658.855 160.501,649.996 150.563,639.074C132.938,619.691 128.719,586.972 137.344,562.738C145.969,538.504 174.094,518.207 200.625,524.769C209.309,527.113 216.094,533.898 218.437,542.581C221.601,556.339 219.257,571.62 218.718,585.636L218.72,585.636ZM811.45,959.536C820.259,964.251 827.083,971.97 830.692,981.286C837.84,992.348 839.176,1007.07 835.778,1019.61C833.622,1027.85 828.809,1035.15 822.087,1040.39C815.364,1045.62 807.103,1048.5 798.583,1048.58C794.591,1048.56 790.614,1048.05 786.747,1047.05C777.942,1045.59 769.708,1041.75 762.935,1035.94C750.677,1025.11 744.607,1006.64 749.271,990.661C750.447,986.607 752.224,982.751 754.544,979.223C759.091,968.723 767.13,960.051 779.083,957.028C780.115,956.763 781.146,956.552 782.177,956.395C791.974,953.598 802.47,954.727 811.45,959.536L811.45,959.536ZM1018.19,643.526C1013.46,655.983 1011.58,669.342 1012.68,682.62C1013.6,694.011 1015.54,704.558 1013.29,715.925C1011.19,726.601 1005.6,736.273 997.401,743.417C988.354,753.448 975.932,760.761 963.651,760.081C933.182,758.417 939.229,720.683 945.581,701.183C954.581,673.503 967.073,647.066 985.87,624.706C998.104,610.175 1024.85,625.784 1018.19,643.526L1018.19,643.526Z" style="fill:white;fill-rule:nonzero;"/>
        </g>
    </g>
</svg>
