<?xml version="1.0" encoding="UTF-8" standalone="no"?>
<!DOCTYPE svg PUBLIC "-//W3C//DTD SVG 1.1//EN" "http://www.w3.org/Graphics/SVG/1.1/DTD/svg11.dtd">
<svg width="100%" height="100%" viewBox="0 0 512 512" version="1.1" xmlns="http://www.w3.org/2000/svg" xmlns:xlink="http://www.w3.org/1999/xlink" xml:space="preserve" xmlns:serif="http://www.serif.com/" style="fill-rule:evenodd;clip-rule:evenodd;stroke-linejoin:round;stroke-miterlimit:2;">
    <g transform="matrix(1,0,0,1,-44.2765,-44.2778)">
        <g transform="matrix(0.460641,0,0,0.460641,23.8809,23.8816)">
            <path d="M406.22,964.52C499.654,1014.06 608.51,1025.96 710.44,997.801C715.35,996.465 719.503,993.176 721.92,988.695C724.338,984.219 724.815,978.945 723.236,974.105L719.533,963.019C718.029,958.484 714.834,954.703 710.611,952.468C706.389,950.234 701.467,949.715 696.869,951.019C607.326,975.574 511.799,965.124 429.679,921.792C424.344,919.003 417.753,920.952 414.796,926.198L401.788,949.05C400.285,951.679 399.906,954.808 400.738,957.718C401.574,960.633 403.55,963.086 406.218,964.519L406.22,964.52Z" style="fill:white;fill-rule:nonzero;"/>
            <path d="M987.3,742.97C988.773,738.919 988.534,734.439 986.64,730.568C984.741,726.693 981.351,723.759 977.245,722.439L961.12,717.189C957.218,715.931 952.98,716.232 949.292,718.029C945.605,719.822 942.757,722.974 941.339,726.822C914.702,798.525 866.112,859.992 802.499,902.462L748.171,820.431C738.14,805.314 714.585,815.134 718.288,832.9C720.464,843.287 723.839,853.384 728.343,862.994L832.383,1084.31C835.789,1091.58 841.204,1097.73 847.981,1102.03C854.762,1106.33 862.629,1108.61 870.657,1108.6L883.712,1108.6C890.915,1108.59 897.872,1105.97 903.294,1101.23C908.716,1096.48 912.232,1089.93 913.189,1082.79C914.15,1075.65 912.486,1068.41 908.509,1062.4L829.407,943.009C901.864,894.7 957.147,824.669 987.307,742.969L987.3,742.97Z" style="fill:white;fill-rule:nonzero;"/>
            <path d="M395.74,787.5L327.771,841.711C277.076,784.598 245.615,713.001 237.833,637.031C230.051,561.061 246.345,484.571 284.411,418.361C287.669,412.759 288.673,406.127 287.212,399.814C285.755,393.501 281.946,387.982 276.56,384.376L268.661,379.126C265.419,376.958 261.439,376.2 257.63,377.028C253.822,377.856 250.509,380.192 248.459,383.509C202.209,458.677 181.256,546.689 188.678,634.629C196.096,722.574 231.494,805.829 289.688,872.179L66.238,1050.61C52.355,1061.67 44.273,1078.46 44.277,1096.22L44.277,1097.37C44.277,1113.44 50.909,1128.81 62.605,1139.84C74.3,1150.87 90.027,1156.59 106.074,1155.64C122.125,1154.7 137.074,1147.19 147.402,1134.87L418.062,810.327C430.414,795.491 410.843,775.499 395.75,787.499L395.74,787.5Z" style="fill:white;fill-rule:nonzero;"/>
            <path d="M1012.8,600C1013.2,498.21 975.585,399.94 907.33,324.42L1060.17,177.49C1066.74,171.178 1070.5,162.486 1070.6,153.369C1070.69,144.256 1067.11,135.49 1060.66,129.045L1036.47,104.811C1029.42,97.78 1019.62,94.206 1009.7,95.038C999.768,95.866 990.705,101.018 984.912,109.124L774.772,403.944C771.472,408.709 770.753,414.807 772.858,420.21C774.964,425.612 779.616,429.612 785.276,430.886C790.932,432.159 796.85,430.538 801.069,426.561L872.225,358.147C931.741,424.608 964.479,510.787 964.1,599.997C964.1,605.974 963.889,611.95 963.608,617.927L938.155,617.927C918.585,617.927 915.725,646.052 934.921,650.06L1155.77,694.99L1155.77,617.928L1012.38,617.928C1012.55,611.952 1012.8,605.951 1012.8,599.998L1012.8,600Z" style="fill:white;fill-rule:nonzero;"/>
            <path d="M723.74,220.57C726.717,238.89 714.271,256.156 695.951,259.129C677.631,262.102 660.365,249.66 657.392,231.34C654.415,213.016 666.857,195.754 685.181,192.778C703.501,189.805 720.767,202.247 723.74,220.571" style="fill:white;fill-rule:nonzero;"/>
            <path d="M867.35,610.08L779.741,592.971C778.327,557.635 766.534,523.498 745.831,494.823C725.128,466.151 696.436,444.214 663.339,431.753C630.242,419.292 594.206,416.862 559.729,424.761C554.256,426.015 549.471,429.312 546.346,433.98C543.225,438.644 541.998,444.324 542.924,449.863L554.174,517.082C554.951,521.793 552.323,526.406 547.873,528.141C543.42,529.871 538.366,528.25 535.752,524.254L491.713,456.332L384.623,298.832C406.068,275.394 425.264,256.316 458.24,233.207C461.338,231.176 463.127,227.648 462.928,223.949C462.658,220.82 460.92,218.004 458.244,216.363C455.564,214.723 452.268,214.449 449.357,215.629C417.955,227.941 388.198,244.098 360.763,263.723L233.213,76.223C219.713,56.266 197.193,44.297 173.096,44.278L143.635,44.278C136.663,44.309 129.963,46.989 124.889,51.774C119.819,56.559 116.757,63.09 116.319,70.051C115.882,77.008 118.108,83.875 122.542,89.254L455.382,492.964C431.765,524.773 419.359,563.511 420.109,603.124C421.703,697.905 498.179,776.144 592.909,779.794C627.022,781.142 660.811,772.751 690.331,755.606C719.854,738.461 743.886,713.27 759.62,682.973C761.596,679.133 762.112,674.707 761.069,670.516C760.026,666.325 757.495,662.657 753.948,660.192L730.628,643.903C727.456,641.688 726.085,637.672 727.245,633.985C728.405,630.294 731.823,627.782 735.69,627.778L864.6,632.255C878.498,632.981 880.983,612.755 867.343,610.083L867.35,610.08Z" style="fill:white;fill-rule:nonzero;"/>
        </g>
    </g>
</svg>
