<?xml version="1.0" encoding="UTF-8" standalone="no"?>
<!DOCTYPE svg PUBLIC "-//W3C//DTD SVG 1.1//EN" "http://www.w3.org/Graphics/SVG/1.1/DTD/svg11.dtd">
<svg width="100%" height="100%" viewBox="0 0 512 512" version="1.1" xmlns="http://www.w3.org/2000/svg" xmlns:xlink="http://www.w3.org/1999/xlink" xml:space="preserve" xmlns:serif="http://www.serif.com/" style="fill-rule:evenodd;clip-rule:evenodd;stroke-linejoin:round;stroke-miterlimit:2;">
    <g transform="matrix(1,0,0,1,-69.1383,-69.1838)">
        <g transform="matrix(0.482221,0,0,0.482221,35.7984,35.8219)">
            <path d="M733.71,1064.7C718.073,1047.87 709.413,1025.73 709.476,1002.75L709.476,901.595C738.538,881.087 749.695,849.189 753.82,831.283C755.621,823.232 760.633,816.263 767.695,811.994C797.601,794.135 812.226,762.189 818.25,715.197C825,662.486 781.781,667.947 781.781,667.947L781.781,547.947C782.105,508.834 769.027,470.787 744.726,440.137C743.351,438.403 741.945,436.715 740.507,435.075C724.163,416.407 703.995,401.477 681.366,391.301C658.737,381.126 634.182,375.943 609.374,376.107L590.624,376.107C565.819,375.958 541.272,381.15 518.651,391.333C496.034,401.518 475.87,416.45 459.538,435.122C458.101,436.763 456.694,438.451 455.319,440.185C431.018,470.837 417.94,508.884 418.264,547.995L418.264,667.945C418.264,667.945 375.045,662.531 381.795,715.218C387.819,762.21 402.443,794.156 432.35,812.015C439.413,816.285 444.424,823.253 446.225,831.304C450.35,849.234 461.506,881.132 490.569,901.616L490.569,1002.78C490.644,1025.73 482.011,1047.86 466.405,1064.7C438.952,1094.26 404.889,1116.91 367.007,1130.79L833.107,1130.79C795.224,1116.91 761.162,1094.27 733.709,1064.7L733.71,1064.7ZM532.15,739.08C511.9,741.424 492.775,720.518 489.4,692.205C486.025,663.892 499.759,639.049 520.009,636.635C540.259,634.221 559.407,655.221 562.759,683.51C566.111,711.799 552.447,736.69 532.173,739.08L532.15,739.08ZM667.81,739.08C647.537,736.736 633.849,711.799 637.201,683.533C640.553,655.267 659.701,634.314 679.951,636.658C700.201,639.002 713.912,663.939 710.56,692.228C707.208,720.517 688.083,741.494 667.833,739.08L667.81,739.08Z" style="fill:white;fill-rule:nonzero;"/>
            <path d="M521.06,89.062C506.552,85.632 491.29,87.597 478.122,94.593C411.372,128.765 344.532,107.554 306.022,88.664C279.639,75.784 250.655,69.12 221.295,69.187L214.99,69.187C209.365,69.132 203.763,69.921 198.373,71.53C194.221,72.62 190.373,74.651 187.123,77.46C181.885,81.921 177.998,87.757 175.9,94.308C173.799,100.859 173.572,107.867 175.24,114.538C200.74,218.108 257.529,269.838 291.96,292.658C305.507,301.635 323.812,300.603 335.179,289.002C341.792,282.271 345.249,273.057 344.703,263.635C344.152,254.217 339.648,245.467 332.297,239.549C292.781,207.533 268.711,161.502 268.055,160.307C265.348,155.131 265.555,148.912 268.605,143.928C271.656,138.947 277.098,135.932 282.941,135.986C288.781,136.045 294.164,139.166 297.117,144.205C304.574,156.627 313.301,168.244 323.156,178.869C328.813,184.982 336.222,189.197 344.367,190.939C363.367,195.111 382.812,196.916 402.258,196.306C407.422,196.17 411.829,192.537 412.946,187.494C413.853,183.506 414.509,179.467 414.915,175.4C415.302,169.478 418.814,164.216 424.134,161.588C429.454,158.963 435.771,159.373 440.704,162.666C445.637,165.959 448.442,171.635 448.056,177.557C448.056,178.166 450.54,220.94 404.861,288.507C394.22,304.21 393.142,324.413 404.861,339.319C410.595,346.569 418.599,351.686 427.591,353.839C436.579,355.995 446.032,355.066 454.431,351.202C546.869,308.874 563.601,206.752 565.081,147.292C565.416,134.034 561.249,121.058 553.253,110.48C545.256,99.898 533.909,92.347 521.065,89.05L521.06,89.062Z" style="fill:white;fill-rule:nonzero;"/>
            <path d="M153.33,189.38C160.221,199.458 169.994,213.286 180.072,225.849C182.041,228.357 182.904,231.556 182.463,234.716C182.021,237.872 180.31,240.712 177.728,242.583C169.97,248.466 166.994,261.614 179.416,282.122C192.494,303.684 219.822,317.513 241.877,326.349C249.892,329.463 256.197,335.857 259.201,343.915C262.209,351.974 261.627,360.935 257.603,368.536L256.994,369.614C253.517,375.505 248.158,380.052 241.779,382.528C235.404,385.001 228.377,385.259 221.838,383.255C193.713,374.841 129.307,350.794 100.898,282.165C76.148,222.446 104.554,194.345 123.867,182.813C128.695,179.961 134.422,179.055 139.894,180.274C145.362,181.493 150.167,184.747 153.328,189.376L153.33,189.38Z" style="fill:white;fill-rule:nonzero;"/>
            <path d="M104.53,366.23C113.905,370.496 126.983,376.191 139.827,380.902C142.315,381.843 144.265,383.824 145.167,386.324C146.069,388.828 145.831,391.597 144.514,393.91C140.741,401.48 143.577,412.168 161.412,421.543C180.162,431.41 206.998,429.558 227.764,426.418C243.42,424.074 257.272,434.926 256.686,449.856L256.686,450.887C255.936,462.606 246.655,472.871 234.491,475.801C209.108,481.895 149.225,492.324 99.911,455.293C57.044,423.09 68.223,390.723 78.817,374.152C81.478,370.011 85.521,366.941 90.223,365.492C94.93,364.043 99.997,364.304 104.528,366.23L104.53,366.23Z" style="fill:white;fill-rule:nonzero;"/>
            <path d="M146.55,517.17C165.722,520.572 185.382,520.158 204.394,515.951C208.886,514.971 213.574,516.299 216.886,519.49C221.925,524.436 231.675,529.943 247.097,522.467C256.718,517.432 265.257,510.549 272.222,502.217C277.011,496.678 283.617,493.029 290.851,491.916C298.089,490.803 305.484,492.303 311.714,496.146C319.198,500.752 324.343,508.345 325.851,517.001C327.359,525.658 325.078,534.54 319.589,541.403C305.198,559.145 282.933,580.473 253.612,590.622C204.674,607.614 150.492,580.732 137.922,530.481C137.618,529.31 137.336,528.138 137.079,526.872C136.516,524.208 137.321,521.438 139.223,519.493C141.121,517.544 143.871,516.673 146.547,517.169L146.55,517.17Z" style="fill:white;fill-rule:nonzero;"/>
            <path d="M678.94,89.062C693.448,85.632 708.71,87.597 721.878,94.593C788.628,128.765 855.468,107.554 893.978,88.664C920.361,75.784 949.345,69.12 978.705,69.187L984.916,69.187C990.541,69.132 996.143,69.921 1001.53,71.53C1005.69,72.62 1009.53,74.651 1012.78,77.46C1018.02,81.921 1021.91,87.757 1024.01,94.308C1026.11,100.859 1026.33,107.867 1024.67,114.538C999.166,218.108 942.377,269.838 907.946,292.658C894.399,301.635 876.094,300.603 864.727,289.002C858.114,282.271 854.657,273.057 855.204,263.635C855.754,254.217 860.258,245.467 867.61,239.549C907.126,207.533 931.196,161.502 931.852,160.307C934.559,155.131 934.352,148.912 931.301,143.928C928.25,138.947 922.809,135.932 916.965,135.986C911.125,136.045 905.742,139.166 902.789,144.205C895.332,156.627 886.605,168.244 876.75,178.869C871.094,184.982 863.684,189.197 855.539,190.939C836.539,195.111 817.094,196.916 797.648,196.306C792.519,196.127 788.163,192.502 787.054,187.494C786.148,183.506 785.491,179.467 785.085,175.4C784.698,169.478 781.187,164.216 775.866,161.588C770.546,158.963 764.229,159.373 759.296,162.666C754.363,165.959 751.558,171.635 751.945,177.557C751.945,178.166 749.46,220.94 795.14,288.507C805.781,304.21 806.859,324.413 795.14,339.319C789.405,346.569 781.402,351.686 772.41,353.839C763.421,355.995 753.969,355.066 745.57,351.202C653.132,308.874 636.4,206.752 634.92,147.292C634.584,134.034 638.752,121.058 646.748,110.48C654.744,99.898 666.092,92.347 678.936,89.05L678.94,89.062Z" style="fill:white;fill-rule:nonzero;"/>
            <path d="M1046.7,189.38C1039.81,199.458 1030.04,213.263 1019.96,225.849C1017.99,228.357 1017.13,231.556 1017.57,234.716C1018.01,237.872 1019.72,240.712 1022.3,242.583C1030.06,248.466 1033.04,261.614 1020.61,282.122C1007.54,303.684 980.208,317.513 958.153,326.349C950.138,329.463 943.833,335.857 940.829,343.915C937.822,351.974 938.404,360.935 942.427,368.536L943.036,369.614C946.513,375.505 951.872,380.052 958.251,382.528C964.626,385.001 971.653,385.259 978.192,383.255C1006.32,374.841 1070.72,350.794 1099.13,282.165C1123.86,222.493 1095.45,194.392 1076.14,182.86C1071.32,180.012 1065.6,179.102 1060.14,180.309C1054.67,181.52 1049.87,184.758 1046.7,189.376L1046.7,189.38Z" style="fill:white;fill-rule:nonzero;"/>
            <path d="M1095.5,366.23C1086.12,370.496 1073.05,376.191 1060.2,380.902C1057.71,381.843 1055.77,383.824 1054.86,386.324C1053.96,388.828 1054.2,391.597 1055.52,393.91C1059.29,401.48 1056.45,412.168 1038.62,421.543C1019.87,431.41 993.032,429.558 972.266,426.418C956.61,424.074 942.758,434.926 943.344,449.856L943.344,450.887C944.094,462.606 953.375,472.871 965.539,475.801C990.922,481.895 1050.81,492.324 1100.12,455.293C1142.99,423.09 1131.81,390.723 1121.21,374.152C1118.55,370.011 1114.51,366.941 1109.81,365.492C1105.1,364.043 1100.03,364.304 1095.5,366.23L1095.5,366.23Z" style="fill:white;fill-rule:nonzero;"/>
            <path d="M1053.4,517.17C1034.23,520.572 1014.57,520.158 995.556,515.951C991.064,514.971 986.376,516.299 983.064,519.49C978.025,524.436 968.275,529.943 952.853,522.467C943.232,517.432 934.693,510.549 927.728,502.217C922.939,496.678 916.333,493.029 909.099,491.916C901.861,490.803 894.466,492.303 888.236,496.146C880.752,500.752 875.607,508.345 874.099,517.001C872.591,525.658 874.872,534.54 880.361,541.403C894.752,559.145 917.017,580.473 946.338,590.622C995.276,607.614 1049.46,580.732 1062.03,530.481C1062.33,529.31 1062.61,528.138 1062.87,526.872C1063.43,524.208 1062.63,521.438 1060.73,519.493C1058.83,517.544 1056.08,516.673 1053.4,517.169L1053.4,517.17Z" style="fill:white;fill-rule:nonzero;"/>
        </g>
    </g>
</svg>
