<?xml version="1.0" encoding="UTF-8" standalone="no"?>
<!DOCTYPE svg PUBLIC "-//W3C//DTD SVG 1.1//EN" "http://www.w3.org/Graphics/SVG/1.1/DTD/svg11.dtd">
<svg width="100%" height="100%" viewBox="0 0 508 512" version="1.1" xmlns="http://www.w3.org/2000/svg" xmlns:xlink="http://www.w3.org/1999/xlink" xml:space="preserve" xmlns:serif="http://www.serif.com/" style="fill-rule:evenodd;clip-rule:evenodd;stroke-linejoin:round;stroke-miterlimit:2;">
    <g transform="matrix(1,0,0,1,-73.2568,-68.3927)">
        <g transform="matrix(0.481558,0,0,0.481558,37.9794,35.4577)">
            <path d="M594.49,246.61C615.935,227.344 637.802,208.594 658.287,188.368C668.131,178.665 677.037,168.048 687.162,158.602C697.943,148.524 708.631,141.516 713.998,127.266C718.053,116.461 707.646,104.625 697.123,104.836C681.209,105.141 669.818,115.453 656.459,123.141C644.576,129.985 632.248,136.266 620.951,144.235C596.228,161.876 573.26,181.86 552.373,203.907C525.279,231.891 565.92,272.134 594.49,246.61Z" style="fill:white;fill-rule:nonzero;"/>
            <path d="M890.62,164.44C894.933,160.549 899.198,156.706 903.206,152.487C906.991,148.042 910.538,143.393 913.823,138.565C921.042,129.19 932.456,113.604 921.557,102.565C912.182,93.19 895.518,100.643 887.08,108.096C883.776,111.002 885.393,108.987 879.791,112.315C876.983,114.217 874.346,116.366 871.916,118.737C867.229,122.839 862.729,127.198 858.299,131.675C854.069,136.089 851.71,141.968 851.71,148.081C851.71,154.194 854.069,160.073 858.299,164.487C867.534,173.721 881.479,172.807 890.619,164.44L890.62,164.44Z" style="fill:white;fill-rule:nonzero;"/>
            <path d="M1071.6,370.1C1030.49,382.006 994.256,414.491 964.35,444.116C936.084,472.241 978.741,514.968 1007.62,487.968C1038.09,459.421 1071.27,424.312 1084.96,383.698C1087.73,375.636 1079.24,367.971 1071.6,370.104L1071.6,370.1Z" style="fill:white;fill-rule:nonzero;"/>
            <path d="M1094.1,72.656L966.44,177.276L903.862,228.581C893.854,236.761 884.104,245.245 874.19,253.565C871.448,255.909 854.643,274.026 845.479,270.346C837.37,267.112 836.666,261.557 840.487,250.518C842.831,243.862 845.174,238.377 845.526,233.151C847.237,213.534 824.432,201.487 808.635,213.346C802.682,217.869 797.338,222.112 795.323,223.916C759.768,255.557 720.745,274.658 679.193,287.947C630.42,303.58 586.052,326.994 563.153,375.72C552.091,399.275 546.02,425.454 532.825,447.954C523.028,464.618 503.083,487.024 481.45,479.618C457.098,471.321 452.364,439.774 453.77,417.649C454.594,401.016 457.18,384.516 461.481,368.43C464.481,357.852 471.586,348.914 481.215,343.61L481.355,343.61C505.753,330.415 484.074,292.798 459.675,306.11C281.405,402.227 124.875,559.35 81.395,765.53C69.793,820.514 70.614,913.94 83.739,968.76C94.895,1015.26 131.387,1054.49 167.809,1085.48C202.403,1114.92 257.247,1130.95 302.429,1131.51C432.199,1133.08 492.109,1115.67 543.439,1092.67C637.494,1050.49 738.739,988.355 780.349,886.705C784.451,876.721 777.185,865.166 768.185,860.76C765.056,858.389 761.248,857.08 757.322,857.029C753.396,856.979 749.557,858.186 746.365,860.479C733.099,868.94 713.412,883.026 696.748,878.831C679.381,874.471 679.404,852.393 683.271,838.401C692.482,804.862 718.802,768.463 746.833,748.635C777.302,727.073 811.263,713.01 837.653,685.612C864.044,658.214 882.184,624.862 899.926,591.862C909.184,574.589 890.153,553.19 872.551,564.135C859.262,572.408 835.051,587.385 818.645,579.768C799.239,570.721 814.122,541.307 820.989,528.721C848.692,478.307 883.801,431.666 917.083,384.981C985.833,288.59 1054.51,192.091 1123.12,95.481C1136.48,76.778 1109.13,60.348 1094.11,72.653L1094.1,72.656ZM516.37,720.306C490.167,763.079 493.472,816.611 487.636,864.636C481.566,914.511 470.714,971.256 424.355,996.516C367.753,1027.45 286.075,1016.58 253.735,986.414C155.93,895.312 230.133,746.414 320.532,690.374C346.805,674.108 374.813,673.218 404.907,673.64C435.587,674.109 459.68,665.226 485.743,649.593C496.571,643.101 507.47,634.523 520.899,635.413C527.079,635.913 532.961,638.272 537.77,642.186C542.575,646.101 546.082,651.378 547.829,657.327C556.079,685.499 529.056,699.585 516.376,720.304L516.37,720.306ZM684.86,657.892C679.774,700.876 653.219,744.494 623.712,775.572C612.415,787.455 592.306,786.916 580.962,775.572C568.657,763.267 570.556,745.408 580.962,732.822C594.642,716.771 609.411,701.681 625.165,687.658C640.118,673.924 653.149,660.142 670.563,649.689C676.211,646.291 685.727,650.533 684.86,657.892L684.86,657.892Z" style="fill:white;fill-rule:nonzero;"/>
        </g>
    </g>
</svg>
