<?xml version="1.0" encoding="UTF-8" standalone="no"?>
<!DOCTYPE svg PUBLIC "-//W3C//DTD SVG 1.1//EN" "http://www.w3.org/Graphics/SVG/1.1/DTD/svg11.dtd">
<svg width="100%" height="100%" viewBox="0 0 481 512" version="1.1" xmlns="http://www.w3.org/2000/svg" xmlns:xlink="http://www.w3.org/1999/xlink" xml:space="preserve" xmlns:serif="http://www.serif.com/" style="fill-rule:evenodd;clip-rule:evenodd;stroke-linejoin:round;stroke-miterlimit:2;">
    <g transform="matrix(1,0,0,1,-101.845,-69.1602)">
        <g transform="matrix(0.482281,0,0,0.482281,52.7271,35.8055)">
            <path d="M1097,742.27C1094.16,718.2 1087.16,695.114 1081.74,671.559C1076.33,648.356 1075.41,624.329 1079.02,600.778C1085.77,552.825 1077.17,511.997 1059.01,467.538C1049.91,445.296 1038.64,423.007 1040.68,398.819C1048.27,308.116 1067.3,273.289 1076.47,235.839C1084.79,201.925 1086.31,166.112 1074.83,132.429C1048.88,56.281 969.478,69.148 954.688,106.648C940.297,142.953 936.735,185.304 948.383,220.858C954.031,238.108 965.258,256.225 964.414,274.905C963.547,294.522 940.437,297.194 924.945,290.538C891.105,277.386 864.543,250.339 852.007,216.265C840.288,184.976 792.499,112.975 792.476,112.925C766.414,70.433 715.671,60.941 670.316,75.613C617.089,92.769 579.543,137.98 529.176,160.925C478.293,184.105 421.876,191.956 370.176,213.519C344.207,224.394 319.668,238.035 299.114,257.441C295.758,260.886 292.629,264.543 289.739,268.386C278.255,277.48 272.137,291.191 271.294,306.378C270.849,314.769 278.7,321.308 286.599,321.566C294.498,321.824 298.951,319.222 305.841,315.378C308.466,313.878 311.185,309.8 314.63,310.48C319.107,311.324 320.794,320.933 320.747,323.722C320.443,341.113 307.809,357.495 297.802,370.808C281.911,391.902 253.529,430.62 224.091,406.503C196.435,383.862 202.997,335.745 207.685,304.973C213.193,268.364 224.607,232.317 224.63,195.003C224.63,163.925 216.193,131.276 193.95,108.284C172.294,85.995 140.63,83.065 121.434,109.643C102.239,136.221 93.075,211.993 113.067,315.473C122.02,361.809 125.559,409.012 131.676,455.773C131.887,457.344 132.074,458.938 132.262,460.461C132.262,461.258 132.262,462.055 132.379,462.805C133.035,478.43 134.16,494.055 135.754,509.68C137.231,524.211 139.035,538.719 141.473,553.133C143.981,568.016 145.41,584.235 153.192,597.406C154.7,600.367 158.001,601.953 161.254,601.273C163.883,602.078 166.727,601.73 169.083,600.312C177.989,594.968 180.802,584.867 189.145,579.078C199.926,571.883 214.504,574.226 224.02,582.43C240.426,596.774 242.184,624.618 243.192,644.68C244.34,667.321 242.559,692.094 223.692,707.563C205.34,722.633 177.544,719.469 170.137,694.579C169.484,692.344 168.394,690.266 166.926,688.461C161.91,676.344 144.332,675.969 138.801,689.821C129.965,712.11 134.558,737.446 138.801,760.274C143.746,786.477 149.793,811.836 146.816,838.79C141.449,887.54 120.238,940.91 151.926,985.7C179.699,1024.98 231.004,1034.43 276.146,1029.36C282.357,1028.66 343.412,1024.68 367.787,1024.39C397.107,1023.93 487.017,1026.74 538.877,1055.8C564.775,1070.29 592.01,1081.72 619.033,1093.89C675.939,1119.55 740.603,1125.27 802.523,1123C833.8,1121.9 864.929,1118.21 895.593,1111.96C910.386,1109.16 924.863,1104.9 938.812,1099.23C945.745,1096.23 952.312,1092.45 958.382,1087.96C964.35,1084.66 969.757,1080.44 974.39,1075.44L974.694,1075.18C976.491,1073.8 977.952,1072.04 978.96,1070C981.347,1066.85 983.464,1063.5 985.288,1060C990.679,1049.61 984.304,1032.41 970.288,1034.03C949.194,1036.37 901.968,1049.96 889.405,1025.87C875.108,998.425 897.913,957.714 909.069,932.776C922.432,903.01 937.296,873.944 953.6,845.682C964.358,826.932 977.717,800.846 997.827,788.448C1008.47,788.612 1017.82,789.292 1023.26,802.768C1029.52,818.213 1030.29,832.557 1028.06,848.776C1027.01,856.159 1030.66,864.245 1037.2,866.987C1043.65,872.776 1053.19,874.159 1060.12,865.417C1088.11,830.167 1102.29,787.276 1096.99,742.277L1097,742.27ZM187.79,200.18C187.438,212.766 183.735,222.868 173.024,230.25C165.032,235.734 150.594,232.312 146.446,223.336C142.008,214.062 139.399,204.02 138.758,193.758C138.266,185.414 138.618,172.43 143.938,165.469C146.985,161.266 151.298,158.145 156.243,156.563C160.313,154.961 164.786,154.715 169.009,155.852C173.228,156.992 176.97,159.461 179.681,162.891C187.837,172.547 188.119,188.18 187.791,200.18L187.79,200.18ZM256.579,967.97C254.024,969.532 251.294,970.79 248.446,971.72C224.61,984.892 198.196,969.845 187.508,947.439C187.368,947.205 187.204,946.994 187.039,946.759C184.938,943.47 183.727,939.689 183.524,935.79C178.227,913.665 182.539,886.759 204.126,874.852C227.915,861.821 258.642,873.727 272.095,895.946C286.064,919.266 280.298,953.18 256.579,967.969L256.579,967.97ZM775.229,307.03C779.565,288.28 798.854,274.428 818.12,280.288C819.128,280.581 820.116,280.94 821.073,281.366C834.198,285.163 843.925,295.428 848.706,308.671C854.495,324.632 848.542,343.991 833.823,352.968C819.104,361.945 799.37,358.968 787.229,347.226C776.479,336.847 771.928,321.605 775.229,307.031L775.229,307.03ZM636.339,138.28C657.433,128.202 676.839,117.491 701.097,121.405C723.386,125.038 740.8,138.655 752.659,157.288C763.557,174.397 745.347,190.593 729.737,187.593C718.768,187.593 708.948,182.085 697.979,179.155C683.237,174.898 667.725,174.042 652.604,176.648C630.479,180.726 613.463,149.086 636.338,138.281L636.339,138.28ZM765.249,711.94L850.022,668.252C855.475,665.482 861.795,664.955 867.631,666.779C873.471,668.607 878.361,672.643 881.264,678.025C884.104,683.467 884.651,689.814 882.787,695.658C880.92,701.506 876.795,706.361 871.326,709.15L815.076,738.095L863.357,763.454C868.803,766.286 872.893,771.181 874.716,777.04C876.537,782.904 875.943,789.251 873.06,794.673C870.127,800.083 865.185,804.122 859.302,805.919C853.415,807.72 847.06,807.13 841.607,804.283L793.326,778.947L801.061,841.408C801.807,847.525 800.08,853.689 796.268,858.529C792.451,863.368 786.861,866.486 780.741,867.189C779.803,867.189 778.866,867.353 777.952,867.353C772.284,867.361 766.807,865.298 762.557,861.552C758.303,857.806 755.568,852.634 754.865,847.009L743.498,752.837L689.076,724.056L630.482,776.65L630.482,842.697L708.974,896.603C714.04,900.064 717.509,905.408 718.615,911.443C719.72,917.478 718.365,923.705 714.857,928.736C711.306,933.763 705.923,937.193 699.869,938.283C693.814,939.377 687.572,938.045 682.49,934.572L630.482,898.806L630.482,953.04C630.224,961.177 625.736,968.583 618.642,972.579C611.552,976.575 602.888,976.575 595.798,972.579C588.704,968.583 584.216,961.177 583.958,953.04L583.958,898.899L531.927,934.665C526.9,938.392 520.579,939.927 514.404,938.919C508.228,937.911 502.724,934.446 499.142,929.313C495.564,924.181 494.212,917.817 495.4,911.672C496.587,905.527 500.208,900.125 505.443,896.695L583.959,842.789L583.959,776.648L525.014,724.078L470.522,752.672L459.155,846.844C458.452,852.469 455.717,857.641 451.463,861.387C447.213,865.134 441.737,867.196 436.068,867.188C435.154,867.188 434.217,867.188 433.279,867.024C427.158,866.321 421.568,863.204 417.752,858.364C413.94,853.524 412.213,847.36 412.959,841.243L420.506,778.852L372.225,804.188C366.803,807.184 360.401,807.883 354.459,806.122C348.518,804.36 343.533,800.286 340.619,794.817C337.705,789.348 337.107,782.938 338.959,777.024C340.814,771.11 344.959,766.188 350.475,763.36L398.756,738.001L342.506,709.056C337.045,706.263 332.924,701.407 331.057,695.564C329.19,689.72 329.737,683.373 332.569,677.931C335.455,672.501 340.362,668.423 346.229,666.576C352.096,664.732 358.452,665.267 363.928,668.064L448.701,711.752L504.271,682.572L504.271,613.478L448.818,584.298L364.045,627.986C358.591,631.005 352.154,631.697 346.186,629.904C340.217,628.111 335.221,623.986 332.338,618.463C329.451,612.94 328.912,606.486 330.849,600.561C332.787,594.639 337.033,589.749 342.622,586.995L398.872,558.05L350.591,532.691C345.154,529.875 341.064,525.007 339.224,519.164C337.384,513.324 337.951,506.988 340.795,501.566C343.728,496.156 348.67,492.117 354.553,490.32C360.439,488.519 366.795,489.109 372.248,491.957L420.529,517.293L412.982,454.902C412.279,446.796 415.861,438.914 422.431,434.109C428.997,429.308 437.595,428.281 445.107,431.406C452.619,434.531 457.955,441.351 459.177,449.394L470.544,543.566L524.169,571.691L583.747,518.371L583.747,452.207L505.231,398.301C500.172,394.836 496.704,389.492 495.602,383.461C494.496,377.425 495.844,371.203 499.348,366.168C502.899,361.14 508.282,357.711 514.336,356.621C520.391,355.527 526.633,356.859 531.715,360.332L583.746,396.098L583.746,341.77C584.004,333.633 588.492,326.227 595.586,322.231C602.676,318.234 611.34,318.234 618.43,322.231C625.524,326.227 630.012,333.633 630.27,341.77L630.27,396.097L682.278,360.239C687.36,356.766 693.602,355.434 699.657,356.528C705.712,357.617 711.095,361.047 714.645,366.075C718.153,371.106 719.508,377.333 718.403,383.368C717.297,389.403 713.829,394.747 708.762,398.208L630.27,452.114L630.27,518.183L689.848,571.528L743.496,543.403L754.863,449.231C756.086,441.188 761.422,434.368 768.933,431.243C776.445,428.118 785.042,429.145 791.609,433.946C798.18,438.75 801.761,446.634 801.058,454.739L793.512,517.13L841.793,491.794C847.246,488.946 853.602,488.356 859.488,490.157C865.37,491.954 870.312,495.993 873.246,501.403C876.128,506.825 876.722,513.173 874.902,519.036C873.078,524.895 868.988,529.79 863.543,532.622L815.262,557.981L871.512,586.926C876.965,589.75 881.066,594.641 882.899,600.504C884.727,606.367 884.141,612.719 881.262,618.145C878.372,623.571 873.461,627.645 867.598,629.485C861.731,631.325 855.375,630.79 849.903,627.989L765.223,584.301L709.629,613.504L709.629,682.645L765.249,711.94ZM1013.69,661.268C1001.06,683.206 966.416,685.057 956.783,659.815C946.377,632.557 950.806,557.275 997.986,579.284C998.982,579.76 999.931,580.323 1000.82,580.971C1010.92,585.378 1018.1,595.69 1020.44,607.783C1023.58,624.705 1022.36,645.892 1013.57,661.174L1013.69,661.268ZM1031.27,206.068C1026.58,209.115 1017.21,210.755 1011.86,208.599L1009.52,207.615C1003.45,206.091 997.611,202.552 995.197,197.021C988.963,182.959 986.666,168.333 991.096,153.193C992.435,148.623 995.076,144.537 998.697,141.439C1002.32,138.345 1006.76,136.369 1011.49,135.755C1021.8,134.372 1030.24,139.154 1035.93,147.474C1044.44,160.376 1047,176.314 1042.96,191.232C1041.08,197.478 1036.9,202.779 1031.27,206.068L1031.27,206.068Z" style="fill:white;fill-rule:nonzero;"/>
            <path d="M550.88,609.87L550.88,685.034L606.989,735.261L663.098,685.034L663.098,609.87L606.989,559.643L550.88,609.87Z" style="fill:white;fill-rule:nonzero;"/>
            <path d="M398.48,111.98C398.48,135.617 385.132,154.777 368.668,154.777C352.204,154.777 338.856,135.617 338.856,111.98C338.856,88.343 352.204,69.183 368.668,69.183C385.132,69.183 398.48,88.343 398.48,111.98" style="fill:white;fill-rule:nonzero;"/>
            <path d="M1077.5,932C1090.25,939.367 1093.2,958.152 1084.07,973.957C1074.95,989.762 1057.21,996.605 1044.45,989.242C1031.69,981.875 1028.75,963.09 1037.88,947.285C1047,931.48 1064.74,924.637 1077.5,932" style="fill:white;fill-rule:nonzero;"/>
            <path d="M403.76,1111.3C386.252,1101.92 389.698,1081.86 409.948,1076.14C433.714,1069.35 466.315,1064.94 499.01,1076.14C509.111,1079.64 517.76,1083.01 524.79,1086.17C548.603,1096.72 542.838,1123.67 515.79,1128.03C485.321,1133.1 444.071,1133.05 403.76,1111.3L403.76,1111.3Z" style="fill:white;fill-rule:nonzero;"/>
        </g>
    </g>
</svg>
