<?xml version="1.0" encoding="UTF-8" standalone="no"?>
<!DOCTYPE svg PUBLIC "-//W3C//DTD SVG 1.1//EN" "http://www.w3.org/Graphics/SVG/1.1/DTD/svg11.dtd">
<svg width="100%" height="100%" viewBox="0 0 334 512" version="1.1" xmlns="http://www.w3.org/2000/svg" xmlns:xlink="http://www.w3.org/1999/xlink" xml:space="preserve" xmlns:serif="http://www.serif.com/" style="fill-rule:evenodd;clip-rule:evenodd;stroke-linejoin:round;stroke-miterlimit:2;">
    <g transform="matrix(1,0,0,1,-246.836,-57.1889)">
        <g transform="matrix(0.471632,0,0,0.471632,130.42,30.2168)">
            <path d="M866.41,85.664C850.004,52.172 804.183,47.062 781.379,76.547C696.887,185.837 517.499,282.567 517.499,282.567C287.619,401.397 251.459,628.687 251.459,628.687C232.029,760.637 276.842,848.437 329.881,904.287C330.889,905.342 331.897,906.42 332.928,907.474C341.674,916.474 353.518,921.806 366.053,922.38C378.588,922.955 390.873,918.732 400.405,910.568C456.03,862.595 503.265,805.678 540.135,742.148C549.51,725.906 570.604,719.601 586.565,729.351C593.889,733.777 599.213,740.867 601.428,749.132C603.643,757.398 602.576,766.198 598.447,773.694C586.119,796.1 566.267,830.741 542.08,868.171C542.08,868.171 455.549,987.961 384.35,1066.19C366.842,1085.43 367.803,1115.74 387.796,1132.36C396.425,1139.53 407.417,1143.23 418.628,1142.74C429.839,1142.25 440.464,1137.59 448.429,1129.68C486.253,1092.16 521.859,1052.47 555.069,1010.8C558.596,1006.31 563.979,1003.67 569.694,1003.63C707.464,1002.88 797.534,929.17 853.284,855.321C901.823,790.962 931.8,714.701 942.722,634.751C978.464,372.881 914.714,184.541 866.41,85.661L866.41,85.664ZM649.33,632.204C639.213,632.212 629.51,628.196 622.353,621.048C615.197,613.896 611.177,604.196 611.173,594.079C611.169,583.962 615.189,574.259 622.341,567.106C629.493,559.954 639.196,555.934 649.314,555.938C659.431,555.942 669.13,559.961 676.283,567.118C683.431,574.274 687.447,583.977 687.439,594.095C687.431,604.2 683.416,613.892 676.271,621.036C669.127,628.18 659.435,632.196 649.33,632.204Z" style="fill:white;fill-rule:nonzero;"/>
        </g>
    </g>
</svg>
