<?xml version="1.0" encoding="UTF-8"?>
<svg width="512pt" height="512pt" version="1.1" viewBox="0 0 512 512" xmlns="http://www.w3.org/2000/svg">
 <g fill="#fff">
  <path d="m241.12 238.96c9.5508-3.8281 20.207-3.8281 29.758 0 5.25-4.1484 8.5273-10.297 9.0469-16.965 0.51953-6.6719-1.7656-13.254-6.3086-18.164-4.543-4.9102-10.93-7.7031-17.617-7.7031s-13.074 2.793-17.617 7.7031c-4.543 4.9102-6.8281 11.492-6.3086 18.164 0.51953 6.668 3.7969 12.816 9.0469 16.965z"/>
  <path d="m256 244.08c-8.4609 0.015625-16.574 3.3828-22.559 9.3633-5.9492 6.0469-9.332 14.156-9.4414 22.637v40c0 11.434 6.0977 22 16 27.715 9.9023 5.7148 22.098 5.7148 32 0 9.9023-5.7148 16-16.281 16-27.715v-40c0.035156-4.5078-0.94922-8.9648-2.8789-13.039-2.5117-5.6289-6.5977-10.414-11.762-13.777-5.168-3.3633-11.195-5.1602-17.359-5.1836z"/>
  <path d="m448 164.16c-81.441-5.0391-140.56 67.84-157.76 91.359 3.7891 6.1875 5.7812 13.305 5.7617 20.559v11.359c22.48-30.879 81.602-31.039 82.879-31.039-4.4805-47.84 69.121-92.238 69.121-92.238z"/>
  <path d="m64 164.16s73.602 44.398 69.121 92.238c1.2812 0 60.398 0 82.879 31.039v-11.359c-0.019531-7.2539 1.9727-14.371 5.7617-20.559-17.203-23.52-76.32-96.398-157.76-91.359z"/>
 </g>
</svg>
