<?xml version="1.0" encoding="UTF-8" standalone="no"?>
<!DOCTYPE svg PUBLIC "-//W3C//DTD SVG 1.1//EN" "http://www.w3.org/Graphics/SVG/1.1/DTD/svg11.dtd">
<svg width="100%" height="100%" viewBox="0 0 512 513" version="1.1" xmlns="http://www.w3.org/2000/svg" xmlns:xlink="http://www.w3.org/1999/xlink" xml:space="preserve" xmlns:serif="http://www.serif.com/" style="fill-rule:evenodd;clip-rule:evenodd;stroke-linejoin:round;stroke-miterlimit:2;">
    <g transform="matrix(1,0,0,1,-78.4623,-78.3041)">
        <g transform="matrix(0.490867,0,0,0.490867,39.9477,39.8672)">
            <path d="M476.06,269.81L533.833,181.029C536.868,176.4 541.106,172.681 546.091,170.271L735.321,78.865C737.891,77.674 740.942,78.427 742.665,80.677C744.384,82.927 744.313,86.072 742.493,88.24L580.893,274.22C575.143,280.853 566.795,284.658 558.018,284.65L484.143,284.65C480.623,284.642 477.389,282.716 475.705,279.627C474.022,276.537 474.155,272.775 476.057,269.814L476.06,269.81Z" style="fill:white;fill-rule:nonzero;"/>
            <path d="M1112.7,309.38L1009.13,351.239C1000.46,354.755 993.689,361.782 990.497,370.575L926.981,546.355C925.852,549.429 927.137,552.867 930.008,554.449C932.876,556.027 936.469,555.281 938.465,552.683L1120.11,319.223C1121.93,316.958 1121.99,313.739 1120.24,311.415C1118.49,309.09 1115.38,308.251 1112.7,309.379L1112.7,309.38Z" style="fill:white;fill-rule:nonzero;"/>
            <path d="M579.02,671.88L598.825,897.65C599.083,900.881 601.403,903.572 604.559,904.298C607.716,905.029 610.981,903.627 612.63,900.838C710.388,736.257 855.16,450.438 949.73,259.778C951.437,256.442 950.394,252.36 947.296,250.254C944.198,248.145 940.019,248.672 937.542,251.481C853.167,345.231 645.952,575.271 590.882,636.441C582.171,646.089 577.874,658.929 579.023,671.879L579.02,671.88Z" style="fill:white;fill-rule:nonzero;"/>
            <path d="M512.98,669.28L205.36,688.03C199.856,688.339 195.149,692.1 193.641,697.405C152.907,844.005 97.102,1041.93 78.911,1106.45C77.716,1110.7 78.95,1115.27 82.118,1118.34C85.29,1121.41 89.888,1122.5 94.098,1121.17C286.398,1061.5 461.388,989.924 543.558,954.764C547.339,953.131 550.507,950.346 552.613,946.807C554.714,943.268 555.648,939.155 555.277,935.053L533.504,686.993C533.039,681.958 530.641,677.298 526.812,673.993C522.98,670.688 518.023,668.997 512.972,669.274L512.98,669.28Z" style="fill:white;fill-rule:nonzero;"/>
            <path d="M550.31,611.93L990.35,123.28C999.725,112.757 987.162,97.1 974.881,104.178C725.151,248.438 386.721,519.048 255.751,626.128C253.481,627.976 252.665,631.081 253.735,633.804C254.806,636.53 257.517,638.249 260.438,638.058L530.318,621.652C538.002,621.163 545.185,617.671 550.31,611.925L550.31,611.93Z" style="fill:white;fill-rule:nonzero;"/>
            <path d="M898.73,792.89L1085.71,623.91C1089.97,620.039 1093.26,615.223 1095.32,609.848L1120.51,543.379C1122.14,539.031 1120.62,534.133 1116.83,531.465C1113.03,528.793 1107.9,529.031 1104.37,532.035L815.806,777.895C813.536,779.825 812.63,782.923 813.497,785.774C814.368,788.626 816.853,790.688 819.814,791.02L882.369,798.052C888.31,798.755 894.264,796.876 898.728,792.895L898.73,792.89Z" style="fill:white;fill-rule:nonzero;"/>
            <path d="M934.78,834L972.96,890.25C974.901,893.238 978.366,894.867 981.909,894.453C985.448,894.043 988.444,891.66 989.647,888.305L1047.65,735.355C1048.58,732.917 1047.71,730.163 1045.55,728.694C1043.4,727.222 1040.52,727.421 1038.59,729.167L936.235,821.675C932.712,824.827 932.087,830.117 934.782,834.003L934.78,834Z" style="fill:white;fill-rule:nonzero;"/>
            <path d="M879.82,844.66L800.273,835.613C796.437,835.14 792.578,836.265 789.597,838.726C786.62,841.187 784.785,844.765 784.523,848.621L770.461,1033.59C770.109,1038.2 772.422,1042.6 776.41,1044.93C780.402,1047.26 785.371,1047.11 789.211,1044.54L937.261,946.239C940.441,944.165 942.652,940.896 943.382,937.169C944.116,933.446 943.312,929.579 941.152,926.458L889.941,850.778C887.616,847.364 883.921,845.13 879.816,844.661L879.82,844.66Z" style="fill:white;fill-rule:nonzero;"/>
        </g>
    </g>
</svg>
