<?xml version="1.0" encoding="UTF-8" standalone="no"?>
<!DOCTYPE svg PUBLIC "-//W3C//DTD SVG 1.1//EN" "http://www.w3.org/Graphics/SVG/1.1/DTD/svg11.dtd">
<svg width="100%" height="100%" viewBox="0 0 511 512" version="1.1" xmlns="http://www.w3.org/2000/svg" xmlns:xlink="http://www.w3.org/1999/xlink" xml:space="preserve" xmlns:serif="http://www.serif.com/" style="fill-rule:evenodd;clip-rule:evenodd;stroke-linejoin:round;stroke-miterlimit:2;">
    <g transform="matrix(1,0,0,1,-72.6766,-70.5311)">
        <g transform="matrix(0.483545,0,0,0.483545,37.5342,36.4262)">
            <path d="M908.58,168.75C836.467,116.617 752.35,83.562 664.03,72.656C657.249,71.828 650.432,73.902 645.26,78.363C640.088,82.824 637.041,89.265 636.866,96.093C633.631,215.763 637.405,356.643 639.491,419.643C639.612,423.706 640.854,427.655 643.076,431.053C645.303,434.455 648.424,437.174 652.1,438.909C676.948,450.503 698.553,468.046 715.006,489.979C718.002,494.182 722.545,497.022 727.635,497.877C732.725,498.728 737.944,497.521 742.147,494.525L742.522,494.221C753.608,485.478 755.366,469.33 747.655,457.494L746.998,456.509C744.041,452.076 742.53,446.837 742.674,441.513C742.815,436.185 744.604,431.033 747.795,426.767L914.065,202.987C917.948,197.745 919.557,191.155 918.526,184.714C917.491,178.269 913.909,172.515 908.581,168.745L908.58,168.75ZM723.42,309.77C717.846,308.723 712.916,305.504 709.717,300.825C706.518,296.141 705.311,290.384 706.358,284.809L711.584,257.082C712.526,251.402 715.717,246.344 720.436,243.047C725.151,239.746 730.998,238.488 736.655,239.555C742.315,240.621 747.303,243.922 750.495,248.711C753.69,253.496 754.819,259.371 753.632,265.004L748.405,292.731C747.378,298.332 744.155,303.29 739.456,306.508C734.757,309.723 728.968,310.93 723.374,309.863L723.42,309.77Z" style="fill:white;fill-rule:nonzero;"/>
            <path d="M861.75,621.94C856.59,620.6 853.164,615.713 853.656,610.405C854.152,605.096 858.422,600.928 863.742,600.565L1104.94,582.682C1111.42,582.186 1117.43,579.124 1121.63,574.178C1125.84,569.233 1127.9,562.811 1127.35,556.338C1121.52,483.389 1100.59,412.448 1065.87,348.028C1062.56,341.884 1056.76,337.462 1049.96,335.895C1043.15,334.328 1036,335.77 1030.34,339.848L756.12,536.728C752.225,539.525 749.198,543.365 747.382,547.802C745.565,552.244 745.038,557.103 745.854,561.829C752.581,601.056 745.003,641.391 724.502,675.499C722.299,679.148 721.256,683.382 721.506,687.636C721.76,691.89 723.295,695.968 725.909,699.335L847.179,854.955C855.311,865.408 841.343,878.627 831.359,869.932L682.389,740.162C679.193,737.385 675.236,735.631 671.03,735.135C666.823,734.639 662.569,735.416 658.811,737.373C635.081,749.752 608.702,756.185 581.936,756.123C575.67,756.104 569.413,755.744 563.186,755.045C560.143,759.405 558.604,764.639 558.803,769.951C559.182,776.01 561.713,781.732 565.943,786.088C570.174,790.444 575.818,793.139 581.865,793.694L598.271,795.428C615.052,797.233 625.927,810.311 624.802,825.17L603.708,1103.28C603.177,1110.25 605.677,1117.1 610.564,1122.09C615.454,1127.08 622.255,1129.73 629.232,1129.34C666.283,1127.21 703.005,1121.2 738.802,1111.41C745.161,1109.66 750.536,1105.4 753.681,1099.6C756.825,1093.8 757.47,1086.97 755.466,1080.69L694.036,887.166C688.809,870.76 711.755,860.682 720.286,875.705L821.986,1054.93C825.154,1060.51 830.396,1064.6 836.568,1066.32C842.74,1068.05 849.341,1067.26 854.939,1064.15C878.794,1050.93 901.595,1035.9 923.142,1019.19C928.267,1015.25 931.603,1009.42 932.419,1003.01C933.232,996.595 931.455,990.118 927.478,985.021L884.845,930.552C874.181,916.935 893.189,900.083 905.447,912.271L953.517,960.037C958.189,964.682 964.552,967.225 971.138,967.084C977.724,966.944 983.97,964.127 988.439,959.287C1052.22,890.283 1096.49,805.547 1116.69,713.777C1118.03,707.668 1116.96,701.277 1113.71,695.933C1110.46,690.59 1105.27,686.707 1099.23,685.089L861.75,621.94ZM951.727,811.53L929.016,794.819C922.86,790.292 919.59,782.827 920.43,775.233C921.274,767.643 926.102,761.077 933.098,758.006C940.094,754.94 948.196,755.838 954.352,760.365L977.086,777.076C983,781.694 986.063,789.064 985.164,796.514C984.262,803.96 979.531,810.393 972.687,813.467C965.843,816.538 957.89,815.803 951.726,811.53L951.727,811.53Z" style="fill:white;fill-rule:nonzero;"/>
            <path d="M504.7,737.13C492.7,730.829 481.516,723.083 471.395,714.068C469.102,711.99 466.247,710.631 463.188,710.166C460.129,709.697 457.001,710.142 454.192,711.443L413.88,730.193C393.747,739.568 377.247,711.912 395.13,698.693L418.568,681.279C423.166,677.9 426.513,673.095 428.087,667.611C429.662,662.127 429.373,656.275 427.263,650.974C415.708,621.716 412.685,589.783 418.54,558.876C424.396,527.969 438.892,499.353 460.345,476.349C481.802,453.345 509.337,436.896 539.763,428.904C544.99,427.474 549.638,424.447 553.06,420.244C556.478,416.041 558.502,410.873 558.842,405.467L578.904,96.397C579.372,89.346 576.743,82.444 571.704,77.491C566.665,72.538 559.716,70.026 552.677,70.616C506.337,74.553 460.716,84.585 416.997,100.452C410.744,102.725 405.696,107.471 403.04,113.569C400.38,119.67 400.345,126.596 402.935,132.725L490.427,339.495C491.708,342.421 490.56,345.839 487.775,347.401C484.99,348.963 481.474,348.159 479.646,345.542L345.536,158.252C341.891,153.181 336.438,149.709 330.302,148.552C324.169,147.396 317.822,148.646 312.583,152.041C277.587,174.439 245.337,200.861 216.489,230.768C211.758,235.666 209.305,242.327 209.723,249.123C210.145,255.92 213.399,262.228 218.692,266.51L412.352,422.79C415.563,425.196 417.649,428.813 418.125,432.798C418.598,436.786 417.418,440.79 414.86,443.884C406.836,453.657 399.462,463.943 392.782,474.681C390.801,477.903 387.653,480.235 383.993,481.192C380.333,482.149 376.446,481.653 373.141,479.814L154.001,357.684C148.161,354.437 141.243,353.746 134.876,355.762C128.505,357.781 123.251,362.332 120.345,368.348C101.052,408.231 86.88,450.395 78.157,493.828C77.09,499.261 78.067,504.898 80.899,509.656C83.735,514.413 88.223,517.956 93.508,519.609L271.118,575.859C296.665,584.718 292.891,621.961 266.079,625.547L93.739,648.445C87.344,649.285 81.551,652.636 77.641,657.761C73.731,662.89 72.024,669.363 72.903,675.749C78.012,711.515 97.091,767.718 108.715,799.969C111.074,806.469 115.988,811.723 122.32,814.508C128.648,817.293 135.843,817.368 142.23,814.711L320.35,740.813C339.897,732.704 354.1,760.079 336.217,771.282L173.587,874.222C167.942,877.8 164.024,883.546 162.751,890.105C161.477,896.664 162.965,903.457 166.86,908.886C205.712,962.952 254.34,1009.28 310.23,1045.46C315.757,1049.03 322.5,1050.21 328.91,1048.72C335.32,1047.23 340.851,1043.2 344.238,1037.56L511.088,759.238C513.307,755.488 513.877,750.988 512.666,746.804C511.451,742.62 508.568,739.12 504.689,737.136L504.7,737.13ZM319.54,857.76L340.634,839.01C344.868,835.241 350.427,833.307 356.087,833.631C361.747,833.959 367.044,836.514 370.821,840.744C374.59,844.983 376.524,850.545 376.2,856.209C375.876,861.873 373.317,867.174 369.087,870.955L347.993,889.705C342.231,894.283 334.524,895.58 327.583,893.143C320.641,890.701 315.438,884.866 313.81,877.69C312.181,870.514 314.356,863.006 319.563,857.807L319.54,857.76Z" style="fill:white;fill-rule:nonzero;"/>
        </g>
    </g>
</svg>
