<?xml version="1.0" encoding="UTF-8" standalone="no"?>
<!DOCTYPE svg PUBLIC "-//W3C//DTD SVG 1.1//EN" "http://www.w3.org/Graphics/SVG/1.1/DTD/svg11.dtd">
<svg width="100%" height="100%" viewBox="0 0 512 509" version="1.1" xmlns="http://www.w3.org/2000/svg" xmlns:xlink="http://www.w3.org/1999/xlink" xml:space="preserve" xmlns:serif="http://www.serif.com/" style="fill-rule:evenodd;clip-rule:evenodd;stroke-linejoin:round;stroke-miterlimit:2;">
    <g transform="matrix(1,0,0,1,-69.1566,-72.6908)">
        <g transform="matrix(0.482249,0,0,0.482249,35.8059,37.6358)">
            <path d="M367.1,307.24C367.444,309.404 368.182,311.486 369.28,313.381L369.725,314.271C370.752,315.927 371.913,317.494 373.194,318.959L374.249,319.779C375.815,321.299 377.518,322.674 379.334,323.881L383.741,325.779L388.663,326.459C392.299,326.377 395.831,325.236 398.835,323.181C401.835,321.127 404.17,318.24 405.561,314.881C406.366,313.447 406.796,311.838 406.803,310.193C407.362,307.701 407.249,305.103 406.475,302.67C405.01,296.115 400.85,290.479 395.014,287.154C392.163,285.498 388.936,284.595 385.639,284.529C384.592,284.533 383.549,284.634 382.522,284.833L381.678,284.833C377.975,285.216 374.522,286.873 371.905,289.521C368.753,292.837 366.975,297.228 366.936,301.802L366.936,302.224C366.733,303.896 366.788,305.587 367.1,307.239L367.1,307.24Z" style="fill:white;fill-rule:nonzero;"/>
            <path d="M642.56,183.84C655.404,195.395 668.646,208.238 685.755,211.543C701.083,214.496 710.388,200.34 704.646,186.488C698.201,170.996 684.044,159.676 671.834,148.59C660.514,138.348 639.209,121.52 626.248,138.629C614.436,154.215 631.146,173.551 642.56,183.84L642.56,183.84Z" style="fill:white;fill-rule:nonzero;"/>
            <path d="M835.29,172.71C851.696,197.038 867.188,221.929 883.126,246.515C911.251,289.921 947.204,352.595 1001.68,363.375C1056.15,374.155 1102.2,331.172 1088.86,274.5C1076.77,223.195 1028.3,180.305 984.214,156.82C970.152,149.32 953.956,164.367 958.62,177.609C958.925,179.714 958.925,181.855 958.62,183.961C957.378,189.351 951.893,192.703 947.065,194.555C943.686,195.793 940.135,196.496 936.542,196.64C930.378,195.461 924.296,193.894 918.331,191.953C912.354,185.578 906.261,179.367 900.143,173.367C884.674,158.226 868.455,141.773 851.159,126.961C836.487,107.625 820.55,89.461 802.339,75.399C789.659,65.696 773.839,84.235 781.245,96.821C796.878,123.329 818.112,147.118 835.292,172.712L835.29,172.71Z" style="fill:white;fill-rule:nonzero;"/>
            <path d="M925.38,133.78C926.802,134.096 928.263,134.198 929.716,134.085L931.239,134.296C933.107,134.382 934.962,133.96 936.607,133.077C939.411,131.956 941.747,129.913 943.239,127.288C944.384,125.061 945.032,122.616 945.138,120.116C945.153,116.385 943.685,112.803 941.06,110.155L937.802,107.507C937.216,107.038 936.63,106.592 936.021,106.171L934.661,105.093C933.044,104.034 931.177,103.428 929.247,103.335C926.013,102.788 922.689,103.409 919.872,105.093C917.767,106.475 915.982,108.3 914.646,110.436C912.735,113.936 912.212,118.026 913.169,121.897C913.821,124.854 915.329,127.554 917.497,129.663C919.669,131.776 922.407,133.206 925.38,133.78L925.38,133.78Z" style="fill:white;fill-rule:nonzero;"/>
            <path d="M428.77,747.09C424.821,742.063 420.348,737.465 415.434,733.379C407.536,726.348 394.856,724.871 387.192,733.379C379.528,741.887 380.02,753.441 387.192,762.184C388.317,763.543 389.536,764.856 390.754,766.122C396.426,772.801 402.215,780.794 410.442,782.762C411.86,783.512 413.376,784.063 414.942,784.403C422.794,785.973 432.38,782.223 434.184,773.27C434.485,771.727 434.634,770.157 434.63,768.583C435.892,764.821 436.009,760.774 434.966,756.946C433.923,753.117 431.767,749.688 428.77,747.09L428.77,747.09Z" style="fill:white;fill-rule:nonzero;"/>
            <path d="M241.95,936.52C189.012,908.458 140.63,872.54 98.44,830C82.62,813.828 58.924,838.273 73.948,854.984L76.128,857.328C86.956,881.258 101.816,903.922 115.222,926.094C130.081,950.719 145.784,974.742 162.331,998.164C190.761,1038.36 223.269,1094.4 274.061,1107C320.819,1118.61 368.936,1078.88 349.061,1028.7C330.803,982.668 282.475,958.222 241.951,936.519L241.95,936.52Z" style="fill:white;fill-rule:nonzero;"/>
            <path d="M665.39,977.58C646.64,939.588 615.398,910.853 581.32,887.744C563.508,875.65 550.054,866.463 532.875,853.432C519.937,843.635 492.328,821.065 466.359,819.705C455.742,819.143 445.687,833.111 452.765,843.869C455.074,847.314 456.066,851.475 455.562,855.592C455.058,859.709 453.093,863.51 450.023,866.299C447.538,868.643 443.46,869.369 438.984,869.276C421.757,865.924 406.781,849.729 395.648,837.542C367.968,807.261 343.523,775.784 312.468,748.808C281.999,722.183 249.304,698.066 217.148,673.433C201.117,661.152 185.46,648.355 169.781,635.605C153.679,622.48 139.312,606.917 122.203,595.316C119.203,593.034 115.062,592.988 112.008,595.198C103.781,595.855 96.352,602.628 99.375,612.401C107.531,638.862 132.75,660.354 150.234,680.885C169.546,703.573 188.765,726.354 208.359,748.854C247.382,793.526 286.171,838.596 321.259,886.594C352.548,929.367 380.79,974.367 413.298,1016.22C444.657,1056.63 482.275,1099.54 530.488,1118.52C554.308,1127.64 580.242,1129.71 605.207,1124.5C617.93,1121.87 630.187,1117.36 641.582,1111.12C654.961,1104.09 665.82,1093.07 672.66,1079.6C680.652,1064.88 687.965,1023.2 665.394,977.575L665.39,977.58ZM598.687,1059.99C531.914,1084.01 485.417,1000.22 475.457,986.908C469.387,978.775 462.051,961.431 459.191,951.752C457.214,948.322 456.914,944.182 458.371,940.502C458.586,939.15 459.199,937.897 460.128,936.893C460.507,934.615 462.32,932.85 464.605,932.533C470.652,928.127 479.23,927.166 484.972,933.729C486.355,935.322 487.831,937.01 489.378,938.744C502.659,954.131 520.745,964.584 540.706,968.416L541.175,968.416C559.62,971.674 578.394,973.643 594.191,984.822C618.027,1001.88 630.285,1048.62 598.691,1059.99L598.687,1059.99Z" style="fill:white;fill-rule:nonzero;"/>
            <path d="M1027.2,764.39C985.505,730.054 938.466,710.367 893.61,682.546C841.063,649.921 795.758,606.257 750.83,563.856C748.928,562.016 746.615,560.657 744.08,559.895C730.205,547.051 713.916,535.989 700.65,525.957C687.384,515.925 668.775,535.637 677.822,549.254C688.134,564.84 700.181,580.356 708.408,597.207C718.088,616.988 702.947,623.269 685.72,617.387C653.4,606.325 626.728,576.957 604.509,551.762C579.103,523.074 554.892,493.168 530.212,463.895C516.876,448.051 503.235,432.536 489.407,417.02L486.196,413.434C476.821,396.653 462.758,382.028 447.173,376.52C433.673,371.833 424.462,388.473 430.181,399.09C435.619,410.434 480.267,460.637 444.665,462.77C443.841,462.813 443.017,462.907 442.204,463.051C430.485,457.192 417.595,445.285 413.048,441.301C403.951,433.227 395.341,424.617 387.267,415.52C380.986,408.044 303.15,315.536 287.564,297.3C267.291,273.581 247.298,249.534 226.626,226.238C205.392,202.683 185.118,176.433 161.681,155.082C144.642,139.637 114.619,159.77 128.493,181.191C143.399,204.371 162.548,225.23 179.798,246.675C196.673,267.769 213.946,288.3 231.36,308.925C267.532,351.878 303.719,394.847 339.92,437.835C375.467,479.882 410.936,522.007 446.33,564.215C463.275,584.442 480.221,604.762 499.228,623.043C517.181,640.293 537.056,655.246 556.462,670.738C574.157,684.867 591.134,699.879 607.321,715.715C609.642,721.024 609.278,727.125 606.337,732.121C600.384,741.754 583.626,733.387 575.025,731.84C563.306,729.731 552.923,730.317 545.822,740.981C543.568,745.012 544.205,750.039 547.392,753.379C550.603,756.586 554.521,758.992 558.83,760.41C576.596,775.574 593.986,789.426 608.775,808.34C627.033,831.778 641.189,858.145 656.306,883.762C682.837,928.762 713.447,970.598 753.314,1004.28C790.58,1035.78 833.752,1060.72 881.094,1072.25C905.422,1078.18 931.344,1081.35 956.328,1078.95C968.57,1078.01 980.617,1075.35 992.117,1071.06C1032.59,1055.07 1058.59,1032.36 1074.88,994.322C1103.4,927.478 1100.42,824.702 1027.2,764.402L1027.2,764.39ZM811.88,684.82C821.255,686.859 829.435,694.007 837.38,699.234C846.45,705.187 856.646,710.601 859.482,721.968C862.318,733.335 854.115,742.476 843.287,743.671C832.459,744.866 824.045,736.405 815.935,730.359C807.826,724.312 798.497,718.64 792.919,709.968C784.458,696.702 798.427,681.843 811.88,684.82ZM1001.14,911.72C999.941,925.962 995.16,939.665 987.242,951.564C966.781,981.658 921.758,986.931 901.086,980.884C850.297,966.025 821.047,918.939 793.676,876.614C777.668,851.864 761.332,827.395 745.629,802.364C740.52,794.231 733.91,784.552 731.356,775.153C729.04,768.813 728.426,761.977 729.575,755.325C730.747,748.856 736.723,744.52 742.77,743.255C749.426,739.333 757.594,738.974 764.567,742.294C791.192,753.825 808.747,778.81 834.364,792.192C858.762,804.965 927.997,809.137 972.644,849.075C990.105,864.848 1002.53,888.052 1001.14,911.723L1001.14,911.72Z" style="fill:white;fill-rule:nonzero;"/>
            <path d="M1124.6,523.97C1104.73,473.908 1051.15,454.572 1003.43,444.142C974.508,437.814 944.602,432.798 919.055,416.837C893.063,400.642 872.18,376.337 850.758,354.564C829.336,332.791 808.266,309.376 784.172,290.158C761.555,272.158 736.899,261.846 709.172,255.353C675.164,247.431 645.024,239.228 617.555,216.095C601.993,203.017 588.985,187.384 575.367,172.407C570.629,165.735 565.269,159.528 559.359,153.868C551.226,145.501 543.75,135.399 531.234,135.587C523.668,135.802 517.629,141.966 517.57,149.532C516.914,159.259 522.89,166.524 529.125,173.274C536.156,186.586 547.242,198.844 555.68,210.235L593.508,261.235C614.602,289.641 633.539,323.79 668.203,336.071C703.359,348.54 743.203,345.165 772.923,371.883C785.157,382.852 795.892,399.844 794.017,417.188C792.915,427.454 783.54,436.149 774.869,433.196L765.494,424.548C754.033,413.931 735.025,427.43 743.486,441.868C745.463,445.246 747.865,448.356 750.634,451.125C757.83,464.789 769.22,476.367 779.251,487.641C793.501,503.672 807.657,519.774 822.235,535.5C851.462,567.023 879.493,600.75 911.297,629.648C937.195,653.086 969.281,673.125 1005.19,671.836C1037.02,670.665 1084.52,654.961 1102.62,625.664C1112.13,616.992 1119.35,603.961 1123.71,593.133C1132.91,571.055 1133.23,546.278 1124.6,523.969L1124.6,523.97ZM1026.54,588.704C1023.04,592.231 1018.85,595.001 1014.23,596.837C1000.05,605.977 977.506,602.509 961.499,593.181C934.101,577.267 914.624,546.704 898.054,520.267C890.367,508.033 903.234,489.986 917.109,495.001C948.07,506.157 983.086,508.806 1012.9,523.126C1037.25,534.985 1047.63,567.962 1026.54,588.704L1026.54,588.704Z" style="fill:white;fill-rule:nonzero;"/>
        </g>
    </g>
</svg>
