<?xml version="1.0" encoding="UTF-8" standalone="no"?>
<!DOCTYPE svg PUBLIC "-//W3C//DTD SVG 1.1//EN" "http://www.w3.org/Graphics/SVG/1.1/DTD/svg11.dtd">
<svg width="100%" height="100%" viewBox="0 0 510 512" version="1.1" xmlns="http://www.w3.org/2000/svg" xmlns:xlink="http://www.w3.org/1999/xlink" xml:space="preserve" xmlns:serif="http://www.serif.com/" style="fill-rule:evenodd;clip-rule:evenodd;stroke-linejoin:round;stroke-miterlimit:2;">
    <g transform="matrix(1,0,0,1,-83.3381,-81.1058)">
        <g transform="matrix(0.493376,0,0,0.493376,42.2211,41.0902)">
            <path d="M971.06,314.41L1044.26,243.277C1047.98,239.648 1053.45,238.449 1058.35,240.179C1063.26,241.91 1066.76,246.269 1067.39,251.433C1075.73,319.097 1087.8,499.983 1000.62,619.263C989.295,634.732 964.873,624.677 967.803,605.74C977.483,542.459 985.991,440.39 961.639,348.47C960.041,342.47 960.073,336.15 961.729,330.165C963.385,324.177 966.608,318.743 971.061,314.415L971.06,314.41Z" style="fill:white;fill-rule:nonzero;"/>
            <path d="M1095.8,82.852C590.25,344.832 196.62,909.772 85.9,1092.85C76.525,1108.44 94.783,1125.95 109.947,1115.89L187.15,1064.66C208.728,1050.31 233.072,1040.65 258.611,1036.29C284.15,1031.92 310.322,1032.95 335.439,1039.32C745.319,1143.73 885.069,884.471 928.779,752.611C934.568,735.15 912.959,722.142 899.998,735.244C709.918,926.494 495.728,900.874 423.448,876.194C417.366,874.132 412.725,869.155 411.093,862.94C409.46,856.729 411.054,850.112 415.339,845.327C448.151,808.577 482.933,770.468 516.309,733.557C523.274,725.858 532.641,720.741 542.883,719.041C553.125,717.338 563.641,719.151 572.723,724.182C580.321,728.377 588.207,732.03 596.325,735.104C600.731,736.756 605.563,736.885 610.052,735.479C614.54,734.069 618.427,731.198 621.099,727.323L680.49,641.026C682.658,637.862 686.576,636.397 690.291,637.358C694.002,638.315 696.717,641.498 697.084,645.315L704.678,724.299C705.088,728.631 707.463,732.537 711.119,734.893C714.775,737.252 719.311,737.807 723.428,736.393C759.803,723.452 791.198,699.424 813.201,667.702C835.201,635.975 846.697,598.147 846.068,559.542C845.443,520.94 832.72,483.507 809.701,452.512C805.131,446.289 802.885,438.66 803.357,430.953C803.826,423.242 806.986,415.945 812.279,410.324C909.381,307.344 1008.97,205.504 1112.61,105.444C1123.77,93.725 1110.08,75.397 1095.76,82.827L1095.8,82.852ZM751.27,564.982C747.661,577.373 738.075,587.13 725.747,590.951C722.216,592.029 718.575,592.705 714.895,592.967C710.747,593.283 706.719,591.471 704.207,588.154C701.695,584.834 701.043,580.467 702.473,576.56C708.312,560.638 716.676,545.759 727.246,532.498C730.355,528.729 735.253,526.928 740.062,527.783C744.874,528.639 748.851,532.014 750.472,536.623C753.702,545.764 753.94,555.697 751.151,564.982L751.27,564.982Z" style="fill:white;fill-rule:nonzero;"/>
        </g>
    </g>
</svg>
