<?xml version="1.0" encoding="UTF-8" standalone="no"?>
<!DOCTYPE svg PUBLIC "-//W3C//DTD SVG 1.1//EN" "http://www.w3.org/Graphics/SVG/1.1/DTD/svg11.dtd">
<svg width="100%" height="100%" viewBox="0 0 512 511" version="1.1" xmlns="http://www.w3.org/2000/svg" xmlns:xlink="http://www.w3.org/1999/xlink" xml:space="preserve" xmlns:serif="http://www.serif.com/" style="fill-rule:evenodd;clip-rule:evenodd;stroke-linejoin:round;stroke-miterlimit:2;">
    <g transform="matrix(1,0,0,1,-63.494,-65.4482)">
        <g transform="matrix(0.477161,0,0,0.477161,33.1971,34.2188)">
            <path d="M504.26,849.54C508.248,848.36 511.694,845.813 513.987,842.345C517.682,838.2 519.034,832.47 517.573,827.111C516.666,823.302 514.28,820.013 510.94,817.97C510.619,817.794 510.311,817.591 510.026,817.361C507.537,815.853 504.686,815.044 501.776,815.017C500.053,815.025 498.342,815.306 496.713,815.861C495.424,816.091 494.178,816.509 493.01,817.103C490.283,818.236 487.905,820.072 486.119,822.423C483.795,825.408 482.534,829.083 482.534,832.864C482.534,836.645 483.795,840.321 486.119,843.305C488.19,846.02 491.018,848.059 494.244,849.168C497.475,850.278 500.959,850.407 504.26,849.54L504.26,849.54Z" style="fill:white;fill-rule:nonzero;"/>
            <path d="M672.19,895.97C643.924,917.064 614.229,938.415 580.057,948.704C571.291,951.352 509.745,977.298 473.257,902.298C459.851,874.782 430.718,866.368 406.484,849.493C382.504,832.626 368.668,804.778 369.711,775.477C369.945,768.258 370.484,757.829 375.289,751.899C378.969,747.352 379.789,747.915 385.016,750.071C388.5,751.54 391.762,753.497 394.695,755.883C409.883,768.188 423.265,783.281 437.234,797.016C447.453,807.047 469.695,797.016 463.343,781.805C442.952,733.172 427.226,686.977 442.788,634.475C456.147,589.381 477.054,548.319 480.007,500.555C482.586,458.672 471.476,416.039 441.452,385.575C437.48,381.575 433.288,377.806 428.89,374.278C404.96,344.583 355.413,331.317 321.41,331.223C263.683,331.083 213.13,358.832 168.29,394.106C128.563,425.372 88.134,490.903 77.563,540.006C59.165,625.412 56.657,703.646 83.071,816.236C106.087,914.345 150.454,1020.15 231.661,1084.34C275.302,1118.79 330.099,1139.44 386.231,1133.56C405.169,1131.59 408.356,1107.28 384.778,1100.51C371.958,1096.83 359.278,1094.3 346.153,1091.13C305.02,1081.27 283.411,1060.5 272.325,1038.05C270.88,1035.22 271.446,1031.78 273.727,1029.58C276.005,1027.36 279.462,1026.9 282.239,1028.44C298.645,1037.51 320.606,1049.53 328.434,1052.77C351.661,1062.38 375.723,1069.84 400.317,1075.06C443.559,1084.12 488.958,1086.21 532.037,1075.06C568.482,1065.68 606.896,1053.12 632.817,1025.84C655.34,1002.16 695.231,959.086 695.231,909.216C695.301,898.599 681.895,888.708 672.192,895.974L672.19,895.97ZM195.8,811.595C190.261,811.595 184.948,809.396 181.034,805.478C177.116,801.564 174.917,796.251 174.917,790.712C174.917,785.173 177.116,779.86 181.034,775.946C184.948,772.028 190.261,769.829 195.8,769.829C201.339,769.829 206.652,772.028 210.566,775.946C214.484,779.86 216.683,785.172 216.683,790.712C216.714,796.267 214.527,801.607 210.605,805.544C206.687,809.485 201.359,811.696 195.8,811.688L195.8,811.595ZM339.31,515.625C337.978,522.551 335.919,529.313 333.169,535.805C323.654,558.657 303.942,576.164 279.567,580.336C271.024,581.871 262.266,581.711 253.786,579.867C246.283,578.293 238.462,579.457 231.743,583.148C225.021,586.844 219.845,592.82 217.153,600C209.068,621.492 200.465,655.992 199.575,706.83C199.271,724.783 173.489,726.799 170.255,709.174C161.806,663.401 163.884,616.307 176.326,571.454C184.209,541.989 198.342,514.563 217.764,491.04C227.803,478.817 239.596,468.149 252.756,459.376C293.983,432.634 348.287,467.345 339.311,515.626L339.31,515.625Z" style="fill:white;fill-rule:nonzero;"/>
            <path d="M695.74,350.46C691.752,351.64 688.306,354.187 686.013,357.655C682.318,361.8 680.967,367.53 682.428,372.889C683.334,376.698 685.721,379.987 689.06,382.03C689.381,382.206 689.689,382.409 689.974,382.639C692.463,384.147 695.314,384.956 698.224,384.983C699.947,384.975 701.658,384.694 703.287,384.139C704.576,383.909 705.822,383.491 706.99,382.897C709.717,381.764 712.095,379.928 713.881,377.577C716.205,374.592 717.466,370.917 717.466,367.136C717.466,363.355 716.205,359.679 713.881,356.695C711.81,353.98 708.982,351.941 705.756,350.832C702.525,349.722 699.041,349.593 695.74,350.46L695.74,350.46Z" style="fill:white;fill-rule:nonzero;"/>
            <path d="M527.81,304.03C556.076,282.936 585.771,261.585 619.943,251.296C628.709,248.648 690.255,222.702 726.743,297.702C740.149,325.218 769.282,333.632 793.516,350.507C817.496,367.374 831.332,395.222 830.289,424.523C830.055,431.742 829.516,442.171 824.711,448.101C821.031,452.648 820.211,452.085 814.984,449.929C811.5,448.46 808.238,446.503 805.305,444.117C790.117,431.812 776.735,416.719 762.766,402.984C752.547,392.953 730.305,402.984 736.657,418.195C757.048,466.828 772.774,513.023 757.212,565.525C743.853,610.619 722.946,651.681 719.993,699.445C717.415,741.328 728.524,783.961 758.548,814.425C762.52,818.425 766.712,822.194 771.11,825.722C795.04,855.417 844.587,868.683 878.59,868.777C936.317,868.917 986.87,841.168 1031.71,805.894C1071.44,774.628 1111.87,709.097 1122.44,659.994C1140.84,574.588 1143.34,496.354 1116.93,383.764C1093.91,285.655 1049.55,179.854 968.339,115.664C924.698,81.211 869.901,60.562 813.649,66.445C794.711,68.413 791.524,92.718 815.102,99.492C827.922,103.171 840.602,105.702 853.727,108.867C894.86,118.734 916.469,139.5 927.555,161.953C929,164.777 928.434,168.218 926.153,170.425C923.875,172.636 920.418,173.097 917.641,171.562C901.235,162.492 879.274,150.468 871.446,147.234C848.219,137.617 824.157,130.156 799.563,124.945C756.321,115.875 710.922,113.789 667.843,124.945C631.398,134.32 592.984,146.883 567.063,174.164C544.54,197.836 504.649,240.914 504.649,290.784C504.696,301.401 518.102,311.292 527.805,304.026L527.81,304.03ZM1004.2,388.405C1009.74,388.405 1015.05,390.604 1018.97,394.522C1022.88,398.436 1025.08,403.749 1025.08,409.288C1025.08,414.827 1022.88,420.14 1018.97,424.054C1015.05,427.972 1009.74,430.171 1004.2,430.171C998.661,430.171 993.348,427.972 989.434,424.054C985.516,420.14 983.317,414.828 983.317,409.288C983.286,403.734 985.473,398.393 989.395,394.456C993.313,390.515 998.641,388.304 1004.2,388.312L1004.2,388.405ZM860.69,684.375C862.022,677.449 864.081,670.687 866.831,664.195C876.346,641.343 896.058,623.836 920.433,619.547C928.976,618.012 937.734,618.172 946.214,620.016C953.702,621.598 961.511,620.449 968.23,616.781C974.948,613.109 980.132,607.156 982.847,600C990.932,578.508 999.535,544.008 1000.43,493.17C1000.73,475.217 1026.51,473.201 1029.75,490.827C1038.19,536.6 1036.12,583.694 1023.67,628.547C1015.79,658.012 1001.66,685.438 982.236,708.961C972.197,721.184 960.404,731.852 947.244,740.625C906.017,767.367 851.713,732.656 860.689,684.375L860.69,684.375Z" style="fill:white;fill-rule:nonzero;"/>
        </g>
    </g>
</svg>
