<?xml version="1.0" encoding="UTF-8" standalone="no"?>
<!DOCTYPE svg PUBLIC "-//W3C//DTD SVG 1.1//EN" "http://www.w3.org/Graphics/SVG/1.1/DTD/svg11.dtd">
<svg width="100%" height="100%" viewBox="0 0 512 460" version="1.1" xmlns="http://www.w3.org/2000/svg" xmlns:xlink="http://www.w3.org/1999/xlink" xml:space="preserve" xmlns:serif="http://www.serif.com/" style="fill-rule:evenodd;clip-rule:evenodd;stroke-linejoin:round;stroke-miterlimit:2;">
    <g transform="matrix(1,0,0,1,-69.0646,-123.003)">
        <g transform="matrix(0.48215,0,0,0.48215,35.7651,63.6972)">
            <path d="M565.9,133.41C554.72,172.551 514.338,186.637 497.369,221.348C489.252,239.071 486.092,258.664 488.228,278.043C488.912,290.047 491.498,301.867 495.893,313.059C496.408,314.981 498.728,321.098 501.564,328.27C503.018,332.001 505.76,335.083 509.295,336.965C512.826,338.844 516.916,339.399 520.822,338.52C524.728,337.641 528.189,335.395 530.58,332.184C543.35,314.59 559.084,299.356 577.08,287.161C591.576,277.825 602.623,264.005 608.533,247.809C622.595,209.981 608.345,168.871 594.119,133.409C589.009,120.682 570.166,118.432 565.9,133.409L565.9,133.41Z" style="fill:white;fill-rule:nonzero;"/>
            <path d="M314.72,242.74C300.685,255.459 293.548,274.103 295.501,292.943C295.278,294.998 295.278,297.076 295.501,299.131C297.845,322.193 321.657,332.178 339.61,317.388C357.563,302.599 364.548,275.905 357.399,254.107C354.883,245.424 348.005,238.693 339.27,236.365C330.536,234.041 321.219,236.459 314.719,242.74L314.72,242.74Z" style="fill:white;fill-rule:nonzero;"/>
            <path d="M1051,367.38C1044.95,355.333 1027.21,356.692 1020.81,367.38C1001.17,400.192 980.828,434.833 983.312,474.47C984.39,491.884 987.648,510.165 1001.2,521.837C1017.09,535.501 1045.56,550.431 1067.22,519.282C1075.05,510.048 1078.68,497.696 1079.57,485.415C1082.5,445.313 1068.79,402.704 1051,367.385L1051,367.38Z" style="fill:white;fill-rule:nonzero;"/>
            <path d="M1129.7,936.94C1130.89,893.022 1127.71,849.092 1120.18,805.81C1112.78,764.302 1103.33,720.826 1082.87,683.33C1069.28,658.463 1039.65,617.705 1006.96,626.846C1006.15,627.08 1005.37,627.397 1004.62,627.784C992.861,629.588 982.705,636.967 977.357,647.588C972.068,654.585 968.423,662.686 966.693,671.284C962.005,693.737 965.568,716.963 960.224,739.511C955.279,760.416 945.576,780.55 927.036,792.291C898.419,810.408 875.848,796.979 862.161,774.386C845.614,729.855 857.098,681.808 871.325,638.026C879.809,611.916 890.848,586.463 896.145,559.323C901.559,531.689 900.575,504.479 895.512,476.87C885.551,422.659 863.332,371.94 856.16,316.93C852.012,285.196 851.988,253.391 852.996,221.469C853.488,206.117 854.519,190.789 856.394,175.555C858.269,160.321 860.941,146.774 854.73,132.313C851.543,124.906 843.011,124.414 836.707,127.32C831.699,126.551 826.586,127.605 822.293,130.297C744.762,176.047 686.353,250.927 659.263,337.367C644.263,385.32 644.052,433.226 642.458,482.937C641.122,523.999 632.286,584.557 583.677,594.337C560.638,599.024 542.989,584.071 534.294,563.446C522.341,535.157 530.333,504.548 528.599,475.063C528.427,468.25 524.697,462.032 518.767,458.668C512.841,455.309 505.587,455.305 499.654,458.656C479.029,460.203 461.638,477.617 449.592,494.047C433.936,515.375 425.522,540.758 420.436,566.586C412.303,607.883 410.381,690.036 355.631,699.406C301.725,708.641 273.6,646.508 268.162,602.914C264.912,573.367 265.342,543.527 269.451,514.086C271.443,498.617 273.998,483.148 277.326,467.938C280.842,451.93 287.381,436.133 289.607,419.985C289.607,419.47 297.904,380.423 266.849,399.571C259.818,403.907 253.607,415.227 253.607,415.227C253.607,415.227 229.701,453.594 218.451,471.899C204.037,495.594 189.857,519.454 176.592,543.829C149.451,593.704 125.03,645.289 106.28,699.029C70.655,801.829 68.686,923.159 69.108,1034.07C69.096,1045.42 73.581,1056.31 81.581,1064.35C89.577,1072.4 100.44,1076.95 111.788,1077.01L236.738,1077.01C240.551,1077.01 244.234,1075.64 247.133,1073.17C250.031,1070.69 251.949,1067.26 252.543,1063.5C253.137,1059.73 252.371,1055.88 250.379,1052.63C225.652,1011.66 217.988,956.725 231.371,916.411C233.395,909.595 238.895,904.368 245.809,902.7C249.754,900.005 254.626,899.025 259.309,899.982C279.84,903.732 296.34,911.044 317.903,907.81C336.676,904.942 354.559,897.868 370.215,887.115C404.059,863.959 426.348,826.998 446.785,792.381C448.941,788.256 452.57,785.092 456.949,783.517C461.332,781.939 466.144,782.068 470.433,783.873C476.312,786.342 480.828,791.24 482.808,797.303C486.382,806.92 489.359,816.752 491.714,826.741C494.117,836.866 498.851,846.288 505.542,854.257C518.831,869.819 540.276,875.609 559.94,870.663C581.667,865.296 596.409,845.679 608.526,828.171C619.776,811.663 630.128,794.562 639.534,776.937C643.8,769.132 647.972,761.257 652.12,753.382C660.066,738.265 677.737,742.812 684.393,754.272L684.628,754.46C690.604,760.53 693.065,768.522 694.214,776.937C695.456,785.984 695.175,795.687 695.995,804.242C697.46,822.359 700.639,840.301 705.487,857.82C713.667,885.64 728.128,913.461 752.057,930.851C779.526,950.843 814.916,952.296 847.588,952.507C874.846,952.694 907.565,953.679 929.104,934.109C942.674,921.804 970.495,929.07 968.807,950.515C966.616,981.945 958.069,1012.6 943.682,1040.63C939.655,1048.34 939.948,1057.58 944.452,1065.02C948.959,1072.45 957.022,1076.99 965.714,1076.98L1086.91,1076.98C1097.45,1076.92 1107.61,1072.99 1115.43,1065.92C1123.25,1058.86 1128.2,1049.17 1129.34,1038.69C1133.18,1005.34 1128.96,967.976 1129.71,936.947L1129.7,936.94ZM193.65,830.18C184.65,828.422 172.556,816.938 169.088,787.032C168.666,783.493 169.861,769.899 171.432,766.501L171.432,766.079C174.619,757.712 179.869,751.126 188.87,748.665C190.038,748.345 191.229,748.126 192.432,748.009C196.28,747.118 200.3,747.271 204.069,748.442C207.843,749.618 211.237,751.771 213.901,754.689C219.538,761.044 223.558,768.666 225.62,776.908L225.62,777.048C227.57,782.716 228.62,788.657 228.738,794.65C229.159,815.627 217.066,834.752 193.652,830.181L193.65,830.18ZM773.8,571.01C772.206,597.213 753.948,638.979 713.355,638.815C684.855,637.432 697.839,597.143 703.98,581.674C710.613,565.268 709.722,548.557 713.8,531.869C716.472,520.924 725.12,512.088 737.238,513.494C762.152,516.377 775.09,549.588 773.8,571.01L773.8,571.01Z" style="fill:white;fill-rule:nonzero;"/>
        </g>
    </g>
</svg>
