<?xml version="1.0" encoding="UTF-8" standalone="no"?>
<!DOCTYPE svg PUBLIC "-//W3C//DTD SVG 1.1//EN" "http://www.w3.org/Graphics/SVG/1.1/DTD/svg11.dtd">
<svg width="100%" height="100%" viewBox="0 0 512 456" version="1.1" xmlns="http://www.w3.org/2000/svg" xmlns:xlink="http://www.w3.org/1999/xlink" xml:space="preserve" xmlns:serif="http://www.serif.com/" style="fill-rule:evenodd;clip-rule:evenodd;stroke-linejoin:round;stroke-miterlimit:2;">
    <g transform="matrix(1,0,0,1,-45.1838,-106.422)">
        <g transform="matrix(0.461444,0,0,0.461444,24.334,57.3141)">
            <path d="M1053.4,939.84C1049.76,936.137 1044.79,934.055 1039.6,934.055C1034.4,934.055 1029.43,936.137 1025.79,939.84L927.681,1039.24C924.501,1042.46 923.568,1047.27 925.318,1051.44C927.064,1055.61 931.15,1058.32 935.673,1058.32L987.47,1058.32L987.47,1084.31C987.532,1089.39 991.642,1093.5 996.728,1093.57L1082.49,1093.57C1084.94,1093.57 1087.29,1092.59 1089.03,1090.85C1090.76,1089.12 1091.73,1086.76 1091.72,1084.31L1091.72,1058.32L1143.52,1058.32C1148.04,1058.32 1152.13,1055.61 1153.87,1051.44C1155.62,1047.27 1154.69,1042.46 1151.51,1039.24L1053.4,939.84Z" style="fill:white;fill-rule:nonzero;"/>
            <path d="M1053.4,683.25C1049.76,679.547 1044.79,677.465 1039.6,677.465C1034.4,677.465 1029.43,679.547 1025.79,683.25L927.681,782.648C924.501,785.867 923.568,790.679 925.318,794.851C927.064,799.023 931.15,801.734 935.673,801.726L987.47,801.726L987.47,827.718C987.532,832.804 991.642,836.913 996.728,836.976L1082.49,836.976C1084.94,836.976 1087.29,835.999 1089.03,834.261C1090.76,832.527 1091.73,830.171 1091.72,827.718L1091.72,801.726L1143.52,801.726C1148.04,801.734 1152.13,799.023 1153.87,794.851C1155.62,790.679 1154.69,785.867 1151.51,782.648L1053.4,683.25Z" style="fill:white;fill-rule:nonzero;"/>
            <path d="M131.25,551.55C150.633,569.316 168.047,586.378 183.68,602.644C257.125,678.683 307.25,774.164 328.13,877.804C331.704,896.577 336.974,914.992 343.88,932.812C351.521,951.886 364.806,968.167 381.962,979.48C399.114,990.789 419.314,996.585 439.857,996.093C496.857,994.874 537.287,991.757 565.037,988.499C584.396,986.155 615.896,988.851 636.521,991.101C652.693,992.866 668.912,993.999 685.177,994.499L751.2,996.609C771.388,996.609 790.751,988.593 805.028,974.324C819.309,960.051 827.337,940.695 827.348,920.508C827.348,918.797 827.348,917.109 827.184,915.422C824.629,876.375 790.95,846.61 751.809,846.61L650.019,846.61C633.074,846.578 616.273,843.524 600.402,837.586C583.379,833.43 566.918,827.246 551.371,819.164C545.426,816.141 540.801,811.043 538.367,804.836C535.933,798.625 535.867,791.738 538.176,785.484C540.953,778.426 546.613,772.886 553.735,770.269C560.852,767.648 568.751,768.195 575.442,771.773C587.922,778.324 601.184,783.265 614.911,786.468C619.465,787.585 624.215,785.628 626.669,781.632C629.118,777.636 628.704,772.511 625.645,768.96L620.301,762.749C608.262,748.788 600.516,731.647 597.989,713.39L580.294,585.44C579.283,578.124 577.767,570.889 575.747,563.784L549.614,471.557C540.154,438.155 539.79,402.834 548.564,369.247C557.337,335.657 574.927,305.024 599.513,280.517L733.853,146.547C738.31,142.153 740.821,136.156 740.833,129.899C740.845,123.642 738.353,117.637 733.911,113.227C729.47,108.817 723.446,106.368 717.188,106.423L348.888,106.423C334.931,106.36 321.911,113.434 314.365,125.173C306.322,137.739 297.099,149.509 286.826,160.329C269.365,188.454 238.638,244.282 223.287,310.539C221.635,317.742 217.045,323.93 210.635,327.605C204.221,331.281 196.565,332.113 189.514,329.898C176.037,325.773 168.561,311.148 171.772,297.507C177.401,273.734 184.741,250.402 193.733,227.687C195.425,223.394 194.612,218.519 191.62,215.007C188.628,211.495 183.944,209.917 179.436,210.905C136.053,220.022 76.756,247.467 53.176,327.785C14.059,460.795 131.246,551.545 131.246,551.545L131.25,551.55Z" style="fill:white;fill-rule:nonzero;"/>
        </g>
    </g>
</svg>
