<?xml version="1.0" encoding="UTF-8" standalone="no"?>
<!DOCTYPE svg PUBLIC "-//W3C//DTD SVG 1.1//EN" "http://www.w3.org/Graphics/SVG/1.1/DTD/svg11.dtd">
<svg width="100%" height="100%" viewBox="0 0 512 484" version="1.1" xmlns="http://www.w3.org/2000/svg" xmlns:xlink="http://www.w3.org/1999/xlink" xml:space="preserve" xmlns:serif="http://www.serif.com/" style="fill-rule:evenodd;clip-rule:evenodd;stroke-linejoin:round;stroke-miterlimit:2;">
    <g transform="matrix(1,0,0,1,-7.88766,-42.083)">
        <g transform="matrix(0.432498,0,0,0.432498,4.47627,23.8822)">
            <path d="M773.33,48.332C761.662,40 746.662,40 734.998,48.332C626.668,121.664 524.998,213.332 431.668,310.002C405,286.67 365,288.334 340,315.002C318.332,340.002 321.668,380.002 343.332,403.334C211.672,556.674 100.002,718.334 13.332,856.674C-8.336,890.006 40,925.006 65,895.006C201.67,733.336 323.33,608.336 428.33,510.006C433.33,506.674 439.998,506.674 443.33,510.006L1021.66,1126.68C1056.66,1165.01 1116.66,1171.68 1156.66,1138.34C1201.66,1100.01 1203.33,1033.34 1161.66,993.344L550,420.004C545,415.004 545,408.336 550,403.336C701.67,278.336 810,218.336 871.67,191.666C895.002,181.666 901.67,148.334 881.67,133.334L773.33,48.332Z" style="fill:white;fill-rule:nonzero;"/>
        </g>
    </g>
</svg>
