<?xml version="1.0" encoding="UTF-8" standalone="no"?>
<!DOCTYPE svg PUBLIC "-//W3C//DTD SVG 1.1//EN" "http://www.w3.org/Graphics/SVG/1.1/DTD/svg11.dtd">
<svg width="100%" height="100%" viewBox="0 0 512 502" version="1.1" xmlns="http://www.w3.org/2000/svg" xmlns:xlink="http://www.w3.org/1999/xlink" xml:space="preserve" xmlns:serif="http://www.serif.com/" style="fill-rule:evenodd;clip-rule:evenodd;stroke-linejoin:round;stroke-miterlimit:2;">
    <g transform="matrix(1,0,0,1,-67.6203,-78.1277)">
        <g transform="matrix(0.480765,0,0,0.480765,35.1108,40.5667)">
            <path d="M90.07,1112.7C93.453,1116.78 98.027,1119.71 103.156,1121.06C108.281,1122.42 113.703,1122.14 118.664,1120.27C166.828,1101.99 302.064,1041.5 422.274,951.52L478.126,1026.03C480.528,1029.22 484.091,1031.33 488.044,1031.9C491.997,1032.47 496.013,1031.46 499.22,1029.08L537.142,1000.74C540.329,998.333 542.435,994.77 543.005,990.817C543.576,986.868 542.564,982.853 540.189,979.645L378.029,762.965C375.619,759.786 372.056,757.68 368.107,757.11C364.158,756.54 360.146,757.551 356.935,759.918L319.13,788.207C315.95,790.618 313.845,794.18 313.274,798.129C312.704,802.079 313.716,806.09 316.083,809.301L368.489,879.309C310.106,922.176 205.479,992.769 83.439,1047.19C76.908,1049.92 71.791,1055.22 69.287,1061.85C66.783,1068.47 67.111,1075.83 70.197,1082.2C75.654,1093.08 82.322,1103.31 90.072,1112.7L90.07,1112.7Z" style="fill:white;fill-rule:nonzero;"/>
            <path d="M1123.7,81.75C1123.26,79.859 1121.7,78.438 1119.77,78.172C1117.85,77.906 1115.97,78.855 1115.03,80.555C1081.39,144.305 898.188,468.075 481.728,804.025C476.048,808.587 475.009,816.834 479.384,822.658L516.884,872.275C521.322,878.185 529.7,879.4 535.634,874.994C652.824,787.994 964.544,537.684 1114.14,234.474C1127.03,209.095 1133.34,180.892 1132.52,152.443C1131.59,128.673 1128.64,105.025 1123.71,81.755L1123.7,81.75Z" style="fill:white;fill-rule:nonzero;"/>
        </g>
    </g>
</svg>
