<?xml version="1.0" encoding="UTF-8"?>
<svg width="512pt" height="512pt" version="1.1" viewBox="0 0 512 512" xmlns="http://www.w3.org/2000/svg">
 <g fill="#fff">
  <path d="m332.29 147.46c-1.0234-1.0234-2.0469-1.5352-3.5859-1.5352-1.5352 0-2.5586 0.51172-3.5859 1.5352l-7.168 7.168c-2.0469 2.0469-2.0469 5.1211 0 7.168l4.6094 4.6094-21.504 21.504-12.285 1.5352-1.0234 12.289-21.508 21.5-12.289 1.0234-1.0234 12.289-224.77 224.77c-3.0703 3.0703-3.0703 8.1914 0 11.266l11.266 11.266c3.0703 3.0703 8.1914 3.0703 11.266 0l224.26-224.26 0.51172 0.51172 12.289-1.5352 2.0469-12.289-0.51562-0.51172 20.992-20.992 0.51172 0.51172 12.289-1.5352 2.0469-12.289-0.51172-0.51172 20.992-20.992 4.6094 4.6094c1.0234 1.0234 2.0469 1.5352 3.5859 1.5352 1.5352 0 2.5586-0.51172 3.5859-1.5352l7.168-7.168c2.0469-2.0469 2.0469-5.1211 0-7.168z"/>
  <path d="m441.86 42.496-68.094 68.098s-6.1445 6.1445-7.168 14.848c-0.51172 5.1211-4.6094 9.2148-9.2148 9.7266-1.5352 0-3.0703 0.51172-5.1211 1.0234-3.5859 1.0234-6.6562 2.5586-9.2148 5.6328l-2.0469 2.0469 27.648 27.648 2.0469-2.0469c2.5586-2.5586 4.6094-5.6328 5.6328-9.2148 0.51172-2.0469 1.0234-3.5859 1.0234-5.6328 0.51172-4.6094 4.0977-8.1914 9.2148-8.7031 9.2148-1.0234 15.359-7.168 15.359-7.168l68.098-68.098c9.2109-11.777 16.379-45.055 16.379-45.055s-33.277 7.168-44.543 16.895zm-58.367 88.062-2.5586-2.5586 77.824-77.312 2.5586 2.5586z"/>
 </g>
</svg>
