<?xml version="1.0" encoding="UTF-8" standalone="no"?>
<!DOCTYPE svg PUBLIC "-//W3C//DTD SVG 1.1//EN" "http://www.w3.org/Graphics/SVG/1.1/DTD/svg11.dtd">
<svg width="100%" height="100%" viewBox="0 0 512 512" version="1.1" xmlns="http://www.w3.org/2000/svg" xmlns:xlink="http://www.w3.org/1999/xlink" xml:space="preserve" xmlns:serif="http://www.serif.com/" style="fill-rule:evenodd;clip-rule:evenodd;stroke-linejoin:round;stroke-miterlimit:2;">
    <g transform="matrix(1,0,0,1,-71.7464,-71.758)">
        <g transform="matrix(0.484588,0,0,0.484588,36.9789,36.9849)">
            <path d="M319.92,838.31C316.572,834.966 312.033,833.087 307.299,833.087C302.565,833.087 298.026,834.966 294.678,838.31L77.598,1055.39C73.852,1059.14 71.746,1064.22 71.746,1069.52C71.746,1074.82 73.852,1079.91 77.598,1083.66L116.364,1122.42C120.114,1126.17 125.196,1128.27 130.497,1128.27C135.798,1128.27 140.88,1126.17 144.63,1122.42L361.71,905.342C365.054,901.994 366.933,897.455 366.933,892.721C366.933,887.987 365.054,883.448 361.71,880.1L357.89,876.28L733.27,500.86C738.192,495.938 738.305,487.993 733.528,482.93C730.871,480.149 728.168,477.367 725.418,474.586C722.653,471.844 719.863,469.125 717.074,466.477C712.012,461.699 704.066,461.812 699.144,466.734L323.744,842.134L319.92,838.31Z" style="fill:white;fill-rule:nonzero;"/>
            <path d="M793.62,128.18C769.69,109.125 748.831,90.352 735.331,77.742C731.007,73.703 725.249,71.555 719.339,71.773C713.425,71.996 707.843,74.566 703.831,78.914L534.211,262.504C530.309,266.73 528.195,272.301 528.309,278.047C528.422,283.797 530.754,289.281 534.82,293.348L593.414,351.942C595.95,354.481 599.418,355.864 603.004,355.766C606.594,355.668 609.981,354.098 612.375,351.426L795.185,147.356C797.654,144.665 798.888,141.067 798.592,137.427C798.295,133.786 796.49,130.438 793.615,128.184L793.62,128.18Z" style="fill:white;fill-rule:nonzero;"/>
            <path d="M848.25,606.63L906.844,665.224C910.91,669.29 916.395,671.622 922.145,671.736C927.891,671.849 933.461,669.736 937.688,665.833L1121.16,496.213C1125.51,492.202 1128.08,486.62 1128.3,480.705C1128.52,474.795 1126.37,469.037 1122.33,464.713C1109.72,451.213 1090.95,430.354 1071.89,406.424C1069.65,403.604 1066.34,401.831 1062.75,401.522C1059.16,401.217 1055.6,402.405 1052.91,404.807L848.837,587.617C846.142,590.004 844.548,593.395 844.435,596.996C844.326,600.594 845.705,604.078 848.252,606.625L848.25,606.63Z" style="fill:white;fill-rule:nonzero;"/>
            <path d="M663.47,370.85C708.798,403.522 753.329,446.67 753.329,446.67C753.329,446.67 796.477,491.201 829.149,536.529C830.309,538.185 832.13,539.26 834.137,539.478C836.149,539.697 838.157,539.041 839.649,537.677L999.399,393.327C1001.01,391.882 1001.87,389.773 1001.72,387.613C1001.58,385.452 1000.44,383.48 998.649,382.265C969.211,362.109 930.985,333.468 898.758,301.242C866.531,269.015 837.82,230.789 817.735,201.351C816.52,199.558 814.548,198.421 812.387,198.277C810.227,198.128 808.118,198.988 806.673,200.601L662.323,360.351C660.959,361.843 660.303,363.851 660.522,365.863C660.74,367.87 661.815,369.691 663.471,370.851L663.47,370.85Z" style="fill:white;fill-rule:nonzero;"/>
            <path d="M918.21,281.79C918.21,281.79 931.898,296.392 943.991,302.884C946.569,304.314 949.78,303.864 951.866,301.782L962.6,291.071C965.069,288.614 966.456,285.275 966.456,281.79C966.456,278.306 965.069,274.966 962.6,272.509L945.069,254.954L927.514,237.423C925.057,234.954 921.717,233.567 918.233,233.567C914.749,233.567 911.409,234.954 908.952,237.423L898.241,248.157C896.159,250.243 895.709,253.454 897.139,256.032C903.608,268.102 918.209,281.79 918.209,281.79L918.21,281.79Z" style="fill:white;fill-rule:nonzero;"/>
        </g>
    </g>
</svg>
