<?xml version="1.0" encoding="UTF-8" standalone="no"?>
<!DOCTYPE svg PUBLIC "-//W3C//DTD SVG 1.1//EN" "http://www.w3.org/Graphics/SVG/1.1/DTD/svg11.dtd">
<svg width="100%" height="100%" viewBox="0 0 512 512" version="1.1" xmlns="http://www.w3.org/2000/svg" xmlns:xlink="http://www.w3.org/1999/xlink" xml:space="preserve" xmlns:serif="http://www.serif.com/" style="fill-rule:evenodd;clip-rule:evenodd;stroke-linejoin:round;stroke-miterlimit:2;">
    <g transform="matrix(1,0,0,1,-69.5801,-69.5894)">
        <g transform="matrix(0.482625,0,0,0.482625,35.999,36.0038)">
            <path d="M126.02,1129.4C156.559,1133.76 187.368,1123.49 209.176,1101.67L251.528,1059.35C267.169,1044.04 277.43,1024.09 280.778,1002.46C283.731,981.403 293.466,961.88 308.505,946.845L591.415,663.975C624.614,630.729 662.587,602.623 704.075,580.584C734.122,564.346 765.278,550.248 797.309,538.396C819.289,530.49 839.235,517.802 855.715,501.248L993.085,363.878C999.628,357.359 1003.31,348.503 1003.31,339.269C1003.31,330.035 999.628,321.179 993.085,314.66L885.275,206.85C878.755,200.307 869.9,196.627 860.666,196.627C851.432,196.627 842.576,200.307 836.057,206.85L698.107,344.8C681.611,361.445 669.005,381.534 661.193,403.628C649.365,435.429 635.349,466.37 619.24,496.23C597.24,537.585 569.197,575.433 536.037,608.52L254.597,889.93C239.292,905.563 219.335,915.821 197.714,919.157C176.698,922.13 157.214,931.841 142.191,946.837L98.293,990.782C76.477,1012.59 66.203,1043.4 70.566,1073.94C72.57,1087.93 79.058,1100.9 89.058,1110.9C99.054,1120.9 112.023,1127.39 126.019,1129.39L126.02,1129.4Z" style="fill:white;fill-rule:nonzero;"/>
            <path d="M675.63,257.81C681.31,261.447 688.064,263.029 694.771,262.302C701.474,261.572 707.732,258.572 712.498,253.802L781.568,184.732C787.228,179.096 790.002,171.177 789.088,163.24C788.173,155.307 783.673,148.224 776.881,144.021C719.435,108.724 580.001,38.321 441.72,85.169C416.189,93.97 392.236,106.814 370.775,123.208C344.174,143.317 296.244,180.325 253.395,217.474C216.34,249.63 165.481,262.005 118.345,248.341C114.08,247.122 109.799,245.677 105.501,244.005C100.064,241.861 93.974,242.115 88.735,244.705C83.497,247.294 79.599,251.982 78.001,257.603C76.404,263.224 77.259,269.259 80.353,274.216C91.208,292.068 105.283,307.747 121.861,320.458C142.474,336.087 156.58,358.782 161.47,384.185L239.212,766.405C241.048,774.881 247.236,781.757 255.47,784.475C263.708,787.193 272.771,785.353 279.29,779.635C285.814,773.92 288.829,765.178 287.212,756.655L202.837,342.395C227.497,339.071 250.474,328.02 268.462,310.825C323.095,259.286 484.882,134.995 675.622,257.809L675.63,257.81Z" style="fill:white;fill-rule:nonzero;"/>
            <path d="M1076.8,829.29C1093.2,807.833 1106.04,783.88 1114.84,758.345C1161.71,620.065 1091.4,480.565 1055.99,423.185C1051.78,416.392 1044.7,411.892 1036.77,410.978C1028.83,410.064 1020.91,412.837 1015.28,418.498L946.206,487.498C941.425,492.294 938.436,498.584 937.729,505.318C937.026,512.052 938.655,518.826 942.339,524.506C1065.01,715.196 940.722,876.986 889.23,931.456C872.035,949.444 860.984,972.421 857.66,997.081L443.4,912.706C434.814,910.956 425.943,913.92 420.134,920.483C414.325,927.041 412.458,936.206 415.235,944.518C418.013,952.826 425.017,959.026 433.602,960.776L815.632,1038.52C841.101,1043.37 863.866,1057.48 879.546,1078.13C892.249,1094.72 907.929,1108.81 925.788,1119.66C942.522,1130.18 963.288,1113.35 956.257,1094.93C954.781,1091.16 953.492,1087.38 952.343,1083.63C938.241,1035.97 949.558,984.415 982.32,947.044C1019.54,904.106 1056.62,855.989 1076.8,829.294L1076.8,829.29Z" style="fill:white;fill-rule:nonzero;"/>
        </g>
    </g>
</svg>
