<?xml version="1.0" encoding="UTF-8" standalone="no"?>
<!DOCTYPE svg PUBLIC "-//W3C//DTD SVG 1.1//EN" "http://www.w3.org/Graphics/SVG/1.1/DTD/svg11.dtd">
<svg width="100%" height="100%" viewBox="0 0 512 429" version="1.1" xmlns="http://www.w3.org/2000/svg" xmlns:xlink="http://www.w3.org/1999/xlink" xml:space="preserve" xmlns:serif="http://www.serif.com/" style="fill-rule:evenodd;clip-rule:evenodd;stroke-linejoin:round;stroke-miterlimit:2;">
    <g transform="matrix(1,0,0,1,-69.9157,-156.358)">
        <g transform="matrix(0.482944,0,0,0.482944,36.1503,80.8456)">
            <path d="M1042.4,733.45C1043.71,735.024 1045.67,735.907 1047.71,735.848C1049.76,735.79 1051.66,734.794 1052.88,733.145L1083.13,691.918C1086.01,688.02 1085.66,682.621 1082.31,679.121C1078.96,675.625 1073.58,675.039 1069.56,677.739L1026.39,706.427C1024.64,707.602 1023.55,709.54 1023.46,711.645C1023.36,713.755 1024.26,715.782 1025.9,717.114C1031.87,722.059 1037.4,727.528 1042.4,733.45L1042.4,733.45Z" style="fill:white;fill-rule:nonzero;"/>
            <path d="M843.98,733.45C848.953,727.505 854.441,722.016 860.386,717.044C862.023,715.712 862.929,713.685 862.831,711.575C862.734,709.47 861.644,707.532 859.894,706.356L816.722,677.668C812.702,675 807.347,675.602 804.015,679.09C800.683,682.579 800.327,687.954 803.175,691.848L833.409,733.075C834.608,734.767 836.53,735.802 838.6,735.876C840.675,735.95 842.663,735.052 843.979,733.45L843.98,733.45Z" style="fill:white;fill-rule:nonzero;"/>
            <path d="M1069.6,949.22C1073.62,951.919 1079,951.333 1082.35,947.837C1085.7,944.337 1086.04,938.939 1083.17,935.04L1055.63,897.657C1054.4,895.981 1052.45,894.981 1050.37,894.95C1048.3,894.919 1046.32,895.856 1045.04,897.493C1040.57,903.153 1035.63,908.431 1030.27,913.266C1028.75,914.633 1027.94,916.633 1028.09,918.676C1028.23,920.719 1029.32,922.583 1031.02,923.719L1069.6,949.22Z" style="fill:white;fill-rule:nonzero;"/>
            <path d="M816.82,949.22L855.468,923.673C857.171,922.536 858.257,920.673 858.402,918.63C858.55,916.587 857.741,914.587 856.218,913.22C850.851,908.392 845.902,903.115 841.429,897.447C840.144,895.81 838.171,894.873 836.093,894.904C834.011,894.935 832.07,895.935 830.835,897.611L803.319,935.111C800.612,939.001 801.019,944.263 804.296,947.689C807.573,951.114 812.811,951.755 816.819,949.22L816.82,949.22Z" style="fill:white;fill-rule:nonzero;"/>
            <path d="M186.84,1023.5L379.68,830.75C385.215,825.242 388.504,817.875 388.911,810.082C389.317,802.285 386.813,794.617 381.883,788.562L943.633,225.172C953.817,214.984 957.789,200.141 954.059,186.231C950.329,172.321 939.461,161.454 925.547,157.731C911.633,154.004 896.793,157.985 886.609,168.172L324.789,731.682C318.731,726.76 311.062,724.264 303.266,724.674C295.473,725.084 288.11,728.377 282.602,733.909L89.972,926.659C72.671,943.964 65.917,969.182 72.253,992.815C78.589,1016.45 97.054,1034.9 120.687,1041.24C144.324,1047.57 169.539,1040.81 186.839,1023.5L186.84,1023.5Z" style="fill:white;fill-rule:nonzero;"/>
            <path d="M1117.1,798.87L1039.76,790.034C1031.82,761.616 1011.78,738.136 984.963,725.835C958.151,713.534 927.275,713.659 900.565,726.183C873.85,738.703 854.003,762.351 846.303,790.831L769.241,799.643C752.999,801.495 751.569,824.534 767.46,828.377L847.64,847.807C857.777,879.108 882.581,903.467 914.062,913.034L928.874,996.495C931.733,1012.6 954.819,1012.6 957.679,996.495L972.491,913.034C1004.22,903.343 1029.13,878.624 1039.05,846.964L1118.95,827.605C1134.77,823.761 1133.34,800.722 1117.1,798.871L1117.1,798.87Z" style="fill:white;fill-rule:nonzero;"/>
            <path d="M943.22,372.8C949.388,372.792 955.302,370.339 959.661,365.976C964.02,361.613 966.47,355.695 966.47,349.527L966.47,322.457C966.669,316.16 964.309,310.051 959.923,305.523C955.54,300.999 949.509,298.445 943.208,298.445C936.907,298.445 930.876,300.999 926.493,305.523C922.106,310.05 919.747,316.16 919.946,322.457L919.946,349.527C919.946,355.699 922.399,361.621 926.762,365.984C931.126,370.347 937.047,372.8 943.219,372.8L943.22,372.8Z" style="fill:white;fill-rule:nonzero;"/>
            <path d="M919.95,641.51C919.751,647.807 922.11,653.916 926.497,658.444C930.88,662.967 936.911,665.522 943.212,665.522C949.513,665.522 955.544,662.967 959.927,658.444C964.314,653.917 966.673,647.807 966.474,641.51L966.474,440.49C966.216,432.353 961.728,424.947 954.634,420.951C947.544,416.955 938.88,416.955 931.79,420.951C924.696,424.947 920.208,432.353 919.95,440.49L919.95,641.51Z" style="fill:white;fill-rule:nonzero;"/>
        </g>
    </g>
</svg>
