<?xml version="1.0" encoding="UTF-8" standalone="no"?>
<svg
   height="512"
   width="512"
   version="1.1"
   id="svg774"
   sodipodi:docname="whip.svg"
   xmlns:inkscape="http://www.inkscape.org/namespaces/inkscape"
   xmlns:sodipodi="http://sodipodi.sourceforge.net/DTD/sodipodi-0.dtd"
   xmlns="http://www.w3.org/2000/svg"
   xmlns:svg="http://www.w3.org/2000/svg">
  <defs
     id="defs778" />
  <sodipodi:namedview
     id="namedview776"
     pagecolor="#505050"
     bordercolor="#ffffff"
     borderopacity="1"
     inkscape:showpageshadow="0"
     inkscape:pageopacity="0"
     inkscape:pagecheckerboard="1"
     inkscape:deskcolor="#505050"
     showgrid="false" />
  <g
     id="g772"
     transform="matrix(4.7761194,0,0,4.7761194,-28.770247,-38.324947)">
    <path
       d="m 98.5,70.35 q 0.9,0.05 1.7,0.4 0.7,0.35 1.3,0.95 0.55,0.55 1,1.3 0.35,0.7 0.6,1.5 0.2,0.75 0.25,1.55 0.05,0.75 -0.05,1.4 -0.1,0.65 -0.4,1.1 -0.25,0.45 -0.65,0.65 l 7.6,33.75 -10.95,2.3 -7.4,-34.45 q -0.5,0.05 -1,-0.2 -0.45,-0.25 -0.85,-0.8 -0.4,-0.5 -0.65,-1.15 -0.25,-0.7 -0.35,-1.5 -0.1,-0.8 0,-1.55 0.15,-0.85 0.5,-1.6 0.4,-0.8 1.05,-1.4 0.65,-0.65 1.6,-1.1 -0.05,-0.2 -0.25,-0.7 -0.25,-0.65 -0.4,-1.05 -0.25,-0.8 -0.45,-1.7 -0.25,-1.2 -0.35,-2.65 -0.15,-1.7 -0.2,-3.8 0,-2.35 0.15,-5.2 0.2,-3.15 0.6,-6.85 0.5,-4.1 1.2,-8.8 0.9,-5.4 -0.1,-10 -0.95,-4.3 -3.4,-7.6 -2.35,-3.15 -5.85,-5.1 -3.35,-1.9 -7.3,-2.5 -3.95,-0.6 -7.95,0.15 -4.1,0.75 -7.7,2.9 -3.75,2.25 -6.5,5.75 -2.95,3.75 -4.5,8.65 -0.7,2.3 -0.6,4.95 0.05,2.4 0.85,5.2 0.7,2.45 1.95,5.45 0.95,2.25 2.6,5.55 5.8,11.75 2.85,5.7 1.65,3.3 2.65,5.75 1.35,3.15 2.05,5.8 0.9,3.1 1.05,5.85 -0.1,8.95 -3.15,15.25 -2.8,5.7 -7.8,8.8 -4.7,2.85 -10.6,3.1 -5.65,0.2 -11.4,-2 Q 23.5,100.15 18.95,95.95 14.2,91.5 11.7,85.75 9.05,79.45 9.45,72.4 9.9,64.65 14.1,56.65 q 0.05,-0.35 0,-0.75 0,-0.35 -0.15,-0.9 -0.3,-1.55 -0.2,-1.05 -0.1,-0.65 -0.2,-1.2 -0.05,-0.75 -0.1,-1.5 0,-0.9 0.1,-1.85 0.1,-1.05 0.3,-2.2 0.25,-1.25 0.65,-2.6 0.25,-0.45 1,-0.6 0.65,-0.05 1.6,0.15 0.95,0.2 2.05,0.7 1.05,0.45 2.2,1.05 1.05,0.6 2.05,1.3 1,0.65 1.7,1.35 0.75,0.65 1.05,1.2 0.35,0.6 0.2,1 -0.5,1.2 -1.25,2.15 -0.65,0.85 -1.45,1.55 -0.75,0.6 -1.6,1.1 -0.7,0.35 -1.55,0.7 -0.65,0.2 -1.45,0.4 -0.05,0.05 -1.15,0.3 -0.55,0.15 -0.8,0.2 -0.3,0.15 -0.3,0.3 -3.55,6.9 -3.95,13.65 -0.35,6.1 1.85,11.65 2.1,5.1 6.05,9.1 3.8,3.8 8.6,5.95 4.75,2.1 9.4,2.1 4.9,0 8.65,-2.35 4.05,-2.5 6.2,-7.4 2.35,-5.35 2.1,-13.05 -0.55,-2.7 -1.75,-5.95 -1,-2.65 -2.55,-6.1 -0.85,-1.9 -2.95,-6.2 -1.9,-4 -2.9,-6.15 Q 44,49.3 43.1,46.6 41.95,43.35 41.45,40.65 40.9,37.55 41.1,34.9 q 0.2,-2.9 1.3,-5.4 3,-6.95 7.55,-11.85 4.15,-4.5 9.4,-6.95 4.85,-2.3 10.25,-2.65 5.15,-0.3 10.15,1.15 4.95,1.45 9.1,4.45 4.15,3.05 6.95,7.2 2.9,4.3 3.9,9.35 1.05,5.4 -0.2,11.1 -0.6,3.45 -1,6.7 -0.4,3 -0.6,5.85 -0.2,2.5 -0.25,4.9 -0.05,2.1 0,4.05 0.05,1.7 0.15,3.2 0.1,1.25 0.25,2.3 0.15,0.85 0.25,1.45 0.1,0.5 0.2,0.6"
       fill="#ffffff"
       fill-rule="evenodd"
       stroke="none"
       id="path770" />
  </g>
</svg>
