<?xml version="1.0" encoding="UTF-8" standalone="no"?>
<!DOCTYPE svg PUBLIC "-//W3C//DTD SVG 1.1//EN" "http://www.w3.org/Graphics/SVG/1.1/DTD/svg11.dtd">
<svg width="100%" height="100%" viewBox="0 0 512 512" version="1.1" xmlns="http://www.w3.org/2000/svg" xmlns:xlink="http://www.w3.org/1999/xlink" xml:space="preserve" xmlns:serif="http://www.serif.com/" style="fill-rule:evenodd;clip-rule:evenodd;stroke-linejoin:round;stroke-miterlimit:2;">
    <g transform="matrix(1,0,0,1,-68.5586,-68.6437)">
        <g transform="matrix(0.481735,0,0,0.481735,35.5315,35.5756)">
            <path d="M473.09,490.59L508.785,495.84C513.422,496.524 518.152,495.723 522.301,493.543C526.453,491.367 529.801,487.926 531.871,483.723C603.426,337.213 829.531,125.783 880.291,79.333C882.19,77.61 882.819,74.888 881.869,72.509C880.92,70.126 878.588,68.587 876.026,68.645C842.346,69.606 795.237,94.637 795.237,94.637C707.51,141.887 561.077,268.077 521.537,302.757C515.24,308.273 511.79,316.355 512.162,324.718C515.701,406.14 485.865,452.378 466.74,473.428C464.173,476.284 463.404,480.323 464.736,483.924C466.068,487.522 469.286,490.088 473.091,490.585L473.09,490.59Z" style="fill:white;fill-rule:nonzero;"/>
            <path d="M954.7,297.09C973.122,266.832 991.684,236.152 1006.26,212.059C1009.44,206.825 1008.63,200.094 1004.3,195.762C999.969,191.43 993.239,190.621 988.004,193.801C963.934,208.309 933.231,226.871 902.973,245.363C815.903,298.84 738.603,366.793 674.413,446.293C639.983,488.598 606.725,536.035 597.843,570.303C595.503,579.295 598.093,588.858 604.652,595.444C611.21,602.026 620.761,604.651 629.765,602.343C664.031,593.46 711.468,560.155 753.775,525.773C833.287,461.546 901.235,384.203 954.705,297.093L954.7,297.09Z" style="fill:white;fill-rule:nonzero;"/>
            <path d="M1120.7,319.71C1074.25,370.499 862.89,596.58 716.31,668.13C712.107,670.2 708.666,673.548 706.49,677.7C704.31,681.849 703.509,686.579 704.193,691.216L709.443,726.911C709.978,730.697 712.556,733.88 716.146,735.185C719.74,736.489 723.759,735.704 726.599,733.146C747.693,714.021 793.888,684.185 875.309,687.724C883.653,688.126 891.731,684.72 897.27,678.466C931.911,638.927 1058.15,492.486 1105.39,404.766C1105.39,404.766 1130.42,357.657 1131.38,323.977C1131.44,321.414 1129.9,319.082 1127.52,318.133C1125.14,317.184 1122.42,317.813 1120.69,319.711L1120.7,319.71Z" style="fill:white;fill-rule:nonzero;"/>
            <path d="M564.66,635.34C500.371,571.074 447.78,535.988 417.99,518.93C411.607,515.289 403.963,514.594 397.029,517.028C390.095,519.461 384.556,524.778 381.849,531.61C378.169,540.774 374.044,550.102 369.568,559.524C367.259,564.36 366.881,569.891 368.506,574.997C370.127,580.106 373.634,584.399 378.31,587.017C427.208,614.525 472.181,648.486 512.02,687.987C551.512,727.792 585.473,772.725 612.99,821.577C615.607,826.253 619.9,829.76 625.01,831.381C630.116,833.006 635.647,832.628 640.483,830.319C649.858,825.842 659.233,821.717 668.397,818.038C675.229,815.331 680.545,809.792 682.979,802.858C685.413,795.924 684.718,788.28 681.077,781.897C664.015,752.342 628.929,699.631 564.667,635.347L564.66,635.34Z" style="fill:white;fill-rule:nonzero;"/>
            <path d="M290.34,1131.3C296.84,1131.87 303.262,1129.55 307.895,1124.95L342.372,1090.47C343.243,1089.54 343.97,1088.48 344.528,1087.33C346.196,1083.94 346.329,1080 344.891,1076.51C343.458,1073.02 340.595,1070.31 337.028,1069.07C307.801,1058.92 266.505,1035.84 215.338,984.698C164.174,933.557 141.088,892.237 130.963,863.008C129.725,859.442 127.018,856.579 123.526,855.145C120.033,853.708 116.092,853.84 112.706,855.508C111.557,856.067 110.499,856.793 109.565,857.664L74.995,892.117C70.397,896.75 68.073,903.172 68.643,909.672C74.69,982.328 145.987,1054 145.987,1054C145.987,1054 217.776,1125.25 290.337,1131.3L290.34,1131.3Z" style="fill:white;fill-rule:nonzero;"/>
            <path d="M372.3,1014.8C378.066,1007.69 384.57,1001.21 391.706,995.464C414.886,976.526 484.565,921.026 561.536,873.754C568.431,869.469 573.376,862.652 575.306,854.77C577.24,846.883 576.005,838.555 571.872,831.567C547.251,789.774 517.54,751.2 483.419,716.727C448.954,682.582 410.376,652.852 368.579,628.227C361.591,624.09 353.259,622.856 345.372,624.793C337.482,626.731 330.669,631.684 326.392,638.586C279.095,715.602 223.552,785.306 204.512,808.486C198.751,815.525 192.262,821.935 185.153,827.611C183.068,829.299 180.982,830.846 178.943,832.299C175.15,835.018 172.388,838.943 171.111,843.436C169.833,847.924 170.114,852.717 171.911,857.026C181.286,880.042 201.325,913.557 243.841,956.049C286.357,998.541 319.872,1018.67 342.794,1028.1C347.103,1029.9 351.896,1030.18 356.388,1028.9C360.881,1027.63 364.802,1024.86 367.521,1021.07C369.068,1018.98 370.615,1016.89 372.302,1014.81L372.3,1014.8Z" style="fill:white;fill-rule:nonzero;"/>
        </g>
    </g>
</svg>
