<?xml version="1.0" encoding="UTF-8" standalone="no"?>
<svg
   height="512"
   width="512"
   version="1.1"
   id="svg1359"
   sodipodi:docname="armor_light.svg"
   xmlns:inkscape="http://www.inkscape.org/namespaces/inkscape"
   xmlns:sodipodi="http://sodipodi.sourceforge.net/DTD/sodipodi-0.dtd"
   xmlns="http://www.w3.org/2000/svg"
   xmlns:svg="http://www.w3.org/2000/svg">
  <defs
     id="defs1363" />
  <sodipodi:namedview
     id="namedview1361"
     pagecolor="#505050"
     bordercolor="#ffffff"
     borderopacity="1"
     inkscape:showpageshadow="0"
     inkscape:pageopacity="0"
     inkscape:pagecheckerboard="1"
     inkscape:deskcolor="#505050"
     showgrid="false" />
  <g
     transform="matrix(4.3349556,0,0,4.3349556,-13.309117,-34.414898)"
     id="g1357">
    <path
       d="m 61.7,81.85 q 2.25,2 5.3,3.2 10.5,4.15 29.7,-1.1 -18.75,-0.55 -30.8,-7.7 l -3.6,-28.8 -5.2,29 q -12,6.95 -30.5,7.5 18.4,5.05 28.9,1.4 3.55,-1.25 6.2,-3.5 M 91.2,18.1 q 18.2,5.75 27.8,19.8 L 113.2,78 q -7.65,5.45 -8.75,18.85 -1.1,13.4 -6.55,21.65 l -2.55,3.6 q -33.25,7.9 -66.4,0 L 26.4,118.5 Q 20.95,110.3 19.85,96.95 18.75,83.5 11.15,78.05 L 5.25,37.95 Q 14.95,23.9 33.2,18.1 q 0.85,-20.3 12.55,0 v 7.5 q 0,4.8 4,8.3 4,3.5 9.6,3.5 h 5.6 q 5.6,0 9.65,-3.5 4.05,-3.5 4.05,-8.3 V 18.05 Q 90.3,-2.2 91.2,18.1"
       fill="#ffffff"
       fill-rule="evenodd"
       stroke="none"
       id="path1355" />
  </g>
</svg>
