<?xml version="1.0" encoding="UTF-8" standalone="no"?>
<svg
   height="512"
   width="512"
   version="1.1"
   id="svg1486"
   sodipodi:docname="axe_two_handed.svg"
   xmlns:inkscape="http://www.inkscape.org/namespaces/inkscape"
   xmlns:sodipodi="http://sodipodi.sourceforge.net/DTD/sodipodi-0.dtd"
   xmlns="http://www.w3.org/2000/svg"
   xmlns:svg="http://www.w3.org/2000/svg">
  <defs
     id="defs1490" />
  <sodipodi:namedview
     id="namedview1488"
     pagecolor="#505050"
     bordercolor="#ffffff"
     borderopacity="1"
     inkscape:showpageshadow="0"
     inkscape:pageopacity="0"
     inkscape:pagecheckerboard="1"
     inkscape:deskcolor="#505050"
     showgrid="false" />
  <g
     transform="matrix(0.55916562,0,0,0.55916562,83.203844,-0.89466454)"
     id="g1484">
    <path
       d="m 562.35,336 11.95,27.55 q -17.75,-2.9 -34.7,-4.6 -125.3,-11.05 -225.75,58.5 l 410.2,410.4 13.55,-13.35 29.25,29.25 -73.5,73.5 L 664.1,888 676.85,875.05 266.65,464.65 q -69.8,100.7 -58.7,226 1.65,17.1 4.4,34.65 l -27.4,-11.9 Q -2.4,628.6 -95.1,478.65 -127.9,425.4 -148.8,364.2 q 96.7,19.4 175.45,-7.5 45.75,-15.5 85.4,-46.6 L 70.3,268.35 80.75,258.1 l -16.9,-44.05 44.25,16.5 9.4,-9.4 41.8,41.75 q 30.9,-39.5 46.35,-85.2 26.95,-78.75 7.5,-175.25 61.2,20.7 114.45,53.45 150,92.75 234.75,280.1 M 136.5,388.65 q -0.2,21.7 15.45,37.35 15.45,15.45 37.6,15.7 22.15,-0.25 38,-16.1 l -75.15,-75 q -15.9,15.9 -15.9,38.05 M 274.8,378.4 q 15.65,-15.65 15.65,-37.8 0,-21.95 -15.45,-37.4 -15.7,-15.65 -37.6,-15.65 -22.15,0.2 -37.8,15.85 l 75.2,75"
       fill="#ffffff"
       fill-rule="evenodd"
       stroke="none"
       id="path1482" />
  </g>
</svg>
