<?xml version="1.0" encoding="UTF-8" standalone="no"?>
<svg
   height="512"
   width="512"
   version="1.1"
   id="svg1613"
   sodipodi:docname="bow.svg"
   xmlns:inkscape="http://www.inkscape.org/namespaces/inkscape"
   xmlns:sodipodi="http://sodipodi.sourceforge.net/DTD/sodipodi-0.dtd"
   xmlns="http://www.w3.org/2000/svg"
   xmlns:svg="http://www.w3.org/2000/svg">
  <defs
     id="defs1617" />
  <sodipodi:namedview
     id="namedview1615"
     pagecolor="#505050"
     bordercolor="#ffffff"
     borderopacity="1"
     inkscape:showpageshadow="0"
     inkscape:pageopacity="0"
     inkscape:pagecheckerboard="1"
     inkscape:deskcolor="#505050"
     showgrid="false" />
  <g
     transform="matrix(0.63043501,0,0,0.63043501,55.929858,-22.850571)"
     id="g1611">
    <path
       d="M 520.25,298.65 Q 482.45,279.2 461.55,239.75 431.85,177.5 387.2,140.2 315.2,79.65 203.55,83.2 124.7,85.35 54.1,107.9 18.7,118.85 -13.6,135 l -5.95,3.1 641.2,641.15 q 1.7,-3.05 3.1,-7.1 3.55,-6.65 6.4,-13.3 42.3,-93.35 45.65,-202.4 5.45,-181.3 -156.55,-257.8 m 132.8,462.55 -0.75,1.45 q 2.85,1.4 5.95,3.55 l 0.25,0.25 q 9.5,8.05 10.45,25.4 0.7,17.35 -6.9,33.5 -8.55,16.4 -20.9,21.85 -12.35,5.95 -22.1,-2.85 -9,-7.6 -10.7,-24.95 0.5,-1.4 -0.2,-2.85 0.45,-8.55 2.6,-16.6 l 1.65,-2.6 q -0.25,-0.95 0,-1.2 L -36.65,147.1 q -0.95,0.5 -2.1,1.45 -10,2.35 -21.15,2.35 -17.1,-1.2 -25.2,-10.9 -8.3,-9.05 -2.6,-21.65 5.7,-12.1 21.85,-20.9 15.9,-7.85 33.5,-6.9 17.55,1.2 25.4,10.45 2.4,3.35 4.05,6.45 17.35,-10.7 36.85,-19.75 99.3,-48.95 217.35,-52.5 111.65,-3.3 183.65,57.05 50.6,42.5 81.95,116.6 10.7,23.8 34.2,34.25 179.15,74.8 173.45,265.35 -4.05,138.95 -71.5,252.75"
       fill="#ffffff"
       fill-rule="evenodd"
       stroke="none"
       id="path1609" />
  </g>
</svg>
