<?xml version="1.0" encoding="UTF-8" standalone="no"?>
<svg
   height="512"
   width="512"
   version="1.1"
   id="svg393"
   sodipodi:docname="default_potion.svg"
   xmlns:inkscape="http://www.inkscape.org/namespaces/inkscape"
   xmlns:sodipodi="http://sodipodi.sourceforge.net/DTD/sodipodi-0.dtd"
   xmlns="http://www.w3.org/2000/svg"
   xmlns:svg="http://www.w3.org/2000/svg">
  <defs
     id="defs397" />
  <sodipodi:namedview
     id="namedview395"
     pagecolor="#505050"
     bordercolor="#ffffff"
     borderopacity="1"
     inkscape:showpageshadow="0"
     inkscape:pageopacity="0"
     inkscape:pagecheckerboard="1"
     inkscape:deskcolor="#505050"
     showgrid="false" />
  <g
     transform="matrix(0.64999365,0,0,0.64999365,39.730863,-21.644788)"
     id="g391">
    <path
       d="m 422,84.85 q 10.65,0 19.3,9.65 9.45,10.85 9.45,24.25 0,13.2 -9.45,22.8 -7.5,8.5 -14.6,10.8 -1.4,7.35 -7.25,12.05 0,2.55 -2.15,3.75 -3.7,3.5 -10.05,3.5 h -2.4 V 323.4 l 18.35,5 q 54.15,19.5 98.8,63.7 78.1,78.3 78.1,189.4 0,110.8 -78.1,188.6 -31.55,31.6 -68.95,50.9 H 212.15 Q 174.75,801.7 143.5,770.1 65.35,692.3 65.35,581.5 q 0,-111.1 78.15,-189.4 45.6,-45.85 104.65,-64.9 3.8,-1.45 8.75,-2.65 v -152.9 h -1.45 q -8.2,0 -14.1,-7.25 -3.8,-4.7 -4.95,-12.05 -10.6,-1.15 -18.15,-10.8 -8.4,-9.6 -8.4,-22.8 0,-13.4 8.4,-24.25 8.45,-9.65 20.25,-9.65 h 26.85 V 67.95 Q 265.35,33.3 299,33.3 h 62.8 q 33.4,0 33.4,34.65 v 16.9 H 422"
       fill="#ffffff"
       fill-rule="evenodd"
       stroke="none"
       id="path389" />
  </g>
</svg>
