<?xml version="1.0" encoding="UTF-8" standalone="no"?>
<svg
   height="512"
   width="512"
   version="1.1"
   id="svg520"
   sodipodi:docname="destruction_frost.svg"
   xmlns:inkscape="http://www.inkscape.org/namespaces/inkscape"
   xmlns:sodipodi="http://sodipodi.sourceforge.net/DTD/sodipodi-0.dtd"
   xmlns="http://www.w3.org/2000/svg"
   xmlns:svg="http://www.w3.org/2000/svg">
  <defs
     id="defs524" />
  <sodipodi:namedview
     id="namedview522"
     pagecolor="#505050"
     bordercolor="#ffffff"
     borderopacity="1"
     inkscape:showpageshadow="0"
     inkscape:pageopacity="0"
     inkscape:pagecheckerboard="1"
     inkscape:deskcolor="#505050"
     showgrid="false" />
  <g
     transform="matrix(3.7619398,0,0,3.7619398,82.607006,69.78398)"
     id="g518">
    <path
       d="m 34.25,-6.65 q 0,-4.6 3.6,-8.2 3.45,-3.7 7.95,-3.7 5.15,0 8.75,3.7 3.6,3.6 3.6,8.2 0,4.95 -3.85,9.15 -2.5,2 -3.7,2.15 v 32.7 L 55.15,29.6 54.7,28.65 54.3,27.8 q -1.2,-2.4 0.65,-4.9 2.6,-4.55 8,-2.1 1.9,1 2.55,3.6 0.55,2.4 -0.4,4.35 -1.1,2.3 -4.1,3 H 59.65 58.6 L 53.7,40.2 82.85,23.3 82.8,21.35 q -0.2,-0.9 0.05,-2.05 0.7,-5.3 5.8,-8.15 4.2,-2.25 8.9,-1.1 4.9,1.15 7.45,5.2 2.15,4.6 1.05,9.45 -1.15,4.9 -5.6,7.05 -2.55,1.3 -4.95,1.75 -2.3,0.6 -4.9,-0.45 L 88.65,32 86.75,30.6 58.2,47.3 h 10.1 q 0,-0.95 0.75,-1.9 1.9,-1.85 4.6,-1.85 5.65,0 5.65,5.85 0,5.85 -5.65,5.85 -3.25,0 -4.6,-1.75 -0.75,-1.3 -0.75,-2.15 h -9.75 l 28.8,16.85 q 1,-0.75 2,-1.05 L 91.4,66.3 q 5.15,-1.65 9.6,0.85 4,2.5 5.35,7.2 1.35,4.75 -1.35,9.15 -2.55,4.55 -7.45,5.9 -4.7,1.35 -8.9,-1.3 -5.1,-2.95 -5.8,-8.9 Q 82.6,78.3 82.8,77.35 L 82.85,75.5 53.7,58.55 l 5.3,9.1 0.65,-0.1 1.35,0.1 q 2.9,1 4.1,2.7 2.15,5 -2.15,8 -5,2.75 -8,-1.85 -2.15,-2.7 -0.65,-5.35 0.4,-1.05 1.4,-1.5 l -5.1,-8.3 v 33.1 q 2.35,1.1 3.7,2.35 3.85,3.45 3.85,9 0,4.6 -3.6,8.2 -3.6,3.55 -8.75,3.55 -4.5,0 -7.95,-3.55 -3.6,-3.6 -3.6,-8.2 0,-5.75 4.05,-9.45 l 1.85,-1.1 1.85,-0.8 V 60.6 l -5.15,9.05 q -0.15,0.15 0.5,0.55 l 0.3,0.95 q 1.05,2.75 -0.55,5.35 -2.45,4.6 -7.4,1.85 -5.35,-3 -2.15,-8 1.35,-2.2 3.45,-2.7 1.55,-0.45 2.4,0 L 38.5,58.7 8.65,75.5 q 0.7,1.3 0.4,3.7 -1.1,6.7 -5.65,8.9 -4.1,2.15 -8.9,1.15 -4.8,-1 -7.25,-5.75 -1.95,-3.9 -0.75,-8.35 1.15,-4.55 5.1,-6.95 4.75,-2.75 9.4,-1.05 L 3.5,68.2 33.95,51.35 H 24 l -0.1,0.55 -0.7,1.6 q -0.75,1.75 -4.2,1.75 -6.25,0 -6.25,-5.85 0,-5.85 6.25,-5.85 2.85,0 3.95,1.85 L 24,47.3 H 34.25 L 3.95,30.6 q 0,0.2 -2.15,1.15 -4.4,2.15 -10.2,0 -4.2,-2.15 -5.7,-7.05 -1.5,-4.8 1.35,-9.1 2.55,-4.3 7.15,-5.1 4.55,-0.85 8.45,1.4 4.15,2.4 5.4,7.8 l 0.05,1.7 -0.05,1.9 30,16.6 -4.85,-8.15 h -1.9 q -2.55,0 -3.95,-3 Q 26,26.8 26.6,24.4 q 0.4,-2.6 2.5,-3.6 5.8,-2.25 8,2.1 1.4,2.45 0.55,4.9 l -0.3,0.85 Q 36.7,29.1 36.85,29.6 L 42,38.55 V 4.65 Q 41.2,4.6 38.3,2.95 34.25,-1.5 34.25,-6.65"
       fill="#38ffff"
       fill-rule="evenodd"
       stroke="none"
       id="path516" />
  </g>
</svg>
