<?xml version="1.0" encoding="UTF-8" standalone="no"?>
<svg
   height="512"
   width="512"
   version="1.1"
   id="svg6"
   sodipodi:docname="poison_default.svg"
   xmlns:inkscape="http://www.inkscape.org/namespaces/inkscape"
   xmlns:sodipodi="http://sodipodi.sourceforge.net/DTD/sodipodi-0.dtd"
   xmlns="http://www.w3.org/2000/svg"
   xmlns:svg="http://www.w3.org/2000/svg">
  <defs
     id="defs10" />
  <sodipodi:namedview
     id="namedview8"
     pagecolor="#505050"
     bordercolor="#ffffff"
     borderopacity="1"
     inkscape:showpageshadow="0"
     inkscape:pageopacity="0"
     inkscape:pagecheckerboard="1"
     inkscape:deskcolor="#505050"
     showgrid="false" />
  <g
     transform="matrix(12.337349,0,0,12.337349,256.02804,255.38313)"
     id="g4">
    <path
       d="m 6.2,-16.8 q 0.8,0 1.35,0.6 0.6,0.6 0.6,1.4 0,0.75 -0.6,1.3 l -1.05,0.65 -0.4,0.7 -0.25,0.2 -0.7,0.2 H 5 v 3.25 h 0.15 l 0.95,0.35 0.4,0.9 q 0,0.7 -0.4,1.05 -0.4,0.45 -0.95,0.45 H 5 v 2 l 4.5,3.5 Q 14.45,4 14.6,6 v 7.75 q 0,7.05 -6.7,7.05 H -7.95 q -4.95,0 -6.2,-3.9 -0.45,-1.35 -0.45,-3.15 V 6 q -0.05,-0.6 0.45,-1.4 1.05,-1.85 4.55,-4.85 l 4.4,-3.5 v -2 h -0.05 q -0.6,0 -1,-0.45 -0.35,-0.35 -0.35,-1.05 l 0.35,-0.9 q 0.4,-0.35 1,-0.35 h 0.05 v -3.25 h -0.05 q -0.6,0 -1,-0.4 l -0.35,-0.7 q -0.7,-0.05 -1.25,-0.65 -0.6,-0.55 -0.6,-1.3 0,-0.8 0.6,-1.4 0.6,-0.6 1.4,-0.6 h 1.85 v -1.25 q 0,-2.65 2.35,-2.65 h 4.3 q 2.3,0 2.3,2.65 v 1.25 H 6.2 M 4.75,9.55 q 0.5,0.6 0.5,1.3 Q 5.25,12.5 4.4,13 4,13.35 3.35,13.35 2.65,13.35 2.25,13 1.5,12.55 1.5,11.1 1.5,9 3.4,9 4.3,9 4.75,9.55 M 5.6,2.6 Q 3.4,0.8 0,0.8 q -3.35,0 -5.7,1.8 -2.1,1.85 -2.1,4.85 0,2.55 0.7,3.7 L -6.2,13 q -0.15,2.3 1.3,2.65 1.35,0.4 2.15,1.05 l 0.25,1.4 h 5 L 2.75,16.7 Q 3.45,16 4.8,15.65 6.3,14.9 6.2,13.1 V 13 L 6.35,12.45 Q 7.8,9.85 7.8,7.45 7.8,4.55 5.6,2.6 M 0.2,15.2 q -0.3,-0.2 -0.45,0 -2.25,1.35 0.1,-2.05 0.15,-0.15 0.25,0 2.35,3.4 0.1,2.05 M -3.25,9 q 1.85,0 1.85,1.85 0,1.65 -0.8,2.15 -0.45,0.35 -1.05,0.35 L -4.35,13 Q -5.1,12.55 -5.1,11.1 -5.1,10.15 -4.7,9.55 -4.2,9 -3.25,9"
       fill="#be7dff"
       fill-rule="evenodd"
       stroke="none"
       id="path2" />
  </g>
</svg>
