<?xml version="1.0" encoding="UTF-8" standalone="no"?>
<svg
   height="512"
   width="512"
   version="1.1"
   id="svg393"
   sodipodi:docname="potion_stamina.svg"
   xmlns:inkscape="http://www.inkscape.org/namespaces/inkscape"
   xmlns:sodipodi="http://sodipodi.sourceforge.net/DTD/sodipodi-0.dtd"
   xmlns="http://www.w3.org/2000/svg"
   xmlns:svg="http://www.w3.org/2000/svg">
  <defs
     id="defs397" />
  <sodipodi:namedview
     id="namedview395"
     pagecolor="#505050"
     bordercolor="#ffffff"
     borderopacity="1"
     inkscape:showpageshadow="0"
     inkscape:pageopacity="0"
     inkscape:pagecheckerboard="1"
     inkscape:deskcolor="#505050"
     showgrid="false" />
  <g
     transform="matrix(12.337349,0,0,12.337349,255.69157,256.61687)"
     id="g391">
    <path
       d="m 6.75,-16.3 q 0.55,0.65 0.55,1.45 0,0.75 -0.55,1.3 -0.45,0.5 -0.95,0.6 L 5.45,-12.25 5.2,-12 4.6,-11.8 H 4.5 v 3.2 l 4,5 q 4.4,5.95 4.55,8.85 l 1.5,12.85 v 0.45 l -0.15,0.6 q -0.8,1.4 -5.7,1.55 H -8.7 q -4.85,-0.15 -5.65,-1.55 l -0.15,-0.6 V 18.1 L -13,5.25 Q -13.1,2.5 -8.55,-3.6 l 3.9,-5 v -3.2 H -4.7 q -0.5,0 -0.85,-0.45 l -0.3,-0.7 Q -6.5,-13 -7,-13.55 l -0.4,-0.7 -0.1,-0.6 0.1,-0.7 0.4,-0.75 q 0.55,-0.55 1.25,-0.55 h 1.7 v -1.25 q 0,-2.7 2.05,-2.7 h 3.85 q 2.05,0 2.05,2.7 v 1.25 h 1.65 q 0.7,0 1.2,0.55 M 8.85,6.05 1.55,0.4 V 4.65 L 6,7.8 1.55,11 v 4.2 l 7.3,-5.65 v -3.5 m -8.7,0 L -7.2,0.4 V 4.65 L -2.75,7.8 -7.2,11 v 4.2 L 0.15,9.55 v -3.5"
       fill="#51db2e"
       fill-rule="evenodd"
       stroke="none"
       id="path389" />
  </g>
</svg>
