<?xml version="1.0" encoding="UTF-8" standalone="no"?>
<svg
   height="512"
   width="512"
   version="1.1"
   id="svg139"
   sodipodi:docname="potion_health.svg"
   xmlns:inkscape="http://www.inkscape.org/namespaces/inkscape"
   xmlns:sodipodi="http://sodipodi.sourceforge.net/DTD/sodipodi-0.dtd"
   xmlns="http://www.w3.org/2000/svg"
   xmlns:svg="http://www.w3.org/2000/svg">
  <defs
     id="defs143" />
  <sodipodi:namedview
     id="namedview141"
     pagecolor="#505050"
     bordercolor="#ffffff"
     borderopacity="1"
     inkscape:showpageshadow="0"
     inkscape:pageopacity="0"
     inkscape:pagecheckerboard="1"
     inkscape:deskcolor="#505050"
     showgrid="false" />
  <g
     transform="matrix(12.352232,0,0,12.352232,256,256.30881)"
     id="g137">
    <path
       d="m 6.9,4.75 h -5 v -5 h -4.2 v 5 h -4.95 v 4.2 H -2.3 V 13.9 H 1.9 V 8.95 h 5 v -4.2 m -5.35,-25.5 q 1.9,0 1.9,2 v 1 h 1.5 q 0.65,0 1.15,0.55 0.55,0.6 0.55,1.4 0,0.75 -0.55,1.3 -0.45,0.45 -0.85,0.65 l -0.4,0.65 -0.15,0.25 -0.45,0.2 v 4.5 l 1.1,0.3 q 3.25,1.1 5.9,3.75 4.65,4.5 4.65,10.95 0,6.45 -4.65,11 -1.9,1.85 -4.1,2.95 h -14.3 q -2.25,-1.1 -4.1,-2.95 -4.65,-4.55 -4.65,-11 0,-6.45 4.65,-10.95 2.7,-2.7 6.2,-3.8 l 0.55,-0.15 v -4.6 h -0.05 q -0.5,0 -0.85,-0.45 l -0.25,-0.65 q -0.65,-0.1 -1.1,-0.65 -0.45,-0.55 -0.45,-1.3 0,-0.8 0.45,-1.4 0.55,-0.55 1.2,-0.55 H -4 v -1 q 0,-2 1.9,-2 h 3.65"
       fill="#db2e73"
       fill-rule="evenodd"
       stroke="none"
       id="path135" />
  </g>
</svg>
