<?xml version="1.0" encoding="UTF-8" standalone="no"?>
<svg
   height="512"
   width="512"
   version="1.1"
   id="svg266"
   sodipodi:docname="potion_magicka.svg"
   xmlns:inkscape="http://www.inkscape.org/namespaces/inkscape"
   xmlns:sodipodi="http://sodipodi.sourceforge.net/DTD/sodipodi-0.dtd"
   xmlns="http://www.w3.org/2000/svg"
   xmlns:svg="http://www.w3.org/2000/svg">
  <defs
     id="defs270" />
  <sodipodi:namedview
     id="namedview268"
     pagecolor="#505050"
     bordercolor="#ffffff"
     borderopacity="1"
     inkscape:showpageshadow="0"
     inkscape:pageopacity="0"
     inkscape:pagecheckerboard="1"
     inkscape:deskcolor="#505050"
     showgrid="false" />
  <g
     transform="matrix(0.59317616,0,0,0.59317616,47.267972,-14.859064)"
     id="g264">
    <path
       d="m 186.5,558.65 v 64.55 q 91.95,-76.05 181.5,-8.7 81.55,62.2 160.75,8.7 V 558.65 Q 449.55,612.1 368,550.3 278.45,482.2 186.5,558.65 m 0,145.4 V 769 q 91.95,-76.85 181.5,-9.15 81.55,62.6 160.75,9.15 V 704.05 Q 449.55,757.5 368,695.3 278.45,627.55 186.5,704.05 M 656.35,580.8 v 160.85 q 0,90.3 -53.5,125.2 -32.9,21.35 -86.35,21.35 H 185.75 q -138.3,0 -138.3,-146.55 V 580.8 Q 45.9,540.05 151.3,451.7 188.9,417.6 243.15,378 v -42 h -1.2 q -12.25,0 -21,-9.15 -7.1,-6.7 -7.1,-21.75 0,-10.3 7.1,-19.05 8.75,-7.1 21,-7.1 h 1.2 V 211.6 h -1.2 q -12.25,0 -21,-8.7 -5.5,-5.55 -7.1,-14.7 -14.65,-1.15 -26.15,-13 -11.9,-11.5 -11.9,-27.35 0,-16.65 11.9,-29.3 13.1,-11.9 29.3,-11.9 h 39.25 V 80.1 q 0,-55.05 47.9,-55.05 h 91.1 q 48,0 48,55.05 v 26.55 h 38 q 15.85,0 27.7,11.9 13.1,12.65 13.1,29.3 0,15.85 -13.1,27.35 -10.3,10.25 -22.2,13 -1.1,9.15 -8.3,14.7 -1.55,2.8 -4.7,4.35 -5.6,4.35 -14.65,4.35 h -2.85 v 67.35 h 2.85 q 11.8,0 19.35,7.1 8.3,8.75 8.3,19.05 0,15.05 -8.3,21.75 Q 470.9,336 459.1,336 h -2.85 v 42 q 53.9,39.6 93.5,73.7 31.35,26.15 53.1,48.3 51.5,51.5 53.5,80.8"
       fill="#ffffff"
       fill-rule="evenodd"
       stroke="none"
       id="path262" />
  </g>
</svg>
