<?xml version="1.0" encoding="UTF-8" standalone="no"?>
<svg
   height="512"
   width="512"
   version="1.1"
   id="svg520"
   sodipodi:docname="torch.svg"
   xmlns:inkscape="http://www.inkscape.org/namespaces/inkscape"
   xmlns:sodipodi="http://sodipodi.sourceforge.net/DTD/sodipodi-0.dtd"
   xmlns="http://www.w3.org/2000/svg"
   xmlns:svg="http://www.w3.org/2000/svg">
  <defs
     id="defs524" />
  <sodipodi:namedview
     id="namedview522"
     pagecolor="#505050"
     bordercolor="#ffffff"
     borderopacity="1"
     inkscape:showpageshadow="0"
     inkscape:pageopacity="0"
     inkscape:pagecheckerboard="1"
     inkscape:deskcolor="#505050"
     showgrid="false" />
  <g
     transform="matrix(4.3613744,0,0,4.3613744,99.439339,0.9706932)"
     id="g518">
    <path
       d="m 22.1,22.3 0.35,0.4 1.05,1.15 q 2.75,3.7 2.8,8.45 l 0.1,1.1 -0.05,0.2 -0.45,2.85 -0.55,1.45 q -0.95,2.4 -3.25,4.6 l -1.6,1.6 q -2.2,2.3 -4.75,3.25 l -1.5,0.6 -2.7,0.4 H 11.3 L 10.25,48.4 Q 5.6,48.35 1.85,45.45 L 0.7,44.5 0.35,44.1 -1.6,42.2 Q -13.95,40.6 -14.85,28.95 L -18.5,25.3 q -4.2,-4.2 -4.3,-9.95 0,-5.9 4.15,-10.05 l 2,-2 q 4.1,-4.1 9.95,-4.05 5.85,0.1 10,4.25 9.05,1.5 10.05,10.05 l 8.75,8.75 m 4.3,24.15 q 2.6,-2.5 3.85,-5.15 l 7.05,7.45 2.05,-2.05 3.75,3.8 -2.05,2.05 51.4,53.7 q 2.05,2.05 2.05,4.85 0.45,2.7 -1.25,4.4 l -0.2,0.2 q -1.65,1.65 -4.65,1.45 -2.45,-0.2 -4.5,-2.3 L 30.4,63.2 l -2,2 -3.8,-3.75 1.95,-1.95 -7.45,-7.2 q 2.8,-1.25 5.35,-3.85 l 1.95,-2"
       fill="#ffffff"
       fill-rule="evenodd"
       stroke="none"
       id="path516" />
  </g>
</svg>
