<?xml version="1.0" encoding="UTF-8" standalone="no"?>
<!DOCTYPE svg PUBLIC "-//W3C//DTD SVG 1.1//EN" "http://www.w3.org/Graphics/SVG/1.1/DTD/svg11.dtd">
<svg width="100%" height="100%" viewBox="0 0 128 101" version="1.1" xmlns="http://www.w3.org/2000/svg" xmlns:xlink="http://www.w3.org/1999/xlink" xml:space="preserve" xmlns:serif="http://www.serif.com/" style="fill-rule:evenodd;clip-rule:evenodd;stroke-linejoin:round;stroke-miterlimit:2;">
    <g transform="matrix(1,0,0,1,-2,-54.7409)">
        <g transform="matrix(0.121976,0,0,0.121976,-7.14816,31.8704)">
            <path d="M634.27,712.5L187.5,712.5C125.477,712.5 75,662.023 75,600C75,537.977 125.477,487.5 187.5,487.5L634.27,487.5L746.77,600L634.27,712.5ZM791.43,979.54L1091.43,679.54C1112.69,658.313 1124.39,630.04 1124.39,600.001C1124.39,569.962 1112.69,541.689 1091.43,520.462L791.43,220.462C770.203,199.2 741.969,187.501 711.891,187.501C681.852,187.501 653.579,199.2 632.352,220.462C611.094,241.689 599.391,269.962 599.391,300.001C599.391,330.04 611.09,358.313 632.352,379.54L852.812,600L632.382,820.46C611.12,841.687 599.421,869.96 599.421,899.999C599.421,930.038 611.12,958.311 632.382,979.538C653.609,1000.8 681.847,1012.5 711.882,1012.5C741.96,1012.5 770.194,1000.8 791.421,979.538L791.43,979.54Z" style="fill:white;fill-rule:nonzero;"/>
        </g>
    </g>
</svg>
