<?xml version="1.0" encoding="UTF-8" standalone="no"?>
<!DOCTYPE svg PUBLIC "-//W3C//DTD SVG 1.1//EN" "http://www.w3.org/Graphics/SVG/1.1/DTD/svg11.dtd">
<svg width="100%" height="100%" viewBox="0 0 101 128" version="1.1" xmlns="http://www.w3.org/2000/svg" xmlns:xlink="http://www.w3.org/1999/xlink" xml:space="preserve" xmlns:serif="http://www.serif.com/" style="fill-rule:evenodd;clip-rule:evenodd;stroke-linejoin:round;stroke-miterlimit:2;">
    <g transform="matrix(1,0,0,1,-56.5346,-2)">
        <g transform="matrix(0.121977,0,0,0.121977,33.6636,-7.14824)">
            <path d="M487.5,634.27L487.5,187.5C487.5,125.477 537.977,75 600,75C662.023,75 712.5,125.477 712.5,187.5L712.5,634.27L600,746.77L487.5,634.27ZM679.54,1091.43L979.54,791.43C1000.8,770.203 1012.5,741.969 1012.5,711.891C1012.5,681.852 1000.8,653.579 979.54,632.352C958.313,611.09 930.04,599.391 900.001,599.391C869.962,599.391 841.689,611.09 820.462,632.352L600.002,852.812L379.542,632.382C358.315,611.085 330.042,599.382 300.003,599.382C269.964,599.382 241.691,611.081 220.464,632.343C199.202,653.609 187.503,681.847 187.503,711.882C187.503,741.921 199.202,770.194 220.464,791.421L520.464,1091.42C541.691,1112.68 569.964,1124.38 600.003,1124.38C630.042,1124.38 658.315,1112.68 679.542,1091.42L679.54,1091.43Z" style="fill:white;fill-rule:nonzero;"/>
        </g>
    </g>
</svg>
