<?xml version="1.0" encoding="UTF-8" standalone="no"?>
<!DOCTYPE svg PUBLIC "-//W3C//DTD SVG 1.1//EN" "http://www.w3.org/Graphics/SVG/1.1/DTD/svg11.dtd">
<svg width="100%" height="100%" viewBox="0 0 101 128" version="1.1" xmlns="http://www.w3.org/2000/svg" xmlns:xlink="http://www.w3.org/1999/xlink" xml:space="preserve" xmlns:serif="http://www.serif.com/" style="fill-rule:evenodd;clip-rule:evenodd;stroke-linejoin:round;stroke-miterlimit:2;">
    <g transform="matrix(1,0,0,1,-54.7411,-2)">
        <g transform="matrix(0.121975,0,0,0.121975,31.8707,-7.22195)">
            <path d="M712.5,565.73L712.5,1012.5C712.5,1074.52 662.023,1125 600,1125C537.977,1125 487.5,1074.52 487.5,1012.5L487.5,565.73L600,453.23L712.5,565.73ZM979.54,567.64C1000.8,546.378 1012.5,518.14 1012.5,488.105C1012.5,458.066 1000.8,429.793 979.54,408.566L679.54,108.566C658.313,87.304 630.04,75.605 600.001,75.605C569.962,75.605 541.689,87.304 520.462,108.566L220.462,408.566C199.2,429.793 187.501,458.027 187.501,488.105C187.501,518.144 199.2,546.417 220.462,567.644C241.689,588.906 269.962,600.605 300.001,600.605C330.04,600.605 358.313,588.906 379.54,567.644L600,347.184L820.46,567.614C841.687,588.876 869.96,600.575 899.999,600.575C930.038,600.575 958.311,588.911 979.538,567.649L979.54,567.64Z" style="fill:white;fill-rule:nonzero;"/>
        </g>
    </g>
</svg>
