<?xml version="1.0" encoding="UTF-8" standalone="no"?>
<!DOCTYPE svg PUBLIC "-//W3C//DTD SVG 1.1//EN" "http://www.w3.org/Graphics/SVG/1.1/DTD/svg11.dtd">
<svg width="100%" height="100%" viewBox="0 0 512 512" version="1.1" xmlns="http://www.w3.org/2000/svg" xmlns:xlink="http://www.w3.org/1999/xlink" xml:space="preserve" xmlns:serif="http://www.serif.com/" style="fill-rule:evenodd;clip-rule:evenodd;stroke-linejoin:round;stroke-miterlimit:2;">
    <g transform="matrix(0.487902,0,0,0.487902,-36.8903,-36.743)">
        <path d="M1125,600C1125,662.023 1074.52,712.5 1012.5,712.5L565.73,712.5L453.23,600L565.73,487.5L1012.5,487.5C1074.52,487.5 1125,537.977 1125,600ZM567.64,979.54C588.902,958.313 600.601,930.04 600.601,900.001C600.601,869.962 588.902,841.689 567.64,820.462L347.18,600.002L567.61,379.542C588.872,358.315 600.571,330.042 600.571,300.003C600.571,269.964 588.872,241.691 567.61,220.464C546.383,199.202 518.145,187.503 488.11,187.503C458.071,187.503 429.798,199.202 408.571,220.464L108.571,520.464C87.309,541.691 75.61,569.964 75.61,600.003C75.61,630.042 87.309,658.315 108.571,679.542L408.571,979.542C429.798,1000.8 458.032,1012.5 488.11,1012.5C518.145,1012.5 546.383,1000.8 567.645,979.542L567.64,979.54Z" style="fill:white;fill-rule:nonzero;"/>
    </g>
</svg>
