<?xml version="1.0" encoding="UTF-8" standalone="no"?>
<!DOCTYPE svg PUBLIC "-//W3C//DTD SVG 1.1//EN" "http://www.w3.org/Graphics/SVG/1.1/DTD/svg11.dtd">
<svg width="100%" height="100%" viewBox="0 0 512 512" version="1.1" xmlns="http://www.w3.org/2000/svg" xmlns:xlink="http://www.w3.org/1999/xlink" xml:space="preserve" xmlns:serif="http://www.serif.com/" style="fill-rule:evenodd;clip-rule:evenodd;stroke-linejoin:round;stroke-miterlimit:2;">
    <g transform="matrix(0.4876,0,0,0.4876,-36.5851,-36.5327)">
        <path d="M747.41,599.81L654.898,692.435C648.671,698.662 643.609,705.634 638.398,712.537L561.71,712.537C556.499,705.639 551.437,698.701 545.249,692.475L452.737,599.85L545.026,507.674C551.288,501.447 556.389,494.436 561.6,487.537L638.514,487.537C643.764,494.435 648.826,501.412 655.053,507.639L747.41,599.81ZM525.07,375C525.07,344.961 513.406,316.688 492.183,295.461C470.921,274.16 442.644,262.422 412.57,262.422C382.57,262.422 354.332,274.121 333.07,295.348L108.07,520.008C86.769,541.27 75.031,569.547 75.031,599.621C75.031,629.695 86.73,657.933 107.918,679.121L332.878,904.381C354.14,925.682 382.417,937.42 412.526,937.42C442.526,937.42 470.725,925.756 491.987,904.568C513.249,883.341 524.987,855.068 525.026,824.994C525.026,794.955 513.362,766.682 492.139,745.455L346.639,599.765L492.029,454.565C513.334,433.303 525.072,405.065 525.072,374.991L525.07,375ZM1092.07,520.05L867.07,295.31C845.808,274.122 817.57,262.423 787.57,262.423C757.457,262.423 729.144,274.196 707.996,295.423C686.769,316.685 675.07,344.923 675.109,374.997C675.109,405.071 686.847,433.349 708.109,454.536L853.499,599.776L707.999,745.466C686.772,766.728 675.073,794.966 675.112,825.04C675.112,855.114 686.85,883.392 708.151,904.614C729.413,925.802 757.612,937.466 787.612,937.466C817.725,937.466 845.999,925.728 867.186,904.466L1092.15,679.206C1113.37,657.979 1125.07,629.745 1125.07,599.667C1125.07,569.554 1113.33,541.276 1092.07,520.054L1092.07,520.05Z" style="fill:white;fill-rule:nonzero;"/>
    </g>
</svg>
