<?xml version="1.0" encoding="UTF-8" standalone="no"?>
<!DOCTYPE svg PUBLIC "-//W3C//DTD SVG 1.1//EN" "http://www.w3.org/Graphics/SVG/1.1/DTD/svg11.dtd">
<svg width="100%" height="100%" viewBox="0 0 128 115" version="1.1" xmlns="http://www.w3.org/2000/svg" xmlns:xlink="http://www.w3.org/1999/xlink" xml:space="preserve" xmlns:serif="http://www.serif.com/" style="fill-rule:evenodd;clip-rule:evenodd;stroke-linejoin:round;stroke-miterlimit:2;">
    <g transform="matrix(1,0,0,1,-7.42462e-14,-28.5079)">
        <g transform="matrix(0.125077,0,0,0.125077,-11.0512,10.7307)">
            <path d="M1002.4,490.68L789.4,490.68L895.96,306.12L895.964,306.12C915.491,272.292 915.487,230.62 895.96,196.79C876.429,162.966 840.339,142.13 801.28,142.13C762.221,142.134 726.132,162.97 706.6,196.798L600.04,381.358L493.48,196.918C473.949,163.09 437.859,142.25 398.8,142.25C359.741,142.25 323.652,163.086 304.12,196.91C284.593,230.734 284.589,272.41 304.116,306.23L410.676,490.79L197.676,490.794C158.617,490.794 122.531,511.63 103,545.454C83.473,579.278 83.473,620.95 103,654.774C122.531,688.598 158.617,709.434 197.676,709.434L410.676,709.434L304.236,893.754C284.709,927.578 284.709,969.254 304.24,1003.07C323.771,1036.9 359.861,1057.73 398.92,1057.73C437.979,1057.73 474.068,1036.89 493.596,1003.07L600.036,818.626L706.596,1003.19C726.127,1037.01 762.217,1057.85 801.276,1057.85C840.335,1057.85 876.424,1037.02 895.956,1003.19C915.483,969.366 915.487,927.694 895.96,893.864L789.4,709.304L1002.4,709.304C1041.46,709.304 1077.55,688.468 1097.08,654.644C1116.6,620.82 1116.6,579.148 1097.08,545.324C1077.55,511.5 1041.46,490.664 1002.4,490.664L1002.4,490.68Z" style="fill:white;fill-rule:nonzero;"/>
        </g>
    </g>
</svg>
