<?xml version="1.0" encoding="UTF-8" standalone="no"?>
<svg xmlns:xlink="http://www.w3.org/1999/xlink" height="95.2px" width="93.55px" xmlns="http://www.w3.org/2000/svg">
  <g transform="matrix(1.0, 0.0, 0.0, 1.0, -12.55, -27.55)">
    <path d="M88.25 78.05 Q89.65 93.75 93.15 102.3 95.7 107.9 92.35 110.95 88.05 114.35 83.05 111.9 75.5 102.15 75.2 90.65 L51.5 120.95 Q47.55 123.85 43.4 122.1 39.25 120.4 40.1 113.25 L58.7 90.7 35.5 110.5 Q30.85 113.55 27.75 110.6 24.75 107.75 27.25 103.05 L47.3 85.75 23.05 98.25 Q16.9 98.8 15.2 94.75 13.6 90.35 16.9 88.05 L37.5 76.9 18.2 82.15 Q12.65 80.15 12.55 76.6 13.15 73.5 16.35 71.25 L31.7 66.4 34.5 65.15 Q41.4 55.8 53.0 49.75 54.1 48.9 59.25 47.05 L67.3 27.55 Q97.4 38.75 106.1 68.15 L88.25 78.05" fill="#ffffff" fill-rule="evenodd" stroke="none"/>
  </g>
</svg>
