<?xml version="1.0" encoding="UTF-8" standalone="no"?>
<svg xmlns:xlink="http://www.w3.org/1999/xlink" height="109.25px" width="98.8px" xmlns="http://www.w3.org/2000/svg">
  <g transform="matrix(1.0, 0.0, 0.0, 1.0, -0.5, -12.65)">
    <path d="M87.4 84.5 Q75.8 108.65 49.9 121.9 25.5 108.65 12.75 84.95 0.1 61.1 0.5 30.95 L49.9 12.65 99.3 31.25 Q99.3 60.5 87.4 84.5 M26.0 49.75 L49.9 40.9 73.8 49.9 Q73.8 64.0 68.0 75.6 62.45 87.25 49.9 93.75 38.1 87.25 31.9 75.85 25.75 64.3 26.0 49.75 M10.9 38.55 Q10.55 62.45 20.55 81.2 30.65 99.85 49.9 110.4 70.4 99.85 79.5 80.85 88.85 61.95 88.85 38.85 L49.9 24.2 10.9 38.55" fill="#ffffff" fill-rule="evenodd" stroke="none"/>
  </g>
</svg>
