<?xml version="1.0" encoding="UTF-8" standalone="no"?>
<svg xmlns:xlink="http://www.w3.org/1999/xlink" height="117.0px" width="107.1px" xmlns="http://www.w3.org/2000/svg">
  <g transform="matrix(1.0, 0.0, 0.0, 1.0, -5.45, 0.0)">
    <path d="M99.0 50.15 L99.3 60.6 104.8 60.6 Q105.55 60.6 106.25 60.8 106.9 61.0 107.55 61.35 108.2 61.7 108.75 62.2 109.35 62.75 109.8 63.35 110.3 64.0 110.7 64.75 111.05 65.55 111.35 66.4 111.6 67.25 111.75 68.15 111.9 69.1 111.9 70.05 L112.55 97.2 Q112.55 98.15 112.4 99.1 112.25 100.0 112.0 100.9 111.75 101.75 111.35 102.5 110.95 103.25 110.45 103.9 110.0 104.55 109.4 105.05 108.85 105.55 108.2 105.95 107.55 106.3 106.9 106.5 106.2 106.65 105.45 106.65 L96.05 106.65 Q95.25 107.8 94.3 108.9 93.35 109.95 92.25 110.9 91.2 111.85 90.05 112.7 88.85 113.5 87.6 114.15 86.35 114.85 85.0 115.4 83.65 115.9 82.2 116.25 80.8 116.65 79.3 116.8 77.8 117.0 76.3 117.0 L41.7 117.0 Q40.2 117.0 38.7 116.8 37.2 116.65 35.8 116.25 34.35 115.9 33.0 115.4 31.65 114.85 30.4 114.2 29.15 113.5 27.95 112.7 26.8 111.85 25.75 110.9 24.65 109.95 23.7 108.9 22.75 107.85 21.95 106.65 L12.55 106.65 Q11.8 106.65 11.1 106.45 10.45 106.3 9.8 105.9 9.15 105.55 8.6 105.05 8.0 104.55 7.55 103.9 7.05 103.25 6.65 102.5 6.25 101.75 6.0 100.9 5.75 100.0 5.6 99.1 5.45 98.15 5.45 97.2 L6.1 70.05 Q6.1 69.1 6.25 68.15 6.4 67.25 6.65 66.35 6.95 65.55 7.3 64.75 7.7 64.0 8.2 63.35 8.65 62.7 9.25 62.2 9.8 61.7 10.45 61.35 11.1 60.95 11.75 60.8 12.45 60.6 13.2 60.6 L18.7 60.6 19.0 50.15 Q20.15 50.85 21.35 51.5 22.55 52.2 23.8 52.8 25.05 53.45 26.35 54.0 27.65 54.6 29.05 55.1 30.4 55.65 31.8 56.15 33.25 56.65 34.7 57.05 36.2 57.5 37.7 57.9 39.2 58.25 40.75 58.6 L40.75 68.2 34.85 68.2 34.85 86.1 40.75 86.1 40.75 101.25 Q40.75 101.4 40.8 101.55 40.8 101.7 40.9 101.85 40.95 101.95 41.0 102.1 41.1 102.2 41.2 102.3 41.3 102.4 41.45 102.5 41.55 102.6 41.7 102.65 41.85 102.7 42.0 102.7 42.15 102.75 42.3 102.75 L45.35 102.75 Q45.5 102.75 45.65 102.7 45.8 102.7 45.95 102.65 46.1 102.55 46.2 102.5 46.3 102.4 46.45 102.3 46.55 102.2 46.6 102.1 46.7 101.95 46.75 101.8 46.8 101.7 46.85 101.55 46.85 101.4 46.85 101.25 L46.85 86.1 52.75 86.1 52.75 68.2 46.85 68.2 46.85 59.65 Q47.55 59.75 48.3 59.85 49.0 59.9 49.75 60.0 50.5 60.05 51.25 60.15 52.0 60.2 52.75 60.25 53.5 60.3 54.25 60.35 55.0 60.4 55.75 60.4 56.55 60.45 57.3 60.45 58.05 60.45 58.8 60.45 59.6 60.45 60.35 60.45 61.15 60.45 61.95 60.4 62.7 60.4 63.5 60.35 64.3 60.3 65.05 60.25 65.85 60.2 66.6 60.15 67.4 60.1 68.15 60.0 68.9 59.95 69.65 59.85 70.4 59.75 71.15 59.65 L71.15 68.2 65.25 68.2 65.25 86.1 71.15 86.1 71.15 101.25 Q71.15 101.4 71.15 101.55 71.2 101.7 71.25 101.85 71.3 101.95 71.4 102.1 71.5 102.2 71.6 102.3 71.7 102.4 71.8 102.5 71.95 102.6 72.05 102.65 72.2 102.7 72.35 102.7 72.5 102.75 72.65 102.75 L75.7 102.75 Q75.85 102.75 76.0 102.7 76.15 102.7 76.3 102.65 76.45 102.55 76.55 102.5 76.7 102.4 76.8 102.3 76.9 102.2 77.0 102.1 77.05 101.95 77.1 101.8 77.2 101.7 77.2 101.55 77.25 101.4 77.25 101.25 L77.25 86.1 83.15 86.1 83.15 68.2 77.25 68.2 77.25 58.6 Q78.8 58.25 80.3 57.9 81.85 57.5 83.3 57.05 84.75 56.65 86.2 56.15 87.6 55.65 88.95 55.1 90.35 54.6 91.65 54.0 92.95 53.4 94.2 52.8 95.45 52.15 96.65 51.5 97.85 50.85 99.0 50.15 L99.0 50.15 M48.45 72.5 L39.2 72.5 39.2 81.8 48.45 81.8 48.45 72.5 48.45 72.5 M69.55 72.5 L78.8 72.5 78.8 81.8 69.55 81.8 69.55 72.5 69.55 72.5 M19.2 45.25 L19.85 24.05 Q19.85 21.6 20.35 19.2 20.8 16.9 21.75 14.7 22.65 12.55 23.95 10.6 25.25 8.7 26.9 7.05 28.55 5.4 30.45 4.1 32.4 2.8 34.55 1.9 36.75 0.95 39.05 0.5 41.45 0.0 43.9 0.0 L74.1 0.0 Q76.55 0.0 78.95 0.5 81.25 0.95 83.45 1.9 85.6 2.8 87.55 4.1 89.45 5.4 91.1 7.05 92.75 8.7 94.05 10.6 95.35 12.55 96.25 14.7 97.2 16.9 97.65 19.2 98.15 21.6 98.15 24.05 L98.8 45.05 Q97.0 46.3 95.0 47.45 93.05 48.6 90.85 49.6 88.65 50.6 86.25 51.45 83.85 52.35 81.35 53.05 78.8 53.8 76.1 54.35 73.4 54.9 70.6 55.3 67.8 55.7 64.9 55.9 61.95 56.1 59.0 56.1 56.0 56.1 53.1 55.9 50.2 55.7 47.35 55.35 44.55 55.0 41.85 54.45 39.2 53.9 36.65 53.2 34.1 52.5 31.75 51.65 29.35 50.8 27.15 49.8 24.95 48.8 22.95 47.65 20.95 46.5 19.2 45.25 L19.2 45.25" fill="#ffffff" fill-rule="evenodd" stroke="none"/>
  </g>
</svg>
