<?xml version="1.0" encoding="UTF-8" standalone="no"?>
<svg xmlns:xlink="http://www.w3.org/1999/xlink" height="966.35px" width="597.25px" xmlns="http://www.w3.org/2000/svg">
  <g transform="matrix(1.0, 0.0, 0.0, 1.0, -227.4, 41.05)">
    <path d="M819.8 -41.05 L751.9 17.15 Q952.15 688.25 601.2 925.3 579.55 923.95 585.45 909.3 758.7 719.4 732.45 418.7 696.5 7.75 397.6 4.9 376.3 47.2 492.8 88.85 416.4 195.75 410.5 333.9 412.45 410.55 498.05 444.1 579.55 459.8 612.8 397.65 630.15 324.0 595.95 320.75 597.05 328.15 597.05 336.55 597.05 372.25 576.45 397.0 556.35 422.6 527.65 422.6 498.75 422.6 478.55 397.0 458.45 372.25 458.45 336.55 458.45 300.85 478.55 275.45 488.2 263.35 499.85 257.45 529.2 239.3 568.15 245.85 656.9 266.45 647.65 371.4 624.25 484.8 525.2 485.5 433.95 476.7 397.75 361.05 373.0 262.7 423.6 156.3 208.75 452.6 484.25 809.85 466.3 822.35 434.95 809.85 165.8 605.25 282.3 7.75 L227.4 -41.05 819.8 -41.05" fill="#ffffff" fill-rule="evenodd" stroke="none"/>
  </g>
</svg>
