<?xml version="1.0" encoding="UTF-8" standalone="no"?>
<svg xmlns:xlink="http://www.w3.org/1999/xlink" height="95.0px" width="127.0px" xmlns="http://www.w3.org/2000/svg">
  <g transform="matrix(1.0, 0.0, 0.0, 1.0, 0.0, 0.0)">
    <path d="M124.25 42.05 L124.2 42.05 Q124.15 42.05 124.15 42.05 124.1 42.05 124.1 42.05 L112.55 40.5 112.55 17.95 Q112.55 17.95 112.6 17.9 112.55 17.85 112.55 17.8 L112.55 17.75 Q112.55 17.7 112.55 17.55 112.5 17.1 112.45 16.85 112.45 16.85 112.45 16.7 112.25 16.0 112.2 15.95 112.2 15.95 112.2 15.9 112.2 15.9 112.15 15.9 111.5 14.25 109.8 12.7 108.15 11.2 105.55 9.8 103.0 8.45 99.7 7.3 96.45 6.1 92.5 5.15 88.7 4.15 84.35 3.4 80.05 2.65 75.45 2.15 70.85 1.6 66.15 1.35 61.35 1.1 56.65 1.1 51.6 1.1 46.5 1.4 41.45 1.7 36.55 2.3 31.6 2.9 27.1 3.75 22.5 4.65 18.55 5.7 14.55 6.85 11.3 8.15 8.0 9.5 5.7 11.0 3.3 12.6 2.05 14.3 0.75 16.05 0.75 17.9 0.75 17.9 0.75 17.95 0.75 18.0 0.75 18.0 L0.75 57.25 Q0.75 58.95 1.9 60.7 3.05 62.35 5.2 63.9 7.35 65.45 10.45 66.9 13.45 68.3 17.25 69.5 21.05 70.7 25.5 71.7 29.95 72.65 34.8 73.35 39.8 74.05 45.0 74.4 50.35 74.75 55.8 74.75 L56.9 74.75 Q57.1 74.75 57.35 74.7 57.55 74.65 57.75 74.6 57.95 74.5 58.1 74.4 58.3 74.25 58.45 74.1 58.6 73.95 58.7 73.8 58.8 73.6 58.9 73.45 58.95 73.25 59.0 73.05 59.05 72.8 59.05 72.6 L59.05 58.05 Q60.45 58.5 63.15 59.45 67.25 60.8 67.7 60.95 L67.7 78.85 Q67.7 78.95 67.7 79.05 67.7 79.15 67.75 79.2 67.75 79.3 67.75 79.4 67.8 79.5 67.85 79.6 67.85 79.65 67.9 79.75 67.95 79.85 68.0 79.9 68.05 80.0 68.1 80.1 68.15 80.15 68.2 80.25 L79.0 93.2 Q79.0 93.2 79.05 93.2 79.05 93.25 79.05 93.25 79.05 93.25 79.15 93.35 79.2 93.4 79.55 93.6 79.75 93.75 79.8 93.8 79.85 93.8 79.9 93.85 79.95 93.85 80.0 93.85 80.05 93.9 80.1 93.9 80.15 93.9 80.2 93.9 80.25 93.95 80.3 93.95 80.35 93.95 80.45 93.95 80.5 93.95 80.55 93.95 80.6 93.95 80.65 93.95 80.65 93.95 80.65 93.95 83.9 93.95 87.15 93.85 90.35 93.75 93.5 93.55 96.65 93.35 99.65 93.1 102.65 92.8 105.45 92.45 108.3 92.1 110.95 91.65 113.6 91.25 116.0 90.75 118.45 90.25 120.6 89.7 122.75 89.1 124.65 88.5 124.8 88.45 124.95 88.35 125.1 88.3 125.25 88.2 125.4 88.1 125.5 87.95 125.6 87.85 125.7 87.7 125.8 87.55 125.9 87.4 125.95 87.25 126.0 87.1 126.05 86.95 126.1 86.8 126.1 86.6 126.1 86.45 L126.1 44.2 Q126.1 44.0 126.05 43.8 126.05 43.6 125.95 43.45 125.9 43.25 125.8 43.1 125.7 42.9 125.6 42.8 125.45 42.65 125.3 42.5 125.15 42.4 125.0 42.3 124.8 42.2 124.65 42.15 124.45 42.1 124.25 42.05 L124.25 42.05 M81.75 47.4 L75.9 40.65 99.8 43.2 99.8 43.2 99.8 43.2 104.65 43.85 112.1 44.8 Q110.5 45.1 108.8 45.35 107.1 45.6 105.3 45.85 103.5 46.1 101.65 46.3 99.8 46.5 97.9 46.65 95.95 46.8 94.0 46.95 92.0 47.05 90.0 47.15 87.95 47.25 85.9 47.3 83.8 47.35 81.75 47.4 L81.75 47.4 M108.25 39.95 L102.25 39.15 102.25 30.9 Q102.7 30.7 103.1 30.5 103.55 30.3 103.95 30.1 104.35 29.85 104.75 29.6 105.15 29.35 105.5 29.1 105.9 28.8 106.25 28.55 106.6 28.25 106.95 27.95 107.3 27.65 107.6 27.3 107.95 27.0 108.25 26.65 L108.25 39.95 108.25 39.95 M59.05 53.5 L59.05 33.5 Q59.05 33.5 59.05 33.4 59.05 33.35 59.05 33.3 59.0 33.2 59.0 33.2 59.0 33.15 59.0 33.1 59.0 33.05 59.0 33.0 59.0 32.95 59.0 32.9 58.95 32.9 58.95 32.85 58.95 32.8 58.85 32.55 58.8 32.5 58.8 32.45 58.8 32.45 58.75 32.4 58.75 32.35 58.7 32.3 L51.4 21.1 97.95 30.9 97.95 38.6 70.25 34.95 Q70.25 34.95 70.2 34.95 70.15 34.95 70.15 34.95 L70.15 34.95 Q70.1 34.95 70.05 34.95 69.95 34.95 69.95 34.95 69.75 34.95 69.65 34.95 69.6 34.95 69.55 34.95 69.5 35.0 69.45 35.0 69.4 35.0 69.35 35.0 69.35 35.0 69.3 35.05 69.25 35.05 69.2 35.05 69.15 35.05 69.1 35.05 69.05 35.1 69.0 35.15 68.95 35.15 68.9 35.15 68.9 35.2 68.85 35.2 68.8 35.2 68.8 35.25 68.75 35.25 68.7 35.3 68.65 35.3 68.65 35.35 68.6 35.35 68.55 35.4 68.55 35.4 68.5 35.45 68.5 35.45 68.45 35.45 68.35 35.6 68.25 35.7 68.2 35.75 68.2 35.75 68.15 35.8 68.15 35.85 68.1 35.85 68.1 35.9 68.05 35.95 68.05 35.95 68.05 35.95 68.0 36.0 67.95 36.05 67.95 36.05 67.95 36.1 67.9 36.15 67.9 36.2 67.9 36.25 67.9 36.3 67.85 36.35 67.85 36.35 67.85 36.4 67.8 36.45 67.8 36.5 67.8 36.5 67.8 36.55 67.8 36.6 67.75 36.65 67.75 36.7 67.75 36.75 67.75 36.75 67.75 36.8 67.75 36.85 67.75 36.9 67.7 36.95 67.7 37.0 67.7 37.05 67.7 37.1 L67.7 37.8 67.7 56.4 Q60.45 53.95 59.05 53.5 L59.05 53.5 M72.0 59.4 L72.0 42.9 78.5 50.4 78.5 85.85 72.0 78.05 72.0 59.4 72.0 59.4" fill="#ffffff" fill-rule="evenodd" stroke="none"/>
  </g>
</svg>
