<?xml version="1.0" encoding="UTF-8" standalone="no"?>
<svg xmlns:xlink="http://www.w3.org/1999/xlink" height="106.6px" width="105.05px" xmlns="http://www.w3.org/2000/svg">
  <g transform="matrix(1.0, 0.0, 0.0, 1.0, 0.0, 0.0)">
    <path d="M43.0 67.4 Q42.7 67.15 42.45 66.95 42.2 66.7 41.9 66.45 41.65 66.25 41.4 66.0 41.15 65.8 40.9 65.55 40.65 65.35 40.4 65.1 40.2 64.9 39.95 64.65 39.7 64.45 39.5 64.25 39.25 64.0 39.05 63.8 38.15 62.9 37.4 61.85 36.65 60.85 36.1 59.75 35.5 58.65 35.15 57.5 34.75 56.35 34.5 55.15 34.3 53.95 34.25 52.75 34.2 51.55 34.35 50.35 34.5 49.15 34.8 48.0 35.1 46.8 35.6 45.7 36.1 44.95 36.6 44.2 37.15 43.5 37.75 42.8 38.3 42.15 38.95 41.55 39.6 40.9 40.25 40.35 40.95 39.75 41.65 39.2 42.35 38.7 43.15 38.2 43.9 37.7 44.7 37.25 45.5 36.8 46.35 36.35 47.35 36.05 48.45 35.95 49.5 35.8 50.55 35.8 51.6 35.8 52.65 35.9 53.7 36.05 54.75 36.3 55.8 36.55 56.75 36.95 57.8 37.35 58.7 37.9 59.7 38.45 60.55 39.1 61.45 39.8 62.25 40.6 63.05 41.4 63.9 42.35 64.75 43.25 65.65 44.3 66.5 45.3 67.4 46.4 68.3 47.5 69.25 48.7 70.15 49.9 71.1 51.15 72.0 52.4 73.0 53.75 73.9 55.05 74.9 56.45 75.8 57.75 76.8 59.2 76.05 59.9 75.3 60.65 74.6 61.4 73.9 62.25 73.2 63.1 72.55 64.05 71.85 64.95 71.3 65.9 70.65 66.9 70.15 67.9 69.6 68.9 69.15 69.95 68.65 71.0 68.3 72.0 67.9 73.1 67.65 74.15 68.3 73.3 68.95 72.5 69.6 71.7 70.3 70.95 71.0 70.25 71.75 69.55 72.45 68.9 73.2 68.25 73.95 67.65 74.75 67.05 75.55 66.45 76.35 65.9 77.15 65.35 78.05 64.8 78.85 64.25 79.8 63.7 87.9 76.1 97.3 92.6 101.2 99.6 105.05 106.6 104.8 106.55 94.7 100.9 82.2 93.85 71.55 87.3 56.6 78.05 47.4 71.0 47.6 69.8 47.9 68.65 48.15 67.45 48.5 66.3 48.8 65.1 49.15 64.0 49.5 62.85 49.95 61.75 50.35 60.6 50.8 59.55 51.25 58.45 51.75 57.4 52.25 56.35 52.8 55.3 53.3 54.3 53.9 53.3 52.85 54.1 51.9 55.0 50.95 55.85 50.1 56.7 49.25 57.55 48.5 58.45 47.75 59.3 47.1 60.25 46.45 61.1 45.85 62.0 45.3 62.9 44.75 63.8 44.25 64.7 43.8 65.6 43.35 66.45 43.0 67.4 L43.0 67.4 M33.2 43.1 Q30.8 42.9 28.3 42.9 25.85 42.85 23.35 43.0 20.95 43.15 18.55 43.4 16.2 43.7 14.0 44.1 11.75 44.55 9.75 45.1 7.7 45.65 5.95 46.35 4.1 47.0 2.65 47.8 1.15 48.6 0.0 49.5 0.95 47.7 2.1 46.25 3.25 44.85 4.65 43.75 6.05 42.65 7.7 41.85 9.3 41.1 11.3 40.5 13.1 39.95 15.4 39.5 17.4 39.1 20.05 38.75 22.15 38.5 25.3 38.15 23.8 38.3 31.1 37.6 29.75 36.7 28.25 35.8 26.8 34.95 25.2 34.2 23.65 33.4 21.95 32.65 20.25 31.95 18.5 31.3 16.7 30.6 14.8 30.05 12.95 29.45 10.95 28.95 8.95 28.4 6.85 27.95 4.75 27.5 2.5 27.15 3.85 26.85 5.35 26.7 6.85 26.5 8.45 26.5 10.0 26.45 11.7 26.6 13.4 26.7 15.15 26.9 16.9 27.15 18.7 27.5 20.5 27.8 22.35 28.25 24.2 28.7 26.05 29.25 27.9 29.75 29.8 30.4 29.2 28.85 28.7 27.3 28.15 25.75 27.7 24.2 27.2 22.6 26.8 21.05 26.4 19.45 26.1 17.9 25.75 16.3 25.5 14.7 25.25 13.05 25.1 11.45 24.9 9.85 24.85 8.2 24.75 6.55 24.75 4.9 25.25 6.85 25.7 8.55 26.25 10.45 26.8 12.15 27.4 14.0 28.05 15.65 28.75 17.45 29.5 19.1 30.25 20.8 31.1 22.4 32.0 24.0 33.0 25.5 34.0 27.05 35.15 28.45 36.3 29.85 37.6 31.1 38.3 24.05 38.2 25.25 38.5 22.15 38.75 20.05 39.1 17.4 39.5 15.4 39.95 13.1 40.5 11.3 41.1 9.3 41.85 7.7 42.65 6.05 43.75 4.65 44.8 3.25 46.25 2.1 47.65 0.95 49.5 0.0 48.6 1.15 47.75 2.7 46.95 4.25 46.25 6.1 45.6 7.95 45.0 10.05 44.45 12.15 44.05 14.45 43.6 16.75 43.35 19.2 43.05 21.6 42.95 24.1 42.85 26.65 42.9 29.15 42.95 31.7 43.2 34.2 42.45 34.65 41.7 35.1 41.0 35.55 40.3 36.0 39.6 36.5 38.95 37.0 38.25 37.55 37.65 38.1 37.0 38.65 36.4 39.25 35.8 39.8 35.25 40.45 34.7 41.05 34.2 41.75 33.65 42.4 33.2 43.1 L33.2 43.1" fill="#ffffff" fill-rule="evenodd" stroke="none"/>
  </g>
</svg>
