<?xml version="1.0" encoding="UTF-8" standalone="no"?>
<svg xmlns:xlink="http://www.w3.org/1999/xlink" height="106.2px" width="107.1px" xmlns="http://www.w3.org/2000/svg">
  <g transform="matrix(1.0, 0.0, 0.0, 1.0, -91.6, -218.95)">
    <path d="M141.55 232.85 Q141.35 231.75 141.3 230.65 141.25 229.6 141.35 228.6 141.5 227.65 141.75 226.7 142.0 225.75 142.4 224.9 142.8 224.05 143.35 223.2 143.85 222.4 144.55 221.65 145.25 220.9 146.1 220.25 146.95 219.55 147.95 218.95 147.85 219.4 147.9 219.95 147.95 220.5 148.1 221.15 148.3 221.8 148.6 222.6 148.9 223.4 149.35 224.3 149.75 225.2 150.35 226.2 150.9 227.25 151.6 228.35 152.3 229.5 153.15 230.75 154.0 232.0 154.95 233.4 155.9 234.75 156.7 236.1 157.45 237.45 158.05 238.8 158.65 240.15 159.0 241.45 159.4 242.8 159.6 244.1 159.8 245.4 159.85 246.7 159.85 248.0 159.65 249.3 159.5 250.6 159.1 251.85 158.75 253.15 158.2 254.4 159.05 253.8 159.8 253.1 160.5 252.35 161.1 251.5 161.7 250.65 162.15 249.7 162.6 248.7 162.95 247.6 163.25 246.55 163.45 245.3 163.65 244.1 163.75 242.75 163.8 241.4 163.7 239.95 163.65 238.45 163.45 236.85 165.05 239.6 166.2 242.2 167.35 244.75 168.05 247.15 168.75 249.55 169.05 251.7 169.3 253.9 169.15 255.9 169.0 257.9 168.35 259.75 167.75 261.55 166.7 263.15 165.65 264.8 164.15 266.2 162.65 267.65 160.75 268.9 158.8 270.15 157.15 271.3 155.45 272.45 154.0 273.6 152.55 274.7 151.35 275.75 150.1 276.8 149.15 277.75 148.15 278.75 147.45 279.7 146.7 280.6 146.2 281.45 145.7 282.35 145.45 283.15 145.2 283.95 145.2 284.7 144.55 283.35 144.1 282.05 143.6 280.8 143.3 279.55 143.0 278.3 142.85 277.1 142.7 275.9 142.7 274.75 142.7 273.6 142.9 272.5 143.05 271.4 143.4 270.35 143.75 269.3 144.2 268.3 144.7 267.3 145.35 266.35 146.0 265.4 146.55 264.45 147.1 263.5 147.5 262.55 147.95 261.6 148.3 260.65 148.6 259.7 148.8 258.75 149.05 257.8 149.15 256.85 149.25 255.9 149.25 254.95 149.25 254.0 149.1 253.05 149.0 252.05 148.8 251.1 148.3 251.95 147.75 252.8 147.2 253.6 146.65 254.4 146.05 255.2 145.45 256.0 144.85 256.8 144.2 257.55 143.55 258.3 142.85 259.05 142.15 259.75 141.45 260.45 140.7 261.2 139.95 261.85 139.2 262.55 138.4 263.25 137.85 263.7 137.45 264.15 137.0 264.6 136.7 265.1 136.35 265.6 136.1 266.15 135.85 266.65 135.7 267.25 135.55 267.8 135.5 268.4 135.45 269.0 135.5 269.65 135.55 270.25 135.7 270.95 135.85 271.6 136.1 272.3 134.4 270.7 133.05 269.2 131.65 267.7 130.6 266.25 129.5 264.75 128.7 263.4 127.9 262.0 127.45 260.65 126.95 259.3 126.75 258.05 126.55 256.75 126.7 255.55 126.8 254.3 127.2 253.15 127.6 252.0 128.3 250.9 129.05 250.05 129.7 249.2 130.4 248.35 131.05 247.45 131.7 246.6 132.3 245.75 132.9 244.85 133.45 244.0 134.0 243.1 134.5 242.25 135.05 241.35 135.5 240.45 136.0 239.55 136.4 238.65 136.85 237.75 137.25 236.85 137.65 237.4 138.0 238.0 138.35 238.55 138.65 239.15 138.9 239.75 139.1 240.35 139.3 240.95 139.45 241.55 139.6 242.2 139.65 242.8 139.75 243.45 139.75 244.1 139.7 244.7 139.65 245.35 139.6 246.0 139.45 246.7 140.25 246.2 140.85 245.6 141.5 245.05 141.95 244.35 142.4 243.65 142.7 242.9 143.0 242.15 143.1 241.25 143.25 240.4 143.2 239.45 143.15 238.5 142.95 237.45 142.8 236.4 142.4 235.25 142.05 234.1 141.55 232.85" fill="#ffffff" fill-rule="evenodd" stroke="none"/>
    <path d="M181.45 271.55 Q181.4 271.55 181.25 271.65 181.1 271.75 180.85 271.95 180.65 272.15 180.35 272.4 180.05 272.65 179.7 273.0 179.35 273.35 178.9 273.75 178.5 274.15 178.05 274.6 177.6 275.1 177.15 275.6 176.65 276.1 176.15 276.65 175.45 277.4 174.85 278.0 174.25 278.6 173.8 279.1 173.3 279.6 172.9 280.0 172.45 280.4 172.15 280.75 171.8 281.05 171.5 281.3 171.2 281.5 171.0 281.7 170.75 281.85 170.55 281.95 170.35 282.05 170.15 282.15 168.75 282.6 158.15 285.1 144.35 288.3 132.5 291.1 120.1 293.95 106.2 297.2 94.85 299.9 94.05 300.2 93.95 300.25 93.85 300.3 93.75 300.35 93.65 300.4 93.55 300.5 93.45 300.55 93.35 300.65 93.3 300.75 93.2 300.85 93.15 300.95 93.05 301.05 93.0 301.2 92.9 301.35 92.85 301.5 92.8 301.65 92.75 301.8 92.55 302.3 92.3 303.05 92.1 303.75 91.95 304.3 91.9 304.4 91.9 304.6 91.85 304.75 91.85 304.95 91.8 305.2 91.8 305.4 91.75 305.65 91.75 305.9 91.7 306.2 91.7 306.45 91.65 306.75 91.65 307.0 91.65 307.3 91.65 307.55 91.65 307.85 91.65 308.15 91.65 308.4 91.65 308.7 91.65 309.0 91.65 309.3 91.7 309.55 91.7 309.85 91.75 310.15 91.75 310.45 91.8 310.7 91.8 311.0 91.85 311.25 91.9 311.5 91.95 311.7 91.95 311.9 92.0 312.1 92.05 312.25 92.1 312.4 92.15 312.6 92.2 312.75 92.25 312.95 92.3 313.15 92.4 313.35 92.45 313.55 92.55 313.75 92.6 313.95 92.7 314.1 92.75 314.3 92.85 314.5 92.9 314.65 93.0 314.85 93.05 315.0 93.15 315.15 93.2 315.3 93.3 315.45 93.4 315.6 93.5 315.75 93.6 315.9 93.7 316.1 93.8 316.25 93.9 316.4 94.05 316.6 94.15 316.75 94.25 316.9 94.4 317.05 94.5 317.2 94.65 317.35 94.75 317.5 94.85 317.6 94.95 317.7 95.1 317.85 95.2 318.0 95.35 318.1 95.5 318.25 95.7 318.4 95.85 318.55 96.0 318.65 96.2 318.8 96.35 318.9 96.5 319.05 96.65 319.15 96.85 319.25 97.0 319.35 97.15 319.45 97.3 319.5 L98.65 320.25 102.45 319.1 Q103.4 318.8 115.3 315.2 139.5 307.8 139.5 307.8 139.7 307.85 151.25 304.3 159.85 301.7 180.25 295.55 197.85 290.2 198.25 289.8 198.3 289.75 198.35 289.65 198.4 289.55 198.45 289.45 198.5 289.3 198.55 289.15 198.55 289.0 198.6 288.8 198.6 288.55 198.65 288.3 198.65 288.05 198.65 287.75 198.7 287.4 198.7 287.05 198.7 286.65 198.7 286.2 198.7 285.55 198.7 285.2 198.7 284.7 198.65 284.4 198.65 284.0 198.6 283.75 198.6 283.45 198.55 283.2 198.5 282.95 198.4 282.7 198.35 282.45 198.2 282.15 198.1 281.9 197.95 281.6 197.85 281.35 197.6 280.9 197.35 280.4 197.25 280.2 197.05 279.9 196.95 279.7 196.8 279.45 196.7 279.3 196.6 279.15 196.5 279.05 196.4 278.95 196.3 278.9 196.15 278.85 196.0 278.85 195.9 278.85 195.7 278.85 195.6 278.85 195.3 278.85 194.25 278.9 186.75 280.9 179.4 282.9 179.3 282.85 179.2 282.75 182.3 279.15 182.9 278.45 183.25 278.0 183.7 277.5 184.0 277.15 184.35 276.75 184.55 276.45 184.75 276.15 184.9 275.95 185.05 275.7 185.15 275.55 185.2 275.35 185.25 275.2 185.25 275.05 185.25 274.85 185.25 274.7 185.2 274.5 185.2 274.4 185.0 274.35 184.85 274.3 184.55 274.3 184.3 274.25 183.9 274.25 183.6 274.3 183.2 274.3 183.1 274.3 182.45 274.35 182.05 274.35 181.8 274.35 181.5 274.4 181.3 274.35 181.1 274.35 181.05 274.3 181.0 274.25 181.05 274.15 181.15 274.05 181.3 273.9 181.45 273.75 181.7 273.55 181.55 273.65 182.1 273.2 182.35 272.95 182.55 272.8 182.75 272.65 182.85 272.5 183.0 272.35 183.05 272.2 183.05 272.1 182.95 272.05 182.85 272.0 182.75 271.95 182.65 271.9 182.55 271.85 182.4 271.8 182.3 271.8 182.2 271.75 182.1 271.7 182.0 271.7 181.9 271.65 181.8 271.6 181.7 271.6 181.65 271.6 181.55 271.6 181.5 271.55 181.45 271.55 L181.45 271.55" fill="#ffffff" fill-rule="evenodd" stroke="none"/>
    <path d="M177.45 300.5 Q176.75 300.55 171.15 301.9 164.25 303.6 158.85 305.25 153.9 306.75 145.9 308.55 139.45 310.0 139.5 310.0 139.65 310.05 144.15 311.4 150.35 313.25 152.95 314.0 155.65 314.8 162.85 316.95 169.65 318.95 172.15 319.75 177.15 321.25 185.6 323.75 L190.15 325.15 191.9 323.35 Q192.05 323.15 192.25 322.95 192.45 322.75 192.65 322.5 192.8 322.3 193.0 322.05 193.2 321.8 193.35 321.6 193.55 321.35 193.7 321.15 193.85 320.9 194.0 320.7 194.15 320.5 194.25 320.3 194.4 320.15 194.45 320.0 194.55 319.85 194.65 319.65 194.75 319.5 194.85 319.25 194.95 319.1 195.05 318.85 195.15 318.65 195.25 318.45 195.35 318.2 195.45 318.0 195.55 317.8 195.6 317.6 195.7 317.4 195.8 317.2 195.85 317.0 195.9 316.8 196.5 315.1 196.5 314.9 196.5 314.8 195.55 314.25 194.65 313.7 193.35 313.05 L190.2 311.4 193.5 311.3 Q194.1 311.3 194.5 311.3 194.95 311.25 195.3 311.25 195.6 311.25 195.85 311.2 196.1 311.2 196.25 311.15 196.45 311.15 196.55 311.1 196.6 311.05 196.65 311.0 196.7 310.95 196.7 310.85 196.7 310.8 196.7 310.7 196.6 310.45 196.5 310.0 196.4 309.5 196.35 309.1 196.25 308.65 196.0 307.95 195.75 307.15 195.5 306.6 L194.9 305.15 185.35 302.85 Q184.4 302.6 183.5 302.4 182.7 302.15 181.95 301.95 181.3 301.75 180.65 301.55 180.1 301.35 179.6 301.2 179.2 301.05 178.75 300.9 178.2 300.7 178.15 300.7 177.85 300.6 177.7 300.55 177.55 300.5 177.45 300.5 L177.45 300.5" fill="#ffffff" fill-rule="evenodd" stroke="none"/>
    <path d="M97.1 277.85 Q97.05 277.85 97.0 277.85 96.95 277.9 96.85 277.9 96.8 277.95 96.7 278.0 96.6 278.05 96.5 278.1 96.4 278.15 96.3 278.25 96.15 278.3 96.05 278.4 95.9 278.45 95.8 278.55 95.65 278.65 95.55 278.75 95.4 278.85 95.25 278.95 95.15 279.05 95.0 279.15 94.85 279.3 94.7 279.4 94.55 279.55 94.4 279.7 94.3 279.8 94.15 279.95 94.0 280.1 93.9 280.2 93.8 280.35 93.7 280.45 93.6 280.55 93.5 280.65 93.4 280.75 93.6 281.0 93.8 281.2 94.2 281.5 94.55 281.8 95.1 282.15 95.6 282.5 96.2 282.9 96.75 283.25 97.35 283.6 97.9 283.9 98.4 284.2 98.9 284.5 99.25 284.65 99.6 284.85 99.75 284.95 100.4 285.2 100.4 285.35 100.45 285.5 99.95 285.6 99.55 285.7 98.7 285.7 98.15 285.75 97.0 285.75 95.6 285.8 95.1 285.8 94.05 285.8 93.4 285.9 92.55 285.95 92.1 286.1 91.6 286.2 91.65 286.45 91.65 286.75 91.65 287.0 91.65 287.3 91.7 287.5 91.7 287.75 91.75 288.0 91.8 288.25 91.85 288.45 91.9 288.7 91.95 288.9 92.0 289.15 92.1 289.4 92.2 289.6 92.3 289.85 92.4 290.1 92.55 290.4 L93.45 292.35 98.35 293.8 103.2 295.3 119.75 291.4 Q136.3 287.55 136.3 287.35 136.3 287.2 116.9 282.5 97.45 277.85 97.1 277.85 L97.1 277.85" fill="#ffffff" fill-rule="evenodd" stroke="none"/>
  </g>
</svg>
