<?xml version="1.0" encoding="UTF-8" standalone="no"?>
<svg xmlns:xlink="http://www.w3.org/1999/xlink" height="117.95px" width="68.1px" xmlns="http://www.w3.org/2000/svg">
  <g transform="matrix(1.0, 0.0, 0.0, 1.0, 2.85, 4.55)">
    <path d="M17.6 76.35 L31.15 76.35 14.25 102.95 47.5 69.25 35.85 69.25 48.5 49.2 34.9 49.2 17.6 76.35 M26.8 -4.55 L35.15 -4.55 Q39.9 -4.55 39.9 0.35 L39.9 2.35 43.25 2.35 Q44.8 2.35 46.0 3.55 47.05 5.5 47.05 6.85 47.05 8.7 46.0 10.3 L43.85 11.65 43.05 13.2 42.85 13.8 41.25 14.0 41.05 14.0 41.05 28.65 Q66.15 43.45 65.2 61.1 63.7 88.5 54.35 113.4 L7.8 113.4 Q-1.35 89.1 -2.8 61.65 -3.75 44.0 21.35 29.2 L21.35 14.0 21.1 14.0 Q19.95 14.0 19.4 13.2 18.8 12.6 18.55 11.65 17.05 11.5 16.15 10.3 15.05 8.7 15.05 6.85 15.05 5.5 16.15 3.55 17.35 2.35 18.8 2.35 L22.45 2.35 22.45 0.35 Q22.45 -4.55 26.8 -4.55" fill="#ffffff" fill-rule="evenodd" stroke="none"/>
  </g>
</svg>
