<?xml version="1.0" encoding="UTF-8" standalone="no"?>
<svg xmlns:xlink="http://www.w3.org/1999/xlink" height="102.5px" width="106.3px" xmlns="http://www.w3.org/2000/svg">
  <g transform="matrix(1.0, 0.0, 0.0, 1.0, -895.9, -290.2)">
    <path d="M910.55 290.2 Q910.35 290.2 910.15 290.2 910.0 290.2 909.85 290.25 909.65 290.25 909.55 290.3 909.4 290.35 909.25 290.4 909.1 290.45 909.0 290.55 908.85 290.6 908.75 290.7 908.6 290.8 908.45 290.95 908.35 291.05 908.2 291.25 L907.15 292.25 907.35 301.1 Q907.45 303.75 907.5 311.5 907.55 318.25 907.6 318.2 907.85 318.1 908.2 318.1 908.55 318.1 908.95 318.2 909.35 318.3 909.8 318.5 910.2 318.65 910.65 318.85 911.1 319.05 911.5 319.3 911.9 319.5 912.25 319.75 912.6 319.95 912.9 320.15 913.15 320.35 913.3 320.5 913.5 320.7 913.5 315.75 913.5 317.35 913.5 305.2 L913.5 291.8 912.7 291.05 Q912.6 290.95 912.45 290.85 912.35 290.75 912.25 290.65 912.15 290.55 912.0 290.5 911.9 290.45 911.75 290.4 911.65 290.35 911.5 290.3 911.35 290.25 911.2 290.25 911.05 290.25 910.9 290.2 910.75 290.2 910.55 290.2 L910.55 290.2 M898.9 299.1 Q898.85 299.1 898.8 299.1 898.75 299.1 898.7 299.15 898.65 299.15 898.6 299.15 898.55 299.15 898.45 299.2 898.4 299.2 898.3 299.25 898.25 299.25 898.15 299.3 898.1 299.3 898.05 299.3 897.95 299.35 897.9 299.35 897.85 299.4 897.75 299.45 897.65 299.5 897.6 299.55 897.5 299.6 897.4 299.65 897.3 299.7 897.25 299.8 897.15 299.85 897.05 299.95 896.95 300.0 896.9 300.1 896.8 300.15 896.7 300.25 896.65 300.3 896.6 300.4 896.45 300.55 896.4 300.65 896.3 300.85 896.2 301.05 896.15 301.3 896.1 301.7 896.05 302.1 896.0 302.7 896.0 303.3 895.95 304.2 895.95 305.1 895.95 306.4 895.95 307.55 895.9 309.3 895.9 310.7 895.9 313.15 895.95 325.25 896.4 326.5 896.55 327.05 903.6 342.5 910.7 357.95 910.95 358.3 911.05 358.45 914.15 365.0 917.2 371.4 917.5 371.85 917.6 372.0 917.75 372.15 917.85 372.35 918.0 372.55 918.1 372.75 918.25 372.95 918.35 373.15 918.45 373.4 918.6 373.6 918.7 373.85 918.8 374.05 918.9 374.3 919.0 374.5 919.1 374.7 919.2 374.9 919.25 375.1 919.35 375.4 919.45 375.7 919.55 376.0 919.6 376.3 919.65 376.65 919.7 377.0 919.75 377.4 919.8 377.85 919.8 378.35 919.85 378.95 919.85 379.55 919.85 380.35 919.9 381.1 919.9 382.1 919.9 383.0 919.9 384.3 919.85 391.55 920.1 392.2 920.15 392.3 920.2 392.35 920.3 392.4 920.5 392.45 920.7 392.5 921.05 392.55 921.35 392.6 921.85 392.6 922.35 392.65 923.1 392.65 923.8 392.7 924.8 392.7 925.7 392.7 927.0 392.7 928.15 392.7 929.8 392.7 L939.3 392.7 939.2 376.65 Q939.2 372.9 939.15 371.4 939.15 369.0 939.15 367.45 939.1 365.7 939.1 364.55 939.05 363.3 939.0 362.45 939.0 361.6 938.9 361.0 938.85 360.45 938.8 360.05 938.7 359.65 938.6 359.25 938.5 359.0 938.35 358.55 938.05 357.7 937.5 356.5 937.0 355.35 936.6 354.55 936.15 353.75 935.45 352.7 934.65 351.5 934.0 350.7 933.3 349.85 932.25 348.8 931.15 347.7 930.3 347.05 929.45 346.35 928.2 345.55 926.95 344.7 926.1 344.25 925.0 343.85 924.15 343.6 923.4 343.35 922.85 343.2 922.4 343.05 922.15 343.0 921.9 342.95 921.8 342.95 921.75 343.0 921.75 343.0 921.8 343.05 921.85 343.1 921.9 343.1 921.95 343.1 921.95 343.1 921.9 343.0 921.65 342.75 921.5 342.6 921.25 342.3 920.95 342.0 920.6 341.6 920.3 341.15 919.9 340.65 919.55 340.1 919.1 339.45 918.75 338.75 918.3 337.95 917.95 337.1 917.55 336.2 917.2 335.2 916.8 334.15 916.5 333.0 916.35 332.35 916.2 331.95 916.05 331.4 915.95 331.0 915.8 330.5 915.6 330.1 915.4 329.6 915.2 329.2 914.95 328.7 914.7 328.25 914.4 327.8 914.0 327.3 913.65 326.75 913.15 326.2 912.7 325.65 912.1 325.0 912.05 324.95 911.85 324.8 911.65 324.65 911.4 324.45 911.1 324.25 910.8 324.05 910.5 323.8 910.15 323.55 909.8 323.35 909.5 323.15 909.15 322.9 908.9 322.75 908.6 322.6 908.35 322.5 908.15 322.4 908.05 322.4 907.9 322.4 907.75 322.4 907.6 322.4 907.45 322.45 907.3 322.45 907.2 322.5 907.05 322.55 906.95 322.6 906.8 322.65 906.7 322.75 906.55 322.8 906.45 322.9 906.3 323.0 906.2 323.1 906.05 323.2 905.95 323.35 905.85 323.45 905.75 323.55 905.65 323.65 905.55 323.8 905.5 323.9 905.4 324.05 905.35 324.15 905.25 324.25 905.2 324.4 905.15 324.5 905.1 324.6 905.05 324.7 905.0 324.85 905.0 324.95 905.0 325.05 905.0 325.1 905.0 325.35 906.2 327.9 908.3 332.2 909.7 335.35 910.35 336.8 910.85 338.05 911.3 339.25 911.65 340.25 911.95 341.2 912.15 342.0 912.3 342.75 912.4 343.35 912.5 343.9 912.5 344.35 912.5 344.7 912.45 345.05 912.45 345.25 912.35 345.5 912.35 345.5 912.3 345.7 912.3 345.75 912.25 345.95 912.25 346.15 912.25 346.45 912.25 346.55 912.2 347.05 912.2 347.5 912.2 347.75 912.2 348.15 912.15 348.45 912.15 348.8 912.1 349.05 912.05 349.3 912.0 349.45 911.95 349.6 911.85 349.65 911.8 349.9 911.4 349.35 911.05 348.85 910.4 347.7 909.75 346.55 908.95 344.95 908.1 343.3 907.2 341.4 906.25 339.35 905.35 337.3 904.35 335.05 903.5 332.95 902.6 330.65 901.9 328.6 901.15 326.4 900.65 324.55 900.55 324.1 900.5 323.65 900.5 323.15 900.6 322.7 900.65 322.2 900.8 321.75 900.9 321.3 901.1 320.9 901.25 320.5 901.45 320.15 901.65 319.85 901.85 319.6 902.05 319.35 902.2 319.25 902.35 319.15 902.4 319.2 902.55 319.1 902.6 318.95 902.7 318.85 902.7 318.6 902.75 318.4 902.75 318.1 902.75 317.8 902.7 317.25 904.65 345.0 902.6 316.1 902.55 315.3 902.5 314.5 902.45 313.5 902.4 312.4 902.4 311.1 902.35 309.7 902.25 301.55 901.8 300.7 901.75 300.6 901.7 300.5 901.65 300.4 901.55 300.3 901.45 300.2 901.4 300.15 901.3 300.05 901.2 299.95 901.1 299.85 900.95 299.8 900.85 299.7 900.75 299.65 900.65 299.6 900.55 299.55 900.45 299.45 900.3 299.45 900.2 299.4 900.1 299.35 900.0 299.35 899.85 299.3 899.75 299.25 899.65 299.25 899.55 299.2 899.45 299.2 899.35 299.15 899.3 299.15 899.2 299.15 899.15 299.1 899.05 299.1 899.0 299.1 898.95 299.1 898.9 299.1 L898.9 299.1 M921.2 299.4 Q921.05 299.4 920.95 299.4 920.8 299.45 920.7 299.45 920.55 299.5 920.45 299.5 920.3 299.55 920.2 299.6 920.1 299.65 920.0 299.75 919.85 299.8 919.75 299.9 919.65 299.95 919.55 300.05 919.45 300.15 919.35 300.25 L918.55 301.1 918.45 314.45 918.35 327.8 920.9 333.55 Q923.45 339.25 923.9 339.4 924.3 339.55 924.3 320.6 924.3 308.5 924.2 305.0 924.1 301.35 923.8 300.75 923.75 300.65 923.7 300.55 923.65 300.45 923.55 300.35 923.5 300.3 923.45 300.2 923.4 300.1 923.3 300.05 923.25 299.95 923.15 299.9 923.1 299.8 923.05 299.75 923.0 299.7 922.9 299.65 922.85 299.65 922.8 299.6 922.75 299.6 922.7 299.55 922.6 299.55 922.5 299.55 922.45 299.5 922.35 299.5 922.25 299.5 922.1 299.45 922.0 299.45 921.9 299.45 921.8 299.45 921.65 299.4 921.55 299.4 921.45 299.4 921.3 299.4 921.2 299.4 L921.2 299.4 M933.1 316.0 Q933.05 316.0 933.0 316.0 932.9 316.0 932.85 316.05 932.75 316.05 932.65 316.05 932.6 316.05 932.5 316.1 932.45 316.1 932.35 316.15 932.25 316.15 932.2 316.2 932.1 316.2 932.0 316.25 931.95 316.25 931.9 316.3 931.85 316.35 931.75 316.35 931.65 316.4 931.6 316.45 931.5 316.5 931.4 316.55 931.3 316.65 931.2 316.7 931.15 316.75 931.05 316.85 930.95 316.9 930.85 317.0 930.8 317.05 930.7 317.15 930.65 317.2 930.55 317.3 930.4 317.45 930.35 317.55 930.25 317.75 930.2 317.95 930.1 318.2 930.05 318.55 930.0 318.9 930.0 319.5 929.95 320.05 929.9 320.9 929.9 321.7 929.9 322.85 929.85 323.9 929.85 325.5 929.85 326.75 929.8 329.0 L929.7 341.75 Q930.3 342.05 930.95 342.5 931.55 342.95 932.15 343.45 932.75 343.95 933.3 344.5 933.8 345.0 934.35 345.55 934.75 346.05 935.15 346.5 935.55 346.95 935.8 347.3 936.05 347.6 936.15 347.8 936.25 348.0 936.2 347.95 L936.3 329.3 Q936.3 318.6 935.9 317.8 935.85 317.7 935.8 317.6 935.75 317.5 935.7 317.4 935.6 317.3 935.55 317.2 935.45 317.1 935.35 317.05 935.3 316.95 935.2 316.85 935.1 316.75 935.0 316.7 934.9 316.6 934.8 316.55 934.75 316.5 934.65 316.45 934.55 316.4 934.45 316.35 934.35 316.3 934.25 316.25 934.1 316.2 934.0 316.2 933.9 316.15 933.8 316.1 933.7 316.1 933.6 316.05 933.5 316.05 933.45 316.05 933.35 316.0 933.25 316.0 933.2 316.0 933.1 316.0 L933.1 316.0" fill="#ffffff" fill-rule="evenodd" stroke="none"/>
    <path d="M987.55 290.2 Q987.75 290.2 987.95 290.2 988.1 290.2 988.25 290.25 988.4 290.25 988.55 290.3 988.7 290.35 988.85 290.4 988.95 290.45 989.1 290.55 989.25 290.6 989.35 290.7 989.5 290.8 989.6 290.95 989.75 291.05 989.9 291.25 L990.95 292.25 990.75 301.1 Q990.65 303.8 990.6 311.5 990.55 318.25 990.5 318.2 990.25 318.1 989.9 318.1 989.55 318.1 989.15 318.2 988.75 318.3 988.3 318.5 987.9 318.65 987.45 318.85 987.0 319.05 986.6 319.3 986.2 319.5 985.85 319.75 985.5 319.95 985.2 320.15 984.95 320.35 984.8 320.5 984.6 320.7 984.6 315.75 984.6 317.05 984.6 305.2 L984.6 291.8 985.4 291.05 Q985.5 290.95 985.6 290.85 985.75 290.75 985.85 290.65 985.95 290.55 986.1 290.5 986.2 290.45 986.35 290.4 986.45 290.35 986.6 290.3 986.7 290.25 986.9 290.25 987.0 290.25 987.2 290.2 987.35 290.2 987.55 290.2 L987.55 290.2 M999.2 299.1 Q999.25 299.1 999.3 299.1 999.3 299.1 999.4 299.15 999.45 299.15 999.5 299.15 999.55 299.15 999.65 299.2 999.7 299.2 999.75 299.25 999.85 299.25 999.9 299.3 1000.0 299.3 1000.05 299.3 1000.15 299.35 1000.2 299.35 1000.25 299.4 1000.35 299.45 1000.4 299.5 1000.5 299.55 1000.6 299.6 1000.7 299.65 1000.75 299.7 1000.85 299.8 1000.95 299.85 1001.05 299.95 1001.15 300.0 1001.2 300.1 1001.3 300.15 1001.35 300.25 1001.45 300.3 1001.5 300.4 1001.65 300.55 1001.7 300.65 1001.8 300.85 1001.85 301.05 1001.95 301.3 1002.0 301.7 1002.05 302.1 1002.1 302.7 1002.1 303.3 1002.15 304.2 1002.15 305.1 1002.15 306.4 1002.15 307.55 1002.15 309.3 1002.15 310.7 1002.15 313.15 1002.2 325.2 1001.7 326.5 1001.55 327.05 994.45 342.5 987.4 357.95 987.15 358.3 987.05 358.5 983.95 365.0 980.9 371.4 980.55 371.85 980.45 372.0 980.35 372.15 980.2 372.35 980.1 372.55 979.95 372.75 979.85 372.95 979.75 373.2 979.6 373.4 979.5 373.6 979.4 373.85 979.25 374.05 979.15 374.3 979.05 374.5 979.0 374.7 978.9 374.9 978.85 375.1 978.75 375.4 978.65 375.7 978.55 376.0 978.5 376.3 978.45 376.65 978.4 377.0 978.35 377.4 978.3 377.85 978.3 378.35 978.25 378.95 978.25 379.55 978.25 380.35 978.2 381.1 978.2 382.1 978.2 383.0 978.2 384.3 978.2 391.55 978.0 392.2 977.95 392.3 977.9 392.35 977.8 392.4 977.6 392.45 977.4 392.5 977.05 392.55 976.75 392.6 976.25 392.6 975.7 392.65 975.0 392.65 974.3 392.7 973.3 392.7 972.4 392.7 971.1 392.7 969.95 392.7 968.3 392.7 L958.8 392.7 958.9 376.65 Q958.9 372.9 958.95 371.4 958.95 369.0 958.95 367.45 959.0 365.7 959.0 364.55 959.05 363.3 959.05 362.45 959.1 361.6 959.15 361.0 959.2 360.45 959.3 360.05 959.4 359.65 959.5 359.25 959.55 359.0 959.75 358.55 960.05 357.7 960.6 356.5 961.05 355.35 961.5 354.55 961.95 353.75 962.65 352.7 963.45 351.5 964.1 350.7 964.8 349.85 965.85 348.8 966.95 347.7 967.8 347.05 968.65 346.35 969.85 345.55 971.1 344.7 972.0 344.25 973.1 343.85 973.95 343.6 974.7 343.35 975.25 343.2 975.7 343.05 975.95 343.0 976.2 342.95 976.3 342.95 976.35 343.0 976.35 343.0 976.3 343.05 976.25 343.1 976.2 343.1 976.15 343.1 976.15 343.1 976.2 343.0 976.45 342.75 976.6 342.6 976.85 342.3 977.15 342.0 977.45 341.6 977.8 341.15 978.2 340.65 978.55 340.1 978.95 339.45 979.35 338.75 979.8 337.95 980.15 337.1 980.55 336.2 980.9 335.2 981.3 334.15 981.6 333.0 981.75 332.35 981.85 331.95 982.0 331.45 982.15 331.0 982.3 330.5 982.5 330.1 982.65 329.6 982.9 329.2 983.15 328.7 983.4 328.25 983.7 327.8 984.1 327.3 984.45 326.75 984.9 326.2 985.4 325.65 986.0 325.0 986.05 324.95 986.25 324.8 986.45 324.65 986.7 324.45 986.95 324.25 987.25 324.05 987.6 323.8 987.9 323.55 988.3 323.35 988.6 323.15 988.95 322.9 989.2 322.75 989.5 322.6 989.7 322.5 989.95 322.4 990.05 322.4 990.2 322.4 990.35 322.4 990.5 322.4 990.65 322.45 990.75 322.45 990.9 322.5 991.05 322.55 991.15 322.6 991.3 322.65 991.4 322.75 991.55 322.8 991.65 322.9 991.8 323.0 991.9 323.1 992.05 323.2 992.15 323.35 992.25 323.45 992.35 323.55 992.45 323.65 992.55 323.8 992.6 323.9 992.7 324.05 992.75 324.15 992.85 324.25 992.9 324.4 992.95 324.5 993.0 324.6 993.05 324.7 993.1 324.85 993.1 324.95 993.1 325.05 993.1 325.1 993.1 325.35 991.85 327.9 989.85 332.15 988.4 335.35 987.75 336.8 987.25 338.05 986.8 339.25 986.45 340.25 986.15 341.2 985.95 342.0 985.8 342.75 985.7 343.35 985.6 343.9 985.6 344.35 985.6 344.7 985.65 345.05 985.65 345.25 985.7 345.5 985.7 345.5 985.8 345.7 985.8 345.75 985.85 345.95 985.85 346.15 985.85 346.45 985.85 346.45 985.85 347.05 985.9 347.5 985.9 347.75 985.9 348.15 985.95 348.45 985.95 348.8 986.0 349.05 986.05 349.3 986.1 349.45 986.15 349.6 986.25 349.65 986.3 349.9 986.65 349.35 987.05 348.85 987.7 347.7 988.35 346.55 989.15 344.95 990.0 343.25 990.9 341.4 991.85 339.35 992.75 337.3 993.75 335.05 994.6 332.95 995.5 330.65 996.2 328.6 996.95 326.4 997.45 324.55 997.55 324.1 997.6 323.65 997.6 323.15 997.5 322.7 997.45 322.2 997.3 321.75 997.15 321.3 997.0 320.9 996.8 320.5 996.6 320.15 996.45 319.85 996.25 319.6 996.05 319.35 995.9 319.25 995.75 319.15 995.65 319.2 995.5 319.1 995.45 318.95 995.4 318.85 995.35 318.6 995.35 318.4 995.35 318.1 995.35 317.8 995.4 317.25 995.5 315.75 995.5 316.1 995.55 315.3 995.6 314.5 995.65 313.5 995.65 312.4 995.7 311.1 995.75 309.7 995.8 301.55 996.3 300.7 996.35 300.6 996.4 300.5 996.45 300.4 996.55 300.3 996.6 300.2 996.7 300.15 996.8 300.05 996.9 299.95 997.0 299.85 997.1 299.8 997.25 299.7 997.35 299.65 997.45 299.6 997.55 299.55 997.65 299.45 997.75 299.45 997.85 299.4 998.0 299.35 998.1 299.35 998.2 299.3 998.3 299.25 998.4 299.25 998.55 299.2 998.6 299.2 998.7 299.15 998.8 299.15 998.9 299.15 998.95 299.1 999.05 299.1 999.1 299.1 999.15 299.1 999.2 299.1 L999.2 299.1 M976.9 299.4 Q977.05 299.4 977.15 299.4 977.3 299.45 977.4 299.45 977.55 299.5 977.65 299.5 977.75 299.55 977.9 299.6 978.0 299.65 978.1 299.75 978.2 299.8 978.35 299.9 978.45 299.95 978.55 300.05 978.65 300.15 978.75 300.25 L979.55 301.1 979.65 314.45 979.75 327.8 977.2 333.55 Q974.6 339.25 974.2 339.4 973.8 339.55 973.8 320.6 973.8 308.55 973.9 305.0 973.95 301.35 974.3 300.75 974.35 300.65 974.4 300.55 974.45 300.45 974.5 300.35 974.6 300.3 974.65 300.2 974.7 300.1 974.8 300.05 974.85 299.95 974.9 299.9 975.0 299.8 975.05 299.75 975.1 299.7 975.15 299.65 975.25 299.65 975.3 299.6 975.35 299.6 975.4 299.55 975.5 299.55 975.6 299.55 975.65 299.5 975.75 299.5 975.85 299.5 975.95 299.45 976.1 299.45 976.2 299.45 976.3 299.45 976.45 299.4 976.55 299.4 976.65 299.4 976.8 299.4 976.9 299.4 L976.9 299.4 M964.95 316.0 Q965.0 316.0 965.1 316.0 965.15 316.0 965.25 316.05 965.3 316.05 965.4 316.05 965.5 316.05 965.6 316.1 965.65 316.1 965.75 316.15 965.85 316.15 965.9 316.2 966.0 316.2 966.05 316.25 966.15 316.25 966.2 316.3 966.25 316.35 966.35 316.35 966.45 316.4 966.5 316.45 966.6 316.5 966.7 316.55 966.8 316.65 966.85 316.7 966.95 316.75 967.05 316.85 967.15 316.9 967.2 317.0 967.3 317.05 967.4 317.15 967.45 317.2 967.55 317.3 967.7 317.45 967.75 317.55 967.85 317.75 967.9 317.95 967.95 318.2 968.0 318.55 968.05 318.9 968.1 319.5 968.15 320.05 968.15 320.9 968.2 321.7 968.2 322.85 968.25 323.9 968.25 325.5 968.25 326.75 968.3 329.0 L968.4 341.75 Q967.8 342.05 967.15 342.5 966.55 342.95 965.95 343.45 965.35 343.95 964.8 344.5 964.25 345.0 963.75 345.55 963.3 346.05 962.9 346.5 962.55 346.95 962.3 347.3 962.05 347.6 961.95 347.8 961.8 348.0 961.9 347.95 L961.8 329.3 Q961.75 318.6 962.15 317.8 962.2 317.7 962.25 317.6 962.3 317.5 962.4 317.4 962.45 317.3 962.55 317.2 962.65 317.1 962.7 317.05 962.8 316.95 962.9 316.85 963.0 316.75 963.1 316.7 963.2 316.6 963.25 316.55 963.35 316.5 963.45 316.45 963.55 316.4 963.65 316.35 963.75 316.3 963.85 316.25 963.95 316.2 964.1 316.2 964.2 316.15 964.3 316.1 964.4 316.1 964.5 316.05 964.6 316.05 964.65 316.05 964.75 316.0 964.85 316.0 964.9 316.0 964.95 316.0 L964.95 316.0" fill="#ffffff" fill-rule="evenodd" stroke="none"/>
  </g>
</svg>
