<?xml version="1.0" encoding="UTF-8" standalone="no"?>
<svg xmlns:xlink="http://www.w3.org/1999/xlink" height="116.85px" width="117.75px" xmlns="http://www.w3.org/2000/svg">
  <g transform="matrix(1.0, 0.0, 0.0, 1.0, -3.8, -3.75)">
    <path d="M100.25 22.4 L91.35 32.8 91.25 57.75 43.15 9.6 10.65 9.6 12.9 41.4 67.7 96.15 33.65 96.35 27.75 102.2 33.85 107.45 79.4 107.85 84.15 112.55 107.1 112.55 114.4 105.3 114.35 80.8 110.0 76.5 110.1 32.25 100.25 22.4 M14.35 15.45 L40.25 15.45 107.45 82.65 107.45 107.95 99.05 87.6 35.25 23.85 14.35 15.45 M85.55 29.1 L100.2 12.05 116.3 28.35 116.35 73.6 121.45 78.75 121.55 108.3 109.2 120.6 81.6 120.6 74.2 113.15 31.65 113.05 19.5 102.3 31.2 90.6 51.7 90.6 6.7 45.65 3.8 3.75 46.5 3.75 85.55 42.75 85.55 29.1" fill="#ffffff" fill-rule="evenodd" stroke="none"/>
  </g>
</svg>
