<?xml version="1.0" encoding="UTF-8" standalone="no"?>
<svg xmlns:xlink="http://www.w3.org/1999/xlink" height="111.95px" width="111.95px" xmlns="http://www.w3.org/2000/svg">
  <g transform="matrix(1.0, 0.0, 0.0, 1.0, 0.0, 0.0)">
    <path d="M24.65 66.2 L0.0 56.0 24.65 45.75 Q24.45 46.35 24.3 46.95 24.1 47.6 23.95 48.2 23.8 48.85 23.7 49.45 23.6 50.1 23.5 50.75 23.35 51.4 23.3 52.05 23.2 52.7 23.15 53.35 23.1 54.0 23.1 54.65 23.05 55.3 23.05 56.0 23.05 56.65 23.1 57.3 23.1 58.0 23.15 58.65 23.2 59.3 23.3 59.95 23.35 60.6 23.5 61.2 23.6 61.85 23.7 62.5 23.85 63.1 24.0 63.75 24.15 64.35 24.3 65.0 24.45 65.6 24.65 66.2 L24.65 66.2 M26.6 41.05 L16.4 16.4 40.9 26.55 Q39.75 27.15 38.65 27.85 37.55 28.5 36.5 29.3 35.45 30.05 34.5 30.9 33.5 31.75 32.6 32.65 31.7 33.6 30.9 34.55 30.05 35.55 29.3 36.6 28.55 37.65 27.85 38.75 27.2 39.85 26.6 41.05 L26.6 41.05 M45.85 24.45 L56.0 0.0 66.1 24.45 Q65.5 24.25 64.9 24.1 64.3 23.9 63.65 23.75 63.05 23.6 62.45 23.5 61.8 23.35 61.15 23.25 60.55 23.15 59.9 23.1 59.25 23.0 58.6 22.95 57.95 22.9 57.3 22.85 56.65 22.85 56.0 22.85 55.35 22.85 54.7 22.85 54.0 22.9 53.35 22.95 52.7 23.0 52.05 23.1 51.45 23.15 50.8 23.25 50.15 23.35 49.55 23.5 48.9 23.6 48.3 23.75 47.65 23.9 47.05 24.1 46.45 24.25 45.85 24.45 L45.85 24.45 M71.1 26.55 L95.55 16.4 85.35 41.05 Q84.75 39.9 84.1 38.75 83.45 37.65 82.65 36.6 81.9 35.55 81.1 34.55 80.25 33.6 79.35 32.65 78.45 31.75 77.5 30.9 76.5 30.05 75.45 29.3 74.45 28.5 73.35 27.8 72.25 27.15 71.1 26.55 L71.1 26.55 M87.3 45.75 L111.95 56.0 87.3 66.2 Q87.5 65.6 87.65 65.0 87.85 64.35 88.0 63.75 88.15 63.1 88.25 62.5 88.4 61.85 88.5 61.2 88.6 60.6 88.65 59.95 88.75 59.3 88.8 58.65 88.85 57.95 88.85 57.3 88.9 56.65 88.9 56.0 88.9 55.35 88.85 54.65 88.85 54.0 88.8 53.35 88.75 52.7 88.65 52.05 88.6 51.4 88.5 50.75 88.4 50.1 88.25 49.5 88.15 48.85 88.0 48.2 87.85 47.6 87.65 47.0 87.5 46.35 87.3 45.75 L87.3 45.75 M85.35 70.95 L95.55 95.55 71.1 85.45 Q72.25 84.85 73.35 84.15 74.45 83.45 75.45 82.7 76.5 81.95 77.5 81.1 78.45 80.25 79.35 79.3 80.25 78.4 81.1 77.4 81.95 76.4 82.7 75.35 83.45 74.3 84.1 73.2 84.8 72.1 85.35 70.95 L85.35 70.95 M66.1 87.5 L56.0 111.95 45.85 87.5 Q46.45 87.7 47.05 87.85 47.65 88.05 48.3 88.2 48.9 88.35 49.55 88.5 50.15 88.6 50.8 88.7 51.45 88.8 52.05 88.9 52.7 88.95 53.35 89.0 54.0 89.05 54.65 89.1 55.3 89.1 56.0 89.1 56.65 89.1 57.3 89.1 57.95 89.05 58.6 89.0 59.25 88.95 59.9 88.9 60.55 88.8 61.2 88.7 61.8 88.6 62.45 88.5 63.05 88.35 63.7 88.2 64.3 88.05 64.9 87.9 65.5 87.7 66.1 87.5 L66.1 87.5 M40.9 85.45 L16.4 95.55 26.6 70.95 Q27.2 72.1 27.85 73.2 28.55 74.3 29.3 75.35 30.05 76.4 30.85 77.4 31.7 78.4 32.6 79.3 33.5 80.25 34.5 81.05 35.45 81.9 36.5 82.7 37.55 83.45 38.65 84.15 39.75 84.85 40.9 85.45 L40.9 85.45 M56.0 31.05 Q58.55 31.05 61.0 31.55 63.4 32.05 65.65 33.0 67.85 33.95 69.85 35.3 71.8 36.65 73.5 38.35 75.2 40.05 76.55 42.05 77.9 44.05 78.8 46.25 79.8 48.55 80.25 50.95 80.75 53.45 80.75 56.0 80.75 58.55 80.25 61.0 79.75 63.45 78.8 65.7 77.9 67.95 76.55 69.95 75.2 71.95 73.5 73.65 71.8 75.35 69.85 76.7 67.85 78.05 65.65 79.0 63.35 79.95 61.0 80.45 58.5 80.95 56.0 80.95 53.45 80.95 51.0 80.45 48.6 79.95 46.35 79.0 44.15 78.05 42.15 76.7 40.15 75.35 38.45 73.65 36.75 71.95 35.45 69.95 34.1 67.9 33.15 65.7 32.2 63.4 31.7 61.0 31.2 58.55 31.2 56.0 31.2 53.45 31.7 50.95 32.2 48.55 33.15 46.3 34.1 44.05 35.45 42.05 36.75 40.05 38.45 38.35 40.15 36.65 42.15 35.3 44.15 33.95 46.35 33.0 48.6 32.05 51.0 31.55 53.45 31.05 56.0 31.05 L56.0 31.05" fill="#ffffff" fill-rule="evenodd" stroke="none"/>
  </g>
</svg>
