<?xml version="1.0" encoding="UTF-8" standalone="no"?>
<svg xmlns:xlink="http://www.w3.org/1999/xlink" height="124.0px" width="124.0px" xmlns="http://www.w3.org/2000/svg">
  <g transform="matrix(1.0, 0.0, 0.0, 1.0, 0.0, 0.0)">
    <path d="M31.75 56.55 L43.95 68.75 99.65 16.15 Q99.4 15.4 99.25 14.65 99.1 13.9 99.1 13.1 99.05 12.35 99.1 11.55 99.2 10.8 99.35 10.05 99.5 9.3 99.8 8.55 100.05 7.8 100.45 7.15 100.85 6.45 101.3 5.8 101.8 5.15 102.4 4.55 L103.65 3.3 Q104.45 2.5 105.4 1.85 106.35 1.25 107.35 0.85 108.4 0.4 109.45 0.2 110.55 0.0 111.6 0.0 112.7 0.0 113.75 0.2 114.85 0.45 115.85 0.85 116.9 1.25 117.85 1.85 118.8 2.5 119.6 3.3 L119.6 3.3 Q120.4 4.1 121.05 5.05 121.65 6.0 122.05 7.05 122.5 8.05 122.7 9.1 122.9 10.2 122.9 11.3 122.9 12.35 122.7 13.45 122.45 14.5 122.05 15.55 121.65 16.55 121.05 17.5 120.4 18.45 119.6 19.25 L118.35 20.5 Q117.75 21.1 117.1 21.6 116.45 22.05 115.75 22.45 115.05 22.8 114.3 23.1 113.6 23.35 112.85 23.55 112.05 23.7 111.3 23.8 110.55 23.85 109.75 23.8 109.0 23.75 108.25 23.6 107.45 23.5 106.75 23.25 L54.15 78.95 66.55 91.35 Q66.85 91.65 67.05 92.0 67.3 92.3 67.45 92.65 67.55 93.05 67.65 93.4 67.7 93.8 67.7 94.15 67.7 94.55 67.65 94.95 67.6 95.3 67.45 95.65 67.3 96.05 67.05 96.35 66.85 96.7 66.55 96.95 L49.05 114.5 Q47.0 116.55 44.55 118.15 42.2 119.75 39.55 120.8 36.95 121.85 34.2 122.35 31.5 122.9 28.7 122.9 25.95 122.9 23.2 122.35 20.45 121.85 17.9 120.8 15.25 119.75 12.9 118.15 10.45 116.55 8.4 114.5 L8.4 114.5 Q6.35 112.45 4.7 110.0 3.15 107.65 2.1 105.0 1.05 102.4 0.5 99.7 0.0 96.95 0.0 94.2 0.0 91.4 0.5 88.7 1.05 85.95 2.1 83.35 3.15 80.7 4.7 78.35 6.3 75.9 8.4 73.85 L25.65 56.55 Q25.95 56.25 26.35 56.0 26.7 55.75 27.1 55.6 27.5 55.45 27.9 55.4 28.3 55.3 28.7 55.3 29.15 55.3 29.55 55.4 29.95 55.45 30.35 55.6 30.75 55.75 31.1 56.0 31.45 56.25 31.75 56.55 L31.75 56.55 M114.8 8.1 L114.8 8.1 Q115.15 8.45 115.45 8.9 115.7 9.3 115.9 9.75 116.05 10.2 116.15 10.7 116.25 11.15 116.25 11.65 116.25 12.1 116.15 12.6 116.05 13.05 115.85 13.5 115.7 13.95 115.4 14.4 115.15 14.8 114.8 15.15 L114.2 15.7 Q113.85 16.05 113.45 16.35 113.0 16.6 112.55 16.8 112.1 17.0 111.65 17.1 111.15 17.2 110.7 17.2 110.2 17.2 109.75 17.1 109.25 17.0 108.8 16.8 108.35 16.65 107.95 16.35 107.5 16.1 107.15 15.7 L107.15 15.7 Q106.8 15.35 106.5 14.95 106.25 14.5 106.05 14.05 105.9 13.6 105.8 13.15 105.7 12.7 105.7 12.2 105.7 11.7 105.8 11.25 105.9 10.75 106.05 10.3 106.25 9.85 106.5 9.45 106.8 9.05 107.15 8.65 L107.7 8.1 Q108.05 7.75 108.5 7.45 108.9 7.2 109.35 7.0 109.8 6.85 110.3 6.75 110.75 6.65 111.25 6.65 111.75 6.65 112.2 6.75 112.7 6.85 113.15 7.0 113.6 7.2 114.0 7.45 114.4 7.75 114.8 8.1 L114.8 8.1" fill="#ffffff" fill-rule="evenodd" stroke="none"/>
  </g>
</svg>
