<?xml version="1.0" encoding="UTF-8" standalone="no"?>
<svg xmlns:xlink="http://www.w3.org/1999/xlink" height="115.4px" width="115.2px" xmlns="http://www.w3.org/2000/svg">
  <g transform="matrix(1.0, 0.0, 0.0, 1.0, 0.0, 0.0)">
    <path d="M111.8 106.85 L108.05 113.8 Q97.2 104.7 89.1 96.65 81.65 89.2 76.25 82.45 71.45 76.4 68.1 70.6 65.25 65.65 63.15 60.35 61.7 56.6 60.05 51.1 57.85 43.7 57.3 42.1 55.6 37.0 53.55 32.75 50.95 27.5 47.3 22.35 46.4 21.15 43.95 18.3 42.85 17.0 41.7 15.7 41.7 15.7 41.65 15.9 41.6 16.1 41.55 16.35 41.45 16.7 41.35 17.05 41.25 17.5 41.1 17.85 40.95 18.3 40.85 18.65 40.7 19.1 40.55 19.35 40.4 19.7 40.25 19.85 40.1 20.05 40.0 20.05 33.75 20.2 28.3 21.95 23.35 23.45 19.1 26.25 15.25 28.75 12.05 32.25 9.25 35.25 6.95 39.0 5.05 42.15 3.5 45.7 2.3 48.55 1.4 51.55 0.75 53.7 0.3 55.65 0.2 56.45 0.05 57.2 -0.1 52.8 0.35 48.75 0.75 44.75 1.65 41.1 2.6 37.45 4.05 34.2 5.5 31.0 7.45 28.1 9.4 25.25 11.85 22.75 14.3 20.25 17.25 18.1 20.2 15.95 23.65 14.1 27.05 12.3 30.95 10.85 30.95 10.85 31.15 10.8 31.4 10.75 31.6 10.7 32.0 10.65 32.3 10.6 32.75 10.5 33.15 10.4 33.6 10.3 34.05 10.2 34.5 10.05 34.85 9.95 35.25 9.85 35.55 9.7 35.85 9.55 36.0 9.45 L33.65 6.75 Q33.9 6.3 33.95 5.75 34.05 5.3 34.0 4.85 33.95 4.4 33.8 3.95 33.7 3.6 33.5 3.05 33.25 2.3 33.25 2.25 33.1 1.8 33.0 1.45 32.95 1.05 33.0 0.75 33.0 0.4 33.2 0.05 33.65 -0.05 34.1 0.0 34.5 0.05 34.95 0.2 35.3 0.35 35.8 0.6 36.05 0.75 36.6 1.05 37.15 1.35 37.4 1.5 37.85 1.75 38.25 1.9 38.7 2.0 39.05 2.05 39.5 2.05 39.9 1.9 L46.2 8.3 Q46.2 8.3 46.2 8.35 46.15 8.4 46.15 8.5 46.15 8.6 46.15 8.7 46.15 8.85 46.15 9.0 46.15 9.15 46.15 9.3 46.2 9.45 46.25 9.65 46.3 9.8 46.4 10.0 46.5 10.2 46.65 10.35 46.75 10.45 46.9 10.55 47.0 10.65 47.15 10.75 47.3 10.8 47.45 10.85 47.55 10.9 47.7 10.9 47.8 10.95 47.95 10.95 48.05 10.95 48.15 10.95 48.2 10.95 48.25 10.95 48.3 10.95 48.3 10.95 L50.45 13.65 Q55.15 20.15 58.5 26.45 61.3 31.65 63.55 37.4 64.9 40.85 67.05 47.3 69.15 53.65 70.4 56.85 72.45 62.2 75.05 66.85 78.2 72.4 82.55 78.0 87.45 84.25 94.3 91.1 101.75 98.45 111.8 106.85" fill="#ffffff" fill-rule="evenodd" stroke="none"/>
  </g>
</svg>
