<?xml version="1.0" encoding="UTF-8" standalone="no"?>
<svg xmlns:xlink="http://www.w3.org/1999/xlink" height="115.4px" width="115.2px" xmlns="http://www.w3.org/2000/svg">
  <g transform="matrix(1.0, 0.0, 0.0, 1.0, 0.0, 0.0)">
    <path d="M115.35 105.8 L115.35 105.8 105.45 115.35 42.5 52.35 Q42.5 52.4 42.5 52.15 42.45 51.85 42.4 51.55 42.35 51.1 42.25 50.65 42.2 50.1 42.05 49.6 41.95 49.0 41.75 48.45 41.6 47.8 41.35 47.3 41.15 46.7 40.85 46.2 40.55 45.7 40.2 45.3 37.35 41.95 34.45 38.6 L28.5 37.1 20.0 39.9 3.25 9.2 0.0 0.0 9.75 3.2 40.1 21.0 36.45 29.05 38.4 33.6 Q38.4 33.6 41.65 36.4 45.15 39.45 46.2 40.55 46.55 40.9 47.05 41.2 47.5 41.45 48.0 41.65 48.45 41.85 49.0 42.0 49.45 42.15 49.95 42.25 50.4 42.35 50.85 42.45 51.2 42.5 51.55 42.5 51.8 42.55 52.05 42.55 52.1 42.55 52.2 42.55 L115.35 105.8" fill="#ffffff" fill-rule="evenodd" stroke="none"/>
  </g>
</svg>
