<?xml version="1.0" encoding="UTF-8" standalone="no"?>
<svg xmlns:xlink="http://www.w3.org/1999/xlink" height="130.0px" width="135.0px" xmlns="http://www.w3.org/2000/svg">
  <g transform="matrix(1.0, 0.0, 0.0, 1.0, 0.0, 0.0)">
    <path d="M91.15 24.25 Q91.15 26.7 90.65 29.05 90.2 31.35 89.3 33.5 88.4 35.6 87.1 37.55 85.85 39.4 84.2 41.05 82.6 42.65 80.7 43.95 78.8 45.25 76.65 46.15 74.5 47.05 72.2 47.5 69.85 48.0 67.45 48.0 65.0 48.0 62.65 47.5 60.35 47.05 58.2 46.15 56.1 45.25 54.2 43.95 52.3 42.65 50.65 41.05 49.05 39.45 47.8 37.55 46.5 35.6 45.6 33.5 44.7 31.35 44.2 29.05 43.75 26.7 43.75 24.25 43.75 21.85 44.2 19.5 44.7 17.2 45.6 15.05 46.5 12.9 47.8 11.0 49.05 9.1 50.7 7.5 52.3 5.9 54.2 4.6 56.1 3.3 58.2 2.4 60.35 1.5 62.65 1.05 65.0 0.55 67.45 0.55 69.85 0.55 72.25 1.05 74.5 1.5 76.7 2.4 78.8 3.3 80.7 4.6 82.6 5.9 84.2 7.5 85.85 9.1 87.1 11.0 88.4 12.9 89.3 15.05 90.2 17.2 90.7 19.5 91.15 21.85 91.15 24.25" fill="#ffffff" fill-rule="evenodd" stroke="none"/>
    <path d="M48.25 105.3 Q48.25 107.75 47.75 110.1 47.3 112.4 46.4 114.55 45.5 116.65 44.2 118.55 42.9 120.45 41.3 122.05 39.7 123.7 37.8 124.95 35.9 126.25 33.75 127.15 31.6 128.05 29.3 128.55 26.95 129.0 24.55 129.0 22.1 129.0 19.75 128.5 17.45 128.05 15.3 127.15 13.2 126.25 11.3 124.95 9.4 123.7 7.75 122.05 6.15 120.45 4.85 118.55 3.55 116.65 2.7 114.55 1.75 112.4 1.3 110.1 0.8 107.75 0.8 105.3 0.8 102.9 1.3 100.5 1.75 98.25 2.65 96.05 3.55 93.95 4.85 92.05 6.15 90.15 7.75 88.55 9.4 86.9 11.25 85.65 13.2 84.35 15.3 83.45 17.45 82.55 19.75 82.05 22.1 81.6 24.55 81.6 26.95 81.6 29.3 82.1 31.6 82.55 33.75 83.45 35.9 84.35 37.8 85.65 39.7 86.9 41.3 88.55 42.9 90.15 44.2 92.05 45.5 93.95 46.4 96.05 47.3 98.25 47.75 100.5 48.25 102.9 48.25 105.3" fill="#ffffff" fill-rule="evenodd" stroke="none"/>
    <path d="M133.8 88.1 Q133.8 90.5 133.3 92.85 132.85 95.15 131.95 97.3 131.05 99.45 129.75 101.35 128.45 103.25 126.85 104.85 125.25 106.45 123.35 107.75 121.4 109.05 119.3 109.95 117.15 110.85 114.85 111.3 112.5 111.8 110.1 111.8 107.65 111.8 105.3 111.3 103.0 110.85 100.85 109.95 98.75 109.05 96.8 107.75 94.95 106.45 93.3 104.85 91.7 103.25 90.4 101.35 89.1 99.45 88.2 97.3 87.3 95.15 86.85 92.85 86.35 90.5 86.35 88.1 86.35 85.65 86.85 83.3 87.3 81.0 88.2 78.85 89.1 76.75 90.4 74.85 91.7 72.95 93.3 71.3 94.9 69.7 96.8 68.4 98.75 67.1 100.85 66.25 103.0 65.3 105.3 64.85 107.65 64.35 110.1 64.35 112.5 64.35 114.85 64.85 117.15 65.3 119.3 66.2 121.45 67.1 123.35 68.4 125.25 69.7 126.85 71.3 128.45 72.95 129.75 74.8 131.05 76.75 131.95 78.85 132.85 81.0 133.3 83.3 133.8 85.65 133.8 88.1" fill="#ffffff" fill-rule="evenodd" stroke="none"/>
  </g>
</svg>
