<?xml version="1.0" encoding="UTF-8" standalone="no"?>
<svg xmlns:xlink="http://www.w3.org/1999/xlink" height="52.5px" width="126.95px" xmlns="http://www.w3.org/2000/svg">
  <g transform="matrix(1.0, 0.0, 0.0, 1.0, 19.3, 7.7)">
    <path d="M19.05 -7.7 Q24.95 -3.7 19.05 1.05 L11.75 2.15 Q6.3 3.1 1.35 4.5 -11.35 7.95 -15.4 12.4 -17.0 10.55 -17.2 8.55 L-17.25 8.1 Q-17.25 0.9 1.35 -4.25 6.3 -5.6 11.75 -6.55 L19.05 -7.7 M87.0 -4.25 Q105.55 0.9 105.55 8.1 L105.55 8.7 Q105.35 10.65 103.7 12.4 99.7 7.95 87.0 4.5 78.85 2.3 69.25 1.05 64.65 -3.5 69.25 -7.7 78.85 -6.45 87.0 -4.25 M45.1 19.05 Q42.7 19.05 40.9 21.45 39.2 23.8 39.2 27.1 L39.2 27.35 Q39.3 30.55 40.9 32.85 42.7 35.2 45.1 35.2 47.45 35.2 49.1 32.85 50.8 30.55 50.85 27.3 L50.85 27.1 Q50.85 23.8 49.1 21.45 47.45 19.05 45.1 19.05 M107.65 10.55 L107.65 28.0 Q106.95 34.85 89.05 39.7 70.5 44.8 44.15 44.8 17.9 44.8 -0.7 39.7 -19.15 34.7 -19.3 27.55 L-19.25 10.45 Q-19.1 12.5 -17.5 14.35 -15.4 16.7 -11.0 18.75 -6.9 20.7 -0.7 22.3 8.4 24.8 19.4 26.1 19.9 22.3 22.75 19.5 26.1 16.1 30.9 16.1 L31.0 16.1 Q32.1 13.45 34.2 11.4 38.5 7.0 44.7 7.0 50.75 7.0 55.05 11.4 57.1 13.35 58.15 15.8 62.85 15.8 66.25 19.15 69.15 22.1 69.6 26.05 80.2 24.75 89.05 22.3 95.25 20.7 99.4 18.75 103.7 16.7 105.8 14.35 107.4 12.6 107.65 10.55" fill="#ffffff" fill-rule="evenodd" stroke="none"/>
  </g>
</svg>
