<?xml version="1.0" encoding="UTF-8" standalone="no"?>
<svg xmlns:xlink="http://www.w3.org/1999/xlink" height="117.9px" width="115.7px" xmlns="http://www.w3.org/2000/svg">
  <g transform="matrix(1.0, 0.0, 0.0, 1.0, -1.45, -16.05)">
    <path d="M115.95 48.75 L65.05 86.0 Q54.3 73.1 39.25 67.2 L69.35 16.1 Q107.9 14.7 115.85 48.2 L115.95 48.75 M117.15 61.15 L64.75 98.15 Q65.7 109.7 68.7 116.85 70.8 121.5 67.95 124.1 64.35 126.9 60.25 124.85 53.9 116.75 53.65 107.15 L33.9 132.4 Q30.6 134.85 27.2 133.4 23.7 131.95 24.4 126.0 L39.85 107.1 20.5 123.7 Q16.65 126.3 14.1 123.75 11.6 121.3 13.75 117.4 L30.45 103.0 10.15 113.4 Q5.0 113.9 3.6 110.55 2.3 106.9 5.0 104.95 L22.2 95.7 6.2 100.0 Q1.5 98.35 1.45 95.4 1.85 92.75 4.55 90.95 L17.35 86.9 19.7 85.9 21.05 84.2 Q29.95 100.25 46.45 105.4 L116.3 54.25 117.15 61.15 M34.6 72.5 L36.5 71.25 Q50.95 76.9 61.25 89.0 L45.95 100.25 Q31.0 95.55 23.1 80.75 27.95 75.95 34.6 72.5" fill="#ffffff" fill-rule="evenodd" stroke="none"/>
  </g>
</svg>
