<?xml version="1.0" encoding="UTF-8" standalone="no"?>
<svg xmlns:xlink="http://www.w3.org/1999/xlink" height="140.0px" width="100.0px" xmlns="http://www.w3.org/2000/svg">
  <g transform="matrix(1.0, 0.0, 0.0, 1.0, 0.0, 0.0)">
    <path d="M84.8 98.85 L84.8 93.65 84.8 93.65 Q85.3 93.5 85.8 93.25 86.3 93.05 86.75 92.75 87.2 92.5 87.6 92.15 88.05 91.85 88.45 91.5 88.85 91.1 89.2 90.75 89.55 90.35 89.85 89.9 90.15 89.45 90.4 89.0 90.7 88.5 90.9 88.05 91.1 87.55 91.3 87.05 91.45 86.5 91.55 86.0 91.65 85.45 91.7 84.95 91.75 84.4 91.75 83.9 91.75 83.35 91.7 82.8 91.65 82.3 91.55 81.75 91.45 81.25 91.25 80.75 91.1 80.2 90.9 79.7 90.7 79.2 90.4 78.75 90.15 78.3 89.85 77.85 89.55 77.4 89.2 77.0 88.85 76.6 88.45 76.25 88.05 75.9 87.6 75.6 87.2 75.25 86.75 75.0 86.3 74.7 85.8 74.5 85.3 74.25 84.8 74.1 L84.8 65.2 Q85.7 64.55 86.65 63.85 87.75 63.0 88.8 62.15 90.0 61.1 91.1 60.1 92.3 58.9 93.35 57.75 94.55 56.45 95.45 55.2 96.45 53.8 97.15 52.45 97.9 51.0 98.3 49.55 98.7 48.05 98.7 46.65 98.7 45.7 98.6 44.85 98.55 43.95 98.35 43.15 98.2 42.3 97.9 41.55 97.65 40.8 97.3 40.1 96.95 39.45 96.55 38.8 96.1 38.2 95.6 37.7 95.1 37.15 94.55 36.7 94.0 36.3 93.35 35.95 L93.35 35.95 Q92.85 35.7 92.35 35.5 91.8 35.3 91.25 35.2 90.75 35.05 90.2 34.95 89.65 34.9 89.1 34.85 88.55 34.85 88.0 34.85 87.5 34.9 86.95 34.95 86.4 35.05 85.85 35.2 85.3 35.35 84.8 35.5 L84.8 31.65 Q84.8 30.85 84.7 30.05 84.65 29.3 84.45 28.5 84.3 27.75 84.1 27.0 83.85 26.25 83.6 25.5 83.35 24.75 83.0 24.0 82.7 23.3 82.35 22.55 82.05 21.9 81.65 21.1 81.45 20.65 80.95 19.7 80.55 18.9 80.35 18.5 80.05 17.85 79.8 17.3 79.5 16.7 79.25 16.15 79.0 15.55 78.8 15.05 78.55 14.45 78.4 13.95 78.2 13.35 78.1 12.85 77.95 12.3 77.9 11.8 77.85 11.3 77.85 10.8 77.85 10.45 77.9 10.1 78.0 9.75 78.1 9.45 78.25 9.15 78.45 8.85 78.65 8.55 78.85 8.35 79.1 8.1 79.4 7.9 79.65 7.7 79.95 7.6 80.3 7.45 80.6 7.4 80.95 7.3 81.3 7.3 81.65 7.3 82.0 7.4 82.35 7.45 82.65 7.6 83.0 7.7 83.25 7.9 83.55 8.1 83.8 8.35 84.0 8.55 84.2 8.85 84.4 9.15 84.55 9.45 84.65 9.75 84.75 10.1 84.8 10.45 84.8 10.8 84.8 11.15 84.85 11.5 84.95 11.85 85.05 12.15 85.2 12.45 85.4 12.75 85.6 13.0 85.8 13.25 86.05 13.5 86.35 13.7 86.6 13.85 86.95 14.0 87.25 14.15 87.6 14.2 87.95 14.25 88.3 14.25 88.65 14.25 89.0 14.2 89.35 14.1 89.65 14.0 89.95 13.85 90.25 13.65 90.5 13.5 90.75 13.25 91.0 13.0 91.15 12.75 91.35 12.45 91.5 12.15 91.6 11.85 91.7 11.5 91.75 11.15 91.75 10.8 91.75 10.1 91.65 9.4 91.55 8.75 91.4 8.05 91.2 7.4 90.95 6.8 90.7 6.15 90.35 5.6 90.0 5.0 89.6 4.45 89.2 3.9 88.7 3.45 88.25 2.95 87.7 2.5 87.15 2.1 86.55 1.75 85.95 1.4 85.3 1.15 84.65 0.9 84.0 0.7 83.35 0.55 82.65 0.45 82.0 0.35 81.3 0.35 80.65 0.35 79.95 0.45 79.3 0.55 78.65 0.7 78.0 0.9 77.35 1.15 76.7 1.4 76.1 1.75 75.5 2.1 74.95 2.5 74.4 2.95 73.9 3.45 73.45 3.9 73.05 4.45 72.6 5.0 72.3 5.55 71.95 6.15 71.7 6.8 71.4 7.4 71.25 8.05 71.05 8.75 70.95 9.4 70.9 10.1 70.9 10.8 70.9 11.6 71.0 12.4 71.05 13.15 71.2 13.95 71.4 14.7 71.6 15.5 71.8 16.2 72.1 17.0 72.35 17.7 72.7 18.45 72.95 19.15 73.35 19.95 73.65 20.55 74.0 21.35 74.25 21.85 74.75 22.8 75.15 23.6 75.35 24.0 75.65 24.65 75.9 25.15 76.2 25.8 76.4 26.3 76.7 26.9 76.9 27.45 77.1 28.0 77.3 28.55 77.45 29.1 77.6 29.6 77.7 30.15 77.75 30.65 77.85 31.2 77.85 31.65 L77.85 35.5 Q77.35 35.3 76.8 35.2 76.25 35.05 75.7 34.95 75.15 34.9 74.6 34.85 74.1 34.85 73.55 34.85 73.0 34.9 72.45 34.95 71.9 35.05 71.35 35.2 70.85 35.3 70.35 35.5 69.8 35.7 69.3 35.95 68.65 36.3 68.1 36.75 67.5 37.15 67.0 37.7 66.5 38.2 66.1 38.8 65.7 39.45 65.35 40.1 65.0 40.8 64.7 41.55 64.45 42.3 64.3 43.15 64.1 43.95 64.0 44.8 63.9 45.7 63.9 46.65 63.9 48.1 64.35 49.6 64.75 51.0 65.5 52.45 66.2 53.8 67.2 55.2 68.1 56.45 69.25 57.75 70.3 58.9 71.55 60.1 72.65 61.1 73.85 62.15 74.9 63.0 76.0 63.85 76.9 64.55 77.85 65.2 L77.85 74.1 77.85 74.1 Q77.35 74.25 76.85 74.5 76.35 74.7 75.9 75.0 75.45 75.25 75.0 75.6 74.6 75.9 74.2 76.25 73.8 76.65 73.45 77.0 73.1 77.4 72.8 77.85 72.5 78.3 72.25 78.75 71.95 79.25 71.75 79.7 71.55 80.2 71.35 80.7 71.2 81.25 71.1 81.75 71.0 82.3 70.95 82.8 70.9 83.35 70.9 83.85 70.9 84.4 70.95 84.95 71.0 85.45 71.1 86.0 71.2 86.5 71.35 87.0 71.55 87.55 71.75 88.05 71.95 88.55 72.25 89.0 72.5 89.45 72.8 89.9 73.1 90.35 73.45 90.75 73.8 91.15 74.2 91.5 74.6 91.85 75.0 92.15 75.45 92.5 75.9 92.75 76.35 93.05 76.85 93.25 77.35 93.5 77.85 93.65 L77.85 98.85 Q76.5 99.7 75.3 101.2 74.15 102.6 73.1 104.5 72.15 106.3 71.3 108.45 70.55 110.45 69.85 112.7 69.25 114.7 68.75 116.85 68.3 118.75 68.0 120.65 67.7 122.3 67.55 123.7 67.4 124.95 67.4 125.65 67.4 126.55 67.5 127.5 67.65 128.4 67.9 129.25 68.1 130.15 68.45 131.0 68.8 131.8 69.25 132.6 69.7 133.4 70.25 134.1 70.8 134.8 71.45 135.45 72.1 136.1 72.85 136.65 73.55 137.25 74.35 137.7 75.15 138.15 76.0 138.5 76.85 138.85 77.75 139.1 78.6 139.3 79.5 139.45 80.4 139.55 81.3 139.55 82.2 139.55 83.1 139.45 84.0 139.3 84.9 139.1 85.8 138.85 86.6 138.5 87.5 138.15 88.3 137.7 89.1 137.25 89.85 136.65 90.55 136.1 91.2 135.45 91.85 134.8 92.4 134.1 92.95 133.4 93.4 132.6 93.85 131.8 94.2 131.0 94.5 130.15 94.75 129.25 95.0 128.4 95.1 127.5 95.25 126.55 95.25 125.65 95.25 124.95 95.1 123.7 94.95 122.3 94.65 120.65 94.3 118.8 93.9 116.85 93.4 114.7 92.8 112.7 92.1 110.45 91.35 108.45 90.5 106.3 89.55 104.5 88.5 102.6 87.35 101.2 86.15 99.7 84.8 98.85 L84.8 98.85 84.8 98.85" fill="#ffffff" fill-rule="evenodd" stroke="none"/>
    <path d="M36.1 46.65 Q36.1 45.7 36.0 44.85 35.9 43.95 35.75 43.15 35.55 42.3 35.3 41.55 35.0 40.8 34.65 40.1 34.35 39.45 33.9 38.8 33.5 38.2 33.0 37.7 32.5 37.15 31.9 36.7 31.35 36.3 30.7 35.95 30.2 35.7 29.7 35.5 29.15 35.35 28.65 35.2 28.1 35.05 27.55 34.95 27.0 34.9 26.45 34.85 25.95 34.85 25.4 34.85 24.85 34.9 24.3 34.95 23.75 35.05 23.2 35.2 22.7 35.35 22.15 35.5 L22.15 31.7 Q22.15 30.9 22.05 30.1 22.0 29.3 21.8 28.55 21.65 27.8 21.45 27.0 21.25 26.25 20.95 25.5 20.7 24.8 20.35 24.0 20.05 23.3 19.7 22.55 19.4 21.9 19.0 21.1 18.8 20.65 18.3 19.7 17.9 18.85 17.7 18.5 17.4 17.85 17.15 17.3 16.85 16.7 16.6 16.15 16.35 15.55 16.15 15.05 15.95 14.45 15.75 13.95 15.6 13.35 15.45 12.85 15.35 12.3 15.25 11.8 15.2 11.3 15.2 10.8 15.2 10.45 15.25 10.1 15.35 9.75 15.45 9.45 15.6 9.15 15.8 8.85 16.0 8.55 16.2 8.35 16.45 8.1 16.75 7.9 17.0 7.7 17.35 7.6 17.65 7.45 18.0 7.4 18.35 7.3 18.7 7.3 19.05 7.3 19.4 7.4 19.75 7.45 20.05 7.6 20.35 7.7 20.65 7.9 20.9 8.1 21.15 8.35 21.4 8.55 21.55 8.85 21.75 9.15 21.9 9.45 22.0 9.75 22.1 10.1 22.15 10.45 22.15 10.8 22.15 11.15 22.2 11.5 22.3 11.85 22.45 12.15 22.55 12.45 22.75 12.75 22.95 13.0 23.2 13.25 23.4 13.5 23.7 13.7 24.0 13.85 24.3 14.0 24.6 14.15 24.95 14.2 25.3 14.3 25.65 14.3 26.0 14.3 26.35 14.2 26.7 14.15 27.0 14.0 27.3 13.9 27.6 13.7 27.85 13.5 28.1 13.25 28.35 13.0 28.55 12.75 28.7 12.45 28.85 12.15 29.0 11.85 29.05 11.5 29.1 11.15 29.1 10.8 29.1 10.1 29.0 9.4 28.95 8.75 28.75 8.05 28.6 7.4 28.3 6.8 28.05 6.15 27.7 5.6 27.4 5.0 26.95 4.45 26.55 3.9 26.1 3.45 25.6 2.95 25.05 2.55 24.5 2.1 23.9 1.75 23.3 1.4 22.65 1.15 22.0 0.9 21.35 0.7 20.7 0.55 20.05 0.45 19.35 0.35 18.7 0.35 18.0 0.35 17.35 0.45 16.65 0.55 16.0 0.7 15.35 0.9 14.7 1.15 14.05 1.4 13.45 1.75 12.85 2.1 12.3 2.5 11.75 2.95 11.3 3.45 10.8 3.9 10.4 4.45 10.0 5.0 9.65 5.6 9.3 6.15 9.05 6.8 8.8 7.4 8.6 8.05 8.4 8.75 8.35 9.4 8.25 10.1 8.25 10.8 8.25 11.6 8.35 12.4 8.4 13.15 8.6 13.95 8.75 14.7 8.95 15.5 9.2 16.2 9.45 17.0 9.7 17.7 10.05 18.45 10.35 19.15 10.7 19.95 11.0 20.55 11.4 21.35 11.6 21.85 12.1 22.8 12.5 23.6 12.7 24.0 13.0 24.65 13.25 25.15 13.55 25.8 13.8 26.3 14.05 26.9 14.25 27.45 14.45 28.0 14.65 28.55 14.8 29.1 14.95 29.6 15.05 30.15 15.15 30.65 15.2 31.2 15.2 31.7 L15.2 35.5 Q14.7 35.3 14.15 35.2 13.6 35.05 13.05 34.95 12.55 34.9 12.0 34.85 11.45 34.85 10.9 34.85 10.35 34.9 9.8 34.95 9.25 35.05 8.75 35.2 8.2 35.3 7.7 35.5 7.15 35.7 6.65 35.95 6.0 36.3 5.45 36.75 4.85 37.15 4.35 37.7 3.9 38.2 3.45 38.8 3.05 39.45 2.7 40.1 2.35 40.8 2.1 41.55 1.8 42.3 1.65 43.15 1.45 43.95 1.35 44.85 1.3 45.7 1.3 46.65 1.3 48.1 1.7 49.6 2.1 51.0 2.85 52.45 3.55 53.8 4.55 55.2 5.45 56.45 6.65 57.75 7.7 58.9 8.9 60.1 10.0 61.1 11.2 62.15 12.25 63.0 13.35 63.85 14.3 64.55 15.2 65.2 L15.2 74.1 15.2 74.1 Q14.7 74.25 14.2 74.5 13.7 74.7 13.25 75.0 12.8 75.25 12.4 75.6 11.95 75.9 11.55 76.25 11.2 76.65 10.8 77.05 10.45 77.4 10.15 77.85 9.85 78.3 9.6 78.75 9.3 79.25 9.1 79.7 8.9 80.2 8.7 80.7 8.55 81.25 8.45 81.75 8.35 82.3 8.3 82.8 8.25 83.35 8.25 83.85 8.25 84.4 8.3 84.95 8.35 85.45 8.45 86.0 8.55 86.5 8.75 87.0 8.9 87.55 9.1 88.05 9.3 88.55 9.6 89.0 9.85 89.45 10.15 89.9 10.45 90.35 10.8 90.75 11.15 91.15 11.55 91.5 11.95 91.85 12.4 92.15 12.8 92.5 13.25 92.75 13.7 93.05 14.2 93.25 14.7 93.5 15.2 93.7 L15.2 98.85 Q13.85 99.7 12.65 101.2 11.5 102.6 10.45 104.5 9.5 106.3 8.65 108.45 7.9 110.45 7.2 112.7 6.6 114.7 6.1 116.85 5.7 118.75 5.35 120.65 5.05 122.3 4.9 123.7 4.75 124.95 4.75 125.65 4.75 126.55 4.9 127.5 5.0 128.4 5.25 129.25 5.5 130.15 5.8 131.0 6.15 131.8 6.6 132.6 7.1 133.4 7.65 134.1 8.2 134.8 8.8 135.45 9.45 136.1 10.2 136.65 10.9 137.25 11.7 137.7 12.5 138.15 13.35 138.5 14.2 138.85 15.1 139.1 16.0 139.35 16.9 139.45 17.75 139.55 18.7 139.55 19.6 139.55 20.5 139.45 21.4 139.3 22.25 139.1 23.15 138.85 24.0 138.5 24.85 138.15 25.65 137.7 26.45 137.25 27.2 136.65 27.9 136.1 28.55 135.45 29.2 134.8 29.75 134.1 30.3 133.4 30.75 132.6 31.2 131.8 31.55 131.0 31.9 130.15 32.1 129.25 32.35 128.4 32.5 127.5 32.6 126.55 32.6 125.65 32.6 124.95 32.45 123.7 32.3 122.3 32.0 120.65 31.7 118.8 31.25 116.85 30.75 114.7 30.15 112.7 29.5 110.45 28.7 108.45 27.85 106.3 26.9 104.5 25.85 102.6 24.75 101.2 23.5 99.7 22.15 98.85 L22.15 93.65 22.15 93.7 Q22.65 93.5 23.15 93.3 23.65 93.05 24.1 92.75 24.55 92.5 25.0 92.2 25.4 91.85 25.8 91.5 26.2 91.15 26.55 90.75 26.9 90.35 27.2 89.9 27.5 89.45 27.75 89.0 28.05 88.5 28.25 88.05 28.45 87.55 28.65 87.05 28.8 86.5 28.9 86.0 29.0 85.45 29.05 84.95 29.1 84.4 29.1 83.9 29.1 83.35 29.05 82.8 29.0 82.3 28.9 81.75 28.8 81.25 28.65 80.75 28.45 80.2 28.25 79.7 28.05 79.2 27.75 78.75 27.5 78.3 27.2 77.85 26.9 77.4 26.55 77.0 26.2 76.6 25.8 76.25 25.4 75.9 25.0 75.6 24.55 75.25 24.1 75.0 23.65 74.7 23.15 74.5 22.65 74.25 22.15 74.1 L22.15 65.2 Q23.05 64.55 24.0 63.85 25.1 63.0 26.15 62.15 27.35 61.1 28.45 60.1 29.7 58.9 30.75 57.75 31.9 56.45 32.8 55.2 33.8 53.8 34.5 52.45 35.25 51.0 35.65 49.6 36.1 48.05 36.1 46.65 L36.1 46.65 36.1 46.65" fill="#ffffff" fill-rule="evenodd" stroke="none"/>
  </g>
</svg>
