<?xml version="1.0" encoding="UTF-8" standalone="no"?>
<svg xmlns:xlink="http://www.w3.org/1999/xlink" height="101.45px" width="126.05px" xmlns="http://www.w3.org/2000/svg">
  <g transform="matrix(1.0, 0.0, 0.0, 1.0, 1.05, -15.35)">
    <path d="M56.1 81.85 Q59.15 80.8 61.4 78.85 63.35 80.55 65.95 81.6 75.0 85.15 91.5 80.65 75.35 80.2 65.0 74.1 L61.9 49.3 57.45 74.2 Q47.15 80.2 31.25 80.65 47.1 85.0 56.1 81.85 M87.0 24.15 Q90.3 19.9 95.15 17.35 121.05 29.05 125.0 52.75 L108.95 52.75 105.6 75.55 Q99.1 80.25 98.15 91.8 97.2 103.25 92.55 110.35 L90.3 113.45 Q61.8 120.2 33.3 113.45 L31.15 110.35 Q26.4 103.3 25.5 91.8 24.55 80.3 18.0 75.6 L14.65 52.65 -1.05 52.65 Q2.85 29.0 28.75 17.3 33.6 19.85 36.95 24.1 37.65 6.65 47.7 24.1 L47.7 30.5 Q47.7 34.7 51.15 37.65 54.6 40.65 59.4 40.65 L64.15 40.65 Q69.05 40.65 72.5 37.65 76.0 34.7 76.0 30.5 L76.0 24.05 Q86.0 6.65 86.75 24.1 L87.0 24.15" fill="#ffffff" fill-rule="evenodd" stroke="none"/>
  </g>
</svg>
