<?xml version="1.0" encoding="UTF-8" standalone="no"?>
<svg xmlns:xlink="http://www.w3.org/1999/xlink" height="87.4px" width="127.35px" xmlns="http://www.w3.org/2000/svg">
  <g transform="matrix(1.0, 0.0, 0.0, 1.0, 1.7, -23.3)">
    <path d="M96.55 32.15 Q97.65 53.65 96.55 75.75 93.75 79.9 93.15 86.8 L93.1 87.5 Q92.25 98.15 88.25 104.7 L86.35 107.55 Q61.8 113.9 37.3 107.55 L35.4 104.7 Q31.35 98.15 30.55 87.5 L30.5 86.8 Q29.85 80.25 27.35 76.1 26.2 53.7 27.3 32.0 32.8 27.35 40.35 24.8 L44.35 24.15 Q47.0 44.75 61.25 59.85 74.4 44.45 78.3 24.1 L83.3 24.8 Q90.9 27.4 96.55 32.15 M103.6 39.2 L104.5 40.6 125.65 65.9 108.5 82.55 100.25 72.55 Q101.15 53.55 100.25 35.05 L103.6 39.2 M50.05 23.85 Q61.45 22.75 73.35 23.85 L74.0 23.95 Q72.05 40.9 61.3 53.15 49.7 41.15 48.95 23.95 L50.05 23.85 M20.1 39.15 Q21.65 36.9 23.55 34.9 22.65 53.5 23.6 72.55 L23.5 72.5 15.35 82.25 -1.7 65.65 19.1 40.6 20.05 39.25 20.1 39.15" fill="#ffffff" fill-rule="evenodd" stroke="none"/>
  </g>
</svg>
