<?xml version="1.0" encoding="UTF-8" standalone="no"?>
<svg xmlns:xlink="http://www.w3.org/1999/xlink" height="77.3px" width="127.3px" xmlns="http://www.w3.org/2000/svg">
  <g transform="matrix(1.0, 0.0, 0.0, 1.0, -0.3, -3.85)">
    <path d="M45.05 5.45 L49.1 4.9 49.1 5.25 Q48.25 20.9 63.8 37.5 L64.1 37.75 Q56.05 54.45 42.1 78.1 L40.65 75.85 Q37.15 70.15 36.4 60.75 L36.35 60.1 Q35.5 51.25 30.75 47.5 L15.25 65.95 0.3 51.3 26.85 19.4 27.7 18.1 Q33.95 9.2 45.05 5.45 M74.7 4.4 L75.35 4.5 Q75.45 13.45 65.8 34.2 51.2 18.85 52.2 4.5 L52.25 4.5 53.2 4.35 Q63.7 3.35 74.7 4.4 M82.85 5.45 Q94.7 9.45 101.0 19.4 L127.6 51.3 112.6 65.9 97.15 47.45 Q92.35 51.2 91.5 60.1 L91.5 60.7 Q90.75 70.15 87.2 75.85 L85.55 78.4 Q65.45 83.5 45.35 79.15 78.05 23.3 78.7 4.9 L82.85 5.45" fill="#ffffff" fill-rule="evenodd" stroke="none"/>
  </g>
</svg>
