<?xml version="1.0" encoding="UTF-8" standalone="no"?>
<svg xmlns:xlink="http://www.w3.org/1999/xlink" height="118.0px" width="94.2px" xmlns="http://www.w3.org/2000/svg">
  <g transform="matrix(1.0, 0.0, 0.0, 1.0, -28.65, -7.9)">
    <path d="M103.55 82.85 Q115.1 71.3 115.1 55.0 115.1 38.75 103.55 27.2 92.0 15.65 75.7 15.65 59.45 15.65 47.9 27.2 36.4 38.75 36.4 55.0 36.4 71.3 47.9 82.85 55.75 90.7 65.95 93.2 L64.25 94.2 64.05 94.4 Q62.55 95.35 61.2 96.8 L59.1 99.2 Q49.95 95.8 42.45 88.25 28.65 74.5 28.65 55.0 28.65 35.45 42.45 21.65 56.25 7.9 75.75 7.9 95.25 7.9 109.05 21.65 122.85 35.45 122.85 55.0 122.85 74.5 109.05 88.25 101.55 95.8 92.3 99.25 L90.3 96.9 90.1 96.8 Q89.0 95.6 87.75 94.75 L87.25 94.3 85.5 93.25 Q95.65 90.75 103.55 82.85 M65.25 101.0 L65.3 100.95 67.35 99.2 67.5 99.1 Q71.1 96.65 75.65 96.65 80.3 96.65 83.95 99.15 L84.25 99.5 Q85.2 100.05 86.0 100.95 L86.1 101.0 Q90.3 105.3 90.3 111.3 90.3 117.35 86.0 121.65 81.7 125.9 75.65 125.9 69.65 125.9 65.3 121.65 61.0 117.35 61.0 111.3 61.0 105.3 65.25 101.0 M75.65 104.55 Q72.95 104.55 70.95 106.6 69.05 108.55 69.05 111.25 69.05 114.0 70.95 115.95 72.95 117.9 75.65 117.9 78.4 117.9 80.35 115.95 82.3 114.0 82.3 111.25 82.3 108.55 80.35 106.6 78.4 104.55 75.65 104.55" fill="#ffffff" fill-rule="evenodd" stroke="none"/>
  </g>
</svg>
