<?xml version="1.0" encoding="UTF-8" standalone="no"?>
<svg xmlns:xlink="http://www.w3.org/1999/xlink" height="118.15px" width="117.2px" xmlns="http://www.w3.org/2000/svg">
  <g transform="matrix(1.0, 0.0, 0.0, 1.0, -9.9, 17.65)">
    <path d="M107.5 31.7 L106.95 30.15 76.65 41.4 78.25 68.95 59.5 68.95 61.2 41.35 31.15 30.15 30.7 31.4 Q27.5 40.1 25.5 52.05 L29.95 53.65 29.95 100.5 Q19.95 96.4 9.9 89.95 9.9 67.9 15.55 48.35 16.85 44.05 18.4 39.85 20.7 33.45 23.7 27.3 L23.95 26.7 Q37.75 -1.85 68.5 -17.65 97.45 -1.85 112.65 26.2 L113.45 27.7 Q116.5 33.65 118.95 40.1 L121.75 48.65 Q127.45 68.0 127.1 90.3 117.7 96.4 107.05 100.5 L107.05 54.05 112.7 51.95 Q110.75 40.15 107.5 31.7" fill="#ffffff" fill-rule="evenodd" stroke="none"/>
  </g>
</svg>
