<?xml version="1.0" encoding="UTF-8" standalone="no"?>
<svg xmlns:xlink="http://www.w3.org/1999/xlink" height="117.6px" width="119.5px" xmlns="http://www.w3.org/2000/svg">
  <g transform="matrix(1.0, 0.0, 0.0, 1.0, 6.3, 6.4)">
    <path d="M111.8 36.6 L108.55 38.8 97.4 46.95 Q80.6 15.85 41.15 10.1 L37.5 9.65 47.3 -5.9 Q103.1 -11.15 111.8 36.6 M112.2 40.35 Q112.95 46.4 113.2 53.3 L109.8 56.15 34.35 111.2 Q1.85 107.1 -6.3 77.3 L-2.65 78.5 Q18.0 85.65 30.7 102.8 L32.5 106.85 39.55 100.2 Q46.7 93.85 54.0 87.8 55.95 85.75 58.65 83.6 68.1 74.85 78.45 67.05 L83.45 62.95 Q94.5 53.8 108.8 42.75 L112.2 40.35 M20.85 36.95 L24.2 37.65 Q53.85 44.9 68.85 69.55 59.95 76.5 51.4 84.5 37.4 64.1 12.05 56.65 10.45 56.1 8.7 55.7 L20.85 36.95 M34.95 13.7 L38.65 14.25 Q76.85 19.9 93.15 50.5 82.95 57.8 73.2 66.35 57.65 40.6 26.3 33.6 L22.9 32.9 34.95 13.7 M0.9 74.65 L-2.45 73.6 6.15 59.8 9.5 60.75 Q33.5 68.45 47.15 88.35 40.8 93.55 35.0 98.8 22.55 81.55 0.9 74.65" fill="#ffffff" fill-rule="evenodd" stroke="none"/>
  </g>
</svg>
