<?xml version="1.0" encoding="UTF-8" standalone="no"?>
<svg xmlns:xlink="http://www.w3.org/1999/xlink" height="627.4px" width="519.7px" xmlns="http://www.w3.org/2000/svg">
  <g transform="matrix(1.0, 0.0, 0.0, 1.0, 173.65, -6.3)">
    <path d="M41.7 200.85 Q3.2 124.2 14.55 6.3 116.65 124.95 162.85 104.75 251.4 66.6 346.05 97.25 293.05 130.45 280.6 210.3 268.0 290.25 299.45 392.35 330.75 494.45 308.7 604.05 251.95 645.1 181.7 622.35 L159.6 567.5 111.6 622.35 Q-1.65 645.1 -116.5 622.35 -200.5 579.05 -161.05 510.35 -60.0 501.25 5.15 439.75 39.6 405.3 70.1 370.0 80.15 277.25 41.7 200.85" fill="#ffffff" fill-rule="evenodd" stroke="none"/>
  </g>
</svg>
