<?xml version="1.0" encoding="UTF-8" standalone="no"?>
<svg xmlns:xlink="http://www.w3.org/1999/xlink" height="109.4px" width="98.9px" xmlns="http://www.w3.org/2000/svg">
  <g transform="matrix(1.0, 0.0, 0.0, 1.0, -0.45, -12.6)">
    <path d="M87.55 84.55 Q75.85 108.65 49.9 122.0 25.5 108.65 12.65 85.0 0.0 61.1 0.45 30.9 26.0 29.05 49.9 12.6 71.15 28.55 99.35 31.2 99.35 60.5 87.55 84.55 M80.2 45.15 Q80.2 63.1 72.95 77.85 65.8 92.6 49.9 100.75 34.95 92.6 27.1 78.15 19.3 63.45 19.6 45.0 35.25 43.85 49.9 33.8 62.9 43.55 80.2 45.15 M11.6 39.1 Q11.25 62.45 21.0 81.0 31.0 99.3 49.9 109.65 70.0 99.3 79.05 80.65 88.2 62.0 88.2 39.35 66.35 37.25 49.9 24.95 31.4 37.7 11.6 39.1" fill="#ffffff" fill-rule="evenodd" stroke="none"/>
  </g>
</svg>
