<?xml version="1.0" encoding="UTF-8" standalone="no"?>
<svg xmlns:xlink="http://www.w3.org/1999/xlink" height="956.85px" width="587.5px" xmlns="http://www.w3.org/2000/svg">
  <g transform="matrix(1.0, 0.0, 0.0, 1.0, -10.4, -40.1)">
    <path d="M368.3 90.65 Q351.85 164.65 410.6 190.65 341.45 273.15 342.3 374.25 349.25 519.55 343.35 657.15 311.65 643.5 277.2 642.0 262.4 552.55 272.7 461.0 275.9 378.75 257.25 294.55 235.75 236.7 266.15 196.55 273.35 234.75 306.7 241.2 341.0 236.25 331.0 161.6 308.5 90.65 311.3 40.1 328.4 66.15 365.1 67.2 378.3 74.6 368.3 90.65 M497.2 240.55 Q416.5 365.55 442.3 416.3 479.9 485.75 519.4 431.3 533.65 412.65 530.6 389.85 582.25 453.4 524.8 492.0 414.55 553.0 427.35 632.45 443.6 691.45 432.8 728.1 420.2 712.3 406.5 699.9 L398.5 692.75 Q384.4 676.5 379.85 641.35 366.4 530.0 372.25 416.3 375.95 318.3 454.5 228.2 495.0 174.0 477.25 118.2 529.3 168.55 497.2 240.55 M10.4 247.75 Q11.4 219.15 59.35 196.3 35.9 241.2 52.45 252.3 171.1 351.05 152.7 486.2 134.9 613.3 158.1 692.55 L161.4 702.25 Q123.65 742.65 123.65 799.5 123.65 857.0 161.95 897.15 200.85 937.95 255.95 937.95 311.1 937.95 349.5 897.15 379.85 865.45 380.25 819.45 377.25 782.15 353.8 758.7 359.05 775.65 359.05 794.95 359.05 841.3 328.65 874.3 298.7 907.3 255.95 907.3 213.2 907.3 182.8 874.3 152.9 841.3 152.9 794.95 152.9 752.15 178.3 720.75 222.95 662.4 287.85 666.1 338.85 671.25 376.8 709.45 426.25 758.7 426.25 828.6 426.25 898.0 376.8 947.7 327.35 996.95 257.95 996.95 188.05 996.95 139.0 947.7 118.6 927.05 106.7 903.45 80.85 863.25 75.65 823.15 59.65 687.3 77.2 517.65 86.7 357.35 45.05 302.85 13.55 280.95 10.4 247.75 M174.8 367.5 L174.4 364.9 Q175.45 279.45 162.6 265.1 106.25 229.55 140.95 176.55 199.55 125.8 189.8 81.75 230.1 137.55 210.0 201.5 178.7 300.9 232.7 331.5 L247.7 642.85 Q218.45 645.45 187.15 656.95 L174.8 367.5 M550.8 732.25 Q553.2 943.75 409.6 963.7 488.95 889.55 493.15 760.65 497.85 631.8 597.9 555.85 549.95 625.25 550.8 732.25" fill="#ffffff" fill-rule="evenodd" stroke="none"/>
  </g>
</svg>
