<?xml version="1.0" encoding="UTF-8" standalone="no"?>
<svg xmlns:xlink="http://www.w3.org/1999/xlink" height="117.85px" width="37.25px" xmlns="http://www.w3.org/2000/svg">
  <g transform="matrix(1.0, 0.0, 0.0, 1.0, 1.0, 4.25)">
    <path d="M32.65 80.05 L32.65 66.45 2.6 66.45 2.6 80.05 32.65 80.05 M8.1 -1.05 Q7.6 -1.6 7.6 -2.35 7.6 -3.15 8.1 -3.75 8.85 -4.25 9.5 -4.25 L25.35 -4.25 Q26.15 -4.25 26.75 -3.75 27.4 -3.15 27.4 -2.35 27.4 -1.6 26.75 -1.05 26.15 -0.45 25.35 -0.45 L27.25 7.45 Q27.25 9.85 25.95 11.15 L28.05 38.15 29.8 40.7 Q36.0 50.2 36.25 54.85 L36.25 97.7 Q36.25 113.6 27.75 113.6 L7.45 113.6 Q-1.0 113.6 -1.0 97.7 L-1.0 54.85 Q-1.0 50.35 5.5 40.7 L7.1 38.15 9.3 11.45 Q7.45 10.35 7.45 7.45 L9.5 -0.45 Q8.65 -0.45 8.1 -1.05" fill="#ffffff" fill-rule="evenodd" stroke="none"/>
  </g>
</svg>
