<?xml version="1.0" encoding="UTF-8" standalone="no"?>
<svg xmlns:xlink="http://www.w3.org/1999/xlink" height="122.9px" width="122.8px" xmlns="http://www.w3.org/2000/svg">
  <g transform="matrix(1.0, 0.0, 0.0, 1.0, 0.0, 0.0)">
    <path d="M2.9 107.95 Q2.5 107.55 2.15 107.15 1.85 106.7 1.55 106.25 1.25 105.8 1.0 105.35 0.75 104.85 0.55 104.35 0.35 103.9 0.2 103.4 0.05 102.9 -0.05 102.35 -0.15 101.85 -0.2 101.35 -0.25 100.85 -0.25 100.3 -0.25 99.8 -0.2 99.3 -0.15 98.75 -0.05 98.25 0.05 97.75 0.2 97.25 0.35 96.75 0.55 96.25 0.75 95.8 1.0 95.3 1.25 94.85 1.55 94.4 1.85 93.95 2.2 93.55 2.55 93.1 2.9 92.7 3.3 92.3 3.7 91.95 4.15 91.6 4.6 91.35 5.05 91.05 5.5 90.8 6.0 90.55 6.5 90.35 6.95 90.15 7.45 90.0 7.95 89.85 8.5 89.75 9.0 89.65 9.5 89.6 10.0 89.55 10.55 89.55 11.05 89.55 11.55 89.6 12.1 89.65 12.6 89.75 13.1 89.85 13.6 90.0 14.1 90.15 14.6 90.35 15.05 90.55 15.55 90.8 16.0 91.05 16.45 91.35 16.9 91.65 17.3 91.95 17.75 92.3 18.15 92.7 18.15 92.7 18.4 93.0 L34.15 77.1 Q34.1 77.05 34.1 77.05 34.05 77.0 34.05 77.0 34.0 76.95 34.0 76.95 33.95 76.9 33.95 76.9 33.9 76.85 33.9 76.85 33.85 76.8 33.85 76.8 33.8 76.75 33.8 76.7 33.75 76.7 33.75 76.65 33.7 76.6 33.65 76.55 33.6 76.5 33.55 76.4 33.5 76.35 33.45 76.3 33.4 76.25 33.35 76.15 33.3 76.1 33.25 76.05 33.2 76.0 33.15 75.9 33.1 75.85 33.05 75.75 33.0 75.7 32.95 75.65 L32.95 75.6 Q32.65 75.2 32.45 74.75 32.25 74.35 32.05 73.95 31.9 73.55 31.8 73.15 31.65 72.75 31.6 72.35 31.55 71.95 31.5 71.5 31.5 71.15 31.5 70.7 31.5 70.35 31.55 69.95 31.6 69.55 31.7 69.15 31.8 68.75 31.9 68.4 32.0 68.0 32.1 67.6 32.25 67.25 32.4 66.9 32.55 66.5 32.7 66.15 32.85 65.8 33.05 65.4 33.2 65.05 33.4 64.7 33.55 64.35 33.75 63.95 33.9 63.7 34.15 63.25 L34.15 63.2 Q34.5 62.55 34.75 62.0 34.85 61.8 35.05 61.4 35.3 61.0 35.4 60.8 35.75 60.1 36.05 59.65 36.1 59.6 36.1 59.5 36.15 59.45 36.2 59.35 36.25 59.3 36.3 59.25 36.3 59.15 36.35 59.1 36.4 59.0 36.45 58.95 36.5 58.85 36.55 58.8 36.6 58.7 36.6 58.65 36.65 58.55 36.7 58.5 37.45 57.35 37.45 57.3 37.9 56.65 39.05 54.95 L39.05 54.95 Q39.7 53.95 40.05 53.45 40.6 52.65 41.05 52.0 41.55 51.2 41.95 50.55 42.45 49.75 42.85 49.05 43.3 48.25 43.7 47.5 44.15 46.7 44.55 45.9 44.95 45.05 45.3 44.2 45.7 43.3 46.05 42.35 46.4 41.45 46.8 40.25 47.05 39.55 47.5 38.15 47.8 37.3 48.2 36.05 48.2 36.05 48.8 33.95 51.55 24.35 53.3 19.9 53.6 19.1 53.95 18.35 54.25 17.55 54.6 16.85 54.95 16.1 55.3 15.4 55.65 14.65 56.05 14.0 56.4 13.3 56.8 12.65 57.25 11.95 57.65 11.35 58.1 10.7 58.55 10.1 59.0 9.5 59.5 8.95 60.0 8.35 60.5 7.8 61.05 7.25 61.6 6.7 62.2 6.2 62.75 5.7 63.35 5.25 64.0 4.8 64.65 4.35 65.3 3.95 65.95 3.55 66.7 3.15 67.4 2.8 68.15 2.45 68.9 2.15 69.7 1.85 70.5 1.55 71.35 1.35 72.2 1.1 73.05 0.9 73.95 0.7 74.9 0.55 75.85 0.4 76.8 0.25 77.8 0.15 78.85 0.1 79.9 0.0 81.0 0.0 82.1 0.0 83.25 0.0 84.45 0.05 85.65 0.1 86.9 0.2 87.9 0.3 88.85 0.4 90.1 0.6 90.25 0.6 90.35 0.65 90.5 0.65 90.65 0.7 90.8 0.7 90.9 0.75 91.05 0.75 91.2 0.8 91.3 0.8 91.45 0.85 91.6 0.9 91.7 0.9 91.85 0.95 91.95 0.95 92.1 1.0 92.25 1.0 93.95 1.45 94.25 1.55 94.5 1.65 94.8 1.7 95.1 1.8 95.35 1.9 95.65 2.0 95.9 2.1 96.2 2.2 96.45 2.3 96.75 2.4 97.0 2.5 97.3 2.6 97.55 2.7 97.85 2.8 98.1 2.95 98.35 3.05 98.65 3.15 98.9 3.25 99.2 3.4 99.45 3.5 99.7 3.65 100.0 3.8 100.25 3.9 100.5 4.05 100.8 4.2 101.05 4.35 101.3 4.45 101.6 4.6 101.85 4.75 102.1 4.9 102.35 5.05 102.65 5.2 102.9 5.35 103.15 5.5 103.4 5.65 103.65 5.85 103.9 6.0 104.2 6.15 104.45 6.3 104.7 6.5 104.95 6.65 105.2 6.85 105.45 7.0 105.7 7.2 105.95 7.35 106.2 7.55 106.45 7.75 106.7 7.9 106.95 8.1 107.2 8.3 107.45 8.5 107.7 8.7 107.95 8.9 108.2 9.1 108.45 9.3 108.7 9.5 108.95 9.7 109.2 9.9 109.45 10.1 109.7 10.35 109.95 10.55 110.2 10.75 110.4 11.0 110.65 11.2 110.9 11.45 110.95 11.5 111.0 11.55 111.1 11.6 111.1 11.65 L111.15 11.7 Q111.35 11.95 111.6 12.15 111.8 12.4 112.0 12.65 112.25 12.9 112.45 13.15 112.65 13.35 112.85 13.6 113.05 13.85 113.25 14.1 113.45 14.35 113.65 14.6 113.85 14.85 114.05 15.1 114.25 15.35 114.45 15.6 114.65 15.85 114.8 16.1 115.0 16.35 115.2 16.6 115.35 16.85 115.55 17.1 115.7 17.35 115.9 17.6 116.05 17.85 116.25 18.1 116.4 18.4 116.55 18.65 116.75 18.9 116.9 19.15 117.05 19.4 117.2 19.65 117.35 19.9 117.5 20.2 117.65 20.45 117.8 20.7 117.95 21.0 118.1 21.25 118.25 21.5 118.4 21.8 118.5 22.05 118.65 22.3 118.8 22.6 118.9 22.85 119.05 23.15 119.15 23.4 119.3 23.65 119.4 23.95 119.5 24.2 119.65 24.5 119.75 24.75 119.85 25.05 120.0 25.3 120.1 25.6 120.2 25.85 120.3 26.15 120.4 26.4 120.5 26.7 120.6 26.95 120.7 27.25 120.75 27.5 120.85 27.8 120.95 28.05 121.05 28.35 121.45 29.8 121.55 30.3 121.6 30.45 121.6 30.55 121.65 30.7 121.65 30.85 121.7 30.95 121.7 31.1 121.75 31.25 121.8 31.35 121.8 31.5 121.85 31.65 121.85 31.8 121.9 31.9 121.9 32.05 121.9 32.2 121.95 32.3 121.95 32.45 122.0 32.6 122.0 32.7 122.0 32.85 122.05 33.0 122.05 33.15 122.1 33.25 122.1 33.4 122.15 33.55 122.15 33.7 122.15 33.8 122.2 33.95 122.2 34.1 122.2 34.25 122.25 34.35 122.25 34.5 122.25 34.65 122.25 34.8 122.3 34.95 122.3 35.05 122.3 35.2 122.35 35.35 122.35 35.5 122.35 35.65 122.4 35.75 122.4 35.9 122.4 36.05 122.4 36.2 122.4 36.35 122.45 36.5 122.45 36.65 122.45 36.8 122.45 36.9 122.5 38.1 122.55 39.3 122.6 40.45 122.55 41.55 122.55 42.65 122.45 43.7 122.4 44.75 122.3 45.75 122.2 46.75 122.0 47.65 121.85 48.6 121.65 49.5 121.45 50.4 121.25 51.25 121.0 52.05 120.7 52.85 120.4 53.65 120.1 54.4 119.75 55.15 119.4 55.85 119.05 56.6 118.6 57.25 118.2 57.95 117.75 58.55 117.35 59.2 116.85 59.8 116.35 60.4 115.85 60.95 115.35 61.5 114.75 62.05 114.2 62.6 113.6 63.1 113.05 63.6 112.45 64.05 111.85 64.5 111.2 64.9 110.6 65.35 109.9 65.75 109.25 66.15 108.55 66.55 107.9 66.9 107.15 67.25 106.45 67.6 105.7 67.95 105.0 68.3 104.2 68.65 103.45 68.95 102.65 69.25 98.2 71.05 88.6 73.75 88.2 73.85 86.5 74.4 L86.45 74.4 Q86.05 74.5 84.4 75.05 83.55 75.3 82.35 75.7 82.3 75.75 80.2 76.5 79.75 76.7 79.25 76.85 78.8 77.05 78.35 77.25 77.95 77.45 77.5 77.6 77.1 77.8 76.65 78.0 76.25 78.2 75.85 78.4 75.45 78.6 75.05 78.85 74.65 79.05 74.3 79.25 73.9 79.45 73.55 79.7 71.6 80.8 67.65 83.45 L67.5 83.55 Q66.4 84.3 65.25 85.1 64.45 85.6 64.15 85.8 63.9 85.95 63.55 86.15 63.1 86.45 62.95 86.5 62.3 86.9 61.75 87.15 61.7 87.2 61.6 87.25 61.55 87.3 61.45 87.3 61.4 87.35 61.3 87.4 61.25 87.45 61.15 87.5 61.1 87.5 61.0 87.55 60.95 87.6 60.9 87.65 60.8 87.65 60.75 87.7 60.65 87.75 60.6 87.75 60.2 87.95 59.95 88.1 L59.35 88.4 Q58.9 88.65 58.65 88.75 58.25 89.0 57.9 89.15 57.55 89.35 57.2 89.5 56.8 89.7 56.45 89.85 56.05 90.0 55.7 90.15 55.35 90.3 54.95 90.45 54.6 90.55 54.2 90.65 53.85 90.75 53.45 90.85 53.05 90.95 52.65 91.0 52.25 91.05 51.85 91.05 51.45 91.05 51.05 91.05 50.65 91.0 50.25 90.95 49.85 90.85 49.45 90.75 49.0 90.65 48.6 90.5 48.2 90.3 47.8 90.1 47.35 89.85 46.95 89.6 46.9 89.55 46.8 89.5 46.75 89.45 46.7 89.4 46.6 89.35 46.55 89.3 46.5 89.25 46.45 89.2 46.35 89.15 46.3 89.1 46.25 89.05 46.2 89.0 46.1 88.95 46.05 88.9 46.0 88.85 45.95 88.75 45.75 88.6 45.45 88.25 L29.6 104.15 Q29.75 104.25 29.95 104.5 30.35 104.9 30.7 105.3 31.05 105.75 31.35 106.2 31.65 106.65 31.9 107.1 32.15 107.55 32.35 108.05 32.55 108.55 32.7 109.05 32.8 109.55 32.9 110.05 33.0 110.55 33.05 111.05 33.1 111.6 33.1 112.1 33.1 112.6 33.05 113.15 33.0 113.65 32.9 114.15 32.8 114.65 32.65 115.15 32.55 115.65 32.35 116.15 32.15 116.65 31.9 117.1 31.65 117.6 31.35 118.0 31.05 118.45 30.7 118.9 30.35 119.3 29.95 119.7 29.55 120.1 29.15 120.45 28.7 120.8 28.25 121.1 27.85 121.4 27.35 121.65 26.9 121.85 26.4 122.05 25.9 122.25 25.4 122.4 24.9 122.55 24.4 122.65 23.9 122.75 23.4 122.8 22.9 122.85 22.35 122.85 21.85 122.85 21.3 122.8 20.8 122.75 20.3 122.65 19.8 122.55 19.3 122.4 18.8 122.25 18.3 122.05 17.8 121.85 17.35 121.65 16.9 121.4 16.45 121.1 16.0 120.8 15.55 120.45 15.15 120.1 14.75 119.7 14.5 119.45 14.3 119.2 14.1 119.0 13.9 118.75 13.7 118.45 13.5 118.2 13.3 117.95 13.15 117.7 13.0 117.4 12.85 117.15 12.7 116.85 12.55 116.55 12.45 116.3 12.3 116.0 12.2 115.7 12.1 115.4 12.0 115.15 11.95 114.85 11.9 114.6 11.8 114.3 11.75 114.05 11.7 113.75 11.7 113.5 11.65 113.2 11.6 112.95 11.6 112.65 11.6 112.4 11.6 112.1 11.6 111.85 11.6 111.55 11.6 111.3 11.65 111.0 11.35 111.05 11.1 111.05 10.8 111.05 10.55 111.05 10.25 111.05 10.0 111.05 9.7 111.05 9.45 111.0 9.15 111.0 8.9 110.95 8.6 110.9 8.35 110.85 8.05 110.8 7.8 110.7 7.55 110.65 7.25 110.55 6.95 110.45 6.65 110.35 6.35 110.25 6.1 110.1 5.8 110.0 5.5 109.85 5.25 109.7 4.95 109.55 4.7 109.35 4.4 109.2 4.15 109.0 3.9 108.8 3.65 108.6 3.4 108.4 3.15 108.15 2.9 107.95 L2.9 107.95 2.9 107.95 M38.4 65.5 Q38.25 65.8 38.15 66.0 38.0 66.25 37.85 66.5 37.75 66.75 37.6 67.0 37.5 67.3 37.35 67.5 37.25 67.8 37.15 68.05 37.05 68.3 36.95 68.55 36.85 68.8 36.75 69.05 36.65 69.3 36.6 69.5 36.55 69.75 36.5 69.95 36.45 70.2 36.45 70.4 36.4 70.65 36.4 70.85 36.4 71.1 36.4 71.3 36.4 71.55 36.45 71.75 36.5 71.95 36.55 72.15 36.65 72.35 36.75 72.55 36.85 72.75 36.95 72.95 37.05 73.05 37.1 73.2 37.2 73.3 37.3 73.4 37.35 73.5 37.45 73.55 37.55 73.65 37.65 73.75 37.7 73.8 37.8 73.9 37.9 73.95 38.0 74.0 38.1 74.05 38.15 74.1 38.25 74.15 38.35 74.2 38.45 74.25 38.55 74.3 38.65 74.35 38.75 74.4 38.85 74.4 38.95 74.45 39.05 74.5 39.15 74.55 39.25 74.55 39.4 74.6 39.5 74.6 39.6 74.65 39.7 74.65 39.85 74.7 39.95 74.7 40.1 74.75 40.15 74.75 40.2 74.8 40.3 74.8 40.45 74.85 40.55 74.85 40.65 74.9 40.8 74.95 40.9 74.95 41.0 75.0 41.1 75.05 41.25 75.05 41.35 75.1 41.5 75.15 41.6 75.2 41.7 75.25 41.85 75.3 41.95 75.35 42.05 75.4 42.2 75.45 42.3 75.5 42.45 75.6 42.55 75.65 42.7 75.7 42.8 75.8 42.95 75.85 43.05 75.95 43.15 76.0 43.3 76.1 43.4 76.2 43.55 76.3 43.65 76.4 43.8 76.5 43.9 76.6 44.05 76.7 L44.05 76.7 Q44.15 76.8 44.25 76.9 44.4 77.0 44.5 77.1 44.6 77.25 44.7 77.35 44.85 77.45 44.95 77.6 45.05 77.75 45.15 77.85 45.25 78.0 45.35 78.15 45.5 78.3 45.6 78.45 45.7 78.6 45.8 78.75 45.9 78.9 46.0 79.1 46.1 79.25 46.2 79.4 46.3 79.6 46.4 79.8 46.5 79.95 46.6 80.15 46.7 80.35 46.8 80.55 46.9 80.8 47.0 81.0 47.1 81.2 47.2 81.45 47.3 81.65 47.35 81.9 47.85 83.15 47.9 83.2 48.2 83.9 48.45 84.35 48.8 84.85 49.0 85.05 49.05 85.1 49.05 85.15 49.1 85.15 49.15 85.2 49.2 85.25 49.2 85.3 49.25 85.3 49.3 85.35 49.35 85.4 49.35 85.45 49.4 85.45 49.45 85.5 49.5 85.5 49.55 85.55 49.55 85.6 49.6 85.6 49.8 85.75 50.0 85.85 50.2 85.9 50.4 86.0 50.6 86.05 50.8 86.1 51.0 86.15 51.25 86.15 51.45 86.2 51.65 86.15 51.9 86.15 52.1 86.15 52.35 86.1 52.55 86.05 52.8 86.0 53.05 85.95 54.35 85.6 57.1 84.15 L57.8 83.8 Q58.25 83.55 58.4 83.5 58.6 83.4 58.95 83.2 59.3 83.05 59.5 82.95 59.7 82.85 60.0 82.65 60.4 82.45 60.5 82.35 60.55 82.3 60.65 82.3 60.7 82.25 60.75 82.2 60.85 82.15 60.9 82.15 60.95 82.1 61.05 82.05 61.1 82.0 61.15 82.0 61.2 81.95 61.3 81.9 61.35 81.85 61.4 81.85 61.45 81.8 61.55 81.75 62.0 81.45 62.55 81.1 63.3 80.6 64.0 80.15 L64.95 79.5 Q64.95 79.5 64.95 79.5 64.95 79.5 64.95 79.5 66.0 78.8 66.55 78.45 67.4 77.85 68.1 77.4 68.9 76.85 69.65 76.4 70.45 75.9 71.25 75.45 72.05 75.0 72.9 74.55 73.75 74.1 74.65 73.65 75.55 73.2 76.5 72.8 77.45 72.4 78.5 72.0 80.45 71.3 80.65 71.25 80.8 71.2 80.95 71.15 81.05 71.1 81.2 71.05 81.35 71.0 81.5 70.95 81.65 70.9 81.75 70.85 81.9 70.8 82.05 70.75 82.2 70.7 82.35 70.65 82.5 70.6 82.6 70.55 82.75 70.5 82.9 70.45 83.35 70.35 84.05 70.1 84.8 69.9 85.1 69.8 L85.15 69.8 Q85.9 69.55 87.25 69.15 96.4 66.55 100.55 64.9 101.3 64.6 102.0 64.35 102.7 64.05 103.4 63.75 104.05 63.4 104.7 63.1 105.4 62.8 106.0 62.45 106.6 62.1 107.2 61.75 107.8 61.4 108.35 61.0 108.95 60.65 109.45 60.25 110.0 59.85 110.5 59.4 111.0 59.0 111.4 58.55 111.9 58.15 112.3 57.7 112.7 57.2 113.1 56.75 113.5 56.25 113.85 55.7 114.2 55.2 114.55 54.65 114.85 54.1 115.15 53.5 115.45 52.9 115.75 52.25 116.0 51.65 116.2 50.95 116.45 50.3 116.65 49.55 116.85 48.85 117.0 48.1 117.15 47.35 117.3 46.5 117.45 45.7 117.5 44.85 117.6 44.0 117.65 43.1 117.7 42.2 117.75 41.25 117.75 40.3 117.7 39.3 117.7 38.25 117.65 37.2 117.65 37.1 117.65 36.95 117.6 36.85 117.6 36.7 117.6 36.6 117.6 36.45 117.6 36.35 117.55 36.2 117.55 36.1 117.55 35.95 117.55 35.85 117.5 35.7 117.5 35.6 117.5 35.45 117.5 35.35 117.45 35.2 117.45 35.1 117.45 34.95 117.4 34.85 117.4 34.7 117.4 34.6 117.4 34.45 117.35 34.35 117.35 34.25 117.35 34.1 117.3 34.0 117.3 33.85 117.3 33.75 117.25 33.6 117.25 33.5 117.2 33.4 117.2 33.25 117.2 33.15 117.15 33.0 117.15 32.9 117.1 32.8 117.1 32.7 117.1 32.55 117.05 32.45 117.05 32.35 117.0 32.25 117.0 32.1 116.95 32.0 116.95 31.9 116.9 31.8 116.9 31.65 116.85 31.55 116.85 31.45 116.8 31.35 116.8 31.25 116.75 31.1 116.75 31.0 116.7 30.9 116.7 30.8 116.65 30.7 116.65 30.55 116.6 30.45 116.55 30.35 116.55 30.25 116.5 30.15 116.5 30.05 116.45 29.95 116.4 29.85 116.4 29.7 116.3 29.45 116.25 29.2 116.15 29.0 116.1 28.75 116.0 28.5 115.9 28.25 115.8 28.0 115.75 27.8 115.65 27.55 115.55 27.3 115.45 27.05 115.35 26.8 115.25 26.6 115.15 26.35 115.05 26.1 114.95 25.85 114.85 25.6 114.75 25.4 114.65 25.15 114.5 24.9 114.4 24.7 114.3 24.45 114.2 24.2 114.05 24.0 113.95 23.75 113.8 23.55 113.7 23.3 113.55 23.05 113.45 22.85 113.3 22.6 113.2 22.4 113.05 22.15 112.9 21.95 112.8 21.7 112.65 21.5 112.5 21.25 112.35 21.05 112.2 20.8 112.05 20.6 111.9 20.4 111.75 20.15 111.6 19.95 111.45 19.7 111.3 19.5 111.15 19.3 111.0 19.05 110.85 18.85 110.65 18.65 110.5 18.45 110.35 18.2 110.15 18.0 110.0 17.8 109.85 17.55 109.65 17.35 109.5 17.15 109.3 16.9 109.15 16.7 108.95 16.5 108.8 16.3 108.6 16.1 108.4 15.85 108.2 15.65 108.05 15.45 107.85 15.25 107.8 15.2 107.75 15.2 107.75 15.15 107.7 15.15 107.65 15.1 107.65 15.05 107.6 15.05 107.55 15.0 107.4 14.8 107.3 14.7 107.1 14.5 106.9 14.35 106.7 14.15 106.5 13.95 106.25 13.8 106.05 13.6 105.85 13.4 105.65 13.25 105.45 13.05 105.2 12.9 105.0 12.75 104.8 12.55 104.6 12.4 104.4 12.25 104.15 12.05 103.95 11.9 103.75 11.75 103.5 11.6 103.3 11.4 103.1 11.25 102.85 11.1 102.65 10.95 102.4 10.8 102.2 10.65 102.0 10.5 101.75 10.35 101.55 10.2 101.3 10.1 101.1 9.95 100.85 9.8 100.65 9.65 100.4 9.55 100.15 9.4 99.95 9.25 99.7 9.15 99.5 9.0 99.25 8.9 99.0 8.75 98.8 8.6 98.55 8.5 98.35 8.4 98.1 8.25 97.85 8.15 97.6 8.05 97.4 7.9 97.15 7.8 96.9 7.7 96.7 7.6 96.45 7.5 96.2 7.4 96.0 7.3 95.75 7.2 95.5 7.1 95.25 7.0 95.0 6.9 94.75 6.85 94.55 6.75 94.3 6.65 94.05 6.55 93.8 6.5 93.55 6.4 93.3 6.35 93.1 6.25 92.85 6.2 92.75 6.15 92.65 6.15 92.55 6.1 92.4 6.05 92.3 6.05 92.2 6.0 92.1 5.95 92.0 5.95 91.9 5.9 91.8 5.9 91.65 5.85 91.55 5.8 91.45 5.8 91.35 5.75 91.25 5.75 91.15 5.7 90.95 5.65 90.25 5.55 89.65 5.4 89.3 5.35 88.25 5.2 87.35 5.1 87.25 5.1 87.1 5.05 87.0 5.05 86.85 5.05 86.75 5.05 86.6 5.0 86.5 5.0 86.35 5.0 86.25 5.0 86.1 4.95 85.95 4.95 85.85 4.95 85.7 4.95 85.6 4.95 85.45 4.95 85.35 4.9 84.3 4.85 83.3 4.8 82.25 4.8 81.3 4.8 80.35 4.85 79.45 4.9 78.55 4.95 77.7 5.05 76.85 5.1 76.05 5.25 75.2 5.4 74.45 5.55 73.7 5.7 73.0 5.9 72.25 6.1 71.6 6.35 70.95 6.6 70.3 6.85 69.65 7.1 69.05 7.4 68.5 7.7 67.9 8.0 67.35 8.35 66.85 8.7 66.3 9.05 65.85 9.45 65.35 9.85 64.85 10.3 64.4 10.7 64.0 11.15 63.55 11.6 63.15 12.1 62.75 12.6 62.35 13.1 61.95 13.65 61.55 14.2 61.15 14.75 60.8 15.35 60.45 15.95 60.1 16.55 59.8 17.2 59.45 17.85 59.15 18.5 58.8 19.15 58.5 19.85 58.2 20.55 57.95 21.25 57.65 22.0 56.05 26.15 53.4 35.3 53.2 36.05 52.75 37.5 52.6 38.1 52.1 39.65 51.7 40.95 51.35 41.85 51.05 42.8 50.55 44.1 50.15 45.15 49.75 46.1 49.35 47.05 48.9 47.95 48.5 48.85 48.0 49.7 47.6 50.55 47.1 51.35 46.65 52.15 46.15 52.95 45.7 53.7 45.15 54.5 44.7 55.2 44.15 56.05 43.8 56.55 43.05 57.65 L43.05 57.65 Q42.95 57.8 42.3 58.75 41.85 59.45 41.45 60.0 41.4 60.1 41.15 60.5 40.95 60.8 40.85 61.0 40.55 61.45 40.2 62.05 40.1 62.2 39.9 62.6 39.7 62.95 39.6 63.1 39.5 63.35 39.35 63.65 39.1 64.15 39.1 64.15 38.5 65.3 38.4 65.45 L38.4 65.5 38.4 65.5 38.4 65.5" fill="#ffffff" fill-rule="evenodd" stroke="none"/>
    <path d="M120.7 36.25 Q120.7 22.05 110.6 12.05 100.5 2.0 86.2 2.0 71.9 2.0 61.8 12.05 51.7 22.05 51.7 36.25 51.7 50.45 61.8 60.5 71.9 70.5 86.2 70.5 100.5 70.5 110.6 60.5 120.7 50.45 120.7 36.25 L120.7 36.25" fill="#ffffff" fill-rule="evenodd" stroke="none"/>
    <path d="M75.2 67.75 Q75.2 59.85 69.25 54.25 63.35 48.65 54.95 48.65 46.6 48.65 40.65 54.25 34.75 59.85 34.75 67.75 34.75 75.65 40.65 81.25 46.6 86.85 54.95 86.85 63.35 86.85 69.25 81.25 75.2 75.65 75.2 67.75 L75.2 67.75" fill="#ffffff" fill-rule="evenodd" stroke="none"/>
    <path d="M86.7 50.95 Q86.7 43.05 80.75 37.5 74.85 31.9 66.45 31.9 58.05 31.9 52.15 37.5 46.2 43.05 46.2 50.95 46.2 58.9 52.15 64.45 58.05 70.05 66.45 70.05 74.85 70.05 80.75 64.45 86.7 58.9 86.7 50.95 L86.7 50.95" fill="#ffffff" fill-rule="evenodd" stroke="none"/>
    <path d="M88.3 59.7 Q88.3 51.8 82.35 46.2 76.45 40.65 68.05 40.65 59.7 40.65 53.75 46.2 47.85 51.8 47.85 59.7 47.85 67.6 53.75 73.2 59.7 78.8 68.05 78.8 76.45 78.8 82.35 73.2 88.3 67.6 88.3 59.7 L88.3 59.7" fill="#ffffff" fill-rule="evenodd" stroke="none"/>
  </g>
</svg>
