<?xml version="1.0" encoding="UTF-8" standalone="no"?>
<svg xmlns:xlink="http://www.w3.org/1999/xlink" height="480.65px" width="412.3px" xmlns="http://www.w3.org/2000/svg">
  <g transform="matrix(1.0, 0.0, 0.0, 1.0, 4.75, -20.65)">
    <path d="M398.55 356.6 Q373.3 453.25 323.95 487.35 274.5 521.8 201.5 471.1 128.3 521.8 78.85 487.35 29.5 453.25 4.15 356.6 -20.9 260.05 24.5 192.3 66.5 129.4 182.85 162.1 L193.35 165.05 201.5 167.65 Q211.85 164.25 221.75 161.55 336.65 129.75 378.4 192.3 423.7 260.05 398.55 356.6 M294.85 56.2 Q252.0 93.2 228.75 139.15 L223.5 140.65 Q212.6 143.65 201.5 147.3 L196.0 145.65 Q197.85 137.1 200.2 129.05 202.95 119.25 206.2 110.0 224.6 56.95 257.95 20.65 285.35 29.55 294.85 56.2 M186.3 124.9 L185.55 127.4 Q76.6 108.2 67.35 35.1 157.6 35.1 195.55 97.05 193.85 101.3 192.3 105.8 189.05 115.05 186.3 124.9" fill="#ffffff" fill-rule="evenodd" stroke="none"/>
  </g>
</svg>
