<?xml version="1.0" encoding="UTF-8" standalone="no"?>
<svg xmlns:xlink="http://www.w3.org/1999/xlink" height="122.9px" width="68.45px" xmlns="http://www.w3.org/2000/svg">
  <g transform="matrix(1.0, 0.0, 0.0, 1.0, 0.0, 0.0)">
    <path d="M49.15 41.85 L17.45 41.85 Q15.95 46.85 14.1 52.5 13.15 55.35 12.75 56.65 12.0 59.0 11.45 60.85 10.75 63.1 10.15 65.1 9.55 67.35 9.0 69.35 8.45 71.55 8.0 73.55 7.55 75.7 7.25 77.7 6.9 79.8 6.7 81.7 6.5 83.7 6.5 85.55 6.45 87.75 6.7 89.7 6.95 91.75 7.5 93.5 8.05 95.4 8.9 97.0 9.85 98.7 11.1 100.1 12.45 101.55 14.15 102.7 15.9 103.9 18.1 104.8 20.35 105.7 23.05 106.3 25.8 106.9 29.05 107.15 L33.55 107.15 Q33.15 106.8 33.1 106.25 33.05 106.2 33.05 106.15 L32.65 104.85 Q29.65 102.75 27.2 100.0 L26.25 98.85 Q24.0 95.95 22.95 92.75 22.05 89.85 22.1 86.65 22.15 83.85 23.0 80.65 23.65 78.05 24.95 74.95 25.7 73.15 27.3 69.6 28.85 66.3 29.45 64.75 30.4 62.3 30.65 60.6 30.9 58.6 30.25 57.2 L30.25 57.2 Q32.85 59.4 35.05 61.8 37.35 64.2 39.2 66.7 41.15 69.3 42.55 71.9 44.0 74.6 44.9 77.25 45.85 80.05 46.15 82.7 46.5 85.5 46.15 88.15 45.8 90.95 44.75 93.55 43.7 96.25 41.85 98.75 L41.0 99.85 Q38.75 102.55 36.0 104.7 L36.0 106.1 Q36.0 106.65 35.6 107.05 35.55 107.1 35.5 107.1 L41.1 107.1 Q43.8 106.85 46.15 106.35 48.45 105.8 50.4 105.05 52.3 104.3 53.8 103.3 55.35 102.3 56.5 101.1 57.7 99.9 58.55 98.5 59.4 97.15 59.95 95.6 60.5 94.1 60.8 92.35 61.1 90.7 61.2 88.9 61.25 86.95 61.1 84.8 61.0 82.75 60.65 80.45 60.3 78.3 59.8 75.95 59.3 73.75 58.7 71.35 58.1 69.1 57.35 66.65 56.7 64.45 55.9 61.95 55.2 59.85 54.35 57.3 53.85 55.8 52.8 52.7 50.35 45.65 49.15 41.8 L49.15 41.85 49.15 41.85 M33.85 0.0 Q38.25 0.0 41.4 3.1 44.5 6.25 44.5 10.65 44.5 15.1 41.4 18.25 41.4 18.25 41.4 18.25 L41.4 18.25 Q40.8 18.85 40.1 19.35 L40.1 20.25 52.15 20.25 Q53.1 20.25 53.75 20.9 54.4 21.55 54.4 22.45 L54.4 28.15 57.4 28.15 Q58.3 28.15 58.95 28.8 59.6 29.45 59.6 30.35 L59.6 36.55 Q59.6 37.45 58.95 38.1 58.3 38.75 57.4 38.75 L54.65 38.75 Q55.65 42.15 58.6 50.75 59.7 54.0 60.2 55.5 61.15 58.2 61.85 60.35 62.65 63.0 63.35 65.3 64.1 67.9 64.7 70.25 65.4 72.8 65.85 75.1 66.4 77.65 66.7 79.95 67.1 82.4 67.2 84.65 67.35 87.0 67.3 89.15 67.25 90.6 67.1 91.95 66.95 93.35 66.65 94.65 66.4 96.0 66.0 97.2 65.65 98.45 65.15 99.65 64.6 100.8 64.0 101.9 63.35 103.0 62.55 104.0 61.75 105.05 60.85 105.95 59.9 106.9 58.85 107.7 58.9 107.8 59.0 107.9 59.05 107.95 59.1 108.05 59.2 108.15 59.25 108.25 59.3 108.35 59.4 108.5 60.05 109.7 59.5 108.7 59.6 108.85 59.65 108.95 59.7 109.05 59.75 109.15 59.85 109.3 59.9 109.4 L61.9 112.15 Q62.65 112.55 63.35 112.95 64.0 113.35 64.6 113.8 65.2 114.25 65.75 114.75 66.25 115.25 66.7 115.75 67.1 116.3 67.45 116.85 67.75 117.45 68.0 118.05 68.2 118.65 68.3 119.3 68.45 120.0 68.45 120.7 68.45 121.6 67.75 122.25 67.1 122.9 66.2 122.9 L2.2 122.9 Q1.3 122.9 0.65 122.25 0.0 121.6 0.0 120.65 0.0 120.65 0.0 120.65 0.0 120.3 0.05 119.9 0.15 119.55 0.3 119.2 0.45 118.85 0.65 118.5 0.85 118.15 1.15 117.8 1.4 117.5 1.75 117.15 2.05 116.8 2.45 116.5 2.85 116.2 3.3 115.85 3.75 115.55 4.25 115.25 L8.5 109.35 Q9.05 108.4 9.75 107.55 8.45 106.6 7.3 105.55 6.2 104.45 5.25 103.25 4.35 102.1 3.6 100.75 2.9 99.5 2.35 98.05 1.8 96.65 1.4 95.15 1.0 93.7 0.75 92.1 0.5 90.55 0.4 88.85 0.3 87.25 0.35 85.55 0.4 83.55 0.6 81.35 0.75 79.3 1.15 77.05 1.45 74.9 1.95 72.65 2.4 70.5 3.0 68.2 3.5 66.1 4.2 63.75 4.75 61.65 5.5 59.3 6.1 57.35 6.85 54.9 7.35 53.5 8.25 50.65 10.95 42.3 11.95 38.8 L10.35 38.8 Q9.45 38.8 8.8 38.1 8.15 37.5 8.15 36.55 L8.15 30.35 Q8.15 29.45 8.8 28.8 9.45 28.15 10.35 28.15 L13.35 28.15 13.35 22.45 Q13.35 21.55 14.0 20.9 14.65 20.25 15.6 20.25 L27.6 20.25 27.6 19.4 Q26.9 18.85 26.25 18.25 L26.15 18.1 Q23.05 14.9 23.15 10.5 23.2 6.05 26.4 3.0 29.5 0.0 33.85 0.0 L33.85 0.0 M38.1 6.4 Q36.35 4.6 33.85 4.6 31.3 4.6 29.55 6.4 27.75 8.2 27.75 10.7 27.75 12.25 28.5 13.6 L39.15 13.6 Q40.35 11.4 39.65 8.95 39.25 7.5 38.15 6.4 L38.1 6.4 38.1 6.4 M32.0 73.65 Q33.45 75.05 34.7 76.55 36.0 78.05 37.05 79.65 38.1 81.25 38.9 82.9 39.7 84.6 40.2 86.3 40.75 88.05 40.95 89.75 41.1 91.5 40.95 93.15 40.75 94.9 40.15 96.55 39.55 98.25 38.5 99.8 L38.0 100.55 35.75 103.55 33.35 103.6 Q31.65 102.3 30.35 100.6 L29.8 99.9 Q28.55 98.05 27.95 96.05 27.45 94.2 27.5 92.2 27.5 90.4 28.0 88.45 28.35 86.8 29.1 84.8 29.5 83.7 30.4 81.45 31.25 79.4 31.6 78.4 32.15 76.85 32.25 75.75 32.4 74.5 32.05 73.65 L32.0 73.65 32.0 73.65" fill="#ffffff" fill-rule="evenodd" stroke="none"/>
  </g>
</svg>
