<?xml version="1.0" encoding="UTF-8" standalone="no"?>
<svg xmlns:xlink="http://www.w3.org/1999/xlink" height="109.8px" width="109.8px" xmlns="http://www.w3.org/2000/svg">
  <g transform="matrix(1.0, 0.0, 0.0, 1.0, 0.0, 0.0)">
    <path d="M10.9 10.9 L18.65 0.0 19.85 6.85 23.3 11.5 28.4 15.45 33.3 18.05 33.9 24.95 40.3 24.2 45.95 25.35 50.3 26.4 54.3 26.9 56.25 26.25 58.25 26.55 59.45 27.8 60.1 29.25 58.3 32.35 57.55 32.95 57.75 34.7 67.3 41.0 73.75 44.95 89.25 53.75 Q89.25 53.75 89.6 53.95 90.1 54.15 90.55 54.4 91.3 54.75 92.0 55.15 92.9 55.6 93.7 56.1 94.7 56.65 95.6 57.15 96.6 57.75 97.45 58.35 98.4 59.0 99.15 59.55 99.95 60.2 100.5 60.75 101.25 61.5 101.85 62.15 102.6 62.95 103.25 63.7 104.05 64.55 104.7 65.35 105.45 66.25 106.05 67.1 106.75 68.05 107.3 68.95 107.9 69.9 108.4 70.8 108.85 71.8 109.2 72.7 109.5 73.7 109.65 74.6 109.8 75.5 109.65 76.8 109.45 78.05 109.05 79.6 108.6 81.1 107.95 82.75 107.3 84.4 106.5 86.15 105.65 87.9 104.7 89.55 103.7 91.3 102.65 92.85 101.6 94.45 100.5 95.85 99.4 97.25 98.3 98.3 97.25 99.4 95.8 100.5 94.45 101.6 92.85 102.65 91.3 103.7 89.55 104.7 87.85 105.65 86.15 106.45 84.4 107.3 82.75 107.95 81.1 108.6 79.6 109.05 78.05 109.5 76.8 109.65 75.55 109.8 74.6 109.65 73.7 109.5 72.7 109.15 71.8 108.85 70.8 108.35 69.9 107.9 68.95 107.3 68.05 106.75 67.1 106.05 66.25 105.45 65.35 104.7 64.55 104.05 63.7 103.25 62.95 102.6 62.15 101.85 61.55 101.25 60.75 100.5 60.2 99.95 59.55 99.15 58.95 98.4 58.35 97.45 57.75 96.6 57.15 95.6 56.65 94.7 56.1 93.7 55.6 92.9 55.15 92.0 54.75 91.3 54.4 90.55 54.15 90.05 53.95 89.6 53.85 89.45 53.75 89.25 L44.95 73.75 41.0 67.3 34.7 57.75 32.95 57.55 32.35 58.3 29.25 60.1 27.8 59.45 26.55 58.25 26.25 56.25 26.9 54.3 26.4 50.3 25.35 45.95 24.2 40.3 24.95 33.9 18.05 33.3 15.45 28.4 11.5 23.3 6.85 19.85 0.0 18.65 10.9 10.9 10.9 10.9 M75.9 75.9 Q74.85 76.95 73.9 78.05 73.0 79.15 72.2 80.25 71.45 81.35 70.85 82.45 70.25 83.5 69.85 84.5 69.45 85.5 69.2 86.4 69.0 87.35 69.0 88.1 69.0 88.9 69.25 89.55 69.45 90.2 69.9 90.65 70.35 91.1 71.0 91.3 71.65 91.55 72.4 91.55 73.2 91.55 74.15 91.35 75.05 91.1 76.05 90.7 77.05 90.3 78.1 89.7 79.2 89.1 80.3 88.35 81.4 87.6 82.5 86.65 83.6 85.7 84.65 84.65 85.7 83.6 86.65 82.5 87.55 81.4 88.35 80.3 89.1 79.2 89.7 78.1 90.3 77.05 90.7 76.05 91.1 75.05 91.35 74.15 91.55 73.2 91.55 72.4 91.55 71.65 91.3 71.0 91.1 70.35 90.65 69.9 90.2 69.45 89.55 69.25 88.9 69.0 88.1 69.0 87.35 69.0 86.4 69.2 85.5 69.45 84.5 69.85 83.5 70.25 82.45 70.85 81.35 71.45 80.25 72.2 79.15 72.95 78.05 73.9 76.95 74.8 75.9 75.9 L75.9 75.9 M67.4 74.0 L32.1 38.65 Q32.1 38.65 32.1 38.95 32.1 39.3 32.1 39.75 32.15 40.3 32.2 40.9 32.25 41.65 32.3 42.35 32.4 43.15 32.5 43.9 32.6 44.7 32.75 45.45 32.95 46.25 33.15 46.9 33.4 47.6 33.7 48.1 34.4 49.35 35.25 50.8 36.2 52.5 37.25 54.2 38.45 56.2 39.6 58.05 40.95 60.2 42.2 62.1 43.6 64.25 44.9 66.05 46.3 68.1 47.6 69.7 48.95 71.45 50.1 72.7 51.4 74.05 52.4 74.85 53.1 75.4 54.2 75.7 55.15 75.95 56.45 76.0 57.55 76.05 58.9 75.9 60.1 75.8 61.4 75.55 62.5 75.35 63.7 75.05 64.7 74.85 65.65 74.55 66.3 74.35 66.95 74.15 67.2 74.1 67.4 74.0 L67.4 74.0 M74.35 67.05 Q74.35 67.05 74.5 66.55 74.7 65.95 74.9 65.25 75.2 64.3 75.45 63.35 75.75 62.15 75.95 61.05 76.15 59.7 76.3 58.55 76.4 57.2 76.35 56.05 76.3 54.8 76.05 53.8 75.75 52.75 75.2 52.05 74.4 51.05 73.05 49.75 71.8 48.6 70.05 47.2 68.45 45.95 66.45 44.55 64.6 43.25 62.45 41.85 60.55 40.55 58.4 39.25 56.55 38.05 54.55 36.85 52.85 35.85 51.15 34.85 49.7 34.0 48.45 33.3 47.95 33.0 47.25 32.8 46.6 32.55 45.8 32.4 45.1 32.25 44.25 32.1 43.5 32.0 42.7 31.95 42.0 31.85 41.3 31.8 40.7 31.8 40.1 31.75 39.7 31.75 39.3 31.75 39.15 31.7 39.05 31.7 L74.35 67.05 74.35 67.05" fill="#ffffff" fill-rule="evenodd" stroke="none"/>
  </g>
</svg>
