<?xml version="1.0" encoding="UTF-8" standalone="no"?>
<svg xmlns:xlink="http://www.w3.org/1999/xlink" height="125.0px" width="125.0px" xmlns="http://www.w3.org/2000/svg">
  <g transform="matrix(1.0, 0.0, 0.0, 1.0, 0.0, 0.0)">
    <path d="M45.25 117.0 L79.5 117.0 61.7 79.25 45.25 117.0 45.25 117.0 M60.5 3.65 Q60.5 3.45 60.55 3.25 60.6 3.1 60.65 2.9 60.7 2.75 60.85 2.6 60.95 2.45 61.05 2.3 61.2 2.15 61.35 2.05 61.5 1.95 61.65 1.9 61.85 1.8 62.05 1.75 62.25 1.75 62.45 1.75 62.65 1.75 62.85 1.8 63.0 1.8 63.2 1.9 63.35 1.95 63.5 2.05 63.65 2.15 63.8 2.3 63.9 2.45 64.05 2.6 64.15 2.75 64.2 2.9 64.3 3.1 64.3 3.25 64.35 3.45 64.35 3.65 L64.35 21.75 68.1 28.7 77.85 11.85 Q77.95 11.7 78.05 11.55 78.2 11.4 78.35 11.3 78.5 11.15 78.65 11.1 78.8 11.0 79.0 10.95 79.15 10.9 79.35 10.9 79.55 10.85 79.75 10.9 79.9 10.9 80.1 11.0 80.3 11.05 80.45 11.15 80.6 11.25 80.75 11.35 80.9 11.5 81.0 11.65 81.15 11.8 81.2 11.95 81.3 12.15 81.35 12.3 81.4 12.5 81.4 12.65 81.4 12.85 81.4 13.05 81.4 13.2 81.3 13.4 81.25 13.6 81.15 13.75 L70.25 32.65 116.05 117.5 121.95 117.5 Q122.15 117.5 122.35 117.55 122.55 117.6 122.7 117.65 122.9 117.75 123.05 117.85 123.2 117.95 123.3 118.05 123.45 118.2 123.55 118.35 123.65 118.5 123.75 118.7 123.8 118.85 123.85 119.05 123.9 119.25 123.9 119.45 123.9 119.65 123.85 119.85 123.8 120.0 123.75 120.2 123.65 120.35 123.55 120.5 123.45 120.65 123.35 120.8 123.2 120.95 123.05 121.05 122.9 121.15 122.7 121.2 122.55 121.3 122.35 121.35 122.15 121.35 121.95 121.35 L2.9 121.35 Q2.7 121.35 2.5 121.3 2.35 121.3 2.15 121.2 2.0 121.15 1.85 121.05 1.7 120.95 1.55 120.8 1.4 120.65 1.3 120.5 1.2 120.35 1.15 120.2 1.05 120.0 1.05 119.85 1.0 119.65 1.0 119.45 1.0 119.25 1.05 119.05 1.05 118.85 1.15 118.7 1.2 118.5 1.3 118.35 1.4 118.2 1.55 118.1 1.7 117.95 1.85 117.85 2.0 117.75 2.15 117.65 2.35 117.6 2.55 117.55 2.7 117.5 2.9 117.5 L8.85 117.5 54.55 32.5 43.7 13.75 Q43.6 13.6 43.55 13.4 43.5 13.2 43.45 13.05 43.45 12.85 43.45 12.65 43.45 12.5 43.5 12.3 43.55 12.1 43.65 11.95 43.75 11.8 43.85 11.65 43.95 11.5 44.1 11.35 44.25 11.25 44.4 11.15 44.55 11.05 44.75 11.0 44.95 10.95 45.15 10.9 45.3 10.9 45.5 10.9 45.7 10.9 45.85 10.95 46.05 11.0 46.2 11.1 46.4 11.15 46.55 11.25 46.7 11.4 46.8 11.55 46.95 11.7 47.05 11.85 L56.7 28.55 60.5 21.4 60.5 3.65 60.5 3.65 60.5 3.65" fill="#ffffff" fill-rule="evenodd" stroke="none"/>
  </g>
</svg>
