<?xml version="1.0" encoding="UTF-8" standalone="no"?>
<svg xmlns:xlink="http://www.w3.org/1999/xlink" height="872.0px" width="611.45px" xmlns="http://www.w3.org/2000/svg">
  <g transform="matrix(1.0, 0.0, 0.0, 1.0, -30.25, -16.1)">
    <path d="M418.05 71.9 L418.05 98.4 452.55 98.4 Q467.0 98.4 477.45 110.4 489.55 123.7 489.55 140.55 489.55 156.2 477.45 167.85 468.25 178.65 457.4 181.1 456.65 190.35 450.2 195.95 448.55 199.2 445.75 200.4 440.55 204.8 432.9 204.8 L430.1 204.8 430.1 272.65 Q478.65 329.25 514.45 377.4 607.55 502.65 610.35 563.7 L641.7 833.85 641.7 842.75 Q641.7 849.55 638.85 855.2 622.4 885.3 518.8 888.1 L152.3 888.1 Q49.95 885.3 33.45 855.2 30.25 849.95 30.25 842.75 L30.25 833.85 61.95 563.7 Q60.4 505.1 155.55 377.4 189.65 329.25 238.2 272.65 L238.2 204.8 237.0 204.8 Q226.15 204.8 218.55 195.95 212.9 190.35 212.1 181.1 198.9 179.9 188.45 167.85 182.35 161.4 179.6 153.85 177.55 147.75 177.55 140.55 177.55 132.95 179.6 126.1 182.35 118.05 188.45 110.4 200.05 98.4 214.5 98.4 L250.25 98.4 250.25 71.9 Q250.25 16.1 293.6 16.1 L375.1 16.1 Q418.05 16.1 418.05 71.9 M184.45 550.45 L278.35 617.5 184.45 684.15 184.45 772.85 338.95 654.05 338.95 580.15 184.45 461.75 184.45 550.45 M367.85 550.45 L461.8 617.5 367.85 684.15 367.85 772.85 522.45 654.05 522.45 580.15 367.85 461.75 367.85 550.45" fill="#ffffff" fill-rule="evenodd" stroke="none"/>
  </g>
</svg>
