<?xml version="1.0" encoding="UTF-8" standalone="no"?>
<svg xmlns:xlink="http://www.w3.org/1999/xlink" height="863.15px" width="608.9px" xmlns="http://www.w3.org/2000/svg">
  <g transform="matrix(1.0, 0.0, 0.0, 1.0, -47.45, -25.05)">
    <path d="M186.5 558.65 L186.5 623.2 Q278.45 547.15 368.0 614.5 449.55 676.7 528.75 623.2 L528.75 558.65 Q449.55 612.1 368.0 550.3 278.45 482.2 186.5 558.65 M186.5 704.05 L186.5 769.0 Q278.45 692.15 368.0 759.85 449.55 822.45 528.75 769.0 L528.75 704.05 Q449.55 757.5 368.0 695.3 278.45 627.55 186.5 704.05 M656.35 580.8 L656.35 741.65 Q656.35 831.95 602.85 866.85 569.95 888.2 516.5 888.2 L185.75 888.2 Q47.45 888.2 47.45 741.65 L47.45 580.8 Q45.9 540.05 151.3 451.7 188.9 417.6 243.15 378.0 L243.15 336.0 241.95 336.0 Q229.7 336.0 220.95 326.85 213.85 320.15 213.85 305.1 213.85 294.8 220.95 286.05 229.7 278.95 241.95 278.95 L243.15 278.95 243.15 211.6 241.95 211.6 Q229.7 211.6 220.95 202.9 215.45 197.35 213.85 188.2 199.2 187.05 187.7 175.2 175.8 163.7 175.8 147.85 175.8 131.2 187.7 118.55 200.8 106.65 217.0 106.65 L256.25 106.65 256.25 80.1 Q256.25 25.05 304.15 25.05 L395.25 25.05 Q443.25 25.05 443.25 80.1 L443.25 106.65 481.25 106.65 Q497.1 106.65 508.95 118.55 522.05 131.2 522.05 147.85 522.05 163.7 508.95 175.2 498.65 185.45 486.75 188.2 485.65 197.35 478.45 202.9 476.9 205.7 473.75 207.25 468.15 211.6 459.1 211.6 L456.25 211.6 456.25 278.95 459.1 278.95 Q470.9 278.95 478.45 286.05 486.75 294.8 486.75 305.1 486.75 320.15 478.45 326.85 470.9 336.0 459.1 336.0 L456.25 336.0 456.25 378.0 Q510.15 417.6 549.75 451.7 581.1 477.85 602.85 500.0 654.35 551.5 656.35 580.8" fill="#ffffff" fill-rule="evenodd" stroke="none"/>
  </g>
</svg>
