<?xml version="1.0" encoding="UTF-8" standalone="no"?>
<svg xmlns:xlink="http://www.w3.org/1999/xlink" height="879.9px" width="676.15px" xmlns="http://www.w3.org/2000/svg">
  <g transform="matrix(1.0, 0.0, 0.0, 1.0, -5.2, -12.65)">
    <path d="M294.35 553.45 L189.25 553.45 189.25 642.85 294.35 642.85 294.35 748.4 383.75 748.4 383.75 642.85 490.1 642.85 490.1 553.45 383.75 553.45 383.75 447.55 294.35 447.55 294.35 553.45 M417.2 54.9 L417.2 76.25 449.4 76.25 Q462.7 76.25 473.15 87.55 484.85 100.85 484.85 117.35 484.85 133.05 473.15 145.1 464.3 155.15 455.45 158.4 453.85 167.3 446.6 173.3 446.6 175.75 443.8 177.75 439.7 181.35 434.5 182.15 L434.5 278.4 457.85 284.45 Q525.95 307.85 582.3 363.4 681.35 459.65 681.35 596.55 681.35 733.45 582.3 830.1 542.45 868.8 495.75 892.55 L190.9 892.55 Q143.35 868.8 104.3 830.1 5.2 733.45 5.2 596.55 5.2 459.65 104.3 363.4 161.45 306.2 236.35 282.85 241.2 281.2 247.25 279.65 L247.25 182.15 246.4 182.15 Q236.35 182.15 228.7 173.3 224.3 167.3 223.1 158.4 209.8 156.8 200.55 145.1 190.45 133.05 190.45 117.35 190.45 100.85 200.55 87.55 211.05 76.25 225.9 76.25 L258.1 76.25 258.1 54.9 Q258.1 12.65 299.2 12.65 L376.15 12.65 Q417.2 12.65 417.2 54.9" fill="#ffffff" fill-rule="evenodd" stroke="none"/>
  </g>
</svg>
