<?xml version="1.0" encoding="UTF-8" standalone="no"?>
<svg xmlns:xlink="http://www.w3.org/1999/xlink" height="117.95px" width="68.0px" xmlns="http://www.w3.org/2000/svg">
  <g transform="matrix(1.0, 0.0, 0.0, 1.0, 3.0, 4.55)">
    <path d="M34.95 -4.55 Q39.7 -4.55 39.7 0.35 L39.7 2.35 43.05 2.35 Q44.65 2.35 45.8 3.55 46.75 5.5 46.75 6.85 46.75 8.7 45.8 10.3 L43.65 11.65 Q43.45 12.6 42.85 13.2 L42.65 13.8 41.05 14.0 40.9 14.0 40.9 28.65 Q65.95 43.4 64.95 61.1 63.5 88.45 54.15 113.4 L7.6 113.4 Q-1.55 89.05 -2.95 61.6 -3.9 43.95 21.1 29.2 L21.1 14.0 20.95 14.0 Q19.7 14.0 19.15 13.2 18.55 12.6 18.4 11.65 16.85 11.5 16.0 10.3 14.8 8.7 14.8 6.85 14.8 5.5 16.0 3.55 17.15 2.35 18.55 2.35 L22.3 2.35 22.3 0.35 Q22.3 -4.55 26.65 -4.55 L34.95 -4.55 M20.35 92.95 Q18.55 87.75 22.55 84.5 28.45 79.6 32.15 73.25 33.85 80.35 29.0 87.45 24.1 94.55 28.85 104.45 28.95 98.95 43.3 89.75 57.7 80.6 45.8 60.0 47.3 71.9 40.9 76.3 45.1 66.95 37.9 56.8 30.75 46.5 31.4 43.3 24.05 48.0 25.4 56.3 29.4 65.5 23.5 69.1 24.5 64.1 21.45 60.0 18.45 66.75 13.15 73.05 7.85 81.25 20.35 92.95" fill="#ffffff" fill-rule="evenodd" stroke="none"/>
  </g>
</svg>
