<?xml version="1.0" encoding="UTF-8" standalone="no"?>
<svg
   viewBox="0 0 128 128"
   version="1.1"
   id="svg4"
   sodipodi:docname="soap.svg"
   width="128"
   height="128"
   inkscape:version="1.1.2 (0a00cf5339, 2022-02-04, custom)"
   xmlns:inkscape="http://www.inkscape.org/namespaces/inkscape"
   xmlns:sodipodi="http://sodipodi.sourceforge.net/DTD/sodipodi-0.dtd"
   xmlns="http://www.w3.org/2000/svg"
   xmlns:svg="http://www.w3.org/2000/svg">
  <defs
     id="defs8" />
  <sodipodi:namedview
     id="namedview6"
     pagecolor="#505050"
     bordercolor="#eeeeee"
     borderopacity="1"
     inkscape:pageshadow="0"
     inkscape:pageopacity="0"
     inkscape:pagecheckerboard="0"
     showgrid="false"
     inkscape:zoom="2.4113446"
     inkscape:cx="130.83986"
     inkscape:cy="98.285413"
     inkscape:window-width="2560"
     inkscape:window-height="1377"
     inkscape:window-x="-8"
     inkscape:window-y="-8"
     inkscape:window-maximized="1"
     inkscape:current-layer="svg4" />
  <path
     fill="#ffffff"
     d="m 65.177806,9.0000201 c -4.270622,0 -7.786219,3.5108779 -7.786219,7.7862189 0,4.275342 3.515597,7.786219 7.786219,7.786219 4.270623,0 7.786219,-3.510877 7.786219,-7.786219 0,-4.275341 -3.515596,-7.7862189 -7.786219,-7.7862189 z m 0,4.2470289 c 1.981946,0 3.539191,1.559603 3.539191,3.53919 0,1.979587 -1.557245,3.53919 -3.539191,3.53919 -1.981947,0 -3.53919,-1.559603 -3.53919,-3.53919 0,-1.979587 1.557243,-3.53919 3.53919,-3.53919 z m -43.414069,9.43784 c -4.275343,0 -7.78622,3.510877 -7.78622,7.78622 0,4.270622 3.510877,7.786218 7.78622,7.786218 4.275342,0 7.786218,-3.515596 7.786218,-7.786218 0,-4.275343 -3.510876,-7.78622 -7.786218,-7.78622 z m 0,4.247028 c 1.979587,0 3.53919,1.559605 3.53919,3.539192 0,1.981946 -1.559603,3.539189 -3.53919,3.539189 -1.979587,0 -3.539191,-1.557243 -3.539191,-3.539189 0,-1.979587 1.559604,-3.539192 3.539191,-3.539192 z m 36.783986,9.367058 c -5.308786,0 -9.673787,4.365002 -9.673787,9.673788 0,5.308786 4.365001,9.673786 9.673787,9.673786 5.308785,0 9.673787,-4.365 9.673787,-9.673786 0,-5.308786 -4.365002,-9.673788 -9.673787,-9.673788 z m 0,4.24703 c 3.02011,0 5.426759,2.406649 5.426759,5.426758 0,3.020109 -2.406649,5.426759 -5.426759,5.426759 -3.020109,0 -5.42676,-2.40665 -5.42676,-5.426759 0,-3.020109 2.406651,-5.426758 5.42676,-5.426758 z m -25.458577,3.138081 a 3.7751364,3.7751364 0 0 0 -3.775136,3.775136 3.7751364,3.7751364 0 0 0 3.775136,3.775137 3.7751364,3.7751364 0 0 0 3.775137,-3.775137 3.7751364,3.7751364 0 0 0 -3.775137,-3.775136 z m 52.615966,14.487086 c -1.179734,0.04719 -2.501032,0.56627 -4.718925,1.675217 L 57.839884,71.43134 c 0.0236,0.188756 0.0236,0.377513 0.0236,0.56627 0,6.370542 -5.190813,11.561353 -11.561355,11.561353 -2.807758,0 -5.355974,-0.990971 -7.361516,-2.666188 l -5.521137,2.760565 c -1.934758,1.132545 -3.36459,1.958352 -4.249389,3.043709 -0.891876,1.108947 -1.507694,2.595408 -1.507694,5.757084 V 102.6234 c 0,2.45385 0.139208,3.46841 0.278416,3.70436 0.141567,0.25953 0.707838,0.70783 2.718098,1.746 l 18.568953,9.29628 0.07079,0.0235 c 3.845922,2.2887 8.682814,2.07634 13.37814,-0.28313 l 47.02403,-23.335022 c 2.24148,-1.25052 3.20887,-2.147115 3.68077,-2.996522 0.47189,-0.872996 0.63704,-2.052729 0.63704,-4.270621 v -9.107471 c 0,-2.996515 0.0472,-4.671731 -0.18875,-5.285192 -0.21235,-0.637054 -0.58986,-1.085351 -2.90214,-2.217892 V 69.87411 L 90.919522,59.86999 90.895894,59.846406 C 88.32408,58.501513 86.908405,58.124 85.705082,58.171189 Z m -39.402988,6.512111 c -4.058272,0 -7.314327,3.256055 -7.314327,7.314327 0,4.058272 3.256055,7.314326 7.314327,7.314326 4.058272,0 7.314327,-3.256054 7.314327,-7.314326 0,-4.058272 -3.256055,-7.314327 -7.314327,-7.314327 z m 58.231466,8.140137 1.84038,3.822327 -36.335676,17.412814 h -0.0236 c -4.011081,1.840375 -7.149164,3.515595 -10.688355,4.152655 -3.515596,0.61346 -7.267137,-0.0944 -11.702922,-2.59541 l 0.09438,0.0708 -10.263652,-5.049245 1.887568,-3.822321 10.310842,5.072833 0.04719,0.04718 c 3.916704,2.194294 6.323353,2.524622 8.918759,2.076319 2.571812,-0.448293 5.497543,-1.934753 9.626598,-3.822319 z"
     id="path2"
     style="stroke-width:0.235946" />
</svg>
