<?xml version="1.0" encoding="UTF-8" standalone="no"?>
<svg xmlns:xlink="http://www.w3.org/1999/xlink" height="483.8px" width="966.1px" xmlns="http://www.w3.org/2000/svg">
  <g transform="matrix(1.0, 0.0, 0.0, 1.0, -36.25, -34.75)">
    <path d="M1001.3 275.55 L1001.3 359.3 Q1001.3 362.45 998.1 362.45 985.8 362.45 972.4 345.85 949.7 340.6 949.7 333.6 940.25 327.2 936.2 327.2 L933.05 327.2 Q927.85 327.2 923.7 331.35 895.85 327.2 865.85 327.2 L689.2 327.2 Q643.65 327.2 563.1 328.35 553.7 328.35 548.65 314.9 592.05 301.45 831.85 284.9 869.05 273.5 950.6 266.25 L995.1 262.15 Q999.25 263.3 1002.35 267.35 L1001.3 275.55 M849.35 86.6 Q801.8 128.85 789.5 135.05 783.25 135.05 728.4 87.5 L728.4 82.35 Q782.2 34.75 788.35 34.75 L791.45 34.75 Q839.0 73.15 849.35 82.35 L849.35 86.6 M945.45 469.95 Q943.35 469.95 940.25 467.9 L932.05 467.9 923.7 469.95 Q913.35 469.95 872.1 465.8 756.35 467.9 689.2 467.9 L563.1 467.9 Q553.7 467.9 548.65 455.4 548.65 451.25 625.05 440.95 873.25 423.4 873.25 414.05 944.45 405.85 996.15 402.85 1001.3 404.8 1001.3 406.9 L1001.3 500.9 999.25 502.95 Q985.8 502.95 969.25 483.35 954.8 483.35 945.45 469.95 M505.5 49.35 Q469.3 135.05 465.15 138.2 450.65 138.2 442.4 196.9 L440.3 198.1 Q418.6 193.9 418.6 177.35 L418.6 153.6 Q418.6 140.3 417.55 117.4 L425.95 93.65 Q425.95 81.2 386.65 75.05 370.0 58.65 370.0 56.5 373.25 37.8 376.3 37.8 L376.3 36.9 Q396.95 44.05 401.15 44.05 L497.15 44.05 Q503.45 44.05 505.5 49.35 M402.2 278.7 Q402.2 290.05 361.85 311.8 L225.4 416.3 Q193.4 416.3 149.95 449.3 73.4 497.8 37.15 518.55 L36.25 515.4 Q36.25 494.8 113.75 431.65 133.4 412.05 143.7 412.05 L161.3 413.15 Q173.75 413.15 177.75 397.6 232.6 356.3 287.35 304.55 291.55 283.85 304.95 275.55 316.35 271.4 316.35 258.1 L316.35 256.9 Q316.35 247.6 302.85 228.05 306.05 203.35 311.15 203.35 L312.15 203.35 Q326.65 208.45 382.55 260.2 401.15 267.35 401.15 277.7 402.2 277.7 402.2 278.7 M228.45 159.85 Q173.75 207.4 167.45 207.4 161.3 207.4 106.55 159.85 L106.55 154.65 Q161.3 107.05 168.5 107.05 172.65 107.05 228.45 154.65 L228.45 159.85" fill="#ffffff" fill-rule="evenodd" stroke="none"/>
  </g>
</svg>
