<?xml version="1.0" encoding="UTF-8" standalone="no"?>
<svg xmlns:xlink="http://www.w3.org/1999/xlink" height="109.85px" width="77.0px" xmlns="http://www.w3.org/2000/svg">
  <g transform="matrix(1.0, 0.0, 0.0, 1.0, -17.5, 0.0)">
    <path d="M29.15 0.0 Q35.2 3.05 41.35 7.0 47.3 10.8 53.15 15.35 58.85 19.8 64.2 24.7 69.45 29.55 74.05 34.6 78.7 39.65 82.45 44.65 86.2 49.7 88.85 54.4 91.6 59.2 93.0 63.45 94.5 67.8 94.5 71.35 94.5 75.3 93.7 79.1 92.95 82.85 91.45 86.35 90.0 89.8 87.9 92.9 85.85 95.95 83.2 98.6 80.6 101.2 77.5 103.3 74.4 105.4 70.95 106.85 67.45 108.3 63.75 109.1 59.9 109.85 56.0 109.85 52.05 109.85 48.25 109.05 44.5 108.3 41.0 106.85 37.55 105.4 34.45 103.3 31.4 101.2 28.75 98.6 26.15 95.95 24.05 92.9 21.95 89.8 20.5 86.35 19.0 82.85 18.25 79.1 17.5 75.3 17.5 71.35 17.5 68.0 18.85 64.2 19.95 61.15 22.3 57.1 23.0 55.8 26.75 49.7 29.65 45.0 31.25 41.85 33.55 37.3 34.75 33.15 36.15 28.3 36.25 23.5 36.35 18.1 34.75 12.5 32.95 6.45 29.15 0.0 L29.15 0.0 M28.5 71.25 Q27.6 72.55 27.1 74.1 26.65 75.6 26.55 77.3 26.5 78.95 26.85 80.7 27.2 82.45 27.95 84.25 28.65 86.05 29.75 87.85 30.8 89.6 32.25 91.3 33.65 93.05 35.35 94.6 37.15 96.2 39.1 97.6 41.1 99.0 43.2 100.05 45.3 101.1 47.4 101.85 49.5 102.6 51.55 103.0 53.55 103.35 55.5 103.4 57.45 103.45 59.2 103.2 61.0 102.9 62.5 102.25 64.05 101.6 65.3 100.65 66.6 99.65 67.5 98.35 66.35 98.15 65.15 97.85 63.9 97.55 62.6 97.15 61.25 96.75 59.9 96.25 58.5 95.75 57.05 95.15 55.6 94.5 54.2 93.8 52.7 93.1 51.25 92.3 49.75 91.45 48.25 90.55 46.75 89.65 45.35 88.65 43.9 87.65 42.5 86.55 41.15 85.5 39.85 84.4 38.6 83.3 37.4 82.15 36.25 81.05 35.15 79.9 34.1 78.8 33.1 77.65 32.15 76.55 31.3 75.45 30.5 74.35 29.75 73.3 29.05 72.25 28.5 71.25 L28.5 71.25" fill="#ffffff" fill-rule="evenodd" stroke="none"/>
  </g>
</svg>
