<?xml version="1.0" encoding="UTF-8" standalone="no"?>
<svg xmlns:xlink="http://www.w3.org/1999/xlink" height="118.4px" width="105.65px" xmlns="http://www.w3.org/2000/svg">
  <g transform="matrix(1.0, 0.0, 0.0, 1.0, -1.15, 0.85)">
    <path d="M85.95 32.05 Q86.55 27.45 91.0 24.95 94.65 23.0 98.75 24.0 103.0 25.0 105.2 28.55 107.1 32.55 106.15 36.75 105.15 41.0 101.25 42.9 99.05 44.0 96.95 44.4 94.95 44.95 92.7 44.0 L91.0 43.1 89.35 41.9 64.5 56.4 73.3 56.4 Q73.3 55.6 73.95 54.75 75.6 53.15 77.95 53.15 82.85 53.15 82.85 58.25 82.85 63.35 77.95 63.35 75.1 63.35 73.95 61.8 73.3 60.7 73.3 59.95 L64.8 59.95 89.85 74.6 Q90.75 73.95 91.6 73.7 L93.4 72.95 Q97.85 71.5 101.75 73.7 105.2 75.85 106.4 79.95 107.55 84.1 105.2 87.9 103.0 91.85 98.75 93.05 94.65 94.2 91.0 91.9 86.55 89.35 85.95 84.15 85.75 83.4 85.9 82.55 L85.95 80.95 60.6 66.2 65.2 74.1 65.75 74.05 66.95 74.1 Q69.45 75.0 70.5 76.45 72.4 80.8 68.65 83.45 64.3 85.8 61.7 81.8 59.8 79.45 61.1 77.15 61.45 76.25 62.35 75.85 L57.9 68.65 57.9 97.45 Q59.95 98.4 61.1 99.5 64.45 102.5 64.45 107.3 64.45 111.3 61.35 114.45 58.2 117.55 53.7 117.55 49.8 117.55 46.8 114.45 43.65 111.3 43.65 107.3 43.65 102.3 47.2 99.1 L48.8 98.15 50.4 97.45 50.4 68.0 45.95 75.85 Q45.8 76.0 46.35 76.35 L46.65 77.15 Q47.55 79.55 46.15 81.8 44.0 85.8 39.7 83.45 35.05 80.8 37.85 76.45 39.0 74.55 40.85 74.1 42.2 73.75 42.95 74.1 L47.35 66.35 21.4 80.95 Q22.0 82.1 21.75 84.15 20.8 90.0 16.85 91.9 13.25 93.8 9.1 92.9 4.9 92.05 2.8 87.9 1.1 84.5 2.15 80.65 3.15 76.7 6.55 74.6 10.7 72.2 14.75 73.7 16.75 74.45 16.9 74.6 L43.4 59.95 34.75 59.95 34.65 60.4 34.05 61.8 Q33.4 63.35 30.4 63.35 24.95 63.35 24.95 58.25 24.95 53.15 30.4 53.15 32.9 53.15 33.85 54.75 34.95 56.4 34.75 56.4 L43.65 56.4 17.3 41.9 15.45 42.9 Q11.6 44.75 6.55 42.9 2.9 41.0 1.6 36.75 0.3 32.6 2.8 28.85 5.0 25.1 9.0 24.4 12.95 23.65 16.35 25.6 19.95 27.7 21.05 32.4 L21.1 33.9 21.05 35.55 47.15 50.0 42.95 42.9 41.3 42.9 Q39.05 42.9 37.85 40.3 36.5 38.6 37.0 36.5 37.35 34.25 39.2 33.35 44.25 31.4 46.15 35.2 47.35 37.3 46.65 39.45 L46.35 40.2 Q45.8 40.6 45.95 41.0 L50.4 48.8 50.4 19.3 Q49.7 19.25 47.2 17.85 43.65 13.95 43.65 9.5 43.65 5.5 46.8 2.35 49.8 -0.85 53.7 -0.85 58.2 -0.85 61.35 2.35 64.45 5.5 64.45 9.5 64.45 13.8 61.1 17.45 58.95 19.2 57.9 19.3 L57.9 47.75 61.85 41.0 61.45 40.2 61.1 39.45 Q60.05 37.35 61.7 35.2 63.95 31.25 68.65 33.35 70.3 34.25 70.85 36.5 71.35 38.6 70.5 40.3 69.55 42.3 66.95 42.9 L65.75 42.9 64.85 42.9 60.6 50.25 85.95 35.55 85.9 33.85 Q85.75 33.05 85.95 32.05" fill="#ffffff" fill-rule="evenodd" stroke="none"/>
  </g>
</svg>
