<?xml version="1.0" encoding="UTF-8" standalone="no"?>
<svg xmlns:xlink="http://www.w3.org/1999/xlink" height="123.1px" width="123.9px" xmlns="http://www.w3.org/2000/svg">
  <g transform="matrix(1.0, 0.0, 0.0, 1.0, -0.6, -0.9)">
    <path d="M87.05 70.15 L82.9 74.35 124.5 115.95 116.45 124.0 74.85 82.4 70.75 86.4 48.25 63.85 64.5 47.6 87.05 70.15 M90.9 13.4 L90.05 13.0 88.45 12.2 Q77.1 7.1 63.8 6.7 45.8 6.15 36.25 19.3 L58.25 41.3 41.95 57.6 20.1 35.8 Q16.2 38.45 13.3 41.85 6.0 50.6 6.4 64.1 6.65 73.75 9.45 82.25 10.8 86.5 12.7 90.45 L13.1 91.15 90.9 13.4 M92.45 7.65 Q94.5 7.55 96.45 8.5 98.45 9.55 99.15 11.05 99.85 12.55 98.75 13.7 97.85 14.8 95.7 15.0 L95.4 15.0 93.35 14.75 93.0 14.55 92.9 14.5 14.2 93.25 14.35 93.5 14.65 96.05 Q14.5 98.15 13.3 99.2 12.2 100.15 10.7 99.5 9.2 98.8 8.15 96.8 7.2 94.9 7.3 92.75 7.45 90.65 8.6 89.65 L9.35 89.2 6.95 84.75 Q1.05 72.65 0.6 58.3 0.2 44.75 7.55 36.05 10.4 32.7 14.35 30.05 L8.9 24.55 8.9 20.85 21.45 8.2 25.2 8.2 30.45 13.5 Q39.95 0.35 58.05 0.9 74.9 1.4 88.65 9.6 L88.85 9.7 89.3 8.95 Q90.3 7.8 92.45 7.65" fill="#ffffff" fill-rule="evenodd" stroke="none"/>
  </g>
</svg>
