<?xml version="1.0" encoding="UTF-8" standalone="no"?>
<svg xmlns:xlink="http://www.w3.org/1999/xlink" height="117.95px" width="117.9px" xmlns="http://www.w3.org/2000/svg">
  <g transform="matrix(1.0, 0.0, 0.0, 1.0, 0.0, 0.0)">
    <path d="M90.1 81.25 Q90.2 81.45 90.25 81.7 90.3 81.9 90.35 82.1 90.4 82.3 90.45 82.5 90.5 82.75 90.5 82.95 90.55 83.15 90.55 83.35 90.55 83.55 90.55 83.75 90.55 83.95 90.55 84.15 90.55 84.35 90.5 84.5 90.5 84.65 90.45 84.8 90.45 84.9 90.4 85.05 90.35 85.2 90.3 85.3 90.3 85.45 90.2 85.55 90.15 85.7 90.1 85.85 90.05 85.95 89.95 86.1 89.9 86.2 89.8 86.3 89.75 86.45 89.65 86.55 L86.15 91.05 Q87.65 92.1 89.3 93.15 90.95 94.2 92.75 95.25 94.5 96.25 96.45 97.3 98.3 98.35 100.3 99.4 102.3 100.4 104.4 101.45 106.5 102.45 108.7 103.45 110.85 104.45 113.1 105.45 115.35 106.4 117.7 107.35 L114.0 117.1 Q111.65 116.15 109.5 115.25 107.25 114.25 105.15 113.3 102.95 112.3 100.9 111.3 98.75 110.3 96.7 109.2 94.65 108.15 92.6 107.0 90.55 105.85 88.5 104.65 86.45 103.4 84.4 102.1 82.35 100.8 80.25 99.4 L75.75 104.75 Q75.55 105.0 75.3 105.25 75.1 105.5 74.8 105.7 74.55 105.9 74.25 106.05 73.95 106.2 73.65 106.3 73.3 106.45 72.95 106.5 72.6 106.6 72.25 106.65 71.85 106.7 71.45 106.7 71.05 106.7 70.6 106.7 70.4 106.7 70.2 106.65 70.0 106.65 69.8 106.6 69.55 106.6 69.35 106.55 69.15 106.5 68.95 106.45 68.75 106.4 68.5 106.35 68.3 106.3 68.1 106.2 67.85 106.15 67.65 106.05 67.45 106.0 67.2 105.9 67.0 105.85 66.85 105.75 66.65 105.7 66.45 105.6 66.25 105.5 66.1 105.4 65.9 105.35 65.7 105.2 65.5 105.1 65.3 105.0 65.1 104.9 64.9 104.75 64.7 104.65 64.5 104.5 64.3 104.35 64.1 104.2 L72.0 94.3 Q67.15 91.0 61.9 86.95 56.4 82.7 50.95 77.95 45.2 72.95 39.8 67.65 34.1 62.05 29.0 56.4 23.6 50.35 19.1 44.45 14.35 38.15 10.7 32.15 6.85 25.75 4.35 19.8 1.7 13.5 0.6 7.75 L4.15 -0.25 Q6.55 6.25 9.95 12.75 13.2 18.95 17.35 25.2 21.25 31.1 26.0 37.05 30.45 42.6 35.65 48.2 40.5 53.45 46.0 58.65 51.1 63.55 56.7 68.4 61.9 72.85 67.5 77.3 72.65 81.35 78.1 85.4 L86.05 75.45 Q86.45 75.75 86.8 76.05 87.2 76.4 87.5 76.7 87.85 77.05 88.1 77.4 88.4 77.75 88.65 78.1 88.9 78.45 89.15 78.85 89.35 79.2 89.55 79.6 89.7 80.0 89.85 80.4 90.0 80.8 90.1 81.25" fill="#ffffff" fill-rule="evenodd" stroke="none"/>
  </g>
</svg>
