<?xml version="1.0" encoding="UTF-8" standalone="no"?>
<svg xmlns:xlink="http://www.w3.org/1999/xlink" height="115.4px" width="115.2px" xmlns="http://www.w3.org/2000/svg">
  <g transform="matrix(1.0, 0.0, 0.0, 1.0, 0.0, 0.0)">
    <path d="M88.7 53.6 L102.4 68.0 104.85 71.75 100.5 75.6 Q98.35 75.45 96.1 75.85 93.95 76.25 91.75 77.1 89.6 77.95 87.6 79.2 85.6 80.4 83.85 81.95 82.1 83.5 80.65 85.25 79.25 87.0 78.25 88.9 77.25 90.8 76.75 92.7 76.3 94.7 76.4 96.55 L91.1 110.1 Q92.65 110.15 94.25 109.75 95.8 109.4 97.35 108.7 98.9 107.95 100.35 106.95 101.8 105.95 103.1 104.7 104.45 103.45 105.5 102.0 106.6 100.55 107.45 98.95 108.25 97.35 108.75 95.7 109.25 94.0 109.4 92.3 L95.35 75.85 100.5 75.6 114.55 92.9 Q114.0 94.95 113.05 97.0 112.1 99.0 110.8 100.9 109.6 102.8 108.05 104.55 106.55 106.25 104.85 107.8 103.2 109.3 101.4 110.55 99.6 111.85 97.8 112.75 95.95 113.75 94.2 114.3 92.4 114.9 90.8 115.05 L75.55 100.75 71.75 104.3 67.35 101.8 72.4 96.95 Q72.5 94.65 73.1 92.35 73.7 90.15 74.75 88.0 75.8 85.95 77.2 84.0 78.65 82.1 80.4 80.45 82.15 78.8 84.15 77.45 86.15 76.1 88.35 75.05 90.6 74.05 92.9 73.45 95.25 72.8 97.65 72.65 L98.95 71.4 90.7 63.6 63.85 90.2 71.25 98.0 67.35 101.8 53.55 88.25 19.8 70.3 15.45 65.1 22.35 65.0 61.75 80.2 32.8 51.8 29.25 44.75 36.95 47.15 70.65 71.0 47.6 36.6 45.6 29.35 52.0 32.95 80.0 61.8 63.35 23.85 63.85 17.25 69.0 21.85 88.7 53.6" fill="#ffffff" fill-rule="evenodd" stroke="none"/>
  </g>
</svg>
