<?xml version="1.0" encoding="UTF-8" standalone="no"?>
<svg xmlns:xlink="http://www.w3.org/1999/xlink" height="923.8px" width="701.85px" xmlns="http://www.w3.org/2000/svg">
  <g transform="matrix(1.0, 0.0, 0.0, 1.0, 53.55, -0.05)">
    <path d="M459.3 367.7 Q441.4 364.9 424.0 363.0 296.4 351.95 194.35 422.75 L604.9 833.1 618.55 819.25 648.3 849.05 573.45 923.85 543.7 894.1 556.65 881.15 146.1 470.8 110.6 506.5 90.6 486.55 Q23.4 470.15 -34.85 517.8 -48.45 445.5 -16.75 379.15 L-46.75 349.2 -11.25 313.45 -53.55 270.95 -5.3 222.9 37.05 265.4 Q68.3 225.0 84.0 178.65 111.45 98.5 91.65 0.05 154.2 21.1 208.2 54.7 360.85 149.1 447.35 339.8 L459.3 367.7 M78.3 306.45 L154.6 383.0 Q170.55 367.05 170.55 344.5 170.55 321.95 154.6 306.25 138.65 290.3 116.55 290.5 94.2 290.5 78.3 306.45" fill="#ffffff" fill-rule="evenodd" stroke="none"/>
  </g>
</svg>
