<?xml version="1.0" encoding="UTF-8" standalone="no"?>
<svg xmlns:xlink="http://www.w3.org/1999/xlink" height="115.4px" width="115.2px" xmlns="http://www.w3.org/2000/svg">
  <g transform="matrix(1.0, 0.0, 0.0, 1.0, 0.0, 0.0)">
    <path d="M110.75 100.95 L110.75 100.95 100.85 110.55 57.8 66.95 Q57.8 66.95 57.8 66.75 57.85 66.5 57.85 66.25 57.85 65.85 57.85 65.45 57.85 64.95 57.8 64.5 57.75 63.95 57.65 63.45 57.55 62.9 57.4 62.4 57.25 61.85 57.0 61.4 56.75 60.9 56.4 60.5 55.15 59.15 42.4 46.3 36.15 40.05 29.85 33.75 L23.9 32.3 15.4 35.1 8.95 15.2 5.45 5.8 15.25 9.0 35.55 16.15 31.9 24.2 33.8 28.8 Q33.8 28.8 46.75 41.65 59.65 54.45 61.05 55.9 61.4 56.25 61.9 56.5 62.4 56.75 62.95 56.95 63.45 57.15 64.05 57.3 64.6 57.4 65.15 57.5 65.65 57.55 66.2 57.6 66.6 57.65 67.0 57.65 67.3 57.65 67.55 57.65 67.65 57.65 67.75 57.65 L110.75 100.95" fill="#ffffff" fill-rule="evenodd" stroke="none"/>
  </g>
</svg>
