<?xml version="1.0" encoding="UTF-8" standalone="no"?>
<svg xmlns:xlink="http://www.w3.org/1999/xlink" height="814.55px" width="814.8px" xmlns="http://www.w3.org/2000/svg">
  <g transform="matrix(1.0, 0.0, 0.0, 1.0, 90.0, -35.05)">
    <path d="M520.25 298.65 Q482.45 279.2 461.55 239.75 431.85 177.5 387.2 140.2 315.2 79.65 203.55 83.2 124.7 85.35 54.1 107.9 18.7 118.85 -13.6 135.0 L-19.55 138.1 621.65 779.25 Q623.35 776.2 624.75 772.15 628.3 765.5 631.15 758.85 673.45 665.5 676.8 556.45 682.25 375.15 520.25 298.65 M653.05 761.2 L652.3 762.65 Q655.15 764.05 658.25 766.2 L658.5 766.45 Q668.0 774.5 668.95 791.85 669.65 809.2 662.05 825.35 653.5 841.75 641.15 847.2 628.8 853.15 619.05 844.35 610.05 836.75 608.35 819.4 608.85 818.0 608.15 816.55 608.6 808.0 610.75 799.95 L612.4 797.35 Q612.15 796.4 612.4 796.15 L-36.65 147.1 Q-37.6 147.6 -38.75 148.55 -48.75 150.9 -59.9 150.9 -77.0 149.7 -85.1 140.0 -93.4 130.95 -87.7 118.35 -82.0 106.25 -65.85 97.45 -49.95 89.6 -32.35 90.55 -14.8 91.75 -6.95 101.0 -4.55 104.35 -2.9 107.45 14.45 96.75 33.95 87.7 133.25 38.75 251.3 35.2 362.95 31.9 434.95 92.25 485.55 134.75 516.9 208.85 527.6 232.65 551.1 243.1 730.25 317.9 724.55 508.45 720.5 647.4 653.05 761.2" fill="#ffffff" fill-rule="evenodd" stroke="none"/>
  </g>
</svg>
