<?xml version="1.0" encoding="UTF-8" standalone="no"?>
<svg
   height="512"
   width="512"
   version="1.1"
   id="svg978"
   sodipodi:docname="armor_clothing.svg"
   xmlns:inkscape="http://www.inkscape.org/namespaces/inkscape"
   xmlns:sodipodi="http://sodipodi.sourceforge.net/DTD/sodipodi-0.dtd"
   xmlns="http://www.w3.org/2000/svg"
   xmlns:svg="http://www.w3.org/2000/svg">
  <defs
     id="defs982" />
  <sodipodi:namedview
     id="namedview980"
     pagecolor="#505050"
     bordercolor="#ffffff"
     borderopacity="1"
     inkscape:showpageshadow="0"
     inkscape:pageopacity="0"
     inkscape:pagecheckerboard="1"
     inkscape:deskcolor="#505050"
     showgrid="false" />
  <g
     transform="matrix(4.0204162,0,0,4.0204162,6.834706,-13.418141)"
     id="g976">
    <path
       d="m 96.55,32.15 q 1.1,21.5 0,43.6 -2.8,4.15 -3.4,11.05 l -0.05,0.7 q -0.85,10.65 -4.85,17.2 l -1.9,2.85 q -24.55,6.35 -49.05,0 L 35.4,104.7 Q 31.35,98.15 30.55,87.5 L 30.5,86.8 Q 29.85,80.25 27.35,76.1 26.2,53.7 27.3,32 32.8,27.35 40.35,24.8 l 4,-0.65 Q 47,44.75 61.25,59.85 74.4,44.45 78.3,24.1 l 5,0.7 q 7.6,2.6 13.25,7.35 m 7.05,7.05 0.9,1.4 21.15,25.3 -17.15,16.65 -8.25,-10 q 0.9,-19 0,-37.5 l 3.35,4.15 M 50.05,23.85 q 11.4,-1.1 23.3,0 L 74,23.95 Q 72.05,40.9 61.3,53.15 49.7,41.15 48.95,23.95 l 1.1,-0.1 M 20.1,39.15 q 1.55,-2.25 3.45,-4.25 -0.9,18.6 0.05,37.65 L 23.5,72.5 15.35,82.25 -1.7,65.65 19.1,40.6 l 0.95,-1.35 0.05,-0.1"
       fill="#ffffff"
       fill-rule="evenodd"
       stroke="none"
       id="path974" />
  </g>
</svg>
