<?xml version="1.0" encoding="UTF-8" standalone="no"?>
<svg
   height="512"
   width="512"
   version="1.1"
   id="svg139"
   sodipodi:docname="conjuration.svg"
   xmlns:inkscape="http://www.inkscape.org/namespaces/inkscape"
   xmlns:sodipodi="http://sodipodi.sourceforge.net/DTD/sodipodi-0.dtd"
   xmlns="http://www.w3.org/2000/svg"
   xmlns:svg="http://www.w3.org/2000/svg">
  <defs
     id="defs143" />
  <sodipodi:namedview
     id="namedview141"
     pagecolor="#505050"
     bordercolor="#ffffff"
     borderopacity="1"
     inkscape:showpageshadow="0"
     inkscape:pageopacity="0"
     inkscape:pagecheckerboard="1"
     inkscape:deskcolor="#505050"
     showgrid="false" />
  <g
     transform="matrix(0.52982874,0,0,0.52982874,-22.703289,21.749468)"
     id="g137">
    <path
       d="m 478.55,275.45 q 9.65,-12.1 21.3,-18 29.35,-18.15 68.3,-11.6 88.75,20.6 79.5,125.55 Q 624.25,484.8 525.2,485.5 433.95,476.7 397.75,361.05 373,262.7 423.6,156.3 q -214.85,296.3 60.65,653.55 -17.95,12.5 -49.3,0 Q 165.8,605.25 282.3,7.75 l -54.9,-48.8 h 592.4 l -67.9,58.2 Q 952.15,688.25 601.2,925.3 579.55,923.95 585.45,909.3 758.7,719.4 732.45,418.7 696.5,7.75 397.6,4.9 q -21.3,42.3 95.2,83.95 -76.4,106.9 -82.3,245.05 1.95,76.65 87.55,110.2 81.5,15.7 114.75,-46.45 17.35,-73.65 -16.85,-76.9 1.1,7.4 1.1,15.8 0,35.7 -20.6,60.45 -20.1,25.6 -48.8,25.6 -28.9,0 -49.1,-25.6 -20.1,-24.75 -20.1,-60.45 0,-35.7 20.1,-61.1"
       fill="#ffffff"
       fill-rule="evenodd"
       stroke="none"
       id="path135" />
  </g>
</svg>
