<?xml version="1.0" encoding="UTF-8" standalone="no"?>
<svg
   height="512"
   width="512"
   version="1.1"
   id="svg896"
   sodipodi:docname="destruction.svg"
   xmlns:inkscape="http://www.inkscape.org/namespaces/inkscape"
   xmlns:sodipodi="http://sodipodi.sourceforge.net/DTD/sodipodi-0.dtd"
   xmlns="http://www.w3.org/2000/svg"
   xmlns:svg="http://www.w3.org/2000/svg">
  <defs
     id="defs900" />
  <sodipodi:namedview
     id="namedview898"
     pagecolor="#505050"
     bordercolor="#ffffff"
     borderopacity="1"
     inkscape:showpageshadow="0"
     inkscape:pageopacity="0"
     inkscape:pagecheckerboard="1"
     inkscape:deskcolor="#505050"
     showgrid="false" />
  <g
     transform="matrix(0.53508909,0,0,0.53508909,93.252653,-21.45707)"
     id="g894">
    <path
       d="m 368.3,90.65 q -16.45,74 42.3,100 -69.15,82.5 -68.3,183.6 6.95,145.3 1.05,282.9 -31.7,-13.65 -66.15,-15.15 -14.8,-89.45 -4.5,-181 3.2,-82.25 -15.45,-166.45 -21.5,-57.85 8.9,-98 7.2,38.2 40.55,44.65 34.3,-4.95 24.3,-79.6 -22.5,-70.95 -19.7,-121.5 17.1,26.05 53.8,27.1 13.2,7.4 3.2,23.45 m 128.9,149.9 q -80.7,125 -54.9,175.75 37.6,69.45 77.1,15 14.25,-18.65 11.2,-41.45 51.65,63.55 -5.8,102.15 -110.25,61 -97.45,140.45 16.25,59 5.45,95.65 -12.6,-15.8 -26.3,-28.2 l -8,-7.15 Q 384.4,676.5 379.85,641.35 366.4,530 372.25,416.3 q 3.7,-98 82.25,-188.1 40.5,-54.2 22.75,-110 52.05,50.35 19.95,122.35 m -486.8,7.2 q 1,-28.6 48.95,-51.45 -23.45,44.9 -6.9,56 118.65,98.75 100.25,233.9 -17.8,127.1 5.4,206.35 l 3.3,9.7 q -37.75,40.4 -37.75,97.25 0,57.5 38.3,97.65 38.9,40.8 94,40.8 55.15,0 93.55,-40.8 30.35,-31.7 30.75,-77.7 -3,-37.3 -26.45,-60.75 5.25,16.95 5.25,36.25 0,46.35 -30.4,79.35 -29.95,33 -72.7,33 -42.75,0 -73.15,-33 -29.9,-33 -29.9,-79.35 0,-42.8 25.4,-74.2 44.65,-58.35 109.55,-54.65 51,5.15 88.95,43.35 49.45,49.25 49.45,119.15 0,69.4 -49.45,119.1 -49.45,49.25 -118.85,49.25 -69.9,0 -118.95,-49.25 -20.4,-20.65 -32.3,-44.25 -25.85,-40.2 -31.05,-80.3 -16,-135.85 1.55,-305.5 9.5,-160.3 -32.15,-214.8 -31.5,-21.9 -34.65,-55.1 m 164.4,119.75 -0.4,-2.6 q 1.05,-85.45 -11.8,-99.8 -56.35,-35.55 -21.65,-88.55 58.6,-50.75 48.85,-94.8 40.3,55.8 20.2,119.75 -31.3,99.4 22.7,130 l 15,311.35 q -29.25,2.6 -60.55,14.1 L 174.8,367.5 m 376,364.75 q 2.4,211.5 -141.2,231.45 79.35,-74.15 83.55,-203.05 4.7,-128.85 104.75,-204.8 -47.95,69.4 -47.1,176.4"
       fill="#ffffff"
       fill-rule="evenodd"
       stroke="none"
       id="path892" />
  </g>
</svg>
