<?xml version="1.0" encoding="UTF-8" standalone="no"?>
<svg
   height="512"
   width="512"
   version="1.1"
   id="svg6"
   sodipodi:docname="food.svg"
   xmlns:inkscape="http://www.inkscape.org/namespaces/inkscape"
   xmlns:sodipodi="http://sodipodi.sourceforge.net/DTD/sodipodi-0.dtd"
   xmlns="http://www.w3.org/2000/svg"
   xmlns:svg="http://www.w3.org/2000/svg">
  <defs
     id="defs10" />
  <sodipodi:namedview
     id="namedview8"
     pagecolor="#505050"
     bordercolor="#ffffff"
     borderopacity="1"
     inkscape:showpageshadow="0"
     inkscape:pageopacity="0"
     inkscape:pagecheckerboard="1"
     inkscape:deskcolor="#505050"
     showgrid="false" />
  <g
     transform="matrix(5.5329611,0,0,5.5329611,-5.6085104,-5.4551224)"
     id="g4">
    <path
       d="M 91.1,21.3 Q 86.5,30.05 79.55,37.55 69.8,49.1 58.85,59.6 45.9,72.5 31.75,84.25 24.9,89.4 16.55,93 12.25,94.25 7.7,92.1 1.5,86.8 1.15,78.1 0.55,71.8 2.65,66.2 4.4,59.1 7.9,52.55 l 18.4,2.65 q 3.95,0 6.95,-1.85 Q 29.2,48.25 22.7,47.15 15.8,45.35 9.1,48.4 10,44.05 11.75,40.25 14.4,36.1 18.9,34.6 21.35,33.55 23.95,33 36.5,34.6 48.8,38.9 52.3,39.05 53.35,36.85 51.9,34.7 49.9,33.25 44.45,29.75 37.7,28.4 31.5,27.05 25.75,28.8 26.8,24.65 29,21.4 33.3,17.2 39.35,17.35 L 44.1,16 q 10.25,1.8 21.25,5.1 2.1,0 3.7,-2.3 -2.75,-4 -8.45,-5.05 -6.55,-2 -13.85,-1.5 2.65,-3.65 6.05,-6 5.05,-2.4 10.1,-1.85 5.4,-2.2 11.2,-3.15 6.85,-1.15 13.45,2.65 3.7,2.35 6,6.7 1,5.8 -2.45,10.7"
       fill="#fefefe"
       fill-rule="evenodd"
       stroke="none"
       id="path2" />
  </g>
</svg>
