<?xml version="1.0" encoding="UTF-8" standalone="no"?>
<svg
   height="512"
   width="512"
   version="1.1"
   id="svg907"
   sodipodi:docname="hand_to_hand.svg"
   xmlns:inkscape="http://www.inkscape.org/namespaces/inkscape"
   xmlns:sodipodi="http://sodipodi.sourceforge.net/DTD/sodipodi-0.dtd"
   xmlns="http://www.w3.org/2000/svg"
   xmlns:svg="http://www.w3.org/2000/svg">
  <defs
     id="defs911" />
  <sodipodi:namedview
     id="namedview909"
     pagecolor="#505050"
     bordercolor="#ffffff"
     borderopacity="1"
     inkscape:showpageshadow="0"
     inkscape:pageopacity="0"
     inkscape:pagecheckerboard="1"
     inkscape:deskcolor="#505050"
     showgrid="false" />
  <g
     transform="matrix(1.5602229,0,0,1.5602229,-39.452064,-41.156022)"
     id="g905">
    <path
       d="m 179.95,47.15 -12.15,23.1 q -4.2,7.2 -7.25,13.55 l -14.5,-4.1 q -8,-2.6 -16.2,-4.05 l -17.95,-5.1 q 1.6,-6.85 5.4,-12.55 5.4,-12.2 11.35,-24.6 1.95,-3.4 3.55,-7.1 5.55,-0.8 9.7,2.1 l 18.05,5.15 q 8.3,2.35 16.15,5.65 3.05,1.05 5.3,3.05 0.65,2.35 -1.45,4.9"
       fill="#ffffff"
       fill-rule="evenodd"
       stroke="none"
       id="path893" />
    <path
       d="m 189.25,45.9 q 10.6,-1.45 21.1,4.75 13.65,5.15 24.75,15.05 3.15,2.45 -0.15,5.05 -5.9,11.15 -13.3,21.1 L 202.7,120 q 1.05,-10.1 1,-21.4 -2.35,-4.95 -9.5,-4.8 -12.4,-4.05 -24.9,-7.45 3.55,-8.7 8.3,-16.75 l 9.35,-20.65 q 0.9,-1.65 2.3,-3.05"
       fill="#ffffff"
       fill-rule="evenodd"
       stroke="none"
       id="path895" />
    <path
       d="m 258.75,76.5 q 8.9,4.45 16.3,11.45 4.3,4.15 7.6,9.75 0.7,2.3 -0.9,4.1 -14.45,29.85 -37.05,52.9 -4.75,6.3 -10.95,11.6 -6.8,1.2 -12.65,-1.1 -15.9,-2.2 -31.55,-5.65 1.95,-3.95 4.5,-7.5 5.5,-10.85 11.95,-21.05 15.1,-25.6 31.35,-50.4 l 5.9,-8.4 q 3.25,-0.9 6.55,0.5 l 8.95,3.8"
       fill="#ffffff"
       fill-rule="evenodd"
       stroke="none"
       id="path897" />
    <path
       d="m 189.2,98.75 q 3,1.05 6.35,2.75 1.45,8.6 -1.5,17.55 -0.55,2.85 -0.95,5.8 -0.75,2.45 -3.25,2.7 -7.2,3.05 -14.1,6.2 -4.35,1.2 -8.4,2.85 -8.45,1.95 -17.25,2.7 -10.4,-1.4 -18.4,-10.7 -4.4,-3.45 -8,-7.3 3.4,10.4 8.05,19.95 0.65,1.55 -0.65,3.35 -1.85,3.7 -5.45,5.75 -8.1,1.75 -16.25,2.25 l 1.2,0.95 16.5,2.15 17.15,3.85 q 9.45,3.05 17.25,8.95 13.8,9 26.65,19.85 8.4,6.75 14.75,15.25 8.95,11.1 14.8,24.2 1.9,4.35 3,9 1.55,4.45 1.35,9.15 -2.3,1.9 -5.35,2.2 -11.55,0.55 -23.1,2.75 13.1,35.95 27.1,71.35 1.6,4.35 3.6,8.15 -0.25,-4.35 -1.65,-8.55 l -13.35,-63.2 10.45,1.65 q 7.35,-0.6 14.3,-3.15 1.45,-5.8 -0.1,-11.95 -2.4,-23.2 -18.5,-41.4 -9.4,-11.7 -21.05,-21.7 -5.2,-4.55 -11.05,-8.45 l -10.9,-6.95 14.25,1.4 q 16.2,1.75 32.3,4.4 l 7.25,1 q 5.2,1.95 9.8,5.2 12.35,7.9 24.2,16.35 1.4,0.75 3.4,1.15 L 276.8,186 q 15.25,-11.75 30.3,-23.75 2.65,8.45 1.15,17.05 -1.1,11.25 -4.45,21.75 -2.7,10.45 -6.45,20.6 l -4.6,12.6 q -8,12.05 -20.4,20.85 -4.7,3.9 -9.25,7.95 -3.45,2.85 -0.65,6.95 0,14 2.5,27.8 1.45,8.6 0.9,17.2 0.85,6.5 0.9,12.85 0.55,4.6 0.7,9.05 -30.8,15.3 -66.25,17.4 -9.75,1 -19.8,-0.05 -25.4,-1.15 -49.8,-10.35 -1.35,-0.5 -2.6,-1.3 -0.35,-4.7 0.95,-9.4 1.1,-4.75 0.95,-9.5 0.85,-4.5 0.75,-9.05 0.7,-4.75 0.9,-9.6 l 1.8,-17.85 q 0.55,-7.35 1.65,-14.75 1.3,-6.55 1.15,-13.05 0.35,-3.6 -0.1,-7.15 l -7.55,-7.45 q -6,-4.9 -11.1,-10.7 -7.2,-6.35 -13.35,-13.65 Q 84.35,201 64.7,180.6 q -2.35,-2.4 -4.6,-5.35 -1.3,-4.9 2.55,-9.85 7.3,-26.85 17.1,-52.65 L 89,85.2 q 1.25,-4.3 5,-6.95 7.35,-3.85 16.2,-1.7 26.65,7.4 53.1,15.15 l 25.9,7.05"
       fill="#ffffff"
       fill-rule="evenodd"
       stroke="none"
       id="path899" />
    <path
       d="m 290.95,108 q 7.85,1.25 13.55,8.3 6.25,4.8 10.5,11.25 2.65,3.6 3.9,8.25 0.55,4.85 -4.05,8 l -13.5,12.75 q -17.3,15.25 -35.05,29.45 -2.4,1.75 -5.1,1.45 -8.1,-2.05 -14.75,-8.6 -3.85,-3.05 -6.6,-7 3.5,-5.6 7.7,-10.55 l 32.95,-44.3 5.7,-7.1 q 2.1,-1.8 4.75,-1.9"
       fill="#ffffff"
       fill-rule="evenodd"
       stroke="none"
       id="path901" />
    <path
       d="M 224.35,332.1 224,331.55 224.35,331 h 0.6 l 0.3,0.55 -0.3,0.55 h -0.6"
       fill="#000000"
       fill-rule="evenodd"
       stroke="none"
       id="path903" />
  </g>
</svg>
