<?xml version="1.0" encoding="UTF-8" standalone="no"?>
<!DOCTYPE svg PUBLIC "-//W3C//DTD SVG 1.1//EN" "http://www.w3.org/Graphics/SVG/1.1/DTD/svg11.dtd">
<svg width="100%" height="100%" viewBox="0 0 479 683" version="1.1" xmlns="http://www.w3.org/2000/svg" xmlns:xlink="http://www.w3.org/1999/xlink" xml:space="preserve" xmlns:serif="http://www.serif.com/" style="fill-rule:evenodd;clip-rule:evenodd;stroke-linejoin:round;stroke-miterlimit:2;">
    <g transform="matrix(1.33333,0,0,1.33333,0,0)">
        <g transform="matrix(1,0,0,1,-30.25,-16.1)">
            <g transform="matrix(0.587156,0,0,0.587156,12.4885,6.64679)">
                <path d="M418.05,71.9L418.05,98.4L452.55,98.4C462.183,98.4 470.483,102.4 477.45,110.4C485.517,119.267 489.55,129.317 489.55,140.55C489.55,150.983 485.517,160.083 477.45,167.85C471.317,175.05 464.633,179.467 457.4,181.1C456.9,187.267 454.5,192.217 450.2,195.95C449.1,198.117 447.617,199.6 445.75,200.4C442.283,203.333 438,204.8 432.9,204.8L430.1,204.8L430.1,272.65C462.467,310.383 490.583,345.3 514.45,377.4C576.517,460.9 608.483,523 610.35,563.7L641.7,833.85L641.7,842.75C641.7,847.283 640.75,851.433 638.85,855.2C627.883,875.267 587.867,886.233 518.8,888.1L152.3,888.1C84.067,886.233 44.45,875.267 33.45,855.2C31.317,851.7 30.25,847.55 30.25,842.75L30.25,833.85L61.95,563.7C60.917,524.633 92.117,462.533 155.55,377.4C178.283,345.3 205.833,310.383 238.2,272.65L238.2,204.8L237,204.8C229.767,204.8 223.617,201.85 218.55,195.95C214.783,192.217 212.633,187.267 212.1,181.1C203.3,180.3 195.417,175.883 188.45,167.85C184.383,163.55 181.433,158.883 179.6,153.85C178.233,149.783 177.55,145.35 177.55,140.55C177.55,135.483 178.233,130.667 179.6,126.1C181.433,120.733 184.383,115.5 188.45,110.4C196.183,102.4 204.867,98.4 214.5,98.4L250.25,98.4L250.25,71.9C250.25,34.7 264.7,16.1 293.6,16.1L375.1,16.1C403.733,16.1 418.05,34.7 418.05,71.9M184.45,550.45L278.35,617.5L184.45,684.15L184.45,772.85L338.95,654.05L338.95,580.15L184.45,461.75L184.45,550.45M367.85,550.45L461.8,617.5L367.85,684.15L367.85,772.85L522.45,654.05L522.45,580.15L367.85,461.75L367.85,550.45" style="fill:white;"/>
            </g>
        </g>
    </g>
</svg>
