<?xml version="1.0" encoding="UTF-8" standalone="no"?>
<!DOCTYPE svg PUBLIC "-//W3C//DTD SVG 1.1//EN" "http://www.w3.org/Graphics/SVG/1.1/DTD/svg11.dtd">
<svg width="100%" height="100%" viewBox="0 0 464 683" version="1.1" xmlns="http://www.w3.org/2000/svg" xmlns:xlink="http://www.w3.org/1999/xlink" xml:space="preserve" xmlns:serif="http://www.serif.com/" style="fill-rule:evenodd;clip-rule:evenodd;stroke-linejoin:round;stroke-miterlimit:2;">
    <g transform="matrix(1.33333,0,0,1.33333,0,0)">
        <g transform="matrix(0.649994,0,0,0.649994,-42.4771,-21.6448)">
            <path d="M422,84.85C429.1,84.85 435.533,88.067 441.3,94.5C447.6,101.733 450.75,109.817 450.75,118.75C450.75,127.55 447.6,135.15 441.3,141.55C436.3,147.217 431.433,150.817 426.7,152.35C425.767,157.25 423.35,161.267 419.45,164.4C419.45,166.1 418.733,167.35 417.3,168.15C414.833,170.483 411.483,171.65 407.25,171.65L404.85,171.65L404.85,323.4L423.2,328.4C459.3,341.4 492.233,362.633 522,392.1C574.067,444.3 600.1,507.433 600.1,581.5C600.1,655.367 574.067,718.233 522,770.1C500.967,791.167 477.983,808.133 453.05,821L212.15,821C187.217,808.133 164.333,791.167 143.5,770.1C91.4,718.233 65.35,655.367 65.35,581.5C65.35,507.433 91.4,444.3 143.5,392.1C173.9,361.533 208.783,339.9 248.15,327.2C250.683,326.233 253.6,325.35 256.9,324.55L256.9,171.65L255.45,171.65C249.983,171.65 245.283,169.233 241.35,164.4C238.817,161.267 237.167,157.25 236.4,152.35C229.333,151.583 223.283,147.983 218.25,141.55C212.65,135.15 209.85,127.55 209.85,118.75C209.85,109.817 212.65,101.733 218.25,94.5C223.883,88.067 230.633,84.85 238.5,84.85L265.35,84.85L265.35,67.95C265.35,44.85 276.567,33.3 299,33.3L361.8,33.3C384.067,33.3 395.2,44.85 395.2,67.95L395.2,84.85L422,84.85" style="fill:white;"/>
        </g>
    </g>
</svg>
