<?xml version="1.0" encoding="UTF-8" standalone="no"?>
<!DOCTYPE svg PUBLIC "-//W3C//DTD SVG 1.1//EN" "http://www.w3.org/Graphics/SVG/1.1/DTD/svg11.dtd">
<svg width="100%" height="100%" viewBox="0 0 395 683" version="1.1" xmlns="http://www.w3.org/2000/svg" xmlns:xlink="http://www.w3.org/1999/xlink" xml:space="preserve" xmlns:serif="http://www.serif.com/" style="fill-rule:evenodd;clip-rule:evenodd;stroke-linejoin:round;stroke-miterlimit:2;">
    <g transform="matrix(1.33333,0,0,1.33333,-0.0887587,0)">
        <g transform="matrix(4.33531,0,0,4.33531,13.0059,19.9424)">
            <path d="M26.75,-4.6L35.05,-4.6C38.217,-4.6 39.8,-2.967 39.8,0.3L39.8,2.3L43.2,2.3C44.2,2.3 45.1,2.7 45.9,3.5C46.6,4.8 46.95,5.9 46.95,6.8C46.95,8.033 46.6,9.183 45.9,10.25L43.8,11.6L42.95,13.2L42.75,13.8L41.15,13.95L41,13.95L41,28.65C57.733,38.517 65.783,49.333 65.15,61.1C64.183,79.4 60.583,96.867 54.35,113.5L7.7,113.5C1.633,97.267 -1.917,79.983 -2.95,61.65C-3.583,49.883 4.467,39.067 21.2,29.2L21.2,13.95L21.05,13.95C20.25,13.95 19.65,13.7 19.25,13.2C18.85,12.8 18.583,12.267 18.45,11.6C17.417,11.5 16.633,11.05 16.1,10.25C15.3,9.183 14.9,8.033 14.9,6.8C14.9,5.9 15.3,4.8 16.1,3.5C16.867,2.7 17.717,2.3 18.65,2.3L22.4,2.3L22.4,0.3C22.4,-2.967 23.85,-4.6 26.75,-4.6M27.9,48.4C26.967,49.367 26.5,50.433 26.5,51.6C26.5,52.967 27.017,54.25 28.05,55.45L29.55,56.05L29.55,69.55L27.5,65.95L27.65,65.6L27.85,65.25C28.05,64.583 27.983,63.933 27.65,63.3C27.05,62.133 25.967,61.883 24.4,62.55C23.9,62.783 23.583,63.233 23.45,63.9C23.283,64.533 23.4,65.133 23.8,65.7C24.167,66.467 24.683,66.85 25.35,66.85L26.15,66.85L28.05,70.05L16.15,63.55L16.2,62.75L16.15,62.05C15.817,60.65 15.117,59.617 14.05,58.95C12.983,58.317 11.867,58.133 10.7,58.4C9.467,58.6 8.533,59.267 7.9,60.4C7.133,61.567 6.933,62.783 7.3,64.05C7.7,65.317 8.45,66.25 9.55,66.85C11.083,67.417 12.433,67.417 13.6,66.85L14.4,66.4L26.5,72.95L22.4,72.95L22,72.25C21.733,71.75 21.217,71.5 20.45,71.5C18.783,71.5 17.95,72.283 17.95,73.85C17.95,75.417 18.783,76.2 20.45,76.2C21.35,76.2 21.917,75.967 22.15,75.5L22.35,74.8L22.4,74.6L26.4,74.6L14.3,81.3L13.3,80.85C12.033,80.417 10.783,80.567 9.55,81.3C8.517,81.967 7.85,82.867 7.55,84C7.217,85.167 7.333,86.3 7.9,87.4C8.5,88.6 9.433,89.333 10.7,89.6C11.967,89.9 13.15,89.767 14.25,89.2C15.45,88.567 16.2,87.367 16.5,85.6C16.6,84.967 16.533,84.483 16.3,84.15L28.15,77.55L26.15,81.1C25.95,80.933 25.633,80.933 25.2,81.1C24.633,81.233 24.167,81.583 23.8,82.15C22.967,83.417 23.25,84.467 24.65,85.3C25.95,86.033 26.95,85.783 27.65,84.55C28.083,83.883 28.15,83.183 27.85,82.45L27.65,82.05L27.5,81.85L29.55,78.25L29.55,91.7C29.283,91.8 29.067,91.917 28.9,92.05L28.05,92.4C27.017,93.367 26.5,94.633 26.5,96.2C26.5,97.4 26.967,98.483 27.9,99.45C28.8,100.417 29.85,100.9 31.05,100.9C32.383,100.9 33.55,100.417 34.55,99.45C35.483,98.483 35.95,97.4 35.95,96.2C35.95,94.7 35.45,93.517 34.45,92.65C34.083,92.283 33.583,91.967 32.95,91.7L32.95,78.6L34.95,81.85L34.45,82.45C33.983,83.117 34.05,83.817 34.65,84.55C35.483,85.783 36.55,86.033 37.85,85.3C38.983,84.467 39.25,83.417 38.65,82.15C38.383,81.683 37.867,81.333 37.1,81.1L36.5,81.05L36.3,81.1L34.2,77.5L45.75,84.15L45.7,84.9L45.75,85.6C45.917,87.2 46.7,88.4 48.1,89.2C49.167,89.867 50.317,90.017 51.55,89.65C52.85,89.317 53.833,88.567 54.5,87.4C55.233,86.2 55.417,84.983 55.05,83.75C54.683,82.483 53.967,81.517 52.9,80.85C51.767,80.183 50.5,80.1 49.1,80.6L48.35,80.85C48.05,80.917 47.783,81.067 47.55,81.3L36.1,74.6L40,74.6L40.25,75.5C40.617,75.967 41.217,76.2 42.05,76.2C43.517,76.2 44.25,75.417 44.25,73.85C44.25,72.283 43.517,71.5 42.05,71.5C41.35,71.5 40.75,71.75 40.25,72.25L40,72.95L36,72.95L47.3,66.4L48.1,66.95L48.8,67.3L50.8,67.55C51.433,67.383 52.067,67.15 52.7,66.85C53.9,66.25 54.65,65.317 54.95,64.05C55.217,62.75 55.067,61.517 54.5,60.35C53.833,59.217 52.85,58.533 51.55,58.3C50.317,57.933 49.167,58.033 48.1,58.6C46.7,59.4 45.917,60.517 45.75,61.95C45.683,62.217 45.667,62.467 45.7,62.7L45.75,63.55L34.2,70.2L36.15,66.85L37.1,66.85C37.9,66.65 38.417,66.267 38.65,65.7C38.95,65.133 39.017,64.533 38.85,63.9C38.683,63.233 38.35,62.783 37.85,62.55C36.45,61.85 35.383,62.1 34.65,63.3C34.183,63.967 34.117,64.617 34.45,65.25L34.75,65.95L32.95,69.05L32.95,56.05C33.317,56.017 33.817,55.75 34.45,55.25C35.45,54.15 35.95,52.933 35.95,51.6C35.95,50.433 35.483,49.367 34.55,48.4C33.55,47.4 32.383,46.9 31.05,46.9C29.85,46.9 28.8,47.4 27.9,48.4" style="fill:white;"/>
        </g>
    </g>
</svg>
