<?xml version="1.0" encoding="UTF-8" standalone="no"?>
<!DOCTYPE svg PUBLIC "-//W3C//DTD SVG 1.1//EN" "http://www.w3.org/Graphics/SVG/1.1/DTD/svg11.dtd">
<svg width="100%" height="100%" viewBox="0 0 362 512" version="1.1" xmlns="http://www.w3.org/2000/svg" xmlns:xlink="http://www.w3.org/1999/xlink" xml:space="preserve" xmlns:serif="http://www.serif.com/" style="fill-rule:evenodd;clip-rule:evenodd;stroke-linejoin:round;stroke-miterlimit:2;">
    <g transform="matrix(0.610687,0,0,0.610687,-33.4962,-16.3969)">
        <path d="M515.6,146.35C515.6,156.717 511.383,165.55 502.95,172.85C496.35,179.65 489.25,184 481.65,185.9C480.45,191.5 477.7,196.217 473.4,200.05C472.2,201.917 470.717,203.283 468.95,204.15C465.117,207.117 460.4,208.6 454.8,208.6L451.95,208.6L451.95,273.6L454.8,273.6C462.3,273.6 468.5,275.983 473.4,280.75C478.9,286.45 481.65,292.65 481.65,299.35C481.65,308.617 478.9,315.583 473.4,320.25C468.5,326.117 462.3,329.05 454.8,329.05L451.95,329.05L451.95,370.15C486.75,395.717 516.983,419.4 542.65,441.2C609.683,497.867 644.15,539.85 646.05,567.15L646.05,723.35C646.05,817.95 600.733,865.25 510.1,865.25L189.45,865.25C122.917,865.25 81.05,839.25 63.85,787.25C57.883,769.117 54.9,747.817 54.9,723.35L54.9,567.15C54.533,558.917 57.517,549.267 63.85,538.2C78.05,513.4 108.7,481.067 155.8,441.2C180.167,419.4 209.867,395.717 244.9,370.15L244.9,329.05L243.65,329.05C235.683,329.05 228.95,326.117 223.45,320.25C218.817,315.583 216.5,308.617 216.5,299.35C216.5,292.65 218.817,286.45 223.45,280.75C228.95,275.983 235.683,273.6 243.65,273.6L244.9,273.6L244.9,208.6L243.65,208.6C235.683,208.6 228.95,205.75 223.45,200.05C219.75,196.217 217.433,191.5 216.5,185.9C207.067,185.067 198.6,180.717 191.1,172.85C183.333,165.55 179.45,156.717 179.45,146.35C179.45,135.717 183.333,126.233 191.1,117.9C199.333,110.033 208.817,106.1 219.55,106.1L257.45,106.1L257.45,80.9C257.45,44.867 273.017,26.85 304.15,26.85L392.15,26.85C423.283,26.85 438.85,44.867 438.85,80.9L438.85,106.1L476.1,106.1C486.467,106.1 495.417,110.033 502.95,117.9C511.383,126.233 515.6,135.717 515.6,146.35M446.2,638.55C452.867,646.217 456.2,654.917 456.2,664.65C456.2,686.85 450.6,701.467 439.4,708.5C433.8,712.7 426.6,714.8 417.8,714.8C408.833,714.8 401.417,712.7 395.55,708.5C385.45,702.2 380.4,689.267 380.4,669.7C380.4,641.767 393.383,627.8 419.35,627.8C431.783,627.8 440.733,631.383 446.2,638.55M192.15,596C192.15,630.467 196.983,655.567 206.65,671.3C216.65,688.6 222.783,701 225.05,708.5C222.783,739.5 231.5,757.333 251.2,762C269.533,767.233 284.017,774.333 294.65,783.3L299.5,811.6L400.95,811.6L405.95,783.3C415.517,773.767 429.467,766.667 447.8,762C467.6,751.533 476.9,734.117 475.7,709.75L475.7,708.5C476.333,704.567 477.483,700.817 479.15,697.25C498.683,662.15 508.45,628.4 508.45,596C508.45,556.733 493.55,524.217 463.75,498.45C434.15,474.15 396.333,462 350.3,462C305.233,462 266.7,474.15 234.7,498.45C206.333,523.15 192.15,555.667 192.15,596M284.3,627.8C309.433,627.8 322,640.083 322,664.65C322,686.85 316.7,701.467 306.1,708.5C300.267,712.7 293,714.8 284.3,714.8C275.433,714.8 268.033,712.7 262.1,708.5C252.067,702.2 247.05,689.267 247.05,669.7C247.05,656.6 249.933,646.217 255.7,638.55C262.133,631.383 271.667,627.8 284.3,627.8M352.1,711.2C383.7,757.133 384.583,771.15 354.75,753.25C350.717,750.383 347.45,750.383 344.95,753.25C314.65,771.15 315.483,757.133 347.45,711.2C349.35,709.167 350.9,709.167 352.1,711.2" style="fill:white;"/>
    </g>
</svg>
