<?xml version="1.0" encoding="UTF-8" standalone="no"?>
<svg
   height="512"
   width="512"
   version="1.1"
   id="svg520"
   sodipodi:docname="potion_shock_resist.svg"
   xmlns:inkscape="http://www.inkscape.org/namespaces/inkscape"
   xmlns:sodipodi="http://sodipodi.sourceforge.net/DTD/sodipodi-0.dtd"
   xmlns="http://www.w3.org/2000/svg"
   xmlns:svg="http://www.w3.org/2000/svg">
  <defs
     id="defs524" />
  <sodipodi:namedview
     id="namedview522"
     pagecolor="#505050"
     bordercolor="#ffffff"
     borderopacity="1"
     inkscape:showpageshadow="0"
     inkscape:pageopacity="0"
     inkscape:pagecheckerboard="1"
     inkscape:deskcolor="#505050"
     showgrid="false" />
  <g
     transform="matrix(12.337349,0,0,12.337349,255.69157,256)"
     id="g518">
    <path
       d="M 6.1,-1.85 H 1.3 L -4.75,7.7 H 0 L -5.9,17.05 5.75,5.2 H 1.65 L 6.1,-1.85 m -4.7,-18.9 q 1.7,0 1.7,1.75 v 0.7 h 1.15 q 0.55,0 0.95,0.4 l 0.4,1.15 q 0,0.65 -0.4,1.25 l -0.75,0.45 -0.35,0.75 -0.55,0.1 H 3.5 v 5.15 q 8.8,5.2 8.45,11.4 -0.5,9.6 -3.8,18.4 H -8.2 q -3.2,-8.55 -3.7,-18.2 -0.35,-6.2 8.45,-11.45 v -5.3 H -3.5 q -0.4,0 -0.6,-0.3 -0.25,-0.2 -0.3,-0.55 -0.55,-0.05 -0.85,-0.45 -0.4,-0.6 -0.4,-1.25 l 0.4,-1.15 q 0.4,-0.4 0.9,-0.4 h 1.3 V -19 q 0,-1.75 1.55,-1.75 h 2.9"
       fill="#eaab00"
       fill-rule="evenodd"
       stroke="none"
       id="path516" />
  </g>
</svg>
