<?xml version="1.0" encoding="UTF-8" standalone="no"?>
<!DOCTYPE svg PUBLIC "-//W3C//DTD SVG 1.1//EN" "http://www.w3.org/Graphics/SVG/1.1/DTD/svg11.dtd">
<svg width="100%" height="100%" viewBox="0 0 394 512" version="1.1" xmlns="http://www.w3.org/2000/svg" xmlns:xlink="http://www.w3.org/1999/xlink" xml:space="preserve" xmlns:serif="http://www.serif.com/" style="fill-rule:evenodd;clip-rule:evenodd;stroke-linejoin:round;stroke-miterlimit:2;">
    <g transform="matrix(0.581884,0,0,0.581884,-3.0258,-7.36084)">
        <path d="M294.35,553.45L189.25,553.45L189.25,642.85L294.35,642.85L294.35,748.4L383.75,748.4L383.75,642.85L490.1,642.85L490.1,553.45L383.75,553.45L383.75,447.55L294.35,447.55L294.35,553.45M417.2,54.9L417.2,76.25L449.4,76.25C458.267,76.25 466.183,80.017 473.15,87.55C480.95,96.417 484.85,106.35 484.85,117.35C484.85,127.817 480.95,137.067 473.15,145.1C467.25,151.8 461.35,156.233 455.45,158.4C454.383,164.333 451.433,169.3 446.6,173.3C446.6,174.933 445.667,176.417 443.8,177.75C441.067,180.15 437.967,181.617 434.5,182.15L434.5,278.4L457.85,284.45C503.25,300.05 544.733,326.367 582.3,363.4C648.333,427.567 681.35,505.283 681.35,596.55C681.35,687.817 648.333,765.667 582.3,830.1C555.733,855.9 526.883,876.717 495.75,892.55L190.9,892.55C159.2,876.717 130.333,855.9 104.3,830.1C38.233,765.667 5.2,687.817 5.2,596.55C5.2,505.283 38.233,427.567 104.3,363.4C142.4,325.267 186.417,298.417 236.35,282.85C239.583,281.75 243.217,280.683 247.25,279.65L247.25,182.15L246.4,182.15C239.7,182.15 233.8,179.2 228.7,173.3C225.767,169.3 223.9,164.333 223.1,158.4C214.233,157.333 206.717,152.9 200.55,145.1C193.817,137.067 190.45,127.817 190.45,117.35C190.45,106.35 193.817,96.417 200.55,87.55C207.55,80.017 216,76.25 225.9,76.25L258.1,76.25L258.1,54.9C258.1,26.733 271.8,12.65 299.2,12.65L376.15,12.65C403.517,12.65 417.2,26.733 417.2,54.9" style="fill:white;"/>
    </g>
</svg>
