<?xml version="1.0" encoding="UTF-8" standalone="no"?>
<!DOCTYPE svg PUBLIC "-//W3C//DTD SVG 1.1//EN" "http://www.w3.org/Graphics/SVG/1.1/DTD/svg11.dtd">
<svg width="100%" height="100%" viewBox="0 0 296 512" version="1.1" xmlns="http://www.w3.org/2000/svg" xmlns:xlink="http://www.w3.org/1999/xlink" xml:space="preserve" xmlns:serif="http://www.serif.com/" style="fill-rule:evenodd;clip-rule:evenodd;stroke-linejoin:round;stroke-miterlimit:2;">
    <g transform="matrix(4.34082,0,0,4.34082,12.3713,19.7507)">
        <path d="M17.6,76.35L31.15,76.35L14.25,102.95L47.5,69.25L35.85,69.25L48.5,49.2L34.9,49.2L17.6,76.35M26.8,-4.55L35.15,-4.55C38.317,-4.55 39.9,-2.917 39.9,0.35L39.9,2.35L43.25,2.35C44.283,2.35 45.2,2.75 46,3.55C46.7,4.85 47.05,5.95 47.05,6.85C47.05,8.083 46.7,9.233 46,10.3L43.85,11.65L43.05,13.2L42.85,13.8L41.25,14L41.05,14L41.05,28.65C57.783,38.517 65.833,49.333 65.2,61.1C64.2,79.367 60.583,96.8 54.35,113.4L7.8,113.4C1.7,97.2 -1.833,79.95 -2.8,61.65C-3.433,49.883 4.617,39.067 21.35,29.2L21.35,14L21.1,14C20.333,14 19.767,13.733 19.4,13.2C19,12.8 18.717,12.283 18.55,11.65C17.55,11.55 16.75,11.1 16.15,10.3C15.417,9.233 15.05,8.083 15.05,6.85C15.05,5.95 15.417,4.85 16.15,3.55C16.95,2.75 17.833,2.35 18.8,2.35L22.45,2.35L22.45,0.35C22.45,-2.917 23.9,-4.55 26.8,-4.55" style="fill:white;"/>
    </g>
</svg>
