<?xml version="1.0" encoding="UTF-8" standalone="no"?>
<!DOCTYPE svg PUBLIC "-//W3C//DTD SVG 1.1//EN" "http://www.w3.org/Graphics/SVG/1.1/DTD/svg11.dtd">
<svg width="100%" height="100%" viewBox="0 0 296 512" version="1.1" xmlns="http://www.w3.org/2000/svg" xmlns:xlink="http://www.w3.org/1999/xlink" xml:space="preserve" xmlns:serif="http://www.serif.com/" style="fill-rule:evenodd;clip-rule:evenodd;stroke-linejoin:round;stroke-miterlimit:2;">
    <g transform="matrix(4.34082,0,0,4.34082,13.0225,19.7507)">
        <path d="M34.95,-4.55C38.117,-4.55 39.7,-2.917 39.7,0.35L39.7,2.35L43.05,2.35C44.117,2.35 45.033,2.75 45.8,3.55C46.433,4.85 46.75,5.95 46.75,6.85C46.75,8.083 46.433,9.233 45.8,10.3L43.65,11.65C43.517,12.283 43.25,12.8 42.85,13.2L42.65,13.8L41.05,14L40.9,14L40.9,28.65C57.6,38.483 65.617,49.3 64.95,61.1C63.983,79.333 60.383,96.767 54.15,113.4L7.6,113.4C1.5,97.167 -2.017,79.9 -2.95,61.6C-3.583,49.833 4.433,39.033 21.1,29.2L21.1,14L20.95,14C20.117,14 19.517,13.733 19.15,13.2C18.75,12.8 18.5,12.283 18.4,11.65C17.367,11.55 16.567,11.1 16,10.3C15.2,9.233 14.8,8.083 14.8,6.85C14.8,5.95 15.2,4.85 16,3.55C16.767,2.75 17.617,2.35 18.55,2.35L22.3,2.35L22.3,0.35C22.3,-2.917 23.75,-4.55 26.65,-4.55L34.95,-4.55M20.35,92.95C19.15,89.483 19.883,86.667 22.55,84.5C26.483,81.233 29.683,77.483 32.15,73.25C33.283,77.983 32.233,82.717 29,87.45C25.733,92.183 25.683,97.85 28.85,104.45C28.917,100.783 33.733,95.883 43.3,89.75C52.9,83.65 53.733,73.733 45.8,60C46.8,67.933 45.167,73.367 40.9,76.3C43.7,70.067 42.7,63.567 37.9,56.8C33.133,49.933 30.967,45.433 31.4,43.3C26.5,46.433 24.5,50.767 25.4,56.3C28.067,62.433 27.433,66.7 23.5,69.1C24.167,65.767 23.483,62.733 21.45,60C19.45,64.5 16.683,68.85 13.15,73.05C9.617,78.517 12.017,85.15 20.35,92.95" style="fill:white;"/>
    </g>
</svg>
