<?xml version="1.0" encoding="UTF-8" standalone="no"?>
<svg
   height="512"
   width="512"
   version="1.1"
   id="svg1150"
   sodipodi:docname="scroll.svg"
   xmlns:inkscape="http://www.inkscape.org/namespaces/inkscape"
   xmlns:sodipodi="http://sodipodi.sourceforge.net/DTD/sodipodi-0.dtd"
   xmlns="http://www.w3.org/2000/svg"
   xmlns:svg="http://www.w3.org/2000/svg">
  <defs
     id="defs1154" />
  <sodipodi:namedview
     id="namedview1152"
     pagecolor="#505050"
     bordercolor="#ffffff"
     borderopacity="1"
     inkscape:showpageshadow="0"
     inkscape:pageopacity="0"
     inkscape:pagecheckerboard="1"
     inkscape:deskcolor="#505050"
     showgrid="false" />
  <g
     transform="matrix(0.86333361,0,0,0.86333361,186.69589,-21.32434)"
     id="g1148">
    <path
       d="M 190.95,301.7 Q 118.5,340.35 72.15,412 q -5.4,8.4 -10.2,17.3 v 0.15 Q 55.5,424.5 49.75,419.55 27.75,401.15 8.2,379.65 3.1,374.6 -1.25,369.1 -9,360.3 -16.6,350.8 31.45,267.05 111.6,223.75 q 46.25,32.65 78.4,77 l 0.95,0.95 M 209,587.9 q 9.65,9.65 40.05,-1.75 20.45,-7.05 39.7,-23.55 5.5,-5.8 -3.3,-13.2 l -34.9,-31.6 10.45,-11.35 29.6,27 9.05,9.5 q 14.55,17.85 7,25.7 -43.75,38.25 -112.9,49.1 Q 150.1,535.35 91.85,463.6 L 75.9,444.9 q 5.3,-9.5 11.15,-18.05 46.45,-72.35 119.6,-110.85 78,66.6 170.15,118.7 -8.4,72.75 -64.95,102.75 l -8.65,-9.5 q 33.15,-16.5 42.65,-40.3 11.3,-28.75 1.65,-38.4 -9.2,-9.35 -36.35,4.25 -27.2,13.5 -55.8,42.15 l -3,3 q -5.55,5.55 -10.45,11.55 -18.45,20.9 -28.75,41.4 -13.4,26.95 -4.15,36.3 M 53,460 q -4.35,37.15 3.3,72.35 2.5,11.55 6.2,23.25 L 28,521.1 0.65,553.4 q -4.7,-16.35 -7.4,-32.75 -9.85,-57.3 6.55,-110.15 l 3.3,-9.75 q 23.8,25.85 51.05,47.95 -1,5.65 -1.15,11.3 M -31.85,337.05 Q -114.05,265.4 -216.25,207.75 -171,80.3 -33.2,24.7 23.9,125.1 97.75,208.75 q -81.3,43.3 -129.6,128.3"
       fill="#ffffff"
       fill-rule="evenodd"
       stroke="none"
       id="path1146" />
  </g>
</svg>
