<?xml version="1.0" encoding="UTF-8" standalone="no"?>
<svg
   height="512"
   width="512"
   version="1.1"
   id="svg724"
   sodipodi:docname="claw.svg"
   inkscape:export-filename="claw.svg"
   inkscape:export-xdpi="96"
   inkscape:export-ydpi="96"
   xmlns:inkscape="http://www.inkscape.org/namespaces/inkscape"
   xmlns:sodipodi="http://sodipodi.sourceforge.net/DTD/sodipodi-0.dtd"
   xmlns="http://www.w3.org/2000/svg"
   xmlns:svg="http://www.w3.org/2000/svg">
  <defs
     id="defs728" />
  <sodipodi:namedview
     id="namedview726"
     pagecolor="#505050"
     bordercolor="#ffffff"
     borderopacity="1"
     inkscape:showpageshadow="0"
     inkscape:pageopacity="0"
     inkscape:pagecheckerboard="1"
     inkscape:deskcolor="#505050"
     showgrid="false" />
  <g
     id="g722"
     transform="matrix(5.1664985,0,0,5.1664985,-79.822402,-85.763876)">
    <path
       d="m 88.7,53.6 13.7,14.4 2.45,3.75 -4.35,3.85 q -2.15,-0.15 -4.4,0.25 -2.15,0.4 -4.35,1.25 -2.15,0.85 -4.15,2.1 -2,1.2 -3.75,2.75 -1.75,1.55 -3.2,3.3 -1.4,1.75 -2.4,3.65 -1,1.9 -1.5,3.8 -0.45,2 -0.35,3.85 l 14.7,13.55 q 1.55,0.05 3.15,-0.35 1.55,-0.35 3.1,-1.05 1.55,-0.75 3,-1.75 1.45,-1 2.75,-2.25 1.35,-1.25 2.4,-2.7 1.1,-1.45 1.95,-3.05 0.8,-1.6 1.3,-3.25 0.5,-1.7 0.65,-3.4 L 95.35,75.85 100.5,75.6 114.55,92.9 q -0.55,2.05 -1.5,4.1 -0.95,2 -2.25,3.9 -1.2,1.9 -2.75,3.65 -1.5,1.7 -3.2,3.25 -1.65,1.5 -3.45,2.75 -1.8,1.3 -3.6,2.2 -1.85,1 -3.6,1.55 -1.8,0.6 -3.4,0.75 l -15.25,-14.3 -3.8,3.55 -4.4,-2.5 5.05,-4.85 q 0.1,-2.3 0.7,-4.6 0.6,-2.2 1.65,-4.35 1.05,-2.05 2.45,-4 1.45,-1.9 3.2,-3.55 1.75,-1.65 3.75,-3 2,-1.35 4.2,-2.4 2.25,-1 4.55,-1.6 2.35,-0.65 4.75,-0.8 l 1.3,-1.25 -8.25,-7.8 -26.85,26.6 7.4,7.8 -3.9,3.8 L 53.55,88.25 19.8,70.3 15.45,65.1 22.35,65 61.75,80.2 32.8,51.8 29.25,44.75 36.95,47.15 70.65,71 47.6,36.6 l -2,-7.25 6.4,3.6 28,28.85 -16.65,-37.95 0.5,-6.6 5.15,4.6 19.7,31.75"
       fill="#ffffff"
       fill-rule="evenodd"
       stroke="none"
       id="path720" />
  </g>
</svg>
