<?xml version="1.0" encoding="UTF-8" standalone="no"?>
<!DOCTYPE svg PUBLIC "-//W3C//DTD SVG 1.1//EN" "http://www.w3.org/Graphics/SVG/1.1/DTD/svg11.dtd">
<svg width="100%" height="100%" viewBox="0 0 121 256" version="1.1" xmlns="http://www.w3.org/2000/svg" xmlns:xlink="http://www.w3.org/1999/xlink" xml:space="preserve" xmlns:serif="http://www.serif.com/" style="fill-rule:evenodd;clip-rule:evenodd;stroke-linejoin:round;stroke-miterlimit:2;">
    <g transform="matrix(0.709377,0,0,0.709377,0,0)">
        <path d="M169.54,244.91L84.78,0L0,244.91L45,218L58.8,178.19L51.9,248.42L64.31,256.9L64.13,338.65C64.13,339.16 64.13,339.65 64.19,340.15C64.25,340.65 64.25,341.07 64.31,341.52C64.403,342.341 64.543,343.155 64.73,343.96C65.168,345.912 65.868,347.795 66.81,349.56C67.487,350.893 68.305,352.15 69.25,353.31C72.988,358.042 78.68,360.828 84.71,360.88C93.41,360.88 100.89,354.98 103.88,346.68C104.412,345.193 104.791,343.655 105.01,342.09C105.1,341.47 105.18,340.84 105.21,340.21C105.24,339.58 105.21,339.21 105.21,338.65L105.21,256.9L117.63,248.42L110.73,178.19L124.52,218L169.54,244.91ZM84.78,46.3L91.71,241.83L77.85,241.83L84.78,46.3ZM55.25,128.82C51.42,140.15 47.52,151.45 43.31,162.65C39.1,173.85 34.77,185 29.9,196C32.58,184.28 35.79,172.75 39.2,161.28C42.61,149.81 46.2,138.42 49.98,127.06C53.76,115.7 57.74,104.43 61.92,93.22C66.1,82.01 70.46,70.87 75.34,59.87C72.65,71.6 69.43,83.12 66,94.6C62.57,106.08 59,117.46 55.25,128.82ZM101.45,347.67C95.21,349.94 85.69,352.23 71.71,353.2C70.651,352.085 69.74,350.838 69,349.49C86.24,348.55 96.89,345.56 103.05,343C102.702,344.614 102.165,346.182 101.45,347.67ZM103.45,337.39C96.66,340.15 85.17,343.16 66.69,343.94C66.359,342.681 66.162,341.39 66.1,340.09C85.44,339.32 97.04,336.03 103.45,333.32L103.45,337.39ZM103.45,327.89C96.57,330.67 84.9,333.74 66.02,334.46L66.02,330.56C85.42,329.85 97.02,326.56 103.45,323.79L103.45,327.89ZM103.45,318.39C96.55,321.17 84.88,324.24 66,325L66,321.11C85.4,320.38 97,317.11 103.43,314.32L103.45,318.39ZM103.45,308.86C96.57,311.64 84.9,314.72 66.02,315.43L66.02,311.57C85.42,310.82 97.02,307.5 103.45,304.76L103.45,308.86ZM103.45,299.37C96.57,302.14 84.9,305.21 66.02,305.93L66.02,302.06C85.42,301.31 97.02,298 103.45,295.25L103.45,299.37ZM103.45,289.83C96.57,292.61 84.9,295.68 66.02,296.4L66.02,292.51C85.42,291.79 97.02,288.51 103.45,285.73L103.45,289.83ZM103.45,280.34C96.57,283.11 84.9,286.18 66.02,286.9L66.02,283C85.42,282.27 97.02,279 103.45,276.21L103.45,280.34ZM103.26,94.6C99.89,83.12 96.64,71.6 93.95,59.88C98.84,70.88 103.18,82.02 107.37,93.23C111.56,104.44 115.45,115.73 119.31,127.07C123.17,138.41 126.7,149.79 130.09,161.29C133.48,172.79 136.71,184.29 139.4,196.01C134.51,185.01 130.17,173.86 125.98,162.65C121.79,151.44 117.9,140.15 114.04,128.82C110.18,117.49 106.64,106.07 103.26,94.6Z" style="fill:white;fill-rule:nonzero;"/>
    </g>
</svg>
