<?xml version="1.0" encoding="UTF-8" standalone="no"?>
<!DOCTYPE svg PUBLIC "-//W3C//DTD SVG 1.1//EN" "http://www.w3.org/Graphics/SVG/1.1/DTD/svg11.dtd">
<svg width="100%" height="100%" viewBox="0 0 121 256" version="1.1" xmlns="http://www.w3.org/2000/svg" xmlns:xlink="http://www.w3.org/1999/xlink" xml:space="preserve" xmlns:serif="http://www.serif.com/" style="fill-rule:evenodd;clip-rule:evenodd;stroke-linejoin:round;stroke-miterlimit:2;">
    <g transform="matrix(0.355556,0,0,0.355556,0,0)">
        <path d="M170,0L0,449.24L102.79,479.11L102.79,512.34C102.79,521.666 110.464,529.34 119.79,529.34L132.72,529.34L132.72,588C132.742,595.784 139.156,602.176 146.94,602.17L147.68,602.17L147.68,615.55C143.059,618.024 140.154,622.848 140.13,628.09L140.13,629.22C137.645,629.446 135.72,631.555 135.72,634.05C135.72,636.545 137.645,638.654 140.13,638.88L140.13,641.77C137.645,641.996 135.72,644.105 135.72,646.6C135.72,649.095 137.645,651.204 140.13,651.43L140.13,654.32C137.645,654.546 135.72,656.655 135.72,659.15C135.72,661.645 137.645,663.754 140.13,663.98L140.13,666.87C137.645,667.096 135.72,669.205 135.72,671.7C135.72,674.195 137.645,676.304 140.13,676.53L140.13,679.42C137.645,679.646 135.72,681.755 135.72,684.25C135.72,686.745 137.645,688.854 140.13,689.08L140.13,692C137.645,692.226 135.72,694.335 135.72,696.83C135.72,699.325 137.645,701.434 140.13,701.66L140.13,705.88C140.179,713.641 146.579,720 154.34,720L185.79,720C193.57,720 199.978,713.61 200,705.83L200,701.61C202.485,701.384 204.41,699.275 204.41,696.78C204.41,694.285 202.485,692.176 200,691.95L200,689.06C202.485,688.834 204.41,686.725 204.41,684.23C204.41,681.735 202.485,679.626 200,679.4L200,676.51C202.485,676.284 204.41,674.175 204.41,671.68C204.41,669.185 202.485,667.076 200,666.85L200,664C202.485,663.774 204.41,661.665 204.41,659.17C204.41,656.675 202.485,654.566 200,654.34L200,651.45C202.485,651.224 204.41,649.115 204.41,646.62C204.41,644.125 202.485,642.016 200,641.79L200,638.9C202.485,638.674 204.41,636.565 204.41,634.07C204.41,631.575 202.485,629.466 200,629.24L200,628.11C200.002,622.859 197.085,618.02 192.44,615.57L192.44,602.15L193.18,602.15C200.96,602.161 207.377,595.78 207.41,588L207.41,529.32L220.35,529.32C229.676,529.32 237.35,521.646 237.35,512.32L237.35,479.11L340.15,449.24L170,0ZM132.71,416.16L78.45,400.41L132.07,258.66L132.71,258.66L132.71,416.16ZM177.47,178L190.23,211.7L177.47,211.7L177.47,178ZM182.58,602.14L182.58,613.84L157.58,613.84L157.58,602.14L182.58,602.14ZM162.66,177.88L162.66,211.71L149.85,211.71L162.66,177.88ZM207.41,416.16L207.41,258.66L208.01,258.66L261.67,400.41L207.41,416.16Z" style="fill:white;fill-rule:nonzero;"/>
    </g>
</svg>
