<?xml version="1.0" encoding="UTF-8" standalone="no"?>
<!DOCTYPE svg PUBLIC "-//W3C//DTD SVG 1.1//EN" "http://www.w3.org/Graphics/SVG/1.1/DTD/svg11.dtd">
<svg width="100%" height="100%" viewBox="0 0 69 256" version="1.1" xmlns="http://www.w3.org/2000/svg" xmlns:xlink="http://www.w3.org/1999/xlink" xml:space="preserve" xmlns:serif="http://www.serif.com/" style="fill-rule:evenodd;clip-rule:evenodd;stroke-linejoin:round;stroke-miterlimit:2;">
    <g transform="matrix(1,0,0,1,0.194249,0)">
        <g transform="matrix(0.355556,0,0,0.355556,-0.125183,0)">
            <path d="M193.26,125C192.104,120.896 188.332,118.04 184.068,118.04C183.189,118.04 182.315,118.161 181.47,118.4C172.304,120.935 163.514,124.675 155.33,129.52C145.11,25.66 96.81,0 96.81,0C96.81,0 48.52,25.66 38.3,129.56C30.115,124.716 21.326,120.977 12.16,118.44C11.251,118.161 10.306,118.019 9.356,118.019C4.117,118.019 -0.194,122.33 -0.194,127.569C-0.194,131.54 2.282,135.115 6,136.51L6.29,136.63C16.7,140.77 26.29,146.4 33.72,154C34.72,155 35.6,156.06 36.54,157.1C36.29,166.03 36.29,175.42 36.6,185.33C41.38,336.27 14.31,471.92 14.31,471.92L47.11,471.92L47.11,489.43L36,489.43C23.074,489.446 12.442,500.074 12.42,513L12.42,544.22C12.447,557.138 23.082,567.755 36,567.76L47.14,567.76L47.14,709.15C47.162,715.098 52.052,719.984 58,720L135.69,720C141.625,719.973 146.495,715.085 146.5,709.15L146.5,567.76L157.64,567.76C170.558,567.755 181.193,557.138 181.22,544.22L181.22,513C181.198,500.074 170.566,489.446 157.64,489.43L146.49,489.43L146.49,471.92L179.29,471.92C179.29,471.92 152.22,336.27 157,185.33C157.31,175.42 157.31,166.03 157.06,157.1C157.99,156.1 158.87,154.98 159.88,154C167.36,146.4 176.88,140.77 187.31,136.63L187.64,136.5C192.165,134.688 194.611,129.684 193.26,125ZM131.68,548.66L119.26,548.66L119.26,508.53L131.68,508.53L131.68,548.66ZM103,508.53L103,548.66L90.6,548.66L90.6,508.53L103,508.53ZM61.92,508.53L74.36,508.53L74.36,548.66L61.94,548.66L61.92,508.53ZM31.53,544.22L31.53,513C31.562,510.56 33.56,508.562 36,508.53L45.7,508.53L45.7,548.66L36,548.66C33.563,548.649 31.557,546.657 31.53,544.22ZM162.1,513L162.1,544.22C162.057,546.651 160.061,548.633 157.63,548.66L147.92,548.66L147.92,508.53L157.63,508.53C160.066,508.572 162.058,510.564 162.1,513Z" style="fill:white;fill-rule:nonzero;"/>
        </g>
    </g>
</svg>
