<?xml version="1.0" encoding="UTF-8" standalone="no"?>
<!DOCTYPE svg PUBLIC "-//W3C//DTD SVG 1.1//EN" "http://www.w3.org/Graphics/SVG/1.1/DTD/svg11.dtd">
<svg width="100%" height="100%" viewBox="0 0 348 512" version="1.1" xmlns="http://www.w3.org/2000/svg" xmlns:xlink="http://www.w3.org/1999/xlink" xml:space="preserve" xmlns:serif="http://www.serif.com/" style="fill-rule:evenodd;clip-rule:evenodd;stroke-linejoin:round;stroke-miterlimit:2;">
    <g transform="matrix(1,0,0,1,-231.2,-56.0841)">
        <g transform="matrix(0.470663,0,0,0.470663,122.383,29.6874)">
            <path d="M767.32,987.77L866.086,987.77C887.047,987.54 907.297,980.165 923.496,966.856C939.691,953.551 950.855,935.114 955.148,914.598C963.14,877.332 968.836,828.629 968.836,765.488L968.836,245.508C969.121,232.633 964.207,220.188 955.203,210.985C946.199,201.778 933.863,196.59 920.988,196.59C908.113,196.59 895.777,201.777 886.773,210.985C877.769,220.188 872.855,232.633 873.14,245.508L873.14,423.328C873.234,429.644 870.886,435.754 866.585,440.379C862.281,445.004 856.358,447.785 850.054,448.148C843.582,448.359 837.3,445.93 832.656,441.414C828.012,436.902 825.398,430.695 825.422,424.219L825.422,101.529C825.422,89.474 820.633,77.916 812.11,69.396C803.59,60.873 792.032,56.084 779.977,56.084L778.125,56.084C766.066,56.076 754.504,60.861 745.977,69.385C737.45,77.908 732.657,89.471 732.657,101.53L732.657,423.33C732.751,429.65 730.399,435.76 726.095,440.389C721.786,445.014 715.857,447.795 709.548,448.151C703.083,448.346 696.818,445.912 692.189,441.401C687.556,436.885 684.958,430.686 684.986,424.221L684.986,101.531C684.986,89.476 680.197,77.918 671.674,69.398C663.154,60.874 651.596,56.086 639.541,56.086L632.955,56.086C620.9,56.086 609.342,60.875 600.822,69.398C592.298,77.917 587.51,89.476 587.51,101.531L587.51,423.331C587.6,429.647 585.244,435.757 580.939,440.382C576.635,445.007 570.709,447.788 564.4,448.151C557.936,448.347 551.67,445.913 547.041,441.401C542.409,436.886 539.811,430.686 539.838,424.221L539.838,101.531C539.475,85.535 530.733,70.91 516.818,63.015C502.9,55.121 485.861,55.121 471.943,63.015C458.029,70.91 449.287,85.535 448.923,101.531L448.923,393.961C449.041,418.961 452.701,443.816 459.798,467.789C468.798,498.82 474.54,535.758 474.61,579.679C474.724,586.019 472.368,592.156 468.044,596.796C463.72,601.433 457.763,604.214 451.431,604.546C445.005,604.718 438.783,602.285 434.173,597.8C429.567,593.316 426.966,587.163 426.962,580.734C426.962,523.734 416.392,480.724 402.189,448.664C386.884,414.094 357.048,387.492 320.322,378.352C300.424,373.266 279.447,374.321 260.158,381.376C247.431,386.004 237.549,396.235 233.357,409.11C229.17,421.989 231.146,436.075 238.713,447.305C260.088,479.039 289.924,533.274 311.369,612.515C318.357,638.46 323.01,664.98 325.267,691.757C331.126,759.726 353.392,933.557 431.207,1012.22C448.934,1030.27 458.836,1054.58 458.769,1079.88L458.769,1120.01C458.769,1126.35 461.288,1132.43 465.772,1136.91C470.253,1141.39 476.334,1143.91 482.674,1143.91L881.254,1143.91C887.598,1143.92 893.684,1141.4 898.172,1136.92C902.66,1132.43 905.184,1126.35 905.184,1120.01L905.184,1067.48C905.141,1058.72 901.544,1050.35 895.215,1044.29C888.891,1038.23 880.375,1034.99 871.621,1035.33C869.442,1035.33 867.239,1035.44 864.989,1035.44L768.333,1035.44C762.012,1035.53 755.903,1033.18 751.274,1028.87C746.645,1024.57 743.856,1018.64 743.488,1012.33C743.293,1005.89 745.715,999.635 750.207,995.006C754.699,990.381 760.875,987.768 767.324,987.772L767.32,987.77ZM612.84,1035.44L610.309,1035.44C601.793,1035.44 593.926,1030.9 589.668,1023.52C585.406,1016.15 585.406,1007.06 589.668,999.688C593.926,992.313 601.793,987.77 610.309,987.77L612.84,987.77C621.356,987.77 629.223,992.313 633.481,999.688C637.743,1007.06 637.743,1016.15 633.481,1023.52C629.223,1030.9 621.356,1035.44 612.84,1035.44Z" style="fill:white;fill-rule:nonzero;"/>
        </g>
    </g>
</svg>
