<?xml version="1.0" encoding="UTF-8" standalone="no"?>
<!DOCTYPE svg PUBLIC "-//W3C//DTD SVG 1.1//EN" "http://www.w3.org/Graphics/SVG/1.1/DTD/svg11.dtd">
<svg width="100%" height="100%" viewBox="0 0 471 512" version="1.1" xmlns="http://www.w3.org/2000/svg" xmlns:xlink="http://www.w3.org/1999/xlink" xml:space="preserve" xmlns:serif="http://www.serif.com/" style="fill-rule:evenodd;clip-rule:evenodd;stroke-linejoin:round;stroke-miterlimit:2;">
    <g transform="matrix(1,0,0,1,-100.245,-56.0207)">
        <g transform="matrix(0.470614,0,0,0.470614,53.0682,29.6566)">
            <path d="M270.33,1120.3C297.861,1135.75 328.9,1143.87 360.471,1143.88L411.119,1143.88C415.689,1143.89 419.752,1140.97 421.201,1136.63C422.654,1132.3 421.17,1127.52 417.517,1124.78C322.384,1053.22 240.377,974.397 204.847,938.967C198.722,932.885 190.917,928.779 182.433,927.182C173.953,925.58 165.187,926.561 157.269,929.99C139.554,937.338 123.238,947.685 109.035,960.576C103.805,965.526 100.676,972.295 100.285,979.486C99.899,986.674 102.285,993.74 106.95,999.224C147.825,1047.29 222.5,1093.58 270.33,1120.3L270.33,1120.3Z" style="fill:white;fill-rule:nonzero;"/>
            <path d="M272.3,914.86C321.003,974.251 392,1032.28 437.35,1066.74C442.756,1070.85 449.502,1072.79 456.268,1072.17C463.03,1071.56 469.315,1068.43 473.893,1063.42C478.467,1058.4 480.999,1051.85 480.991,1045.06L480.991,798.781C480.999,778.621 472.811,759.32 458.303,745.32L342.193,633.62C330.451,622.3 323.818,606.69 323.818,590.378L323.818,542.05C323.81,535.042 327.349,528.511 333.22,524.687C339.091,520.866 346.497,520.273 352.904,523.113L506.164,591.082C519.09,596.8 528.734,608.062 532.391,621.715L543.922,664.723C546.332,673.676 551.629,681.59 558.988,687.231C566.344,692.875 575.359,695.938 584.633,695.942L615.102,695.942C624.375,695.938 633.391,692.875 640.747,687.231C648.106,681.59 653.403,673.676 655.813,664.723L667.344,621.715C671.024,607.996 680.742,596.699 693.758,591.012L847.018,523.043C853.424,520.203 860.83,520.797 866.702,524.617C872.573,528.441 876.112,534.972 876.104,541.98L876.104,590.308C876.147,606.628 869.55,622.265 857.823,633.62L741.713,745.32C727.225,759.304 719.033,778.574 719.025,798.711L719.025,1045.06C719.017,1051.85 721.549,1058.4 726.123,1063.42C730.701,1068.43 736.986,1071.56 743.748,1072.17C750.514,1072.79 757.26,1070.85 762.666,1066.74C808.018,1032.29 879.006,974.256 927.716,914.86C946.325,892.067 958.685,864.821 963.575,835.805C980.356,737.93 1015.14,480.255 956.075,287.365C881.825,44.695 600.015,56.105 600.015,56.105C600.015,56.105 318.205,44.691 243.955,287.435C184.986,480.255 219.674,737.925 236.455,835.875C241.357,864.867 253.717,892.086 272.314,914.859L272.3,914.86Z" style="fill:white;fill-rule:nonzero;"/>
            <path d="M995.16,939.05C959.629,974.488 877.62,1053.31 782.49,1124.86C778.838,1127.61 777.353,1132.38 778.806,1136.71C780.256,1141.05 784.318,1143.97 788.888,1143.96L839.536,1143.96C871.114,1143.93 902.153,1135.79 929.677,1120.31C977.513,1093.52 1052.19,1047.24 1093.06,999.233C1097.72,993.749 1100.11,986.682 1099.72,979.495C1099.33,972.304 1096.2,965.534 1090.97,960.585C1076.77,947.694 1060.45,937.347 1042.74,929.999C1034.81,926.577 1026.04,925.609 1017.56,927.222C1009.08,928.835 1001.28,932.952 995.16,939.046L995.16,939.05Z" style="fill:white;fill-rule:nonzero;"/>
        </g>
    </g>
</svg>
