<?xml version="1.0" encoding="UTF-8" standalone="no"?>
<!DOCTYPE svg PUBLIC "-//W3C//DTD SVG 1.1//EN" "http://www.w3.org/Graphics/SVG/1.1/DTD/svg11.dtd">
<svg width="100%" height="100%" viewBox="0 0 512 411" version="1.1" xmlns="http://www.w3.org/2000/svg" xmlns:xlink="http://www.w3.org/1999/xlink" xml:space="preserve" xmlns:serif="http://www.serif.com/" style="fill-rule:evenodd;clip-rule:evenodd;stroke-linejoin:round;stroke-miterlimit:2;">
    <g transform="matrix(1,0,0,1,-56.8781,-164.303)">
        <g transform="matrix(0.471255,0,0,0.471255,30.074,86.8746)">
            <path d="M1075.2,164.74C1059.1,166.553 1044.38,174.705 1034.3,187.392C1024.22,200.079 1019.61,216.259 1021.49,232.357C1023.37,248.451 1031.58,263.134 1044.31,273.162C1048.5,276.393 1051.52,280.9 1052.91,286.002C1054.3,291.104 1053.99,296.518 1052.02,301.428C1050.57,304.99 1049.06,308.459 1047.5,311.834C991.013,434.014 841.617,481.614 727.477,410.272C679.454,380.272 648.024,336.795 628.313,299.652C626.281,295.699 625.758,291.144 626.836,286.832C627.91,282.519 630.52,278.746 634.172,276.215C648.863,266.594 658.688,251.098 661.125,233.707C663.566,216.316 658.387,198.719 646.91,185.426C635.437,172.129 618.785,164.434 601.222,164.305C583.663,164.176 566.902,171.633 555.234,184.758C543.566,197.883 538.129,215.403 540.316,232.828C542.503,250.253 552.101,265.887 566.648,275.723C570.242,278.235 572.785,281.981 573.788,286.25C574.792,290.519 574.187,295.008 572.085,298.855C552.397,336.167 520.874,380.043 472.523,410.255C358.383,481.575 208.993,433.974 152.503,311.817C150.941,308.442 149.433,304.973 147.98,301.411C146.011,296.501 145.699,291.087 147.093,285.985C148.484,280.883 151.503,276.376 155.691,273.145C169.046,262.547 177.351,246.844 178.589,229.84C179.831,212.836 173.89,196.094 162.214,183.672C150.538,171.25 134.191,164.289 117.144,164.473C100.097,164.66 83.91,171.981 72.507,184.657C61.109,197.333 55.538,214.204 57.152,231.173C58.761,248.146 67.41,263.665 80.996,273.966C89.293,280.353 94.422,290.021 95.058,300.474L117.394,640.744C118.179,652.994 122.187,664.818 129.011,675.021C135.835,685.224 145.234,693.443 156.253,698.845C225.347,732.618 371.483,786.642 599.223,786.642L600.723,786.642C829.613,786.642 975.133,732.736 1043.88,698.986C1054.88,693.572 1064.24,685.353 1071.04,675.158C1077.84,664.967 1081.82,653.158 1082.6,640.931L1104.96,300.481C1105.6,290.024 1110.73,280.348 1119.02,273.95C1133.4,263.138 1142.27,246.524 1143.25,228.559C1144.23,210.594 1137.22,193.114 1124.1,180.801C1110.98,168.492 1093.09,162.61 1075.22,164.731L1075.2,164.74Z" style="fill:white;fill-rule:nonzero;"/>
            <path d="M1030,765.26C946.211,800.299 804.77,841.127 600.77,841.127L599.27,841.127C395.36,841.127 253.82,800.299 170.04,765.26C160.208,761.155 148.954,762.436 140.298,768.643C131.638,774.85 126.814,785.1 127.548,795.729L134.064,894.963C135.665,918.647 149.423,939.807 170.416,950.885C228.447,981.635 363.726,1035.52 599.326,1035.75L600.826,1035.75C836.376,1035.52 971.656,981.635 1029.74,950.885C1050.75,939.795 1064.51,918.6 1066.09,894.893L1072.6,795.659C1073.33,785.018 1068.48,774.764 1059.8,768.569C1051.12,762.37 1039.85,761.12 1030.02,765.26L1030,765.26Z" style="fill:white;fill-rule:nonzero;"/>
        </g>
    </g>
</svg>
