<?xml version="1.0" encoding="UTF-8"?>
<svg width="1200pt" height="1200pt" version="1.1" viewBox="0 0 1200 1200" xmlns="http://www.w3.org/2000/svg">
 <g fill="#fff">
  <path d="m708.56 674.11c5.4727 5.4414 12.828 8.5664 20.539 8.7344 7.7148 0.16406 15.199-2.6445 20.898-7.8438l47.766-43.617c6.4492-5.8828 10.211-14.145 10.41-22.871 0.19922-8.7266-3.1836-17.152-9.3555-23.324l-92.062-92.062-91.992-92.016c-6.1719-6.1719-14.598-9.5547-23.324-9.3555-8.7266 0.19922-16.988 3.9609-22.871 10.41l-43.57 47.836c-5.2148 5.7109-8.0273 13.211-7.8516 20.941 0.17187 7.7305 3.3203 15.098 8.7891 20.566z"/>
  <path d="m141.59 1058.4 63.281 63.281c7.1836 7.1953 16.867 11.34 27.031 11.57 10.164 0.23438 20.027-3.4688 27.531-10.328l409.62-373.92c6.207-5.6758 9.8281-13.641 10.016-22.051 0.19141-8.4102-3.0625-16.531-9.0078-22.48l-174.52-174.52c-5.9531-5.9375-14.074-9.1875-22.48-9-8.4062 0.19141-16.371 3.8047-22.051 10.008l-373.97 409.57c-6.8555 7.5078-10.551 17.367-10.32 27.531s4.3711 19.844 11.562 27.031z"/>
  <path d="m663 382.73 19.969 19.969c2.2109 2.2148 5.2266 3.4297 8.3555 3.3672 3.1289-0.0625 6.0938-1.3945 8.2148-3.6953l96.516-104.3c3.9883-4.3398 9.0352-7.5703 14.648-9.375l88.453-28.359c6.1797-1.9805 11.527-5.9531 15.211-11.297l64.359-93.094c2.1523-3.1211 3.0781-6.9219 2.6016-10.684-0.47656-3.7578-2.3242-7.2109-5.1875-9.6914-2.8633-2.4844-6.5391-3.8242-10.328-3.7656l-28.922 0.46875c-6.082 0.097656-11.965-2.1445-16.441-6.2617-4.4766-4.1172-7.1992-9.7969-7.6055-15.863l-1.7812-28.875c-0.19141-3.8125-1.793-7.418-4.4922-10.117-2.7031-2.6992-6.3125-4.293-10.125-4.4766s-7.5586 1.0586-10.508 3.4844l-87.773 71.367c-5.043 4.0898-8.5859 9.7344-10.078 16.055l-21.445 90.352c-1.3516 5.7383-4.1719 11.027-8.1797 15.352l-95.766 103.5c-4.1914 4.5352-4.0547 11.566 0.30469 15.938z"/>
  <path d="m833.2 537.3 103.5-95.766c4.3242-4.0078 9.6133-6.8281 15.352-8.1797l90.352-21.445c6.3203-1.4922 11.965-5.0352 16.055-10.078l71.367-87.773c2.3945-2.9375 3.6172-6.6562 3.4336-10.441-0.17969-3.7852-1.7539-7.3711-4.4141-10.07-2.6641-2.6953-6.2305-4.3125-10.012-4.543l-28.875-1.7812c-6.0938-0.375-11.805-3.082-15.953-7.5586-4.1484-4.4805-6.4102-10.387-6.3125-16.488l0.46875-28.922c0.058594-3.7891-1.2812-7.4648-3.7656-10.328-2.4805-2.8633-5.9336-4.7109-9.6914-5.1875-3.7617-0.47656-7.5625 0.44922-10.684 2.6016l-93.094 64.359c-5.3438 3.6836-9.3164 9.0312-11.297 15.211l-28.359 88.453c-1.8047 5.6133-5.0352 10.66-9.375 14.648l-104.3 96.516c-2.3008 2.1211-3.6328 5.0859-3.6953 8.2148s1.1523 6.1445 3.3672 8.3555l19.969 19.969c4.3945 4.3555 11.441 4.457 15.961 0.23438z"/>
 </g>
</svg>
