<?xml version="1.0" encoding="UTF-8" standalone="no"?>
<!DOCTYPE svg PUBLIC "-//W3C//DTD SVG 1.1//EN" "http://www.w3.org/Graphics/SVG/1.1/DTD/svg11.dtd">
<svg width="100%" height="100%" viewBox="0 0 423 512" version="1.1" xmlns="http://www.w3.org/2000/svg" xmlns:xlink="http://www.w3.org/1999/xlink" xml:space="preserve" xmlns:serif="http://www.serif.com/" style="fill-rule:evenodd;clip-rule:evenodd;stroke-linejoin:round;stroke-miterlimit:2;">
    <g transform="matrix(1,0,0,1,-150.911,-56.082)">
        <g transform="matrix(0.470665,0,0,0.470665,79.8824,29.6862)">
            <path d="M664.97,374.04L590.931,374.04C585.451,374.036 580.204,376.267 576.408,380.216C572.607,384.165 570.58,389.493 570.799,394.97C572.369,434.814 573.869,482.861 574.572,532.03C574.623,536.674 576.513,541.108 579.834,544.354C583.15,547.604 587.623,549.401 592.268,549.35C611.393,549.162 636.471,549.045 664.432,549.35C669.901,549.393 675.162,547.252 679.049,543.405C682.931,539.553 685.119,534.311 685.127,528.843L685.127,394.193C685.127,388.845 683.002,383.72 679.224,379.939C675.443,376.161 670.318,374.036 664.97,374.036L664.97,374.04Z" style="fill:white;fill-rule:nonzero;"/>
            <path d="M195.09,1143.9L916.68,1143.9C927.676,1143.91 938.387,1140.43 947.274,1133.95C956.157,1127.48 962.754,1118.35 966.11,1107.88C981.087,1060.82 995.946,968.357 951.766,834.477C941.309,802.891 935.996,769.829 936.039,736.555C936.203,657.946 937.937,510.785 947.758,395.825C948.231,390.211 946.324,384.653 942.508,380.509C938.688,376.368 933.309,374.017 927.672,374.028L752.922,374.028C747.582,374.036 742.461,376.161 738.684,379.938C734.911,383.72 732.79,388.845 732.79,394.184L732.79,740.144C732.79,825.503 686.642,902.964 612.39,942.314C575.359,961.931 532.023,974.845 483.62,980.681C480.01,981.119 476.381,981.338 472.745,981.338C452.393,981.345 432.667,974.295 416.933,961.389C401.199,948.483 390.425,930.518 386.449,910.557C382.992,893.596 377.745,877.049 370.793,861.198C368.269,855.612 363.804,851.128 358.227,848.581C352.652,846.034 346.34,845.596 340.465,847.346C332.652,849.612 324.738,851.893 316.723,854.19C316.723,854.19 142.443,901.229 151.233,1102.28C151.787,1113.53 156.654,1124.13 164.819,1131.88C172.987,1139.63 183.827,1143.94 195.085,1143.9L195.09,1143.9Z" style="fill:white;fill-rule:nonzero;"/>
            <path d="M1045.5,102.02C1050.59,92.293 1050.23,80.614 1044.55,71.219C1038.86,61.824 1028.68,56.086 1017.7,56.082L495.043,56.082C484.059,56.078 473.871,61.812 468.184,71.207C462.492,80.601 462.129,92.289 467.223,102.019L498.559,161.831C510.036,183.733 511.739,209.46 503.246,232.683L484.496,284.245C480.965,293.87 482.36,304.612 488.231,313.018C494.102,321.424 503.708,326.432 513.958,326.432L999.118,326.432C1009.37,326.428 1018.97,321.42 1024.85,313.018C1030.72,304.616 1032.12,293.873 1028.6,284.245L1009.85,232.683C1001.37,209.46 1003.07,183.738 1014.54,161.831L1045.5,102.02Z" style="fill:white;fill-rule:nonzero;"/>
            <path d="M557.32,776.04C553.746,773.063 549.242,771.423 544.59,771.403C539.938,771.38 535.422,772.978 531.82,775.923C522.187,784.009 511.273,790.427 499.523,794.907C477.679,803.227 453.539,811.782 426.867,820.688C422.004,822.297 418.039,825.879 415.945,830.555C413.851,835.231 413.816,840.571 415.851,845.274C423.496,863.219 429.304,881.895 433.195,901.008C435.184,911.074 440.906,920.012 449.215,926.035C457.524,932.055 467.801,934.711 477.985,933.469C520.547,928.336 558.282,917.18 590.135,900.305C599.764,895.184 608.905,889.192 617.44,882.399C623.022,877.84 626.659,871.329 627.616,864.188C628.577,857.043 626.78,849.805 622.597,843.938C603.964,817.219 578.909,793.665 557.324,776.04L557.32,776.04Z" style="fill:white;fill-rule:nonzero;"/>
            <path d="M674.46,802.17C681.526,782.26 685.136,761.283 685.124,740.154L685.124,617.454C685.116,612.044 682.98,606.856 679.167,603.016C675.358,599.176 670.19,596.997 664.78,596.946C636.655,596.711 611.296,596.946 592.124,596.946C587.522,597 583.128,598.86 579.878,602.118C576.632,605.379 574.792,609.782 574.757,614.384C574.476,642.322 573.796,669.345 572.554,694.072C572.316,698.693 571.792,703.294 570.984,707.853C570.175,712.653 570.679,717.583 572.441,722.123C574.202,726.658 577.155,730.638 580.991,733.635C603.538,751.541 630.843,776.151 653.272,805.166C655.936,808.744 660.339,810.58 664.756,809.955C669.17,809.33 672.893,806.341 674.459,802.166L674.46,802.17Z" style="fill:white;fill-rule:nonzero;"/>
        </g>
    </g>
</svg>
