<?xml version="1.0" encoding="UTF-8"?>
<svg width="512pt" height="512pt" version="1.1" viewBox="0 0 512 512" xmlns="http://www.w3.org/2000/svg">
 <g fill="#fff">
  <path d="m256 326.72c-16.469 0-29.863 13.395-29.863 29.863 0 8.6758 3.6758 30.426 10.602 50.988h38.531c6.9258-20.566 10.602-42.316 10.602-50.988-0.007813-16.469-13.402-29.863-29.871-29.863z"/>
  <path d="m314.89 353.07c-0.62891-2.9531-2.375-5.4844-4.9062-7.1289-2.5391-1.6484-5.5859-2.1953-8.5117-1.5742-0.015625 0.003907-0.03125 0.003907-0.039062 0.011719 0 0.015625 0.003906 0.035156 0.011718 0.050781 0.625 2.9453 2.3711 5.4766 4.8984 7.1211 2.5391 1.6484 5.5703 2.1836 8.5117 1.5742 0.015626-0.003906 0.03125-0.003906 0.039063-0.011719 0-0.011719-0.003906-0.023437-0.003906-0.035156z"/>
  <path d="m202.02 345.93c-2.5312 1.6445-4.2734 4.1758-4.9062 7.1289v0.003906c0 0.011719-0.003906 0.023438-0.003906 0.035156 0.015625 0.003907 0.03125 0.003907 0.046875 0.011719 2.9336 0.63672 5.9648 0.070313 8.5039-1.5742 2.5312-1.6445 4.2734-4.1758 4.9062-7.1289 0-0.015625 0.003906-0.023437 0.003906-0.039062-0.015624-0.003906-0.03125-0.003906-0.046874-0.011719-2.9492-0.64062-5.9688-0.074219-8.5039 1.5742z"/>
  <path d="m170.71 127.43c-20.641 20.746-32.477 50.41-32.477 81.391v239.61c0 23.766 19.332 43.094 43.098 43.094h149.33c23.766 0 43.098-19.328 43.098-43.094v-239.61c0-30.98-11.836-60.645-32.477-81.391-7.7188-7.7617-16.32-13.957-25.551-18.66v-20.02h10.238c4.2383 0 7.6797-3.4414 7.6797-7.6797l0.003906-52.906c0-4.2383-3.4414-7.6797-7.6797-7.6797h-139.95c-4.2383 0-7.6797 3.4414-7.6797 7.6797v52.906c0 4.2383 3.4414 7.6797 7.6797 7.6797h10.238v20.02c-9.2266 4.7031-17.828 10.898-25.547 18.66zm159.45 231.73c-0.32031 2.2344-1.6055 4.2148-3.5156 5.4219-2.7383 1.7266-5.6367 2.9219-8.5938 3.5547-1.8711 0.39844-3.75 0.59375-5.6133 0.59375-4.1211 0-8.1523-1.0039-11.863-2.8711-1.6055 13.785-6.1445 34.324-12.664 52.047-1.1133 3.0234-3.9883 5.0312-7.2109 5.0312h-49.398c-3.2188 0-6.0938-2.0039-7.2109-5.0312-6.5195-17.723-11.059-38.262-12.664-52.047-3.7109 1.8672-7.7461 2.8711-11.863 2.8711-1.8633 0-3.7461-0.19531-5.6094-0.59375-2.9648-0.63672-5.8594-1.8281-8.6016-3.5547-1.9102-1.2031-3.1953-3.1836-3.5156-5.4219-0.45312-3.2305-0.37109-6.3555 0.26172-9.3008 1.4844-6.9648 5.5898-12.934 11.566-16.809 5.9766-3.8789 13.109-5.1992 20.07-3.7109 1.6953 0.36328 3.3594 0.96094 4.9961 1.6875 0.56641-0.82422 1.1758-1.6133 1.793-2.3945-7.8438-5.2617-14.164-14.652-12.234-28.961 0.56641-4.1992 4.4492-7.2109 8.6367-6.5859 4.2031 0.56641 7.1562 4.4297 6.5859 8.6367-1.4805 10.984 5.2656 14.797 9.3359 16.094 6.7734-4.0703 14.68-6.457 23.148-6.457 8.4453 0 16.332 2.3711 23.105 6.418 4.2812-1.3711 10.852-5.2109 9.3906-16.059-0.57031-4.2031 2.3789-8.0703 6.5859-8.6367 4.1836-0.62891 8.0664 2.3867 8.6367 6.5859 1.9297 14.309-4.3906 23.699-12.234 28.961 0.61719 0.78125 1.2266 1.5742 1.793 2.3945 1.6367-0.72656 3.3008-1.3242 4.9922-1.6875 6.9805-1.4883 14.094-0.17188 20.074 3.7109 5.9766 3.875 10.078 9.8438 11.566 16.809 0.625 2.9492 0.71094 6.0742 0.25391 9.3047zm-111.87-156.8c-2.2305-1.7344-2.6367-4.9492-0.89453-7.1836 1.7344-2.2266 4.9531-2.6406 7.1836-0.89453l17.781 13.828h8.5117v-8.5195l-13.828-17.777c-1.7344-2.2344-1.3359-5.4492 0.89453-7.1836 2.2383-1.7461 5.4492-1.3281 7.1836 0.89453l5.75 7.3906v-13.832c0-2.8281 2.2891-5.1211 5.1211-5.1211 2.8281 0 5.1211 2.2891 5.1211 5.1211v13.832l5.75-7.3906c1.7383-2.2266 4.9492-2.6406 7.1836-0.89453 2.2305 1.7344 2.6289 4.9492 0.89453 7.1836l-13.828 17.777v8.5195h8.5117l17.781-13.828c2.2383-1.7461 5.4492-1.3281 7.1836 0.89453 1.7383 2.2344 1.3359 5.4492-0.89453 7.1836l-7.3945 5.75h13.832c2.8281 0 5.1211 2.2891 5.1211 5.1211 0 2.8281-2.2891 5.1211-5.1211 5.1211h-13.828l7.3906 5.7461c2.2305 1.7344 2.6367 4.9492 0.89453 7.1836-1.0039 1.2969-2.5195 1.9766-4.0469 1.9766-1.0938 0-2.2031-0.35156-3.1406-1.0781l-17.781-13.824-8.5078-0.007812v8.5117l13.828 17.781c1.7383 2.2344 1.3359 5.4492-0.89453 7.1836-0.93359 0.73047-2.0469 1.0781-3.1406 1.0781-1.5234 0-3.0352-0.67969-4.0469-1.9766l-5.7461-7.3828v13.828c0 2.8281-2.2891 5.1211-5.1211 5.1211-2.8281 0-5.1211-2.2891-5.1211-5.1211v-13.828l-5.75 7.3945c-1.0117 1.2969-2.5195 1.9766-4.0469 1.9766-1.0938 0-2.2031-0.35156-3.1406-1.0781-2.2305-1.7344-2.6367-4.9492-0.89453-7.1836l13.832-17.789v-8.5117h-8.5156l-17.781 13.824c-0.93359 0.73047-2.0469 1.0781-3.1406 1.0781-1.5312 0-3.0391-0.67969-4.0469-1.9766-1.7383-2.2344-1.3359-5.4492 0.89453-7.1836l7.3906-5.7461h-13.828c-2.8281 0-5.1211-2.2891-5.1211-5.1211 0-2.8281 2.2891-5.1211 5.1211-5.1211h13.832zm82.078-113.61v17.07h-88.75v-17.07z"/>
 </g>
</svg>
