<?xml version="1.0" encoding="UTF-8"?>
<svg width="512pt" height="512pt" version="1.1" viewBox="0 0 512 512" xmlns="http://www.w3.org/2000/svg">
 <g fill="#fff">
  <path d="m460.92 257.26c2.4805 0 4.4688-1.9922 4.4688-4.4688 0-2.4805-1.9922-4.4688-4.4688-4.4688-2.4805 0-4.4688 1.9922-4.4688 4.4688 0 2.4805 1.9883 4.4688 4.4688 4.4688z"/>
  <path d="m440.2 229.43c0 2.4805 1.9922 4.4688 4.4688 4.4688 2.4375 0 4.4688-1.9922 4.4688-4.4688 0-2.4375-2.0312-4.4688-4.4688-4.4688-2.4805-0.003906-4.4688 2.0312-4.4688 4.4688z"/>
  <path d="m398.14 287.61c-2.4805 0-4.4688 2.0312-4.4688 4.4688 0 2.4805 1.9922 4.4688 4.4688 4.4688 2.4805 0 4.4688-1.9922 4.4688-4.4688 0-2.4375-1.9883-4.4688-4.4688-4.4688z"/>
  <path d="m371.81 287.61c-2.4805 0-4.4688 2.0312-4.4688 4.4688 0 2.4805 1.9922 4.4688 4.4688 4.4688 2.4805 0 4.4688-1.9922 4.4688-4.4688 0.003906-2.4375-1.9883-4.4688-4.4688-4.4688z"/>
  <path d="m150.51 235.07c2.4805 0 4.4688-2.0312 4.4688-4.4688 0-2.4805-1.9922-4.4688-4.4688-4.4688-2.4375 0-4.4688 1.9922-4.4688 4.4688 0 2.4375 2.0312 4.4688 4.4688 4.4688z"/>
  <path d="m140.15 251.86c2.4805 0 4.4688-1.9922 4.4688-4.4688 0-2.4805-1.9922-4.4688-4.4688-4.4688-2.4375 0-4.4688 1.9922-4.4688 4.4688 0 2.4766 2.0312 4.4688 4.4688 4.4688z"/>
  <path d="m121.38 197.32c2.4805 0 4.4688-1.9922 4.4688-4.4688 0-2.4805-1.9922-4.4688-4.4688-4.4688-2.4805 0-4.4688 1.9922-4.4688 4.4688 0 2.4766 1.9922 4.4688 4.4688 4.4688z"/>
  <path d="m112.36 250.07c2.4805 0 4.4688-1.9922 4.4688-4.4688 0-2.4805-1.9922-4.4688-4.4688-4.4688-2.4805 0-4.4688 1.9922-4.4688 4.4688 0 2.4805 1.9883 4.4688 4.4688 4.4688z"/>
  <path d="m100.57 233.89c2.4375 0 4.4688-1.9922 4.4688-4.4688 0-2.4375-2.0312-4.4688-4.4688-4.4688-2.4805 0-4.4688 2.0312-4.4688 4.4688 0 2.4766 1.9922 4.4688 4.4688 4.4688z"/>
  <path d="m98.945 271.61c-2.4805 0-4.4688 1.9922-4.4688 4.4688 0 2.4805 1.9922 4.4688 4.4688 4.4688 2.4375 0 4.4688-1.9922 4.4688-4.4688 0-2.4805-2.0312-4.4688-4.4688-4.4688z"/>
  <path d="m96.832 203.3c2.4805 0 4.4688-1.9922 4.4688-4.4688 0-2.4805-1.9922-4.4688-4.4688-4.4688-2.4805 0-4.4688 1.9922-4.4688 4.4688s1.9922 4.4688 4.4688 4.4688z"/>
  <path d="m78.711 266.24c-2.4805 0-4.4688 1.9922-4.4688 4.4688 0 2.4805 1.9922 4.4688 4.4688 4.4688 2.4375 0 4.4688-1.9922 4.4688-4.4688 0-2.4766-2.0312-4.4688-4.4688-4.4688z"/>
  <path d="m66.48 249.13c-2.4805 0-4.5117 2.0312-4.5117 4.4688 0 2.4805 2.0312 4.4688 4.5117 4.4688 2.4375 0 4.4688-1.9922 4.4688-4.4688 0-2.4375-2.0312-4.4688-4.4688-4.4688z"/>
  <path d="m336.29 78.102c-83.105 0-154.63 40.523-171.81 96.793h-103.12c-1.5312 0-2.9336 0.86328-3.625 2.2266l-57.297 113.12c-0.63672 1.2656-0.57812 2.7617 0.16406 3.9648 0.73828 1.1992 2.0469 1.9375 3.4609 1.9375h167.3c22.582 90.121 79.535 137.75 164.93 137.75 152.88 0 175.71-146.19 175.71-233.32 0-67.535-78.82-122.48-175.71-122.48zm-198.48 127.44c-0.67578 8.8906-5.4375 16.02-14.574 21.594-1.9141 1.1719-2.5195 3.668-1.3516 5.5859 0.76562 1.2539 2.1055 1.9453 3.4688 1.9453 0.72266 0 1.4492-0.19141 2.1133-0.59375 12.582-7.6758 18.793-18.172 18.59-31.219 5.7344 0.73047 10.566 2.7031 14.617 5.9805 0.26172 16.297 1.3906 32.281 3.3281 47.645-11.453 1.6094-46.23 5.4766-66.781-3.3906-9.0273-3.9219-15.238-10.773-18.453-20.367-0.94922-2.8281-0.50781-5.8867 1.2148-8.3867 1.8359-2.6641 4.875-4.332 8.1484-4.4609 17.93-0.75781 34.594-5.5977 49.68-14.332zm198.48-62.301c-73.352 0-133.97 43.887-142.3 100.25-0.011719-0.027343-0.03125-0.058593-0.042969-0.085937-5.3867-11.012-8.1211-22.539-8.1211-34.254 0-58.324 67.5-105.77 150.47-105.77 82.949 0 150.43 47.449 150.43 105.77 0 11.145-2.4531 22.109-7.3047 32.598-0.25781 0.55859-0.57422 1.0898-0.83984 1.6406-8.4141-56.316-69-100.15-142.29-100.15zm135.15 112.32c-1.4297 2.0312-2.9961 4.1172-4.7266 6.2305-26.859 32.77-76.836 53.129-130.43 53.129-53.211 0-103.02-20.148-129.99-52.574-1.9609-2.3633-3.6328-4.5977-5.1562-6.8086 0.85547-57.555 61.137-104.18 135.15-104.18s134.29 46.629 135.15 104.2zm-407.59-72.543h98.531c-1.0781 5.2812-1.6484 10.629-1.7461 15.977-5.4414-2.9648-11.742-4.5586-18.879-4.6797-0.11328 0.007813-0.22656 0.039063-0.34375 0.054688-0.089844 0.003906-0.17188-0.027344-0.26172-0.019532-0.11719 0.015626-0.21094 0.085938-0.32422 0.11328-0.28125 0.0625-0.53906 0.16797-0.80469 0.27734-0.16406 0.074218-0.33203 0.12109-0.48438 0.21484-0.035157 0.019531-0.078125 0.027344-0.11328 0.046875-15.391 10.312-32.766 15.949-51.617 16.75-5.8008 0.22656-11.227 3.207-14.508 7.9648-3.1914 4.6328-4.0039 10.316-2.2266 15.586 3.918 11.699 11.84 20.422 22.926 25.238 11.312 4.8828 26.012 6.3242 39.414 6.3242 13.492 0 25.641-1.4531 31.73-2.3281 1.2031 8.0156 2.6641 15.859 4.3594 23.484l-158.83-0.003907z"/>
  <path d="m404.9 259.07c4.7812-2.2305 8.4375-6.0195 10.012-10.387 1.1914-3.2969 1.0859-6.7266-0.28516-9.6328-1.3555-2.9375-3.9258-5.2188-7.2227-6.4219-4.3711-1.5977-9.6172-1.2344-14.406 0.99609-4.7539 2.2305-8.3867 6.0234-9.9688 10.402-1.1875 3.3047-1.0898 6.7383 0.28906 9.668 1.3672 2.9219 3.9336 5.1875 7.2344 6.3828 1.793 0.64844 3.7266 0.97266 5.7148 0.97266 2.8672 0 5.8359-0.66797 8.6328-1.9805zm-14.211-8.8164c0-0.003906-0.003906-0.007812-0.007812-0.011718-0.58594-1.2383-0.32031-2.5625 0-3.457 0.83594-2.3281 2.9961-4.4961 5.7617-5.793 1.7188-0.80078 3.5352-1.2109 5.2227-1.2109 1.0508 0 2.0547 0.16406 2.9492 0.48828 0.88672 0.32422 2.0625 0.97266 2.6484 2.2305 0.58203 1.2305 0.32031 2.543 0 3.4297-0.83594 2.3164-3.0078 4.4766-5.8164 5.7852-2.7656 1.2969-5.8086 1.5586-8.1289 0.72656-0.875-0.32422-2.0547-0.96484-2.6289-2.1875z"/>
  <path d="m437.72 239.91c-6.7656 0-12.273 5.4844-12.273 12.23s5.5078 12.23 12.273 12.23c6.7461 0 12.23-5.4844 12.23-12.23s-5.4844-12.23-12.23-12.23zm0 16.328c-2.2891 0-4.1445-1.8398-4.1445-4.1055 0-2.2617 1.8594-4.1055 4.1445-4.1055 2.2617 0 4.1055 1.8398 4.1055 4.1055 0 2.2656-1.8398 4.1055-4.1055 4.1055z"/>
  <path d="m416.67 263.72c-6.7461 0-12.23 5.4883-12.23 12.23 0 6.7422 5.4883 12.23 12.23 12.23s12.23-5.4883 12.23-12.23c0-6.7383-5.4883-12.23-12.23-12.23zm0 16.336c-2.2617 0-4.1055-1.8398-4.1055-4.1055 0-2.2617 1.8398-4.1055 4.1055-4.1055 2.2617 0 4.1055 1.8398 4.1055 4.1055-0.003906 2.2656-1.8438 4.1055-4.1055 4.1055z"/>
 </g>
</svg>
