<?xml version="1.0" encoding="UTF-8"?>
<svg width="512pt" height="512pt" version="1.1" viewBox="0 0 512 512" xmlns="http://www.w3.org/2000/svg">
 <path d="m313.86 194.79c-17.891-15.297-29.484-36.68-32.547-60.016l-8.2656-62.926h1.2734c6.4922 0 11.754-5.2617 11.754-11.75 0-6.4922-5.2617-11.75-11.754-11.75h-36.633c-6.4922 0-11.75 5.2617-11.75 11.75 0 6.4922 5.2617 11.75 11.75 11.75h1.2734l-8.2656 62.926c-3.0664 23.336-14.66 44.719-32.547 60.016-23.91 20.449-36.188 51.383-32.809 82.664l16.145 149.45c1.2188 11.27 7.0234 21.535 16.051 28.387 7.1562 5.4336 15.902 8.3711 24.887 8.3711h67.16c8.9844 0 17.73-2.9375 24.887-8.3711 9.0312-6.8516 14.836-17.117 16.051-28.387l16.137-149.45c3.3867-31.281-8.8867-62.211-32.797-82.664z" fill="#fff"/>
</svg>
