<?xml version="1.0" encoding="UTF-8" standalone="no"?>
<!DOCTYPE svg PUBLIC "-//W3C//DTD SVG 1.1//EN" "http://www.w3.org/Graphics/SVG/1.1/DTD/svg11.dtd">
<svg width="100%" height="100%" viewBox="0 0 512 512" version="1.1" xmlns="http://www.w3.org/2000/svg" xmlns:xlink="http://www.w3.org/1999/xlink" xml:space="preserve" xmlns:serif="http://www.serif.com/" style="fill-rule:evenodd;clip-rule:evenodd;stroke-linejoin:round;stroke-miterlimit:2;">
    <g transform="matrix(1,0,0,1,-62.5714,-62.4449)">
        <g transform="matrix(0.476245,0,0,0.476245,32.7721,32.7058)">
            <path d="M548.86,261.77C521.251,299.598 499.641,340.567 484.032,375.3C473.489,398.519 457.77,419.011 438.079,435.21C418.388,451.405 395.243,462.878 370.431,468.745C350.083,473.616 330.212,480.307 311.064,488.737C297.15,494.788 285.345,504.835 277.146,517.604C268.947,530.37 264.724,545.284 265.009,560.456C265.9,595.073 273.634,629.011 284.673,660.37C305.466,719.186 339.157,772.61 383.278,816.72C427.395,860.825 480.825,894.501 539.648,915.279C570.914,926.295 604.757,934.029 639.281,934.92C654.367,935.287 669.226,931.174 681.98,923.104C694.73,915.034 704.804,903.362 710.929,889.569C719.546,870.147 726.37,849.975 731.32,829.311C737.136,804.573 748.55,781.499 764.679,761.862C780.812,742.225 801.23,726.55 824.367,716.038C859.172,700.358 900.234,678.772 938.177,651.093C941.818,648.417 944.29,644.448 945.083,640.003C945.876,635.558 944.931,630.976 942.443,627.206C939.95,623.436 936.111,620.772 931.709,619.757C878.178,607.429 795.399,593.273 701.039,498.917C607.289,405.167 592.519,321.777 580.199,268.247C579.183,263.844 576.519,260.005 572.749,257.513C568.98,255.024 564.398,254.079 559.952,254.872C555.507,255.665 551.538,258.138 548.862,261.778L548.86,261.77Z" style="fill:white;fill-rule:nonzero;"/>
        </g>
        <g transform="matrix(0.476245,0,0,0.476245,32.7721,32.7058)">
            <path d="M981.52,571.01C1014.89,570.565 1042.74,544.104 1043.42,510.752C1044.17,474.26 1029.12,428.721 1000.95,381.302C997.234,375.165 990.914,371.064 983.793,370.177C976.672,369.29 969.539,371.716 964.434,376.755C926.02,415.169 863.444,417.63 823.814,380.365C804.185,361.838 792.88,336.162 792.474,309.174C792.068,282.181 802.595,256.178 821.658,237.068L823.158,235.568C828.252,230.486 830.709,223.338 829.822,216.197C828.931,209.057 824.795,202.728 818.611,199.052C772.673,171.677 728.283,156.654 692.331,156.49C675.597,156.436 659.519,163.01 647.62,174.775C635.722,186.545 628.968,202.545 628.839,219.279C628.253,273.724 642.409,372.979 734.659,465.209C827.354,557.811 927.269,571.729 981.529,571.009L981.52,571.01Z" style="fill:white;fill-rule:nonzero;"/>
        </g>
        <g transform="matrix(0.476245,0,0,0.476245,32.7721,32.7058)">
            <path d="M1069.5,327.66C1077.75,326.961 1085.79,324.734 1093.22,321.098C1110.54,312.519 1121.49,301.551 1128.38,290.301C1144.97,262.902 1138.43,227.699 1114.97,205.926C1085.13,178.129 1052.46,179.746 1029.8,186.145C1025.29,187.414 1020.45,186.148 1017.14,182.84C1013.83,179.531 1012.57,174.691 1013.84,170.184C1020.24,147.52 1021.85,114.848 994.195,85.082C972.398,61.644 937.195,55.082 909.82,71.676C898.593,78.473 887.672,89.371 879.117,106.598C875.379,114.063 873.082,122.164 872.344,130.481C870.25,153.883 875.836,177.333 888.258,197.278C892.672,204.469 894.531,212.938 893.535,221.317C892.539,229.696 888.75,237.493 882.773,243.45L855.445,270.778C845.676,280.563 840.187,293.829 840.187,307.657C840.187,321.485 845.676,334.751 855.445,344.536C865.234,354.313 878.5,359.806 892.336,359.806C906.172,359.806 919.438,354.314 929.227,344.536L956.555,317.208C962.512,311.231 970.309,307.442 978.688,306.446C987.067,305.45 995.536,307.309 1002.73,311.723C1022.67,324.145 1046.1,329.739 1069.5,327.661L1069.5,327.66Z" style="fill:white;fill-rule:nonzero;"/>
        </g>
        <g transform="matrix(0.476245,0,0,0.476245,32.7721,32.7058)">
            <path d="M170.2,1013.8C174.708,1012.53 179.548,1013.8 182.856,1017.11C186.164,1020.41 187.43,1025.25 186.161,1029.76C179.762,1052.42 178.122,1085.12 205.778,1114.89C227.575,1138.32 262.778,1144.89 290.153,1128.29C301.38,1121.47 312.325,1110.57 320.88,1093.32C324.591,1085.88 326.88,1077.82 327.63,1069.53C329.731,1046.12 324.145,1022.65 311.716,1002.69C307.302,995.498 305.442,987.03 306.438,978.651C307.434,970.272 311.224,962.475 317.2,956.518L356.481,917.237C363.087,910.619 366.797,901.651 366.797,892.299C366.797,882.947 363.086,873.979 356.481,867.361L332.575,843.455C325.958,836.849 316.989,833.139 307.637,833.139C298.285,833.139 289.317,836.85 282.699,843.455L243.418,882.736C237.461,888.72 229.66,892.521 221.277,893.521C212.895,894.517 204.418,892.661 197.222,888.243C177.261,875.841 153.808,870.274 130.402,872.376C122.25,873.126 114.3,875.376 106.964,879.009C89.573,887.587 78.605,898.579 71.808,909.853C55.214,937.251 61.753,972.455 85.214,994.228C114.839,1021.84 147.652,1020.2 170.198,1013.8L170.2,1013.8Z" style="fill:white;fill-rule:nonzero;"/>
        </g>
    </g>
</svg>
