<?xml version="1.0" encoding="UTF-8" standalone="no"?>
<!DOCTYPE svg PUBLIC "-//W3C//DTD SVG 1.1//EN" "http://www.w3.org/Graphics/SVG/1.1/DTD/svg11.dtd">
<svg width="100%" height="100%" viewBox="0 0 495 512" version="1.1" xmlns="http://www.w3.org/2000/svg" xmlns:xlink="http://www.w3.org/1999/xlink" xml:space="preserve" xmlns:serif="http://www.serif.com/" style="fill-rule:evenodd;clip-rule:evenodd;stroke-linejoin:round;stroke-miterlimit:2;">
    <g transform="matrix(1,0,0,1,-79.2539,-58.9604)">
        <g transform="matrix(0.473241,0,0,0.473241,41.7477,31.0579)">
            <path d="M576.56,276.77L657.607,169.36C667.982,155.61 672.47,138.301 670.084,121.243C667.697,104.184 658.631,88.774 644.881,78.399L636.467,72.071C622.725,61.692 605.416,57.2 588.362,59.587C571.303,61.974 555.897,71.044 545.53,84.798L451.1,209.958C447.401,214.817 446.502,221.255 448.729,226.938C450.955,232.625 455.983,236.743 461.999,237.801C490.577,242.672 517.558,254.36 540.655,271.879L551.835,280.316C555.573,283.148 560.292,284.367 564.937,283.703C569.581,283.039 573.765,280.543 576.562,276.777L576.56,276.77Z" style="fill:white;fill-rule:nonzero;"/>
            <path d="M702.94,394.22C706.479,396.993 710.983,398.232 715.444,397.665C719.901,397.099 723.952,394.767 726.682,391.197L805.08,287.297L808.244,283.101C818.611,269.355 823.092,252.058 820.705,235.007C818.318,217.96 809.26,202.558 795.517,192.187L787.127,185.859C773.381,175.453 756.057,170.937 738.982,173.316C721.904,175.695 706.474,184.769 696.095,198.539L614.533,306.629C611.861,310.172 610.704,314.633 611.318,319.027C611.935,323.422 614.271,327.394 617.814,330.066L702.728,394.121L702.94,394.22Z" style="fill:white;fill-rule:nonzero;"/>
            <path d="M695.7,628.76C726.919,652.526 771.872,644.885 795.497,613.549L954.617,402.609C977.351,372.468 973.836,329.062 944.867,304.875C930.105,292.555 910.945,286.816 891.844,288.996C872.742,291.172 855.364,301.078 843.758,316.406L745.625,446.486C741.09,452.345 738.52,459.494 738.289,466.9C737.938,487.267 730.711,506.916 717.781,522.658C706.824,535.998 695.035,548.631 682.484,560.486C676.996,565.701 673.265,572.494 671.816,579.924C670.367,587.358 671.269,595.053 674.398,601.947C679.152,612.521 686.476,621.736 695.703,628.759L695.7,628.76Z" style="fill:white;fill-rule:nonzero;"/>
            <path d="M1106.6,514.78C1119.1,500.026 1124.97,480.776 1122.83,461.557C1120.7,442.338 1110.74,424.846 1095.3,413.202C1079.87,401.554 1060.32,396.78 1041.24,399.999C1022.18,403.218 1005.28,414.147 994.521,430.218L832.941,644.368C819.546,664.462 817.398,690.02 827.253,712.063C837.109,734.11 857.585,749.555 881.491,752.973C905.393,756.391 929.378,747.305 945.018,728.907L1106.6,514.78Z" style="fill:white;fill-rule:nonzero;"/>
            <path d="M665.02,1096.1L765.8,962.51C792.323,927.35 803.796,883.092 797.691,839.47C791.585,795.853 768.406,756.443 733.246,729.92L624.866,648.17C620.87,645.209 616.721,642.455 612.444,639.92L546.397,601.154C541.663,598.369 536.053,597.478 530.694,598.662C525.331,599.842 520.616,603.006 517.491,607.521C514.362,612.033 513.061,617.564 513.843,622.998C522.28,681.123 514.382,758.488 459.421,849.408C455.432,855.982 448.999,860.713 441.53,862.556C434.065,864.4 426.171,863.212 419.577,859.252C418.709,858.712 417.866,858.15 417.069,857.541C411.338,853.201 407.42,846.893 406.065,839.834C404.709,832.775 406.018,825.467 409.733,819.314C524.063,630.264 403.194,518.024 398.014,513.334C392.143,508.052 388.67,500.615 388.389,492.721C388.104,484.83 391.037,477.162 396.514,471.475C401.275,466.775 407.475,463.803 414.119,463.029C420.763,462.256 427.478,463.729 433.193,467.209L574.213,550.014C581.568,554.33 590.018,556.42 598.537,556.034C607.056,555.647 615.279,552.799 622.213,547.834L622.447,547.647C628.658,543.194 634.658,538.389 640.353,533.444C654.853,520.678 668.298,506.756 680.548,491.819C682.333,489.631 683.904,487.28 685.236,484.788C689.825,476.155 691.193,466.171 689.087,456.624C686.982,447.073 681.544,438.589 673.751,432.686L575.36,358.577L556.024,343.975L536.712,329.467L511.493,310.436C488.251,292.913 459.907,283.491 430.802,283.612C401.693,283.737 373.431,293.397 350.337,311.116C340.841,318.42 332.368,326.968 325.142,336.522L113.032,617.632C111.743,619.366 110.454,621.1 109.212,622.882C56.735,697.413 75.298,800.652 148.493,854.912L502.213,1117.41C551.713,1154.16 621.883,1147.22 661.593,1100.07C662.765,1098.9 663.89,1097.51 665.015,1096.11L665.02,1096.1Z" style="fill:white;fill-rule:nonzero;"/>
        </g>
    </g>
</svg>
