<?xml version="1.0" encoding="UTF-8" standalone="no"?>
<!DOCTYPE svg PUBLIC "-//W3C//DTD SVG 1.1//EN" "http://www.w3.org/Graphics/SVG/1.1/DTD/svg11.dtd">
<svg width="100%" height="100%" viewBox="0 0 512 425" version="1.1" xmlns="http://www.w3.org/2000/svg" xmlns:xlink="http://www.w3.org/1999/xlink" xml:space="preserve" xmlns:serif="http://www.serif.com/" style="fill-rule:evenodd;clip-rule:evenodd;stroke-linejoin:round;stroke-miterlimit:2;">
    <g transform="matrix(1,0,0,1,-68.595,-158.995)">
        <g transform="matrix(0.481698,0,0,0.481698,35.5529,82.4072)">
            <path d="M756.84,852.16C751.754,842.16 742.52,834.906 731.598,832.332L731.2,832.332C677.036,817.543 625.4,810.066 577.71,810.066C472.66,810.066 408.61,846.535 379.78,868.285C366.362,878.476 349.968,883.976 333.116,883.941C318.499,883.894 304.19,879.746 291.811,871.968C279.436,864.195 269.491,853.097 263.108,839.948L109.378,520.168C107.018,515.274 102.514,511.754 97.194,510.656C91.869,509.559 86.342,511.004 82.237,514.567L81.838,514.895C75.448,520.465 71.068,527.985 69.373,536.29C67.682,544.594 68.764,553.228 72.463,560.856L293.783,1019.65C299.334,1031.11 310.248,1039.04 322.865,1040.78C335.478,1042.51 348.131,1037.83 356.572,1028.3C489.202,880.285 680.782,886.895 752.362,895.095C756.003,895.513 759.671,894.599 762.69,892.517C765.706,890.438 767.866,887.333 768.768,883.782C769.67,880.231 769.252,876.474 767.596,873.204L756.84,852.16Z" style="fill:white;fill-rule:nonzero;"/>
            <path d="M1113.7,653.41C1118.04,653.5 1122.26,651.969 1125.54,649.109C1128.81,646.254 1130.89,642.277 1131.39,637.961C1131.88,633.645 1130.75,629.301 1128.21,625.777L1103.69,591.347C1101.44,588.148 1098.05,585.933 1094.22,585.16C1090.39,584.39 1086.4,585.117 1083.09,587.199C1074.95,592.511 1065.86,596.199 1056.32,598.051C982.613,612.301 914.874,651.465 854.974,714.441C808.755,763.05 784.966,808.191 784.802,808.566C783.138,811.652 783.068,815.355 784.615,818.503L802.662,854.151C805.209,859.183 810.119,862.589 815.724,863.214C821.329,863.839 826.869,861.593 830.458,857.245C867.302,812.714 945.118,753.295 1099.01,751.635C1104.58,751.569 1109.95,749.518 1114.14,745.854C1118.34,742.19 1121.09,737.147 1121.91,731.635C1122.73,726.123 1121.56,720.502 1118.6,715.776L1081.5,656.784C1081.5,656.784 1090.8,652.963 1113.7,653.409L1113.7,653.41Z" style="fill:white;fill-rule:nonzero;"/>
            <path d="M709.78,759.23L494.9,335.01C491.619,328.53 485.591,323.869 478.494,322.33C411.51,307.775 267.254,297.392 140.054,429.46C135.632,434.038 132.714,439.862 131.695,446.144C130.671,452.425 131.593,458.871 134.335,464.617L305.105,819.697C309.136,828.099 316.726,834.248 325.781,836.451C334.836,838.654 344.398,836.678 351.84,831.064C399.817,794.876 509.83,737.9 696.89,776.244C701.343,777.115 705.906,775.377 708.644,771.76C711.386,768.143 711.824,763.279 709.781,759.229L709.78,759.23ZM279.09,434.48C282.277,432.136 358.192,375.605 451.99,403.449C457.166,404.863 461.553,408.305 464.162,412.996C466.768,417.687 467.377,423.23 465.846,428.375C464.318,433.516 460.779,437.828 456.033,440.332C451.287,442.832 445.732,443.32 440.623,441.676C365.975,419.504 303.773,465.793 303.163,466.262C297.476,470.387 290.038,471.215 283.581,468.445C277.128,465.672 272.604,459.711 271.679,452.746C270.753,445.782 273.562,438.844 279.07,434.48L279.09,434.48ZM305.106,592.64C299.985,597.406 292.743,599.14 286.02,597.214C279.293,595.285 274.071,589.976 272.254,583.218C270.438,576.464 272.293,569.249 277.145,564.21C280.801,560.624 368.34,476.437 501.845,509.952C507.098,511.124 511.653,514.37 514.478,518.952C517.302,523.534 518.157,529.065 516.841,534.284C515.528,539.503 512.161,543.972 507.505,546.671C502.853,549.374 497.302,550.077 492.118,548.624C380.108,520.499 305.858,591.936 305.108,592.64L305.106,592.64ZM575.156,652.288C573.953,657.436 570.754,661.901 566.262,664.694C561.773,667.491 556.355,668.389 551.203,667.194C458.46,645.561 397.003,688.499 396.402,688.944C390.606,693.088 383.035,693.827 376.547,690.878C370.059,687.928 365.633,681.741 364.946,674.648C364.254,667.55 367.402,660.628 373.199,656.484C376.293,654.281 450.144,602.718 560.249,628.359C565.394,629.562 569.851,632.757 572.647,637.245C575.44,641.73 576.343,647.14 575.155,652.288L575.156,652.288Z" style="fill:white;fill-rule:nonzero;"/>
            <path d="M1067,508.45L875.61,184.73C866.735,169.75 850.93,160.222 833.54,159.371C775.931,156.512 643.27,166.801 538.23,302.341C535.468,305.939 533.781,310.247 533.367,314.763C532.953,319.282 533.824,323.825 535.886,327.865L747.786,746.245C749.673,749.979 753.392,752.44 757.564,752.725C761.739,753.007 765.755,751.073 768.13,747.628C809.38,688.308 902.24,580.608 1047.43,552.538C1056.84,550.667 1064.75,544.339 1068.64,535.569C1072.54,526.799 1071.93,516.686 1067,508.452L1067,508.45ZM675.99,382.03C672.685,386.241 667.83,388.948 662.513,389.542C657.193,390.139 651.861,388.569 647.708,385.194C643.556,381.815 640.935,376.909 640.439,371.581C639.939,366.253 641.599,360.948 645.052,356.858C646.81,354.725 688.552,303.96 746.002,283.967C752.725,281.623 760.19,283.041 765.584,287.694C770.974,292.346 773.474,299.518 772.146,306.514C770.814,313.51 765.849,319.264 759.126,321.608C712.251,337.85 676.345,381.491 675.993,382.03L675.99,382.03ZM706.693,483.75C701.994,483.367 697.58,481.336 694.232,478.012C690.888,474.691 688.822,470.293 688.404,465.594C687.986,460.898 689.244,456.203 691.951,452.344C694.177,449.203 747.568,375 832.571,357.047C839.493,355.695 846.614,358.097 851.301,363.367C855.988,368.636 857.543,375.992 855.391,382.711C853.238,389.426 847.699,394.508 840.821,396.07C770.837,410.882 724.871,474.773 724.431,475.406C720.36,481.062 713.638,484.191 706.689,483.656L706.693,483.75ZM919.483,495.75C813.263,499.711 780.663,580.547 779.323,583.969C777.843,587.801 775.218,591.086 771.804,593.371C768.389,595.657 764.354,596.836 760.245,596.742C757.967,596.696 755.713,596.25 753.588,595.43C748.67,593.559 744.69,589.817 742.526,585.02C740.362,580.223 740.183,574.762 742.034,569.836C743.722,565.383 784.596,460.876 917.984,455.906C923.367,455.539 928.668,457.367 932.679,460.976C936.691,464.582 939.07,469.664 939.273,475.054C939.476,480.445 937.488,485.691 933.757,489.589C930.031,493.488 924.878,495.71 919.484,495.749L919.483,495.75Z" style="fill:white;fill-rule:nonzero;"/>
        </g>
    </g>
</svg>
