<?xml version="1.0" encoding="UTF-8" standalone="no"?>
<!DOCTYPE svg PUBLIC "-//W3C//DTD SVG 1.1//EN" "http://www.w3.org/Graphics/SVG/1.1/DTD/svg11.dtd">
<svg width="100%" height="100%" viewBox="0 0 348 512" version="1.1" xmlns="http://www.w3.org/2000/svg" xmlns:xlink="http://www.w3.org/1999/xlink" xml:space="preserve" xmlns:serif="http://www.serif.com/" style="fill-rule:evenodd;clip-rule:evenodd;stroke-linejoin:round;stroke-miterlimit:2;">
    <g transform="matrix(1,0,0,1,-85.7022,0.0537866)">
        <g transform="matrix(1.20005,0,0,1.20005,-45.5555,-53.2588)">
            <g transform="matrix(1,0,0,1,-1.66659,1.66659)">
                <path d="M218.56,83.309L293.228,83.309C300.138,82.805 306.322,78.828 309.638,72.747C312.958,66.665 312.958,59.313 309.638,53.231C306.322,47.145 300.138,43.169 293.228,42.669L218.56,42.669C211.65,43.169 205.47,47.146 202.15,53.231C198.834,59.313 198.834,66.665 202.15,72.747C205.47,78.829 211.65,82.806 218.56,83.309Z" style="fill:white;fill-rule:nonzero;"/>
            </g>
        </g>
        <g transform="matrix(1.20005,0,0,1.20005,-45.5555,-53.2588)">
            <g transform="matrix(1,0,0,1,-1.66659,1.66659)">
                <path d="M384,257.07C369.289,228.894 345.656,206.39 316.801,193.07L316.801,157.55C320.699,155.46 324.289,152.839 327.465,149.765C337.027,140.202 342.399,127.234 342.399,113.71C342.399,110.882 341.278,108.167 339.278,106.167C337.278,104.167 334.563,103.042 331.735,103.042L180.165,103.042C174.274,103.042 169.497,107.819 169.497,113.71C169.544,131.776 179.165,148.46 194.778,157.55L194.778,192.964C163.227,207.663 138.02,233.226 123.762,264.98C109.504,296.734 107.149,332.554 117.125,365.9C127.102,399.248 148.742,427.892 178.094,446.599C207.446,465.306 242.547,472.829 276.989,467.79C311.43,462.751 342.907,445.489 365.669,419.157C388.431,392.825 400.962,359.18 400.966,324.376C400.923,300.888 395.099,277.771 384.005,257.067L384,257.07ZM320,124.16C318.426,128.144 316.07,131.769 313.066,134.828C307.379,140.43 299.718,143.57 291.734,143.574L220.8,143.574C214.589,143.68 208.491,141.875 203.339,138.402C198.191,134.93 194.23,129.957 191.999,124.16L320,124.16ZM209.81,209.492C210.849,208.98 211.818,208.332 212.689,207.574L213.224,207.574C213.603,207.094 213.962,206.594 214.29,206.078C214.29,205.543 215.142,205.011 215.462,204.371L215.462,204.375C215.4,204.203 215.4,204.012 215.462,203.84C215.873,202.711 216.091,201.519 216.103,200.32L216.103,164.265L291.411,164.265C293.044,164.378 294.685,164.378 296.317,164.265L296.317,199.679C296.313,200.847 296.532,202.007 296.958,203.093C297.392,204.214 298.005,205.257 298.771,206.187L299.622,207.253C300.552,208.074 301.595,208.757 302.716,209.281C329.915,220.301 352.302,240.644 365.864,266.668C367.786,270.402 369.489,274.347 371.09,278.293C368.852,294.188 369.278,309.227 357.543,321.707C333.438,347.199 282.344,337.066 255.993,332.375C197.325,320.641 185.38,293.867 154.443,301.867C146.287,304.16 138.744,308.242 132.365,313.812C134.229,290.968 142.42,269.097 156.025,250.652C169.627,232.203 188.103,217.914 209.377,209.386L209.81,209.492Z" style="fill:white;fill-rule:nonzero;"/>
            </g>
        </g>
    </g>
</svg>
