<?xml version="1.0" encoding="UTF-8" standalone="no"?>
<!DOCTYPE svg PUBLIC "-//W3C//DTD SVG 1.1//EN" "http://www.w3.org/Graphics/SVG/1.1/DTD/svg11.dtd">
<svg width="100%" height="100%" viewBox="0 0 320 683" version="1.1" xmlns="http://www.w3.org/2000/svg" xmlns:xlink="http://www.w3.org/1999/xlink" xml:space="preserve" xmlns:serif="http://www.serif.com/" style="fill-rule:evenodd;clip-rule:evenodd;stroke-linejoin:round;stroke-miterlimit:2;">
    <g transform="matrix(1.33333,0,0,1.33333,-564.102,-296.218)">
        <g transform="matrix(0.67753,0,0,0.67753,136.429,71.6412)">
            <clipPath id="_clip1">
                <rect x="423" y="222.14" width="354" height="755.71"/>
            </clipPath>
            <g clip-path="url(#_clip1)">
                <path d="M584.05,222.98C570.523,224.492 543.921,231.14 541.429,233.636C540.976,234.089 546.191,268.55 548.382,278.98L548.761,281.097L513.089,281.55L509.913,283.742C508.101,284.875 505.909,287.293 504.925,289.183C503.187,292.281 503.112,293.339 502.886,315.406C502.585,342.008 502.812,345.179 505.683,349.488C508.859,354.402 513.843,356.594 521.929,356.594L528.351,356.594L528.351,398.309L528.276,440.098L519.964,444.102C475.605,465.715 440.991,508.563 428.523,557.232C422.703,580.13 423.081,564.939 423.081,759.842L423.081,934.342L425.199,940.01C431.019,956.108 446.058,971.748 460.039,976.436C464.195,977.721 470.316,977.873 600.679,977.873L737.089,977.873L741.546,976.209C755.753,970.768 769.433,955.502 775.249,938.576C776.686,934.42 776.76,928.826 776.76,760.606C776.76,576.516 776.913,583.466 773.21,565.176C768.069,540.313 754.542,512.352 737.464,491.192C722.351,472.602 699.98,454.993 677.534,443.883L671.487,440.934L671.487,356.598L679.498,356.598C689.85,356.598 694.31,354.707 697.709,349.039L699.901,345.336L699.901,291.453L697.557,288.051C696.272,286.238 693.78,283.895 692.116,282.988C689.166,281.25 688.186,281.176 672.089,281.176L655.085,281.176L655.538,278.984C657.655,268.707 662.944,234.172 662.491,233.64C660.526,231.828 641.257,226.308 630.374,224.496C616.327,222.082 597.511,221.476 584.058,222.988L584.05,222.98ZM681.612,299.761L681.612,337.847L521.482,337.847L521.482,299.761L681.612,299.761ZM652.819,405.031L652.819,453.547L657.354,455.359C659.772,456.266 665.819,459.063 670.729,461.555C719.471,485.813 752.42,533.274 757.788,587.005C758.394,592.974 758.542,645.571 758.394,763.915L758.167,932.215L754.917,938.789C751.062,946.648 743.733,954.508 737.534,957.605L733.378,959.644L467.368,959.644L463.059,957.527C456.786,954.429 448.399,945.511 444.696,938.105L441.747,932.136L441.521,762.706C441.368,611.256 441.446,592.136 442.505,583.226C448.399,536.296 473.263,496.015 512.786,469.716C520.192,464.802 533.188,458.079 541.427,454.904L547.021,452.713L547.021,356.51L599.994,356.514L652.818,356.514L652.819,405.031Z" style="fill:white;fill-rule:nonzero;"/>
            </g>
        </g>
        <g transform="matrix(0.67753,0,0,0.67753,136.429,71.6412)">
            <path d="M469.71,899.34L471.901,903.875C476.737,913.699 487.921,924.656 495.706,927.379C498.73,928.364 512.331,928.512 602.936,928.512L706.696,928.512L710.173,926.774C717.806,923.145 726.193,911.962 729.216,901.231C730.349,897.301 731.935,596.751 731.935,596.751L469.555,596.751L469.71,899.34Z" style="fill:white;fill-rule:nonzero;"/>
        </g>
    </g>
</svg>
