<?xml version="1.0" encoding="UTF-8"?>
<svg width="512pt" height="512pt" version="1.1" viewBox="0 0 512 512" xmlns="http://www.w3.org/2000/svg">
 <path d="m365.22 148.67c0-66.555-53.953-120.51-120.51-120.51-66.555 0-120.51 53.953-120.51 120.51 0 40.656 20.137 76.609 50.98 98.434l-50.98 219.95h241.02l-50.973-219.95c30.84-21.824 50.973-57.773 50.973-98.434zm-27.152-20.215c9.6133 59.223-46.012 114.27-46.012 114.27s12.887 68.391 18.699 101.56c-4.7695 0.61719-9.6289 0.9375-14.566 0.9375-23.559 0-45.422-7.2539-63.488-19.641 2.3672 0.40625 4.793 0.625 7.2773 0.625 23.738 0 42.98-19.246 42.98-42.984 0-23.738-19.242-42.984-42.98-42.984s-42.984 19.242-42.984 42.984c0 0.90234 0.035156 1.7969 0.09375 2.6875-8.4961-15.82-13.316-33.898-13.316-53.113 0-62.09 50.332-112.42 112.42-112.42 14.805 0.011719 28.934 2.875 41.879 8.0742zm-39.398-62.621c-90.93 17.359-123.17 81.008-123.17 81.008 21.492-119.86 123.17-81.008 123.17-81.008zm22.32 380.25s-110.77-12.398-137.22-105.81c0 0 34.719 61.168 128.95 66.129z" fill="#fff"/>
</svg>
