<?xml version="1.0" encoding="UTF-8"?>
<svg width="512pt" height="512pt" version="1.1" viewBox="0 0 512 512" xmlns="http://www.w3.org/2000/svg">
 <path d="m138.67 261.33 26.664 21.336 26.668 21.332-5.332 32-53.336 37.332h-53.332l21.332-16 37.336-64zm133.33 42.668 26.668 5.332 58.664 26.668-16 32h-48l16-10.668zm-224-89.734 26.668-15.906 5.332-15.906 48-37.117v15.906h42.668l37.332-15.906 48 10.605c49.691-10.625 83.469-14.16 101.33-10.605 17.867 3.5508 35.645 21.227 53.336 53.023l58.664 174.97h-58.664c13.027-9.3672 18.363-14.668 16-15.906-3.5469-1.8555-46.422-20.496-85.336-42.418-27.391-15.43-55.832-24.27-85.332-26.512v53.023l-5.332 31.812h-53.336l16-15.906v-37.113l-10.664-21.211-64-53.023-42.668-5.3008-37.332-10.605z" fill="#fff" fill-rule="evenodd"/>
</svg>
