<?xml version="1.0" encoding="UTF-8" standalone="no"?>
<!DOCTYPE svg PUBLIC "-//W3C//DTD SVG 1.1//EN" "http://www.w3.org/Graphics/SVG/1.1/DTD/svg11.dtd">
<svg width="100%" height="100%" viewBox="0 0 512 371" version="1.1" xmlns="http://www.w3.org/2000/svg" xmlns:xlink="http://www.w3.org/1999/xlink" xml:space="preserve" xmlns:serif="http://www.serif.com/" style="fill-rule:evenodd;clip-rule:evenodd;stroke-linejoin:round;stroke-miterlimit:2;">
    <g transform="matrix(1,0,0,1,-94.8418,-283.199)">
        <g transform="matrix(0.509987,0,0,0.509987,46.4737,138.771)">
            <path d="M459.6,834C458.401,832.801 455.998,831.602 454.799,830.398C439.197,817.199 422.401,807.597 401.998,804C387.6,800.399 373.197,800.399 358.799,801.602C333.6,804 309.6,813.602 286.799,826.801C271.197,835.199 255.6,846 242.401,858C241.202,859.199 240.003,859.199 238.8,860.398C237.6,859.199 237.6,858 238.8,856.797C241.198,841.195 244.8,825.598 250.8,809.996C261.601,781.195 277.198,755.996 297.601,733.195C319.203,707.996 344.402,686.394 371.999,668.394C392.397,655.195 412.8,643.195 434.397,633.593C435.596,633.593 436.795,632.394 437.998,632.394C440.397,631.194 442.799,631.194 443.998,632.394C458.396,638.394 472.799,644.394 488.396,650.394C521.998,664.792 555.595,680.394 587.998,697.195C589.197,698.394 590.397,698.394 592.799,699.593C593.998,698.394 595.197,695.991 592.799,694.792C583.197,683.991 580.799,670.792 581.998,656.394C581.998,652.793 581.998,649.195 583.197,644.394C586.799,643.195 590.396,644.394 593.998,644.394C603.6,645.593 611.998,650.394 619.197,657.593C620.396,658.792 621.596,659.992 622.799,661.195C631.197,656.394 640.799,653.996 651.6,653.996C661.201,653.996 670.799,656.394 680.401,659.996C681.6,658.796 684.002,656.394 685.202,655.195C686.401,653.996 688.803,652.796 690.002,650.394C691.202,649.195 693.604,647.996 694.803,646.792C697.202,645.593 698.405,644.394 700.803,644.394C703.202,643.195 704.405,643.195 706.803,643.195C709.202,643.195 711.604,641.996 714.002,641.996L720.002,641.996C722.401,647.996 722.401,659.996 721.202,668.394C720.002,677.995 716.401,685.195 710.401,692.394L710.401,694.792C710.401,695.991 710.401,695.991 711.6,697.19L712.799,697.19C713.998,695.991 715.197,695.991 717.6,694.792C763.202,670.792 809.998,650.394 858,632.394C859.199,632.394 859.199,632.394 860.398,631.195C862.797,629.996 865.199,629.996 866.398,631.195C878.398,635.996 889.199,641.996 900,647.996C931.199,664.797 960,685.195 986.398,710.394C1006.8,730.792 1024.8,752.394 1039.2,778.792C1052.4,801.593 1060.8,826.792 1064.4,853.19L1064.4,857.991C1062,859.19 1062,856.791 1060.8,856.791C1048.8,847.19 1036.8,837.592 1023.6,830.393C1005.6,819.592 986.399,811.194 965.996,805.194C949.195,800.394 932.394,799.194 915.598,800.394C895.2,802.792 875.996,809.995 859.2,821.996C854.399,825.597 848.399,829.195 843.598,833.996C841.199,833.996 838.797,832.796 835.199,832.796C820.801,831.597 807.597,831.597 793.199,832.796C780,833.996 766.801,837.597 753.597,842.398C722.398,854.398 697.199,874.796 680.398,903.597C670.797,920.398 663.597,938.398 658.796,957.597C655.195,973.199 652.796,989.995 651.597,1006.8L651.597,1009.19C650.398,1008 650.398,1006.8 650.398,1005.59C649.199,998.394 649.199,991.195 647.999,983.991C644.398,959.991 638.398,938.389 627.601,916.792C618,897.593 605.999,880.792 589.203,866.394C571.203,851.996 552.004,842.394 530.402,837.593C511.203,832.792 493.203,832.792 474.004,833.991C469.2,832.8 464.399,833.999 459.602,833.999L459.6,834Z" style="fill:white;fill-rule:nonzero;"/>
            <path d="M97.199,583.2C96,580.802 96,579.602 96,578.399C93.601,556.797 94.801,536.399 100.801,514.797C106.801,489.598 118.801,466.797 132,445.195C150,417.593 172.801,393.593 199.199,371.996C200.398,371.996 200.398,370.797 201.597,370.797C202.796,369.598 203.995,369.598 206.398,369.598C211.199,369.598 215.999,370.797 222,370.797C241.199,373.195 260.398,375.598 279.602,379.195C296.403,381.594 312,385.195 328.801,388.797L331.199,388.797C332.398,387.598 332.398,386.399 331.199,385.195L330,383.996C324,379.195 320.398,373.195 318,367.195C315.602,361.195 314.398,356.394 314.398,349.195C320.398,346.797 326.398,346.797 332.398,346.797C338.398,347.996 343.199,350.398 349.199,353.996C355.199,349.195 361.199,345.598 369.597,343.195C376.797,340.797 383.995,340.797 392.398,341.996C393.598,340.797 394.797,339.597 394.797,337.195C399.598,329.996 405.598,323.996 413.996,321.593C415.195,321.593 416.394,320.394 417.597,320.394L418.797,320.394C418.797,320.394 419.996,320.394 419.996,321.593C425.996,333.593 428.394,345.593 423.597,358.792C422.398,361.19 422.398,361.19 424.797,363.593C427.195,363.593 427.195,362.394 428.398,361.194C440.398,350.393 451.199,340.796 463.199,329.995C481.199,314.393 501.597,299.995 520.801,285.597C522,285.597 522,284.398 523.2,284.398C524.399,283.199 526.801,283.199 528,283.199C570,289.199 609.602,302.398 645.6,325.199C665.998,337.199 682.799,351.597 698.401,369.597C709.202,381.597 717.6,395.995 723.6,410.398C723.6,411.597 724.8,412.796 724.8,414L724.8,415.199C723.6,415.199 722.401,414 721.198,414C705.596,406.8 688.8,400.801 670.8,397.199C656.402,394.8 641.999,393.597 627.601,394.8C597.601,397.199 573.601,411.601 555.601,435.601C554.402,436.8 553.203,439.203 551.999,440.402C545.999,441.601 538.8,442.8 532.8,444.004C518.402,447.605 503.999,452.402 491.999,460.805C466.8,476.407 449.999,499.203 442.8,528.004C439.199,541.203 438,555.606 438,570.004C438,583.203 439.199,596.402 441.601,609.606L441.601,610.805C440.402,609.606 439.203,607.203 439.203,606.004C434.402,591.606 427.203,578.402 420.004,566.402C411.605,553.203 403.203,542.402 391.203,532.8C374.402,518.402 355.203,509.999 332.402,507.601C309.601,505.203 286.8,508.8 265.203,517.203C264.004,517.203 262.804,518.402 260.402,519.601C258.004,518.402 256.8,518.402 254.402,517.203C241.203,511.203 226.8,507.601 211.203,507.601C198.004,507.601 184.805,511.203 172.805,517.203C158.407,523.203 146.407,532.805 134.407,542.402C122.407,553.203 111.606,565.203 102.009,579.601C99.603,579.601 98.4,580.8 97.2,583.198L97.199,583.2Z" style="fill:white;fill-rule:nonzero;"/>
            <path d="M1098,583.2C1096.8,582.001 1095.6,580.802 1095.6,579.598C1088.4,569.997 1080,561.598 1071.6,555.598C1063.2,549.598 1054.8,544.797 1045.2,542.399C1032.01,538.798 1018.81,540.001 1006.81,546.001C1005.61,546.001 1004.41,547.2 1003.2,547.2C1002,548.399 1000.81,548.399 998.403,547.2C991.204,544.802 984.005,542.399 976.801,542.399C950.403,540.001 930,548.399 913.199,568.797C906,577.2 900,588 896.398,600C896.398,601.2 895.199,602.399 894,603.602L894,601.204C895.199,588.005 896.398,573.602 892.801,560.403C886.801,537.602 872.403,522.005 850.801,512.403C843.601,510.004 836.403,507.602 828,506.403C825.601,506.403 824.398,505.203 823.199,504.004C819.597,499.203 814.8,494.403 810,490.805C801.601,484.805 793.199,481.204 783.602,480.004C770.403,477.606 758.403,480.004 745.204,483.606C738.005,486.004 732.005,488.407 726.005,490.805C724.806,490.805 723.606,492.004 722.403,492.004C721.204,490.805 722.403,490.805 722.403,489.606C728.403,474.004 739.204,460.805 751.204,448.805C764.403,436.805 780.005,428.407 796.806,421.203C807.607,416.402 819.607,412.804 831.607,410.402L834.006,410.402C836.404,409.203 838.806,410.402 841.205,411.601C849.603,417.601 859.205,424.8 867.603,430.8C877.204,437.999 886.802,446.402 895.205,453.601C896.404,454.8 897.603,454.8 897.603,455.999C900.002,454.8 898.802,453.601 897.603,452.398C895.205,445.199 896.404,438 898.802,430.796C902.404,430.796 906.002,431.995 908.404,434.397C910.802,436.796 913.205,439.198 915.603,442.796L918.002,442.796C926.4,441.597 932.4,443.995 939.604,447.597C939.604,447.597 940.803,447.597 940.803,448.796C942.002,447.597 943.201,447.597 945.604,446.397C950.404,443.999 955.205,443.999 960.002,445.198C961.201,445.198 962.4,446.397 962.4,447.597C961.201,454.796 960.002,460.796 954.002,466.796C952.802,467.995 951.603,467.995 952.802,470.397L956.404,470.397C974.404,465.596 993.603,461.999 1011.6,459.596C1016.4,458.397 1021.21,458.397 1026,457.198C1027.2,457.198 1029.6,457.198 1030.8,458.397C1054.8,477.596 1074,499.198 1087.2,526.795C1094.4,542.397 1098,557.994 1096.8,574.795C1099.2,578.397 1099.2,580.799 1098,583.197L1098,583.2Z" style="fill:white;fill-rule:nonzero;"/>
        </g>
    </g>
</svg>
