<?xml version="1.0" encoding="UTF-8"?>
<svg width="512pt" height="512pt" version="1.1" viewBox="0 0 512 512" xmlns="http://www.w3.org/2000/svg">
 <g fill="#fff" fill-rule="evenodd">
  <path d="m322.81 162.76c5.6523 0 10.238-4.5859 10.238-10.238v-43.199c0-5.6523-4.5859-10.238-10.238-10.238-5.6562 0-10.238 4.5859-10.238 10.238v43.199c-0.003907 5.6523 4.5742 10.238 10.238 10.238z"/>
  <path d="m470.17 246.44h-43.199c-5.6523 0-10.238 4.5859-10.238 10.238 0 5.6523 4.5859 10.238 10.238 10.238h43.199c5.6523 0 10.238-4.5859 10.238-10.238 0.003906-5.6523-4.5781-10.238-10.238-10.238z"/>
  <path d="m403.71 323.09c-4-4-10.48-4-14.48 0s-4 10.48 0 14.48l30.539 30.551c2 2 4.6172 3 7.2383 3 2.6211 0 5.2383-1 7.2383-3 4-4 4-10.48 0-14.48z"/>
  <path d="m241.91 190.27c2 2 4.6172 3 7.2383 3s5.2422-1 7.2383-3c4-4 4-10.48 0-14.48l-30.539-30.539c-4-4-10.484-4-14.48 0-4 4-4 10.48 0 14.48z"/>
  <path d="m396.46 193.27c2.6211 0 5.2422-1 7.2383-3l30.547-30.547c4-4 4-10.48 0-14.48s-10.484-4-14.48 0l-30.547 30.547c-4 4-4 10.48 0 14.48 2 1.9961 4.6211 3 7.2422 3z"/>
  <path d="m322.81 194.28c-23.332 0-43.711 12.934-54.414 31.98 18.453 17.207 30.074 41.66 30.074 68.824 0 0.35938 0 0.71094-0.003906 1.0586 7.6602-2.6992 15.773-4.0898 24.086-4.0898 14.941 0 28.832 4.5508 40.371 12.328 13.598-11.457 22.289-28.59 22.289-47.703-0.011719-34.371-28.039-62.398-62.402-62.398z"/>
  <path d="m322.55 312.53c-10.168 0-19.906 2.9297-28.34 8.4492-4.4297 15.121-12.586 29.094-23.879 40.258-2 1.9805-4.5977 2.9609-7.1992 2.9609-2.6406 0-5.2773-1.0078-7.2812-3.043-3.9766-4.0195-3.9492-10.5 0.078126-14.48 13.754-13.598 21.637-32.492 21.637-51.828 0-18.621-7.0156-36.34-19.754-49.914-0.5625-0.59766-1.0156-1.2578-1.4023-1.9453-13.359-13.379-31.816-21.668-52.168-21.668-27.879 0-52.867 15.523-65.406 39.629 13.66 3.3086 25.918 11.406 34.273 23.039 3.3008 4.5859 2.2539 10.988-2.3398 14.289-1.8086 1.3008-3.8945 1.9219-5.9688 1.9219-3.1836 0-6.3242-1.4805-8.3203-4.2617-7.2773-10.133-19.066-16.168-31.539-16.168-3.0039 0-5.9648 0.37891-8.8594 1.0586-11.586 3.3789-21.453 11.203-27.305 22.148-1.6484 3.0938-4.7578 5.1211-8.2383 5.3906-27.898 2.1719-48.938 24.93-48.938 52.961 0 28.93 22.789 51.59 51.875 51.59h238.08c30.176 0 52.926-20.84 52.926-48.473-0.007813-28.625-23.301-51.914-51.93-51.914z"/>
 </g>
</svg>
