<?xml version="1.0" encoding="UTF-8"?>
<svg width="512pt" height="512pt" version="1.1" viewBox="0 0 512 512" xmlns="http://www.w3.org/2000/svg">
 <g fill="#fff">
  <path d="m375.52 141.18c-10.168 0-19.902 2.9336-28.34 8.4531-4.4297 15.109-12.578 29.086-23.879 40.266-2 1.9766-4.5977 2.9609-7.1992 2.9609-2.6406 0-5.2773-1.0156-7.2812-3.0352-3.9766-4.0195-3.9492-10.508 0.070313-14.484 13.762-13.605 21.641-32.5 21.641-51.84 0-18.609-7.0078-36.336-19.758-49.906-0.55859-0.59766-1.0195-1.2656-1.4062-1.957-13.359-13.375-31.812-21.656-52.156-21.656-27.887 0-52.879 15.52-65.414 39.629 13.664 3.3086 25.922 11.406 34.277 23.035 3.3008 4.5859 2.2539 10.988-2.3398 14.289-1.8125 1.3008-3.8945 1.9258-5.9648 1.9258-3.1836 0-6.3242-1.4805-8.3242-4.2656-7.2773-10.129-19.07-16.168-31.539-16.168-3.0469 0-6.0469 0.39453-8.9766 1.0898-11.535 3.4062-21.359 11.207-27.191 22.125-1.6445 3.0859-4.75 5.1133-8.2344 5.3867-27.898 2.1719-48.941 24.934-48.941 52.957 0 28.566 24.027 51.805 53.566 51.805h235.52c30.172 0 53.801-21.387 53.801-48.688-0.011719-28.629-23.297-51.922-51.93-51.922z"/>
  <path d="m328.12 296.17c-4.2812 0-31.121 48.512-31.121 65.691 0 17.188 13.93 31.121 31.121 31.121 17.176 0 31.121-13.93 31.121-31.121-0.003907-17.184-26.84-65.691-31.121-65.691z"/>
  <path d="m251.2 393.81c-3.0195 0-21.926 34.18-21.926 46.289 0 12.098 9.8164 21.918 21.926 21.918s21.918-9.8203 21.918-21.918c0-12.105-18.906-46.289-21.918-46.289z"/>
  <path d="m268.34 343.63c-1.5625-3.8711-5.3203-6.3984-9.4883-6.3984h-24.859l26.113-67.348c1.8164-4.668-0.019531-9.9648-4.3281-12.512-4.3164-2.5508-9.832-1.6094-13.055 2.2227l-87.926 104.5c-2.5664 3.0508-3.1289 7.3008-1.4492 10.91 1.6797 3.6094 5.3047 5.918 9.2812 5.918h20.273l-35.738 60.891c-2.5977 4.4102-1.5273 10.07 2.5 13.23 1.8633 1.4688 4.1016 2.1914 6.3281 2.1914 2.5742 0 5.1445-0.96875 7.1211-2.8828l102.85-99.527c3.0039-2.9102 3.9453-7.3398 2.375-11.199z"/>
 </g>
</svg>
