<?xml version="1.0" encoding="UTF-8" standalone="no"?>
<!DOCTYPE svg PUBLIC "-//W3C//DTD SVG 1.1//EN" "http://www.w3.org/Graphics/SVG/1.1/DTD/svg11.dtd">
<svg width="100%" height="100%" viewBox="0 0 288 512" version="1.1" xmlns="http://www.w3.org/2000/svg" xmlns:xlink="http://www.w3.org/1999/xlink" xml:space="preserve" xmlns:serif="http://www.serif.com/" style="fill-rule:evenodd;clip-rule:evenodd;stroke-linejoin:round;stroke-miterlimit:2;">
    <g transform="matrix(1,0,0,1,-301.709,-69.188)">
        <g transform="matrix(0.482295,0,0,0.482295,156.196,35.819)">
            <path d="M315.49,69.188L884.51,69.188C892.119,69.188 898.291,76.797 898.291,82.969L898.291,123.586C898.291,131.195 892.119,137.367 884.51,137.367L315.49,137.367C307.881,137.367 301.709,129.758 301.709,123.586L301.709,82.969C301.709,75.36 307.881,69.188 315.49,69.188Z" style="fill:white;fill-rule:nonzero;"/>
            <path d="M315.49,1062.6L884.51,1062.6C892.119,1062.6 898.291,1070.21 898.291,1076.38L898.291,1117C898.291,1124.61 892.119,1130.78 884.51,1130.78L315.49,1130.78C307.881,1130.78 301.709,1123.17 301.709,1117L301.709,1076.38C301.709,1068.77 307.881,1062.6 315.49,1062.6Z" style="fill:white;fill-rule:nonzero;"/>
            <path d="M670.31,627.82C666.146,626.394 662.345,624.074 659.177,621.023C653.493,615.508 650.282,607.921 650.282,600C650.282,592.079 653.493,584.492 659.177,578.977C662.345,575.926 666.146,573.606 670.31,572.18C843.14,512.391 868.9,317.93 869.36,210.47C869.38,203.419 866.587,196.654 861.606,191.665C856.622,186.677 849.856,183.88 842.805,183.892L357.185,183.892C350.142,183.892 343.388,186.693 338.415,191.681C333.442,196.665 330.657,203.427 330.677,210.47C331.146,317.93 356.904,512.39 529.727,572.18C533.891,573.606 537.692,575.926 540.86,578.977C546.543,584.492 549.754,592.079 549.754,600C549.754,607.921 546.543,615.508 540.86,621.023C537.692,624.074 533.891,626.394 529.727,627.82C356.897,687.609 331.137,882.07 330.677,989.53C330.657,996.573 333.442,1003.34 338.415,1008.32C343.388,1013.31 350.142,1016.11 357.185,1016.11L842.805,1016.11C849.848,1016.11 856.602,1013.31 861.575,1008.32C866.548,1003.33 869.333,996.573 869.313,989.53C868.845,882.07 843.086,687.61 670.303,627.82L670.31,627.82ZM459.37,437.98C455.624,432.984 453.874,426.773 454.468,420.558C455.058,414.339 457.948,408.57 462.569,404.37C467.19,400.171 473.214,397.851 479.456,397.854L720.556,397.854C726.802,397.85 732.826,400.179 737.447,404.378C742.068,408.581 744.955,414.358 745.541,420.577C746.127,426.795 744.373,433.011 740.619,438.003C710.971,478.132 667.33,505.663 618.349,515.136C606.216,517.55 593.732,517.55 581.599,515.136C532.63,505.651 489.009,478.124 459.369,438.003L459.37,437.98ZM723.28,950.39L476.74,950.39C455.646,950.39 437.342,911.249 456.232,892.874C489.841,860.155 530.716,817.757 581.252,782.364C586.783,778.497 593.322,774.02 600.002,774.63C606.729,774.02 613.268,778.497 618.752,782.364C669.236,817.755 710.158,860.247 743.722,892.894C762.66,911.269 744.378,950.41 723.261,950.41L723.28,950.39Z" style="fill:white;fill-rule:nonzero;"/>
        </g>
    </g>
</svg>
