<?xml version="1.0" encoding="UTF-8" standalone="no"?>
<!DOCTYPE svg PUBLIC "-//W3C//DTD SVG 1.1//EN" "http://www.w3.org/Graphics/SVG/1.1/DTD/svg11.dtd">
<svg width="100%" height="100%" viewBox="0 0 512 512" version="1.1" xmlns="http://www.w3.org/2000/svg" xmlns:xlink="http://www.w3.org/1999/xlink" xml:space="preserve" xmlns:serif="http://www.serif.com/" style="fill-rule:evenodd;clip-rule:evenodd;stroke-linejoin:round;stroke-miterlimit:2;">
    <g transform="matrix(1.28865,0,0,1.28865,-73.7349,-70.4809)">
        <path d="M386.54,284.51C388.321,285.162 390.2,285.498 392.095,285.502C396.837,285.494 401.333,283.373 404.349,279.709C429.501,249.662 449.15,194.229 454.501,138.499C455.493,127.698 451.899,116.976 444.598,108.956C437.091,100.714 426.461,96.011 415.317,96.003C404.551,96.015 394.27,100.468 386.891,108.308C383.52,102.179 378.571,97.066 372.559,93.496C366.544,89.926 359.684,88.031 352.692,88.004L351.317,88.004C340.551,88.016 330.27,92.469 322.891,100.309C319.52,94.18 314.571,89.067 308.559,85.497C302.544,81.927 295.684,80.032 288.692,80.005L287.317,80.005C274.973,80.04 263.364,85.895 256.005,95.806C248.646,85.896 237.036,80.04 224.693,80.005L223.318,80.005C216.326,80.032 209.466,81.927 203.451,85.497C197.44,89.067 192.49,94.181 189.119,100.309C181.741,92.469 171.459,88.016 160.693,88.004L159.318,88.004C152.326,88.031 145.466,89.926 139.451,93.496C133.44,97.066 128.49,102.18 125.119,108.308C117.741,100.468 107.459,96.015 96.693,96.003C85.548,96.011 74.92,100.714 67.412,108.956C60.112,116.976 56.517,127.698 57.51,138.499C62.83,194.233 82.51,249.699 107.655,279.709C110.675,283.369 115.171,285.494 119.917,285.502C121.812,285.498 123.691,285.162 125.472,284.51C128.573,283.408 131.253,281.369 133.14,278.674C135.03,275.979 136.03,272.76 136.007,269.471L136.007,179.549C140.851,182.428 146.374,183.967 152.007,183.998L168.007,183.998C179.277,183.963 189.691,177.99 195.405,168.279C201.132,173.228 208.436,175.967 216.007,175.998L232.007,175.998C241.234,175.971 249.991,171.936 256.007,164.943C262.023,171.935 270.78,175.97 280.007,175.998L296.007,175.998C303.577,175.967 310.882,173.229 316.609,168.279C322.324,177.99 332.738,183.963 344.007,183.998L360.007,183.998C365.64,183.967 371.163,182.428 376.007,179.549L376.007,269.471C375.984,272.76 376.984,275.979 378.874,278.674C380.761,281.369 383.441,283.409 386.542,284.51L386.54,284.51ZM392.005,152L392.005,135.312C392.013,129.132 394.474,123.207 398.841,118.835C403.212,114.468 409.138,112.007 415.318,111.999C421.958,112.007 428.291,114.808 432.767,119.718C437.071,124.382 439.185,130.659 438.571,136.976C433.607,188.894 414.934,242.136 392.005,269.596L392.005,152ZM120.005,152L120.005,269.47L119.927,269.47C97.075,242.134 78.404,188.892 73.439,136.97C72.814,130.658 74.915,124.38 79.204,119.712C83.689,114.794 90.036,111.989 96.692,111.993C102.872,112.001 108.797,114.462 113.169,118.829C117.536,123.2 119.997,129.126 120.005,135.306L120.005,152ZM184.005,144L184.005,152C184.005,156.242 182.317,160.313 179.317,163.312C176.317,166.312 172.247,168 168.005,168L152.005,168C147.763,168 143.693,166.312 140.693,163.312C137.694,160.312 136.006,156.242 136.006,152L136.006,127.312C136.014,121.132 138.475,115.207 142.842,110.835C147.213,106.468 153.139,104.007 159.319,103.999L160.694,103.999C166.873,104.007 172.799,106.468 177.171,110.835C181.538,115.206 183.999,121.132 184.007,127.312L184.005,144ZM248.005,144C248.005,148.242 246.317,152.313 243.317,155.312C240.317,158.312 236.247,160 232.005,160L216.005,160C211.763,160 207.693,158.312 204.693,155.312C201.694,152.312 200.006,148.242 200.006,144L200.006,119.312C200.014,113.132 202.475,107.207 206.842,102.835C211.213,98.468 217.139,96.007 223.319,95.999L224.694,95.999C230.873,96.007 236.799,98.468 241.171,102.835C245.538,107.206 247.999,113.132 248.007,119.312L248.005,144ZM312.005,127.312L312.005,144C312.005,148.242 310.317,152.313 307.317,155.312C304.317,158.312 300.247,160 296.005,160L280.005,160C275.763,160 271.693,158.312 268.693,155.312C265.694,152.312 264.006,148.242 264.006,144L264.006,119.312C264.014,113.132 266.475,107.207 270.842,102.835C275.213,98.468 281.139,96.007 287.319,95.999L288.694,95.999C294.873,96.007 300.799,98.468 305.171,102.835C309.538,107.206 311.999,113.132 312.007,119.312L312.005,127.312ZM360.007,168L344.005,168C339.763,168 335.692,166.313 332.693,163.313C329.693,160.313 328.005,156.242 328.005,152L328.005,127.312C328.013,121.133 330.474,115.207 334.841,110.835C339.212,106.468 345.138,104.007 351.318,104L352.693,104C358.873,104.007 364.798,106.468 369.17,110.835C373.537,115.207 375.998,121.132 376.006,127.312L376.006,152C376.006,156.243 374.319,160.313 371.319,163.313C368.319,166.312 364.248,168 360.007,168ZM168.005,392C168.005,357.602 135.63,316.727 134.251,315C132.681,313.188 130.403,312.148 128.005,312.148C125.606,312.148 123.329,313.188 121.759,315C120.38,316.727 88.005,357.602 88.005,392C88.005,411.336 98.509,432 128.005,432C157.501,432 168.005,411.336 168.005,392L168.005,392ZM104.005,392C104.005,371.527 119.157,346.48 128.005,333.602C136.853,346.489 152.005,371.512 152.005,392C152.821,398.582 150.56,405.172 145.868,409.863C141.177,414.554 134.587,416.816 128.005,416C121.423,416.816 114.833,414.554 110.142,409.863C105.451,405.172 103.189,398.582 104.005,392L104.005,392Z" style="fill:white;fill-rule:nonzero;"/>
    </g>
</svg>
