<?xml version="1.0" encoding="UTF-8" standalone="no"?>
<!DOCTYPE svg PUBLIC "-//W3C//DTD SVG 1.1//EN" "http://www.w3.org/Graphics/SVG/1.1/DTD/svg11.dtd">
<svg width="100%" height="100%" viewBox="0 0 512 508" version="1.1" xmlns="http://www.w3.org/2000/svg" xmlns:xlink="http://www.w3.org/1999/xlink" xml:space="preserve" xmlns:serif="http://www.serif.com/" style="fill-rule:evenodd;clip-rule:evenodd;stroke-linejoin:round;stroke-miterlimit:2;">
    <g transform="matrix(1,0,0,1,-71.2688,-76.0493)">
        <g transform="matrix(0.484178,0,0,0.484178,36.762,39.2279)">
            <path d="M377.65,79.031C384.025,100.758 398.509,132.937 430.619,151.523C431.912,152.296 432.713,153.687 432.736,155.195C432.76,156.703 432.006,158.113 430.736,158.929C405.256,173.656 387.931,199.249 383.72,228.374C383.58,230.183 382.154,231.624 380.349,231.792C378.544,231.96 376.88,230.804 376.408,229.054C368.673,207.351 352.314,174.726 321.658,162.515C320.142,161.863 319.126,160.409 319.033,158.761C318.939,157.117 319.783,155.558 321.212,154.734C336.095,147.14 361.712,127.382 370.29,79.406C370.474,77.574 371.97,76.148 373.81,76.054C375.65,75.96 377.283,77.226 377.65,79.031L377.65,79.031Z" style="fill:white;fill-rule:nonzero;"/>
            <path d="M831.59,98.156C836.863,120.164 849.707,152.929 880.809,173.156C882.051,173.996 882.774,175.418 882.723,176.918C882.672,178.418 881.852,179.785 880.551,180.539C854.371,193.996 835.781,218.687 830.09,247.57C829.825,249.335 828.344,250.668 826.559,250.742C824.774,250.816 823.188,249.613 822.778,247.875C816.122,225.82 801.426,192.398 771.426,178.664C769.941,177.933 769.004,176.425 769.004,174.773C769.004,173.121 769.941,171.613 771.426,170.882C786.66,164.062 813.285,145.64 824.207,98.155C824.461,96.311 826.039,94.94 827.898,94.94C829.758,94.94 831.336,96.312 831.59,98.155L831.59,98.156Z" style="fill:white;fill-rule:nonzero;"/>
            <path d="M552.42,835.55L582.397,881.089C583.721,883.093 586.092,884.144 588.467,883.78C590.842,883.421 592.791,881.71 593.459,879.401L704.79,492.051L730.195,394.879C730.793,392.684 729.945,390.348 728.082,389.044C726.215,387.743 723.731,387.751 721.875,389.067L651.094,439.669C646.856,442.7 643.833,447.134 642.563,452.185C630.118,501.568 562.501,770.255 549.868,820.455C548.559,825.623 549.489,831.1 552.423,835.549L552.42,835.55Z" style="fill:white;fill-rule:nonzero;"/>
            <path d="M732.47,313.76L648.587,157.03C647.321,154.639 644.568,153.448 641.958,154.155C639.349,154.862 637.575,157.28 637.689,159.983L645.095,367.963C645.228,371.604 647.353,374.881 650.622,376.49C653.892,378.1 657.782,377.787 660.751,375.674L729.493,326.455C733.524,323.56 734.798,318.135 732.47,313.752L732.47,313.76Z" style="fill:white;fill-rule:nonzero;"/>
            <path d="M431.84,652.38L503.91,761.9C505.554,764.365 508.496,765.627 511.41,765.119C514.328,764.611 516.672,762.431 517.387,759.556L593.793,455.316C594.664,451.832 594.32,448.156 592.808,444.898C591.3,441.637 588.718,438.996 585.496,437.41L433.596,362.668C430.904,361.34 427.713,361.512 425.182,363.129C422.65,364.742 421.146,367.566 421.221,370.566L427.572,638.786C427.693,643.626 429.174,648.337 431.838,652.38L431.84,652.38Z" style="fill:white;fill-rule:nonzero;"/>
            <path d="M257.98,1123.9L341.769,1123.9C344.226,1123.9 346.539,1122.74 347.988,1120.75C349.441,1118.77 349.855,1116.21 349.105,1113.87L309.636,990.799C308.632,987.662 305.742,985.518 302.452,985.459C299.159,985.4 296.195,987.443 295.081,990.541L250.784,1113.61C249.941,1115.96 250.288,1118.57 251.718,1120.62C253.148,1122.67 255.483,1123.89 257.98,1123.9Z" style="fill:white;fill-rule:nonzero;"/>
            <path d="M1063.4,584.72L1107.28,440.91C1110.13,431.527 1109.57,421.437 1105.68,412.433L1006.07,182.093C1004.56,178.62 1001.82,175.831 998.369,174.273C994.92,172.714 991.014,172.495 987.412,173.659C983.811,174.824 980.772,177.288 978.885,180.57L849.815,405.76C847.655,409.537 846.893,413.955 847.659,418.24C848.428,422.525 850.674,426.4 854.01,429.197L1045.8,589.887C1048.62,592.258 1052.44,593.059 1055.98,592.023C1059.52,590.988 1062.31,588.25 1063.4,584.73L1063.4,584.72Z" style="fill:white;fill-rule:nonzero;"/>
            <path d="M412.76,708C410.807,705.039 407.354,703.434 403.834,703.852C400.311,704.27 397.326,706.637 396.119,709.969L332.369,889.029C330.143,895.271 330.026,902.072 332.041,908.388L398.439,1115.23C400.111,1120.41 404.943,1123.93 410.392,1123.92L513.802,1123.92C519.388,1123.91 524.298,1120.22 525.849,1114.85L570.122,960.803C571.888,954.674 570.888,948.08 567.38,942.756L412.76,708Z" style="fill:white;fill-rule:nonzero;"/>
            <path d="M206.25,443.37L323.44,357.659C327.381,354.788 330.081,350.53 330.995,345.741C331.909,340.952 330.967,335.995 328.362,331.878L229.221,174.848C226.432,170.418 221.565,167.731 216.33,167.731C211.095,167.731 206.228,170.418 203.439,174.848L89.299,359.228C86.818,363.24 85.983,368.056 86.971,372.669C87.959,377.278 90.69,381.333 94.596,383.978L182.815,443.767C186.284,446.126 190.401,447.353 194.596,447.283C198.791,447.212 202.865,445.845 206.252,443.368L206.25,443.37Z" style="fill:white;fill-rule:nonzero;"/>
            <path d="M202.57,1110.1L342.82,720.64C346.101,711.558 347.883,702.003 348.093,692.351L353.906,424.371C353.988,420.433 352.593,416.609 350,413.648C347.402,410.687 343.797,408.804 339.883,408.367C335.969,407.933 332.035,408.976 328.852,411.293L227.902,485.145C220.613,490.473 215.714,498.454 214.261,507.364L135.042,995.614C132.393,1012 131.905,1028.65 133.589,1045.16L139.635,1104.18C140.182,1109.59 142.717,1114.61 146.757,1118.25C150.792,1121.9 156.038,1123.91 161.48,1123.91L182.925,1123.91C187.221,1123.91 191.417,1122.59 194.933,1120.12C198.448,1117.65 201.116,1114.15 202.565,1110.11L202.57,1110.1Z" style="fill:white;fill-rule:nonzero;"/>
            <path d="M71.297,438.89L107.109,861.84C107.394,864.758 109.808,867.004 112.742,867.082C115.671,867.16 118.199,865.043 118.64,862.145L167.507,507.515C168.183,502.612 167.476,497.616 165.46,493.093C163.449,488.569 160.21,484.702 156.117,481.921L82.758,432.163C80.406,430.569 77.351,430.471 74.902,431.909C72.457,433.346 71.05,436.061 71.297,438.889L71.297,438.89Z" style="fill:white;fill-rule:nonzero;"/>
            <path d="M971.16,1123.9L1106.77,1123.9C1112.6,1123.91 1118.18,1121.6 1122.31,1117.47C1126.43,1113.35 1128.74,1107.77 1128.73,1101.94L1128.73,579.139C1128.75,575.487 1126.08,572.378 1122.47,571.842C1118.86,571.307 1115.41,573.506 1114.36,577.006L954.404,1101.26C952.775,1106.57 953.763,1112.34 957.072,1116.8C960.376,1121.27 965.607,1123.9 971.162,1123.9L971.16,1123.9Z" style="fill:white;fill-rule:nonzero;"/>
            <path d="M855.47,491.25C853.025,489.199 849.583,488.82 846.747,490.281C843.911,491.746 842.232,494.77 842.486,497.953L873.283,902.573C873.47,905.136 873.798,907.686 874.267,910.214L901.853,1062.79C902.498,1066.39 905.529,1069.09 909.181,1069.31C912.833,1069.52 916.162,1067.21 917.228,1063.71L1038.45,666.368C1040.03,661.204 1040.05,655.688 1038.51,650.513C1036.97,645.333 1033.94,640.724 1029.8,637.259L855.47,491.25Z" style="fill:white;fill-rule:nonzero;"/>
            <path d="M798.75,772.15L726.094,641.88C724.332,638.681 720.813,636.861 717.184,637.278C713.555,637.696 710.539,640.263 709.547,643.778L574.827,1112.53C574.046,1115.25 574.593,1118.18 576.296,1120.44C577.999,1122.7 580.667,1124.04 583.499,1124.04L854.809,1124.04C857.481,1124.04 860.016,1122.85 861.731,1120.8C863.446,1118.76 864.165,1116.05 863.692,1113.42L805.356,790.619C804.184,784.143 801.95,777.9 798.746,772.15L798.75,772.15Z" style="fill:white;fill-rule:nonzero;"/>
            <path d="M598.8,375.87L588.909,97.43C588.831,94.899 587.12,92.715 584.683,92.032C582.245,91.352 579.648,92.332 578.269,94.454C549.3,138.47 465.929,267.184 442.749,303.044C441.206,305.419 440.753,308.337 441.507,311.067C442.257,313.794 444.143,316.071 446.686,317.317L584.526,385.286C587.682,386.837 591.425,386.598 594.362,384.661C597.296,382.723 598.987,379.376 598.8,375.864L598.8,375.87Z" style="fill:white;fill-rule:nonzero;"/>
        </g>
    </g>
</svg>
