<?xml version="1.0" encoding="UTF-8" standalone="no"?>
<!DOCTYPE svg PUBLIC "-//W3C//DTD SVG 1.1//EN" "http://www.w3.org/Graphics/SVG/1.1/DTD/svg11.dtd">
<svg width="100%" height="100%" viewBox="0 0 512 491" version="1.1" xmlns="http://www.w3.org/2000/svg" xmlns:xlink="http://www.w3.org/1999/xlink" xml:space="preserve" xmlns:serif="http://www.serif.com/" style="fill-rule:evenodd;clip-rule:evenodd;stroke-linejoin:round;stroke-miterlimit:2;">
    <g transform="matrix(1,0,0,1,-46.4016,-69.2608)">
        <g transform="matrix(0.462478,0,0,0.462478,24.9419,37.2292)">
            <path d="M1142.8,1072.2C1094.5,1026.87 1038.46,949.2 1006.96,820.29C1005.93,816.353 1003.33,813.013 999.765,811.048C996.202,809.087 991.987,808.673 988.113,809.903C984.234,811.138 981.031,813.911 979.257,817.571L961.773,855.071C958.023,862.739 951.378,868.602 943.3,871.368C935.226,874.134 926.382,873.575 918.718,869.814C912.691,866.943 907.757,862.189 904.667,856.271C901.577,850.353 900.495,843.587 901.585,837.001C910.538,784.712 943.983,649.731 1063.07,501.381C1082,477.803 1055.57,445.131 1027.58,457.553C933.292,499.295 794.801,602.023 715.721,853.643C707.518,879.729 669.713,880.127 660.994,854.229C653.986,833.596 648.424,812.499 644.353,791.088C640.533,770.44 611.541,766.971 602.705,786.048C596.752,798.728 590.635,812.907 584.752,828.236C572.236,861.048 523.814,858.517 514.65,824.768C508.908,803.674 506.424,775.549 510.595,738.893C510.595,738.893 521.681,606.893 550.017,489.593C555.103,468.499 525.901,456.781 514.158,475.226C502.416,493.671 490.041,514.718 478.486,537.359C458.119,577.203 397.181,570.007 387.338,526.461C381.202,500.109 381.331,472.691 387.713,446.399C408.807,360.172 429.525,267.009 542.843,109.859C559.249,87.101 532.062,58.765 507.687,73.179C304.647,192.949 -102.673,519.449 102.737,1130.68L1118.44,1130.68C1149.84,1130.68 1165.36,1093.48 1142.77,1072.25L1142.8,1072.2Z" style="fill:white;fill-rule:nonzero;"/>
            <path d="M580.69,397.24C588.967,397.017 596.823,393.533 602.545,387.549C608.268,381.564 611.397,373.561 611.248,365.279C611.096,356.997 607.686,349.111 601.748,343.338C595.815,337.56 587.838,334.365 579.557,334.439C571.276,334.517 563.362,337.861 557.534,343.744C551.706,349.627 548.436,357.576 548.44,365.857C548.557,374.294 552.022,382.341 558.069,388.224C564.116,394.111 572.253,397.353 580.69,397.24L580.69,397.24Z" style="fill:white;fill-rule:nonzero;"/>
        </g>
    </g>
</svg>
