<?xml version="1.0" encoding="UTF-8" standalone="no"?>
<!DOCTYPE svg PUBLIC "-//W3C//DTD SVG 1.1//EN" "http://www.w3.org/Graphics/SVG/1.1/DTD/svg11.dtd">
<svg width="100%" height="100%" viewBox="0 0 512 512" version="1.1" xmlns="http://www.w3.org/2000/svg" xmlns:xlink="http://www.w3.org/1999/xlink" xml:space="preserve" xmlns:serif="http://www.serif.com/" style="fill-rule:evenodd;clip-rule:evenodd;stroke-linejoin:round;stroke-miterlimit:2;">
    <g transform="matrix(1.33333,0,0,1.33333,-85.333,-85.3268)">
        <path d="M241.12,238.96C250.671,235.132 261.327,235.132 270.878,238.96C276.128,234.812 279.405,228.663 279.925,221.995C280.444,215.323 278.159,208.741 273.616,203.831C269.073,198.921 262.686,196.128 255.999,196.128C249.312,196.128 242.925,198.921 238.382,203.831C233.839,208.741 231.554,215.323 232.074,221.995C232.593,228.663 235.871,234.811 241.121,238.96L241.12,238.96Z" style="fill:white;fill-rule:nonzero;"/>
        <path d="M256,244.08C247.539,244.096 239.426,247.463 233.441,253.443C227.492,259.49 224.109,267.599 224,276.08L224,316.08C224,327.514 230.097,338.08 240,343.795C249.902,349.51 262.098,349.51 272,343.795C281.902,338.08 288,327.514 288,316.08L288,276.08C288.035,271.573 287.05,267.116 285.121,263.041C282.609,257.412 278.523,252.627 273.359,249.264C268.191,245.901 262.164,244.104 256,244.081L256,244.08Z" style="fill:white;fill-rule:nonzero;"/>
        <path d="M448,164.16C366.559,159.121 307.44,232 290.24,255.519C294.029,261.707 296.021,268.824 296.002,276.078L296.002,287.437C318.482,256.558 377.604,256.398 378.881,256.398C374.4,208.558 448.002,164.16 448.002,164.16L448,164.16Z" style="fill:white;fill-rule:nonzero;"/>
        <path d="M64,164.16C64,164.16 137.602,208.558 133.121,256.398C134.402,256.398 193.519,256.398 216,287.437L216,276.078C215.98,268.824 217.973,261.707 221.762,255.519C204.559,231.999 145.442,159.121 64.002,164.16L64,164.16Z" style="fill:white;fill-rule:nonzero;"/>
    </g>
</svg>
