<?xml version="1.0" encoding="UTF-8" standalone="no"?>
<!DOCTYPE svg PUBLIC "-//W3C//DTD SVG 1.1//EN" "http://www.w3.org/Graphics/SVG/1.1/DTD/svg11.dtd">
<svg width="100%" height="100%" viewBox="0 0 512 506" version="1.1" xmlns="http://www.w3.org/2000/svg" xmlns:xlink="http://www.w3.org/1999/xlink" xml:space="preserve" xmlns:serif="http://www.serif.com/" style="fill-rule:evenodd;clip-rule:evenodd;stroke-linejoin:round;stroke-miterlimit:2;">
    <g transform="matrix(1,0,0,1,-70.0493,-76.3223)">
        <g transform="matrix(0.48314,0,0,0.48314,36.2057,39.4479)">
            <path d="M1129.5,541.69C1124.93,514.01 1113.89,451.174 1099.94,399.42C1098.99,395.92 1095.71,393.568 1092.09,393.791C1088.46,394.014 1085.49,396.744 1084.97,400.334C1080.87,429.607 1074.56,471.42 1068.12,502.214C1064.64,518.796 1054.01,532.991 1039.08,541.003C1018.83,551.925 988.03,567.112 959.389,575.62C956.022,576.597 952.389,575.796 949.745,573.491C947.1,571.19 945.807,567.698 946.311,564.23C954.655,506.925 985.358,301.73 1015.15,177.51C1016.27,172.65 1013.88,167.662 1009.38,165.498C1004.89,163.333 999.495,164.576 996.398,168.486C982.617,186.158 966.515,206.244 951.375,222.65C946.886,227.517 941.008,230.888 934.539,232.298C928.07,233.712 921.32,233.099 915.211,230.548L550.731,78.768C543.516,75.76 535.45,75.518 528.067,78.089C505.051,86.128 449.95,103.87 393.327,109.659C387.991,110.174 382.987,112.479 379.124,116.198L322.429,171.089C317.257,176.1 314.577,183.151 315.116,190.331C316.147,204.019 318.233,229.097 321.538,260.269C322.034,265.007 325.773,268.753 330.507,269.261C335.241,269.769 339.687,266.901 341.179,262.378C355.499,218.526 386.952,167.761 455.719,168.628C460.149,168.667 464.207,171.116 466.309,175.019C468.407,178.925 468.211,183.659 465.797,187.378C414.914,264.066 205.807,578.898 120.797,704.058C117.922,708.308 116.473,713.358 116.657,718.488C116.844,723.617 118.653,728.55 121.828,732.582L121.828,732.722C132.207,745.738 138.707,761.413 140.578,777.956C142.258,792.905 142.203,807.995 140.414,822.933C138.098,839.355 132.86,855.23 124.945,869.808C117.914,883.167 107.297,915.511 135.515,960.206C160.945,1000.45 212.859,1008.51 243.845,1009.43C264.56,1009.96 284.927,1014.9 303.587,1023.91L304.572,1024.4C329.541,1036.75 350.416,1056.05 364.689,1079.97C370.939,1090.52 377.095,1101.04 383.158,1111.54C385.619,1115.83 389.337,1119.25 393.81,1121.35C398.286,1123.44 403.298,1124.11 408.165,1123.26C450.353,1115.92 563.395,1097.27 636.965,1093.92C644.484,1093.57 651.965,1092.67 659.348,1091.2C713.871,1080.57 769.078,1073.83 824.558,1071.04C827.054,1070.88 829.019,1068.84 829.093,1066.34C829.167,1063.84 827.324,1061.69 824.839,1061.38C715.079,1050.35 532.619,1030.31 445.429,1011.07C440.355,1010.01 436.273,1006.25 434.804,1001.29C433.335,996.319 434.714,990.944 438.398,987.3C458.882,966.323 500.882,936.347 566.998,947.855C566.998,947.855 601.24,953.738 630.068,991.566C633.439,996.097 639.318,997.98 644.693,996.253C660.631,991.097 694.638,980.058 724.943,970.331C726.986,969.675 728.224,967.601 727.834,965.492C727.439,963.378 725.54,961.89 723.396,962.011C697.99,963.417 665.88,963.324 646.24,956.41C646.24,956.41 598.92,913.965 572.646,883.238C569.752,879.847 565.845,877.48 561.501,876.488C557.153,875.495 552.607,875.933 548.528,877.73C517.098,891.464 439.188,915.699 374.228,855.722C312.564,798.816 276.564,702.202 261.958,655.522C259.454,647.494 259.228,638.932 261.294,630.78C263.364,622.631 267.649,615.214 273.677,609.35C301.239,582.42 353.365,533.952 397.287,507.28C400.842,505.104 405.08,504.327 409.174,505.1C413.272,505.87 416.936,508.131 419.459,511.448C421.982,514.764 423.186,518.901 422.834,523.053C420.865,547.733 414.725,583.545 396.701,612.397C393.428,617.573 388.455,621.451 382.639,623.366C367.479,628.432 351.748,631.604 335.811,632.811C334.538,632.905 333.483,633.838 333.237,635.092C332.991,636.346 333.612,637.608 334.756,638.178C356.631,648.744 379.92,656.084 403.897,659.975C413.823,661.483 423.952,659.135 432.202,653.413C440.452,647.69 446.198,639.026 448.264,629.202C461.342,566.483 502.17,427.032 615.534,358.242C626.483,351.66 639.897,350.636 651.722,355.476C675.464,365.085 717.534,383.156 748.097,402.14C759.605,409.331 767.128,421.449 768.464,434.952C771.839,468.561 777.535,538.332 774.37,600.632C774.109,605.538 771.245,609.929 766.863,612.148C762.48,614.371 757.245,614.082 753.136,611.39C730.73,596.788 692.198,573.187 654.042,557.484C650.389,555.933 646.171,556.648 643.237,559.32C640.303,561.992 639.194,566.125 640.401,569.906C650.127,600.047 666.557,658.968 666.182,712.406C666.111,723.844 670.58,734.844 678.604,742.992C702.042,766.64 751.26,816 782.664,844.052C785.621,846.708 789.511,848.091 793.48,847.896C797.452,847.705 801.187,845.951 803.875,843.021C844.375,799.052 1000.99,633.001 1119.37,563.131C1123.04,561.022 1125.99,557.834 1127.8,554.002C1129.61,550.166 1130.2,545.865 1129.49,541.686L1129.5,541.69ZM271.83,948.59C273.143,950.879 272.924,953.738 271.283,955.805C269.639,957.871 266.904,958.727 264.377,957.965C246.295,952.336 227.627,948.821 208.736,947.488C194.998,946.57 182.377,939.597 174.283,928.457C167.76,919.656 165.572,908.379 168.33,897.777C174.916,871.41 191.768,855.894 195.541,835.879C195.838,834.125 197.197,832.738 198.947,832.402C200.697,832.07 202.467,832.856 203.392,834.379L271.83,948.59Z" style="fill:white;fill-rule:nonzero;"/>
            <path d="M1095.9,293.72C1096.59,307.294 1089.32,318.697 1079.66,319.185C1070.01,319.673 1061.62,309.068 1060.93,295.494C1060.25,281.92 1067.51,270.517 1077.17,270.029C1086.83,269.541 1095.21,280.146 1095.9,293.72" style="fill:white;fill-rule:nonzero;"/>
            <path d="M845.67,978.16C870.072,986.953 893.303,998.715 914.834,1013.18C917.932,1015.32 921.658,1016.35 925.416,1016.12C929.174,1015.89 932.744,1014.39 935.553,1011.89C957.819,991.871 1014.49,943.801 1070.62,919.52C1073.03,918.493 1074.37,915.914 1073.85,913.356C1073.33,910.797 1071.08,908.957 1068.47,908.95C1044.7,909.067 1012.03,909.77 986.436,912.465C981.826,912.95 977.533,915.032 974.295,918.348C962.74,930.067 932.483,958.918 910.639,960.91C889.526,959.91 868.369,960.562 847.358,962.855C843.733,963.324 840.897,966.211 840.494,969.844C840.096,973.476 842.233,976.914 845.67,978.16L845.67,978.16Z" style="fill:white;fill-rule:nonzero;"/>
            <path d="M393.09,738.66C390.129,747.043 389.746,756.121 391.988,764.722C393.883,771.066 397.563,776.734 402.586,781.046C407.61,785.358 413.766,788.136 420.324,789.05C449.406,793.503 477.512,802.913 503.41,816.87C505.567,818.085 508.274,817.678 509.985,815.889C511.692,814.096 511.969,811.374 510.653,809.276L489.559,775.432C485.539,769.073 479.368,764.373 472.168,762.19C463.894,759.612 453.16,753.917 449.574,741.401C449.574,741.401 443.269,718.971 413.035,722.651C408.535,723.159 404.273,724.932 400.746,727.768C397.214,730.6 394.558,734.378 393.089,738.659L393.09,738.66Z" style="fill:white;fill-rule:nonzero;"/>
            <path d="M270.35,406.71L103.94,640.29C101.897,643.099 98.471,644.548 95.03,644.06C91.592,643.567 88.71,641.216 87.534,637.946L71.948,593.415C70.698,589.845 70.053,586.091 70.049,582.306L70.049,482.814C70.069,479.763 71.999,477.049 74.874,476.029C77.752,475.013 80.959,475.908 82.893,478.267C92.901,490.314 108.674,503.673 129.768,504.564C144.291,504.963 158.323,499.291 168.487,488.908L259.893,397.97C262.307,395.084 266.604,394.701 269.491,397.115C272.377,399.529 272.76,403.826 270.346,406.713L270.35,406.71Z" style="fill:white;fill-rule:nonzero;"/>
        </g>
    </g>
</svg>
