<?xml version="1.0" encoding="UTF-8"?>
<svg width="512pt" height="512pt" version="1.1" viewBox="0 0 512 512" xmlns="http://www.w3.org/2000/svg">
 <path d="m141.8 195.21c0.875 0.15234 1.7422 0.33984 2.6016 0.57031 6.7383 1.8086 12.863 6.0547 16.934 12.367l128.09-28.047c0.16406-1.1484 0.39453-2.2852 0.69531-3.4062 1.0625-3.9961 2.9922-7.7773 5.6953-11.031l-47.379-82.062c-4.1719 0.70703-8.4062 0.48828-12.391-0.58203-7.1914-1.918-13.672-6.6328-17.711-13.637-0.32031-0.55469-0.61719-1.125-0.90234-1.6914l-81.801 8.207c-1.8789 7.0742-6.4023 13.418-13.094 17.469l19.262 101.84zm-56.852-24.008c4.9453-2.7148 11.168-0.90625 13.883 4.0391 2.7148 4.9453 0.90625 11.168-4.125 13.934-5.0391 2.7617-11.262 0.95703-13.977-3.9922-2.7148-4.9453-0.90625-11.168 4.2148-13.98zm-23.477 47.738c4.8555-2.8477 11.109-1.2148 13.957 3.6406s1.2148 11.109-3.7266 14.012c-4.9453 2.8984-11.199 1.2656-14.047-3.5938-2.8477-4.8555-1.2148-11.109 3.8164-14.059zm242.04-173.93c4.8555-2.8672 11.133-1.2578 14 3.5977 2.8672 4.8555 1.2578 11.133-3.6836 14.047-4.9336 2.9141-11.211 1.3047-14.078-3.5508-2.8672-4.8555-1.2578-11.133 3.7617-14.098zm80.059 89.762c4.9453-2.7148 11.168-0.90625 13.883 4.0391 2.7148 4.9453 0.90625 11.168-4.1289 13.934-5.0312 2.7617-11.254 0.95703-13.969-3.9922-2.7148-4.9453-0.90625-11.168 4.2148-13.98zm-41.066-5.6719c4.9453-2.7148 11.168-0.90625 13.883 4.0391 2.7148 4.9453 0.90625 11.168-4.1289 13.934-5.0312 2.7617-11.254 0.95703-13.969-3.9922-2.7148-4.9453-0.90625-11.168 4.2148-13.98zm20.512 193.1c4.8125-2.9141 11.086-1.3711 14 3.4414 2.9141 4.8125 1.3711 11.086-3.5273 14.047-4.8984 2.9688-11.168 1.4258-14.086-3.3867-2.9141-4.8125-1.3711-11.086 3.6094-14.102zm-305.82-236.61c4.9453-2.7148 11.168-0.90625 13.883 4.0391 2.7148 4.9453 0.90625 11.168-4.125 13.934-5.0391 2.7617-11.262 0.95703-13.977-3.9922-2.7148-4.9453-0.90625-11.168 4.2148-13.98zm295.46 304.45c-5.6523 0-10.242-4.5898-10.242-10.242 0-5.6523 4.5898-10.242 10.242-10.242h5.2734v-5.2734c0-5.6523 4.5898-10.242 10.242-10.242 5.6523 0 10.242 4.5898 10.242 10.242v5.2734h5.2734c5.6523 0 10.242 4.5898 10.242 10.242 0 5.6523-4.5898 10.242-10.242 10.242h-5.2734v5.2734c0 5.6523-4.5898 10.242-10.242 10.242-5.6523 0-10.242-4.5898-10.242-10.242v-5.2734zm-8.1328-192.92 75.223 79.668c6.1328-2.6016 12.785-2.957 19.156-1.2383 7.2812 2.1094 13.527 6.7422 17.434 13.504l0.39844 0.76953c3.6875 6.8164 4.3906 14.461 2.5352 21.395-1.9219 7.2031-6.6211 13.684-13.594 17.719l-0.72656 0.38281c-2.4688 1.3359-5.0508 2.2852-7.668 2.8594l-14.379 99.422c4.2031 2.3086 7.8984 5.6914 10.625 10.02 0.46484 0.62891 0.85156 1.293 1.1562 1.9961 3.5547 6.7305 4.2266 14.273 2.3945 21.129-1.9219 7.2031-6.6211 13.684-13.594 17.719l-0.72656 0.38281c-6.8164 3.6953-14.488 4.4141-21.43 2.5508-7.1914-1.9219-13.68-6.6406-17.719-13.645-4.0273-6.9805-4.8555-14.926-2.9375-22.109 1.8633-6.9531 6.3086-13.242 12.887-17.297 0.55469-0.39453 1.1484-0.71875 1.7578-0.98438 2.3711-1.2461 4.8438-2.1328 7.3477-2.6836l14.375-99.406c-4.5312-2.4844-8.4609-6.2031-11.234-11l-0.40625-0.77344c-3.6758-6.8047-4.3828-14.465-2.5273-21.391 0.48828-1.832 1.1562-3.6172 1.9961-5.3203l-75.215-79.66c-6.1445 2.6055-12.785 2.957-18.887 1.3242-6.7422-1.8086-12.863-6.0586-16.926-12.367l-128.09 28.047c-0.16406 1.1484-0.39844 2.2852-0.70312 3.4062-1.9219 7.2031-6.6211 13.684-13.59 17.711l-0.81641 0.42188c-6.793 3.6602-14.43 4.3711-21.348 2.5156-7.1953-1.9297-13.684-6.6211-17.719-13.594l-0.41016-0.78516c-3.6719-6.8086-4.3789-14.445-2.5234-21.379 1.8789-7.0195 6.3906-13.363 13.086-17.41l-19.262-101.84c-0.875-0.15234-1.7422-0.33984-2.6016-0.57031-7.1836-1.9297-13.672-6.6328-17.777-13.758-3.9805-7.0508-4.7695-14.914-2.8711-22 1.9297-7.2031 6.6172-13.684 13.602-17.719l0.76953-0.39844c6.8047-3.6836 14.453-4.3906 21.391-2.5391 7.1836 1.9297 13.672 6.6328 17.785 13.762l0.83594 1.5742 81.789-8.207c1.9336-7.2578 6.6328-13.738 13.605-17.773l0.73047-0.38672c6.8203-3.6875 14.496-4.4102 21.43-2.5469 6.8398 1.8281 13.039 6.1797 17.102 12.625 0.47266 0.62891 0.85156 1.3008 1.1602 2 3.5547 6.7305 4.2227 14.277 2.3047 21.406-1.1836 4.0742-3.0547 7.6445-5.6172 10.746l47.379 82.074c4.1719-0.71484 8.4062-0.49609 12.398 0.57031 7.1836 1.9297 13.672 6.6406 17.777 13.77 3.9805 7.0391 4.7773 14.887 2.8711 21.988-0.48828 1.832-1.1602 3.6172-2 5.3203z" fill="#fff"/>
</svg>
