<?xml version="1.0" encoding="UTF-8" standalone="no"?>
<!DOCTYPE svg PUBLIC "-//W3C//DTD SVG 1.1//EN" "http://www.w3.org/Graphics/SVG/1.1/DTD/svg11.dtd">
<svg width="100%" height="100%" viewBox="0 0 512 509" version="1.1" xmlns="http://www.w3.org/2000/svg" xmlns:xlink="http://www.w3.org/1999/xlink" xml:space="preserve" xmlns:serif="http://www.serif.com/" style="fill-rule:evenodd;clip-rule:evenodd;stroke-linejoin:round;stroke-miterlimit:2;">
    <g transform="matrix(1,0,0,1,-69.1839,-73.0435)">
        <g transform="matrix(0.482282,0,0,0.482282,35.8178,37.8159)">
            <path d="M222.63,136.17C222.63,155.69 207.583,171.514 189.021,171.514C170.459,171.514 155.412,155.69 155.412,136.17C155.412,116.65 170.459,100.826 189.021,100.826C207.583,100.826 222.63,116.65 222.63,136.17" style="fill:white;fill-rule:nonzero;"/>
            <path d="M1043.8,399.1C1059.71,409.237 1060.65,436.194 1045.92,459.315C1031.18,482.432 1006.35,492.96 990.44,482.823C974.538,472.686 973.588,445.729 988.323,422.608C1003.06,399.487 1027.9,388.963 1043.8,399.1" style="fill:white;fill-rule:nonzero;"/>
            <path d="M987.4,113.67C990.236,99.045 985.806,85.92 976.197,80.412L971.955,78.068L967.736,75.724C958.127,70.193 945.213,73.381 935.064,83.81C928.951,90.178 924.603,98.029 922.455,106.591L907.291,166.779C902.768,184.709 924.166,196.99 936.072,183.185L975.916,137.201C981.674,130.502 985.596,122.428 987.307,113.763L987.4,113.67Z" style="fill:white;fill-rule:nonzero;"/>
            <path d="M1062.4,824.34L1127.35,708.89C1129.98,704.355 1131.16,699.121 1130.71,693.898C1130.27,688.671 1128.22,683.71 1124.86,679.687C1120.33,674.386 1113.56,671.539 1106.6,672C1099.64,672.46 1093.31,676.179 1089.52,682.031C1078.17,699.507 1061.47,712.839 1041.91,720.022C1034.11,722.905 1022.25,721.054 1020.82,712.499C1004.09,604.359 937.524,504.909 836.041,469.709C828.822,467.201 829.009,455.647 830.439,447.748C833.955,428.248 845.72,382.592 884.627,284.928C886.279,280.811 886.545,276.272 885.393,271.987C884.236,267.706 881.725,263.917 878.229,261.186L877.783,260.835C873.647,257.733 868.412,256.475 863.318,257.366C858.224,258.252 853.721,261.206 850.877,265.522L762.611,394.662L718.713,455.084C710.674,466.146 693.893,458.693 695.838,444.912L703.455,391.006C704.51,384.354 703.127,377.541 699.557,371.83C695.987,366.119 690.467,361.892 684.026,359.928C629.956,345.217 573.116,343.889 518.416,356.061C492.471,361.588 467.404,370.631 443.908,382.944L443.533,383.131C412.232,400.037 391.955,431.986 389.978,467.506C389.38,477.881 389.38,488.279 389.978,498.654C390.412,502.334 388.13,505.787 384.576,506.83C381.021,507.877 377.232,506.201 375.611,502.873L339.283,431.482L247.478,239.292C242.111,228.042 208.806,234.37 217.97,267.722L270.939,449.202C272.587,454.737 272.673,460.62 271.181,466.202C269.693,471.78 266.689,476.843 262.501,480.819C249.142,493.241 229.689,512.249 219.54,526.171C198.372,555.359 183.583,588.675 176.134,623.952C176.134,624.233 176.134,624.515 175.97,624.772C166.853,668.592 177.435,714.202 204.915,749.532L211.243,757.618C214.638,761.872 216.54,767.122 216.661,772.563C216.786,778.001 215.122,783.333 211.923,787.735C208.236,792.712 202.575,795.856 196.4,796.352C190.224,796.852 184.134,794.657 179.697,790.337L148.197,760.149L113.58,722.461C109.787,718.059 104.541,715.164 98.795,714.305C93.049,713.445 87.182,714.676 82.268,717.773C70.221,725.813 64.08,744.961 74.487,753.937C132.19,803.906 111.518,886.987 110.792,895.167C108.061,927.483 109.421,960.015 114.847,991.987C116.112,999.652 117.636,1009.59 119.979,1019.78C120.526,1030.37 118.644,1040.95 114.472,1050.7C107.815,1065.93 90.05,1074.14 83.441,1089.32C79.773,1097.68 80.585,1107.33 85.601,1114.96C90.62,1122.59 99.156,1127.16 108.285,1127.11L1089.14,1127.11C1095.73,1126.91 1101.98,1124.12 1106.5,1119.33C1111.03,1114.54 1113.47,1108.15 1113.29,1101.56C1113.29,1096.47 1113.29,1093 1107.78,1084.17C1090.13,1055.78 1091.65,1018.54 1086.82,988.073C1085.64,980.714 1083.78,973.483 1081.27,966.464C1072.88,942.675 1044.89,934.448 1025.89,950.058C1016.31,958 1007.2,966.507 998.629,975.535C995.476,979.07 990.308,979.98 986.137,977.738C980.613,974.309 978.84,967.093 982.152,961.496L1062.4,824.34ZM689.74,509.13C698.084,489.794 725.107,483.771 750.115,495.7C775.123,507.63 788.67,532.942 780.326,552.278C771.982,571.614 744.959,577.637 719.951,565.731C694.943,553.825 681.396,528.489 689.717,509.129L689.74,509.13ZM300.19,635.15C309.448,606.275 337.057,590.009 361.854,598.798C386.651,607.587 399.354,638.103 389.979,666.978C380.604,695.853 353.112,712.095 328.338,703.306C303.565,694.517 290.955,664.001 300.19,635.15ZM936.8,978.67C911.37,1080.79 823.6,1080.79 823.6,1080.79L370.32,1080.79C331.32,1080.79 295.882,1056.16 281.258,1018.12C260.164,962.712 274.672,898.348 289.18,856.728C297.617,832.47 323.797,820.775 346.227,831.298C366.875,841.001 376.696,866.056 368.375,888.157C358.367,914.829 356.656,937.141 359,955.329C359.824,962.942 364.164,969.731 370.73,973.677C377.296,977.618 385.332,978.259 392.441,975.408C399.546,972.552 404.91,966.536 406.929,959.15C436.39,864.814 505.109,842.9 548.729,838.959C566.752,837.319 573.01,813.014 558.502,801.647C542.564,789.156 521.799,780.272 499.627,781.209L498.362,781.209C469.229,782.217 445.206,756.74 446.8,726.132C448.288,700.358 456.765,675.479 471.316,654.155C493.664,620.792 527.511,596.823 566.402,586.819C652.793,564.06 702.152,602.241 726.452,632.592C737.55,646.752 745.202,663.295 748.811,680.92C749.209,682.795 749.631,684.646 750.076,686.451C755.385,708.631 767.568,728.564 784.885,743.4C802.201,758.24 823.768,767.224 846.498,769.068C871.904,771.036 886.787,781.935 895.365,792.506C905.908,805.729 908.826,823.479 903.076,839.381C897.146,855.319 884.584,862.069 873.193,864.811C862.173,867.432 850.56,865.588 840.896,859.678C820.951,847.655 799.107,843.108 779.654,842.1C764.138,841.303 758.256,863.006 771.943,870.717C801.521,887.381 832.881,912.67 830.138,944.076C828.912,956.201 829.037,968.424 830.513,980.521C833.279,1000.23 854.982,1009.77 870.357,998.24C882.134,989.502 891.802,978.232 898.646,965.263C901.076,960.29 905.396,956.497 910.642,954.736C915.888,952.974 921.622,953.388 926.56,955.888C930.596,957.966 933.803,961.349 935.666,965.49C937.525,969.627 937.928,974.275 936.803,978.67L936.8,978.67Z" style="fill:white;fill-rule:nonzero;"/>
            <path d="M629.69,678.88C635.085,699.599 619.764,721.521 595.475,727.845C571.186,734.165 547.123,722.497 541.729,701.779C536.338,681.056 551.655,659.134 575.944,652.814C600.233,646.49 624.296,658.162 629.69,678.88" style="fill:white;fill-rule:nonzero;"/>
            <path d="M744.91,957.12C751.019,984.339 738.75,1010.27 717.508,1015.03C696.266,1019.8 674.09,1001.6 667.981,974.386C661.872,947.167 674.141,921.241 695.387,916.472C716.629,911.703 738.801,929.902 744.91,957.12" style="fill:white;fill-rule:nonzero;"/>
        </g>
    </g>
</svg>
