<?xml version="1.0" encoding="UTF-8" standalone="no"?>
<!DOCTYPE svg PUBLIC "-//W3C//DTD SVG 1.1//EN" "http://www.w3.org/Graphics/SVG/1.1/DTD/svg11.dtd">
<svg width="100%" height="100%" viewBox="0 0 479 512" version="1.1" xmlns="http://www.w3.org/2000/svg" xmlns:xlink="http://www.w3.org/1999/xlink" xml:space="preserve" xmlns:serif="http://www.serif.com/" style="fill-rule:evenodd;clip-rule:evenodd;stroke-linejoin:round;stroke-miterlimit:2;">
    <g transform="matrix(1,0,0,1,-145.2,-137.35)">
        <g transform="matrix(0.537815,0,0,0.537815,67.1092,63.4809)">
            <path d="M150,536.4C295.2,709.2 753.6,783.6 861.6,552.002C969.6,315.602 694.8,217.202 624,343.202C559.199,460.802 706.801,523.202 764.4,428.401C796.798,604.801 608.4,662.401 490.8,531.601C330,351.601 621.6,-28.799 938.4,218.401C1117.2,357.601 1011.6,585.601 916.798,681.601C743.998,855.601 242.398,800.401 149.998,536.401L150,536.4Z" style="fill:white;fill-rule:nonzero;"/>
            <path d="M145.2,612C228.001,751.2 482.4,820.8 589.2,841.2C697.2,862.802 762,901.2 740.4,1009.2C721.201,1107.6 507.6,1138.8 519.6,966.001C557.998,1040.4 632.4,1035.6 637.2,982.802C642.001,921.603 519.6,902.404 408,855.602C296.4,808.801 170.4,740.402 145.2,612.002L145.2,612Z" style="fill:white;fill-rule:nonzero;"/>
            <path d="M652.8,810C781.2,835.199 891.6,745.199 969.6,794.398C1024.8,829.199 1032,897.598 986.401,945.598C943.202,989.996 842.401,1015.2 814.801,915.598C860.403,943.2 916.801,931.2 915.601,897.598C914.402,851.996 878.402,842.399 823.203,854.399C769.199,865.2 705.603,858.001 652.803,810.001L652.8,810Z" style="fill:white;fill-rule:nonzero;"/>
            <path d="M462,238.8C225.6,412.8 350.4,660 543.602,630C428.402,596.398 325.202,422.4 462,238.8Z" style="fill:white;fill-rule:nonzero;"/>
        </g>
    </g>
</svg>
