<?xml version="1.0" encoding="UTF-8" standalone="no"?>
<!DOCTYPE svg PUBLIC "-//W3C//DTD SVG 1.1//EN" "http://www.w3.org/Graphics/SVG/1.1/DTD/svg11.dtd">
<svg width="100%" height="100%" viewBox="0 0 512 512" version="1.1" xmlns="http://www.w3.org/2000/svg" xmlns:xlink="http://www.w3.org/1999/xlink" xml:space="preserve" xmlns:serif="http://www.serif.com/" style="fill-rule:evenodd;clip-rule:evenodd;stroke-linejoin:round;stroke-miterlimit:2;">
    <g transform="matrix(1,0,0,1,-42.8571,-42.4021)">
        <g transform="matrix(0.459111,0,0,0.459111,23.1809,22.9348)">
            <path d="M527.88,487.73C540.396,547.589 593.294,591.07 654.7,588.91C713.294,586.848 761.15,543.933 772.66,487.8L773.293,487.8C787.066,487.991 799.898,480.823 806.953,468.991C814.004,457.155 814.211,442.46 807.492,430.436C800.769,418.409 788.144,410.881 774.371,410.69C774.113,394.096 773.902,377.081 773.761,359.948C773.269,289.354 716.995,232.288 647.741,231.998C577.803,231.717 521.181,289.396 521.061,360.698C521.061,376.87 521.296,393.932 521.905,411.417C509.534,413.976 499.202,422.429 494.241,434.05C489.28,445.667 490.323,458.976 497.03,469.683C503.741,480.386 515.264,487.128 527.882,487.73L527.88,487.73ZM699.44,350.69C707.506,350.721 715.233,353.952 720.924,359.671C726.612,365.389 729.803,373.132 729.791,381.198C729.78,389.264 726.572,396.999 720.865,402.702C715.162,408.409 707.427,411.616 699.361,411.627C691.295,411.639 683.552,408.448 677.834,402.76C672.116,397.069 668.885,389.342 668.854,381.276C668.823,373.155 672.034,365.358 677.78,359.616C683.522,353.87 691.319,350.659 699.44,350.69L699.44,350.69ZM664.073,449.245C674.116,448.897 683.882,452.55 691.229,459.401C698.581,466.253 702.905,475.745 703.26,485.784L703.26,486.511C703.615,496.554 699.963,506.327 693.112,513.675C686.257,521.026 676.764,525.351 666.721,525.698L638.83,526.682C628.791,527.041 619.018,523.397 611.666,516.549C604.318,509.697 599.99,500.205 599.643,490.166L599.643,489.416C599.284,479.377 602.928,469.604 609.776,462.252C616.628,454.904 626.12,450.576 636.159,450.229L664.073,449.245ZM595.823,350.69C603.889,350.721 611.616,353.952 617.307,359.671C622.995,365.389 626.186,373.132 626.174,381.198C626.162,389.264 622.955,396.999 617.248,402.702C611.545,408.409 603.81,411.616 595.744,411.627C587.678,411.639 579.935,408.448 574.217,402.76C568.499,397.069 565.268,389.342 565.237,381.276C565.206,373.155 568.417,365.358 574.163,359.616C579.905,353.87 587.702,350.659 595.823,350.69L595.823,350.69Z" style="fill:white;fill-rule:nonzero;"/>
            <path d="M556.03,1157.6L820.31,1157.6C826.814,1157.59 832.97,1154.66 837.083,1149.62C841.192,1144.58 842.821,1137.96 841.521,1131.59C838.478,1116.47 833.505,1101.82 826.732,1087.97C818.935,1071.87 814.365,1054.4 813.279,1036.55L790.099,684.206C789.263,671.558 783.767,659.667 774.677,650.835C765.587,641.999 753.548,636.847 740.88,636.37L562,630.018C548.043,629.518 534.488,634.741 524.473,644.479C514.46,654.213 508.855,667.616 508.96,681.581C509.546,781.781 513.414,1000.33 534.742,1139.24C535.527,1144.33 538.101,1148.98 542.003,1152.34C545.902,1155.7 550.874,1157.57 556.023,1157.59L556.03,1157.6Z" style="fill:white;fill-rule:nonzero;"/>
            <path d="M1076.3,771.09C1069.87,738.324 1052.53,708.703 1027.1,687.063C1001.67,665.418 969.66,653.04 936.285,651.934L866.629,649.59C859.512,649.368 852.645,652.235 847.805,657.457C842.965,662.68 840.625,669.746 841.387,676.824L846.66,724.73C847.274,730.308 849.774,735.507 853.746,739.472C857.719,743.437 862.926,745.925 868.504,746.527L920.887,752.105C933.274,753.429 944.981,758.437 954.489,766.484C964.001,774.531 970.876,785.246 974.231,797.246L1007.79,917.836C1012.27,933.832 1024.73,946.356 1040.7,950.906C1056.67,955.456 1073.87,951.383 1086.1,940.148C1098.34,928.914 1103.86,912.132 1100.67,895.828L1076.3,771.09Z" style="fill:white;fill-rule:nonzero;"/>
            <path d="M254.04,391.62L254.415,549.1C252.036,582.424 261.032,615.573 279.931,643.123C298.826,670.674 326.509,691.002 358.454,700.787L425.087,721.178C431.911,723.268 439.306,722.295 445.353,718.506C451.404,714.721 455.509,708.494 456.611,701.444L464.064,653.725C464.927,648.182 463.873,642.506 461.072,637.643C458.271,632.78 453.896,629.018 448.666,626.983L399.447,607.905C387.842,603.39 377.857,595.499 370.783,585.249C363.709,574.999 359.873,562.866 359.767,550.413L349.384,394.623C349.271,377.994 340.513,362.619 326.271,354.037C312.025,345.455 294.345,344.9 279.587,352.568C264.833,360.24 255.13,375.033 253.97,391.623L254.04,391.62Z" style="fill:white;fill-rule:nonzero;"/>
            <path d="M965.06,209.6L873.912,140.975C870.283,138.244 865.744,137.014 861.232,137.538C856.72,138.061 852.584,140.299 849.677,143.788L825.747,172.475C822.696,176.132 821.247,180.862 821.728,185.6C822.208,190.335 824.579,194.679 828.302,197.647L893.154,249.21C899.193,254.034 902.341,261.611 901.498,269.296L885.443,414.866C884.837,420.08 885.653,425.361 887.802,430.151C889.95,434.944 893.357,439.061 897.654,442.077L1028.57,533.718C1032.36,536.366 1037.03,537.425 1041.59,536.671C1046.15,535.917 1050.24,533.413 1052.97,529.686L1080.11,493.077C1083.07,489.093 1084.21,484.05 1083.28,479.182C1082.34,474.311 1079.39,470.057 1075.17,467.459L982.262,410.436C977.844,407.725 974.239,403.874 971.821,399.288C969.403,394.702 968.267,389.55 968.528,384.374L976.052,233.064C976.497,223.908 972.38,215.123 965.06,209.603L965.06,209.6Z" style="fill:white;fill-rule:nonzero;"/>
            <path d="M1149.8,354.21L1104.45,323.554C1102.01,321.91 1100.06,319.648 1098.78,316.999C1097.5,314.351 1096.95,311.413 1097.18,308.484L1108.5,165.514C1109.15,157.717 1105.82,150.119 1099.64,145.311L971.913,45.913C968.507,43.26 964.206,42.034 959.913,42.499C955.624,42.963 951.678,45.077 948.921,48.397L925.718,76.522C922.784,80.057 921.444,84.651 922.023,89.206C922.601,93.765 925.042,97.878 928.765,100.569L1032.25,175.569C1037.94,179.733 1041.18,186.471 1040.87,193.522L1033.18,351.302C1032.71,361.177 1037.47,370.575 1045.7,376.052L1105.49,415.661C1109,417.993 1113.26,418.903 1117.41,418.212C1121.57,417.52 1125.31,415.278 1127.87,411.934L1153.65,378.231C1156.48,374.591 1157.68,369.938 1156.95,365.383C1156.22,360.829 1153.64,356.782 1149.81,354.207L1149.8,354.21Z" style="fill:white;fill-rule:nonzero;"/>
            <path d="M80.578,980.79L214.688,1033.6C221.743,1036.37 226.887,1042.56 228.329,1050L243.54,1130.2C244.407,1134.81 247.099,1138.86 250.997,1141.46C254.895,1144.05 259.677,1144.96 264.259,1143.99L300.236,1136.32C304.603,1135.39 308.447,1132.82 310.97,1129.14C313.497,1125.46 314.509,1120.95 313.806,1116.54L295.947,1005.68C294.506,996.765 288.736,989.144 280.549,985.335L145.319,922.523C140.686,920.375 136.721,917.02 133.835,912.809C130.948,908.598 129.249,903.688 128.913,898.594L121.882,791.484C121.55,786.62 119.198,782.116 115.393,779.066C111.593,776.015 106.686,774.698 101.866,775.429L57.522,782.249C53.065,782.952 49.058,785.359 46.346,788.964C43.636,792.57 42.432,797.085 42.991,801.562L62.632,957.612C63.265,962.733 65.269,967.589 68.425,971.667C71.585,975.745 75.784,978.898 80.585,980.792L80.578,980.79Z" style="fill:white;fill-rule:nonzero;"/>
            <path d="M235.9,764.18L194.697,771.211C190.615,771.918 186.955,774.145 184.447,777.438C181.939,780.735 180.771,784.856 181.174,788.977L188.205,859.289C189.17,868.972 195.166,877.43 203.978,881.555L344.858,947.344C351.174,950.266 355.585,956.184 356.577,963.071L374.272,1087.5C374.928,1091.97 377.397,1095.97 381.092,1098.56C384.791,1101.15 389.397,1102.1 393.819,1101.19L428.905,1093.85C433.03,1092.97 436.655,1090.52 439.026,1087.03C441.397,1083.54 442.331,1079.27 441.632,1075.1L413.694,918.233C412.35,910.666 407.295,904.284 400.241,901.241L270.611,845.46C267.954,844.311 265.65,842.483 263.931,840.159C262.208,837.831 261.134,835.092 260.814,832.217L254.954,778.639C254.482,774.135 252.165,770.026 248.556,767.284C244.946,764.546 240.368,763.421 235.9,764.179L235.9,764.18Z" style="fill:white;fill-rule:nonzero;"/>
        </g>
    </g>
</svg>
