<?xml version="1.0" encoding="UTF-8" standalone="no"?>
<!DOCTYPE svg PUBLIC "-//W3C//DTD SVG 1.1//EN" "http://www.w3.org/Graphics/SVG/1.1/DTD/svg11.dtd">
<svg width="100%" height="100%" viewBox="0 0 512 386" version="1.1" xmlns="http://www.w3.org/2000/svg" xmlns:xlink="http://www.w3.org/1999/xlink" xml:space="preserve" xmlns:serif="http://www.serif.com/" style="fill-rule:evenodd;clip-rule:evenodd;stroke-linejoin:round;stroke-miterlimit:2;">
    <g transform="matrix(1,0,0,1,-30.9698,-171.6)">
        <g transform="matrix(0.449376,0,0,0.449376,17.0527,94.4871)">
            <path d="M1161.6,608.4C1149.6,596.4 1130.4,596.4 1118.4,608.4C1112.4,614.4 1104,621.599 1094.4,628.798C1038,672.001 963.601,663.603 912.001,612.001C873.603,572.399 822.001,542.399 768.001,529.2C829.2,372 819.603,171.6 600.001,171.6C380.401,171.604 370.801,372 432.001,529.2C378.001,542.399 326.401,572.399 288.001,612.001C226.802,673.2 144.001,668.399 85.201,609.603C74.4,597.603 56.4,595.205 43.201,604.802C13.201,628.802 45.599,660.001 63.599,678.001C141.599,757.2 262.799,756.001 349.199,692.399C354,688.797 361.199,684 364.801,681.598C375.602,674.399 386.403,668.399 397.199,663.598C376.801,688.797 361.199,716.399 349.199,745.2C316.801,824.399 237.599,852 160.799,820.802C146.401,813.603 128.401,818.403 119.998,832.802C100.799,866.404 142.799,883.2 166.799,892.802C268.799,936.001 381.599,889.2 436.799,796.802C440.401,792.001 443.998,784.802 446.401,781.2C456.002,766.802 466.799,753.598 478.799,742.802C475.197,766.802 475.197,792.001 475.197,817.2C481.197,903.598 422.396,962.4 339.597,968.4C299.995,968.4 296.398,1026 335.995,1029.6C464.395,1040.4 565.195,950.4 575.995,823.199C577.195,817.199 577.195,808.801 578.394,805.199C580.792,781.199 589.195,757.199 599.996,736.801C610.797,757.199 619.195,781.199 621.598,805.199C622.797,808.8 622.797,817.199 623.996,823.199C632.395,931.199 712.797,1022.4 823.196,1028.4C847.196,1030.8 889.196,1035.6 891.594,1000.8C892.793,982.797 878.395,967.195 860.395,967.195C777.594,962.394 718.795,902.394 724.795,815.995C725.994,791.995 725.994,766.796 721.194,741.597C733.194,752.398 743.995,765.597 753.592,779.995C755.99,783.596 759.592,789.596 763.193,795.597C818.392,887.995 931.193,934.797 1033.19,891.597C1054.8,883.198 1095.59,868.796 1082.39,836.398C1075.19,819.597 1055.99,812.398 1039.19,820.796C962.392,853.194 883.193,825.597 850.793,745.194C837.594,716.393 823.191,687.592 802.793,663.592C814.793,668.393 825.594,674.393 835.191,681.592C838.793,683.99 844.793,688.791 850.793,692.393C937.191,757.194 1058.39,757.194 1136.39,677.995C1154.4,661.198 1185.6,633.6 1161.6,608.397L1161.6,608.4ZM524.4,511.201C506.4,511.201 490.798,496.803 490.798,477.599C490.798,459.599 505.196,443.997 524.4,443.997C542.4,443.997 558.002,458.395 558.002,477.599C558.002,496.803 542.4,511.201 524.4,511.201ZM675.6,511.201C657.6,511.201 641.998,496.803 641.998,477.599C641.998,459.599 656.396,443.997 675.6,443.997C693.6,443.997 709.202,458.395 709.202,477.599C709.198,496.802 693.6,511.201 675.6,511.201Z" style="fill:white;fill-rule:nonzero;"/>
        </g>
    </g>
</svg>
