<?xml version="1.0" encoding="UTF-8"?>
<svg width="512pt" height="512pt" version="1.1" viewBox="0 0 512 512" xmlns="http://www.w3.org/2000/svg">
 <path d="m488.8 215.2c-0.80078 4-4 7.1992-8 7.1992s-7.1992-3.1992-8-6.3984c-10.398-63.199-69.602-106.4-132.8-96-56 8.8008-97.602 57.602-97.602 114.4 0 14.398 2.3984 29.602 8 43.199 4 9.6016 1.6016 20-5.6016 27.199l-28 28c6.3984 12.801 1.6016 28-11.199 34.398-7.1992 4-16 4-23.199 0l-76 90.398c-8 10.398-20 17.602-33.602 18.398h-3.1992c-25.602 0-45.602-20.801-45.602-45.602 0-14.398 7.1992-28 18.398-36.801l89.602-75.199c-6.3984-12.801-0.80078-28 12-34.398 7.1992-3.1992 16-3.1992 22.398 0l16-16c2.3984-2.3984 3.1992-7.1992 2.3984-10.398-32.793-81.594 4.0078-175.2 84.008-209.59s173.6 1.6016 208.8 82.398c12 26.402 16 56 11.199 84.801z" fill="#fff"/>
</svg>
