<?xml version="1.0" encoding="UTF-8" standalone="no"?>
<!DOCTYPE svg PUBLIC "-//W3C//DTD SVG 1.1//EN" "http://www.w3.org/Graphics/SVG/1.1/DTD/svg11.dtd">
<svg width="100%" height="100%" viewBox="0 0 441 683" version="1.1" xmlns="http://www.w3.org/2000/svg" xmlns:xlink="http://www.w3.org/1999/xlink" xml:space="preserve" xmlns:serif="http://www.serif.com/" style="fill-rule:evenodd;clip-rule:evenodd;stroke-linejoin:round;stroke-miterlimit:2;">
    <g transform="matrix(1.33333,0,0,1.33333,-306.804,-34.9993)">
        <g transform="matrix(0.446185,0,0,0.446185,127.435,14.5374)">
            <path d="M867.56,26.25C811.31,26.25 765.37,72.188 765.37,128.44C765.37,163.128 783.182,195.378 812.058,214.315L812.058,864.195C812.058,973.695 722.996,1062.58 613.308,1062.58C503.998,1062.58 414.928,973.7 414.928,864.195L414.928,634.695C414.928,629.632 411.553,625.32 406.678,623.82C401.803,622.507 396.553,624.57 393.928,628.882L231.738,896.632C229.113,900.945 229.675,906.382 233.238,910.132C236.613,913.882 242.05,914.82 246.55,912.382L304.3,882.944C313.675,1044.94 448.68,1173.75 613.3,1173.75C784.11,1173.75 923.24,1034.81 923.24,864.194L923.24,214.314C951.928,195.376 969.74,163.126 969.74,128.439C969.74,72.189 923.99,26.249 867.55,26.249L867.56,26.25ZM867.56,165.75C847.122,165.75 830.435,149.062 830.435,128.625C830.435,108 847.123,91.313 867.56,91.313C888.185,91.313 904.872,108.001 904.872,128.625C904.872,149.063 888.184,165.75 867.56,165.75Z" style="fill:white;fill-rule:nonzero;"/>
        </g>
    </g>
</svg>
