<?xml version="1.0" encoding="UTF-8" standalone="no"?>
<!DOCTYPE svg PUBLIC "-//W3C//DTD SVG 1.1//EN" "http://www.w3.org/Graphics/SVG/1.1/DTD/svg11.dtd">
<svg width="100%" height="100%" viewBox="0 0 512 512" version="1.1" xmlns="http://www.w3.org/2000/svg" xmlns:xlink="http://www.w3.org/1999/xlink" xml:space="preserve" xmlns:serif="http://www.serif.com/" style="fill-rule:evenodd;clip-rule:evenodd;stroke-linejoin:round;stroke-miterlimit:2;">
    <g transform="matrix(1,0,0,1,0.000250751,6.64564e-05)">
        <g transform="matrix(0.487458,0,0,0.487458,-36.5166,-36.1953)">
            <path d="M1114.4,991.96L980.59,767.8L980.59,767.796C973.231,755.585 962.543,745.726 949.781,739.37C937.019,733.018 922.711,730.433 908.535,731.917C830.566,574.867 728.335,431.077 605.615,305.847C540.111,240.831 465.345,185.867 383.745,142.737C342.163,121.21 298.436,104.116 253.285,91.733C230.367,85.561 207.078,80.881 183.558,77.729C158.605,74.178 133.339,73.346 108.206,75.241C99.108,76.03 90.644,80.213 84.491,86.964C78.338,93.714 74.956,102.53 75.014,111.663L75.022,112.495L75.022,723.135C74.475,735.475 75.968,747.819 79.44,759.674C88.171,787.084 108.999,808.967 135.944,819.033C162.889,829.103 192.967,826.24 217.53,811.271C242.096,796.306 258.425,770.888 261.831,742.326C262.292,738.826 262.347,735.307 262.507,731.795L262.523,725.217L262.523,712.494C262.523,699.096 255.374,686.717 243.773,680.017C232.171,673.318 217.875,673.318 206.273,680.017C194.671,686.716 187.523,699.095 187.523,712.494L187.523,725.217L187.507,731.358L187.351,733.51C186.991,736.291 186.027,738.963 184.53,741.334C181.441,746.186 176.288,749.346 170.561,749.893C164.835,750.439 159.174,748.315 155.221,744.131C153.288,742.068 151.819,739.619 150.909,736.94C149.788,732.428 149.487,727.752 150.022,723.135L150.022,150.635C157.819,151.287 165.713,152.131 173.131,153.267L173.131,153.271C193.186,156.365 213.018,160.748 232.506,166.396C272.092,178.091 310.338,193.908 346.616,213.591C420.132,254.361 487.226,305.763 545.726,366.131C636.421,461.158 713.996,567.891 776.396,683.491C761.978,677.999 746.701,675.124 731.275,674.999C685.982,674.718 643.744,697.808 619.535,736.089C595.324,774.366 592.562,822.425 612.223,863.229C631.887,904.03 671.2,931.811 716.223,936.725C761.25,941.639 805.629,922.991 833.633,887.393L953.463,1088.12C963.686,1105.17 980.252,1117.48 999.529,1122.33C1018.8,1127.18 1039.22,1124.19 1056.3,1114.01L1088.49,1094.79C1105.56,1084.6 1117.89,1068.03 1122.76,1048.74C1127.62,1029.46 1124.62,1009.03 1114.41,991.955L1114.4,991.96ZM731.27,862.5C716.352,862.5 702.043,856.574 691.497,846.023C680.946,835.476 675.02,821.168 675.02,806.25C675.02,791.332 680.946,777.023 691.497,766.477C702.044,755.926 716.352,750 731.27,750C746.188,750 760.497,755.926 771.043,766.477C781.594,777.024 787.52,791.332 787.52,806.25C787.504,821.164 781.571,835.461 771.028,846.008C760.481,856.551 746.184,862.485 731.27,862.5Z" style="fill:white;fill-rule:nonzero;"/>
        </g>
    </g>
</svg>
