<?xml version="1.0" encoding="UTF-8" standalone="no"?>
<!DOCTYPE svg PUBLIC "-//W3C//DTD SVG 1.1//EN" "http://www.w3.org/Graphics/SVG/1.1/DTD/svg11.dtd">
<svg width="100%" height="100%" viewBox="0 0 512 512" version="1.1" xmlns="http://www.w3.org/2000/svg" xmlns:xlink="http://www.w3.org/1999/xlink" xml:space="preserve" xmlns:serif="http://www.serif.com/" style="fill-rule:evenodd;clip-rule:evenodd;stroke-linejoin:round;stroke-miterlimit:2;">
    <g transform="matrix(1,0,0,1,-68.6969,-68.6912)">
        <g transform="matrix(0.481825,0,0,0.481825,35.597,35.5941)">
            <path d="M1091.5,75.586L476.36,690.726C471.86,695.21 469.372,701.331 469.469,707.687C469.567,714.043 472.239,720.082 476.876,724.429C481.52,728.57 487.587,730.757 493.802,730.535C500.02,730.312 505.915,727.695 510.251,723.234L967.091,266.364C969.68,263.789 973.688,263.305 976.817,265.188C979.946,267.071 981.395,270.84 980.333,274.332C964.743,326.074 959.255,380.332 964.161,434.152C965.805,451.808 965.985,469.574 964.7,487.261C962.661,512.667 957.88,548.199 946.606,579.675C935.801,609.066 911.286,631.296 880.981,639.183C876.856,640.285 872.45,641.527 867.809,642.98C864.66,643.945 862.246,646.492 861.453,649.691C860.664,652.887 861.606,656.265 863.942,658.59L917.145,711.817C919.832,714.477 923.852,715.262 927.34,713.809C950.121,704.16 974.32,698.286 998.988,696.418C1003.8,696.133 1008.44,694.496 1012.36,691.691C1016.28,688.89 1019.33,685.035 1021.16,680.574C1036.58,642.769 1070.5,539.384 1046.28,407.764C1040.04,363.014 1037.23,317.85 1037.87,272.674C1038.85,222.264 1059.3,174.186 1094.94,138.514L1124,109.475C1128.46,105.139 1131.08,99.245 1131.3,93.026C1131.53,86.811 1129.34,80.745 1125.2,76.1C1120.85,71.464 1114.81,68.792 1108.46,68.694C1102.1,68.596 1095.98,71.085 1091.5,75.585L1091.5,75.586Z" style="fill:white;fill-rule:nonzero;"/>
            <path d="M109.48,1124L154.996,1078.46C190.637,1042.85 238.664,1022.4 289.036,1021.39C334.247,1020.74 379.442,1023.56 424.226,1029.81C555.846,1054.02 659.256,1020.1 697.036,1004.68C701.497,1002.85 705.352,999.801 708.153,995.879C710.958,991.957 712.594,987.321 712.88,982.508C714.759,957.84 720.634,933.645 730.271,910.86C731.724,907.372 730.939,903.353 728.278,900.665L675.005,847.438C672.689,845.173 669.365,844.263 666.216,845.036C663.068,845.809 660.54,848.153 659.537,851.235C658.084,855.923 656.841,860.282 655.716,864.407C647.83,894.712 625.599,919.227 596.208,930.032C564.731,941.305 529.2,946.087 503.794,948.126C486.106,949.411 468.341,949.232 450.685,947.587C396.869,942.681 342.605,948.169 290.865,963.759C287.365,964.853 283.572,963.408 281.686,960.263C279.799,957.119 280.311,953.091 282.92,950.517L332.818,900.665C337.287,896.333 339.904,890.438 340.127,884.22C340.349,877.997 338.158,871.931 334.013,867.29C329.666,862.653 323.626,859.981 317.271,859.884C310.916,859.786 304.794,862.274 300.31,866.774L75.59,1091.49C71.09,1095.98 68.602,1102.1 68.7,1108.45C68.797,1114.81 71.469,1120.85 76.106,1125.2C80.75,1129.34 86.817,1131.53 93.032,1131.3C99.251,1131.08 105.145,1128.46 109.481,1124L109.48,1124Z" style="fill:white;fill-rule:nonzero;"/>
            <path d="M861.96,749.25C870.21,743.859 870.796,731.766 863.179,724.148L809.671,670.64C807.186,667.999 803.921,666.222 800.351,665.574C796.784,664.921 793.101,665.433 789.843,667.031C744.39,690.847 707.291,727.969 683.502,773.441C681.905,776.698 681.393,780.382 682.045,783.949C682.694,787.519 684.471,790.785 687.112,793.269L740.62,846.707C748.237,854.324 760.331,853.738 765.745,845.465C778.163,826.223 792.339,808.176 808.097,791.559C824.702,775.821 842.734,761.661 861.956,749.254L861.96,749.25Z" style="fill:white;fill-rule:nonzero;"/>
            <path d="M382.36,804.68C382.993,806.164 383.778,807.578 384.704,808.899C385.598,810.231 386.618,811.469 387.751,812.602C388.864,813.731 390.091,814.742 391.407,815.625C392.723,816.512 394.13,817.262 395.602,817.852C397.079,818.465 398.606,818.938 400.172,819.258C401.715,819.567 403.286,819.731 404.86,819.75C406.434,819.735 408.004,819.571 409.547,819.258C414.286,818.325 418.633,816 422.039,812.578C423.188,811.457 424.208,810.215 425.086,808.875C425.969,807.547 426.715,806.133 427.313,804.656C429.84,798.66 429.84,791.902 427.313,785.906C426.715,784.43 425.969,783.016 425.086,781.688C423.293,779.02 421.004,776.731 418.336,774.938C415.661,773.188 412.68,771.957 409.547,771.305C408.004,771 406.434,770.844 404.86,770.836C403.286,770.848 401.715,771.004 400.172,771.305C398.606,771.625 397.078,772.098 395.602,772.711C392.637,773.93 389.946,775.723 387.68,777.985C386.547,779.117 385.528,780.356 384.633,781.688C383.707,783.008 382.922,784.422 382.289,785.906C379.762,791.902 379.762,798.66 382.289,804.656L382.36,804.68Z" style="fill:white;fill-rule:nonzero;"/>
        </g>
    </g>
</svg>
