<?xml version="1.0" encoding="UTF-8"?>
<svg width="512pt" height="512pt" version="1.1" viewBox="0 0 512 512" xmlns="http://www.w3.org/2000/svg">
 <g fill="#fff">
  <path d="m439.3 184.83-47.617-38.91-53.758-30.211s-4.0977-3.0703-9.7266-3.0703c-4.6094 0-9.7266 1.5352-15.359 7.168-11.777 11.266-0.51172 32.77 13.824 33.281h0.51172c4.6094 0 8.7031-2.5586 9.2148-6.6562 0.51172-3.0703-0.51172-7.168-7.6797-11.266 0 0 0-2.5586 4.0977-2.5586 2.0469 0 4.6094 0.51172 8.7031 2.5586 12.289 6.1445 33.281 38.91 33.281 38.91s37.375 7.168 47.617 16.383c10.238 9.2148 5.1211 11.777 5.1211 11.777-3.5859-3.0703-6.6562-4.0977-8.7031-4.0977-1.5352 0-3.0703 0.51172-4.0977 1.5352-3.5859 2.5586-4.0977 7.6797-2.0469 11.777 3.0703 6.6562 10.754 10.754 18.434 10.754 7.168 0 13.824-3.5859 16.383-10.754 4.6016-18.941-8.1992-26.621-8.1992-26.621z"/>
  <path d="m369.15 180.73-2.0469-2.5586c-3.0703-4.6094-6.6562-9.7266-10.238-14.848-119.3 150.02-246.27 199.68-246.27 199.68 10.238 68.098-75.777 121.34-75.777 121.34 104.96 28.672 309.76-236.03 356.86-298.5-6.6562-2.0469-13.312-3.5859-18.945-4.6094z"/>
  <path d="m473.6 47.617-29.184-20.48c-3.5859-2.5625-9.2188-1.5352-11.777 2.0469l-3.0703 4.6094c-2.5586 3.5859-1.5352 8.7031 2.0469 11.266l1.0234 1.0195-54.785 82.945 17.406 9.7266 1.0234 1.0234 10.238 8.7031 54.277-82.43c4.0977 2.5586 9.2148 1.5352 11.777-2.0469l3.0703-4.6094c2.5586-4.0938 2.0469-9.2148-2.0469-11.773z"/>
 </g>
</svg>
