<?xml version="1.0" encoding="UTF-8" standalone="no"?>
<!DOCTYPE svg PUBLIC "-//W3C//DTD SVG 1.1//EN" "http://www.w3.org/Graphics/SVG/1.1/DTD/svg11.dtd">
<svg width="100%" height="100%" viewBox="0 0 512 512" version="1.1" xmlns="http://www.w3.org/2000/svg" xmlns:xlink="http://www.w3.org/1999/xlink" xml:space="preserve" xmlns:serif="http://www.serif.com/" style="fill-rule:evenodd;clip-rule:evenodd;stroke-linejoin:round;stroke-miterlimit:2;">
    <g transform="matrix(1,0,0,1,-71.485,-71.4594)">
        <g transform="matrix(0.48427,0,0,0.48427,36.8669,36.8538)">
            <path d="M79.523,1086.4L115.992,1122.87C119.742,1126.62 124.824,1128.72 130.125,1128.72C135.426,1128.72 140.508,1126.62 144.258,1122.87L361.308,905.789C364.664,902.445 366.55,897.906 366.55,893.168C366.55,888.43 364.664,883.891 361.308,880.547L357.464,876.61L648.394,585.77C653.324,580.852 653.449,572.911 648.675,567.84C646.004,565.027 643.308,562.238 640.543,559.496C637.777,556.754 635.011,554.035 632.199,551.363C627.129,546.59 619.187,546.715 614.269,551.644L323.429,842.574L319.609,838.754C316.265,835.398 311.726,833.512 306.988,833.512C302.249,833.512 297.71,835.398 294.367,838.754L77.337,1055.8C73.59,1059.55 71.485,1064.64 71.485,1069.94C71.485,1075.24 73.59,1080.32 77.337,1084.07L79.523,1086.4Z" style="fill:white;fill-rule:nonzero;"/>
            <path d="M873.45,318.35L812.723,340.405C808.473,341.952 805.266,345.511 804.176,349.901C803.086,354.296 804.25,358.94 807.286,362.296C811.973,367.546 816.918,372.741 822.122,377.882C827.325,383.023 832.52,387.968 837.708,392.718C841.063,395.753 845.708,396.917 850.103,395.828C854.493,394.738 858.052,391.531 859.599,387.281L881.654,326.554C882.505,324.218 881.927,321.597 880.165,319.839C878.408,318.077 875.786,317.499 873.451,318.351L873.45,318.35Z" style="fill:white;fill-rule:nonzero;"/>
            <path d="M516.4,234.38C608.603,153.849 702.78,149.724 751.22,154.552C755.04,154.954 758.861,153.779 761.79,151.294C764.72,148.814 766.509,145.24 766.735,141.404L769.853,88.037C770.282,80.544 764.751,74.037 757.291,73.248C712.877,68.56 566.091,64.201 446.411,183.868C326.741,303.538 331.211,450.208 335.791,494.528C336.568,502 343.08,507.544 350.58,507.114L403.947,503.996C407.782,503.77 411.357,501.981 413.837,499.051C416.322,496.121 417.497,492.301 417.095,488.481C412.267,440.036 416.392,345.861 496.947,253.661C502.998,246.806 509.494,240.364 516.4,234.372L516.4,234.38Z" style="fill:white;fill-rule:nonzero;"/>
            <path d="M1126.9,442.71C1126.11,435.249 1119.6,429.718 1112.11,430.148L1058.74,433.265C1054.91,433.492 1051.33,435.281 1048.85,438.21C1046.37,441.14 1045.19,444.96 1045.6,448.78C1050.45,497.225 1046.3,591.401 965.768,683.601C959.717,690.511 953.209,697.011 946.291,703.054C854.088,783.609 759.911,787.734 711.471,782.812C707.65,782.409 703.83,783.585 700.901,786.069C697.971,788.55 696.182,792.124 695.955,795.96L692.838,849.327C692.408,856.827 697.951,863.339 705.424,864.116C749.815,868.686 896.624,873.163 1016.27,753.496C1135.92,633.826 1131.49,487.126 1126.89,442.716L1126.9,442.71Z" style="fill:white;fill-rule:nonzero;"/>
            <path d="M471.91,432.05C589.66,419.534 780.46,610.34 767.95,728.09C767.571,731.262 768.704,734.426 771.005,736.641C773.309,738.856 776.513,739.864 779.669,739.364C820.028,732.754 869.575,714.755 918.869,671.7C924.373,666.879 929.549,661.696 934.361,656.184C977.416,606.965 995.439,557.348 1002.02,517.014C1002.52,513.857 1001.52,510.654 999.302,508.349C997.087,506.049 993.923,504.916 990.751,505.295C873.021,517.74 682.291,327.005 694.731,209.275C695.11,206.103 693.977,202.939 691.677,200.724C689.372,198.509 686.169,197.501 683.012,198.001C642.653,204.564 593.106,222.657 543.742,265.642C538.231,270.455 533.047,275.631 528.227,281.134C485.171,330.353 467.289,379.97 460.563,420.334C460.059,423.502 461.074,426.725 463.305,429.03C465.535,431.334 468.723,432.455 471.906,432.053L471.91,432.05Z" style="fill:white;fill-rule:nonzero;"/>
        </g>
    </g>
</svg>
