<?xml version="1.0" encoding="UTF-8" standalone="no"?>
<svg xmlns:xlink="http://www.w3.org/1999/xlink" height="945.45px" width="946.3px" xmlns="http://www.w3.org/2000/svg">
  <g transform="matrix(1.0, 0.0, 0.0, 1.0, -9.8, -42.0)">
    <path d="M875.55 83.4 Q908.8 83.4 932.55 109.1 956.1 134.8 956.1 171.05 956.1 207.05 932.55 232.75 908.8 258.45 875.55 258.45 L866.35 258.25 Q865.45 257.8 864.65 257.8 L864.65 259.95 Q863.35 302.0 833.35 331.7 802.25 363.0 758.55 363.0 L757.05 363.0 Q754.85 380.45 742.05 393.55 730.65 404.65 716.3 407.65 717.4 413.2 717.4 419.4 717.4 440.35 702.6 455.0 687.8 470.0 667.25 470.0 646.7 470.0 631.45 455.0 620.55 444.1 617.95 429.25 601.45 418.55 585.8 420.7 564.15 426.1 542.5 420.7 512.95 766.15 605.55 987.45 L529.0 911.0 467.35 955.8 402.6 918.3 331.45 985.8 Q432.8 724.8 390.8 351.9 342.6 359.85 319.2 397.95 269.7 478.55 207.95 417.9 272.95 441.65 312.6 364.8 329.3 325.35 374.5 319.55 355.8 283.35 313.4 293.0 299.3 296.6 263.05 316.2 233.05 332.35 206.7 337.4 213.55 321.7 211.2 306.1 103.6 325.8 69.15 213.7 62.1 182.85 35.7 152.45 17.45 127.1 9.8 101.35 46.45 107.2 62.1 157.1 69.8 197.4 95.45 237.45 132.95 298.1 175.2 278.65 195.8 259.95 175.2 183.25 110.45 171.85 80.25 96.3 106.4 121.5 130.25 139.8 153.75 159.45 168.55 153.2 183.8 141.5 179.9 120.2 174.55 90.45 162.35 62.4 211.45 96.1 201.8 194.65 199.65 224.85 207.2 255.25 218.9 301.15 262.2 277.15 289.45 261.7 275.85 237.45 L233.95 144.4 Q265.9 117.65 233.95 75.85 301.9 112.3 258.2 159.05 272.75 193.15 304.45 228.9 358.9 278.0 382.05 251.2 397.65 218.45 360.35 176.35 322.45 133.75 325.25 88.25 347.3 161.85 397.85 132.0 397.65 150.9 376.65 161.6 404.75 194.65 406.45 250.35 408.8 284.25 421.4 290.6 456.6 285.0 440.25 236.4 425.95 203.65 425.95 168.7 425.95 116.35 462.8 78.85 500.1 42.0 552.55 42.0 604.9 42.0 642.2 78.85 659.95 96.7 668.95 117.95 682.0 118.55 694.65 123.85 700.05 116.2 707.15 109.1 739.25 77.15 784.2 77.15 815.35 77.15 839.75 92.2 855.95 83.4 875.55 83.4 M423.6 881.2 L466.7 921.55 511.05 876.1 465.1 791.85 423.6 881.2" fill="#ffffff" fill-rule="evenodd" stroke="none"/>
  </g>
</svg>
