<?xml version="1.0" encoding="UTF-8" standalone="no"?>
<svg xmlns:xlink="http://www.w3.org/1999/xlink" height="684.2px" width="642.0px" xmlns="http://www.w3.org/2000/svg">
  <g transform="matrix(1.0, 0.0, 0.0, 1.0, 231.75, 20.4)">
    <path d="M25.2 -20.4 L384.8 -20.4 Q410.25 -20.4 410.25 3.1 L410.25 137.65 Q410.25 161.35 384.8 161.35 L343.45 161.35 Q316.05 272.35 344.6 387.3 422.85 511.6 393.95 631.35 320.55 676.2 229.25 651.4 L200.35 591.35 138.2 651.4 Q-8.55 676.2 -157.65 651.4 -266.6 604.0 -215.35 529.05 -84.25 519.15 0.2 451.75 44.85 414.3 84.25 375.9 101.7 268.3 80.0 161.35 L25.2 161.35 Q-0.2 161.35 -0.2 137.65 L-0.2 3.1 Q-0.2 -20.4 25.2 -20.4" fill="#ffffff" fill-rule="evenodd" stroke="none"/>
  </g>
</svg>
