<?xml version="1.0" encoding="UTF-8" standalone="no"?>
<svg xmlns:xlink="http://www.w3.org/1999/xlink" height="684.6px" width="566.55px" xmlns="http://www.w3.org/2000/svg">
  <g transform="matrix(1.0, 0.0, 0.0, 1.0, 194.05, 19.9)">
    <path d="M128.4 84.0 Q126.05 155.9 149.1 208.95 182.35 284.4 166.75 375.15 105.9 371.55 60.05 351.6 68.15 259.95 28.15 183.7 -13.75 103.5 -1.35 -19.9 79.65 70.4 128.4 84.0 M172.85 87.9 Q269.5 46.3 372.5 79.75 314.85 115.9 301.15 203.05 287.55 290.15 321.9 401.5 356.0 512.8 331.8 632.3 270.1 677.1 193.45 652.3 L169.25 592.5 116.85 652.3 Q-6.55 677.1 -131.65 652.3 L-140.95 647.15 Q-208.5 608.25 -190.15 551.75 L-157.5 580.65 -140.95 579.5 Q44.9 563.85 119.15 493.7 L127.2 485.65 Q163.65 448.6 196.35 410.7 217.7 300.45 179.3 209.45 157.9 157.95 159.2 91.1 166.5 90.65 172.85 87.9 M94.15 475.0 Q25.0 540.8 -150.25 554.4 L-156.9 554.85 -189.2 525.75 Q-169.0 523.85 -150.25 520.25 -67.25 503.45 -9.75 448.75 L-3.95 442.9 Q25.75 412.4 52.95 381.0 102.55 402.2 158.15 405.95 137.35 429.8 115.05 453.4 L94.15 475.0" fill="#ffffff" fill-rule="evenodd" stroke="none"/>
  </g>
</svg>
