<?xml version="1.0" encoding="UTF-8" standalone="no"?>
<svg xmlns:xlink="http://www.w3.org/1999/xlink" height="118.1px" width="113.75px" xmlns="http://www.w3.org/2000/svg">
  <g transform="matrix(1.0, 0.0, 0.0, 1.0, -5.25, -7.95)">
    <path d="M61.7 81.85 Q63.95 83.85 67.0 85.05 77.5 89.2 96.7 83.95 77.95 83.4 65.9 76.25 L62.3 47.45 57.1 76.45 Q45.1 83.4 26.6 83.95 45.0 89.0 55.5 85.35 59.05 84.1 61.7 81.85 M91.2 18.1 Q109.4 23.85 119.0 37.9 L113.2 78.0 Q105.55 83.45 104.45 96.85 103.35 110.25 97.9 118.5 L95.35 122.1 Q62.1 130.0 28.95 122.1 L26.4 118.5 Q20.95 110.3 19.85 96.95 18.75 83.5 11.15 78.05 L5.25 37.95 Q14.95 23.9 33.2 18.1 34.05 -2.2 45.75 18.1 L45.75 25.6 Q45.75 30.4 49.75 33.9 53.75 37.4 59.35 37.4 L64.95 37.4 Q70.55 37.4 74.6 33.9 78.65 30.4 78.65 25.6 L78.65 18.05 Q90.3 -2.2 91.2 18.1" fill="#ffffff" fill-rule="evenodd" stroke="none"/>
  </g>
</svg>
