<?xml version="1.0" encoding="UTF-8" standalone="no"?>
<svg xmlns:xlink="http://www.w3.org/1999/xlink" height="118.05px" width="94.55px" xmlns="http://www.w3.org/2000/svg">
  <g transform="matrix(1.0, 0.0, 0.0, 1.0, -21.15, 17.35)">
    <path d="M56.45 -9.8 Q67.8 -25.35 80.9 -8.85 82.85 -6.35 87.7 -3.1 96.4 2.1 97.05 13.6 100.95 31.7 109.25 44.0 125.9 64.75 99.7 72.0 99.25 87.7 108.6 93.15 69.05 108.1 28.2 93.4 37.65 87.7 37.15 72.0 11.0 64.75 27.6 44.0 35.0 31.4 39.8 13.6 40.4 2.1 49.1 -3.1 53.95 -6.35 56.45 -9.8 M83.1 68.2 Q88.65 61.05 94.65 60.2 105.05 58.9 84.1 18.55 67.1 25.3 52.7 17.55 31.85 58.0 42.25 59.3 48.3 60.2 53.95 67.8 59.6 75.35 68.45 92.15 77.4 75.4 83.1 68.2" fill="#ffffff" fill-rule="evenodd" stroke="none"/>
  </g>
</svg>
