<?xml version="1.0" encoding="UTF-8" standalone="no"?>
<svg xmlns:xlink="http://www.w3.org/1999/xlink" height="109.4px" width="102.7px" xmlns="http://www.w3.org/2000/svg">
  <g transform="matrix(1.0, 0.0, 0.0, 1.0, -17.0, 13.05)">
    <path d="M112.5 37.5 Q120.05 57.55 119.7 81.5 101.9 92.9 79.7 96.35 L79.7 49.75 98.6 42.75 96.5 36.35 94.5 31.5 68.35 41.0 42.35 31.25 Q41.3 33.65 40.4 36.2 39.25 39.25 38.4 42.5 L57.0 49.45 57.0 96.1 Q37.05 94.15 17.0 81.1 17.0 57.55 24.45 37.3 26.5 31.65 29.15 26.3 L29.3 25.8 Q41.45 0.8 68.35 -13.05 93.7 0.8 107.05 25.35 L107.7 26.65 Q110.4 31.9 112.5 37.5" fill="#ffffff" fill-rule="evenodd" stroke="none"/>
  </g>
</svg>
