<?xml version="1.0" encoding="UTF-8" standalone="no"?>
<svg xmlns:xlink="http://www.w3.org/1999/xlink" height="117.9px" width="106.7px" xmlns="http://www.w3.org/2000/svg">
  <g transform="matrix(1.0, 0.0, 0.0, 1.0, -18.3, -19.15)">
    <path d="M109.75 68.85 L109.65 68.35 80.95 72.0 81.0 72.75 81.5 74.65 82.15 75.8 Q83.45 77.65 86.15 78.95 90.75 81.15 96.65 80.35 102.6 79.55 106.45 76.2 108.65 74.25 109.35 72.1 L109.7 70.8 109.75 68.85 M112.25 97.95 Q102.55 121.6 83.85 137.05 L60.1 137.05 Q42.1 121.7 31.45 98.5 18.4 69.3 18.3 32.6 71.05 5.75 125.0 32.6 124.55 68.35 112.25 97.95 M71.75 104.8 L53.3 109.75 53.3 113.45 90.25 113.45 90.25 109.75 71.75 104.8 M33.4 68.85 L33.45 70.8 Q33.5 71.45 33.8 72.1 34.5 74.25 36.7 76.2 40.55 79.55 46.5 80.35 52.4 81.15 57.0 78.95 59.7 77.65 61.0 75.8 L61.65 74.65 62.15 72.75 62.2 72.0 33.5 68.35 33.4 68.85" fill="#ffffff" fill-rule="evenodd" stroke="none"/>
  </g>
</svg>
