<?xml version="1.0" encoding="UTF-8" standalone="no"?>
<svg xmlns:xlink="http://www.w3.org/1999/xlink" height="486.35px" width="374.05px" xmlns="http://www.w3.org/2000/svg">
  <g transform="matrix(1.0, 0.0, 0.0, 1.0, -23.15, 34.8)">
    <path d="M259.0 -14.65 Q279.2 5.5 279.2 34.1 279.2 62.75 259.0 82.85 L254.5 87.1 Q235.75 103.05 210.25 103.05 184.75 103.05 165.95 87.1 L161.5 82.85 Q141.3 62.75 141.3 34.1 141.3 5.5 161.5 -14.65 181.6 -34.8 210.25 -34.8 238.8 -34.8 259.0 -14.65 M306.7 185.35 Q266.8 145.35 210.15 145.35 153.65 145.35 113.6 185.35 73.65 225.4 73.65 281.95 73.65 338.5 113.6 378.55 153.65 418.6 210.15 418.6 266.8 418.6 306.7 378.55 346.8 338.5 346.8 281.95 346.8 225.4 306.7 185.35 M342.45 132.25 Q397.2 187.0 397.2 264.55 397.2 342.0 342.45 396.8 287.7 451.55 210.25 451.55 132.65 451.55 77.9 396.8 23.15 342.0 23.15 264.55 23.15 187.0 77.9 132.25 104.1 106.05 135.3 92.55 138.9 97.0 143.1 101.2 L149.35 107.05 Q175.2 128.95 210.25 128.95 245.3 128.95 271.2 107.05 L277.3 101.2 Q281.6 97.0 285.2 92.5 316.4 106.1 342.45 132.25" fill="#ffffff" fill-rule="evenodd" stroke="none"/>
  </g>
</svg>
