<?xml version="1.0" encoding="UTF-8" standalone="no"?>
<svg xmlns:xlink="http://www.w3.org/1999/xlink" height="108.25px" width="107.45px" xmlns="http://www.w3.org/2000/svg">
  <g transform="matrix(1.0, 0.0, 0.0, 1.0, -5.65, -21.05)">
    <path d="M113.1 61.65 L64.4 96.1 Q65.4 106.75 68.05 113.4 70.0 117.75 67.45 120.1 63.95 122.75 60.2 120.8 54.3 113.3 54.15 104.4 L35.7 127.85 Q32.75 130.15 29.55 128.8 26.3 127.4 26.9 121.9 L41.25 104.4 23.4 119.8 Q19.7 122.15 17.35 119.85 15.05 117.6 17.0 114.0 L32.6 100.55 13.7 110.25 Q8.95 110.65 7.65 107.6 6.45 104.2 8.95 102.35 L24.85 93.75 10.05 97.8 Q5.7 96.25 5.65 93.5 6.0 91.1 8.6 89.4 L20.4 85.55 22.55 84.65 Q27.9 77.35 36.9 72.7 37.7 72.1 38.7 71.6 L54.15 45.4 54.05 45.6 68.45 21.1 Q104.2 19.8 111.55 50.95 L112.05 53.45 113.1 61.65" fill="#ffffff" fill-rule="evenodd" stroke="none"/>
  </g>
</svg>
