<?xml version="1.0" encoding="UTF-8" standalone="no"?>
<svg xmlns:xlink="http://www.w3.org/1999/xlink" height="115.4px" width="115.2px" xmlns="http://www.w3.org/2000/svg">
  <g transform="matrix(1.0, 0.0, 0.0, 1.0, 0.0, 0.0)">
    <path d="M12.95 115.4 Q11.7 115.4 10.5 115.15 9.35 114.9 8.35 114.4 7.3 113.95 6.45 113.25 5.6 112.6 4.9 111.75 4.25 110.9 3.8 109.9 3.3 108.9 3.05 107.75 2.8 106.65 2.8 105.45 2.8 104.2 3.05 102.9 5.05 97.7 6.6 93.3 8.3 88.6 9.7 84.35 11.15 79.95 12.35 75.85 13.55 71.6 14.55 67.55 15.55 63.4 16.35 59.25 17.15 55.1 17.75 50.8 18.35 46.5 18.75 41.95 19.15 37.45 19.4 32.55 19.55 33.4 19.7 34.2 19.9 35.05 20.05 35.85 20.25 36.65 20.4 37.45 20.6 38.25 20.8 39.05 21.0 39.85 21.15 40.65 21.4 41.45 21.6 42.2 21.8 43.0 22.0 43.75 22.25 44.5 22.45 45.3 22.5 45.65 22.65 46.0 22.75 46.35 22.9 46.7 23.1 47.0 23.3 47.3 23.5 47.6 23.75 47.85 24.0 48.1 24.25 48.25 24.5 48.45 24.8 48.6 25.1 48.75 25.4 48.8 25.7 48.9 26.0 48.9 L42.5 48.9 Q44.1 48.9 45.35 48.45 46.55 48.05 47.5 47.3 48.35 46.6 48.95 45.55 49.55 44.6 49.9 43.4 50.2 42.25 50.3 41.0 50.4 39.8 50.35 38.5 50.25 37.3 50.05 36.1 49.85 34.95 49.5 33.95 49.05 32.55 48.6 31.0 48.15 29.35 47.7 27.7 47.25 25.9 46.85 24.1 46.4 22.2 46.05 20.4 45.7 18.5 45.4 16.7 45.1 14.8 44.9 13.05 44.7 11.25 44.65 9.7 44.55 8.0 44.65 6.6 45.1 7.6 45.65 8.6 46.2 9.55 46.9 10.45 47.6 11.35 48.4 12.15 49.2 12.95 50.05 13.6 50.9 14.3 51.85 14.8 52.75 15.35 53.7 15.75 54.7 16.1 55.7 16.3 56.7 16.5 57.65 16.5 58.6 16.5 59.6 16.3 60.6 16.1 61.55 15.7 62.5 15.3 63.45 14.8 64.35 14.25 65.2 13.55 66.05 12.9 66.85 12.1 67.65 11.3 68.3 10.45 69.0 9.55 69.55 8.6 70.15 7.6 70.55 6.6 70.65 8.0 70.55 9.65 70.5 11.25 70.3 13.05 70.1 14.8 69.8 16.7 69.5 18.5 69.15 20.4 68.8 22.2 68.35 24.1 67.95 25.9 67.5 27.7 67.05 29.35 66.55 31.0 66.15 32.55 65.7 33.95 65.35 34.95 65.15 36.1 64.95 37.3 64.85 38.5 64.8 39.8 64.9 41.0 65.0 42.25 65.3 43.4 65.65 44.6 66.25 45.55 66.85 46.55 67.7 47.3 68.65 48.05 69.85 48.45 71.15 48.9 72.7 48.9 L89.2 48.9 Q89.5 48.9 89.8 48.8 90.1 48.75 90.4 48.6 90.7 48.45 90.95 48.25 91.2 48.1 91.45 47.85 91.7 47.6 91.9 47.3 92.1 47.0 92.3 46.7 92.45 46.35 92.55 46.0 92.7 45.65 92.75 45.3 93.0 44.55 93.2 43.75 93.4 43.0 93.6 42.2 93.85 41.45 94.05 40.65 94.25 39.85 94.4 39.05 94.6 38.3 94.8 37.45 94.95 36.65 95.15 35.85 95.3 35.05 95.5 34.2 95.65 33.4 95.8 32.55 96.05 37.45 96.45 41.95 96.85 46.5 97.45 50.8 98.05 55.05 98.85 59.25 99.65 63.4 100.65 67.55 101.65 71.6 102.85 75.85 104.05 79.95 105.5 84.4 106.9 88.6 108.6 93.35 110.15 97.7 112.15 102.9 112.4 104.2 112.4 105.4 112.4 106.65 112.15 107.75 111.9 108.9 111.4 109.9 110.95 110.9 110.3 111.75 109.6 112.6 108.75 113.25 107.9 113.95 106.9 114.4 105.85 114.9 104.7 115.15 103.55 115.4 102.25 115.4 L12.95 115.4 12.95 115.4 M41.05 0.0 Q41.0 2.05 41.1 4.3 41.15 6.55 41.35 8.9 41.5 11.2 41.8 13.55 42.05 15.9 42.4 18.2 42.75 20.55 43.15 22.75 43.6 24.95 44.05 27.0 44.55 29.05 45.05 30.9 45.55 32.7 46.1 34.25 46.4 35.0 46.6 35.75 46.8 36.65 46.95 37.45 47.1 38.4 47.05 39.2 47.05 40.1 46.85 40.9 46.65 41.75 46.2 42.4 45.7 43.1 45.0 43.6 44.2 44.15 43.1 44.45 41.95 44.75 40.45 44.75 L26.75 44.75 Q26.65 44.75 26.5 44.7 26.4 44.7 26.3 44.65 26.15 44.55 26.05 44.5 25.95 44.4 25.85 44.3 25.75 44.2 25.7 44.1 25.6 44.0 25.55 43.85 25.45 43.75 25.45 43.6 25.4 43.45 25.35 43.3 24.65 40.85 24.0 38.45 23.4 36.0 22.85 33.55 22.3 31.05 21.8 28.6 21.3 26.1 20.9 23.6 20.5 21.05 20.2 18.55 19.9 15.95 19.65 13.4 19.4 10.8 19.3 8.25 19.15 5.6 19.1 3.0 19.15 2.7 19.2 2.4 19.3 2.1 19.45 1.8 19.6 1.55 19.75 1.3 19.95 1.05 20.15 0.85 20.4 0.65 20.65 0.5 20.9 0.35 21.2 0.25 21.45 0.1 21.75 0.05 22.1 0.0 22.4 0.0 L41.05 0.0 41.05 0.0 M74.15 0.0 Q74.2 2.05 74.1 4.3 74.05 6.55 73.85 8.9 73.7 11.2 73.4 13.55 73.15 15.9 72.8 18.2 72.45 20.55 72.05 22.75 71.6 24.95 71.15 27.0 70.65 29.05 70.15 30.9 69.65 32.7 69.1 34.25 68.8 35.0 68.6 35.75 68.4 36.65 68.25 37.45 68.1 38.4 68.15 39.2 68.15 40.1 68.35 40.9 68.55 41.75 69.0 42.4 69.5 43.1 70.2 43.6 71.0 44.15 72.1 44.45 73.25 44.75 74.75 44.75 L88.45 44.75 Q88.55 44.75 88.7 44.7 88.8 44.7 88.9 44.65 89.05 44.55 89.15 44.5 89.25 44.4 89.35 44.3 89.45 44.2 89.5 44.1 89.6 44.0 89.65 43.85 89.75 43.75 89.75 43.6 89.8 43.45 89.85 43.3 90.55 40.85 91.2 38.45 91.8 36.0 92.35 33.55 92.9 31.05 93.4 28.6 93.9 26.1 94.3 23.6 94.7 21.05 95.0 18.55 95.3 15.95 95.55 13.4 95.8 10.8 95.9 8.25 96.05 5.6 96.1 3.0 96.05 2.7 96.0 2.4 95.9 2.1 95.75 1.8 95.6 1.55 95.45 1.3 95.25 1.05 95.05 0.85 94.8 0.65 94.55 0.5 94.3 0.35 94.0 0.25 93.75 0.1 93.45 0.05 93.1 0.0 92.8 0.0 L74.15 0.0 74.15 0.0" fill="#ffffff" fill-rule="evenodd" stroke="none"/>
  </g>
</svg>
