<?xml version="1.0" encoding="UTF-8" standalone="no"?>
<svg xmlns:xlink="http://www.w3.org/1999/xlink" height="118.05px" width="80.4px" xmlns="http://www.w3.org/2000/svg">
  <g transform="matrix(1.0, 0.0, 0.0, 1.0, 3.0, 4.35)">
    <path d="M22.15 74.75 Q27.95 77.6 36.2 77.6 44.45 77.6 50.25 74.75 55.6 72.05 56.1 68.35 L56.1 67.7 Q56.1 63.75 50.25 60.9 44.45 57.95 36.2 57.95 27.95 57.95 22.15 60.9 16.3 63.75 16.3 67.7 L16.3 68.35 Q16.75 72.05 22.15 74.75 M32.0 -4.35 L41.4 -4.35 Q46.5 -4.35 46.5 0.9 L46.5 4.65 49.2 4.65 Q50.95 4.65 52.2 5.95 53.55 7.2 53.55 9.05 53.55 10.8 52.2 12.05 50.95 13.35 49.2 13.35 L47.95 13.35 47.95 38.7 Q57.85 41.35 65.6 49.05 77.4 60.9 77.4 77.55 77.4 94.15 65.6 105.95 60.75 110.8 55.1 113.6 L54.95 113.7 19.45 113.7 Q13.65 110.8 8.75 105.95 -3.0 94.15 -3.0 77.55 -3.0 60.9 8.75 49.05 16.25 41.6 25.7 38.95 L25.7 13.35 24.15 13.35 Q22.3 13.35 21.05 12.05 19.75 10.8 19.75 9.05 19.75 7.2 21.05 5.95 22.3 4.65 24.15 4.65 L27.0 4.65 27.0 0.9 Q27.0 -4.35 32.0 -4.35" fill="#ffffff" fill-rule="evenodd" stroke="none"/>
  </g>
</svg>
