<?xml version="1.0" encoding="UTF-8" standalone="no"?>
<svg xmlns:xlink="http://www.w3.org/1999/xlink" height="116.95px" width="106.5px" xmlns="http://www.w3.org/2000/svg">
  <g transform="matrix(1.0, 0.0, 0.0, 1.0, -895.85, -275.75)">
    <path d="M995.2 358.75 Q995.75 361.7 995.25 364.6 994.75 367.3 993.35 369.85 992.05 372.3 989.95 374.55 988.0 376.65 985.45 378.5 983.0 380.3 980.15 381.75 977.4 383.15 974.5 384.1 971.65 385.1 968.85 385.6 966.05 386.1 963.55 386.1 961.4 386.1 958.7 385.8 955.3 385.5 951.8 384.75 947.65 383.9 943.65 382.55 939.0 381.0 934.8 378.9 930.1 376.5 926.05 373.45 921.55 370.0 918.0 365.8 914.1 361.2 911.35 355.7 908.35 349.75 906.75 342.75 906.7 342.6 906.95 343.0 907.45 343.8 908.05 344.55 909.05 345.85 910.4 347.1 912.2 348.7 914.4 350.15 917.1 351.85 920.4 353.25 924.15 354.9 928.7 356.1 933.75 357.4 939.7 358.15 946.25 358.95 953.8 359.05 954.8 359.05 957.15 358.45 958.65 358.1 962.35 357.0 966.55 355.8 968.75 355.2 972.65 354.15 975.7 353.55 979.5 352.8 982.5 352.55 985.95 352.3 988.45 352.75 991.25 353.25 992.9 354.65 994.75 356.15 995.2 358.75 L995.2 358.75 M904.85 277.5 L904.1 281.9 Q903.8 282.55 904.15 283.3 904.5 284.05 905.4 284.8 906.25 285.5 907.45 286.1 908.7 286.75 910.1 287.2 911.55 287.65 912.95 287.85 914.4 288.05 915.65 287.9 917.0 287.8 917.95 287.25 918.95 286.7 919.4 285.75 L921.25 280.3 Q921.45 279.6 920.9 278.9 920.4 278.25 919.35 277.7 918.3 277.15 916.9 276.75 915.55 276.35 914.0 276.1 912.45 275.9 910.95 275.8 909.45 275.75 908.2 275.9 906.85 276.1 906.0 276.45 905.1 276.85 904.85 277.5 L904.85 277.5 M968.5 329.3 Q967.75 329.3 966.1 329.55 965.6 329.6 962.5 330.05 959.9 330.45 958.0 330.7 955.25 331.05 952.85 331.2 949.95 331.45 947.45 331.45 944.5 331.4 942.0 331.1 939.25 330.8 936.95 330.05 934.4 329.3 932.5 328.1 929.45 326.2 927.25 322.85 925.25 319.9 923.95 315.8 922.85 312.25 922.2 307.85 921.7 304.25 921.5 300.0 921.4 297.05 921.4 293.1 921.4 288.85 921.4 288.25 921.3 286.35 921.0 286.25 920.65 286.15 919.8 288.1 919.45 288.9 918.55 289.45 917.65 290.0 916.35 290.3 915.1 290.6 913.6 290.6 912.15 290.6 910.6 290.35 909.05 290.1 907.7 289.6 906.25 289.1 905.15 288.35 904.0 287.55 903.35 286.6 902.65 285.55 902.65 284.35 902.7 283.65 902.55 283.45 902.4 283.25 902.1 283.7 901.8 284.1 901.35 285.15 900.9 286.25 900.4 287.9 899.85 289.75 899.3 292.05 898.7 294.7 898.15 297.75 897.55 301.2 897.05 305.1 896.45 309.35 896.0 314.1 895.85 316.15 895.95 318.85 896.05 321.35 896.35 324.4 896.6 327.15 897.05 330.3 897.4 333.15 897.9 336.2 898.35 338.9 898.9 341.6 899.35 344.0 899.8 346.15 900.25 348.1 900.55 349.45 900.9 350.75 901.0 351.1 904.3 359.05 908.5 365.55 912.4 371.5 917.0 376.15 921.25 380.45 926.1 383.6 930.45 386.45 935.3 388.4 939.55 390.1 944.2 391.15 948.1 392.0 952.3 392.4 955.55 392.65 959.25 392.7 957.2 392.7 964.5 392.7 967.45 392.7 970.65 392.25 973.9 391.8 977.15 390.9 980.5 390.0 983.6 388.7 986.85 387.3 989.65 385.6 992.6 383.75 994.9 381.55 997.35 379.2 999.0 376.6 1000.75 373.8 1001.5 370.7 1002.35 367.45 1002.1 363.9 1001.95 361.7 1001.2 359.1 1000.45 356.45 999.2 353.6 997.85 350.7 996.1 347.85 994.25 344.9 992.1 342.25 989.75 339.45 987.2 337.2 984.5 334.8 981.6 333.1 978.5 331.3 975.3 330.35 971.9 329.3 968.5 329.3 L968.5 329.3" fill="#ffffff" fill-rule="evenodd" stroke="none"/>
  </g>
</svg>
