<?xml version="1.0" encoding="UTF-8" standalone="no"?>
<svg xmlns:xlink="http://www.w3.org/1999/xlink" height="94.0px" width="125.0px" xmlns="http://www.w3.org/2000/svg">
  <g transform="matrix(1.0, 0.0, 0.0, 1.0, 0.0, 0.0)">
    <path d="M112.35 15.15 L121.35 5.85 Q119.05 4.1 116.0 2.95 113.1 1.85 109.55 1.3 106.2 0.75 102.45 0.7 98.8 0.7 94.95 1.15 91.2 1.6 87.5 2.45 83.85 3.25 80.45 4.45 77.05 5.65 74.15 7.1 71.2 8.55 68.95 10.2 67.85 9.9 66.75 9.6 65.65 9.35 64.55 9.15 63.5 9.0 62.35 8.85 61.3 8.7 60.15 8.65 59.1 8.55 57.95 8.5 56.9 8.45 55.75 8.45 54.7 8.45 53.55 8.5 52.5 8.5 51.3 8.55 48.7 8.65 47.1 9.3 45.6 9.85 45.0 10.85 44.4 11.75 44.5 13.0 44.65 14.15 45.35 15.6 46.0 16.85 47.05 18.35 48.0 19.65 49.25 21.1 50.25 22.25 51.55 23.6 52.05 24.1 53.55 25.65 52.85 26.8 52.15 28.0 51.45 29.15 50.75 30.35 50.05 31.5 49.4 32.75 48.7 33.9 48.05 35.1 47.4 36.3 46.75 37.5 46.1 38.7 45.45 39.95 44.8 41.15 44.15 42.35 43.55 43.55 42.9 44.8 42.45 46.1 41.8 47.2 41.2 48.3 40.5 49.2 39.75 50.1 38.9 50.85 38.05 51.55 37.05 52.1 36.1 52.6 35.0 52.95 33.9 53.3 32.7 53.5 31.45 53.65 30.15 53.65 28.8 53.65 27.35 53.5 L18.9 51.8 Q18.45 51.7 16.75 51.35 15.05 50.95 13.9 50.75 12.1 50.4 10.65 50.2 8.85 49.95 7.4 49.9 5.7 49.85 4.45 50.1 3.1 50.4 2.25 51.0 1.35 51.65 1.05 52.75 0.8 53.95 1.3 55.6 1.8 56.7 2.5 57.8 3.2 58.9 4.05 60.0 4.85 61.0 5.9 62.1 6.85 63.1 7.95 64.15 9.0 65.1 10.25 66.15 11.4 67.1 12.7 68.15 13.9 69.05 15.3 70.1 16.45 70.95 17.95 72.05 18.05 72.8 18.2 73.6 18.35 74.35 18.5 75.15 18.65 75.9 18.8 76.7 18.95 77.45 19.15 78.25 19.3 79.0 19.5 79.8 19.7 80.6 19.9 81.4 20.1 82.2 20.3 83.0 20.5 83.75 20.75 84.55 21.35 86.8 22.1 88.5 22.75 90.2 23.55 91.35 24.3 92.5 25.1 93.05 25.9 93.65 26.7 93.65 27.5 93.7 28.3 93.15 29.1 92.65 29.9 91.6 30.65 90.5 31.4 88.95 32.15 87.35 32.8 85.25 L37.65 69.8 Q37.95 68.8 38.3 67.9 38.65 67.0 39.05 66.25 39.5 65.5 39.95 64.85 40.45 64.25 41.0 63.7 41.55 63.2 42.2 62.8 42.8 62.45 43.45 62.15 44.1 61.9 44.85 61.7 45.55 61.55 46.3 61.5 48.45 61.3 50.85 61.3 52.85 61.35 55.3 61.5 56.55 61.55 59.75 61.8 62.6 62.0 64.3 62.1 66.9 62.25 69.1 62.2 71.7 62.2 74.15 61.95 76.85 61.7 79.6 61.15 82.55 60.55 85.5 59.65 85.65 60.45 85.8 61.25 86.0 62.05 86.15 62.85 86.35 63.65 86.55 64.45 86.75 65.25 87.0 66.05 87.2 66.85 87.45 67.65 87.7 68.45 87.95 69.25 88.2 70.0 88.5 70.8 88.8 71.6 89.05 72.35 89.4 72.95 89.75 73.35 90.1 73.8 90.5 74.1 90.9 74.4 91.35 74.55 91.8 74.7 92.3 74.7 92.75 74.7 93.3 74.55 93.8 74.35 94.4 74.05 94.95 73.7 95.6 73.2 96.2 72.65 96.85 71.95 97.5 70.85 98.15 69.65 98.75 68.5 99.3 67.3 99.85 66.1 100.35 64.85 100.85 63.65 101.25 62.35 101.7 61.1 102.1 59.8 102.45 58.5 102.8 57.15 103.15 55.85 103.4 54.45 103.65 53.1 103.9 51.7 106.2 49.3 108.35 46.7 110.45 44.1 112.4 41.3 114.3 38.6 115.95 35.75 117.55 32.95 118.9 30.2 120.25 27.4 121.25 24.7 122.25 21.95 122.9 19.45 123.55 16.9 123.75 14.6 123.95 12.3 123.7 10.35 L112.35 15.15 112.35 15.15 112.35 15.15 M102.25 6.3 Q101.8 6.2 101.3 6.15 100.8 6.1 100.35 6.2 99.9 6.25 99.45 6.4 99.05 6.55 98.65 6.8 98.25 7.0 97.9 7.3 97.55 7.6 97.25 8.0 96.95 8.35 96.75 8.8 96.55 9.2 96.4 9.7 96.25 10.15 96.25 10.65 96.2 11.1 96.3 11.6 96.35 12.05 96.5 12.45 96.65 12.9 96.9 13.3 97.1 13.7 97.4 14.05 97.7 14.4 98.1 14.7 98.45 14.95 98.85 15.2 99.3 15.4 99.75 15.5 100.2 15.65 100.7 15.65 101.2 15.7 101.65 15.65 102.1 15.55 102.55 15.4 103.0 15.25 103.4 15.05 103.8 14.8 104.15 14.5 104.5 14.2 104.75 13.85 105.05 13.5 105.25 13.05 105.5 12.6 105.6 12.15 105.75 11.7 105.75 11.2 105.8 10.75 105.75 10.25 105.65 9.8 105.5 9.35 105.35 8.95 105.15 8.55 104.9 8.15 104.6 7.8 104.3 7.45 103.95 7.15 103.55 6.85 103.15 6.65 102.7 6.45 102.25 6.3 L102.25 6.3 102.25 6.3" fill="#ffffff" fill-rule="evenodd" stroke="none"/>
  </g>
</svg>
