<?xml version="1.0" encoding="UTF-8" standalone="no"?>
<svg xmlns:xlink="http://www.w3.org/1999/xlink" height="75.0px" width="135.0px" xmlns="http://www.w3.org/2000/svg">
  <g transform="matrix(1.0, 0.0, 0.0, 1.0, 0.0, 0.0)">
    <path d="M120.95 49.95 Q120.05 49.8 119.2 49.6 118.35 49.35 117.55 49.05 116.75 48.75 116.0 48.35 115.2 47.9 114.5 47.45 113.75 46.95 113.1 46.35 112.4 45.8 111.8 45.15 111.15 44.45 110.6 43.75 110.05 43.0 109.55 42.2 108.95 43.15 108.3 44.05 107.6 44.9 106.85 45.65 106.05 46.4 105.2 47.05 104.35 47.65 103.45 48.2 102.55 48.7 101.6 49.1 100.65 49.5 99.65 49.75 98.65 50.0 97.6 50.15 96.55 50.3 95.5 50.3 94.45 50.3 93.4 50.15 92.4 50.0 91.4 49.75 90.4 49.45 89.45 49.05 88.5 48.65 87.6 48.1 86.7 47.6 85.85 46.95 85.05 46.3 84.25 45.55 83.5 44.85 82.8 44.0 82.1 43.15 81.45 42.2 80.45 43.8 79.2 45.1 77.95 46.4 76.5 47.4 75.1 48.4 73.55 49.05 72.0 49.7 70.35 50.0 68.7 50.3 67.05 50.3 65.4 50.25 63.8 49.85 62.15 49.45 60.6 48.75 59.0 47.95 57.6 46.85 57.3 46.6 57.0 46.4 56.75 46.15 56.45 45.9 56.2 45.6 55.9 45.35 55.65 45.05 55.4 44.8 55.1 44.5 54.85 44.2 54.6 43.9 54.35 43.55 54.1 43.25 53.85 42.9 53.65 42.55 53.4 42.2 52.4 43.8 51.1 45.1 49.9 46.4 48.45 47.4 47.0 48.4 45.45 49.05 43.9 49.7 42.3 50.0 40.65 50.3 39.0 50.3 37.35 50.25 35.7 49.85 34.05 49.45 32.5 48.75 30.95 47.95 29.55 46.85 29.25 46.6 28.95 46.4 28.7 46.15 28.4 45.9 28.1 45.6 27.85 45.35 27.55 45.05 27.3 44.8 27.05 44.5 26.8 44.2 26.55 43.9 26.3 43.55 26.05 43.25 25.8 42.9 25.55 42.55 25.3 42.2 24.8 42.95 24.25 43.7 23.7 44.4 23.05 45.05 22.4 45.65 21.75 46.25 21.05 46.8 20.3 47.3 19.6 47.8 18.8 48.2 18.05 48.6 17.25 48.95 16.45 49.3 15.6 49.55 14.8 49.8 13.95 49.95 13.8 50.0 13.65 50.05 13.55 50.1 13.4 50.15 13.3 50.25 13.2 50.35 13.1 50.45 13.05 50.55 12.95 50.65 12.9 50.8 12.85 50.9 12.85 51.05 12.8 51.2 12.8 51.35 12.8 51.5 12.85 51.65 L12.85 52.0 15.65 62.15 Q16.15 63.6 16.85 64.9 17.5 66.2 18.35 67.4 19.2 68.55 20.15 69.55 21.15 70.55 22.25 71.4 23.35 72.2 24.55 72.85 25.8 73.45 27.05 73.9 28.4 74.3 29.75 74.5 31.1 74.7 32.5 74.7 L102.35 74.7 Q103.75 74.75 105.15 74.5 106.5 74.3 107.8 73.85 109.1 73.45 110.35 72.8 111.55 72.15 112.65 71.3 113.8 70.45 114.75 69.45 115.75 68.4 116.6 67.25 117.4 66.05 118.1 64.75 118.75 63.4 119.2 61.95 L122.0 52.2 Q122.05 52.05 122.1 51.9 122.15 51.8 122.15 51.6 122.15 51.45 122.1 51.3 122.1 51.15 122.05 51.0 122.0 50.85 121.95 50.75 121.9 50.6 121.8 50.5 121.7 50.35 121.6 50.25 121.5 50.2 121.4 50.1 121.35 50.05 121.35 50.05 121.3 50.0 121.3 50.0 121.25 50.0 121.25 50.0 121.2 49.95 121.15 49.95 121.15 49.95 121.1 49.95 121.1 49.95 121.05 49.95 121.0 49.95 121.0 49.95 120.95 49.95 120.95 49.95 L120.95 49.95 120.95 49.95" fill="#ffffff" fill-rule="evenodd" stroke="none"/>
    <path d="M131.55 30.25 L110.95 14.85 Q106.15 11.3 100.85 8.55 95.65 5.85 90.05 4.05 84.55 2.25 78.85 1.35 73.2 0.45 67.45 0.45 61.7 0.45 56.0 1.35 50.3 2.25 44.8 4.05 39.25 5.85 34.05 8.55 28.75 11.25 23.9 14.85 L3.35 30.25 Q3.0 30.5 2.7 30.8 2.35 31.1 2.1 31.45 1.8 31.8 1.55 32.15 1.35 32.5 1.15 32.9 0.95 33.25 0.8 33.65 0.65 34.05 0.55 34.5 0.45 34.9 0.4 35.35 0.35 35.75 0.35 36.2 0.35 37.35 0.55 38.4 0.8 39.5 1.2 40.45 1.6 41.45 2.2 42.35 2.8 43.2 3.55 43.95 4.3 44.7 5.15 45.25 6.05 45.85 7.0 46.25 8.0 46.7 9.05 46.9 10.15 47.1 11.3 47.1 12.4 47.1 13.5 46.9 14.55 46.7 15.55 46.25 16.55 45.85 17.4 45.25 18.3 44.7 19.0 43.95 19.75 43.2 20.35 42.35 20.95 41.45 21.35 40.45 21.75 39.5 22.0 38.4 22.2 37.35 22.2 36.2 L22.2 35.9 Q22.2 35.6 22.25 35.25 22.3 34.95 22.45 34.7 22.55 34.4 22.75 34.15 22.9 33.9 23.1 33.7 23.35 33.45 23.6 33.3 23.85 33.15 24.1 33.0 24.4 32.9 24.7 32.85 25.0 32.75 25.3 32.75 25.6 32.75 25.95 32.8 26.25 32.9 26.5 33.0 26.8 33.15 27.05 33.3 27.3 33.45 27.5 33.7 27.75 33.9 27.9 34.15 28.05 34.4 28.2 34.7 28.3 34.95 28.35 35.25 28.45 35.55 28.45 35.9 L28.45 36.2 Q28.45 37.35 28.65 38.4 28.9 39.5 29.3 40.45 29.7 41.45 30.3 42.35 30.9 43.2 31.6 43.95 32.35 44.7 33.25 45.25 34.1 45.85 35.1 46.25 36.1 46.7 37.15 46.9 38.25 47.1 39.35 47.1 40.5 47.1 41.55 46.9 42.65 46.7 43.65 46.25 44.6 45.85 45.5 45.25 46.35 44.7 47.1 43.95 47.85 43.2 48.4 42.35 49.0 41.45 49.4 40.45 49.85 39.5 50.05 38.4 50.3 37.35 50.3 36.2 L50.3 35.9 Q50.3 35.6 50.35 35.25 50.4 34.95 50.55 34.7 50.65 34.4 50.8 34.15 51.0 33.9 51.2 33.7 51.4 33.45 51.65 33.3 51.9 33.15 52.2 33.0 52.45 32.9 52.75 32.85 53.1 32.75 53.4 32.75 53.7 32.75 54.05 32.8 54.35 32.9 54.6 33.0 54.9 33.15 55.15 33.3 55.4 33.45 55.6 33.7 55.8 33.9 56.0 34.15 56.15 34.4 56.25 34.7 56.4 34.95 56.45 35.25 56.5 35.55 56.5 35.9 L56.5 36.2 Q56.5 37.35 56.7 38.4 56.95 39.5 57.35 40.45 57.75 41.45 58.35 42.35 58.95 43.2 59.7 43.95 60.45 44.7 61.3 45.25 62.2 45.85 63.15 46.25 64.15 46.7 65.2 46.9 66.3 47.1 67.45 47.1 68.55 47.1 69.65 46.9 70.7 46.7 71.7 46.25 72.7 45.85 73.55 45.25 74.45 44.7 75.2 43.95 75.9 43.2 76.5 42.35 77.1 41.45 77.5 40.45 77.9 39.5 78.15 38.4 78.35 37.35 78.35 36.2 L78.35 35.9 Q78.35 35.6 78.4 35.25 78.5 34.95 78.6 34.7 78.7 34.4 78.9 34.15 79.05 33.9 79.25 33.7 79.5 33.45 79.75 33.3 80.0 33.15 80.25 33.0 80.55 32.9 80.85 32.85 81.15 32.75 81.45 32.75 81.75 32.75 82.1 32.8 82.4 32.9 82.65 33.0 82.95 33.15 83.2 33.3 83.45 33.45 83.65 33.7 83.9 33.9 84.05 34.15 84.25 34.4 84.35 34.7 84.45 34.95 84.55 35.25 84.6 35.55 84.6 35.9 L84.6 36.2 Q84.6 37.35 84.8 38.4 85.05 39.5 85.45 40.45 85.85 41.45 86.45 42.35 87.05 43.2 87.75 43.95 88.5 44.7 89.4 45.25 90.25 45.85 91.25 46.25 92.25 46.7 93.3 46.9 94.4 47.1 95.5 47.1 96.65 47.1 97.7 46.9 98.8 46.7 99.8 46.25 100.75 45.85 101.65 45.25 102.5 44.7 103.25 43.95 104.0 43.2 104.6 42.35 105.15 41.45 105.6 40.45 106.0 39.5 106.2 38.4 106.45 37.35 106.45 36.2 L106.45 35.9 Q106.45 35.6 106.5 35.25 106.55 34.95 106.7 34.7 106.8 34.4 106.95 34.15 107.15 33.9 107.35 33.7 107.55 33.45 107.8 33.3 108.05 33.15 108.35 33.0 108.6 32.9 108.9 32.85 109.25 32.75 109.55 32.75 109.85 32.75 110.2 32.8 110.5 32.9 110.75 33.0 111.05 33.15 111.3 33.3 111.55 33.45 111.75 33.7 111.95 33.9 112.15 34.15 112.3 34.4 112.4 34.7 112.55 34.95 112.6 35.25 112.65 35.55 112.65 35.9 L112.65 36.2 Q112.65 37.35 112.9 38.4 113.1 39.5 113.5 40.45 113.9 41.45 114.5 42.35 115.1 43.2 115.85 43.95 116.6 44.7 117.45 45.25 118.35 45.85 119.3 46.25 120.3 46.7 121.35 46.9 122.45 47.1 123.6 47.1 124.7 47.1 125.8 46.9 126.85 46.7 127.85 46.25 128.85 45.85 129.7 45.25 130.6 44.7 131.35 43.95 132.05 43.2 132.65 42.35 133.25 41.45 133.65 40.45 134.05 39.5 134.3 38.4 134.5 37.35 134.5 36.2 134.5 35.75 134.45 35.35 134.4 34.9 134.3 34.5 134.2 34.05 134.05 33.65 133.9 33.25 133.7 32.9 133.55 32.5 133.3 32.15 133.05 31.8 132.8 31.45 132.5 31.15 132.2 30.85 131.9 30.55 131.55 30.25 L131.55 30.25 131.55 30.25 M52.6 10.0 L51.2 13.45 Q51.1 13.7 51.0 13.9 50.9 14.1 50.75 14.3 50.6 14.5 50.45 14.65 50.25 14.85 50.1 15.0 49.9 15.15 49.7 15.25 49.45 15.35 49.25 15.45 49.0 15.55 48.75 15.55 48.5 15.6 48.25 15.6 47.9 15.6 47.55 15.55 47.25 15.5 46.95 15.35 46.65 15.25 46.4 15.05 46.15 14.9 45.9 14.65 45.7 14.45 45.5 14.2 45.35 13.95 45.2 13.65 45.1 13.35 45.05 13.0 44.95 12.7 44.95 12.35 44.95 12.1 45.0 11.85 45.05 11.55 45.1 11.35 45.2 11.1 45.3 10.85 45.4 10.65 45.5 10.45 45.65 10.2 45.8 10.05 45.95 9.85 46.15 9.7 46.35 9.55 46.55 9.45 46.75 9.3 47.0 9.2 L50.45 7.8 Q50.6 7.75 50.8 7.7 50.95 7.7 51.15 7.7 51.3 7.75 51.45 7.75 51.6 7.8 51.75 7.9 51.9 7.95 52.05 8.05 52.15 8.15 52.25 8.3 52.4 8.4 52.45 8.55 52.55 8.75 52.6 8.9 52.65 8.95 52.65 9.0 52.7 9.1 52.7 9.15 52.7 9.25 52.7 9.3 52.75 9.4 52.75 9.45 52.75 9.5 52.7 9.6 52.7 9.65 52.7 9.75 52.7 9.8 52.65 9.85 52.65 9.95 52.6 10.0 L52.6 10.0 52.6 10.0 M69.0 14.2 Q68.75 14.45 68.5 14.6 68.2 14.8 67.9 14.9 67.6 15.0 67.3 15.1 67.0 15.15 66.65 15.15 66.35 15.15 66.0 15.1 65.7 15.0 65.4 14.9 65.1 14.8 64.8 14.6 64.55 14.45 64.3 14.2 64.15 14.05 64.0 13.85 63.85 13.65 63.75 13.4 63.6 13.2 63.55 13.0 63.45 12.75 63.4 12.55 63.35 12.3 63.35 12.05 63.35 11.8 63.4 11.55 63.45 11.35 63.5 11.1 63.55 10.85 63.7 10.6 L65.1 7.2 Q65.2 7.05 65.3 6.95 65.4 6.8 65.55 6.7 65.7 6.6 65.85 6.55 66.0 6.45 66.15 6.4 66.3 6.35 66.45 6.35 66.65 6.35 66.8 6.35 66.95 6.35 67.15 6.4 67.3 6.5 67.45 6.55 67.5 6.6 67.55 6.6 67.6 6.65 67.65 6.7 67.7 6.7 67.75 6.75 67.75 6.8 67.8 6.8 67.85 6.85 67.85 6.9 67.9 6.95 67.95 7.0 67.95 7.05 68.0 7.1 68.05 7.15 68.05 7.2 L69.6 10.6 Q69.7 10.85 69.75 11.1 69.8 11.3 69.85 11.55 69.85 11.8 69.85 12.05 69.85 12.3 69.85 12.55 69.8 12.75 69.7 13.0 69.65 13.2 69.55 13.45 69.45 13.65 69.3 13.85 69.15 14.05 69.0 14.2 L69.0 14.2 69.0 14.2 M86.6 15.6 Q86.35 15.6 86.1 15.55 85.85 15.5 85.6 15.45 85.4 15.35 85.2 15.25 84.95 15.15 84.8 15.0 84.6 14.85 84.45 14.65 84.25 14.5 84.1 14.3 84.0 14.1 83.85 13.9 83.75 13.65 83.65 13.45 L82.25 10.0 Q82.2 9.85 82.15 9.65 82.15 9.5 82.15 9.3 82.15 9.15 82.2 9.0 82.25 8.8 82.35 8.65 82.4 8.5 82.5 8.4 82.6 8.25 82.75 8.15 82.85 8.05 83.0 7.95 83.15 7.85 83.35 7.8 83.4 7.75 83.45 7.75 83.55 7.75 83.6 7.7 83.65 7.7 83.75 7.7 83.8 7.7 83.9 7.7 83.95 7.7 84.05 7.7 84.1 7.7 84.2 7.7 84.25 7.75 84.3 7.75 84.4 7.8 84.45 7.8 L87.85 9.2 Q88.1 9.3 88.3 9.4 88.5 9.55 88.7 9.7 88.9 9.85 89.05 10.05 89.2 10.2 89.35 10.4 89.5 10.65 89.6 10.85 89.7 11.1 89.75 11.3 89.8 11.55 89.85 11.8 89.9 12.05 89.9 12.35 89.9 12.7 89.85 13.0 89.75 13.35 89.65 13.65 89.55 13.95 89.35 14.2 89.2 14.45 88.95 14.7 88.75 14.9 88.5 15.05 88.2 15.25 87.9 15.35 87.6 15.5 87.3 15.55 86.95 15.6 86.6 15.6 L86.6 15.6 86.6 15.6" fill="#ffffff" fill-rule="evenodd" stroke="none"/>
  </g>
</svg>
