<?xml version="1.0" encoding="UTF-8" standalone="no"?>
<svg xmlns:xlink="http://www.w3.org/1999/xlink" height="80.0px" width="140.0px" xmlns="http://www.w3.org/2000/svg">
  <g transform="matrix(1.0, 0.0, 0.0, 1.0, 0.0, 0.0)">
    <path d="M138.8 21.95 Q138.7 22.15 138.55 22.35 138.45 22.55 138.3 22.75 138.15 22.95 138.0 23.15 137.85 23.35 137.65 23.55 137.5 23.75 137.3 23.9 137.15 24.1 136.95 24.3 136.75 24.5 136.55 24.65 136.35 24.85 136.1 25.0 135.75 25.3 135.35 25.6 134.95 25.85 134.5 26.15 134.05 26.45 133.6 26.7 133.15 26.95 132.65 27.25 132.1 27.5 131.55 27.75 131.05 28.0 130.45 28.25 129.85 28.5 129.25 28.75 128.6 28.95 127.95 29.2 126.75 29.6 125.45 30.0 124.2 30.35 122.9 30.7 121.65 31.05 120.3 31.35 119.1 31.65 117.75 31.9 116.6 32.15 115.35 32.35 114.3 32.55 113.15 32.75 112.25 32.9 111.2 33.1 110.6 33.2 109.6 33.35 107.25 33.7 104.9 34.05 102.55 34.35 100.15 34.65 97.8 34.95 95.4 35.15 93.0 35.4 90.6 35.6 88.15 35.8 85.75 35.9 83.3 36.05 80.85 36.15 78.45 36.25 76.0 36.3 73.55 36.35 71.05 36.35 68.6 36.35 66.15 36.3 63.65 36.25 61.2 36.15 58.75 36.05 56.25 35.9 53.8 35.8 51.3 35.6 48.85 35.4 46.4 35.15 43.95 34.95 41.45 34.65 39.0 34.4 36.55 34.05 34.1 33.75 31.65 33.35 30.25 33.15 28.9 32.9 27.55 32.7 26.25 32.45 24.95 32.2 23.75 31.95 22.5 31.75 21.35 31.5 20.15 31.2 19.05 30.95 17.95 30.7 16.95 30.4 15.9 30.15 14.95 29.85 13.95 29.6 13.05 29.3 12.4 29.1 11.8 28.9 11.2 28.65 10.65 28.45 10.1 28.25 9.55 28.0 9.0 27.8 8.5 27.6 8.0 27.35 7.5 27.15 7.05 26.9 6.6 26.65 6.15 26.45 5.75 26.2 5.35 25.95 5.0 25.7 4.5 25.4 4.1 25.05 3.65 24.7 3.25 24.35 2.9 24.0 2.55 23.6 2.25 23.25 1.95 22.85 1.7 22.45 1.5 22.05 1.25 21.65 1.1 21.25 0.95 20.85 0.85 20.45 0.75 20.05 0.7 19.65 0.65 19.4 0.65 18.8 0.6 18.2 0.6 18.2 L0.6 18.2 Q1.0 32.45 7.05 44.0 12.6 54.7 22.6 62.35 32.0 69.5 44.3 73.25 56.2 76.9 69.15 76.85 82.1 76.85 94.15 73.15 106.55 69.4 116.2 62.25 126.45 54.65 132.4 44.1 138.8 32.75 139.7 18.85 139.7 19.05 139.65 19.25 139.6 19.4 139.6 19.6 139.55 19.8 139.5 20.0 139.45 20.25 139.4 20.45 139.35 20.65 139.25 20.85 139.2 21.05 139.15 21.25 139.05 21.45 138.95 21.6 138.9 21.8 138.8 21.95 L138.8 21.95 138.8 21.95" fill="#ffffff" fill-rule="evenodd" stroke="none"/>
    <path d="M32.0 31.5 Q36.7 32.2 41.4 32.75 46.2 33.3 50.95 33.7 55.8 34.05 60.65 34.25 65.5 34.45 70.35 34.45 75.25 34.5 80.1 34.3 85.0 34.15 89.85 33.8 94.8 33.4 99.6 32.85 104.5 32.3 109.3 31.5 111.6 31.15 113.3 30.85 115.75 30.4 117.85 29.95 120.4 29.45 122.65 28.85 125.2 28.2 127.35 27.45 129.7 26.6 131.55 25.7 133.55 24.7 134.95 23.55 136.45 22.35 137.15 21.05 137.95 19.65 137.85 18.05 137.75 16.55 136.6 15.1 135.5 13.8 133.45 12.55 131.55 11.45 128.9 10.4 126.5 9.45 123.45 8.6 120.75 7.85 117.65 7.15 114.9 6.55 111.85 6.0 109.3 5.55 106.7 5.15 104.55 4.85 102.55 4.6 92.8 3.45 77.65 3.3 64.0 3.15 53.85 3.8 52.25 3.9 49.95 4.05 46.15 4.25 46.2 4.25 44.05 4.35 42.45 4.45 40.5 4.6 38.75 4.75 36.8 4.9 34.95 5.1 33.0 5.35 31.05 5.6 29.05 5.9 27.0 6.3 24.9 6.65 22.75 7.15 21.0 7.55 20.15 7.75 18.45 8.15 16.95 8.55 15.1 9.05 13.5 9.55 11.6 10.2 10.05 10.9 8.3 11.7 6.95 12.55 5.45 13.5 4.45 14.55 3.35 15.7 2.9 16.95 2.35 18.3 2.55 19.75 2.7 20.95 3.65 22.1 4.5 23.15 6.05 24.15 7.5 25.1 9.5 25.95 11.35 26.75 13.65 27.5 15.8 28.2 18.3 28.85 20.55 29.4 23.1 29.95 25.3 30.4 27.75 30.8 29.8 31.2 32.0 31.5 L32.0 31.5 32.0 31.5" fill="#ffffff" fill-rule="evenodd" stroke="none"/>
  </g>
</svg>
