<?xml version="1.0" encoding="UTF-8" standalone="no"?>
<svg xmlns:xlink="http://www.w3.org/1999/xlink" height="105.0px" width="135.0px" xmlns="http://www.w3.org/2000/svg">
  <g transform="matrix(1.0, 0.0, 0.0, 1.0, 0.0, 0.0)">
    <path d="M105.7 1.65 Q104.25 1.9 102.7 2.25 101.25 2.55 99.7 2.95 98.25 3.35 96.75 3.8 95.25 4.25 93.75 4.75 92.3 5.25 90.85 5.8 89.4 6.3 88.0 6.9 86.6 7.45 85.25 8.0 83.9 8.6 82.6 9.2 82.4 9.4 82.1 9.7 81.35 10.45 81.6 10.2 81.3 10.5 81.05 10.75 80.8 11.0 80.55 11.2 80.25 11.45 80.0 11.7 79.7 11.9 79.45 12.1 79.15 12.3 78.9 12.45 78.6 12.6 78.3 12.75 76.65 13.1 75.05 13.55 73.45 13.95 71.85 14.45 70.25 14.95 68.7 15.5 67.15 16.1 65.6 16.75 64.05 17.35 62.55 18.1 61.05 18.8 59.6 19.6 58.1 20.4 56.65 21.25 55.25 22.1 53.85 23.05 53.6 23.35 53.35 23.7 53.1 24.0 52.85 24.3 52.6 24.6 52.35 24.85 52.1 25.1 51.85 25.35 51.6 25.6 51.3 25.85 51.05 26.1 50.8 26.3 50.55 26.5 50.25 26.7 50.0 26.85 49.75 27.0 48.15 27.7 46.55 28.4 44.95 29.15 43.4 29.95 41.8 30.75 40.3 31.55 38.7 32.45 37.25 33.35 35.7 34.25 34.3 35.2 32.85 36.2 31.5 37.2 30.15 38.2 28.9 39.25 27.65 40.35 26.55 41.5 26.2 41.9 25.95 42.4 25.7 42.85 25.55 43.3 25.35 43.8 25.25 44.3 25.1 44.75 25.05 45.25 24.95 45.75 24.9 46.25 24.85 46.7 24.8 47.3 24.8 47.3 24.75 48.3 24.7 48.9 24.7 49.3 23.4 50.05 22.1 50.95 20.75 51.85 19.45 52.9 18.1 53.9 16.85 55.05 15.5 56.2 14.25 57.45 13.0 58.7 11.85 60.05 10.6 61.4 9.55 62.85 8.4 64.3 7.45 65.8 6.45 67.35 5.6 68.9 4.7 70.55 4.0 72.25 3.3 73.95 2.8 75.7 2.3 77.5 2.05 79.25 1.8 81.05 1.8 82.8 1.8 84.65 2.1 86.4 2.4 88.25 3.0 90.0 3.65 91.8 4.6 93.5 5.55 95.25 6.9 96.85 8.05 98.0 9.45 99.0 10.75 99.95 12.2 100.7 13.6 101.45 15.2 102.0 16.65 102.55 18.25 102.95 19.8 103.35 21.4 103.6 22.9 103.85 24.5 103.95 26.0 104.05 27.5 104.05 28.9 104.05 30.35 104.0 31.9 103.9 33.55 103.65 35.15 103.45 36.75 103.1 38.35 102.8 40.0 102.35 41.65 101.95 43.3 101.45 44.9 100.95 46.55 100.35 48.2 99.75 49.85 99.1 51.5 98.45 53.15 97.7 54.8 96.95 56.45 96.15 59.65 94.6 63.0 92.75 66.15 91.0 69.4 89.0 72.45 87.15 75.65 85.0 78.6 83.05 81.7 80.9 84.5 78.9 87.4 76.7 90.05 74.75 92.8 72.6 95.15 70.8 97.75 68.7 99.8 67.1 102.25 65.1 104.8 62.7 106.85 60.7 109.05 58.5 110.95 56.6 112.9 54.55 114.6 52.7 116.35 50.8 117.85 49.0 119.4 47.15 120.8 45.35 122.2 43.55 123.45 41.7 124.75 39.85 125.9 37.9 127.05 36.0 128.15 33.95 128.65 32.95 129.1 32.0 129.6 31.0 130.0 30.05 130.4 29.1 130.7 28.15 131.05 27.15 131.35 26.2 131.6 25.25 131.8 24.3 132.0 23.35 132.15 22.4 132.3 21.45 132.35 20.55 132.4 19.6 132.4 18.65 132.4 17.7 132.3 16.8 132.2 15.9 132.05 15.05 131.9 14.15 131.65 13.3 131.45 12.45 131.1 11.6 130.75 10.75 130.3 9.9 129.85 9.05 129.3 8.25 128.7 7.4 128.0 6.55 127.25 5.75 126.4 4.9 125.35 4.05 124.15 3.35 123.05 2.7 121.75 2.2 120.5 1.75 119.15 1.4 117.9 1.1 116.5 0.95 115.15 0.8 113.75 0.8 112.45 0.8 111.0 0.9 109.7 1.0 108.35 1.15 107.05 1.35 105.7 1.65 L105.7 1.65 105.7 1.65 M84.8 12.25 Q86.1 12.2 87.4 12.35 88.65 12.5 89.9 12.75 91.1 13.0 92.25 13.4 93.35 13.8 94.4 14.3 95.4 14.8 96.4 15.4 97.3 16.0 98.15 16.65 99.0 17.35 99.75 18.05 100.5 18.75 101.1 19.5 101.5 20.0 101.85 20.5 102.2 21.0 102.5 21.5 102.85 22.0 103.15 22.5 103.5 23.05 103.75 23.55 104.05 24.1 104.25 24.6 104.5 25.15 104.65 25.65 104.85 26.2 104.95 26.7 105.05 27.25 105.1 27.75 104.55 27.4 99.5 23.9 96.05 21.55 93.7 20.1 92.95 19.65 92.25 19.2 91.5 18.8 90.8 18.4 90.05 17.95 89.35 17.55 88.55 17.15 87.85 16.8 87.1 16.45 86.35 16.1 85.55 15.75 84.8 15.45 84.05 15.15 83.3 14.85 82.5 14.6 81.75 14.35 81.95 14.2 82.2 14.0 82.4 13.85 82.6 13.65 82.5 13.75 82.95 13.3 83.2 13.1 83.3 12.95 83.5 12.8 83.65 12.7 83.85 12.55 84.0 12.5 84.2 12.4 84.4 12.35 84.6 12.25 84.8 12.25 L84.8 12.25 84.8 12.25 M56.55 25.8 Q57.9 25.75 59.3 25.9 60.65 26.05 62.0 26.35 63.3 26.6 64.65 27.05 65.95 27.45 67.25 28.0 68.5 28.55 69.7 29.2 70.9 29.8 72.05 30.5 73.2 31.2 74.25 32.0 75.3 32.75 76.3 33.55 76.9 34.1 77.45 34.6 78.05 35.15 78.55 35.7 79.1 36.25 79.6 36.8 80.15 37.35 80.6 37.95 81.1 38.5 81.5 39.1 81.95 39.7 82.3 40.35 82.7 40.95 83.05 41.6 83.35 42.25 83.65 42.95 82.8 42.4 81.95 41.9 81.05 41.35 80.15 40.85 79.2 40.3 78.25 39.75 77.25 39.25 76.3 38.7 75.25 38.15 74.25 37.65 73.2 37.1 72.15 36.6 71.05 36.05 70.0 35.6 68.9 35.05 67.8 34.6 66.85 34.2 65.75 33.7 64.9 33.3 63.85 32.75 63.25 32.5 61.95 31.85 60.8 31.25 60.15 30.95 59.15 30.5 58.4 30.15 57.45 29.7 56.65 29.4 55.8 29.0 55.0 28.75 54.1 28.45 53.3 28.25 53.5 28.05 53.75 27.8 53.9 27.65 54.1 27.4 54.45 27.0 54.45 27.0 54.65 26.8 54.8 26.65 55.0 26.45 55.15 26.3 55.35 26.15 55.55 26.05 55.8 25.95 56.0 25.85 56.25 25.8 56.55 25.8 L56.55 25.8 56.55 25.8 M37.45 44.7 Q38.65 44.7 39.85 44.75 41.05 44.85 42.25 44.95 43.45 45.05 44.65 45.2 45.85 45.35 47.0 45.6 48.2 45.8 49.35 46.05 50.55 46.3 51.65 46.55 52.8 46.85 53.9 47.2 55.0 47.5 56.05 47.9 53.95 47.0 58.1 48.75 59.35 49.3 60.2 49.65 61.35 50.2 62.25 50.65 63.35 51.2 64.25 51.75 65.25 52.4 66.1 53.05 67.0 53.75 67.7 54.5 68.45 55.3 69.0 56.2 69.55 57.1 69.95 58.1 68.9 57.5 67.7 56.95 66.55 56.4 65.35 55.85 64.1 55.35 62.8 54.85 61.45 54.35 60.1 53.9 58.75 53.5 57.3 53.05 55.9 52.65 54.4 52.3 52.95 51.95 51.45 51.6 50.0 51.3 48.45 51.0 47.3 50.8 45.5 50.45 43.3 50.05 42.65 49.9 41.1 49.6 39.95 49.4 38.5 49.15 37.3 49.0 35.95 48.8 34.8 48.65 33.5 48.55 32.4 48.45 31.15 48.4 30.05 48.4 28.9 48.45 27.8 48.55 27.9 47.15 28.1 45.5 28.65 45.4 29.2 45.3 29.75 45.2 30.35 45.1 30.9 45.05 31.5 45.0 32.05 44.9 32.65 44.85 33.25 44.8 33.85 44.8 34.4 44.75 35.05 44.75 35.65 44.7 36.25 44.7 36.85 44.7 37.45 44.7 L37.45 44.7 37.45 44.7" fill="#ffffff" fill-rule="evenodd" stroke="none"/>
  </g>
</svg>
