<?xml version="1.0" encoding="UTF-8" standalone="no"?>
<svg xmlns:xlink="http://www.w3.org/1999/xlink" height="936.35px" width="1007.5px" xmlns="http://www.w3.org/2000/svg">
  <g transform="matrix(1.0, 0.0, 0.0, 1.0, -42.75, 0.0)">
    <path d="M685.55 124.1 Q627.9 65.55 545.25 65.55 L524.95 66.6 Q430.75 86.5 405.4 157.4 396.0 183.85 396.0 213.95 396.0 282.75 444.25 331.45 493.1 380.3 561.9 380.3 627.45 380.3 712.85 322.45 650.05 455.5 526.85 450.75 396.65 431.1 340.0 323.3 323.4 290.85 323.4 248.4 323.4 145.65 396.0 72.45 428.65 39.7 467.75 22.0 472.65 19.9 478.0 17.75 521.55 0.0 571.95 0.0 674.65 0.0 747.25 72.45 820.3 145.65 820.3 248.4 820.3 347.65 759.2 426.65 733.75 454.65 682.1 494.35 630.2 533.8 611.2 611.8 602.45 639.8 602.45 671.4 602.45 751.0 658.6 806.75 715.0 863.55 794.65 863.55 842.3 863.55 882.0 843.25 907.85 829.4 930.85 806.75 986.85 751.0 986.85 671.4 986.85 661.35 983.4 651.1 955.65 565.0 913.85 546.45 872.2 527.7 824.75 527.7 777.35 527.2 730.6 573.75 683.2 621.0 683.2 687.15 683.2 750.6 753.65 829.6 610.75 772.35 615.05 653.45 633.9 527.7 738.5 473.15 769.65 457.2 810.45 457.2 909.5 457.2 980.4 527.2 1012.0 558.65 1029.3 596.4 L1033.6 606.0 Q1050.25 648.3 1050.25 697.0 1050.25 796.3 980.4 866.6 909.5 936.35 810.45 936.35 714.8 936.35 638.55 877.9 565.3 814.45 548.85 741.4 533.95 670.5 509.8 619.95 485.4 568.45 463.0 545.75 404.3 487.75 322.75 488.4 239.0 487.95 180.95 546.25 146.1 580.8 131.8 624.8 122.85 654.3 123.05 687.6 122.85 759.75 168.55 814.0 291.1 899.45 392.1 821.45 439.95 775.8 440.4 711.05 440.4 642.35 391.7 593.65 345.4 547.35 240.5 541.35 373.75 480.25 465.6 568.45 544.15 674.6 508.05 790.7 497.35 825.35 467.1 855.4 394.7 928.3 291.55 928.95 245.0 928.95 204.65 913.7 199.75 911.6 194.6 909.05 151.45 891.3 115.75 855.4 43.0 782.8 42.75 680.1 43.0 576.5 115.75 503.95 185.4 434.15 283.65 421.7 343.7 411.05 483.5 455.5 L485.65 455.7 Q513.65 464.25 545.25 464.25 627.9 464.25 685.55 405.95 744.4 347.4 744.4 264.8 744.4 215.45 723.55 174.5 709.0 147.35 685.55 124.1 M527.45 518.9 Q535.4 546.25 557.6 573.1 575.1 546.25 580.0 518.9 L527.45 518.9" fill="#ffffff" fill-rule="evenodd" stroke="none"/>
  </g>
</svg>
