<?xml version="1.0" encoding="UTF-8" standalone="no"?>
<svg xmlns:xlink="http://www.w3.org/1999/xlink" height="117.95px" width="108.55px" xmlns="http://www.w3.org/2000/svg">
  <g transform="matrix(1.0, 0.0, 0.0, 1.0, -0.85, -1.05)">
    <path d="M82.0 96.65 L94.0 108.65 83.7 119.0 78.9 114.2 80.7 112.4 76.5 108.15 74.65 109.95 65.1 100.4 66.95 98.6 62.85 94.45 61.05 96.3 56.3 91.6 66.65 81.25 72.3 86.95 75.0 84.25 36.7 45.9 Q31.4 48.95 24.75 48.95 14.8 49.0 7.8 42.05 0.8 35.05 0.85 24.95 0.8 15.15 7.8 8.2 14.8 1.2 24.75 1.05 34.7 1.15 41.7 8.15 48.7 15.15 48.7 25.0 48.7 31.9 45.35 37.4 L109.4 101.5 100.85 110.05 84.75 93.9 82.0 96.65 M35.2 14.9 Q30.9 10.65 24.85 10.65 18.9 10.65 14.6 14.9 10.35 19.15 10.35 25.15 10.35 31.2 14.6 35.5 18.85 39.7 24.85 39.75 30.85 39.75 35.15 35.5 39.45 31.15 39.4 25.15 39.4 19.1 35.2 14.9" fill="#ffffff" fill-rule="evenodd" stroke="none"/>
  </g>
</svg>
