<?xml version="1.0" encoding="UTF-8" standalone="no"?>
<svg xmlns:xlink="http://www.w3.org/1999/xlink" height="83.95px" width="118.05px" xmlns="http://www.w3.org/2000/svg">
  <g transform="matrix(1.0, 0.0, 0.0, 1.0, -4.1, -2.75)">
    <path d="M114.75 42.75 Q120.4 45.0 121.25 48.05 L121.3 48.5 Q120.85 51.8 114.75 54.25 108.1 56.8 98.8 56.8 L98.05 56.8 Q88.7 56.8 82.1 54.25 75.95 51.8 75.5 48.5 L75.65 48.05 Q76.45 45.0 82.1 42.75 88.7 40.2 98.05 40.2 L98.8 40.2 Q108.1 40.2 114.75 42.75 M98.1 61.35 L98.9 61.35 Q108.5 61.35 115.3 58.7 121.65 56.2 122.1 52.75 L122.15 53.35 122.15 64.05 Q122.15 67.8 115.3 70.55 108.5 73.15 98.9 73.15 L98.1 73.15 Q88.5 73.15 81.7 70.55 74.9 67.8 74.9 64.05 L74.9 53.35 74.95 52.75 Q75.35 56.2 81.7 58.7 88.5 61.35 98.1 61.35 M74.2 15.9 L74.2 26.6 Q74.2 30.35 67.4 33.1 60.55 35.75 51.0 35.75 L50.2 35.75 Q40.55 35.75 33.8 33.1 26.95 30.35 26.95 26.6 L26.95 15.9 27.0 15.35 Q27.45 18.8 33.8 21.25 40.55 23.95 50.2 23.95 L51.0 23.95 Q60.55 23.95 67.4 21.25 73.7 18.8 74.15 15.35 L74.2 15.9 M27.25 53.7 L28.0 53.7 Q37.35 53.7 43.95 56.25 49.6 58.5 50.45 61.55 L50.55 62.0 Q50.1 65.35 43.95 67.75 37.35 70.3 28.0 70.3 L27.25 70.3 Q17.95 70.3 11.3 67.75 5.25 65.35 4.75 62.0 L4.85 61.55 Q5.65 58.5 11.3 56.25 17.95 53.7 27.25 53.7 M73.4 11.05 Q72.9 14.4 66.8 16.75 60.15 19.4 50.85 19.4 L50.1 19.4 Q40.75 19.4 34.15 16.75 28.05 14.4 27.6 11.05 L27.7 10.6 Q28.5 7.55 34.15 5.35 40.75 2.75 50.1 2.75 L50.85 2.75 Q60.15 2.75 66.8 5.35 72.45 7.55 73.3 10.6 L73.4 11.05 M4.15 66.3 Q4.6 69.7 10.95 72.2 17.75 74.85 27.35 74.85 L28.15 74.85 Q37.7 74.85 44.55 72.2 50.9 69.7 51.3 66.3 L51.35 66.85 51.35 77.55 Q51.35 81.35 44.55 84.05 37.7 86.7 28.15 86.7 L27.35 86.7 Q17.75 86.7 10.95 84.05 4.1 81.35 4.1 77.55 L4.1 66.85 4.15 66.3" fill="#ffffff" fill-rule="evenodd" stroke="none"/>
  </g>
</svg>
