<?xml version="1.0" encoding="UTF-8" standalone="no"?>
<svg xmlns:xlink="http://www.w3.org/1999/xlink" height="118.1px" width="68.2px" xmlns="http://www.w3.org/2000/svg">
  <g transform="matrix(1.0, 0.0, 0.0, 1.0, 3.0, 4.6)">
    <path d="M26.75 -4.6 L35.05 -4.6 Q39.8 -4.6 39.8 0.3 L39.8 2.3 43.2 2.3 Q44.7 2.3 45.9 3.5 46.95 5.45 46.95 6.8 46.95 8.65 45.9 10.25 L43.8 11.6 42.95 13.2 42.75 13.8 41.15 13.95 41.0 13.95 41.0 28.65 Q66.1 43.45 65.15 61.1 63.7 88.55 54.35 113.5 L7.7 113.5 Q-1.4 89.15 -2.95 61.65 -3.9 44.0 21.2 29.2 L21.2 13.95 21.05 13.95 Q19.85 13.95 19.25 13.2 18.65 12.6 18.45 11.6 16.9 11.45 16.1 10.25 14.9 8.65 14.9 6.8 14.9 5.45 16.1 3.5 17.25 2.3 18.65 2.3 L22.4 2.3 22.4 0.3 Q22.4 -4.6 26.75 -4.6 M27.9 48.4 Q26.5 49.85 26.5 51.6 26.5 53.65 28.05 55.45 L29.55 56.05 29.55 69.55 27.5 65.95 27.65 65.6 27.85 65.25 Q28.15 64.25 27.65 63.3 26.75 61.55 24.4 62.55 23.65 62.9 23.45 63.9 23.2 64.85 23.8 65.7 24.35 66.85 25.35 66.85 L26.15 66.85 28.05 70.05 16.15 63.55 16.2 62.75 16.15 62.05 Q15.65 59.95 14.05 58.95 12.45 58.0 10.7 58.4 8.85 58.7 7.9 60.4 6.75 62.15 7.3 64.05 7.9 65.95 9.55 66.85 11.85 67.7 13.6 66.85 L14.4 66.4 26.5 72.95 22.4 72.95 22.0 72.25 Q21.6 71.5 20.45 71.5 17.95 71.5 17.95 73.85 17.95 76.2 20.45 76.2 21.8 76.2 22.15 75.5 L22.35 74.8 22.4 74.6 26.4 74.6 14.3 81.3 13.3 80.85 Q11.4 80.2 9.55 81.3 8.0 82.3 7.55 84.0 7.05 85.75 7.9 87.4 8.8 89.2 10.7 89.6 12.6 90.05 14.25 89.2 16.05 88.25 16.5 85.6 16.65 84.65 16.3 84.15 L28.15 77.55 26.15 81.1 Q25.85 80.85 25.2 81.1 24.35 81.3 23.8 82.15 22.55 84.05 24.65 85.3 26.6 86.4 27.65 84.55 28.3 83.55 27.85 82.45 L27.65 82.05 27.5 81.85 29.55 78.25 29.55 91.7 Q29.15 91.85 28.9 92.05 L28.05 92.4 Q26.5 93.85 26.5 96.2 26.5 98.0 27.9 99.45 29.25 100.9 31.05 100.9 33.05 100.9 34.55 99.45 35.95 98.0 35.95 96.2 35.95 93.95 34.45 92.65 33.9 92.1 32.95 91.7 L32.95 78.6 34.95 81.85 34.45 82.45 Q33.75 83.45 34.65 84.55 35.9 86.4 37.85 85.3 39.55 84.05 38.65 82.15 38.25 81.45 37.1 81.1 L36.5 81.05 36.3 81.1 34.2 77.5 45.75 84.15 45.7 84.9 45.75 85.6 Q46.0 88.0 48.1 89.2 49.7 90.2 51.55 89.65 53.5 89.15 54.5 87.4 55.6 85.6 55.05 83.75 54.5 81.85 52.9 80.85 51.2 79.85 49.1 80.6 L48.35 80.85 Q47.9 80.95 47.55 81.3 L36.1 74.6 40.0 74.6 40.25 75.5 Q40.8 76.2 42.05 76.2 44.25 76.2 44.25 73.85 44.25 71.5 42.05 71.5 41.0 71.5 40.25 72.25 L40.0 72.95 36.0 72.95 47.3 66.4 48.1 66.95 48.8 67.3 50.8 67.55 Q51.75 67.3 52.7 66.85 54.5 65.95 54.95 64.05 55.35 62.1 54.5 60.35 53.5 58.65 51.55 58.3 49.7 57.75 48.1 58.6 46.0 59.8 45.75 61.95 45.65 62.35 45.7 62.7 L45.75 63.55 34.2 70.2 36.15 66.85 36.6 66.85 37.1 66.85 Q38.3 66.55 38.65 65.7 39.1 64.85 38.85 63.9 38.6 62.9 37.85 62.55 35.75 61.5 34.65 63.3 33.95 64.3 34.45 65.25 L34.6 65.6 34.75 65.95 32.95 69.05 32.95 56.05 Q33.5 56.0 34.45 55.25 35.95 53.6 35.95 51.6 35.95 49.85 34.55 48.4 33.05 46.9 31.05 46.9 29.25 46.9 27.9 48.4" fill="#ffffff" fill-rule="evenodd" stroke="none"/>
  </g>
</svg>
