<?xml version="1.0" encoding="UTF-8" standalone="no"?>
<svg xmlns:xlink="http://www.w3.org/1999/xlink" height="787.7px" width="534.75px" xmlns="http://www.w3.org/2000/svg">
  <g transform="matrix(1.0, 0.0, 0.0, 1.0, -65.35, -33.3)">
    <path d="M422.0 84.85 Q432.65 84.85 441.3 94.5 450.75 105.35 450.75 118.75 450.75 131.95 441.3 141.55 433.8 150.05 426.7 152.35 425.3 159.7 419.45 164.4 419.45 166.95 417.3 168.15 413.6 171.65 407.25 171.65 L404.85 171.65 404.85 323.4 423.2 328.4 Q477.35 347.9 522.0 392.1 600.1 470.4 600.1 581.5 600.1 692.3 522.0 770.1 490.45 801.7 453.05 821.0 L212.15 821.0 Q174.75 801.7 143.5 770.1 65.35 692.3 65.35 581.5 65.35 470.4 143.5 392.1 189.1 346.25 248.15 327.2 251.95 325.75 256.9 324.55 L256.9 171.65 255.45 171.65 Q247.25 171.65 241.35 164.4 237.55 159.7 236.4 152.35 225.8 151.2 218.25 141.55 209.85 131.95 209.85 118.75 209.85 105.35 218.25 94.5 226.7 84.85 238.5 84.85 L265.35 84.85 265.35 67.95 Q265.35 33.3 299.0 33.3 L361.8 33.3 Q395.2 33.3 395.2 67.95 L395.2 84.85 422.0 84.85" fill="#ffffff" fill-rule="evenodd" stroke="none"/>
  </g>
</svg>
