<?xml version="1.0" encoding="UTF-8" standalone="no"?>
<svg xmlns:xlink="http://www.w3.org/1999/xlink" height="838.4px" width="591.2px" xmlns="http://www.w3.org/2000/svg">
  <g transform="matrix(1.0, 0.0, 0.0, 1.0, -54.85, -26.85)">
    <path d="M515.6 146.35 Q515.6 161.9 502.95 172.85 493.05 183.05 481.65 185.9 479.85 194.3 473.4 200.05 471.6 202.85 468.95 204.15 463.2 208.6 454.8 208.6 L451.95 208.6 451.95 273.6 454.8 273.6 Q466.05 273.6 473.4 280.75 481.65 289.3 481.65 299.35 481.65 313.25 473.4 320.25 466.05 329.05 454.8 329.05 L451.95 329.05 451.95 370.15 Q504.15 408.5 542.65 441.2 643.2 526.2 646.05 567.15 L646.05 723.35 Q646.05 865.25 510.1 865.25 L189.45 865.25 Q89.65 865.25 63.85 787.25 54.9 760.05 54.9 723.35 L54.9 567.15 Q54.35 554.8 63.85 538.2 85.15 501.0 155.8 441.2 192.35 408.5 244.9 370.15 L244.9 329.05 243.65 329.05 Q231.7 329.05 223.45 320.25 216.5 313.25 216.5 299.35 216.5 289.3 223.45 280.75 231.7 273.6 243.65 273.6 L244.9 273.6 244.9 208.6 243.65 208.6 Q231.7 208.6 223.45 200.05 217.9 194.3 216.5 185.9 202.35 184.65 191.1 172.85 179.45 161.9 179.45 146.35 179.45 130.4 191.1 117.9 203.45 106.1 219.55 106.1 L257.45 106.1 257.45 80.9 Q257.45 26.85 304.15 26.85 L392.15 26.85 Q438.85 26.85 438.85 80.9 L438.85 106.1 476.1 106.1 Q491.65 106.1 502.95 117.9 515.6 130.4 515.6 146.35 M446.2 638.55 Q456.2 650.05 456.2 664.65 456.2 697.95 439.4 708.5 431.0 714.8 417.8 714.8 404.35 714.8 395.55 708.5 380.4 699.05 380.4 669.7 380.4 627.8 419.35 627.8 438.0 627.8 446.2 638.55 M192.15 596.0 Q192.15 647.7 206.65 671.3 221.65 697.25 225.05 708.5 221.65 755.0 251.2 762.0 278.7 769.85 294.65 783.3 L299.5 811.6 400.95 811.6 405.95 783.3 Q420.3 769.0 447.8 762.0 477.5 746.3 475.7 709.75 L475.7 708.5 Q476.65 702.6 479.15 697.25 508.45 644.6 508.45 596.0 508.45 537.1 463.75 498.45 419.35 462.0 350.3 462.0 282.7 462.0 234.7 498.45 192.15 535.5 192.15 596.0 M284.3 627.8 Q322.0 627.8 322.0 664.65 322.0 697.95 306.1 708.5 297.35 714.8 284.3 714.8 271.0 714.8 262.1 708.5 247.05 699.05 247.05 669.7 247.05 650.05 255.7 638.55 265.35 627.8 284.3 627.8 M352.1 711.2 Q399.5 780.1 354.75 753.25 348.7 748.95 344.95 753.25 299.5 780.1 347.45 711.2 350.3 708.15 352.1 711.2" fill="#ffffff" fill-rule="evenodd" stroke="none"/>
  </g>
</svg>
