<?xml version="1.0" encoding="UTF-8" standalone="no"?>
<svg xmlns:xlink="http://www.w3.org/1999/xlink" height="116.95px" width="106.5px" xmlns="http://www.w3.org/2000/svg">
  <g transform="matrix(1.0, 0.0, 0.0, 1.0, -92.0, -213.55)">
    <path d="M198.25 301.7 Q198.5 305.25 197.65 308.5 196.85 311.6 195.1 314.4 193.5 317.0 191.05 319.35 188.75 321.55 185.8 323.4 183.0 325.1 179.75 326.5 176.65 327.8 173.3 328.7 170.05 329.6 166.8 330.05 163.6 330.5 160.65 330.5 152.8 330.5 155.35 330.5 151.65 330.45 148.45 330.2 144.2 329.8 140.3 328.95 135.7 327.9 131.4 326.2 126.55 324.25 122.2 321.4 117.35 318.25 113.15 313.95 108.5 309.3 104.65 303.35 100.45 296.85 97.15 288.9 97.0 288.55 96.7 287.25 96.35 285.9 95.95 283.95 95.45 281.8 95.0 279.4 94.5 276.7 94.05 273.95 93.55 270.95 93.15 268.1 92.7 264.95 92.45 262.2 92.15 259.15 92.05 256.65 92.0 253.95 92.15 251.9 92.6 247.15 93.15 242.85 93.7 239.0 94.3 235.55 94.85 232.5 95.45 229.85 95.95 227.55 96.5 225.7 97.0 224.05 97.45 222.9 97.9 221.9 98.2 221.45 98.5 221.05 98.65 221.25 98.8 221.45 98.75 222.15 98.8 223.35 99.5 224.4 100.1 225.35 101.25 226.15 102.35 226.9 103.8 227.4 105.15 227.9 106.75 228.15 108.25 228.4 109.75 228.4 111.25 228.4 112.5 228.1 113.8 227.8 114.65 227.3 115.6 226.7 115.95 225.9 116.8 223.9 117.15 224.05 117.45 224.1 117.5 226.0 117.5 226.6 117.5 230.9 117.5 234.85 117.65 237.8 117.8 242.05 118.35 245.65 118.95 250.05 120.1 253.6 121.4 257.7 123.35 260.65 125.55 264.0 128.6 265.9 130.55 267.1 133.05 267.9 135.35 268.6 138.15 268.9 140.65 269.2 143.55 269.25 146.1 269.25 148.95 269.0 151.35 268.85 154.1 268.5 156.0 268.25 158.6 267.85 161.65 267.4 162.2 267.35 163.85 267.1 164.6 267.1 168.05 267.1 171.4 268.1 174.6 269.05 177.7 270.9 180.6 272.6 183.3 275.0 185.9 277.25 188.2 280.05 190.4 282.7 192.2 285.65 194.0 288.5 195.3 291.4 196.6 294.25 197.35 296.9 198.1 299.5 198.25 301.7 L198.25 301.7 M117.4 218.1 L115.55 223.55 Q115.05 224.5 114.05 225.1 113.1 225.6 111.8 225.7 110.55 225.85 109.05 225.65 107.65 225.45 106.2 225.0 104.8 224.55 103.6 223.9 102.35 223.3 101.5 222.55 100.6 221.8 100.25 221.1 99.9 220.35 100.2 219.7 L100.95 215.25 Q101.2 214.65 102.15 214.25 102.95 213.85 104.3 213.7 105.55 213.55 107.1 213.6 108.55 213.65 110.1 213.9 111.65 214.15 113.0 214.55 114.45 214.95 115.45 215.5 116.55 216.05 117.0 216.7 117.55 217.35 117.4 218.1 L117.4 218.1 M149.4 298.35 Q141.4 298.25 134.4 297.4 128.1 296.6 122.7 295.2 117.9 293.95 113.85 292.2 110.35 290.7 107.5 288.9 105.15 287.35 103.25 285.65 101.8 284.35 100.75 282.95 100.1 282.15 99.55 281.3 99.3 280.85 99.35 281.05 101.05 288.45 104.2 294.8 107.15 300.65 111.3 305.55 115.1 310.05 119.9 313.7 124.2 316.95 129.2 319.5 133.65 321.75 138.6 323.4 142.85 324.8 147.3 325.75 151.05 326.5 154.6 326.85 157.5 327.15 159.8 327.15 162.45 327.15 165.4 326.6 168.4 326.05 171.45 325.05 174.55 324.0 177.45 322.5 180.5 320.95 183.1 319.1 185.8 317.1 187.9 314.85 190.1 312.45 191.5 309.85 193.0 307.15 193.5 304.25 194.05 301.15 193.5 298.0 193.0 295.25 191.05 293.65 189.3 292.2 186.3 291.65 183.65 291.2 179.95 291.45 176.75 291.7 172.7 292.5 169.45 293.2 165.35 294.3 163.0 294.9 158.5 296.2 154.55 297.35 152.95 297.75 150.45 298.4 149.4 298.35 L149.4 298.35 M120.0 275.8 L119.7 275.5 119.4 275.95 Q119.3 276.1 118.85 276.8 118.25 277.75 118.05 278.05 117.65 278.7 117.1 279.7 116.55 280.6 116.2 281.3 115.35 283.1 115.1 283.8 115.05 283.9 115.05 284.0 115.0 284.1 114.95 284.2 114.95 284.35 114.9 284.45 114.9 284.6 114.85 284.7 114.8 284.85 114.8 284.95 114.8 285.1 114.75 285.2 114.75 285.35 114.75 285.45 114.7 285.6 114.7 285.7 114.7 285.8 114.7 285.95 114.7 286.05 114.7 286.15 114.7 286.25 114.7 286.35 114.7 286.5 114.7 286.6 114.7 286.7 114.75 286.8 114.75 286.9 114.75 286.95 114.75 287.05 114.8 287.15 114.8 287.25 114.85 287.3 114.85 287.35 114.9 287.45 114.9 287.5 114.95 287.6 114.95 287.65 115.0 287.75 115.0 287.8 115.05 287.9 115.05 287.95 115.1 288.05 115.15 288.15 115.15 288.2 115.2 288.3 115.25 288.35 115.3 288.4 115.3 288.45 115.35 288.5 115.4 288.6 115.4 288.65 115.45 288.7 115.5 288.8 115.6 288.85 115.65 288.95 115.7 289.0 115.75 289.1 115.8 289.2 115.9 289.25 115.95 289.35 116.0 289.4 116.05 289.45 116.15 289.55 116.2 289.6 116.25 289.65 116.35 289.7 116.4 289.8 116.5 289.85 116.55 289.9 116.65 289.95 116.7 290.05 116.8 290.1 116.9 290.15 117.0 290.2 117.05 290.3 117.15 290.35 117.25 290.4 117.3 290.45 117.4 290.5 117.5 290.5 117.55 290.55 117.65 290.6 117.75 290.6 117.85 290.65 117.9 290.7 118.0 290.75 118.15 290.8 118.25 290.8 118.35 290.85 118.45 290.9 118.55 290.9 118.65 290.95 118.75 290.95 118.85 291.0 118.95 291.0 119.05 291.05 119.15 291.05 119.3 291.1 119.4 291.1 119.5 291.1 119.6 291.1 119.7 291.1 119.8 291.1 119.85 291.1 119.95 291.1 120.05 291.1 120.15 291.1 120.25 291.1 120.35 291.05 120.45 291.05 120.55 291.05 120.65 291.0 120.7 291.0 120.8 290.95 120.9 290.95 121.0 290.95 121.05 290.9 121.15 290.85 121.25 290.85 121.35 290.8 121.45 290.8 121.55 290.75 121.65 290.7 121.75 290.7 121.8 290.65 121.9 290.6 122.0 290.6 122.05 290.55 122.1 290.5 122.2 290.45 122.3 290.4 122.4 290.35 122.45 290.3 122.55 290.25 122.65 290.2 122.75 290.1 122.85 290.05 122.95 290.0 123.0 289.9 123.1 289.85 123.2 289.75 123.25 289.7 123.35 289.65 123.4 289.55 123.45 289.5 123.55 289.4 123.6 289.35 123.7 289.25 123.75 289.15 123.8 289.1 123.9 289.0 123.95 288.9 124.0 288.8 124.1 288.7 124.15 288.65 124.2 288.55 124.25 288.45 124.3 288.35 124.35 288.3 124.4 288.2 124.45 288.15 124.45 288.05 124.5 288.0 124.55 287.9 124.55 287.8 124.6 287.7 124.6 287.6 124.65 287.5 124.7 287.4 124.7 287.3 124.75 287.2 124.75 287.15 124.8 287.05 124.8 286.95 124.8 286.85 124.85 286.8 124.85 286.7 124.85 286.6 124.85 286.55 124.85 286.45 124.9 286.35 124.9 286.25 124.9 286.15 124.9 286.05 124.9 285.95 124.85 285.85 124.85 285.75 124.85 285.65 124.85 285.55 124.85 285.45 124.85 285.4 124.85 285.3 124.75 284.95 124.65 284.5 124.5 284.0 124.4 283.65 124.25 283.25 123.95 282.55 123.6 281.8 123.25 281.15 122.9 280.5 122.35 279.55 121.75 278.55 121.35 277.85 120.3 276.15 120.0 275.8 L120.0 275.8 M135.9 275.55 L135.6 275.25 135.3 275.75 Q135.2 275.9 133.95 277.85 133.55 278.45 133.0 279.45 132.5 280.35 132.1 281.1 131.25 282.75 131.0 283.6 130.95 283.7 130.95 283.8 130.9 283.9 130.85 284.0 130.85 284.1 130.8 284.25 130.8 284.35 130.75 284.5 130.75 284.6 130.7 284.75 130.7 284.85 130.65 285.0 130.65 285.1 130.65 285.25 130.6 285.35 130.6 285.45 130.6 285.55 130.6 285.7 130.6 285.8 130.6 285.9 130.6 286.05 130.6 286.15 130.6 286.25 130.6 286.35 130.6 286.45 130.65 286.55 130.65 286.65 130.65 286.75 130.65 286.85 130.7 286.9 130.7 287.0 130.75 287.05 130.75 287.1 130.8 287.2 130.8 287.25 130.85 287.35 130.85 287.4 130.9 287.5 130.9 287.6 130.95 287.65 130.95 287.75 131.0 287.8 131.05 287.9 131.1 287.95 131.1 288.05 131.15 288.1 131.2 288.2 131.2 288.25 131.25 288.3 131.3 288.35 131.3 288.45 131.35 288.5 131.4 288.55 131.5 288.65 131.55 288.7 131.6 288.8 131.65 288.85 131.7 288.95 131.8 289.0 131.85 289.1 131.9 289.15 132.0 289.25 132.05 289.3 132.1 289.35 132.15 289.4 132.25 289.45 132.3 289.55 132.4 289.6 132.45 289.65 132.55 289.75 132.6 289.8 132.7 289.85 132.8 289.95 132.9 290.0 132.95 290.05 133.05 290.1 133.15 290.15 133.2 290.2 133.3 290.25 133.4 290.3 133.45 290.35 133.55 290.35 133.65 290.4 133.75 290.45 133.8 290.5 133.95 290.5 134.05 290.55 134.15 290.6 134.25 290.6 134.35 290.65 134.45 290.7 134.55 290.7 134.65 290.75 134.75 290.75 134.85 290.8 134.95 290.8 135.05 290.8 135.2 290.85 135.3 290.85 135.4 290.85 135.5 290.85 135.6 290.85 135.7 290.85 135.8 290.85 135.85 290.85 135.95 290.85 136.05 290.85 136.15 290.85 136.25 290.85 136.35 290.8 136.45 290.8 136.55 290.8 136.6 290.8 136.7 290.75 136.8 290.75 136.9 290.7 136.95 290.7 137.05 290.65 137.15 290.6 137.25 290.6 137.35 290.55 137.45 290.5 137.55 290.5 137.65 290.45 137.75 290.4 137.8 290.4 137.9 290.35 137.95 290.3 138.0 290.25 138.1 290.2 138.2 290.2 138.3 290.15 138.35 290.05 138.45 290.0 138.55 289.95 138.65 289.9 138.75 289.8 138.85 289.75 138.9 289.7 139.0 289.6 139.1 289.55 139.15 289.45 139.25 289.4 139.3 289.35 139.35 289.3 139.45 289.2 139.5 289.1 139.6 289.05 139.65 288.95 139.7 288.85 139.8 288.75 139.85 288.65 139.95 288.6 140.0 288.5 140.05 288.4 140.1 288.3 140.15 288.2 140.2 288.15 140.25 288.05 140.3 288.0 140.35 287.95 140.35 287.85 140.4 287.75 140.45 287.65 140.45 287.6 140.5 287.5 140.5 287.4 140.55 287.3 140.6 287.2 140.6 287.1 140.65 287.0 140.65 286.9 140.7 286.8 140.7 286.7 140.7 286.6 140.75 286.55 140.75 286.45 140.75 286.4 140.75 286.3 140.75 286.2 140.8 286.1 140.8 286.0 140.8 285.9 140.8 285.8 140.8 285.7 140.75 285.6 140.75 285.5 140.75 285.4 140.75 285.3 140.75 285.25 140.75 285.15 140.75 285.05 140.65 284.7 140.55 284.3 140.4 283.75 140.3 283.45 139.95 282.45 139.15 280.95 138.8 280.3 138.25 279.3 137.7 278.35 137.25 277.6 136.15 275.85 135.9 275.55 L135.9 275.55 M152.75 275.45 L152.5 275.15 152.15 275.6 Q151.95 276.0 150.85 277.7 150.45 278.35 149.9 279.35 149.35 280.25 149.0 280.95 148.15 282.65 147.85 283.5 147.8 283.6 147.8 283.7 147.75 283.8 147.75 283.9 147.7 284.0 147.7 284.15 147.65 284.25 147.65 284.4 147.6 284.5 147.6 284.65 147.55 284.75 147.55 284.9 147.55 285.0 147.5 285.1 147.5 285.25 147.5 285.35 147.5 285.45 147.5 285.6 147.5 285.7 147.5 285.8 147.5 285.9 147.5 286.05 147.5 286.15 147.5 286.25 147.5 286.35 147.5 286.45 147.55 286.55 147.55 286.65 147.55 286.7 147.55 286.8 147.6 286.9 147.6 286.95 147.6 287.0 147.65 287.1 147.65 287.15 147.7 287.25 147.7 287.3 147.75 287.4 147.8 287.45 147.8 287.55 147.85 287.65 147.9 287.7 147.9 287.8 147.95 287.85 148.0 287.95 148.05 288.0 148.05 288.05 148.1 288.15 148.15 288.2 148.15 288.25 148.2 288.35 148.25 288.4 148.3 288.45 148.35 288.55 148.4 288.6 148.5 288.7 148.55 288.75 148.6 288.85 148.65 288.9 148.75 289.0 148.8 289.05 148.85 289.1 148.9 289.2 149.0 289.25 149.05 289.3 149.1 289.35 149.2 289.45 149.25 289.5 149.35 289.55 149.4 289.65 149.5 289.7 149.6 289.75 149.7 289.8 149.75 289.9 149.85 289.95 149.95 290.0 150.0 290.05 150.1 290.1 150.2 290.15 150.25 290.15 150.3 290.2 150.4 290.25 150.5 290.25 150.6 290.3 150.7 290.35 150.8 290.4 150.9 290.45 151.0 290.45 151.1 290.5 151.2 290.55 151.35 290.55 151.45 290.6 151.55 290.6 151.65 290.65 151.75 290.65 151.8 290.7 151.95 290.7 152.05 290.75 152.15 290.75 152.25 290.75 152.35 290.75 152.45 290.75 152.55 290.75 152.65 290.75 152.75 290.75 152.85 290.75 152.95 290.75 153.0 290.75 153.1 290.7 153.2 290.7 153.3 290.7 153.4 290.65 153.5 290.65 153.55 290.6 153.65 290.6 153.75 290.6 153.85 290.55 153.95 290.55 154.05 290.5 154.15 290.45 154.25 290.45 154.35 290.4 154.4 290.35 154.5 290.35 154.6 290.3 154.7 290.25 154.75 290.25 154.85 290.2 154.9 290.15 155.0 290.1 155.1 290.1 155.15 290.0 155.25 289.95 155.35 289.9 155.45 289.85 155.55 289.75 155.6 289.7 155.7 289.65 155.8 289.55 155.9 289.5 155.95 289.45 156.05 289.35 156.1 289.3 156.2 289.2 156.25 289.15 156.35 289.05 156.4 289.0 156.45 288.9 156.55 288.8 156.6 288.75 156.7 288.65 156.75 288.55 156.8 288.45 156.85 288.35 156.95 288.3 157.0 288.2 157.05 288.1 157.1 288.05 157.15 287.95 157.15 287.9 157.2 287.85 157.2 287.75 157.25 287.65 157.3 287.55 157.35 287.45 157.35 287.35 157.4 287.25 157.45 287.15 157.45 287.1 157.5 287.0 157.5 286.9 157.55 286.8 157.55 286.7 157.6 286.6 157.6 286.5 157.6 286.45 157.6 286.35 157.6 286.25 157.65 286.2 157.65 286.1 157.65 286.0 157.65 285.9 157.65 285.8 157.65 285.7 157.65 285.6 157.65 285.5 157.65 285.4 157.65 285.3 157.65 285.2 157.65 285.15 157.6 285.05 157.6 284.95 157.6 284.9 157.55 284.8 157.55 284.7 157.55 284.6 157.5 284.5 157.5 284.4 157.45 284.3 157.45 284.15 157.4 284.05 157.35 283.95 157.35 283.85 157.3 283.75 157.25 283.6 157.25 283.5 157.2 283.4 157.2 283.3 157.0 282.85 156.7 282.2 156.35 281.4 156.05 280.8 154.9 278.75 154.15 277.5 153.0 275.7 152.75 275.45 L152.75 275.45 M169.0 275.4 L168.7 275.05 168.4 275.55 Q167.85 276.4 167.05 277.65 166.65 278.3 166.1 279.3 165.55 280.25 165.25 280.9 164.4 282.5 164.1 283.4 164.05 283.5 164.05 283.6 164.0 283.7 164.0 283.8 163.95 283.95 163.9 284.05 163.9 284.2 163.85 284.3 163.85 284.45 163.8 284.55 163.8 284.7 163.8 284.8 163.75 284.95 163.75 285.05 163.75 285.15 163.75 285.25 163.75 285.35 163.75 285.5 163.75 285.6 163.7 285.75 163.7 285.85 163.75 285.95 163.75 286.05 163.75 286.15 163.75 286.3 163.75 286.4 163.75 286.5 163.8 286.55 163.8 286.65 163.8 286.75 163.85 286.8 163.85 286.9 163.85 286.95 163.9 287.05 163.9 287.1 163.95 287.2 163.95 287.25 164.0 287.35 164.0 287.4 164.05 287.5 164.1 287.55 164.1 287.65 164.15 287.7 164.2 287.8 164.25 287.85 164.25 287.95 164.3 288.0 164.35 288.05 164.4 288.1 164.4 288.2 164.45 288.25 164.5 288.3 164.55 288.4 164.6 288.45 164.65 288.55 164.7 288.6 164.8 288.7 164.85 288.75 164.9 288.85 164.95 288.9 165.05 289.0 165.1 289.05 165.15 289.15 165.2 289.2 165.25 289.25 165.35 289.3 165.4 289.4 165.5 289.45 165.55 289.5 165.65 289.55 165.75 289.65 165.8 289.7 165.9 289.75 166.0 289.8 166.1 289.85 166.15 289.95 166.25 290.0 166.35 290.05 166.4 290.05 166.5 290.1 166.55 290.15 166.65 290.2 166.75 290.2 166.85 290.25 166.95 290.3 167.05 290.35 167.15 290.35 167.25 290.4 167.35 290.45 167.45 290.45 167.55 290.5 167.65 290.55 167.8 290.55 167.85 290.6 167.95 290.6 168.05 290.6 168.2 290.6 168.3 290.65 168.4 290.65 168.5 290.65 168.6 290.7 168.7 290.7 168.8 290.7 168.9 290.7 169.0 290.7 169.1 290.7 169.15 290.7 169.25 290.65 169.35 290.65 169.45 290.65 169.55 290.65 169.65 290.6 169.7 290.6 169.8 290.55 169.9 290.55 170.0 290.5 170.1 290.5 170.2 290.45 170.25 290.45 170.35 290.4 170.45 290.4 170.55 290.35 170.65 290.3 170.75 290.25 170.85 290.25 170.9 290.2 171.0 290.15 171.1 290.15 171.15 290.1 171.25 290.05 171.35 290.0 171.4 289.95 171.5 289.9 171.6 289.85 171.7 289.8 171.75 289.7 171.85 289.65 171.95 289.55 172.05 289.5 172.1 289.45 172.2 289.35 172.3 289.3 172.35 289.2 172.4 289.15 172.45 289.1 172.55 289.0 172.6 288.95 172.7 288.85 172.75 288.75 172.85 288.65 172.9 288.6 172.95 288.5 173.05 288.4 173.1 288.3 173.15 288.2 173.2 288.15 173.3 288.05 173.3 287.95 173.35 287.9 173.4 287.8 173.45 287.75 173.45 287.65 173.5 287.55 173.55 287.5 173.55 287.4 173.6 287.3 173.65 287.2 173.65 287.1 173.7 287.0 173.7 286.9 173.75 286.8 173.75 286.7 173.8 286.6 173.8 286.55 173.85 286.45 173.85 286.35 173.85 286.25 173.85 286.2 173.9 286.1 173.9 286.0 173.9 285.9 173.9 285.8 173.9 285.7 173.9 285.65 173.9 285.55 173.9 285.45 173.9 285.35 173.9 285.25 173.85 285.15 173.85 285.05 173.85 284.95 173.85 284.9 173.8 284.6 173.65 284.1 173.55 283.6 173.4 283.25 173.1 282.35 172.25 280.75 171.5 279.3 170.35 277.45 169.35 275.8 169.0 275.4 L169.0 275.4" fill="#ffffff" fill-rule="evenodd" stroke="none"/>
  </g>
</svg>
