<?xml version="1.0" encoding="UTF-8" standalone="no"?>
<svg xmlns:xlink="http://www.w3.org/1999/xlink" height="885.95px" width="798.65px" xmlns="http://www.w3.org/2000/svg">
  <g transform="matrix(1.0, 0.0, 0.0, 1.0, 34.65, -37.45)">
    <path d="M312.4 858.5 Q382.85 860.9 422.8 713.05 369.6 823.3 312.4 858.5 M547.25 472.45 Q566.9 427.3 526.7 405.35 496.45 389.1 458.65 433.0 488.5 409.3 510.7 421.4 540.6 438.4 525.9 473.2 515.05 499.35 498.4 509.4 486.15 520.1 480.4 531.8 462.4 569.15 435.25 552.35 462.6 596.3 486.15 548.0 493.65 532.95 510.3 519.15 533.05 506.05 547.25 472.45 M59.85 507.05 Q69.0 534.0 48.75 537.15 L36.3 536.3 Q29.6 503.85 3.7 513.75 24.45 510.4 28.45 534.0 26.45 533.15 25.65 532.35 25.85 536.9 32.95 542.7 40.05 548.0 54.9 547.2 85.8 545.0 69.75 506.65 59.85 482.7 37.15 488.05 50.8 487.45 59.85 507.05 M135.9 372.05 L123.35 371.7 Q113.3 372.9 103.05 377.45 96.7 391.1 109.55 404.35 112.5 405.55 115.25 405.95 145.2 413.45 167.55 405.95 173.3 404.15 178.6 401.15 158.25 375.85 135.9 372.05 M750.3 306.0 Q753.1 425.15 693.55 506.85 L639.5 583.85 Q580.55 660.8 634.15 749.25 719.65 823.3 764.0 923.4 L246.7 923.4 Q283.15 893.15 296.35 851.6 270.45 826.05 262.3 793.8 239.2 767.45 208.45 755.4 279.9 742.75 341.1 727.1 424.0 689.95 421.6 557.1 410.95 671.9 328.2 708.9 247.65 729.9 148.55 745.1 64.2 764.9 40.3 730.5 27.0 702.55 40.3 671.7 45.85 650.15 33.95 640.0 31.35 637.1 30.0 633.95 22.9 619.45 37.9 604.4 49.8 603.05 61.05 607.15 L68.2 610.15 Q78.45 614.3 91.35 601.45 75.3 603.8 64.65 599.9 61.05 598.1 57.3 596.5 46.2 592.35 30.8 597.9 23.05 588.0 23.85 572.35 23.85 568.8 24.85 564.65 29.8 536.3 -4.85 534.35 -28.75 529.4 -34.55 500.35 -35.7 487.45 -22.85 476.35 -6.05 463.15 4.7 445.9 12.8 431.85 36.55 413.2 40.05 409.9 43.05 405.95 62.25 382.55 61.9 354.65 L61.9 352.1 Q55.3 317.7 76.9 291.15 L77.1 290.35 Q98.1 144.7 227.65 80.4 391.15 11.15 554.85 53.5 742.2 115.2 750.3 306.0" fill="#ffffff" fill-rule="evenodd" stroke="none"/>
  </g>
</svg>
