<?xml version="1.0" encoding="UTF-8" standalone="no"?>
<svg xmlns:xlink="http://www.w3.org/1999/xlink" height="116.85px" width="117.75px" xmlns="http://www.w3.org/2000/svg">
  <g transform="matrix(1.0, 0.0, 0.0, 1.0, 0.0, 0.0)">
    <path d="M40.55 116.85 L8.65 116.85 8.65 93.05 13.35 93.05 Q13.15 91.75 12.95 90.4 12.8 89.05 12.65 87.75 12.5 86.4 12.35 85.05 12.25 83.7 12.15 82.35 12.05 81.0 11.95 79.7 11.9 78.3 11.85 76.95 11.75 75.6 11.75 74.25 11.7 72.9 11.7 71.55 11.7 63.35 12.65 55.75 13.6 48.35 15.4 41.65 17.2 35.15 19.75 29.45 22.3 23.85 25.55 19.15 28.75 14.55 32.5 10.95 36.3 7.4 40.55 4.95 44.8 2.5 49.4 1.25 54.0 0.0 58.85 0.0 63.7 0.0 68.35 1.25 72.95 2.5 77.2 4.95 81.45 7.4 85.2 10.95 89.0 14.55 92.2 19.15 95.45 23.85 97.95 29.45 100.55 35.15 102.3 41.65 104.15 48.35 105.05 55.75 106.05 63.35 106.05 71.55 106.05 72.9 106.0 74.25 106.0 75.6 105.95 76.95 105.9 78.3 105.8 79.7 105.7 81.05 105.6 82.35 105.5 83.7 105.4 85.05 105.25 86.4 105.1 87.75 104.95 89.1 104.8 90.4 104.6 91.75 104.4 93.05 L109.1 93.05 109.1 116.85 77.2 116.85 77.2 93.05 83.65 93.05 Q83.9 91.85 84.1 90.65 84.3 89.4 84.45 88.2 84.65 86.95 84.8 85.7 84.95 84.5 85.05 83.25 85.2 82.0 85.3 80.7 85.4 79.45 85.45 78.2 85.5 76.95 85.55 75.65 85.55 74.4 85.55 73.15 85.55 67.9 85.0 63.0 84.5 58.25 83.45 54.0 82.45 49.8 81.0 46.1 79.55 42.55 77.75 39.55 75.95 36.55 73.8 34.25 71.65 32.0 69.25 30.4 66.85 28.85 64.25 28.05 61.65 27.25 58.85 27.25 56.1 27.25 53.5 28.05 50.9 28.85 48.5 30.4 46.1 32.0 43.95 34.25 41.8 36.55 40.0 39.55 38.15 42.55 36.75 46.1 35.3 49.8 34.3 53.95 33.25 58.25 32.75 63.0 32.2 67.85 32.2 73.15 32.2 74.4 32.25 75.7 32.25 76.95 32.3 78.2 32.4 79.45 32.45 80.75 32.55 82.0 32.7 83.25 32.8 84.5 32.95 85.75 33.1 86.95 33.25 88.2 33.45 89.45 33.65 90.65 33.85 91.85 34.1 93.05 L40.55 93.05 40.55 116.85 40.55 116.85 M58.9 8.8 Q58.35 8.8 57.8 8.9 57.25 9.0 56.75 9.25 56.25 9.45 55.8 9.75 55.4 10.05 55.0 10.4 54.65 10.75 54.35 11.2 54.05 11.65 53.85 12.15 53.65 12.6 53.5 13.15 53.4 13.7 53.4 14.25 53.4 14.8 53.5 15.35 53.6 15.85 53.85 16.35 54.05 16.85 54.35 17.3 54.65 17.7 55.0 18.1 55.4 18.45 55.8 18.75 56.25 19.05 56.75 19.25 57.25 19.45 57.75 19.55 58.3 19.65 58.85 19.65 59.4 19.65 59.95 19.55 60.5 19.45 61.0 19.25 61.5 19.05 61.95 18.75 62.35 18.45 62.75 18.1 63.1 17.7 63.4 17.3 63.7 16.85 63.9 16.35 64.1 15.85 64.25 15.35 64.35 14.8 64.35 14.25 64.35 13.7 64.25 13.15 64.15 12.65 63.9 12.15 63.7 11.65 63.4 11.2 63.1 10.8 62.75 10.4 62.35 10.05 61.95 9.75 61.5 9.45 61.0 9.25 60.5 9.05 60.0 8.9 59.45 8.8 58.9 8.8 L58.9 8.8 M95.95 74.9 Q95.4 74.9 94.85 75.0 94.3 75.1 93.8 75.3 93.35 75.5 92.9 75.8 92.45 76.1 92.1 76.5 91.7 76.85 91.4 77.3 91.1 77.7 90.9 78.2 90.7 78.7 90.6 79.2 90.45 79.75 90.45 80.3 90.45 80.85 90.55 81.4 90.7 81.9 90.9 82.4 91.1 82.9 91.4 83.35 91.7 83.8 92.05 84.15 92.45 84.5 92.9 84.8 93.35 85.1 93.8 85.3 94.3 85.55 94.85 85.65 95.4 85.75 95.95 85.75 96.5 85.75 97.05 85.65 97.6 85.55 98.1 85.3 98.55 85.1 99.0 84.8 99.45 84.5 99.8 84.15 100.2 83.8 100.5 83.35 100.8 82.9 101.0 82.45 101.2 81.95 101.3 81.4 101.4 80.85 101.4 80.3 101.4 79.75 101.3 79.2 101.2 78.7 101.0 78.2 100.75 77.7 100.5 77.3 100.2 76.85 99.8 76.45 99.45 76.1 99.0 75.8 98.55 75.5 98.05 75.3 97.55 75.1 97.05 75.0 96.5 74.9 95.95 74.9 L95.95 74.9 M90.45 34.9 Q89.9 34.9 89.35 35.0 88.85 35.1 88.35 35.3 87.85 35.5 87.4 35.8 86.95 36.1 86.6 36.45 86.25 36.85 85.95 37.25 85.65 37.7 85.45 38.2 85.2 38.7 85.1 39.2 85.0 39.75 85.0 40.3 85.0 40.85 85.1 41.4 85.2 41.9 85.45 42.4 85.65 42.9 85.95 43.35 86.25 43.75 86.6 44.15 87.0 44.5 87.4 44.8 87.85 45.1 88.35 45.3 88.85 45.5 89.35 45.6 89.9 45.75 90.45 45.75 91.0 45.75 91.55 45.65 92.1 45.55 92.6 45.3 93.1 45.1 93.55 44.8 93.95 44.5 94.35 44.15 94.7 43.8 95.0 43.35 95.3 42.9 95.5 42.4 95.7 41.95 95.85 41.4 95.95 40.85 95.95 40.3 95.95 39.75 95.85 39.2 95.75 38.7 95.5 38.2 95.3 37.7 95.0 37.25 94.7 36.85 94.35 36.45 93.95 36.1 93.55 35.8 93.1 35.5 92.6 35.3 92.1 35.1 91.6 35.0 91.05 34.9 90.45 34.9 L90.45 34.9 M21.8 74.9 Q21.25 74.9 20.7 75.0 20.15 75.1 19.65 75.3 19.2 75.5 18.75 75.8 18.3 76.1 17.95 76.5 17.55 76.85 17.25 77.3 16.95 77.7 16.75 78.2 16.55 78.7 16.45 79.2 16.35 79.75 16.35 80.3 16.35 80.85 16.45 81.4 16.55 81.9 16.75 82.4 17.0 82.9 17.25 83.35 17.55 83.8 17.95 84.15 18.3 84.5 18.75 84.8 19.2 85.1 19.7 85.3 20.2 85.55 20.7 85.65 21.25 85.75 21.8 85.75 22.35 85.75 22.9 85.65 23.45 85.55 23.95 85.3 24.4 85.1 24.85 84.8 25.3 84.5 25.65 84.15 26.05 83.8 26.35 83.35 26.65 82.9 26.85 82.45 27.05 81.95 27.15 81.4 27.3 80.85 27.3 80.3 27.3 79.75 27.2 79.2 27.05 78.7 26.85 78.2 26.65 77.7 26.35 77.3 26.05 76.85 25.7 76.45 25.3 76.1 24.85 75.8 24.4 75.5 23.95 75.3 23.45 75.1 22.9 75.0 22.35 74.9 21.8 74.9 L21.8 74.9 M27.3 34.9 Q26.75 34.9 26.2 35.0 25.65 35.1 25.15 35.3 24.65 35.5 24.2 35.8 23.8 36.1 23.4 36.45 23.05 36.85 22.75 37.25 22.45 37.7 22.25 38.2 22.05 38.7 21.9 39.2 21.8 39.75 21.8 40.3 21.8 40.85 21.9 41.4 22.0 41.9 22.25 42.4 22.45 42.9 22.75 43.35 23.05 43.75 23.4 44.15 23.8 44.5 24.2 44.8 24.65 45.1 25.15 45.3 25.65 45.5 26.15 45.6 26.7 45.75 27.3 45.75 27.85 45.75 28.4 45.65 28.9 45.55 29.4 45.3 29.9 45.1 30.35 44.8 30.8 44.5 31.15 44.15 31.5 43.8 31.8 43.35 32.1 42.9 32.3 42.4 32.55 41.95 32.65 41.4 32.75 40.85 32.75 40.3 32.75 39.75 32.65 39.2 32.55 38.7 32.3 38.2 32.1 37.7 31.8 37.25 31.5 36.85 31.15 36.45 30.75 36.1 30.35 35.8 29.9 35.5 29.4 35.3 28.9 35.1 28.4 35.0 27.85 34.9 27.3 34.9 L27.3 34.9" fill="#ffffff" fill-rule="evenodd" stroke="none"/>
  </g>
</svg>
