<?xml version="1.0" encoding="UTF-8" standalone="no"?>
<svg xmlns:xlink="http://www.w3.org/1999/xlink" height="960.85px" width="1205.05px" xmlns="http://www.w3.org/2000/svg">
  <g transform="matrix(1.0, 0.0, 0.0, 1.0, -51.25, -9.7)">
    <path d="M1256.3 208.6 Q1214.45 424.75 887.8 378.0 943.1 420.4 1096.25 420.4 1040.3 564.85 831.35 493.55 843.2 535.8 931.95 555.5 877.0 616.45 782.2 604.0 769.55 581.25 746.4 561.6 815.2 663.25 760.05 773.75 672.2 914.8 658.7 970.55 628.05 916.3 683.8 830.05 L684.05 828.2 Q717.7 770.15 670.7 735.55 670.5 779.3 642.3 792.8 646.45 715.9 591.8 661.25 536.95 605.7 564.25 557.9 540.9 579.5 533.0 604.0 438.2 616.45 383.05 555.5 460.25 534.05 483.4 493.55 274.65 564.85 218.85 420.4 371.95 420.4 427.4 378.0 100.75 424.75 51.25 193.0 136.55 280.25 322.1 239.45 428.1 211.9 532.55 214.25 542.85 215.1 535.0 223.25 527.35 235.5 530.0 240.5 562.5 276.0 597.0 255.1 650.15 201.8 599.45 167.25 570.65 155.3 507.7 155.95 511.8 143.05 524.95 133.45 494.8 125.85 464.2 150.85 456.3 110.55 504.55 94.75 494.3 58.7 531.3 57.55 609.9 53.6 643.15 9.7 652.6 32.45 634.4 61.05 708.3 41.15 754.25 80.3 708.95 72.45 688.6 101.2 742.4 111.5 758.15 150.85 731.65 138.65 720.3 149.15 758.15 212.3 717.7 262.4 750.9 278.3 784.65 245.1 788.7 237.2 780.9 228.45 764.3 213.9 780.9 214.25 886.2 211.45 993.1 239.45 1178.45 280.25 1256.3 208.6 M651.45 574.3 Q582.2 643.1 739.75 744.1 787.2 662.35 651.45 574.3 M535.2 100.2 Q572.8 125.55 598.8 84.25 556.3 68.9 535.2 100.2" fill="#ffffff" fill-rule="evenodd" stroke="none"/>
  </g>
</svg>
