<?xml version="1.0" encoding="UTF-8" standalone="no"?>
<svg xmlns:xlink="http://www.w3.org/1999/xlink" height="593.05px" width="593.05px" xmlns="http://www.w3.org/2000/svg">
  <g transform="matrix(1.0, 0.0, 0.0, 1.0, 216.25, -24.7)">
    <path d="M190.95 301.7 Q118.5 340.35 72.15 412.0 66.75 420.4 61.95 429.3 L61.95 429.45 Q55.5 424.5 49.75 419.55 27.75 401.15 8.2 379.65 3.1 374.6 -1.25 369.1 -9.0 360.3 -16.6 350.8 31.45 267.05 111.6 223.75 157.85 256.4 190.0 300.75 L190.95 301.7 M209.0 587.9 Q218.65 597.55 249.05 586.15 269.5 579.1 288.75 562.6 294.25 556.8 285.45 549.4 L250.55 517.8 261.0 506.45 290.6 533.45 299.65 542.95 Q314.2 560.8 306.65 568.65 262.9 606.9 193.75 617.75 150.1 535.35 91.85 463.6 L75.9 444.9 Q81.2 435.4 87.05 426.85 133.5 354.5 206.65 316.0 284.65 382.6 376.8 434.7 368.4 507.45 311.85 537.45 L303.2 527.95 Q336.35 511.45 345.85 487.65 357.15 458.9 347.5 449.25 338.3 439.9 311.15 453.5 283.95 467.0 255.35 495.65 L252.35 498.65 Q246.8 504.2 241.9 510.2 223.45 531.1 213.15 551.6 199.75 578.55 209.0 587.9 M53.0 460.0 Q48.65 497.15 56.3 532.35 58.8 543.9 62.5 555.6 L28.0 521.1 0.65 553.4 Q-4.05 537.05 -6.75 520.65 -16.6 463.35 -0.2 410.5 L3.1 400.75 Q26.9 426.6 54.15 448.7 53.15 454.35 53.0 460.0 M-31.85 337.05 Q-114.05 265.4 -216.25 207.75 -171.0 80.3 -33.2 24.7 23.9 125.1 97.75 208.75 16.45 252.05 -31.85 337.05" fill="#ffffff" fill-rule="evenodd" stroke="none"/>
  </g>
</svg>
