<?xml version="1.0" encoding="UTF-8" standalone="no"?>
<svg xmlns:xlink="http://www.w3.org/1999/xlink" height="116.65px" width="125.3px" xmlns="http://www.w3.org/2000/svg">
  <g transform="matrix(1.0, 0.0, 0.0, 1.0, -886.4, -275.95)">
    <path d="M968.95 310.15 Q969.05 310.0 969.1 309.9 969.15 309.75 969.2 309.65 969.25 309.5 969.25 309.4 969.3 309.3 969.3 309.15 969.3 309.05 969.3 308.9 969.3 308.8 969.3 308.65 969.3 308.55 969.25 308.4 969.2 308.25 969.15 308.1 L968.85 307.0 962.65 303.55 Q960.8 302.55 955.4 299.5 950.7 296.85 950.7 296.9 950.65 297.1 950.55 297.35 950.4 297.6 950.15 297.8 949.95 298.05 949.65 298.3 949.35 298.5 949.05 298.75 948.75 298.95 948.4 299.15 948.1 299.35 947.8 299.5 947.5 299.65 947.25 299.75 947.0 299.85 946.8 299.9 946.6 299.95 957.35 306.2 L966.65 311.55 967.5 311.3 Q967.65 311.25 967.75 311.25 967.85 311.2 967.95 311.15 968.05 311.1 968.15 311.05 968.25 311.0 968.3 310.9 968.4 310.85 968.5 310.75 968.55 310.7 968.65 310.6 968.7 310.5 968.8 310.35 968.85 310.25 968.95 310.15 L968.95 310.15 M967.4 298.5 Q967.4 298.5 967.45 298.45 967.45 298.4 967.45 298.35 967.5 298.3 967.5 298.25 967.5 298.2 967.55 298.15 967.55 298.1 967.55 298.05 967.6 298.0 967.6 297.95 967.6 297.85 967.6 297.8 967.65 297.75 967.65 297.7 967.65 297.65 967.65 297.55 967.65 297.5 967.65 297.4 967.65 297.35 967.65 297.25 967.65 297.15 967.6 297.05 967.6 297.0 967.6 296.9 967.55 296.8 967.55 296.7 967.55 296.6 967.5 296.55 967.5 296.45 967.45 296.4 967.4 296.25 967.35 296.15 967.3 296.0 967.15 295.85 967.0 295.7 966.75 295.55 966.5 295.35 966.1 295.05 965.7 294.8 965.05 294.4 964.45 294.05 963.55 293.55 962.75 293.05 961.55 292.35 960.6 291.8 958.85 290.8 950.55 286.0 949.45 285.8 949.0 285.7 935.45 284.4 921.95 283.15 921.6 283.15 921.4 283.15 915.7 282.7 910.0 282.25 909.55 282.3 909.4 282.3 909.25 282.35 909.05 282.35 908.9 282.35 908.7 282.35 908.5 282.35 908.3 282.35 908.1 282.35 907.9 282.35 907.7 282.3 907.5 282.3 907.3 282.3 907.1 282.3 906.95 282.25 906.75 282.25 906.6 282.2 906.35 282.15 906.1 282.1 905.9 282.05 905.65 281.95 905.4 281.85 905.1 281.75 904.8 281.6 904.5 281.45 904.15 281.3 903.7 281.05 903.3 280.85 902.75 280.5 902.2 280.25 901.5 279.85 900.9 279.5 900.0 278.95 894.9 276.05 894.45 275.95 894.35 275.95 894.3 275.95 894.2 276.0 894.1 276.1 893.95 276.25 893.8 276.45 893.65 276.65 893.45 277.0 893.2 277.35 892.9 277.85 892.6 278.3 892.2 279.0 891.85 279.65 891.3 280.5 890.85 281.3 890.2 282.45 L886.4 289.05 897.55 295.4 Q900.15 296.9 901.2 297.45 902.9 298.45 903.95 299.05 905.2 299.7 906.0 300.2 906.85 300.65 907.45 300.95 908.05 301.25 908.5 301.45 908.9 301.65 909.25 301.75 909.55 301.85 909.85 301.95 910.05 302.0 910.45 302.05 911.15 302.2 912.2 302.3 913.2 302.4 913.9 302.45 914.65 302.45 915.65 302.4 916.8 302.3 917.6 302.15 917.8 302.1 918.05 302.1 918.3 302.05 918.55 302.0 918.8 301.9 919.1 301.85 919.35 301.8 919.65 301.7 919.9 301.65 920.2 301.55 920.45 301.5 920.7 301.4 920.95 301.35 921.2 301.25 921.45 301.15 921.65 301.1 922.5 300.75 923.5 300.25 924.6 299.7 925.25 299.3 925.95 298.7 926.5 298.2 926.95 297.8 927.3 297.5 927.55 297.2 927.7 297.05 927.85 296.9 927.85 296.85 927.9 296.8 927.85 296.8 927.8 296.8 927.75 296.8 927.7 296.85 927.7 296.85 927.7 296.9 927.8 296.85 928.2 296.75 928.2 296.75 928.55 296.7 928.85 296.6 929.3 296.55 929.7 296.5 930.25 296.45 930.75 296.4 931.4 296.4 932.0 296.4 932.75 296.4 933.45 296.5 934.25 296.55 935.1 296.75 936.0 296.9 936.9 297.15 937.45 297.3 937.75 297.35 938.15 297.5 938.5 297.55 938.9 297.65 939.25 297.7 939.65 297.75 940.05 297.75 940.45 297.8 940.9 297.75 941.35 297.75 941.85 297.7 942.35 297.65 942.95 297.55 943.5 297.45 944.2 297.3 944.25 297.25 944.45 297.2 944.6 297.15 944.85 297.05 945.1 296.9 945.4 296.8 945.7 296.65 945.95 296.5 946.25 296.35 946.55 296.25 946.85 296.1 947.05 295.95 947.3 295.8 947.45 295.7 947.6 295.6 947.65 295.5 947.7 295.4 947.75 295.3 947.8 295.2 947.85 295.1 947.85 295.0 947.9 294.9 947.9 294.75 947.95 294.65 947.95 294.55 947.95 294.45 947.95 294.3 947.9 294.2 947.9 294.1 947.9 293.95 947.85 293.8 947.8 293.7 947.75 293.6 947.75 293.45 947.7 293.35 947.65 293.25 947.6 293.15 947.55 293.05 947.5 292.95 947.45 292.85 947.4 292.75 947.35 292.65 947.25 292.6 947.2 292.5 947.15 292.45 947.1 292.4 947.05 292.35 946.95 292.3 946.8 292.2 944.55 292.05 940.9 291.8 938.0 291.5 936.75 291.4 935.65 291.2 934.65 291.05 933.8 290.9 933.05 290.7 932.4 290.5 931.85 290.35 931.35 290.15 930.95 290.0 930.65 289.8 930.35 289.65 930.15 289.5 930.0 289.4 929.9 289.3 929.9 289.25 929.75 289.15 929.7 289.1 929.6 289.0 929.5 288.95 929.25 288.8 929.15 288.75 928.85 288.55 928.55 288.35 928.4 288.25 928.1 288.1 927.95 287.95 927.7 287.8 927.55 287.65 927.35 287.55 927.3 287.45 927.2 287.3 927.2 287.25 927.05 287.15 927.6 287.05 928.1 287.0 929.15 287.05 930.2 287.05 931.65 287.1 933.15 287.2 934.8 287.35 936.6 287.5 938.4 287.7 940.35 287.9 942.15 288.15 944.1 288.45 945.8 288.75 947.6 289.15 949.1 289.5 949.45 289.6 949.8 289.8 950.1 289.95 950.4 290.2 950.7 290.45 950.95 290.75 951.2 291.0 951.45 291.3 951.65 291.6 951.8 291.85 951.95 292.1 952.05 292.35 952.15 292.55 952.15 292.7 952.15 292.85 952.1 292.9 952.1 293.05 952.15 293.15 952.25 293.25 952.35 293.35 952.5 293.45 952.75 293.55 952.95 293.7 953.3 293.85 955.95 295.15 954.15 294.25 954.75 294.55 955.3 294.85 956.05 295.2 956.8 295.6 957.7 296.1 958.7 296.65 964.4 299.85 965.15 299.9 965.25 299.9 965.35 299.9 965.4 299.9 965.5 299.85 965.6 299.85 965.7 299.8 965.8 299.8 965.9 299.75 966.0 299.7 966.1 299.65 966.2 299.6 966.3 299.55 966.4 299.5 966.5 299.45 966.55 299.4 966.65 299.35 966.7 299.3 966.8 299.25 966.85 299.15 966.9 299.1 966.95 299.05 967.05 299.0 967.1 298.9 967.15 298.85 967.2 298.8 967.25 298.75 967.3 298.7 967.3 298.65 967.35 298.6 967.4 298.55 967.4 298.55 967.4 298.5 L967.4 298.5 M958.3 313.85 Q958.35 313.75 958.4 313.65 958.45 313.55 958.45 313.45 958.5 313.35 958.5 313.25 958.55 313.15 958.55 313.05 958.55 312.95 958.55 312.85 958.55 312.75 958.55 312.65 958.55 312.55 958.5 312.45 958.5 312.3 958.45 312.2 L958.15 311.3 948.95 305.9 939.75 300.5 934.75 300.0 Q932.75 299.8 931.15 299.7 929.6 299.6 929.5 299.7 929.25 299.9 942.35 307.5 950.75 312.35 953.2 313.7 955.8 315.1 956.3 315.1 956.4 315.1 956.5 315.1 956.6 315.1 956.65 315.1 956.75 315.1 956.85 315.1 956.95 315.05 957.0 315.05 957.1 315.05 957.15 315.0 957.25 315.0 957.3 314.95 957.35 314.95 957.4 314.9 957.45 314.9 957.5 314.9 957.55 314.85 957.6 314.8 957.6 314.75 957.65 314.7 957.7 314.65 957.8 314.6 957.85 314.5 957.9 314.45 957.95 314.4 958.0 314.3 958.05 314.25 958.1 314.15 958.15 314.05 958.2 314.0 958.25 313.9 958.3 313.85 L958.3 313.85 M942.0 315.45 Q942.05 315.4 942.05 315.35 942.1 315.3 942.1 315.25 942.15 315.2 942.15 315.15 942.2 315.05 942.2 315.0 942.2 314.95 942.25 314.85 942.25 314.8 942.3 314.75 942.3 314.65 942.3 314.6 942.3 314.55 942.35 314.5 942.35 314.45 942.35 314.35 942.35 314.3 942.35 314.2 942.35 314.15 942.35 314.05 942.3 313.95 942.3 313.85 942.3 313.75 942.25 313.7 942.25 313.6 942.25 313.5 942.2 313.4 942.2 313.35 942.15 313.25 942.15 313.15 942.1 313.0 942.05 312.9 941.95 312.75 941.85 312.65 941.7 312.5 941.5 312.35 941.25 312.15 940.85 311.9 940.5 311.65 939.9 311.3 939.4 310.95 938.55 310.45 937.85 310.05 936.75 309.4 935.9 308.85 934.35 307.95 L925.55 302.8 Q925.1 303.1 924.5 303.35 924.0 303.6 923.35 303.8 922.8 304.0 922.2 304.2 921.65 304.35 921.05 304.45 920.55 304.6 920.05 304.65 919.6 304.75 919.25 304.8 918.95 304.85 918.75 304.85 918.6 304.85 918.65 304.8 L931.55 312.35 Q938.95 316.65 939.65 316.7 939.75 316.7 939.85 316.7 939.9 316.7 940.0 316.7 940.1 316.65 940.2 316.65 940.3 316.65 940.4 316.6 940.5 316.6 940.6 316.55 940.7 316.55 940.8 316.5 940.9 316.45 940.95 316.4 941.05 316.4 941.1 316.35 941.2 316.3 941.25 316.25 941.35 316.2 941.4 316.15 941.45 316.05 941.55 316.0 941.6 315.95 941.65 315.9 941.75 315.85 941.8 315.75 941.85 315.7 941.9 315.65 941.95 315.6 941.95 315.55 942.0 315.5 942.0 315.45 L942.0 315.45" fill="#ffffff" fill-rule="evenodd" stroke="none"/>
    <path d="M957.8 319.05 L963.15 324.35 968.45 329.65 971.0 329.65 Q971.3 329.65 971.6 329.65 971.85 329.65 972.15 329.7 972.45 329.7 972.7 329.75 972.95 329.75 973.2 329.8 973.45 329.85 973.7 329.85 973.9 329.9 974.1 329.95 974.3 330.0 974.5 330.05 974.65 330.1 974.8 330.15 976.1 330.75 982.65 337.25 L989.3 343.85 994.0 344.65 Q998.85 345.6 999.5 346.05 999.6 346.1 999.65 346.15 999.75 346.25 999.8 346.3 999.9 346.4 1000.0 346.45 1000.05 346.55 1000.15 346.65 1000.25 346.75 1000.3 346.85 1000.35 346.95 1000.45 347.05 1000.5 347.15 1000.55 347.2 1000.6 347.3 1000.65 347.4 1000.7 347.5 1000.75 347.65 1000.75 347.8 1000.8 348.0 1000.85 348.2 1000.85 348.4 1000.9 348.65 1000.95 348.95 1000.95 349.2 1000.95 349.5 1001.0 349.85 1001.0 350.15 1001.0 350.45 1001.05 350.8 1001.05 351.15 1001.05 351.45 L1001.05 354.7 1006.05 359.65 Q1009.0 362.5 1010.7 363.9 1010.5 363.9 1010.35 363.9 1010.15 363.85 1010.0 363.85 1009.85 363.85 1009.7 363.85 1009.55 363.85 1009.45 363.85 1009.3 363.85 1009.2 363.9 1009.15 363.9 1009.05 363.9 1009.0 363.9 1008.95 363.95 1008.9 363.95 1008.9 364.0 1008.9 364.05 1008.95 364.3 1009.05 364.55 1009.25 364.9 1009.4 365.25 1009.65 365.7 1009.85 366.05 1010.15 366.55 1010.4 366.95 1010.65 367.4 1010.9 367.8 1011.15 368.15 1011.35 368.5 1011.5 368.75 1011.65 369.0 1011.7 369.05 1011.35 368.9 1007.65 368.2 1003.95 367.55 1003.95 367.65 1003.95 367.7 1005.4 370.25 1006.8 372.7 1006.65 372.6 1006.45 372.5 1002.7 372.6 1000.85 372.7 999.0 372.75 999.0 372.75 1000.0 374.9 1000.95 377.05 1000.85 377.0 1000.75 376.9 995.55 376.1 992.95 375.7 990.4 375.3 L993.2 381.5 983.45 379.65 984.6 386.45 975.25 383.05 Q975.3 383.05 975.6 386.0 975.9 389.0 975.85 389.0 971.4 387.95 966.9 386.85 L966.25 392.6 Q965.65 391.65 964.5 390.05 962.0 386.45 961.6 385.25 961.3 384.15 961.15 383.75 961.1 383.35 961.1 383.3 961.1 383.3 961.1 383.25 961.1 383.2 961.05 383.15 961.05 383.1 961.05 383.05 961.0 383.0 961.0 382.95 960.95 382.9 960.9 382.8 960.9 382.75 960.85 382.65 960.8 382.6 960.8 382.5 960.75 382.45 960.7 382.35 960.65 382.3 960.6 382.2 960.55 382.1 960.55 382.0 960.5 381.9 960.45 381.75 960.4 381.65 960.35 381.5 960.35 381.4 960.3 381.25 960.25 381.15 960.25 381.0 960.2 380.9 960.2 380.75 960.15 380.65 960.15 380.55 959.9 379.25 959.85 378.95 959.8 378.8 959.75 378.4 959.6 377.8 959.55 377.65 959.5 377.4 959.35 376.8 959.2 376.1 959.15 375.85 959.05 375.25 958.85 374.2 958.8 373.55 958.35 372.05 957.95 370.35 957.85 369.9 957.85 369.85 957.85 369.75 957.8 369.65 957.8 369.6 957.8 369.5 957.8 369.4 957.75 369.35 957.75 369.25 957.7 369.2 957.7 369.1 957.7 369.05 957.65 368.95 957.65 368.9 957.6 368.85 957.6 368.75 957.6 368.7 957.45 368.35 956.7 364.8 956.6 364.2 956.15 362.15 955.9 360.8 955.85 360.5 955.6 359.05 954.7 355.2 953.7 350.65 953.5 350.1 953.5 350.05 953.4 349.9 953.3 349.75 953.15 349.6 953.05 349.4 952.85 349.15 952.65 348.95 952.45 348.65 952.2 348.4 951.95 348.1 951.7 347.8 951.4 347.5 951.1 347.15 950.8 346.85 950.5 346.5 950.15 346.2 947.1 343.0 946.45 341.8 946.4 341.65 946.3 341.5 946.25 341.35 946.2 341.2 946.15 341.0 946.1 340.85 946.05 340.65 946.05 340.5 946.0 340.3 946.0 340.1 945.95 339.9 945.95 339.7 945.95 339.5 945.95 339.3 945.95 339.05 945.95 338.85 945.95 338.65 945.95 338.45 946.0 338.25 946.0 338.05 946.0 337.85 946.05 337.7 946.05 337.5 946.1 337.35 946.1 337.15 946.1 337.0 946.15 336.85 946.15 336.7 946.2 336.6 946.2 336.5 946.25 336.4 946.25 336.3 946.25 336.25 946.3 336.2 946.35 336.1 946.4 336.05 946.45 335.95 946.55 335.9 946.6 335.85 946.7 335.75 946.8 335.7 946.9 335.65 947.0 335.55 947.1 335.5 947.2 335.45 947.3 335.4 947.4 335.35 947.5 335.3 947.6 335.25 947.75 335.25 947.9 335.2 948.05 335.15 948.2 335.15 948.4 335.1 948.6 335.1 948.8 335.05 949.0 335.05 949.2 335.0 949.4 335.0 949.6 335.0 949.8 334.95 950.05 334.95 950.25 334.95 950.45 334.95 L952.4 334.95 952.4 327.75 Q952.4 320.6 952.65 320.2 952.7 320.15 952.7 320.1 952.75 320.1 952.8 320.05 952.85 320.0 952.9 319.95 952.95 319.9 953.0 319.85 953.05 319.8 953.15 319.75 953.2 319.7 953.25 319.65 953.35 319.6 953.4 319.55 953.5 319.5 953.55 319.45 953.6 319.4 953.7 319.4 953.8 319.35 953.95 319.3 954.05 319.3 954.2 319.25 954.35 319.2 954.55 319.2 954.7 319.15 954.9 319.15 955.05 319.1 955.25 319.1 955.45 319.1 955.6 319.1 955.8 319.05 956.0 319.05 L957.8 319.05 957.8 319.05" fill="#ffffff" fill-rule="evenodd" stroke="none"/>
  </g>
</svg>
