<?xml version="1.0" encoding="UTF-8" standalone="no"?>
<svg xmlns:xlink="http://www.w3.org/1999/xlink" height="490.0px" width="490.0px" xmlns="http://www.w3.org/2000/svg">
  <g transform="matrix(1.0, 0.0, 0.0, 1.0, 0.0, 0.0)">
    <path d="M245.6 453.2 Q246.9 449.3 248.65 445.6 250.35 441.9 252.5 438.45 254.65 435.0 257.15 431.85 259.65 428.7 262.5 425.85 265.35 423.0 268.5 420.5 271.65 418.0 275.1 415.85 278.55 413.7 282.25 412.0 285.95 410.25 289.85 408.95 L326.65 396.65 289.85 384.4 Q285.95 383.1 282.25 381.35 278.55 379.65 275.1 377.5 271.65 375.35 268.5 372.85 265.35 370.35 262.5 367.5 259.65 364.65 257.15 361.5 254.65 358.3 252.5 354.9 250.35 351.45 248.65 347.75 246.9 344.05 245.6 340.15 L233.35 303.35 221.05 340.15 Q219.75 344.05 218.0 347.75 216.3 351.45 214.15 354.9 212.0 358.35 209.5 361.5 207.0 364.65 204.15 367.5 201.3 370.35 198.15 372.85 194.95 375.35 191.55 377.5 188.1 379.65 184.4 381.35 180.7 383.1 176.8 384.4 L140.0 396.65 176.8 408.95 Q180.7 410.25 184.4 412.0 188.1 413.7 191.55 415.85 195.0 418.0 198.15 420.5 201.3 423.0 204.15 425.85 207.0 428.7 209.5 431.85 212.0 435.0 214.15 438.45 216.3 441.9 218.0 445.6 219.75 449.3 221.05 453.2 L233.35 490.0 245.6 453.2 M105.6 313.2 Q106.9 309.3 108.65 305.6 110.35 301.9 112.5 298.45 114.65 295.0 117.15 291.85 119.65 288.7 122.5 285.85 125.35 283.0 128.5 280.5 131.65 278.0 135.1 275.85 138.55 273.7 142.25 272.0 145.95 270.25 149.85 268.95 L186.65 256.65 149.85 244.4 Q145.95 243.1 142.25 241.35 138.55 239.65 135.1 237.5 131.65 235.35 128.5 232.85 125.35 230.35 122.5 227.5 119.65 224.65 117.15 221.5 114.65 218.3 112.5 214.9 110.35 211.45 108.65 207.75 106.9 204.05 105.6 200.15 L93.35 163.35 81.05 200.15 Q79.75 204.05 78.0 207.75 76.3 211.45 74.15 214.9 72.0 218.35 69.5 221.5 67.0 224.65 64.15 227.5 61.3 230.35 58.15 232.85 54.95 235.35 51.55 237.5 48.1 239.65 44.4 241.35 40.7 243.1 36.8 244.4 L0.0 256.65 36.8 268.95 Q40.7 270.25 44.4 272.0 48.1 273.7 51.55 275.85 55.0 278.0 58.15 280.5 61.3 283.0 64.15 285.85 67.0 288.7 69.5 291.85 72.0 295.0 74.15 298.45 76.3 301.9 78.0 305.6 79.75 309.3 81.05 313.2 L93.35 350.0 105.6 313.2 M326.65 326.65 L303.05 255.85 Q301.05 249.8 298.3 244.0 295.6 238.25 292.3 232.9 288.95 227.55 285.05 222.6 281.15 217.7 276.75 213.25 272.3 208.85 267.4 204.95 262.45 201.05 257.1 197.7 251.75 194.4 246.0 191.7 240.25 188.95 234.15 186.95 L163.35 163.35 234.15 139.7 Q240.2 137.7 246.0 134.95 251.75 132.3 257.1 128.95 262.45 125.65 267.4 121.75 272.3 117.85 276.75 113.4 281.15 109.0 285.05 104.05 288.95 99.15 292.3 93.8 295.6 88.4 298.3 82.7 301.05 76.9 303.05 70.85 L326.65 0.0 350.25 70.85 Q352.3 76.9 355.0 82.7 357.7 88.45 361.0 93.8 364.35 99.15 368.25 104.1 372.15 109.0 376.6 113.4 381.0 117.85 385.9 121.75 390.85 125.65 396.2 128.95 401.55 132.3 407.3 135.0 413.05 137.7 419.15 139.7 L490.0 163.35 419.15 186.95 Q413.1 188.95 407.3 191.7 401.55 194.4 396.2 197.7 390.85 201.05 385.9 204.95 381.0 208.85 376.6 213.25 372.15 217.7 368.25 222.6 364.35 227.55 361.05 232.85 357.7 238.25 355.0 243.95 352.3 249.75 350.25 255.85 L326.65 326.65" fill="#ffffff" fill-rule="evenodd" stroke="none"/>
  </g>
</svg>
