<?xml version="1.0" encoding="UTF-8"?>
<svg width="512pt" height="512pt" version="1.1" viewBox="0 0 512 512" xmlns="http://www.w3.org/2000/svg">
 <g fill="#fff">
  <path d="m427.52 161.79c-3.0703-0.51172-5.6328 0.51172-7.6797 3.0703-7.6797 9.7266-14.848 15.359-22.527 21.504-10.238 8.1914-20.992 16.895-31.23 33.793-5.6328 9.7266-15.871 15.871-26.625 15.871-8.7031 0-15.871-3.5859-17.922-9.2148-3.0703-7.6797 3.0703-19.457 16.383-31.23 35.328-31.742 31.742-83.969 18.434-118.79-6.6562-17.922-14.336-27.137-21.504-27.137-3.5859 0-7.6797 2.0469-9.7266 7.168-0.51172 1.5352-1.0234 3.0703-1.5352 4.0977-4.0977 13.824-8.1914 27.137-54.785 47.105-33.793 14.336-43.008 34.305-50.688 50.688-5.6328 11.777-9.7266 20.992-22.016 27.648-2.0469 1.0234-3.5859 1.5352-4.0977 1.5352-0.51172-1.5352-3.0703-8.1914 1.0234-29.695 2.5586-14.336 6.6562-27.648 6.6562-27.648 1.0234-3.0703 0-6.6562-3.0703-8.7031-2.5586-2.0469-6.1445-2.0469-9.2148 0-6.1445 4.0977-11.777 7.168-16.383 10.238-19.969 11.266-30.207 18.945-36.863 57.855-3.0703 18.945-10.238 26.625-19.969 37.887-13.312 14.848-30.207 33.281-43.008 83.457-16.387 62.465 13.82 128.51 70.141 154.11 25.09 11.266 51.711 16.895 78.336 16.895 44.543 0 87.039-15.871 122.88-46.078 43.52-36.863 53.246-79.359 60.414-110.59 4.0977-18.945 7.6797-34.305 16.895-42.496 38.91-34.816 14.848-112.64 13.824-116.22-0.50781-2.5586-3.0664-4.6055-6.1406-5.1172zm-238.08 288.25c-35.84-9.7266-23.555-40.445-46.594-49.152-20.992-7.168-32.77-35.84-32.77-56.32 0-57.855 47.105-104.96 104.96-104.96 57.855 0 104.96 47.105 104.96 104.96 0 28.672-33.281 73.727-57.344 73.727-26.625 0.003907-18.945 45.57-73.215 31.746z"/>
  <path d="m448.51 36.352c-1.5352-4.6094-6.1445-7.168-10.754-6.1445-4.6055 0.51172-7.6797 4.6094-7.6797 9.2188 0 1.5352-1.5352 12.289-17.922 22.527-23.039 14.336-17.922 43.52-11.777 56.32 1.5352 3.5859 5.1211 5.6328 8.7031 5.6328h2.0469c16.895-3.5859 29.184-12.289 36.352-25.602 13.832-26.113 1.543-60.418 1.0312-61.953z"/>
  <path d="m86.527 165.38c1.5352 0.51172 2.5586 1.0234 4.0977 1.0234 3.0703 0 6.6562-1.5352 8.1914-4.6094 1.0234-1.5352 22.016-38.398 1.5352-60.93-7.168-8.1914-8.7031-22.527-8.7031-27.137 0-4.0977-3.0703-8.1914-7.168-9.2148-4.0977-1.0234-8.7031 0.51172-10.754 4.6094-14.848 25.09-18.945 47.617-13.312 66.559 7.1719 20.484 25.09 29.188 26.113 29.699z"/>
  <path d="m152.06 319.49c-13.824 0-25.602 11.266-25.602 25.602 0 13.824 11.266 25.602 25.602 25.602 13.824 0 25.602-11.266 25.602-25.602-0.51172-14.336-11.777-25.602-25.602-25.602z"/>
  <path d="m279.55 355.33c0 14.137-11.461 25.602-25.598 25.602-14.141 0-25.602-11.465-25.602-25.602s11.461-25.602 25.602-25.602c14.137 0 25.598 11.465 25.598 25.602"/>
  <path d="m206.34 375.81c-2.0469-6.6562-11.266-7.6797-14.336-1.0234l-12.801 28.16c-2.0469 4.6094 1.0234 10.238 6.1445 10.754l21.504 2.5586c5.6328 0.51172 9.7266-4.6094 8.1914-9.7266z"/>
 </g>
</svg>
