<?xml version="1.0" encoding="UTF-8" standalone="no"?>
<svg xmlns:xlink="http://www.w3.org/1999/xlink" height="110.5px" width="98.15px" xmlns="http://www.w3.org/2000/svg">
  <g transform="matrix(1.0, 0.0, 0.0, 1.0, -10.2, -3.55)">
    <path d="M61.85 3.55 Q63.1 3.7 64.4 3.95 65.65 4.15 66.9 4.45 68.15 4.7 69.4 5.05 70.65 5.4 71.85 5.85 73.1 6.25 74.3 6.7 75.55 7.2 76.75 7.75 77.95 8.3 79.15 8.9 80.3 9.5 81.5 10.15 86.3 12.9 90.35 16.6 94.35 20.15 97.55 24.5 100.65 28.75 102.95 33.55 105.15 38.3 106.45 43.45 107.75 48.6 108.05 53.9 108.35 59.25 107.65 64.6 106.9 70.0 105.15 75.25 103.35 80.55 100.5 85.5 97.65 90.45 93.95 94.65 90.3 98.8 85.95 102.15 81.7 105.45 76.9 107.85 72.15 110.25 67.05 111.7 61.95 113.15 56.7 113.6 51.4 114.05 46.2 113.45 40.85 112.85 35.75 111.2 30.55 109.45 25.75 106.7 24.6 106.05 23.45 105.3 22.35 104.6 21.25 103.8 20.2 103.05 19.15 102.2 18.15 101.4 17.2 100.55 16.2 99.7 15.3 98.8 14.35 97.9 13.5 96.95 12.6 96.0 11.8 95.0 10.95 94.05 10.2 93.0 14.15 93.5 18.2 93.4 22.2 93.35 26.15 92.65 30.1 92.0 33.9 90.75 37.7 89.5 41.35 87.7 45.0 85.9 48.35 83.6 51.7 81.25 54.75 78.45 57.8 75.6 60.45 72.3 63.1 68.9 65.3 65.15 67.45 61.4 69.05 57.4 70.55 53.5 71.5 49.4 72.45 45.4 72.75 41.25 73.1 37.2 72.85 33.15 72.55 29.15 71.75 25.2 70.9 21.25 69.5 17.5 68.15 13.75 66.2 10.25 64.25 6.7 61.85 3.55 L61.85 3.55" fill="#ffffff" fill-rule="evenodd" stroke="none"/>
  </g>
</svg>
