<?xml version="1.0" encoding="UTF-8" standalone="no"?>
<svg xmlns:xlink="http://www.w3.org/1999/xlink" height="100.9px" width="109.25px" xmlns="http://www.w3.org/2000/svg">
  <g transform="matrix(1.0, 0.0, 0.0, 1.0, 0.0, -3.9)">
    <path d="M58.6 3.9 L93.8 9.35 108.65 41.0 97.05 47.85 83.15 48.0 98.2 55.15 109.25 52.3 108.3 73.95 98.5 81.6 91.05 86.8 84.05 95.35 81.4 97.95 64.75 94.4 49.75 95.6 35.8 103.3 25.1 104.8 13.75 102.9 4.4 92.2 0.0 77.35 3.1 63.1 15.75 66.5 29.3 59.35 15.2 59.35 5.95 52.0 8.55 41.0 23.15 21.5 39.05 17.0 39.55 35.4 49.15 48.65 50.8 66.25 55.25 46.85 49.05 32.65 49.05 12.35 58.6 3.9 58.6 3.9" fill="#ffffff" fill-rule="evenodd" stroke="none"/>
  </g>
</svg>
