<?xml version="1.0" encoding="UTF-8" standalone="no"?>
<svg xmlns:xlink="http://www.w3.org/1999/xlink" height="108.5px" width="106.65px" xmlns="http://www.w3.org/2000/svg">
  <g transform="matrix(1.0, 0.0, 0.0, 1.0, 0.0, 0.0)">
    <path d="M0.0 64.8 Q0.0 64.8 0.6 64.75 1.45 64.75 2.3 64.7 3.55 64.65 4.85 64.65 6.45 64.6 8.0 64.6 9.85 64.65 11.55 64.7 13.5 64.8 15.25 64.95 17.2 65.1 18.9 65.35 20.75 65.65 22.3 66.05 23.8 66.45 25.5 67.25 27.05 68.0 28.75 69.05 30.25 70.0 32.05 71.3 33.4 72.3 35.25 73.8 19.15 61.1 38.45 76.35 40.25 77.75 41.5 78.7 43.15 79.9 44.45 80.7 45.95 81.6 47.25 82.15 48.7 82.75 50.35 83.2 51.85 83.65 53.6 83.95 55.1 84.25 56.8 84.45 58.25 84.6 59.8 84.7 61.1 84.8 62.4 84.8 63.5 84.85 64.5 84.85 65.25 84.8 65.9 84.8 66.15 84.8 66.4 84.75 66.4 84.75 65.8 85.0 65.0 85.3 64.1 85.6 62.9 86.05 61.6 86.45 60.05 86.95 58.6 87.35 56.8 87.85 55.2 88.2 53.4 88.65 51.8 88.85 50.0 89.15 48.55 89.2 46.9 89.2 45.7 89.0 44.35 88.75 42.8 88.0 41.4 87.35 39.8 86.3 38.4 85.35 36.7 84.05 35.45 83.05 33.5 81.5 30.45 78.9 30.35 78.85 28.5 77.35 27.15 76.3 25.4 75.05 23.95 74.15 22.3 73.1 20.85 72.55 15.85 70.5 7.45 67.45 3.7 66.15 0.0 64.8 L0.0 64.8 M6.1 53.1 Q6.1 53.1 6.65 52.7 7.4 52.15 8.25 51.55 9.4 50.75 10.55 49.95 12.05 49.0 13.45 48.1 15.1 47.1 16.65 46.25 18.4 45.3 20.0 44.6 21.7 43.85 23.2 43.4 24.8 42.95 26.05 42.9 27.55 42.8 29.45 42.95 31.15 43.05 33.3 43.3 35.15 43.55 37.4 43.95 39.3 44.25 41.65 44.7 43.2 45.0 45.9 45.55 48.85 46.1 49.9 46.35 52.1 46.75 53.6 47.0 55.45 47.35 56.8 47.5 60.3 47.9 68.25 48.35 71.9 48.55 75.55 48.75 75.55 48.75 73.45 49.25 70.8 49.9 68.35 50.4 64.85 51.1 62.2 51.5 58.85 52.0 56.9 51.95 53.05 51.85 41.7 49.6 30.15 47.3 26.05 47.1 24.8 47.05 23.2 47.3 21.75 47.5 20.05 47.95 18.5 48.3 16.7 48.9 15.2 49.4 13.5 50.0 12.1 50.55 10.6 51.15 9.4 51.6 8.25 52.15 7.4 52.5 6.65 52.85 6.4 52.95 6.1 53.1 L6.1 53.1 M34.85 55.3 Q35.85 55.45 37.05 55.65 38.1 55.85 39.5 56.15 39.95 56.25 42.1 56.7 43.8 57.05 44.85 57.25 46.4 57.55 47.65 57.8 49.15 58.05 50.5 58.2 51.95 58.4 53.3 58.5 54.7 58.55 56.0 58.55 57.35 58.5 58.95 58.35 60.45 58.2 62.1 58.0 63.65 57.75 65.3 57.45 66.9 57.2 68.55 56.85 70.15 56.5 71.75 56.15 73.25 55.8 74.7 55.4 76.15 55.0 77.45 54.65 78.7 54.25 79.75 53.9 80.45 53.65 81.2 53.35 81.9 53.1 82.6 52.75 83.3 52.4 84.0 52.0 84.7 51.6 85.35 51.2 86.0 50.75 86.6 50.3 87.25 49.85 87.8 49.35 88.4 48.9 88.9 48.4 89.4 47.9 89.85 47.4 90.3 46.9 90.7 46.35 91.15 45.85 91.5 45.3 91.9 44.7 92.25 44.15 92.55 43.55 92.85 42.95 93.15 42.35 93.4 41.7 93.65 41.05 93.8 40.45 94.0 39.8 94.15 39.15 94.3 38.5 94.35 37.85 94.45 37.1 94.5 36.5 94.55 35.8 94.6 35.2 94.6 34.55 94.65 33.95 94.65 33.3 94.6 32.7 94.6 32.1 94.5 31.45 94.45 30.8 94.35 30.15 94.2 29.5 94.05 28.8 93.9 28.1 93.7 27.35 93.5 26.6 93.25 25.85 93.0 25.05 92.7 24.3 92.4 23.5 92.1 22.75 91.8 21.95 91.5 21.2 91.15 20.45 90.85 19.75 90.5 19.0 90.15 18.35 89.8 17.65 89.45 17.05 89.05 16.45 88.7 15.95 88.4 15.5 88.05 15.1 87.7 14.65 87.35 14.25 87.0 13.8 86.6 13.4 86.2 13.0 85.8 12.65 85.35 12.3 84.9 12.0 84.45 11.65 83.95 11.4 83.5 11.1 83.0 10.9 82.5 10.65 81.95 10.5 81.4 10.35 80.75 10.25 80.1 10.1 79.35 10.05 78.65 10.0 77.9 10.0 77.15 9.95 76.4 10.0 75.65 10.0 74.85 10.05 74.1 10.15 73.35 10.2 72.6 10.3 71.95 10.4 71.25 10.5 70.65 10.6 70.1 10.7 69.5 10.85 68.95 11.0 68.35 11.15 67.75 11.35 67.2 11.55 66.6 11.75 66.1 11.95 65.5 12.2 65.0 12.45 64.5 12.7 64.05 13.0 63.6 13.3 63.2 13.6 62.8 13.95 62.5 14.25 62.2 14.6 62.0 15.0 61.75 15.4 61.6 15.85 61.45 16.25 61.35 16.75 61.25 17.2 61.2 17.7 61.15 18.15 61.1 18.7 61.05 19.15 61.05 19.7 61.05 20.05 61.0 20.7 61.0 21.4 61.0 21.65 60.95 23.6 61.5 28.55 61.8 30.85 62.05 33.1 62.05 33.1 61.8 32.7 61.4 32.15 61.05 31.6 60.55 30.8 60.05 30.0 59.4 29.0 58.85 28.05 58.15 26.95 57.6 25.95 56.95 24.75 56.45 23.75 55.9 22.65 55.55 21.75 55.2 20.75 55.05 20.05 54.9 19.4 54.85 18.65 54.8 18.0 54.8 17.25 54.8 16.55 54.9 15.85 55.0 15.15 55.15 14.45 55.3 13.75 55.5 13.05 55.75 12.35 56.0 11.7 56.3 11.05 56.65 10.4 57.0 9.8 57.4 9.2 57.8 8.6 58.3 8.0 58.8 7.4 59.4 6.8 60.0 6.15 60.65 5.6 61.3 5.0 62.0 4.45 62.7 3.85 63.45 3.35 64.25 2.85 65.0 2.4 65.8 1.95 66.6 1.6 67.45 1.25 68.25 1.0 69.1 0.75 70.1 0.55 71.05 0.35 72.15 0.25 73.2 0.1 74.35 0.05 75.4 0.0 76.6 0.0 77.7 0.0 78.8 0.05 79.9 0.1 80.95 0.15 81.95 0.25 82.9 0.35 83.8 0.45 84.55 0.6 85.1 0.7 85.7 0.85 86.25 1.0 86.8 1.2 87.35 1.4 87.9 1.7 88.45 1.95 88.95 2.25 89.45 2.55 89.95 2.85 90.45 3.2 90.95 3.55 91.4 3.9 91.85 4.25 92.3 4.6 92.75 5.0 93.3 5.45 93.85 5.95 94.4 6.5 94.95 7.05 95.55 7.65 96.1 8.25 96.7 8.85 97.25 9.5 97.85 10.15 98.4 10.85 98.95 11.55 99.45 12.2 99.95 12.95 100.4 13.6 100.9 14.35 101.3 15.05 101.7 15.8 102.1 16.6 102.5 17.4 102.85 18.25 103.2 19.1 103.55 20.0 103.9 20.85 104.2 21.8 104.5 22.7 104.75 23.6 105.05 24.5 105.3 25.4 105.55 26.3 105.75 27.2 106.0 28.05 106.2 28.9 106.35 29.65 106.5 30.4 106.6 31.05 106.65 31.75 106.65 32.35 106.65 33.0 106.65 33.6 106.6 34.2 106.6 34.75 106.5 35.45 106.5 35.85 106.4 36.65 106.3 37.5 106.25 37.95 106.15 38.7 106.1 39.3 106.05 39.95 105.95 40.65 105.9 41.3 105.75 42.0 105.65 42.65 105.5 43.35 105.35 44.0 105.15 44.65 104.95 45.3 104.75 45.95 104.55 46.6 104.25 47.25 104.0 47.85 103.75 48.5 103.45 49.1 103.15 49.7 102.8 50.35 102.4 51.05 102.0 51.7 101.55 52.4 101.1 53.15 100.6 53.85 100.1 54.55 99.6 55.25 99.05 55.95 98.55 56.6 97.95 57.25 97.45 57.85 96.85 58.45 96.35 58.95 95.75 59.5 95.25 59.95 94.75 60.35 94.15 60.75 93.55 61.15 92.85 61.6 92.2 62.0 91.45 62.4 90.7 62.85 89.9 63.2 89.1 63.6 88.35 64.0 87.55 64.35 86.8 64.65 86.05 64.95 85.35 65.15 84.65 65.4 84.05 65.55 80.9 66.3 73.65 66.85 64.45 67.55 62.85 67.75 61.95 67.85 61.25 67.95 60.4 68.05 59.65 68.15 58.8 68.25 58.05 68.3 57.2 68.35 56.45 68.4 55.6 68.45 54.8 68.45 54.0 68.45 53.2 68.45 52.4 68.4 51.6 68.35 50.8 68.3 50.05 68.15 49.25 68.05 48.4 67.85 47.65 67.7 46.75 67.45 45.95 67.2 45.1 66.95 44.3 66.7 43.45 66.35 42.65 66.1 41.8 65.75 41.1 65.5 40.2 65.15 39.75 64.95 38.7 64.5 37.75 64.15 37.25 63.95 35.65 63.3 32.3 61.55 29.15 59.9 27.65 59.35 27.15 59.15 26.65 59.0 26.15 58.85 25.65 58.7 25.15 58.55 24.65 58.4 24.15 58.25 23.65 58.15 23.15 58.0 22.6 57.9 22.1 57.8 21.6 57.75 21.1 57.65 20.55 57.6 20.05 57.55 19.55 57.5 17.85 57.4 14.35 57.85 12.8 58.1 11.2 58.35 11.2 58.35 11.55 58.2 11.95 58.0 12.45 57.8 13.1 57.5 13.75 57.2 14.6 56.85 15.4 56.5 16.35 56.15 17.2 55.8 18.2 55.45 19.1 55.15 20.1 54.85 20.9 54.65 21.8 54.4 22.55 54.3 23.25 54.2 24.05 54.2 24.75 54.15 25.55 54.2 26.3 54.2 27.1 54.25 27.8 54.35 28.65 54.45 29.35 54.5 30.2 54.65 30.75 54.7 31.75 54.85 32.85 55.05 33.35 55.1 34.2 55.25 34.85 55.3 L34.85 55.3 M54.85 78.1 Q54.4 78.0 53.9 77.85 53.45 77.75 53.0 77.6 52.55 77.45 52.05 77.3 51.6 77.15 51.15 77.0 50.7 76.85 50.25 76.7 49.8 76.5 49.35 76.35 48.95 76.15 48.5 76.0 48.05 75.8 47.65 75.6 46.25 74.95 43.65 73.25 42.45 72.5 41.3 71.75 41.3 71.75 45.55 72.9 50.1 74.15 51.5 74.45 51.7 74.5 51.95 74.55 52.15 74.6 52.4 74.65 52.6 74.65 52.85 74.7 53.1 74.75 53.3 74.75 53.55 74.75 53.75 74.8 54.0 74.8 54.2 74.8 54.45 74.8 54.7 74.8 54.9 74.8 55.15 74.8 56.1 74.75 58.1 74.45 61.2 74.0 61.35 74.0 62.95 73.8 65.6 73.7 68.1 73.6 69.95 73.65 70.35 73.65 70.85 73.65 71.25 73.65 71.75 73.6 72.05 73.6 72.7 73.55 73.35 73.5 73.7 73.5 74.2 73.5 74.65 73.45 75.15 73.45 75.6 73.5 76.1 73.5 76.5 73.55 76.95 73.6 77.35 73.7 77.85 73.85 78.55 73.95 79.1 74.05 79.85 74.2 80.4 74.25 81.25 74.4 82.4 74.55 82.7 74.6 83.5 74.7 84.1 74.8 84.85 74.9 85.5 75.05 86.2 75.2 86.75 75.35 87.35 75.55 87.85 75.75 88.15 75.9 88.5 76.05 88.85 76.25 89.2 76.5 89.6 76.7 89.95 76.95 90.35 77.2 90.7 77.5 91.1 77.75 91.45 78.05 91.8 78.3 92.1 78.6 92.45 78.85 92.75 79.15 93.0 79.4 93.2 79.65 93.45 79.9 93.7 80.25 93.95 80.55 94.2 80.9 94.4 81.25 94.65 81.65 94.85 82.0 95.1 82.4 95.3 82.8 95.5 83.2 95.7 83.6 95.85 84.0 96.05 84.4 96.2 84.8 96.3 85.15 96.45 85.5 96.55 85.85 96.65 86.2 96.75 86.5 96.85 86.85 96.9 87.2 96.95 87.55 97.0 87.9 97.05 88.25 97.1 88.6 97.1 88.95 97.15 89.3 97.15 89.65 97.15 90.0 97.15 90.35 97.1 90.7 97.1 91.0 97.05 91.35 97.05 91.7 97.0 91.95 97.0 92.4 96.95 92.8 96.95 93.0 96.9 93.35 96.9 93.65 96.85 93.95 96.8 94.25 96.75 94.55 96.65 94.9 96.6 95.2 96.45 95.55 96.35 95.9 96.2 96.25 96.0 96.65 95.8 97.05 95.6 97.5 95.4 97.95 95.2 98.35 94.95 98.8 94.75 99.25 94.5 99.65 94.25 100.1 94.0 100.5 93.75 100.9 93.5 101.3 93.2 101.7 92.95 102.05 92.65 102.45 92.35 102.8 92.1 103.1 91.8 103.45 91.5 103.75 91.15 104.05 90.8 104.35 90.45 104.65 90.15 104.9 89.75 105.2 89.4 105.45 89.05 105.7 88.7 105.95 88.35 106.2 88.0 106.45 87.65 106.65 87.3 106.85 87.0 107.05 86.7 107.2 86.45 107.35 86.2 107.5 85.9 107.6 85.6 107.75 85.35 107.85 85.05 107.95 84.75 108.05 84.45 108.15 84.15 108.25 83.85 108.35 83.55 108.4 83.25 108.45 82.95 108.45 82.6 108.5 82.3 108.5 81.9 108.5 81.4 108.45 80.9 108.4 80.35 108.35 79.8 108.3 79.25 108.2 78.65 108.15 78.05 108.05 77.45 107.9 76.9 107.8 76.3 107.65 75.75 107.5 75.2 107.35 74.7 107.15 74.2 106.95 73.8 106.75 73.4 106.55 73.0 106.3 72.6 106.05 72.2 105.75 71.85 105.45 71.5 105.1 71.15 104.8 70.8 104.45 70.5 104.1 70.2 103.75 69.9 103.35 69.65 103.0 69.4 102.65 69.2 102.3 69.0 101.95 68.8 101.6 68.65 101.25 68.5 100.9 68.4 100.6 68.3 100.2 68.2 99.85 68.15 99.5 68.1 99.15 68.1 98.75 68.1 98.4 68.1 98.05 68.15 97.65 68.2 97.3 68.25 96.95 68.35 96.6 68.4 96.25 68.55 95.95 68.7 95.6 69.0 95.15 69.25 94.7 69.65 94.2 70.0 93.75 70.45 93.2 70.8 92.75 71.25 92.25 71.65 91.85 72.1 91.4 72.4 91.05 72.75 90.7 73.0 90.45 73.25 90.2 73.35 90.1 73.4 90.05 73.35 90.1 72.7 92.5 71.9 95.2 71.75 96.2 71.7 96.45 71.75 96.7 71.75 96.95 71.8 97.25 71.85 97.55 71.9 97.85 72.0 98.15 72.1 98.5 72.2 98.8 72.3 99.1 72.4 99.4 72.55 99.65 72.65 99.95 72.8 100.2 72.9 100.45 73.05 100.65 73.15 100.85 73.35 101.0 73.55 101.2 73.8 101.35 74.05 101.5 74.35 101.65 74.6 101.75 74.95 101.9 75.2 102.0 75.55 102.1 75.8 102.2 76.2 102.35 76.7 102.5 76.85 102.55 77.2 102.65 77.45 102.75 77.75 102.85 78.05 102.9 78.35 102.95 78.65 102.95 78.9 102.95 79.25 102.9 79.5 102.85 79.8 102.8 80.05 102.75 80.4 102.65 80.9 102.5 81.0 102.5 81.3 102.4 81.6 102.35 81.9 102.3 82.2 102.25 82.5 102.2 82.75 102.15 83.05 102.1 83.3 102.0 83.6 101.9 83.85 101.75 84.1 101.65 84.35 101.5 84.6 101.35 84.85 101.2 85.1 101.05 85.3 100.85 85.55 100.7 85.8 100.5 85.95 100.35 86.2 100.15 86.45 99.95 86.7 99.75 86.9 99.55 87.15 99.3 87.4 99.1 87.65 98.85 87.85 98.6 88.1 98.35 88.3 98.05 88.55 97.8 88.75 97.55 88.95 97.25 89.15 97.0 89.3 96.75 89.5 96.45 89.65 96.2 89.8 95.95 89.95 95.65 90.05 95.4 90.2 95.1 90.3 94.85 90.4 94.55 90.5 94.25 90.6 94.0 90.65 93.7 90.75 93.4 90.8 93.1 90.85 92.8 90.9 92.5 90.95 92.2 91.0 91.9 91.0 91.6 91.05 91.25 91.05 90.9 91.1 90.55 91.1 90.2 91.1 89.8 91.1 89.45 91.1 89.05 91.1 88.7 91.1 88.3 91.05 87.9 91.0 87.5 90.9 87.15 90.85 86.75 90.75 86.4 90.6 86.05 90.45 85.7 90.3 85.35 90.1 85.0 89.9 84.7 89.7 84.35 89.45 84.0 89.2 83.65 88.95 83.3 88.65 83.0 88.35 82.65 88.05 82.35 87.75 82.05 87.4 81.75 87.1 81.45 86.75 81.2 86.4 80.95 86.1 80.7 85.75 80.5 85.4 80.35 85.1 80.2 84.7 80.1 84.4 80.0 84.0 79.95 83.7 79.9 83.25 79.85 83.05 79.8 82.5 79.8 82.0 79.75 81.75 79.75 81.3 79.7 80.95 79.65 80.5 79.55 80.15 79.45 79.7 79.35 79.15 79.3 78.65 79.2 78.0 79.2 77.45 79.2 76.8 79.2 76.25 79.2 75.55 79.2 75.1 79.25 74.3 79.3 73.45 79.3 73.1 79.35 72.45 79.35 71.95 79.35 71.4 79.35 70.95 79.35 69.8 79.3 66.9 79.4 63.95 79.45 62.9 79.45 62.45 79.45 61.95 79.4 61.5 79.35 60.95 79.25 60.45 79.2 59.95 79.15 59.45 79.05 58.9 78.95 58.4 78.9 57.85 78.8 57.35 78.7 56.85 78.55 56.3 78.45 55.8 78.35 55.3 78.25 54.85 78.1 L54.85 78.1" fill="#ffffff" fill-rule="evenodd" stroke="none"/>
  </g>
</svg>
