<?xml version="1.0" encoding="UTF-8" standalone="no"?>
<svg xmlns:xlink="http://www.w3.org/1999/xlink" height="111.95px" width="77.0px" xmlns="http://www.w3.org/2000/svg">
  <g transform="matrix(1.0, 0.0, 0.0, 1.0, -17.5, 0.0)">
    <path d="M56.0 0.0 Q56.0 0.0 57.65 2.25 59.75 5.15 62.0 8.4 65.15 12.9 68.15 17.45 71.95 23.1 75.25 28.45 79.15 34.8 82.3 40.55 85.9 47.1 88.45 52.7 91.35 58.95 92.85 64.0 94.5 69.5 94.5 73.45 94.5 77.4 93.7 81.2 92.95 84.95 91.45 88.45 90.0 91.9 87.9 95.0 85.85 98.05 83.2 100.7 80.6 103.3 77.5 105.4 74.4 107.5 70.95 108.95 67.45 110.4 63.75 111.2 59.9 111.95 56.0 111.95 52.05 111.95 48.25 111.15 44.5 110.4 41.0 108.95 37.55 107.5 34.45 105.4 31.4 103.3 28.75 100.7 26.15 98.05 24.05 95.0 21.95 91.9 20.5 88.45 19.0 84.95 18.25 81.2 17.5 77.4 17.5 73.45 17.5 69.5 19.15 63.95 20.65 58.95 23.5 52.7 26.05 47.05 29.65 40.55 32.8 34.8 36.75 28.45 40.05 23.1 43.8 17.45 46.8 12.9 49.95 8.4 52.2 5.15 54.35 2.25 55.15 1.15 56.0 0.0 L56.0 0.0 M38.35 97.15 Q39.5 99.0 41.1 100.45 42.65 101.9 44.6 102.95 46.5 104.0 48.7 104.6 50.9 105.2 53.3 105.4 55.7 105.6 58.25 105.4 60.8 105.15 63.35 104.5 66.0 103.8 68.55 102.7 71.15 101.6 73.65 100.05 76.1 98.5 78.3 96.65 80.4 94.85 82.15 92.8 83.9 90.75 85.2 88.6 86.55 86.4 87.4 84.15 88.3 81.9 88.7 79.7 89.15 77.4 89.05 75.25 88.95 73.05 88.35 71.0 87.75 68.9 86.6 67.1 85.9 68.3 85.0 69.6 84.15 70.85 83.1 72.15 82.05 73.5 80.9 74.8 79.7 76.15 78.4 77.45 77.05 78.8 75.6 80.1 74.15 81.45 72.6 82.7 71.0 83.95 69.3 85.15 67.6 86.4 65.8 87.5 64.0 88.6 62.15 89.6 60.35 90.6 58.5 91.45 56.7 92.3 54.85 93.05 53.05 93.75 51.25 94.35 49.5 94.95 47.75 95.45 46.05 95.9 44.4 96.25 42.8 96.6 41.25 96.8 39.75 97.05 38.35 97.15 L38.35 97.15" fill="#ffffff" fill-rule="evenodd" stroke="none"/>
  </g>
</svg>
