<?xml version="1.0" encoding="UTF-8" standalone="no"?>
<svg xmlns:xlink="http://www.w3.org/1999/xlink" height="118.0px" width="125.0px" xmlns="http://www.w3.org/2000/svg">
  <g transform="matrix(1.0, 0.0, 0.0, 1.0, 0.0, 0.0)">
    <path d="M73.5 15.8 Q72.95 15.6 72.35 15.4 71.8 15.2 71.25 15.0 70.65 14.85 70.1 14.7 69.5 14.6 68.9 14.45 68.35 14.35 67.75 14.25 67.15 14.2 66.55 14.1 66.0 14.05 65.4 14.05 64.8 14.0 64.2 14.0 63.3 14.0 62.45 14.1 61.55 14.15 60.75 14.3 59.9 14.45 59.15 14.65 58.35 14.85 57.6 15.15 56.85 15.45 56.15 15.8 55.45 16.15 54.8 16.6 54.15 17.05 53.5 17.55 52.9 18.05 52.3 18.6 L25.55 45.35 28.35 48.15 18.15 58.4 1.05 41.25 11.25 31.1 14.4 34.2 41.0 7.6 Q41.7 6.9 42.4 6.3 43.1 5.7 43.8 5.2 44.5 4.7 45.25 4.25 45.95 3.85 46.7 3.5 47.45 3.15 48.2 2.9 48.95 2.65 49.7 2.5 50.45 2.3 51.25 2.2 52.0 2.15 52.8 2.15 54.15 2.15 55.45 2.35 56.75 2.55 58.05 3.0 59.4 3.4 60.7 4.05 62.0 4.7 63.25 5.55 64.55 6.4 65.85 7.45 67.15 8.55 68.4 9.8 69.7 11.1 70.95 12.6 72.25 14.1 73.5 15.8 L73.5 15.8 M123.95 101.1 L108.35 116.7 Q94.75 102.55 72.25 78.95 46.75 52.3 36.1 41.2 L48.4 28.85 Q63.85 43.7 86.15 65.0 121.3 98.6 123.95 101.1 L123.95 101.1" fill="#ffffff" fill-rule="evenodd" stroke="none"/>
  </g>
</svg>
