<?xml version="1.0" encoding="UTF-8" standalone="no"?>
<svg xmlns:xlink="http://www.w3.org/1999/xlink" height="117.9px" width="117.4px" xmlns="http://www.w3.org/2000/svg">
  <g transform="matrix(1.0, 0.0, 0.0, 1.0, 22.8, 0.75)">
    <path d="M22.1 22.3 L22.45 22.7 23.5 23.85 Q26.25 27.55 26.3 32.3 L26.4 33.4 26.35 33.6 25.9 36.45 25.35 37.9 Q24.4 40.3 22.1 42.5 L20.5 44.1 Q18.3 46.4 15.75 47.35 L14.25 47.95 11.55 48.35 11.3 48.35 10.25 48.4 Q5.6 48.35 1.85 45.45 L0.7 44.5 0.35 44.1 -1.6 42.2 Q-13.95 40.6 -14.85 28.95 L-18.5 25.3 Q-22.7 21.1 -22.8 15.35 -22.8 9.45 -18.65 5.3 L-16.65 3.3 Q-12.55 -0.8 -6.7 -0.75 -0.85 -0.65 3.3 3.5 12.35 5.0 13.35 13.55 L22.1 22.3 M26.4 46.45 Q29.0 43.95 30.25 41.3 L37.3 48.75 39.35 46.7 43.1 50.5 41.05 52.55 92.45 106.25 Q94.5 108.3 94.5 111.1 94.95 113.8 93.25 115.5 L93.05 115.7 Q91.4 117.35 88.4 117.15 85.95 116.95 83.9 114.85 L30.4 63.2 28.4 65.2 24.6 61.45 26.55 59.5 19.1 52.3 Q21.9 51.05 24.45 48.45 L26.4 46.45" fill="#ffffff" fill-rule="evenodd" stroke="none"/>
  </g>
</svg>
