<?xml version="1.0" encoding="UTF-8" standalone="no"?>
<svg xmlns:xlink="http://www.w3.org/1999/xlink" height="979.8px" width="981.3px" xmlns="http://www.w3.org/2000/svg">
  <g transform="matrix(1.0, 0.0, 0.0, 1.0, 168.3, -12.05)">
    <path d="M356.45 289.8 L428.5 310.95 356.45 332.65 Q351.75 384.85 325.45 428.2 L318.1 438.9 759.5 880.05 776.5 863.35 813.0 899.9 721.15 991.85 684.6 955.3 700.55 939.1 259.1 497.85 Q254.4 501.25 249.4 504.4 204.75 532.05 151.25 536.75 L129.8 609.1 108.45 536.5 Q45.0 530.55 -4.6 492.95 L-107.45 549.05 -51.1 445.9 Q-89.2 396.05 -94.65 332.4 L-168.3 310.7 -94.65 289.0 Q-89.2 225.6 -50.8 175.95 L-107.75 72.3 -3.8 128.7 Q45.5 91.4 108.45 85.6 L129.8 12.05 151.75 85.35 Q215.5 90.9 265.65 128.7 L369.0 72.3 312.6 175.95 Q350.7 226.4 356.45 289.8" fill="#ffffff" fill-rule="evenodd" stroke="none"/>
  </g>
</svg>
