<?xml version="1.0" encoding="UTF-8" standalone="no"?>
<svg xmlns:xlink="http://www.w3.org/1999/xlink" height="105.0px" width="124.0px" xmlns="http://www.w3.org/2000/svg">
  <g transform="matrix(1.0, 0.0, 0.0, 1.0, 0.0, 0.0)">
    <path d="M81.6 23.7 L76.1 33.2 Q78.5 36.3 80.4 39.4 82.25 42.45 83.6 45.55 84.95 48.65 85.8 51.75 86.6 54.8 86.95 57.9 87.25 61.0 87.0 64.1 86.8 67.2 86.05 70.25 85.3 73.35 84.05 76.45 82.8 79.55 81.0 82.65 79.9 84.55 78.65 86.35 77.4 88.1 76.05 89.65 74.7 91.25 73.2 92.65 71.7 94.1 70.05 95.35 68.4 96.6 66.65 97.65 64.9 98.75 63.0 99.65 61.15 100.55 59.1 101.3 57.1 102.05 54.95 102.6 52.8 103.2 50.7 103.55 48.6 103.9 46.5 104.05 44.4 104.2 42.35 104.15 40.3 104.1 38.25 103.8 36.2 103.55 34.2 103.05 32.2 102.6 30.2 101.9 28.25 101.2 26.3 100.3 24.35 99.4 22.4 98.3 20.5 97.2 18.75 95.95 17.0 94.7 15.4 93.35 13.8 92.0 12.4 90.5 11.0 89.0 9.75 87.4 8.5 85.75 7.4 84.0 6.35 82.25 5.4 80.35 4.5 78.5 3.75 76.45 3.05 74.45 2.45 72.3 1.85 70.15 1.5 68.05 1.15 65.95 0.95 63.85 0.8 61.75 0.85 59.7 0.9 57.65 1.2 55.65 1.45 53.6 1.9 51.6 2.4 49.6 3.05 47.65 3.75 45.65 4.65 43.75 5.55 41.8 6.65 39.9 8.4 36.9 10.4 34.3 12.4 31.7 14.7 29.55 16.95 27.4 19.55 25.7 22.1 24.0 24.9 22.7 27.75 21.4 30.85 20.55 33.95 19.7 37.35 19.25 40.75 18.85 44.4 18.85 48.05 18.85 51.95 19.3 L57.45 9.75 Q58.0 9.8 58.6 9.85 59.2 9.9 59.8 10.0 60.4 10.05 61.05 10.2 61.65 10.3 62.3 10.45 62.95 10.6 63.6 10.8 64.25 10.95 64.9 11.15 65.6 11.35 66.25 11.6 66.95 11.85 67.65 12.1 L68.5 10.65 Q69.0 9.75 69.6 8.9 70.15 8.1 70.8 7.35 71.4 6.6 72.1 5.95 72.8 5.25 73.5 4.65 74.25 4.1 75.05 3.55 75.8 3.05 76.65 2.6 77.5 2.2 78.4 1.85 79.25 1.45 80.2 1.2 81.15 0.9 82.1 0.75 83.0 0.55 83.9 0.5 84.85 0.4 85.75 0.45 86.65 0.45 87.55 0.55 88.4 0.7 89.3 0.9 90.2 1.1 91.05 1.4 91.95 1.65 92.8 2.05 93.7 2.4 94.55 2.9 97.8 4.65 99.9 6.9 101.8 8.95 102.85 11.5 103.75 13.7 104.15 16.55 104.4 18.55 104.45 21.75 104.55 26.2 104.6 26.95 104.75 29.85 105.25 31.9 105.9 34.5 107.2 36.45 108.7 38.7 111.2 40.35 111.55 40.6 111.95 40.8 112.35 40.95 112.75 41.15 113.2 41.3 113.7 41.45 114.2 41.6 114.7 41.7 115.25 41.8 115.8 41.9 116.4 42.0 117.0 42.05 117.6 42.1 118.3 42.15 118.9 42.2 119.65 42.25 119.75 42.25 119.85 42.25 119.95 42.25 120.05 42.3 120.15 42.3 120.3 42.35 120.4 42.35 120.5 42.4 120.65 42.45 120.75 42.5 120.9 42.55 121.0 42.6 121.15 42.65 121.25 42.7 121.4 42.8 121.5 42.85 121.9 43.1 122.25 43.35 122.55 43.55 122.8 43.85 123.1 44.1 123.25 44.35 123.45 44.6 123.55 44.9 123.65 45.2 123.7 45.45 123.75 45.75 123.7 46.05 123.65 46.35 123.55 46.65 123.45 47.0 123.25 47.3 123.05 47.65 122.8 47.95 122.55 48.25 122.25 48.5 121.95 48.75 121.6 48.95 121.2 49.15 120.8 49.35 120.4 49.5 119.95 49.6 119.45 49.75 118.95 49.8 118.4 49.9 117.85 49.9 117.25 49.95 116.65 49.9 116.0 49.9 115.4 49.85 114.75 49.8 114.15 49.7 113.5 49.6 112.9 49.45 112.25 49.35 111.65 49.15 111.05 48.95 110.4 48.75 109.8 48.5 109.15 48.25 108.55 47.95 107.95 47.65 107.35 47.35 106.7 47.0 103.75 45.3 101.8 43.05 100.05 41.0 99.0 38.45 98.1 36.25 97.65 33.45 97.35 31.45 97.15 28.25 96.85 23.9 96.8 23.1 96.5 20.25 95.95 18.2 95.3 15.65 94.0 13.75 92.6 11.55 90.3 10.0 89.2 9.25 88.15 8.8 87.1 8.35 86.05 8.15 85.0 8.0 84.0 8.1 82.95 8.25 81.95 8.65 80.95 9.05 80.0 9.7 79.05 10.35 78.15 11.3 77.2 12.25 76.3 13.45 75.45 14.65 74.6 16.1 75.1 16.55 75.6 17.0 76.05 17.45 76.55 17.95 77.0 18.4 77.45 18.85 77.9 19.35 78.35 19.8 78.8 20.3 79.2 20.75 79.65 21.25 80.05 21.75 80.45 22.2 80.85 22.7 81.25 23.2 81.6 23.7 L81.6 23.7" fill="#ffffff" fill-rule="evenodd" stroke="none"/>
  </g>
</svg>
