<?xml version="1.0" encoding="UTF-8" standalone="no"?>
<svg xmlns:xlink="http://www.w3.org/1999/xlink" height="150.0px" width="150.0px" xmlns="http://www.w3.org/2000/svg">
  <g transform="matrix(1.0, 0.0, 0.0, 1.0, 0.0, 0.0)">
    <path d="M142.5 135.65 L134.2 144.4 50.8 61.45 Q50.8 61.45 50.8 61.2 50.8 60.9 50.8 60.6 50.75 60.1 50.7 59.65 50.6 59.1 50.5 58.55 50.35 57.9 50.15 57.3 49.9 56.6 49.55 56.05 49.2 55.4 48.75 54.85 48.25 54.3 47.65 53.9 L41.65 49.05 28.5 52.6 29.95 39.35 Q29.95 39.35 29.8 39.25 29.65 39.1 29.45 38.95 29.15 38.7 28.85 38.5 28.5 38.2 28.1 37.9 27.6 37.6 27.15 37.3 26.6 36.95 26.1 36.65 25.5 36.3 24.9 36.0 24.3 35.7 23.65 35.5 L13.4 41.2 -5.0 -5.0 40.4 15.2 33.7 26.3 Q33.75 27.0 34.0 27.65 34.2 28.25 34.55 28.8 34.85 29.25 35.25 29.7 35.6 30.05 36.0 30.4 36.35 30.65 36.75 30.9 37.1 31.1 37.4 31.25 37.65 31.35 37.85 31.45 37.95 31.5 38.0 31.5 L49.85 30.2 47.6 43.45 52.6 49.2 Q53.0 49.75 53.55 50.25 54.0 50.7 54.65 51.1 55.2 51.45 55.85 51.7 56.4 51.95 57.05 52.15 57.55 52.35 58.1 52.45 58.55 52.55 59.0 52.65 59.35 52.7 59.65 52.7 59.75 52.75 59.85 52.75 L142.5 135.65" fill="#ffffff" fill-rule="evenodd" stroke="none"/>
  </g>
</svg>
