<?xml version="1.0" encoding="UTF-8" standalone="no"?>
<svg xmlns:xlink="http://www.w3.org/1999/xlink" height="117.95px" width="117.9px" xmlns="http://www.w3.org/2000/svg">
  <g transform="matrix(1.0, 0.0, 0.0, 1.0, 0.0, 0.0)">
    <path d="M98.5 70.35 Q99.4 70.4 100.2 70.75 100.9 71.1 101.5 71.7 102.05 72.25 102.5 73.0 102.85 73.7 103.1 74.5 103.3 75.25 103.35 76.05 103.4 76.8 103.3 77.45 103.2 78.1 102.9 78.55 102.65 79.0 102.25 79.2 L109.85 112.95 98.9 115.25 91.5 80.8 Q91.0 80.85 90.5 80.6 90.05 80.35 89.65 79.8 89.25 79.3 89.0 78.65 88.75 77.95 88.65 77.15 88.55 76.35 88.65 75.6 88.8 74.75 89.15 74.0 89.55 73.2 90.2 72.6 90.85 71.95 91.8 71.5 91.75 71.3 91.55 70.8 91.3 70.15 91.15 69.75 90.9 68.95 90.7 68.05 90.45 66.85 90.35 65.4 90.2 63.7 90.15 61.6 90.15 59.25 90.3 56.4 90.5 53.25 90.9 49.55 91.4 45.45 92.1 40.75 93.0 35.35 92.0 30.75 91.05 26.45 88.6 23.15 86.25 20.0 82.75 18.05 79.4 16.15 75.45 15.55 71.5 14.95 67.5 15.7 63.4 16.45 59.8 18.6 56.05 20.85 53.3 24.35 50.35 28.1 48.8 33.0 48.1 35.3 48.2 37.95 48.25 40.35 49.05 43.15 49.75 45.6 51.0 48.6 51.95 50.85 53.6 54.15 59.4 65.9 56.45 59.85 58.1 63.15 59.1 65.6 60.45 68.75 61.15 71.4 62.05 74.5 62.2 77.25 62.1 86.2 59.05 92.5 56.25 98.2 51.25 101.3 46.55 104.15 40.65 104.4 35.0 104.6 29.25 102.4 23.5 100.15 18.95 95.95 14.2 91.5 11.7 85.75 9.05 79.45 9.45 72.4 9.9 64.65 14.1 56.65 14.15 56.3 14.1 55.9 14.1 55.55 13.95 55.0 13.65 53.45 13.75 53.95 13.65 53.3 13.55 52.75 13.5 52.0 13.45 51.25 13.45 50.35 13.55 49.4 13.65 48.35 13.85 47.2 14.1 45.95 14.5 44.6 14.75 44.15 15.5 44.0 16.15 43.95 17.1 44.15 18.05 44.35 19.15 44.85 20.2 45.3 21.35 45.9 22.4 46.5 23.4 47.2 24.4 47.85 25.1 48.55 25.85 49.2 26.15 49.75 26.5 50.35 26.35 50.75 25.85 51.95 25.1 52.9 24.45 53.75 23.65 54.45 22.9 55.05 22.05 55.55 21.35 55.9 20.5 56.25 19.85 56.45 19.05 56.65 19.0 56.7 17.9 56.95 17.35 57.1 17.1 57.15 16.8 57.3 16.8 57.45 13.25 64.35 12.85 71.1 12.5 77.2 14.7 82.75 16.8 87.85 20.75 91.85 24.55 95.65 29.35 97.8 34.1 99.9 38.75 99.9 43.65 99.9 47.4 97.55 51.45 95.05 53.6 90.15 55.95 84.8 55.7 77.1 55.15 74.4 53.95 71.15 52.95 68.5 51.4 65.05 50.55 63.15 48.45 58.85 46.55 54.85 45.55 52.7 44.0 49.3 43.1 46.6 41.95 43.35 41.45 40.65 40.9 37.55 41.1 34.9 41.3 32.0 42.4 29.5 45.4 22.55 49.95 17.65 54.1 13.15 59.35 10.7 64.2 8.4 69.6 8.05 74.75 7.75 79.75 9.2 84.7 10.65 88.85 13.65 93.0 16.7 95.8 20.85 98.7 25.15 99.7 30.2 100.75 35.6 99.5 41.3 98.9 44.75 98.5 48.0 98.1 51.0 97.9 53.85 97.7 56.35 97.65 58.75 97.6 60.85 97.65 62.8 97.7 64.5 97.8 66.0 97.9 67.25 98.05 68.3 98.2 69.15 98.3 69.75 98.4 70.25 98.5 70.35" fill="#ffffff" fill-rule="evenodd" stroke="none"/>
  </g>
</svg>
