<?xml version="1.0" encoding="UTF-8" standalone="no"?>
<svg xmlns:xlink="http://www.w3.org/1999/xlink" height="117.95px" width="117.9px" xmlns="http://www.w3.org/2000/svg">
  <g transform="matrix(1.0, 0.0, 0.0, 1.0, 0.0, 0.0)">
    <path d="M102.6 68.3 Q102.65 68.5 102.5 68.75 102.4 68.95 102.15 69.15 101.9 69.35 101.55 69.55 101.3 69.75 100.9 69.95 99.85 70.55 100.2 70.35 99.8 70.55 99.55 70.75 99.25 70.95 99.05 71.1 98.85 71.3 98.8 71.5 98.65 72.05 96.05 76.6 93.45 81.25 93.0 81.65 L93.45 85.9 117.9 110.3 110.25 117.95 85.75 93.6 Q84.6 93.5 83.5 93.7 82.55 93.9 81.65 94.3 80.9 94.7 80.15 95.3 79.55 95.8 79.0 96.5 78.5 97.05 78.1 97.7 77.8 98.2 77.5 98.75 77.3 99.15 77.15 99.55 77.1 99.7 77.05 99.8 76.25 100.65 74.75 103.1 74.1 104.25 73.4 105.4 73.2 105.35 68.45 103.95 63.35 102.45 60.1 101.75 60.75 100.8 61.55 100.0 62.25 99.2 63.1 98.55 63.8 97.95 64.65 97.4 65.35 96.95 66.1 96.55 66.75 96.25 67.45 95.95 67.95 95.75 68.5 95.6 68.85 95.45 69.2 95.35 69.3 95.35 69.45 95.3 69.35 95.35 69.75 95.25 70.15 95.15 70.6 95.05 71.2 94.85 71.8 94.65 72.55 94.4 73.25 94.1 74.05 93.75 74.8 93.3 75.6 92.85 76.3 92.3 77.05 91.75 77.6 91.05 78.2 90.35 78.55 89.55 79.2 88.15 79.3 86.95 79.45 85.85 79.15 84.95 78.85 84.15 78.25 83.45 77.75 82.85 76.95 82.4 76.3 82.0 75.5 81.7 74.85 81.5 74.1 81.3 73.6 81.2 73.1 81.15 72.9 81.1 72.7 81.1 73.1 80.05 70.45 76.25 68.05 72.75 63.1 67.05 58.65 61.85 52.25 55.0 46.5 48.8 39.5 41.6 33.2 35.1 26.4 28.3 20.25 22.15 14.6 16.65 9.3 11.5 5.7 8.1 2.1 4.75 1.25 4.2 L0.0 0.0 4.15 1.0 Q4.8 1.95 8.25 5.65 11.65 9.3 16.95 14.65 22.4 20.25 28.65 26.5 35.4 33.2 41.95 39.5 49.15 46.5 55.35 52.25 62.15 58.6 67.3 63.05 73.0 67.95 76.45 70.45 80.2 73.1 81.2 72.8 81.2 72.8 81.2 73.2 81.25 73.65 81.35 74.15 81.45 74.85 81.65 75.5 81.9 76.3 82.25 76.9 82.7 77.65 83.25 78.2 83.9 78.75 84.7 79.0 85.55 79.3 86.65 79.2 87.85 79.1 89.25 78.45 L101.75 65.2 Q102.1 65.55 102.35 65.85 102.55 66.15 102.7 66.45 102.8 66.75 102.85 67.0 102.9 67.25 102.9 67.45 102.85 67.65 102.8 67.8 102.8 67.95 102.7 68.05 102.7 68.15 102.65 68.25 102.6 68.25 102.6 68.3" fill="#ffffff" fill-rule="evenodd" stroke="none"/>
  </g>
</svg>
