<?xml version="1.0" encoding="UTF-8" standalone="no"?>
<svg xmlns:xlink="http://www.w3.org/1999/xlink" height="994.4px" width="999.9px" xmlns="http://www.w3.org/2000/svg">
  <g transform="matrix(1.0, 0.0, 0.0, 1.0, 269.05, -11.4)">
    <path d="M121.25 205.6 Q121.5 205.8 120.75 206.55 120.75 235.15 111.75 261.3 96.65 300.9 111.5 315.95 L162.4 366.85 196.25 333.0 235.1 371.65 193.75 413.05 730.85 950.1 674.9 1005.8 137.85 468.95 95.65 511.1 56.8 472.55 88.6 440.65 23.9 375.65 Q-25.2 328.75 15.65 284.1 45.55 250.75 45.25 204.05 45.25 154.4 10.1 119.3 -24.95 84.15 -74.65 84.15 -124.35 84.45 -159.4 119.3 -194.55 154.65 -194.55 204.05 -194.55 254.0 -159.4 289.1 -153.45 295.1 -146.85 300.35 -121.1 322.05 -138.1 350.05 -156.2 381.65 -182.8 368.15 -198.6 357.6 -212.65 343.55 -269.55 286.6 -269.05 206.1 -269.3 151.4 -243.45 108.3 -231.15 86.65 -212.1 67.85 -192.3 47.85 -168.95 35.2 -126.85 11.2 -74.4 11.4 6.6 10.65 63.55 67.65 120.75 124.8 121.25 205.6" fill="#ffffff" fill-rule="evenodd" stroke="none"/>
  </g>
</svg>
