<?xml version="1.0" encoding="UTF-8" standalone="no"?>
<svg xmlns:xlink="http://www.w3.org/1999/xlink" height="115.4px" width="115.2px" xmlns="http://www.w3.org/2000/svg">
  <g transform="matrix(1.0, 0.0, 0.0, 1.0, 0.0, 0.0)">
    <path d="M107.05 103.1 Q106.95 103.65 106.45 104.45 106.0 105.25 105.2 106.25 104.5 107.2 103.55 108.3 102.6 109.35 101.55 110.35 100.45 111.45 99.35 112.35 98.25 113.3 97.25 114.05 96.15 114.8 95.25 115.25 94.3 115.7 93.55 115.8 91.45 113.5 89.95 111.85 88.1 109.75 86.65 108.0 85.05 106.0 83.75 104.15 82.3 102.2 81.1 100.2 79.85 98.1 78.75 95.9 77.65 93.65 76.7 91.2 75.75 88.7 74.9 85.9 74.1 83.05 73.4 79.9 L67.1 77.35 66.2 75.3 71.4 77.5 62.05 69.1 Q62.05 69.1 62.1 69.3 62.15 69.65 62.15 69.9 62.25 70.35 62.3 70.75 62.4 71.3 62.5 71.8 62.65 72.35 62.75 72.85 62.9 73.45 63.05 73.95 63.25 74.45 63.4 74.85 63.6 75.3 63.85 75.55 64.05 75.8 64.3 76.1 64.6 76.4 64.9 76.7 65.25 77.05 65.65 77.35 66.05 77.7 66.55 78.05 67.0 78.4 67.55 78.75 68.1 79.15 68.65 79.5 69.3 79.9 69.95 80.25 70.6 80.65 71.35 81.0 L68.95 81.35 Q68.95 81.35 68.75 81.25 68.55 81.15 68.3 81.05 67.9 80.9 67.55 80.7 67.1 80.45 66.65 80.15 66.1 79.8 65.6 79.45 65.0 79.05 64.45 78.6 63.85 78.1 63.3 77.55 62.7 76.95 62.2 76.3 61.75 75.7 61.35 74.85 61.0 74.15 60.65 73.25 60.35 72.45 60.1 71.55 59.85 70.75 59.65 69.85 59.5 69.15 59.35 68.35 59.2 67.75 59.1 67.15 59.05 66.7 59.0 66.3 58.95 66.15 58.95 66.0 58.9 66.1 50.6 54.95 42.15 43.7 41.85 42.5 L14.3 15.4 Q14.4 14.85 14.45 14.45 14.45 14.0 14.4 13.7 14.35 13.4 14.25 13.2 14.1 13.0 13.9 12.9 13.7 12.8 13.4 12.8 13.1 12.8 12.7 12.85 12.35 12.9 11.85 13.0 11.45 13.15 10.85 13.3 L7.45 10.15 11.5 5.75 15.0 9.1 Q14.9 9.6 14.85 10.0 14.8 10.4 14.85 10.7 14.85 11.05 14.95 11.25 15.05 11.5 15.25 11.65 15.4 11.85 15.7 11.95 15.95 12.05 16.3 12.1 16.6 12.15 17.05 12.15 17.45 12.15 18.0 12.15 L45.05 38.75 80.95 67.4 Q79.4 69.75 79.55 72.6 79.65 75.2 81.2 78.15 82.6 80.8 85.1 83.8 87.25 86.35 90.3 89.2 92.8 91.5 96.0 94.1 98.05 95.8 101.25 98.25 104.4 100.65 105.25 101.3 106.85 102.65 107.05 103.1" fill="#ffffff" fill-rule="evenodd" stroke="none"/>
  </g>
</svg>
