<?xml version="1.0" encoding="UTF-8" standalone="no"?>
<svg xmlns:xlink="http://www.w3.org/1999/xlink" height="708.5px" width="707.95px" xmlns="http://www.w3.org/2000/svg">
  <g transform="matrix(1.0, 0.0, 0.0, 1.0, 186.25, -162.15)">
    <path d="M291.4 488.0 Q301.8 477.3 325.95 486.05 337.5 489.9 350.15 498.65 355.85 502.55 361.7 507.25 L372.1 516.85 300.95 588.2 465.95 753.2 483.25 735.6 521.7 774.05 425.05 870.65 386.6 832.25 404.45 814.65 239.45 649.65 168.1 720.75 Q145.05 697.7 138.5 673.55 133.5 661.2 133.75 651.6 134.4 644.75 139.35 639.8 L166.2 612.95 -163.7 283.0 -186.25 162.15 -69.05 183.3 263.35 515.7 291.4 488.0" fill="#ffffff" fill-rule="evenodd" stroke="none"/>
  </g>
</svg>
