<?xml version="1.0" encoding="UTF-8" standalone="no"?>
<svg xmlns:xlink="http://www.w3.org/1999/xlink" height="115.4px" width="115.2px" xmlns="http://www.w3.org/2000/svg">
  <g transform="matrix(1.0, 0.0, 0.0, 1.0, 0.0, 0.0)">
    <path d="M115.35 105.8 Q115.35 105.8 112.65 103.1 109.95 100.4 109.95 100.4 109.95 100.4 115.35 105.8 L105.9 115.25 Q90.6 99.9 69.4 78.95 41.7 51.6 33.5 43.5 33.45 43.45 33.35 43.7 33.2 43.9 33.0 44.35 32.8 44.8 32.65 45.4 32.4 46.1 32.2 46.85 32.0 47.7 31.85 48.55 31.65 49.55 31.55 50.5 31.4 51.55 31.4 52.55 31.35 53.65 31.45 54.65 31.55 55.65 31.85 56.85 32.2 57.95 32.7 59.15 33.15 60.25 33.8 61.4 34.35 62.45 35.05 63.55 35.6 64.45 36.25 65.4 36.75 66.15 37.25 66.9 37.65 67.4 38.0 67.85 38.1 68.05 38.25 68.2 37.45 68.65 35.9 68.75 34.5 68.8 32.5 68.55 30.65 68.3 28.35 67.8 26.25 67.3 23.9 66.6 21.7 65.95 19.55 65.2 17.45 64.45 15.65 63.7 13.85 62.95 12.6 62.3 11.3 61.6 10.8 61.15 10.25 60.6 9.65 59.45 9.0 58.35 8.35 56.8 7.75 55.25 7.15 53.45 6.55 51.6 6.05 49.7 5.55 47.75 5.25 45.9 4.9 44.0 4.8 42.4 4.7 40.65 4.9 39.4 5.1 38.05 5.6 37.3 5.6 37.3 5.9 37.55 6.3 37.85 6.8 38.15 7.45 38.6 8.1 39.05 8.95 39.55 9.8 40.0 10.8 40.55 11.8 40.95 12.9 41.4 13.9 41.7 15.05 42.05 16.15 42.2 17.3 42.35 18.35 42.2 19.25 42.1 20.2 41.9 21.05 41.7 22.0 41.4 22.85 41.1 23.7 40.75 24.45 40.45 25.2 40.05 25.85 39.75 26.45 39.4 27.0 39.1 27.4 38.8 27.8 38.55 28.0 38.35 28.15 38.2 28.1 38.15 26.4 36.4 22.4 32.45 L13.15 31.4 0.0 0.0 30.9 14.95 32.35 22.85 38.85 29.3 52.65 19.45 43.55 34.0 115.35 105.8" fill="#ffffff" fill-rule="evenodd" stroke="none"/>
  </g>
</svg>
