<?xml version="1.0" encoding="UTF-8" standalone="no"?>
<svg xmlns:xlink="http://www.w3.org/1999/xlink" height="941.5px" width="806.65px" xmlns="http://www.w3.org/2000/svg">
  <g transform="matrix(1.0, 0.0, 0.0, 1.0, 143.05, -1.3)">
    <path d="M362.15 362.85 Q337.2 388.0 305.5 356.5 L215.65 446.35 619.0 849.45 633.0 835.25 663.6 865.85 586.65 942.8 556.05 912.2 569.35 898.85 166.05 495.75 72.7 589.1 17.85 534.25 -46.0 598.3 -143.05 501.0 -79.25 436.95 -134.55 381.65 -41.2 288.3 -61.3 268.2 -11.7 218.8 8.45 238.9 98.25 149.05 95.45 146.2 Q63.75 114.5 88.65 89.35 L176.75 1.3 450.25 274.75 362.15 362.85" fill="#ffffff" fill-rule="evenodd" stroke="none"/>
  </g>
</svg>
