<?xml version="1.0" encoding="UTF-8" standalone="no"?>
<svg xmlns:xlink="http://www.w3.org/1999/xlink" height="914.8px" width="915.65px" xmlns="http://www.w3.org/2000/svg">
  <g transform="matrix(1.0, 0.0, 0.0, 1.0, 148.8, -2.45)">
    <path d="M562.35 336.0 L574.3 363.55 Q556.55 360.65 539.6 358.95 414.3 347.9 313.85 417.45 L724.05 827.85 737.6 814.5 766.85 843.75 693.35 917.25 664.1 888.0 676.85 875.05 266.65 464.65 Q196.85 565.35 207.95 690.65 209.6 707.75 212.35 725.3 L184.95 713.4 Q-2.4 628.6 -95.1 478.65 -127.9 425.4 -148.8 364.2 -52.1 383.6 26.65 356.7 72.4 341.2 112.05 310.1 L70.3 268.35 80.75 258.1 63.85 214.05 108.1 230.55 117.5 221.15 159.3 262.9 Q190.2 223.4 205.65 177.7 232.6 98.95 213.15 2.45 274.35 23.15 327.6 55.9 477.6 148.65 562.35 336.0 M136.5 388.65 Q136.3 410.35 151.95 426.0 167.4 441.45 189.55 441.7 211.7 441.45 227.55 425.6 L152.4 350.6 Q136.5 366.5 136.5 388.65 M274.8 378.4 Q290.45 362.75 290.45 340.6 290.45 318.65 275.0 303.2 259.3 287.55 237.4 287.55 215.25 287.75 199.6 303.4 L274.8 378.4" fill="#ffffff" fill-rule="evenodd" stroke="none"/>
  </g>
</svg>
