<?xml version="1.0" encoding="UTF-8" standalone="no"?>
<svg xmlns:xlink="http://www.w3.org/1999/xlink" height="1035.5px" width="1034.3px" xmlns="http://www.w3.org/2000/svg">
  <g transform="matrix(1.0, 0.0, 0.0, 1.0, 332.4, -0.85)">
    <path d="M272.8 769.15 L-332.4 161.75 -332.2 1.95 -171.5 0.85 434.8 607.2 387.15 654.85 433.2 700.85 496.5 637.55 509.25 603.5 519.3 595.6 Q534.2 580.65 550.0 596.5 L580.65 627.1 Q596.4 642.9 581.5 657.85 L572.55 666.75 539.35 677.25 469.1 747.5 650.5 928.8 666.65 912.65 701.9 947.85 613.35 1036.35 578.1 1001.15 593.55 985.7 412.2 804.4 341.1 875.5 329.7 909.65 321.9 917.45 Q311.4 927.95 300.95 924.5 295.4 922.95 290.1 917.65 L259.5 887.05 Q254.2 881.7 252.6 876.15 249.2 865.75 259.7 855.2 L267.5 847.4 301.65 832.4 365.65 768.4 319.6 722.4 272.8 769.15" fill="#ffffff" fill-rule="evenodd" stroke="none"/>
  </g>
</svg>
