<?xml version="1.0" encoding="UTF-8" standalone="no"?>
<svg xmlns:xlink="http://www.w3.org/1999/xlink" height="108.1px" width="107.95px" xmlns="http://www.w3.org/2000/svg">
  <g transform="matrix(1.0, 0.0, 0.0, 1.0, -15.6, 4.55)">
    <path d="M47.9 21.65 L48.0 21.55 Q48.25 21.3 48.45 21.25 L48.55 21.1 48.95 20.8 Q50.55 19.75 52.7 19.85 L52.9 19.9 Q80.05 -6.0 99.7 -4.45 66.8 14.2 61.65 27.35 L61.9 29.05 Q62.0 31.25 60.95 32.9 L60.75 33.25 60.65 33.4 60.25 33.75 60.15 33.9 123.55 97.3 117.3 103.55 53.9 40.15 53.45 40.55 53.35 40.6 52.75 41.0 Q51.2 41.9 49.2 41.85 L47.45 41.45 Q34.3 46.7 15.7 79.55 14.15 60.0 40.0 32.85 L40.0 32.6 Q39.9 30.6 40.8 29.0 L41.25 28.5 41.3 28.45 41.65 27.95 36.9 23.15 43.15 16.95 47.9 21.65" fill="#ffffff" fill-rule="evenodd" stroke="none"/>
  </g>
</svg>
