<?xml version="1.0" encoding="UTF-8" standalone="no"?>
<svg xmlns:xlink="http://www.w3.org/1999/xlink" height="115.75px" width="117.0px" xmlns="http://www.w3.org/2000/svg">
  <g transform="matrix(1.0, 0.0, 0.0, 1.0, -0.6, -1.25)">
    <path d="M82.9 78.85 L83.05 78.65 Q83.25 78.45 83.5 78.3 83.7 78.15 83.95 78.05 84.2 78.0 84.45 77.95 84.7 77.9 84.95 77.9 85.2 77.9 85.5 77.95 85.75 78.0 86.0 78.1 86.2 78.2 86.45 78.35 86.65 78.5 86.85 78.65 L116.8 108.6 Q117.0 108.8 117.15 109.05 117.3 109.25 117.4 109.5 117.5 109.75 117.55 110.0 117.6 110.25 117.6 110.5 117.6 110.75 117.55 111.05 117.5 111.3 117.4 111.55 117.3 111.75 117.15 112.0 117.0 112.2 116.8 112.4 L113.0 116.2 Q112.8 116.4 112.6 116.55 112.35 116.7 112.1 116.8 111.9 116.9 111.6 116.95 111.35 117.0 111.1 117.0 110.85 117.0 110.6 116.95 110.35 116.9 110.1 116.8 109.85 116.7 109.65 116.55 109.4 116.4 109.2 116.2 L92.45 99.45 Q92.3 100.25 92.0 101.0 91.7 101.7 91.25 102.4 90.85 103.05 90.35 103.65 89.8 104.25 89.2 104.75 88.6 105.2 87.9 105.6 87.2 106.0 86.45 106.25 85.7 106.55 84.9 106.7 84.1 106.85 83.25 106.85 82.3 106.85 81.35 106.65 80.45 106.45 79.6 106.1 78.75 105.75 78.0 105.25 77.25 104.75 76.65 104.1 76.0 103.45 75.5 102.7 74.95 101.95 74.6 101.1 74.25 100.25 74.05 99.35 73.9 98.4 73.9 97.45 73.9 96.6 74.05 95.8 74.2 95.0 74.45 94.25 74.7 93.5 75.1 92.8 75.5 92.15 76.0 91.5 76.5 90.9 77.1 90.4 77.65 89.85 78.35 89.45 79.0 89.05 79.75 88.75 80.5 88.45 81.25 88.25 L79.25 86.25 Q79.05 86.05 78.9 85.85 78.8 85.65 78.7 85.4 78.6 85.15 78.55 84.9 78.5 84.65 78.5 84.4 78.5 84.15 78.5 83.9 78.55 83.65 78.65 83.4 78.75 83.15 78.9 82.95 79.05 82.7 79.2 82.5 L58.0 60.8 Q57.85 61.0 57.7 61.2 57.5 61.4 57.35 61.6 57.15 61.8 56.95 62.0 56.75 62.2 56.55 62.35 56.35 62.55 56.15 62.7 55.95 62.85 55.75 63.0 55.6 63.1 55.45 63.2 55.25 63.25 55.15 63.3 55.05 63.35 54.9 63.3 54.75 63.25 54.55 63.15 54.4 63.05 54.2 62.9 54.05 62.75 53.9 62.6 53.7 62.4 53.6 62.25 53.45 62.05 53.35 61.9 53.25 61.75 53.2 61.6 53.15 61.45 53.2 61.35 53.25 61.2 53.3 61.05 53.4 60.9 53.5 60.7 53.65 60.55 53.8 60.35 53.95 60.15 54.1 59.95 54.3 59.7 54.5 59.5 54.7 59.3 54.9 59.15 55.1 58.95 55.3 58.75 55.5 58.6 55.7 58.45 L36.95 39.3 Q36.85 39.5 36.65 39.7 36.5 39.9 36.3 40.15 36.1 40.35 35.9 40.6 35.65 40.8 35.45 41.0 35.25 41.2 35.0 41.4 34.8 41.55 34.6 41.7 34.4 41.85 34.2 41.95 34.05 42.0 33.9 42.05 33.8 42.1 33.65 42.05 33.5 42.0 33.35 41.9 33.15 41.8 33.0 41.65 32.8 41.5 32.65 41.35 32.5 41.2 32.35 41.0 32.2 40.85 32.1 40.65 32.0 40.5 31.95 40.35 31.9 40.2 31.95 40.1 32.0 39.95 32.1 39.8 32.15 39.6 32.3 39.4 32.45 39.2 32.65 39.0 32.8 38.75 33.0 38.55 33.2 38.3 33.45 38.1 33.65 37.9 33.9 37.7 34.1 37.5 34.3 37.3 34.55 37.15 34.7 37.05 L16.25 18.15 Q16.15 18.35 16.0 18.55 15.85 18.75 15.65 19.0 15.45 19.25 15.2 19.5 15.0 19.7 14.75 19.95 14.5 20.2 14.25 20.4 14.0 20.6 13.8 20.75 13.55 20.9 13.35 21.05 13.15 21.15 13.05 21.15 12.95 21.2 12.8 21.15 12.65 21.1 12.45 21.0 12.3 20.9 12.1 20.75 11.95 20.65 11.75 20.45 11.6 20.3 11.45 20.15 11.3 19.95 11.2 19.8 11.1 19.6 11.05 19.45 11.05 19.3 11.05 19.2 11.1 19.05 11.2 18.85 11.3 18.65 11.5 18.4 11.65 18.2 11.85 17.95 12.05 17.7 12.3 17.45 12.55 17.25 12.8 17.0 13.05 16.75 13.25 16.55 13.5 16.35 13.7 16.2 13.95 16.05 14.15 16.0 L0.6 2.15 1.5 1.25 82.9 78.85 82.9 78.85" fill="#ffffff" fill-rule="evenodd" stroke="none"/>
  </g>
</svg>
