<?xml version="1.0" encoding="UTF-8" standalone="no"?>
<svg xmlns:xlink="http://www.w3.org/1999/xlink" height="115.4px" width="115.2px" xmlns="http://www.w3.org/2000/svg">
  <g transform="matrix(1.0, 0.0, 0.0, 1.0, 0.0, 0.0)">
    <path d="M115.35 105.8 L115.35 105.8 105.45 115.35 98.3 108.25 Q98.45 107.65 98.5 107.2 98.55 106.7 98.55 106.35 98.5 105.95 98.4 105.7 98.3 105.4 98.15 105.25 97.95 105.05 97.65 104.95 97.4 104.85 97.05 104.85 96.65 104.85 96.2 104.95 95.75 105.0 95.2 105.2 L69.05 79.1 Q69.1 78.8 68.8 78.1 68.5 77.4 67.9 76.4 67.3 75.5 66.5 74.35 65.7 73.25 64.85 72.15 63.95 71.0 63.05 70.0 62.15 68.95 61.35 68.15 60.55 67.35 59.95 66.9 59.35 66.45 59.05 66.45 L57.0 64.35 Q56.75 63.6 56.5 62.95 56.25 62.3 55.95 61.75 55.7 61.15 55.35 60.65 55.0 60.2 54.55 59.75 54.15 59.3 53.65 58.95 53.15 58.55 52.55 58.25 51.95 57.9 51.2 57.6 50.5 57.3 49.6 57.0 L47.7 54.95 Q47.8 54.6 47.45 54.05 47.2 53.55 46.55 52.9 46.0 52.25 45.15 51.55 44.4 50.85 43.5 50.2 42.55 49.55 41.65 48.95 40.75 48.4 39.95 48.0 39.1 47.55 38.45 47.35 37.8 47.15 37.4 47.25 L10.0 20.0 Q10.1 19.45 10.15 19.0 10.2 18.5 10.15 18.1 10.1 17.7 9.95 17.4 9.85 17.1 9.65 16.9 9.45 16.65 9.15 16.55 8.85 16.4 8.45 16.35 8.1 16.35 7.65 16.4 7.15 16.45 6.6 16.65 L0.15 10.2 9.95 0.6 16.55 7.55 Q16.45 8.05 16.4 8.45 16.35 8.9 16.4 9.25 16.45 9.55 16.55 9.85 16.65 10.1 16.85 10.3 17.0 10.5 17.3 10.65 17.55 10.8 17.9 10.85 18.25 10.95 18.7 10.95 19.1 11.0 19.65 10.95 L46.65 37.6 Q46.6 37.9 46.8 38.55 47.05 39.15 47.45 40.0 47.9 40.8 48.5 41.7 49.05 42.6 49.7 43.5 50.4 44.4 51.05 45.2 51.8 46.05 52.4 46.65 53.05 47.25 53.6 47.6 54.15 47.95 54.5 47.9 L56.75 50.3 Q57.1 51.15 57.45 51.8 57.8 52.5 58.15 53.05 58.5 53.6 58.9 54.05 59.3 54.45 59.75 54.8 60.2 55.15 60.7 55.45 61.15 55.7 61.75 55.95 62.25 56.2 62.9 56.45 63.45 56.6 64.25 56.9 L66.35 59.15 Q66.3 59.45 66.7 60.05 67.1 60.65 67.9 61.45 68.65 62.2 69.65 63.1 70.65 63.95 71.8 64.85 72.9 65.7 74.05 66.5 75.2 67.3 76.15 67.9 77.2 68.55 77.95 68.9 78.7 69.25 79.1 69.25 L105.3 95.7 Q105.3 96.25 105.35 96.7 105.35 97.15 105.45 97.45 105.5 97.8 105.6 98.05 105.7 98.3 105.9 98.5 106.05 98.65 106.25 98.75 106.5 98.8 106.8 98.85 107.05 98.85 107.45 98.8 107.8 98.75 108.25 98.65 L115.35 105.8" fill="#ffffff" fill-rule="evenodd" stroke="none"/>
  </g>
</svg>
