<?xml version="1.0" encoding="UTF-8" standalone="no"?>
<!-- Created with Inkscape (http://www.inkscape.org/) -->

<svg
   width="100"
   height="100"
   viewBox="0 0 26.458333 26.458333"
   version="1.1"
   id="svg11076"
   inkscape:version="1.2.1 (9c6d41e410, 2022-07-14)"
   sodipodi:docname="3_Key_Dark.svg"
   xmlns:inkscape="http://www.inkscape.org/namespaces/inkscape"
   xmlns:sodipodi="http://sodipodi.sourceforge.net/DTD/sodipodi-0.dtd"
   xmlns="http://www.w3.org/2000/svg"
   xmlns:svg="http://www.w3.org/2000/svg">
  <sodipodi:namedview
     id="namedview11078"
     pagecolor="#ffffff"
     bordercolor="#000000"
     borderopacity="0.25"
     inkscape:showpageshadow="2"
     inkscape:pageopacity="0.0"
     inkscape:pagecheckerboard="true"
     inkscape:deskcolor="#d1d1d1"
     inkscape:document-units="mm"
     showgrid="false"
     inkscape:zoom="10.35098"
     inkscape:cx="71.684035"
     inkscape:cy="50.768141"
     inkscape:window-width="2560"
     inkscape:window-height="1351"
     inkscape:window-x="2391"
     inkscape:window-y="-9"
     inkscape:window-maximized="1"
     inkscape:current-layer="layer1" />
  <defs
     id="defs11073" />
  <g
     inkscape:label="Layer 1"
     inkscape:groupmode="layer"
     id="layer1">
    <g
       id="g10875"
       transform="matrix(0.35802887,0,0,0.35802887,-4.8512911,-4.8358064)">
      <g
         id="use10869">
        <path
           fill="#353535"
           stroke="none"
           d="m 84.95,77.8 q -1.25,-27.3 0,-54.65 0,-5.85 -5.85,-5.85 H 21.9 q -5.85,0 -5.85,5.85 1.25,27.35 0,54.65 0,5.85 5.85,5.85 h 57.2 q 5.85,0 5.85,-5.85 M 54.15,26.45 h 1.25 16.15 q 4.25,0 4.25,4.25 -1.15,19.8 0,39.55 0,4.2 -4.25,4.2 H 55.4 54.15 29.45 q -4.25,0 -4.25,-4.2 1.15,-19.75 0,-39.55 0,-4.25 4.25,-4.25 z"
           id="path11231" />
        <path
           fill="#595959"
           stroke="none"
           d="m 55.4,26.45 h -1.25 -24.7 q -4.25,0 -4.25,4.25 1.15,19.8 0,39.55 0,4.2 4.25,4.2 h 24.7 1.25 16.15 q 4.25,0 4.25,-4.2 -1.15,-19.75 0,-39.55 0,-4.25 -4.25,-4.25 H 55.4 m -8.15,19.1 -5.75,-1.2 q 0.4,-1.6 1.25,-2.75 0.85,-1.15 2,-1.85 1.15,-0.7 2.55,-1.05 1.45,-0.3 3,-0.3 1.65,0 3.15,0.4 1.55,0.4 2.7,1.25 1.15,0.85 1.8,2.15 0.7,1.3 0.7,3.1 0,2.05 -1.05,3.55 -1.1,1.45 -3.2,1.9 v 0.1 q 1.15,0.1 2,0.65 0.85,0.55 1.45,1.3 0.6,0.75 0.95,1.75 0.3,0.95 0.3,2.05 0,1.85 -0.75,3.25 -0.7,1.4 -1.9,2.35 -1.2,0.9 -2.85,1.35 -1.6,0.5 -3.45,0.5 -3.3,0 -5.7,-1.55 -2.4,-1.55 -3.15,-4.9 l 5.5,-1.3 q 0.3,1.35 1.15,2.1 0.85,0.8 2.5,0.8 1.75,0 2.55,-0.9 0.85,-0.9 0.85,-2.3 0,-1.05 -0.45,-1.6 -0.45,-0.6 -1.15,-0.85 -0.7,-0.3 -1.55,-0.35 -0.9,-0.05 -1.75,-0.05 H 47.7 V 48.6 h 1.75 q 0.7,0 1.4,-0.1 0.7,-0.1 1.3,-0.4 0.55,-0.3 0.9,-0.85 0.35,-0.55 0.35,-1.4 0,-1.15 -0.9,-1.9 -0.85,-0.7 -2.15,-0.7 -1.25,0 -2.05,0.65 -0.8,0.65 -1.05,1.65 z"
           id="path11233" />
        <path
           fill="#cdcdcd"
           stroke="none"
           d="m 41.5,44.35 5.75,1.2 q 0.25,-1 1.05,-1.65 0.8,-0.65 2.05,-0.65 1.3,0 2.15,0.7 0.9,0.75 0.9,1.9 0,0.85 -0.35,1.4 -0.35,0.55 -0.9,0.85 -0.6,0.3 -1.3,0.4 -0.7,0.1 -1.4,0.1 H 47.7 v 4.55 h 1.25 q 0.85,0 1.75,0.05 0.85,0.05 1.55,0.35 0.7,0.25 1.15,0.85 0.45,0.55 0.45,1.6 0,1.4 -0.85,2.3 -0.8,0.9 -2.55,0.9 -1.65,0 -2.5,-0.8 -0.85,-0.75 -1.15,-2.1 l -5.5,1.3 q 0.75,3.35 3.15,4.9 2.4,1.55 5.7,1.55 1.85,0 3.45,-0.5 1.65,-0.45 2.85,-1.35 1.2,-0.95 1.9,-2.35 0.75,-1.4 0.75,-3.25 0,-1.1 -0.3,-2.05 -0.35,-1 -0.95,-1.75 -0.6,-0.75 -1.45,-1.3 -0.85,-0.55 -2,-0.65 v -0.1 q 2.1,-0.45 3.2,-1.9 1.05,-1.5 1.05,-3.55 0,-1.8 -0.7,-3.1 -0.65,-1.3 -1.8,-2.15 -1.15,-0.85 -2.7,-1.25 -1.5,-0.4 -3.15,-0.4 -1.55,0 -3,0.3 -1.4,0.35 -2.55,1.05 -1.15,0.7 -2,1.85 -0.85,1.15 -1.25,2.75 z"
           id="path11235" />
      </g>
      <path
         id="use10871"
         stroke="#1d1d1d"
         stroke-width="5"
         stroke-linejoin="round"
         stroke-linecap="round"
         fill="none"
         d="m 84.95,23.15 q -1.25,27.35 0,54.65 0,5.85 -5.85,5.85 H 21.9 q -5.85,0 -5.85,-5.85 1.25,-27.3 0,-54.65 0,-5.85 5.85,-5.85 h 57.2 q 5.85,0 5.85,5.85 z" />
      <path
         id="use10873"
         stroke="#696969"
         stroke-width="4"
         stroke-linejoin="round"
         stroke-linecap="round"
         fill="none"
         d="m 54.15,26.45 h -24.7 q -4.25,0 -4.25,4.25 1.15,19.8 0,39.55 0,4.2 4.25,4.2 h 24.7 m 1.25,0 h 16.15 q 4.25,0 4.25,-4.2 -1.15,-19.75 0,-39.55 0,-4.25 -4.25,-4.25 H 55.4" />
    </g>
  </g>
</svg>
