<?xml version="1.0" encoding="UTF-8" standalone="no"?>
<!-- Created with Inkscape (http://www.inkscape.org/) -->

<svg
   width="100"
   height="100"
   viewBox="0 0 26.458333 26.458333"
   version="1.1"
   id="svg12260"
   inkscape:version="1.2.1 (9c6d41e410, 2022-07-14)"
   sodipodi:docname="5_Key_Dark.svg"
   xmlns:inkscape="http://www.inkscape.org/namespaces/inkscape"
   xmlns:sodipodi="http://sodipodi.sourceforge.net/DTD/sodipodi-0.dtd"
   xmlns="http://www.w3.org/2000/svg"
   xmlns:svg="http://www.w3.org/2000/svg">
  <sodipodi:namedview
     id="namedview12262"
     pagecolor="#ffffff"
     bordercolor="#000000"
     borderopacity="0.25"
     inkscape:showpageshadow="2"
     inkscape:pageopacity="0.0"
     inkscape:pagecheckerboard="true"
     inkscape:deskcolor="#d1d1d1"
     inkscape:document-units="mm"
     showgrid="false"
     inkscape:zoom="10.35098"
     inkscape:cx="86.899986"
     inkscape:cy="47.869864"
     inkscape:window-width="2560"
     inkscape:window-height="1351"
     inkscape:window-x="2391"
     inkscape:window-y="-9"
     inkscape:window-maximized="1"
     inkscape:current-layer="layer1" />
  <defs
     id="defs12257" />
  <g
     inkscape:label="Layer 1"
     inkscape:groupmode="layer"
     id="layer1">
    <g
       id="g12112"
       transform="matrix(0.35802887,0,0,0.35802887,-4.8512911,-4.8358064)">
      <g
         id="use12106">
        <path
           fill="#353535"
           stroke="none"
           d="m 84.95,77.8 q -1.25,-27.3 0,-54.65 0,-5.85 -5.85,-5.85 H 21.9 q -5.85,0 -5.85,5.85 1.25,27.35 0,54.65 0,5.85 5.85,5.85 h 57.2 q 5.85,0 5.85,-5.85 M 54.15,26.45 h 1.25 16.15 q 4.25,0 4.25,4.25 -1.15,19.8 0,39.55 0,4.2 -4.25,4.2 H 55.4 54.15 29.45 q -4.25,0 -4.25,-4.2 1.15,-19.75 0,-39.55 0,-4.25 4.25,-4.25 z"
           id="path12411" />
        <path
           fill="#595959"
           stroke="none"
           d="m 55.4,26.45 h -1.25 -24.7 q -4.25,0 -4.25,4.25 1.15,19.8 0,39.55 0,4.2 4.25,4.2 h 24.7 1.25 16.15 q 4.25,0 4.25,-4.2 -1.15,-19.75 0,-39.55 0,-4.25 -4.25,-4.25 H 55.4 m 2.85,12.35 v 4.65 H 48.4 l -0.1,3.8 q 0.8,-0.3 2.2,-0.3 1.9,0 3.5,0.6 1.55,0.55 2.7,1.6 1.1,1.1 1.75,2.6 0.65,1.55 0.65,3.4 0,2.1 -0.75,3.75 -0.7,1.65 -1.95,2.8 -1.25,1.15 -3,1.75 -1.75,0.6 -3.75,0.6 -3.25,0 -5.4,-1.6 Q 42.1,60.9 41.3,57.7 l 5.45,-1.25 q 0.25,1.3 1.15,2.15 0.9,0.8 2.25,0.8 1.7,0 2.7,-1.05 1,-1.05 1,-2.65 0,-1.25 -0.5,-2.05 -0.5,-0.75 -1.35,-1.25 -0.85,-0.45 -1.85,-0.65 -1,-0.15 -2,-0.15 -1.3,0 -2.6,0.25 Q 44.2,52.1 43,52.5 l 0.3,-13.7 z"
           id="path12413" />
        <path
           fill="#cdcdcd"
           stroke="none"
           d="M 58.25,43.45 V 38.8 H 43.3 L 43,52.5 q 1.2,-0.4 2.55,-0.65 1.3,-0.25 2.6,-0.25 1,0 2,0.15 1,0.2 1.85,0.65 0.85,0.5 1.35,1.25 0.5,0.8 0.5,2.05 0,1.6 -1,2.65 -1,1.05 -2.7,1.05 -1.35,0 -2.25,-0.8 Q 47,57.75 46.75,56.45 L 41.3,57.7 q 0.8,3.2 2.95,4.75 2.15,1.6 5.4,1.6 2,0 3.75,-0.6 1.75,-0.6 3,-1.75 1.25,-1.15 1.95,-2.8 0.75,-1.65 0.75,-3.75 0,-1.85 -0.65,-3.4 -0.65,-1.5 -1.75,-2.6 -1.15,-1.05 -2.7,-1.6 -1.6,-0.6 -3.5,-0.6 -1.4,0 -2.2,0.3 l 0.1,-3.8 z"
           id="path12415" />
      </g>
      <path
         id="use12108"
         stroke="#1d1d1d"
         stroke-width="5"
         stroke-linejoin="round"
         stroke-linecap="round"
         fill="none"
         d="m 84.95,23.15 q -1.25,27.35 0,54.65 0,5.85 -5.85,5.85 H 21.9 q -5.85,0 -5.85,-5.85 1.25,-27.3 0,-54.65 0,-5.85 5.85,-5.85 h 57.2 q 5.85,0 5.85,5.85 z" />
      <path
         id="use12110"
         stroke="#696969"
         stroke-width="4"
         stroke-linejoin="round"
         stroke-linecap="round"
         fill="none"
         d="m 54.15,26.45 h -24.7 q -4.25,0 -4.25,4.25 1.15,19.8 0,39.55 0,4.2 4.25,4.2 h 24.7 m 1.25,0 h 16.15 q 4.25,0 4.25,-4.2 -1.15,-19.75 0,-39.55 0,-4.25 -4.25,-4.25 H 55.4" />
    </g>
  </g>
</svg>
