<?xml version="1.0" encoding="UTF-8" standalone="no"?>
<!-- Created with Inkscape (http://www.inkscape.org/) -->

<svg
   width="100"
   height="100"
   viewBox="0 0 26.458333 26.458333"
   version="1.1"
   id="svg7747"
   inkscape:version="1.2.1 (9c6d41e410, 2022-07-14)"
   sodipodi:docname="B_Key_Dark.svg"
   xmlns:inkscape="http://www.inkscape.org/namespaces/inkscape"
   xmlns:sodipodi="http://sodipodi.sourceforge.net/DTD/sodipodi-0.dtd"
   xmlns="http://www.w3.org/2000/svg"
   xmlns:svg="http://www.w3.org/2000/svg">
  <sodipodi:namedview
     id="namedview7749"
     pagecolor="#ffffff"
     bordercolor="#000000"
     borderopacity="0.25"
     inkscape:showpageshadow="2"
     inkscape:pageopacity="0.0"
     inkscape:pagecheckerboard="true"
     inkscape:deskcolor="#d1d1d1"
     inkscape:document-units="mm"
     showgrid="false"
     inkscape:zoom="10.35098"
     inkscape:cx="80.813606"
     inkscape:cy="51.830842"
     inkscape:window-width="2560"
     inkscape:window-height="1351"
     inkscape:window-x="2391"
     inkscape:window-y="-9"
     inkscape:window-maximized="1"
     inkscape:current-layer="layer1" />
  <defs
     id="defs7744" />
  <g
     inkscape:label="Layer 1"
     inkscape:groupmode="layer"
     id="layer1">
    <g
       id="g7510"
       transform="matrix(0.35802887,0,0,0.35802887,-4.8512911,-4.8358064)">
      <g
         id="use7504">
        <path
           fill="#353535"
           stroke="none"
           d="m 84.95,77.8 q -1.25,-27.3 0,-54.65 0,-5.85 -5.85,-5.85 H 21.9 q -5.85,0 -5.85,5.85 1.25,27.35 0,54.65 0,5.85 5.85,5.85 h 57.2 q 5.85,0 5.85,-5.85 M 54.15,26.45 h 1.25 16.15 q 4.25,0 4.25,4.25 -1.15,19.8 0,39.55 0,4.2 -4.25,4.2 H 55.4 54.15 29.45 q -4.25,0 -4.25,-4.2 1.15,-19.75 0,-39.55 0,-4.25 4.25,-4.25 z"
           id="path7902" />
        <path
           fill="#595959"
           stroke="none"
           d="m 55.4,26.45 h -1.25 -24.7 q -4.25,0 -4.25,4.25 1.15,19.8 0,39.55 0,4.2 4.25,4.2 h 24.7 1.25 16.15 q 4.25,0 4.25,-4.2 -1.15,-19.75 0,-39.55 0,-4.25 -4.25,-4.25 H 55.4 m 1.65,13.5 q 1.3,0.7 2.1,1.9 0.8,1.25 0.8,3.3 0,2.1 -1.15,3.45 -1.2,1.4 -3.1,2 v 0.05 q 1.2,0.2 2.2,0.7 1,0.5 1.7,1.3 0.75,0.75 1.15,1.8 0.35,1.05 0.35,2.25 0,1.95 -0.85,3.3 -0.8,1.3 -2.15,2.1 -1.35,0.8 -3,1.15 -1.65,0.35 -3.3,0.35 H 41.7 V 38.8 h 9.2 q 1.6,0 3.25,0.25 1.65,0.25 2.9,0.9 m -4.35,13.5 q -0.8,-0.1 -1.45,-0.1 h -4.1 V 59 H 52 q 0.65,0 1.3,-0.15 0.65,-0.15 1.15,-0.5 0.55,-0.35 0.9,-0.9 0.3,-0.55 0.3,-1.35 0,-0.9 -0.45,-1.45 -0.4,-0.55 -1.1,-0.8 -0.65,-0.3 -1.4,-0.4 m -5.55,-10 v 5.3 h 3.95 q 0.6,0 1.25,-0.15 0.6,-0.15 1.1,-0.45 0.45,-0.3 0.75,-0.85 0.3,-0.55 0.3,-1.25 0,-0.8 -0.3,-1.3 -0.35,-0.5 -0.9,-0.8 -0.5,-0.3 -1.15,-0.4 -0.7,-0.1 -1.3,-0.1 z"
           id="path7904" />
        <path
           fill="#cdcdcd"
           stroke="none"
           d="m 59.15,41.85 q -0.8,-1.2 -2.1,-1.9 Q 55.8,39.3 54.15,39.05 52.5,38.8 50.9,38.8 h -9.2 v 24.8 h 10.1 q 1.65,0 3.3,-0.35 1.65,-0.35 3,-1.15 1.35,-0.8 2.15,-2.1 0.85,-1.35 0.85,-3.3 0,-1.2 -0.35,-2.25 -0.4,-1.05 -1.15,-1.8 -0.7,-0.8 -1.7,-1.3 -1,-0.5 -2.2,-0.7 V 50.6 q 1.9,-0.6 3.1,-2 1.15,-1.35 1.15,-3.45 0,-2.05 -0.8,-3.3 m -12,6.9 v -5.3 h 3.7 q 0.6,0 1.3,0.1 0.65,0.1 1.15,0.4 0.55,0.3 0.9,0.8 0.3,0.5 0.3,1.3 0,0.7 -0.3,1.25 -0.3,0.55 -0.75,0.85 -0.5,0.3 -1.1,0.45 -0.65,0.15 -1.25,0.15 h -3.95 m 4.1,4.6 q 0.65,0 1.45,0.1 0.75,0.1 1.4,0.4 0.7,0.25 1.1,0.8 0.45,0.55 0.45,1.45 0,0.8 -0.3,1.35 Q 55,58 54.45,58.35 53.95,58.7 53.3,58.85 52.65,59 52,59 h -4.85 v -5.65 z"
           id="path7906" />
      </g>
      <path
         id="use7506"
         stroke="#1d1d1d"
         stroke-width="5"
         stroke-linejoin="round"
         stroke-linecap="round"
         fill="none"
         d="m 84.95,23.15 q -1.25,27.35 0,54.65 0,5.85 -5.85,5.85 H 21.9 q -5.85,0 -5.85,-5.85 1.25,-27.3 0,-54.65 0,-5.85 5.85,-5.85 h 57.2 q 5.85,0 5.85,5.85 z" />
      <path
         id="use7508"
         stroke="#696969"
         stroke-width="4"
         stroke-linejoin="round"
         stroke-linecap="round"
         fill="none"
         d="m 54.15,26.45 h -24.7 q -4.25,0 -4.25,4.25 1.15,19.8 0,39.55 0,4.2 4.25,4.2 h 24.7 m 1.25,0 h 16.15 q 4.25,0 4.25,-4.2 -1.15,-19.75 0,-39.55 0,-4.25 -4.25,-4.25 H 55.4" />
    </g>
  </g>
</svg>
