<?xml version="1.0" encoding="UTF-8" standalone="no"?>
<!-- Created with Inkscape (http://www.inkscape.org/) -->

<svg
   width="100"
   height="100"
   viewBox="0 0 26.458333 26.458333"
   version="1.1"
   id="svg3463"
   inkscape:version="1.2.1 (9c6d41e410, 2022-07-14)"
   sodipodi:docname="Insert_Key_Dark.svg"
   xmlns:inkscape="http://www.inkscape.org/namespaces/inkscape"
   xmlns:sodipodi="http://sodipodi.sourceforge.net/DTD/sodipodi-0.dtd"
   xmlns="http://www.w3.org/2000/svg"
   xmlns:svg="http://www.w3.org/2000/svg">
  <sodipodi:namedview
     id="namedview3465"
     pagecolor="#ffffff"
     bordercolor="#000000"
     borderopacity="0.25"
     inkscape:showpageshadow="2"
     inkscape:pageopacity="0.0"
     inkscape:pagecheckerboard="true"
     inkscape:deskcolor="#d1d1d1"
     inkscape:document-units="mm"
     showgrid="false"
     inkscape:zoom="10.35098"
     inkscape:cx="80.523778"
     inkscape:cy="52.217279"
     inkscape:window-width="2560"
     inkscape:window-height="1351"
     inkscape:window-x="2391"
     inkscape:window-y="-9"
     inkscape:window-maximized="1"
     inkscape:current-layer="layer1" />
  <defs
     id="defs3460" />
  <g
     inkscape:label="Layer 1"
     inkscape:groupmode="layer"
     id="layer1">
    <g
       id="g3292"
       transform="matrix(0.35802887,0,0,0.35802887,-4.8512911,-4.8358064)">
      <g
         id="use3286">
        <path
           fill="#353535"
           stroke="none"
           d="m 84.95,77.8 q -1.25,-27.3 0,-54.65 0,-5.85 -5.85,-5.85 H 21.9 q -5.85,0 -5.85,5.85 1.25,27.35 0,54.65 0,5.85 5.85,5.85 h 57.2 q 5.85,0 5.85,-5.85 M 54.15,26.45 h 1.25 16.15 q 4.25,0 4.25,4.25 -1.15,19.8 0,39.55 0,4.2 -4.25,4.2 H 55.4 54.15 29.45 q -4.25,0 -4.25,-4.2 1.15,-19.75 0,-39.55 0,-4.25 4.25,-4.25 z"
           id="path3618" />
        <path
           fill="#595959"
           stroke="none"
           d="m 55.4,26.45 h -1.25 -24.7 q -4.25,0 -4.25,4.25 1.15,19.8 0,39.55 0,4.2 4.25,4.2 h 24.7 1.25 16.15 q 4.25,0 4.25,-4.2 -1.15,-19.75 0,-39.55 0,-4.25 -4.25,-4.25 H 55.4 M 36.4,50 V 67.7 H 32.5 V 50 h 3.9 m 3.1,17.7 V 55.55 h 3.6 v 1.65 h 0.05 q 0.15,-0.35 0.5,-0.7 0.3,-0.35 0.75,-0.65 0.45,-0.25 1.05,-0.45 0.55,-0.15 1.25,-0.15 1.4,0 2.3,0.45 0.85,0.45 1.35,1.2 0.45,0.8 0.65,1.85 0.15,1.05 0.15,2.25 v 6.7 h -3.7 v -5.95 q 0,-0.55 -0.05,-1.1 Q 47.35,60.1 47.15,59.6 47,59.15 46.6,58.85 q -0.4,-0.3 -1.15,-0.3 -0.7,0 -1.15,0.25 -0.45,0.25 -0.7,0.7 -0.25,0.45 -0.3,1 -0.05,0.55 -0.05,1.15 V 67.7 H 39.5 m 22.35,-6.65 q 0.7,0.4 1.15,1.1 0.45,0.7 0.45,1.85 0,1.15 -0.5,1.95 -0.5,0.75 -1.3,1.2 -0.8,0.5 -1.8,0.65 -1,0.2 -2,0.2 Q 56.6,68 55.3,67.65 54,67.3 53.1,66.35 l 2.3,-2.5 q 0.5,0.65 1.15,0.95 0.65,0.35 1.5,0.35 0.65,0 1.15,-0.15 0.55,-0.2 0.55,-0.7 0,-0.5 -0.5,-0.75 -0.45,-0.2 -1.15,-0.4 -0.7,-0.15 -1.55,-0.35 -0.8,-0.15 -1.5,-0.55 -0.7,-0.35 -1.2,-1.05 -0.45,-0.7 -0.45,-1.85 0,-1.05 0.45,-1.85 0.45,-0.75 1.15,-1.25 0.7,-0.55 1.65,-0.75 0.9,-0.25 1.85,-0.25 1.2,0 2.4,0.35 1.25,0.35 2.1,1.25 l -2.3,2.25 q -0.85,-1 -2.15,-1 -0.5,0 -0.95,0.2 -0.45,0.25 -0.45,0.8 0,0.45 0.45,0.65 0.5,0.2 1.2,0.4 0.7,0.15 1.5,0.35 0.85,0.15 1.55,0.55 z"
           id="path3620" />
        <path
           fill="#cdcdcd"
           stroke="none"
           d="m 63,62.15 q -0.45,-0.7 -1.15,-1.1 -0.7,-0.4 -1.55,-0.55 -0.8,-0.2 -1.5,-0.35 -0.7,-0.2 -1.2,-0.4 -0.45,-0.2 -0.45,-0.65 0,-0.55 0.45,-0.8 0.45,-0.2 0.95,-0.2 1.3,0 2.15,1 L 63,56.85 q -0.85,-0.9 -2.1,-1.25 -1.2,-0.35 -2.4,-0.35 -0.95,0 -1.85,0.25 -0.95,0.2 -1.65,0.75 -0.7,0.5 -1.15,1.25 -0.45,0.8 -0.45,1.85 0,1.15 0.45,1.85 0.5,0.7 1.2,1.05 0.7,0.4 1.5,0.55 0.85,0.2 1.55,0.35 0.7,0.2 1.15,0.4 0.5,0.25 0.5,0.75 0,0.5 -0.55,0.7 -0.5,0.15 -1.15,0.15 -0.85,0 -1.5,-0.35 -0.65,-0.3 -1.15,-0.95 l -2.3,2.5 q 0.9,0.95 2.2,1.3 1.3,0.35 2.55,0.35 1,0 2,-0.2 1,-0.15 1.8,-0.65 0.8,-0.45 1.3,-1.2 0.5,-0.8 0.5,-1.95 0,-1.15 -0.45,-1.85 M 39.5,55.55 V 67.7 h 3.75 v -6.05 q 0,-0.6 0.05,-1.15 0.05,-0.55 0.3,-1 0.25,-0.45 0.7,-0.7 0.45,-0.25 1.15,-0.25 0.75,0 1.15,0.3 0.4,0.3 0.55,0.75 0.2,0.5 0.25,1.05 0.05,0.55 0.05,1.1 v 5.95 h 3.7 V 61 Q 51.15,59.8 51,58.75 50.8,57.7 50.35,56.9 49.85,56.15 49,55.7 q -0.9,-0.45 -2.3,-0.45 -0.7,0 -1.25,0.15 -0.6,0.2 -1.05,0.45 -0.45,0.3 -0.75,0.65 -0.35,0.35 -0.5,0.7 H 43.1 V 55.55 H 39.5 M 36.4,67.7 V 50 h -3.9 v 17.7 z"
           id="path3622" />
      </g>
      <path
         id="use3288"
         stroke="#1d1d1d"
         stroke-width="5"
         stroke-linejoin="round"
         stroke-linecap="round"
         fill="none"
         d="m 84.95,23.15 q -1.25,27.35 0,54.65 0,5.85 -5.85,5.85 H 21.9 q -5.85,0 -5.85,-5.85 1.25,-27.3 0,-54.65 0,-5.85 5.85,-5.85 h 57.2 q 5.85,0 5.85,5.85 z" />
      <path
         id="use3290"
         stroke="#696969"
         stroke-width="4"
         stroke-linejoin="round"
         stroke-linecap="round"
         fill="none"
         d="m 54.15,26.45 h -24.7 q -4.25,0 -4.25,4.25 1.15,19.8 0,39.55 0,4.2 4.25,4.2 h 24.7 m 1.25,0 h 16.15 q 4.25,0 4.25,-4.2 -1.15,-19.75 0,-39.55 0,-4.25 -4.25,-4.25 H 55.4" />
    </g>
  </g>
</svg>
