<?xml version="1.0" encoding="UTF-8" standalone="no"?>
<!-- Created with Inkscape (http://www.inkscape.org/) -->

<svg
   width="100"
   height="100"
   viewBox="0 0 26.458333 26.458333"
   version="1.1"
   id="svg15126"
   inkscape:version="1.2.1 (9c6d41e410, 2022-07-14)"
   sodipodi:docname="PS5_R2.svg"
   xmlns:inkscape="http://www.inkscape.org/namespaces/inkscape"
   xmlns:sodipodi="http://sodipodi.sourceforge.net/DTD/sodipodi-0.dtd"
   xmlns="http://www.w3.org/2000/svg"
   xmlns:svg="http://www.w3.org/2000/svg">
  <sodipodi:namedview
     id="namedview15128"
     pagecolor="#ffffff"
     bordercolor="#000000"
     borderopacity="0.25"
     inkscape:showpageshadow="2"
     inkscape:pageopacity="0.0"
     inkscape:pagecheckerboard="true"
     inkscape:deskcolor="#d1d1d1"
     inkscape:document-units="mm"
     showgrid="false"
     inkscape:zoom="10.35098"
     inkscape:cx="66.612051"
     inkscape:cy="52.796934"
     inkscape:window-width="2560"
     inkscape:window-height="1351"
     inkscape:window-x="2391"
     inkscape:window-y="-9"
     inkscape:window-maximized="1"
     inkscape:current-layer="layer1" />
  <defs
     id="defs15123" />
  <g
     inkscape:label="Layer 1"
     inkscape:groupmode="layer"
     id="layer1">
    <g
       id="g19630"
       style="display:inline"
       transform="matrix(0.31066489,0,0,0.31066489,-2.5374198,-2.6274187)">
      <g
         id="use19624">
        <path
           fill="#313131"
           stroke="none"
           d="M 84.15,70.8 Q 80.6,47.75 85.5,25 85.6,15.65 78.95,11.75 59.05,13.4 33.55,11.45 33.3,11.4 33.05,11.4 q -1.8,-0.15 -3.6,-0.25 -4.65,-0.8 -8.75,1.6 -3.95,2.35 -4.25,7 -0.3,4.55 -0.45,9.05 v 14.55 q 1.35,7 7.65,10.4 7.05,5.25 10.25,16.6 l 6.55,13.6 q 10.75,9.15 26.65,6.65 8.05,-1.25 13.15,-5.95 5.1,-7 3.9,-13.85 M 77.3,21.4 q 0.7,1.6 0.55,3.3 -0.4,2.35 -0.75,4.8 -0.45,3 -0.8,6.1 -0.3,2.3 -0.5,4.95 -0.25,2.9 -0.2,5.8 0.1,2.95 0.15,5.9 0.05,2.7 0.15,5.55 0.1,1.75 0.2,3.5 0.1,1.7 0.25,3.4 0.1,1.6 0.25,3.2 0.15,1.55 0.3,3.1 0.05,0.7 0.15,1.45 0.25,1.95 -0.15,3.8 -0.2,0.8 -0.55,1.6 -0.3,0.75 -0.75,1.45 -0.2,0.4 -0.45,0.7 -0.25,0.35 -0.6,0.65 -0.65,0.6 -1.35,1.15 -0.4,0.25 -0.75,0.5 -0.45,0.2 -0.9,0.45 -0.5,0.2 -0.95,0.4 -0.55,0.15 -1.1,0.35 -0.8,0.15 -1.2,0.2 -2,0 -3.55,-0.35 Q 63,83.1 61.35,82.5 60,81.95 58.8,81.25 57.4,80.35 56.15,79.3 54.75,78.1 53.5,76.85 52.6,75.8 51.8,74.7 q -0.85,-1.25 -1.6,-2.55 -1.05,-1.7 -2,-3.4 -1.7,-3.2 -3.05,-6.35 -1.45,-3.4 -2.35,-6.65 -0.55,-2 -1.05,-3.95 -0.2,-0.85 -0.4,-1.65 -0.2,-0.85 -0.35,-1.65 -0.2,-0.85 -0.4,-1.7 -0.15,-0.85 -0.25,-1.65 -0.15,-0.85 -0.3,-1.7 -0.15,-0.85 -0.3,-1.7 -0.1,-0.85 -0.2,-1.7 -0.1,-0.85 -0.2,-1.7 -0.05,-0.85 -0.1,-1.7 -0.1,-0.85 -0.15,-1.7 -0.1,-0.9 -0.15,-1.75 -0.05,-0.85 -0.05,-1.7 -0.05,-0.9 -0.1,-1.75 0,-0.85 0,-1.7 -0.05,-0.9 -0.15,-1.8 -0.25,-2.2 0.7,-4.3 0.9,-1.85 2.9,-3.05 1.1,0.1 2.2,0.2 1.05,0.05 2.1,0.15 1.05,0.05 2.1,0.15 1.05,0.05 2.1,0.1 1.05,0.05 2.1,0.1 1.05,0 2.1,0.05 1.05,0 2.1,0 1,0 2.05,0 4.1,0 8.25,-0.15 3.95,-0.3 8.05,-0.6 1.25,0.95 1.9,2.5 z"
           id="path15281" />
        <path
           fill="#4f4f4f"
           stroke="none"
           d="M 77.85,24.7 Q 78,23 77.3,21.4 q -0.65,-1.55 -1.9,-2.5 -4.1,0.3 -8.05,0.6 -4.15,0.15 -8.25,0.15 -1.05,0 -2.05,0 -1.05,0 -2.1,0 -1.05,-0.05 -2.1,-0.05 -1.05,-0.05 -2.1,-0.1 -1.05,-0.05 -2.1,-0.1 -1.05,-0.1 -2.1,-0.15 -1.05,-0.1 -2.1,-0.15 -1.1,-0.1 -2.2,-0.2 -2,1.2 -2.9,3.05 -0.95,2.1 -0.7,4.3 0.1,0.9 0.15,1.8 0,0.85 0,1.7 0.05,0.85 0.1,1.75 0,0.85 0.05,1.7 0.05,0.85 0.15,1.75 0.05,0.85 0.15,1.7 0.05,0.85 0.1,1.7 0.1,0.85 0.2,1.7 0.1,0.85 0.2,1.7 0.15,0.85 0.3,1.7 0.15,0.85 0.3,1.7 0.1,0.8 0.25,1.65 0.2,0.85 0.4,1.7 0.15,0.8 0.35,1.65 0.2,0.8 0.4,1.65 0.5,1.95 1.05,3.95 0.9,3.25 2.35,6.65 1.35,3.15 3.05,6.35 0.95,1.7 2,3.4 0.75,1.3 1.6,2.55 0.8,1.1 1.7,2.15 1.25,1.25 2.65,2.45 1.25,1.05 2.65,1.95 1.2,0.7 2.55,1.25 1.65,0.6 3.4,0.85 1.55,0.35 3.55,0.35 0.4,-0.05 1.2,-0.2 0.55,-0.2 1.1,-0.35 0.45,-0.2 0.95,-0.4 0.45,-0.25 0.9,-0.45 0.35,-0.25 0.75,-0.5 0.7,-0.55 1.35,-1.15 0.35,-0.3 0.6,-0.65 0.25,-0.3 0.45,-0.7 0.45,-0.7 0.75,-1.45 0.35,-0.8 0.55,-1.6 0.4,-1.85 0.15,-3.8 Q 76.95,71.7 76.9,71 76.75,69.45 76.6,67.9 76.45,66.3 76.35,64.7 76.2,63 76.1,61.3 76,59.55 75.9,57.8 75.8,54.95 75.75,52.25 75.7,49.3 75.6,46.35 q -0.05,-2.9 0.2,-5.8 0.2,-2.65 0.5,-4.95 0.35,-3.1 0.8,-6.1 0.35,-2.45 0.75,-4.8 M 59.4,29.95 q 0.05,-1.25 0.5,-2.1 0.4,-0.9 1.15,-1.5 0.7,-0.6 1.7,-0.9 1,-0.3 2.15,-0.3 1.05,0 1.95,0.3 0.95,0.3 1.6,0.9 0.7,0.55 1.1,1.45 0.35,0.9 0.35,2.05 0,0.75 -0.15,1.35 -0.15,0.6 -0.4,1.1 -0.3,0.5 -0.65,0.9 -0.4,0.45 -0.8,0.85 l -4.75,4.05 h 6.9 V 41 H 59.2 v -3.5 l 6.05,-5.45 q 0.45,-0.4 0.9,-0.95 0.45,-0.5 0.45,-1.2 0,-0.8 -0.55,-1.25 -0.55,-0.45 -1.35,-0.45 -0.9,0 -1.45,0.55 -0.5,0.6 -0.55,1.4 l -3.3,-0.2 m -2.55,-2.1 q 0.5,0.95 0.5,2.3 0,1.65 -0.9,2.8 -0.85,1.15 -2.5,1.45 L 57.9,41 h -4.1 l -3.25,-6.25 h -1.7 V 41 h -3.4 V 25.4 h 6 q 1.2,0 2.25,0.25 1.1,0.25 1.9,0.75 0.8,0.55 1.25,1.45 m -4.8,0.55 q -0.5,-0.1 -0.95,-0.1 h -2.25 v 3.55 h 2.05 q 0.45,0 0.95,0 0.55,-0.05 0.95,-0.2 0.4,-0.2 0.7,-0.55 0.25,-0.35 0.25,-0.95 0,-0.6 -0.2,-0.95 -0.25,-0.35 -0.65,-0.55 -0.35,-0.2 -0.85,-0.25 z"
           id="path15283" />
        <path
           fill="#8c8c8c"
           stroke="none"
           d="m 57.35,30.15 q 0,-1.35 -0.5,-2.3 Q 56.4,26.95 55.6,26.4 54.8,25.9 53.7,25.65 52.65,25.4 51.45,25.4 h -6 V 41 h 3.4 v -6.25 h 1.7 L 53.8,41 h 4.1 l -3.95,-6.6 q 1.65,-0.3 2.5,-1.45 0.9,-1.15 0.9,-2.8 M 51.1,28.3 q 0.45,0 0.95,0.1 0.5,0.05 0.85,0.25 0.4,0.2 0.65,0.55 0.2,0.35 0.2,0.95 0,0.6 -0.25,0.95 -0.3,0.35 -0.7,0.55 -0.4,0.15 -0.95,0.2 -0.5,0 -0.95,0 H 48.85 V 28.3 h 2.25 m 8.8,-0.45 q -0.45,0.85 -0.5,2.1 l 3.3,0.2 q 0.05,-0.8 0.55,-1.4 0.55,-0.55 1.45,-0.55 0.8,0 1.35,0.45 0.55,0.45 0.55,1.25 0,0.7 -0.45,1.2 -0.45,0.55 -0.9,0.95 L 59.2,37.5 V 41 h 10.85 v -2.9 h -6.9 l 4.75,-4.05 q 0.4,-0.4 0.8,-0.85 0.35,-0.4 0.65,-0.9 0.25,-0.5 0.4,-1.1 0.15,-0.6 0.15,-1.35 0,-1.15 -0.35,-2.05 -0.4,-0.9 -1.1,-1.45 -0.65,-0.6 -1.6,-0.9 -0.9,-0.3 -1.95,-0.3 -1.15,0 -2.15,0.3 -1,0.3 -1.7,0.9 -0.75,0.6 -1.15,1.5 z"
           id="path15285" />
      </g>
      <path
         id="use19626"
         stroke="#1b1b1b"
         stroke-width="5"
         stroke-linejoin="round"
         stroke-linecap="round"
         fill="none"
         d="m 85.5,25 q -4.9,22.75 -1.35,45.8 1.2,6.85 -3.9,13.85 -5.1,4.7 -13.15,5.95 -15.9,2.5 -26.65,-6.65 L 33.9,70.35 Q 30.7,59 23.65,53.75 17.35,50.35 16,43.35 V 28.8 q 0.15,-4.5 0.45,-9.05 0.3,-4.65 4.25,-7 4.1,-2.4 8.75,-1.6 1.8,0.1 3.6,0.25 0.25,0 0.5,0.05 25.5,1.95 45.4,0.3 6.65,3.9 6.55,13.25 z" />
      <path
         id="use19628"
         stroke="#626262"
         stroke-width="3"
         stroke-linejoin="round"
         stroke-linecap="round"
         fill="none"
         d="m 42.25,18.9 q -2,1.2 -2.9,3.05 -0.95,2.1 -0.7,4.3 0.1,0.9 0.15,1.8 0,0.85 0,1.7 0.05,0.85 0.1,1.75 0,0.85 0.05,1.7 0.05,0.85 0.15,1.75 0.05,0.85 0.15,1.7 0.05,0.85 0.1,1.7 0.1,0.85 0.2,1.7 0.1,0.85 0.2,1.7 0.15,0.85 0.3,1.7 0.15,0.85 0.3,1.7 0.1,0.8 0.25,1.65 0.2,0.85 0.4,1.7 0.15,0.8 0.35,1.65 0.2,0.8 0.4,1.65 0.5,1.95 1.05,3.95 0.9,3.25 2.35,6.65 1.35,3.15 3.05,6.35 0.95,1.7 2,3.4 0.75,1.3 1.6,2.55 0.8,1.1 1.7,2.15 1.25,1.25 2.65,2.45 1.25,1.05 2.65,1.95 1.2,0.7 2.55,1.25 1.65,0.6 3.4,0.85 1.55,0.35 3.55,0.35 0.4,-0.05 1.2,-0.2 0.55,-0.2 1.1,-0.35 0.45,-0.2 0.95,-0.4 0.45,-0.25 0.9,-0.45 0.35,-0.25 0.75,-0.5 0.7,-0.55 1.35,-1.15 0.35,-0.3 0.6,-0.65 0.25,-0.3 0.45,-0.7 0.45,-0.7 0.75,-1.45 0.35,-0.8 0.55,-1.6 0.4,-1.85 0.15,-3.8 Q 76.95,71.7 76.9,71 76.75,69.45 76.6,67.9 76.45,66.3 76.35,64.7 76.2,63 76.1,61.3 76,59.55 75.9,57.8 75.8,54.95 75.75,52.25 75.7,49.3 75.6,46.35 q -0.05,-2.9 0.2,-5.8 0.2,-2.65 0.5,-4.95 0.35,-3.1 0.8,-6.1 0.35,-2.45 0.75,-4.8 Q 78,23 77.3,21.4 q -0.65,-1.55 -1.9,-2.5 -4.1,0.3 -8.05,0.6 -4.15,0.15 -8.25,0.15 -1.05,0 -2.05,0 -1.05,0 -2.1,0 -1.05,-0.05 -2.1,-0.05 -1.05,-0.05 -2.1,-0.1 -1.05,-0.05 -2.1,-0.1 -1.05,-0.1 -2.1,-0.15 -1.05,-0.1 -2.1,-0.15 -1.1,-0.1 -2.2,-0.2 z" />
    </g>
  </g>
</svg>
