<?xml version="1.0" encoding="UTF-8" standalone="no"?>
<!-- Created with Inkscape (http://www.inkscape.org/) -->

<svg
   width="100"
   height="100"
   viewBox="0 0 26.458333 26.458333"
   version="1.1"
   id="svg10559"
   inkscape:version="1.2.1 (9c6d41e410, 2022-07-14)"
   sodipodi:docname="PS5_Circle.svg"
   xmlns:inkscape="http://www.inkscape.org/namespaces/inkscape"
   xmlns:sodipodi="http://sodipodi.sourceforge.net/DTD/sodipodi-0.dtd"
   xmlns="http://www.w3.org/2000/svg"
   xmlns:svg="http://www.w3.org/2000/svg">
  <sodipodi:namedview
     id="namedview10561"
     pagecolor="#ffffff"
     bordercolor="#000000"
     borderopacity="0.25"
     inkscape:showpageshadow="2"
     inkscape:pageopacity="0.0"
     inkscape:pagecheckerboard="true"
     inkscape:deskcolor="#d1d1d1"
     inkscape:document-units="mm"
     showgrid="false"
     inkscape:zoom="7.319248"
     inkscape:cx="57.041379"
     inkscape:cy="62.643047"
     inkscape:window-width="2560"
     inkscape:window-height="1351"
     inkscape:window-x="2391"
     inkscape:window-y="-9"
     inkscape:window-maximized="1"
     inkscape:current-layer="layer1" />
  <defs
     id="defs10556" />
  <g
     inkscape:label="Layer 1"
     inkscape:groupmode="layer"
     id="layer1">
    <g
       id="g12533"
       style="display:inline"
       transform="matrix(0.32704986,0,0,0.32704986,-3.1233261,-3.1396786)">
      <g
         id="use12529">
        <path
           fill="#434345"
           stroke="none"
           d="m 89.95,56.5 q 0.5,-3.152148 0.5,-6.5 0,-6.273633 -1.65,-11.85 Q 86.00625,28.793555 78.55,21.4 H 78.6 Q 66.8,9.6 50,9.6 33.25,9.6 21.35,21.4 9.55,33.25 9.55,50 q 0,16.75 11.8,28.6 v 0.05 q 11.9,11.8 28.65,11.8 16.75,0 28.55,-11.8 L 78.6,78.6 Q 88.081445,69.118555 89.95,56.5 M 86.45,50 q 0,3.358789 -0.55,6.5 Q 84.069922,67.480078 75.75,75.8 65.1,86.45 50,86.45 34.9,86.45 24.2,75.8 H 24.15 Q 13.55,65.1 13.55,50 q 0,-15.1 10.6,-25.75 L 24.2,24.2 Q 34.9,13.6 50,13.6 q 15.1,0 25.75,10.65 6.225977,6.196875 8.8,13.9 1.9,5.536133 1.9,11.85 z"
           id="path10709" />
        <path
           fill="#96989d"
           stroke="none"
           d="m 85.9,56.5 q 0.55,-3.141211 0.55,-6.5 0,-6.313867 -1.9,-11.85 -2.574023,-7.703125 -8.8,-13.9 Q 65.1,13.6 50,13.6 34.9,13.6 24.2,24.2 l -0.05,0.05 Q 13.55,34.9 13.55,50 q 0,15.1 10.6,25.8 H 24.2 Q 34.9,86.45 50,86.45 65.1,86.45 75.75,75.8 84.069922,67.480078 85.9,56.5 M 83,50 q 0,3.370508 -0.6,6.5 -1.782813,9.545117 -9.05,16.85 Q 63.65,83 50,83 36.25,83 26.6,73.35 V 73.3 Q 17,63.6 17,50 17,36.3 26.6,26.6 36.3,17 50,17 q 13.6,0 23.3,9.6 h 0.05 Q 78.533594,31.783594 80.9,38.15 83,43.635937 83,50 Z"
           id="path10711" />
        <path
           fill="#e3e7ed"
           stroke="none"
           d="M 82.4,56.5 Q 83,53.370508 83,50 83,43.635937 80.9,38.15 78.533594,31.783594 73.35,26.6 H 73.3 Q 63.6,17 50,17 36.3,17 26.6,26.6 17,36.3 17,50 q 0,13.6 9.6,23.3 v 0.05 Q 36.25,83 50,83 63.65,83 73.35,73.35 80.617187,66.045117 82.4,56.5 M 71.15,28.75 q 4.280664,4.25625 6.45,9.4 2.35,5.430469 2.35,11.85 0,3.383398 -0.65,6.5 -1.760742,8.260742 -8.15,14.65 -8.8,8.8 -21.15,8.8 -12.5,0 -21.25,-8.8 Q 20,62.4 20,50 20,37.5 28.7,28.75 L 28.75,28.7 Q 37.5,20 50,20 q 12.4,0 21.15,8.75 z"
           id="path10713" />
        <path
           fill="#bcbfc4"
           stroke="none"
           d="M 77.6,38.15 Q 75.430664,33.00625 71.15,28.75 62.4,20 50,20 37.5,20 28.75,28.7 L 28.7,28.75 Q 20,37.5 20,50 q 0,12.4 8.75,21.15 8.75,8.8 21.25,8.8 12.35,0 21.15,-8.8 6.389258,-6.389258 8.15,-14.65 0.65,-3.116602 0.65,-6.5 0,-6.419531 -2.35,-11.85 m -13.65,-2.1 q 1.014258,1.014258 1.85,2.1 3.95,5.125195 3.95,11.85 0,3.469336 -1.05,6.5 -1.403906,4.132812 -4.75,7.45 -5.75,5.8 -13.95,5.8 -8.15,0 -13.95,-5.8 -5.8,-5.75 -5.8,-13.95 0,-8.15 5.8,-13.95 5.8,-5.8 13.95,-5.8 8.2,0 13.95,5.8 m 1.85,2.1 q -0.835742,-1.085742 -1.85,-2.1 -5.75,-5.8 -13.95,-5.8 -8.15,0 -13.95,5.8 -5.8,5.8 -5.8,13.95 0,8.2 5.8,13.95 5.8,5.8 13.95,5.8 8.2,0 13.95,-5.8 3.346094,-3.317188 4.75,-7.45 1.05,-3.030664 1.05,-6.5 0,-6.724805 -3.95,-11.85 z"
           id="path10715" />
      </g>
      <path
         id="use12531"
         stroke="#54565a"
         stroke-width="5"
         stroke-linejoin="round"
         stroke-linecap="round"
         fill="none"
         d="m 63.95,36.05 q 1.014258,1.014258 1.85,2.1 3.95,5.125195 3.95,11.85 0,3.469336 -1.05,6.5 -1.403906,4.132812 -4.75,7.45 -5.75,5.8 -13.95,5.8 -8.15,0 -13.95,-5.8 -5.8,-5.75 -5.8,-13.95 0,-8.15 5.8,-13.95 5.8,-5.8 13.95,-5.8 8.2,0 13.95,5.8 z" />
    </g>
  </g>
</svg>
