<?xml version="1.0" encoding="UTF-8" standalone="no"?>
<!-- Created with Inkscape (http://www.inkscape.org/) -->

<svg
   width="100"
   height="100"
   viewBox="0 0 26.458333 26.458333"
   version="1.1"
   id="svg528"
   inkscape:version="1.2.1 (9c6d41e410, 2022-07-14)"
   sodipodi:docname="XboxSeriesX_LT.svg"
   xmlns:inkscape="http://www.inkscape.org/namespaces/inkscape"
   xmlns:sodipodi="http://sodipodi.sourceforge.net/DTD/sodipodi-0.dtd"
   xmlns="http://www.w3.org/2000/svg"
   xmlns:svg="http://www.w3.org/2000/svg">
  <sodipodi:namedview
     id="namedview530"
     pagecolor="#ffffff"
     bordercolor="#000000"
     borderopacity="0.25"
     inkscape:showpageshadow="2"
     inkscape:pageopacity="0.0"
     inkscape:pagecheckerboard="true"
     inkscape:deskcolor="#d1d1d1"
     inkscape:document-units="mm"
     showgrid="false"
     inkscape:zoom="10.35098"
     inkscape:cx="76.659409"
     inkscape:cy="50.768141"
     inkscape:window-width="2560"
     inkscape:window-height="1351"
     inkscape:window-x="2391"
     inkscape:window-y="-9"
     inkscape:window-maximized="1"
     inkscape:current-layer="layer1" />
  <defs
     id="defs525" />
  <g
     inkscape:label="Layer 1"
     inkscape:groupmode="layer"
     id="layer1">
    <g
       id="g1063"
       style="display:inline"
       transform="matrix(0.31636252,0,0,0.31636252,-2.6131944,-3.1003527)">
      <g
         id="use1057">
        <path
           fill="#313131"
           stroke="none"
           d="m 84.25,37.15 v -6.4 Q 83.35,14.35 66.3,12.3 H 23.05 q -7.861523,2.350977 -6.95,14 3.55,21.25 0,44.3 -1.2,6.85 3.9,13.85 5.1,4.7 13.15,5.95 10.402148,1.635547 18.6,-1.75 8.1,-3.65 11.55,-12.05 0.45,-1.05 0.95,-2.1 5.073047,-9.650781 11.25,-13.4 6.218945,-3.70293 7.2,-8.05 0.01699,-0.075 0,-0.15 1.05,-4 1.35,-8.2 0.3,-3.65 0.2,-7.55 m -23.65,2.7 q -0.4,3.35 -1.05,6.7 -0.65,3.35 -1.5,6.65 -1.15,4.55 -2.9,9 -1.75,4.35 -4.25,8.35 -1.75,2.8 -3.65,5.5 -1.5,2.15 -3.15,4.15 -1.65,1.95 -4.15,2.65 -2.2,0.75 -4.5,0.9 -4.5,0.3 -8.4,-2.05 -4.6,-2.75 -4.5,-8.05 0.1,-3.4 0.6,-6.75 0.5,-3.6 0.8,-7.2 0.3,-3.8 0.45,-7.6 0.15,-4 0.1,-8 0,-2.55 -0.25,-5.05 -0.45,-4.9 -1.05,-9.8 -0.35,-2.8 -0.65,-5.65 -0.2,-1.6 0.75,-3.05 0.75,-1.05 3.2,-1.85 h 29.9 q 3.945312,0.921875 4.65,2.7 0.703516,1.783594 0.45,4.6 -0.201172,2.805469 -0.35,7 -0.1,3.4 -0.55,6.85 z"
           id="path683" />
        <path
           fill="#4f4f4f"
           stroke="none"
           d="M 59.55,46.55 Q 60.2,43.2 60.6,39.85 61.05,36.4 61.15,33 61.298828,28.805469 61.5,26 61.753516,23.183594 61.05,21.4 60.345312,19.621875 56.4,18.7 H 26.5 q -2.45,0.8 -3.2,1.85 -0.95,1.45 -0.75,3.05 0.3,2.85 0.65,5.65 0.6,4.9 1.05,9.8 0.25,2.5 0.25,5.05 0.05,4 -0.1,8 -0.15,3.8 -0.45,7.6 -0.3,3.6 -0.8,7.2 -0.5,3.35 -0.6,6.75 -0.1,5.3 4.5,8.05 3.9,2.35 8.4,2.05 2.3,-0.15 4.5,-0.9 2.5,-0.7 4.15,-2.65 1.65,-2 3.15,-4.15 1.9,-2.7 3.65,-5.5 2.5,-4 4.25,-8.35 1.75,-4.45 2.9,-9 0.85,-3.3 1.5,-6.65 M 53.85,25.5 v 2.9 H 49.6 V 40.35 H 46.35 V 28.4 H 42.1 V 25.5 H 53.85 M 41.6,37.35 v 3 H 32.25 V 25.5 h 3.25 v 11.85 z"
           id="path685" />
        <path
           fill="#999999"
           stroke="none"
           d="m 41.6,40.35 v -3 H 35.5 V 25.5 H 32.25 V 40.35 H 41.6 M 53.85,28.4 V 25.5 H 42.1 v 2.9 h 4.25 V 40.35 H 49.6 V 28.4 Z"
           id="path687" />
      </g>
      <path
         id="use1059"
         stroke="#626262"
         stroke-width="4"
         stroke-linejoin="round"
         stroke-linecap="round"
         fill="none"
         d="m 56.4,18.7 q 3.945312,0.921875 4.65,2.7 0.703516,1.783594 0.475,4.6 -0.226172,2.805469 -0.375,7 -0.1,3.4 -0.55,6.85 -0.4,3.35 -1.05,6.7 -0.65,3.35 -1.5,6.65 -1.15,4.55 -2.9,9 -1.75,4.35 -4.25,8.35 -1.75,2.8 -3.65,5.5 -1.5,2.15 -3.15,4.15 -1.65,1.95 -4.15,2.65 -2.2,0.75 -4.5,0.9 -4.5,0.3 -8.4,-2.05 -4.6,-2.75 -4.5,-8.05 0.1,-3.4 0.6,-6.75 0.5,-3.6 0.8,-7.2 0.3,-3.8 0.45,-7.6 0.15,-4 0.1,-8 0,-2.55 -0.25,-5.05 -0.45,-4.9 -1.05,-9.8 -0.35,-2.8 -0.65,-5.65 -0.2,-1.6 0.75,-3.05 0.75,-1.05 3.2,-1.85 z" />
      <path
         id="use1061"
         stroke="#1b1b1b"
         stroke-width="5"
         stroke-linejoin="round"
         stroke-linecap="round"
         fill="none"
         d="M 51.75,88.675 Q 59.85,85 63.3,76.6 q 0.45,-1.05 0.95,-2.1 5.073047,-9.650781 11.275,-13.375 6.193945,-3.72793 7.175,-8.075 0.01699,-0.075 0.025,-0.15 1.025,-4 1.325,-8.2 0.3,-3.65 0.2,-7.55 v -6.4 Q 83.35,14.35 66.3,12.3 H 23.05 q -7.861523,2.350977 -6.95,14 3.55,21.25 0,44.3 -1.2,6.85 3.9,13.85 5.1,4.7 13.15,5.95 10.402148,1.635547 18.6,-1.725 z" />
    </g>
  </g>
</svg>
