<?xml version="1.0" encoding="UTF-8" standalone="no"?>
<svg
   height="512"
   width="512"
   version="1.1"
   id="svg731"
   sodipodi:docname="alteration.svg"
   xmlns:inkscape="http://www.inkscape.org/namespaces/inkscape"
   xmlns:sodipodi="http://sodipodi.sourceforge.net/DTD/sodipodi-0.dtd"
   xmlns="http://www.w3.org/2000/svg"
   xmlns:svg="http://www.w3.org/2000/svg">
  <sodipodi:namedview
     id="namedview580"
     pagecolor="#505050"
     bordercolor="#ffffff"
     borderopacity="1"
     inkscape:showpageshadow="0"
     inkscape:pageopacity="0"
     inkscape:pagecheckerboard="1"
     inkscape:deskcolor="#505050"
     showgrid="false" />
  <defs
     id="defs735" />
  <g
     transform="matrix(12.322503,0,0,12.322503,256.92419,256.30806)"
     id="g729">
    <path
       d="m 17.15,-19 q 1.45,0 2.5,1.15 1,1.1 1,2.7 0,1.6 -1,2.7 -1.05,1.15 -2.5,1.15 h -0.4 -0.1 v 0.05 Q 16.6,-9.4 15.3,-8.1 13.95,-6.7 12,-6.7 h -0.05 q -0.1,0.8 -0.65,1.35 -0.5,0.5 -1.15,0.6 l 0.05,0.55 q 0,0.9 -0.65,1.55 Q 8.9,-2 8,-2 7.1,-2 6.45,-2.65 5.95,-3.15 5.85,-3.8 5.15,-4.25 4.45,-4.15 3.5,-3.95 2.55,-4.15 1.25,11 5.3,20.75 l -3.35,-3.4 -2.7,2 -2.85,-1.65 -3.15,2.95 Q -2.25,9.2 -4.1,-7.2 q -2.1,0.35 -3.15,2.05 -2.15,3.55 -4.85,0.85 2.85,1.05 4.55,-2.3 0.75,-1.75 2.75,-2 -0.85,-1.6 -2.7,-1.15 l -2.2,1 q -1.3,0.7 -2.45,0.9 0.3,-0.65 0.15,-1.35 -4.7,0.85 -6.2,-4.05 -0.3,-1.35 -1.45,-2.7 l -1.15,-2.25 q 1.6,0.25 2.3,2.45 0.35,1.8 1.45,3.55 1.65,2.65 3.5,1.8 0.9,-0.85 0,-4.2 -2.85,-0.5 -4.15,-3.8 l 2.2,1.9 q 1,0.85 1.65,0.6 0.7,-0.55 0.5,-1.45 -0.2,-1.3 -0.75,-2.55 2.15,1.45 1.7,5.8 -0.1,1.35 0.25,2.65 0.5,2.05 2.4,0.95 1.2,-0.65 0.6,-1.7 L -11,-16.3 q 1.45,-1.2 0,-3 3,1.6 1.1,3.65 0.65,1.5 2,3.05 2.4,2.15 3.4,1 0.7,-1.45 -0.95,-3.3 -1.65,-1.85 -1.55,-3.85 1,3.2 3.2,1.9 0,0.85 -0.9,1.3 1.2,1.45 1.3,3.9 0.1,1.5 0.65,1.75 1.55,-0.2 0.85,-2.35 -0.65,-1.45 -0.65,-3 0,-2.3 1.6,-3.95 1.65,-1.6 3.95,-1.6 2.3,0 3.9,1.6 0.8,0.8 1.2,1.75 l 1.1,0.25 0.55,-0.65 q 1.4,-1.4 3.4,-1.4 1.35,0 2.4,0.65 0.75,-0.4 1.6,-0.4 m -19.8,35.05 1.85,1.8 1.95,-2 -2,-3.7 -1.8,3.9"
       fill="#ffffff"
       fill-rule="evenodd"
       stroke="none"
       id="path727" />
  </g>
</svg>
