<?xml version="1.0" encoding="UTF-8"?>
<svg width="1200pt" height="1200pt" version="1.1" viewBox="0 0 1200 1200" xmlns="http://www.w3.org/2000/svg">
 <g fill="#fff">
  <path d="m658.59 378.42c0 32.359-26.234 58.594-58.594 58.594s-58.594-26.234-58.594-58.594 26.234-58.594 58.594-58.594 58.594 26.234 58.594 58.594"/>
  <path d="m600 69.188c-293.16 0-530.81 237.66-530.81 530.81s237.66 530.81 530.81 530.81 530.81-237.66 530.81-530.81-237.66-530.81-530.81-530.81zm0 808.8c-15.539 0-30.445-6.1719-41.434-17.16-10.988-10.988-17.16-25.895-17.16-41.434 0-15.539 6.1719-30.445 17.16-41.434 10.988-10.988 25.895-17.16 41.434-17.16s30.445 6.1719 41.434 17.16c10.988 10.988 17.16 25.895 17.16 41.434 0 15.539-6.1719 30.445-17.16 41.434-10.988 10.988-25.895 17.16-41.434 17.16zm66.352-307.41-2.3438 0.82031c-19.828 7.0312-40.898 9.7969-61.875 11.227-48.891 3.3516-183.8 24.797-232.24 158.46-24.848 67.699-25.277 141.95-1.2188 209.93-59.484-39.156-108.03-92.797-141.08-155.88-33.051-63.082-49.516-133.54-47.848-204.73 5.0156-225.3 189.49-407.81 414.84-410.74 63.184-0.90625 125.75 12.5 183.02 39.211 20.918 9.6758 36.633 27.918 43.102 50.039 0.23437 0.75 0.44531 1.5 0.65625 2.3438 35.109 124.83-33.023 255.45-155.02 299.32z"/>
 </g>
</svg>
