<?xml version="1.0" encoding="UTF-8"?>
<svg width="1200pt" height="1200pt" version="1.1" viewBox="0 0 1200 1200" xmlns="http://www.w3.org/2000/svg">
 <g fill="#fff">
  <path d="m1095.9 766.88c4.7344 2.5508 10.336 2.9492 15.383 1.0859 5.0469-1.8594 9.0508-5.7969 10.996-10.812 1.9414-5.0156 1.6406-10.621-0.83203-15.398-39.844-73.969-98.039-177.42-307.97-194.53 0 0-121.69-1.8281-217.97 23.438-33.895 9.1562-69.031 12.844-104.09 10.922-52.945-3.2109-116.27-20.273-140.62-79.453 0 0-31.477-80.273 28.336-136.92 21.078-19.742 48.398-31.488 77.227-33.211 39.516-2.5781 100.9 22.969 133.03 89.531 2.7461 5.5742 7.3672 10.004 13.059 12.504 5.6875 2.5 12.074 2.9141 18.039 1.168 5.9648-1.75 11.117-5.543 14.559-10.719 22.336-33.984 43.898-89.32 16.406-157.34-17.77-43.305-50.098-79.047-91.406-101.06-25.652-13.695-53.184-23.535-81.703-29.203-162.4-33.023-325.52 60-380.18 216.28-0.72656 2.0859-1.4297 4.1719-2.1328 6.2812-33.469 101.04-24.633 211.78 27.586 304.55 30.188 53.602 77.742 107.6 152.18 135.94 0 0 174.98 61.219 298.24-25.219 31.984-22.859 67.34-40.586 104.79-52.547 52.523-16.219 125.72-30.891 201.05-20.766 0 0.023437 119.39 12.117 216.02 65.484z"/>
  <path d="m354.7 932.34c56.25 13.312 169.57 28.266 272.93-46.711 0 0 127.99-87.82 254.39-77.109 0 0 118.22 5.3672 192.96 101.25 22.148 28.43-4.5469 68.531-39.375 59.203-32.414-8.6953-71.367-13.875-114.7-14.789-48.367-1.0312-96.375 8.5703-140.62 28.125-23.457 10.23-46.172 22.098-67.969 35.508-32.684 20.805-68.723 35.793-106.52 44.297-76.828 16.617-190.95 15.258-270.63-101.18-2.8516-4.1406-3.9023-9.2617-2.9062-14.191 0.99219-4.9297 3.9414-9.2461 8.1758-11.961 4.2305-2.7148 9.3828-3.5938 14.277-2.4414z"/>
 </g>
</svg>
