<?xml version="1.0" encoding="UTF-8" standalone="no"?>
<!DOCTYPE svg PUBLIC "-//W3C//DTD SVG 1.1//EN" "http://www.w3.org/Graphics/SVG/1.1/DTD/svg11.dtd">
<svg width="100%" height="100%" viewBox="0 0 1062 1062" version="1.1" xmlns="http://www.w3.org/2000/svg" xmlns:xlink="http://www.w3.org/1999/xlink" xml:space="preserve" xmlns:serif="http://www.serif.com/" style="fill-rule:evenodd;clip-rule:evenodd;stroke-linejoin:round;stroke-miterlimit:2;">
    <g transform="matrix(1,0,0,1,-69.32,-69.2105)">
        <g>
            <path d="M1095.6,572.72C1009.37,560.158 948.53,505.478 906.04,472.08C890.806,460.025 876.364,447.006 862.798,433.103C750.278,318.753 600.038,318.753 600.038,318.753C600.038,318.753 449.808,318.753 337.278,433.203C323.712,447.105 309.27,460.125 294.036,472.18C251.544,505.485 190.696,560.164 104.476,572.73C94.734,574.132 85.82,578.992 79.363,586.425C72.91,593.855 69.343,603.363 69.32,613.206C69.343,623.046 72.91,632.55 79.367,639.979C85.82,647.405 94.734,652.264 104.476,653.659C190.703,666.245 251.546,720.925 294.036,754.319C309.27,766.374 323.712,779.393 337.278,793.296C449.798,907.746 600.038,907.746 600.038,907.746C600.038,907.746 750.268,907.746 862.798,793.296C876.364,779.394 890.806,766.374 906.04,754.319C948.532,720.921 1009.38,666.241 1095.6,653.659C1105.34,652.265 1114.26,647.405 1120.71,639.979C1127.17,632.549 1130.73,623.045 1130.76,613.206C1130.73,603.362 1127.17,593.854 1120.71,586.425C1114.26,578.991 1105.34,574.132 1095.6,572.73L1095.6,572.72ZM888.83,636.658C857.314,653.924 827.564,674.232 800.002,697.291C746.072,742.346 678.532,767.9 608.282,769.83L591.782,769.83C521.536,767.9 453.992,742.346 400.062,697.291C372.5,674.232 342.75,653.924 311.234,636.658C305.593,633.584 301.25,628.576 299.004,622.556C296.758,616.533 296.758,609.908 299.004,603.884C301.25,597.865 305.594,592.857 311.234,589.782C342.746,572.52 372.492,552.216 400.039,529.149C454.109,484.028 521.829,458.485 592.229,456.657L607.463,456.657C677.861,458.485 745.583,484.028 799.653,529.149C827.2,552.215 856.946,572.52 888.458,589.782C894.126,592.813 898.509,597.786 900.802,603.786C903.099,609.79 903.15,616.419 900.951,622.458C898.752,628.493 894.451,633.536 888.834,636.657L888.83,636.658Z" style="fill:white;fill-rule:nonzero;"/>
            <path d="M694.03,613.2C694.03,665.134 651.932,707.231 599.999,707.231C548.066,707.231 505.968,665.133 505.968,613.2C505.968,561.266 548.066,519.169 599.999,519.169C651.932,519.169 694.03,561.267 694.03,613.2" style="fill:white;fill-rule:nonzero;"/>
            <path d="M641.55,86.719C630.57,75.469 615.495,69.149 599.773,69.211C584.051,69.273 569.027,75.711 558.136,87.047C545.757,100.633 539.679,118.809 541.402,137.109C544.613,179.441 560.683,219.781 587.457,252.729C590.516,256.436 595.07,258.585 599.879,258.585C604.688,258.585 609.242,256.436 612.301,252.729C639.188,219.764 655.34,179.362 658.59,136.949C660.313,118.547 654.117,100.277 641.551,86.722L641.55,86.719Z" style="fill:white;fill-rule:nonzero;"/>
            <path d="M1035.8,231.66C1034.71,215.972 1027.31,201.398 1015.28,191.273C1003.25,181.144 987.621,176.335 971.98,177.941C953.761,180.308 937.39,190.269 926.91,205.363C901.976,239.715 888.125,280.863 887.207,323.303C887.125,328.112 889.199,332.705 892.859,335.826C896.519,338.947 901.387,340.267 906.121,339.428C947.961,331.607 986.406,311.158 1016.28,280.834C1029.47,267.955 1036.57,250.08 1035.8,231.662L1035.8,231.66Z" style="fill:white;fill-rule:nonzero;"/>
            <path d="M164.2,231.66C165.294,215.976 172.7,201.406 184.727,191.281C196.758,181.156 212.379,176.343 228.02,177.941C246.247,180.316 262.622,190.273 273.114,205.363C298.044,239.715 311.887,280.863 312.794,323.303C312.876,328.112 310.802,332.705 307.142,335.826C303.482,338.947 298.614,340.267 293.88,339.428C252.036,331.607 213.595,311.158 183.72,280.834C170.532,267.955 163.435,250.08 164.197,231.662L164.2,231.66Z" style="fill:white;fill-rule:nonzero;"/>
            <path d="M641.55,1113.3C630.57,1124.55 615.495,1130.87 599.773,1130.81C584.051,1130.75 569.027,1124.31 558.136,1112.97C545.757,1099.39 539.679,1081.21 541.402,1062.91C544.613,1020.58 560.683,980.238 587.457,947.29C590.516,943.583 595.07,941.435 599.879,941.435C604.688,941.435 609.242,943.583 612.301,947.29C639.188,980.255 655.34,1020.66 658.59,1063.07C660.313,1081.47 654.117,1099.74 641.551,1113.3L641.55,1113.3Z" style="fill:white;fill-rule:nonzero;"/>
            <path d="M1035.8,968.34C1034.71,984.028 1027.31,998.602 1015.28,1008.73C1003.25,1018.86 987.621,1023.67 971.98,1022.06C953.761,1019.69 937.39,1009.73 926.91,994.637C901.976,960.285 888.125,919.137 887.207,876.697C887.125,871.888 889.199,867.295 892.859,864.174C896.519,861.053 901.387,859.733 906.121,860.572C947.961,868.393 986.406,888.842 1016.28,919.166C1029.47,932.045 1036.57,949.92 1035.8,968.338L1035.8,968.34Z" style="fill:white;fill-rule:nonzero;"/>
            <path d="M164.2,968.34C165.294,984.024 172.7,998.594 184.727,1008.72C196.758,1018.84 212.379,1023.66 228.02,1022.06C246.247,1019.68 262.622,1009.73 273.114,994.637C298.044,960.285 311.887,919.137 312.794,876.697C312.876,871.888 310.802,867.295 307.142,864.174C303.482,861.053 298.614,859.733 293.88,860.572C252.036,868.393 213.595,888.842 183.72,919.166C170.532,932.045 163.435,949.92 164.197,968.338L164.2,968.34Z" style="fill:white;fill-rule:nonzero;"/>
        </g>
    </g>
</svg>
