<?xml version="1.0" encoding="UTF-8"?>
<svg width="1200pt" height="1200pt" version="1.1" viewBox="0 0 1200 1200" xmlns="http://www.w3.org/2000/svg">
 <path d="m767.32 987.77h98.766c20.961-0.23047 41.211-7.6055 57.41-20.914 16.195-13.305 27.359-31.742 31.652-52.258 7.9922-37.266 13.688-85.969 13.688-149.11v-519.98c0.28516-12.875-4.6289-25.32-13.633-34.523-9.0039-9.207-21.34-14.395-34.215-14.395s-25.211 5.1875-34.215 14.395c-9.0039 9.2031-13.918 21.648-13.633 34.523v177.82c0.09375 6.3164-2.2539 12.426-6.5547 17.051-4.3047 4.625-10.227 7.4062-16.531 7.7695-6.4727 0.21094-12.754-2.2188-17.398-6.7344-4.6445-4.5117-7.2578-10.719-7.2344-17.195v-322.69c0-12.055-4.7891-23.613-13.312-32.133-8.5195-8.5234-20.078-13.312-32.133-13.312h-1.8516c-12.059-0.007813-23.621 4.7773-32.148 13.301-8.5273 8.5234-13.32 20.086-13.32 32.145v321.8c0.09375 6.3203-2.2578 12.43-6.5625 17.059-4.3086 4.625-10.238 7.4062-16.547 7.7617-6.4648 0.19531-12.73-2.2383-17.359-6.75-4.6328-4.5156-7.2305-10.715-7.2031-17.18v-322.69c0-12.055-4.7891-23.613-13.312-32.133-8.5195-8.5234-20.078-13.312-32.133-13.312h-6.5859c-12.055 0-23.613 4.7891-32.133 13.312-8.5234 8.5195-13.312 20.078-13.312 32.133v321.8c0.089844 6.3164-2.2656 12.426-6.5703 17.051s-10.23 7.4062-16.539 7.7695c-6.4648 0.19531-12.73-2.2383-17.359-6.75-4.6328-4.5156-7.2305-10.715-7.2031-17.18v-322.69c-0.36328-15.996-9.1055-30.621-23.02-38.516-13.918-7.8945-30.957-7.8945-44.875 0-13.914 7.8945-22.656 22.52-23.02 38.516v292.43c0.11719 25 3.7773 49.855 10.875 73.828 9 31.031 14.742 67.969 14.812 111.89 0.11328 6.3398-2.2422 12.477-6.5664 17.117-4.3242 4.6367-10.281 7.418-16.613 7.75-6.4258 0.17188-12.648-2.2617-17.258-6.7461-4.6055-4.4844-7.207-10.637-7.2109-17.066 0-57-10.57-100.01-24.773-132.07-15.305-34.57-45.141-61.172-81.867-70.312-19.898-5.0859-40.875-4.0312-60.164 3.0234-12.727 4.6289-22.609 14.859-26.801 27.734-4.1875 12.879-2.2109 26.965 5.3555 38.195 21.375 31.734 51.211 85.969 72.656 165.21 6.9883 25.945 11.641 52.465 13.898 79.242 5.8594 67.969 28.125 241.8 105.94 320.46 17.727 18.055 27.629 42.363 27.562 67.664v40.125c0 6.3398 2.5195 12.422 7.0039 16.902 4.4805 4.4844 10.562 7.0039 16.902 7.0039h398.58c6.3438 0.007813 12.43-2.5078 16.918-6.9922s7.0117-10.57 7.0117-16.914v-52.523c-0.042969-8.7617-3.6406-17.129-9.9688-23.191-6.3242-6.0586-14.84-9.2969-23.594-8.9648-2.1797 0-4.3828 0.11719-6.6328 0.11719h-96.656c-6.3203 0.089844-12.43-2.2656-17.059-6.5703-4.6289-4.3047-7.418-10.23-7.7852-16.539-0.19531-6.4453 2.2266-12.699 6.7188-17.328 4.4922-4.625 10.668-7.2383 17.117-7.2344zm-154.48 47.672h-2.5312c-8.5156 0-16.383-4.543-20.641-11.918-4.2617-7.375-4.2617-16.461 0-23.836 4.2578-7.375 12.125-11.918 20.641-11.918h2.5312c8.5156 0 16.383 4.543 20.641 11.918 4.2617 7.375 4.2617 16.461 0 23.836-4.2578 7.375-12.125 11.918-20.641 11.918z" fill="#fff"/>
</svg>
