<?xml version="1.0" encoding="UTF-8"?>
<svg width="1200pt" height="1200pt" version="1.1" viewBox="0 0 1200 1200" xmlns="http://www.w3.org/2000/svg">
 <g fill="#fff">
  <path d="m446.77 375.63h57.609c3.375 0 6.6133-1.3398 9-3.7266s3.7266-5.625 3.7266-9v-265.29c0-14.836-7.9141-28.547-20.766-35.969-12.852-7.418-28.68-7.418-41.531 0-12.852 7.4219-20.766 21.133-20.766 35.969v265.29c0 3.375 1.3398 6.6133 3.7266 9s5.625 3.7266 9 3.7266z"/>
  <path d="m577.5 375.63h57.656c7.0234-0.011718 12.715-5.7031 12.727-12.727v-265.29c0-14.836-7.9141-28.547-20.766-35.969-12.852-7.418-28.68-7.418-41.531 0-12.852 7.4219-20.766 21.133-20.766 35.969v265.29c0 7.0117 5.668 12.699 12.68 12.727z"/>
  <path d="m707.81 375.63h57.586c7.0312 0 12.738-5.6953 12.75-12.727v-265.29c0-14.836-7.9141-28.547-20.766-35.969-12.852-7.418-28.68-7.418-41.531 0-12.852 7.4219-20.766 21.133-20.766 35.969v265.29c0 3.375 1.3398 6.6133 3.7266 9s5.625 3.7266 9 3.7266z"/>
  <path d="m838.52 375.63h57.586c3.375 0 6.6133-1.3398 9-3.7266s3.7266-5.625 3.7266-9v-163.31c0-14.836-7.9141-28.547-20.766-35.969-12.852-7.418-28.68-7.418-41.531 0-12.852 7.4219-20.766 21.133-20.766 35.969v163.31c0.011718 7.0312 5.7188 12.727 12.75 12.727z"/>
  <path d="m328.8 621.09c5.0664 5.1094 11.926 8.0391 19.121 8.1602 7.1914 0.12109 14.148-2.5703 19.387-7.5039 32.18-30.281 41.953-69.305 44.906-90.234 1.2227-8.168-2.0039-16.367-8.4609-21.516-2.0156-1.5938-3.8906-3.2109-5.6719-4.8281-14.84-13.871-23.211-33.312-23.086-53.625v-88.922c0-19.016-10.145-36.586-26.613-46.094-16.469-9.5117-36.758-9.5117-53.227 0-16.469 9.5078-26.613 27.078-26.613 46.094v143.23c-0.066406 12.855 2.3906 25.598 7.2422 37.5 14.32 34.523 37.125 61.688 53.016 77.742z"/>
  <path d="m910.41 933.7h-530.46v133.17c0.035157 15.941-4.8789 31.5-14.062 44.531l-5.4609 7.7578c-2.2305 3.1523-3.2227 7.0156-2.7852 10.852 0.44141 3.8359 2.2734 7.375 5.1562 9.9414 2.8828 2.5703 6.6133 3.9883 10.473 3.9805h542.39c3.9336 0.007812 7.7305-1.4609 10.633-4.1172 2.9023-2.6602 4.7031-6.3086 5.043-10.23 0.33984-3.918-0.80469-7.8242-3.207-10.941l-1.8281-2.3438c-10.309-13.453-15.902-29.926-15.914-46.875zm-399.61 112.64c-0.3125 1.5234-0.76953 3.0156-1.3594 4.4531-0.60547 1.4375-1.332 2.8164-2.1797 4.125-0.88281 1.2969-1.8867 2.5039-3 3.6094-4.4609 4.4727-10.523 6.9844-16.84 6.9844-6.3164 0-12.379-2.5117-16.84-6.9844-1.1133-1.0938-2.1016-2.3047-2.9531-3.6094-0.91016-1.2969-1.6953-2.6797-2.3438-4.125-0.57812-1.4414-1.0352-2.9336-1.3594-4.4531-0.59766-3.0977-0.59766-6.2773 0-9.375 0.33203-1.5273 0.78516-3.0234 1.3594-4.4766 0.64453-1.4336 1.4297-2.8008 2.3438-4.0781 0.83984-1.3281 1.8281-2.5586 2.9531-3.6562 4.4727-4.457 10.527-6.957 16.84-6.957s12.367 2.5 16.84 6.957c1.125 1.1094 2.1289 2.3359 3 3.6562 0.85156 1.2891 1.5781 2.6562 2.1797 4.0781 0.58594 1.4492 1.0391 2.9453 1.3594 4.4766 0.59766 3.0977 0.59766 6.2773 0 9.375zm157.03 0c-0.32422 1.5195-0.78125 3.0117-1.3594 4.4531-0.60547 1.4375-1.332 2.8164-2.1797 4.125-0.88281 1.2969-1.8867 2.5039-3 3.6094-4.4609 4.4727-10.523 6.9844-16.84 6.9844-6.3164 0-12.379-2.5117-16.84-6.9844-1.1133-1.0938-2.1016-2.3047-2.9531-3.6094-0.87891-1.2969-1.625-2.6797-2.2266-4.125-0.58984-1.4375-1.0469-2.9297-1.3594-4.4531-0.59766-3.0977-0.59766-6.2773 0-9.375 0.32031-1.5312 0.77344-3.0273 1.3594-4.4766 0.59766-1.4336 1.3438-2.8008 2.2266-4.0781 0.83984-1.3281 1.8281-2.5586 2.9531-3.6562 4.4727-4.457 10.527-6.957 16.84-6.957s12.367 2.5 16.84 6.957c1.125 1.1094 2.1289 2.3359 3 3.6562 0.85156 1.2891 1.5781 2.6562 2.1797 4.0781 0.57422 1.4531 1.0273 2.9492 1.3594 4.4766 0.59766 3.0977 0.59766 6.2773 0 9.375zm157.03 0c-0.32422 1.5195-0.78125 3.0117-1.3594 4.4531-0.61328 1.4414-1.3555 2.8242-2.2266 4.125-0.85156 1.3047-1.8398 2.5156-2.9531 3.6094-4.4609 4.4727-10.523 6.9844-16.84 6.9844-6.3164 0-12.379-2.5117-16.84-6.9844-1.1133-1.1055-2.1172-2.3125-3-3.6094-0.84766-1.3086-1.5742-2.6875-2.1797-4.125-0.58984-1.4375-1.0469-2.9297-1.3594-4.4531-0.59766-3.0977-0.59766-6.2773 0-9.375 0.32031-1.5312 0.77344-3.0273 1.3594-4.4766 0.60156-1.4219 1.3281-2.7891 2.1797-4.0781 0.87109-1.3203 1.875-2.5469 3-3.6562 4.4727-4.457 10.527-6.957 16.84-6.957s12.367 2.5 16.84 6.957c1.125 1.0977 2.1133 2.3281 2.9531 3.6562 0.875 1.2812 1.6211 2.6484 2.2266 4.0781 0.57422 1.4531 1.0273 2.9492 1.3594 4.4766 0.59766 3.0977 0.59766 6.2773 0 9.375z"/>
  <path d="m883.59 423.3h-389.06c-7.1094-0.03125-13.938 2.7656-18.984 7.7734-5.0469 5.0039-7.8984 11.812-7.9219 18.922 0.37109 83.418-26.379 164.7-76.219 231.59-7.3945 9.6641-11.414 21.488-11.438 33.656v170.7h530.44v-435.94c-0.03125-7.0898-2.8711-13.879-7.8945-18.883-5.0234-5.0039-11.828-7.8125-18.918-7.8125z"/>
 </g>
</svg>
