<?xml version="1.0" encoding="UTF-8"?>
<svg width="1200pt" height="1200pt" version="1.1" viewBox="0 0 1200 1200" xmlns="http://www.w3.org/2000/svg">
 <g fill="#fff">
  <path d="m1075.2 164.74c-16.102 1.8125-30.82 9.9648-40.898 22.652s-14.688 28.867-12.809 44.965c1.8789 16.094 10.09 30.777 22.816 40.805 4.1875 3.2305 7.207 7.7383 8.5977 12.84 1.3945 5.1016 1.082 10.516-0.88672 15.426-1.4531 3.5625-2.9609 7.0312-4.5234 10.406-56.484 122.18-205.88 169.78-320.02 98.438-48.023-30-79.453-73.477-99.164-110.62-2.0312-3.9531-2.5547-8.5078-1.4766-12.82 1.0742-4.3125 3.6836-8.0859 7.3359-10.617 14.691-9.6211 24.516-25.117 26.953-42.508 2.4414-17.391-2.7383-34.988-14.215-48.281-11.473-13.297-28.125-20.992-45.688-21.121-17.559-0.12891-34.32 7.3281-45.988 20.453s-17.105 30.645-14.918 48.07 11.785 33.059 26.332 42.895c3.5938 2.5117 6.1367 6.2578 7.1406 10.527 1.0039 4.2695 0.39844 8.7578-1.7031 12.605-19.688 37.312-51.211 81.188-99.562 111.4-114.14 71.32-263.53 23.719-320.02-98.438-1.5625-3.375-3.0703-6.8438-4.5234-10.406-1.9688-4.9102-2.2812-10.324-0.88672-15.426 1.3906-5.1016 4.4102-9.6094 8.5977-12.84 13.355-10.598 21.66-26.301 22.898-43.305 1.2422-17.004-4.6992-33.746-16.375-46.168s-28.023-19.383-45.07-19.199c-17.047 0.1875-33.234 7.5078-44.637 20.184-11.398 12.676-16.969 29.547-15.355 46.516 1.6094 16.973 10.258 32.492 23.844 42.793 8.2969 6.3867 13.426 16.055 14.062 26.508l22.336 340.27c0.78516 12.25 4.793 24.074 11.617 34.277s16.223 18.422 27.242 23.824c69.094 33.773 215.23 87.797 442.97 87.797h1.5c228.89 0 374.41-53.906 443.16-87.656 10.992-5.4141 20.359-13.633 27.156-23.828 6.7969-10.191 10.785-22 11.562-34.227l22.359-340.45c0.64062-10.457 5.7656-20.133 14.062-26.531 14.379-10.812 23.246-27.426 24.227-45.391 0.97656-17.965-6.0312-35.445-19.152-47.758-13.121-12.309-31.012-18.191-48.879-16.07z"/>
  <path d="m1030 765.26c-83.789 35.039-225.23 75.867-429.23 75.867h-1.5c-203.91 0-345.45-40.828-429.23-75.867-9.832-4.1055-21.086-2.8242-29.742 3.3828-8.6602 6.207-13.484 16.457-12.75 27.086l6.5156 99.234c1.6016 23.684 15.359 44.844 36.352 55.922 58.031 30.75 193.31 84.633 428.91 84.867h1.5c235.55-0.23438 370.83-54.117 428.91-84.867 21.012-11.09 34.773-32.285 36.352-55.992l6.5156-99.234c0.72266-10.641-4.125-20.895-12.805-27.09-8.6797-6.1992-19.953-7.4492-29.781-3.3086z"/>
 </g>
</svg>
