<?xml version="1.0" encoding="UTF-8"?>
<svg width="1200pt" height="1200pt" version="1.1" viewBox="0 0 1200 1200" xmlns="http://www.w3.org/2000/svg">
 <g fill="#fff">
  <path d="m1069.9 143.65c27.797-20.438 19.031-64.266-14.461-72.023-43.23-10.129-87.457-15.402-131.86-15.727-148.95-0.44531-286.55 80.367-362.98 209.6-32.648 55.195-80.344 128.6-131.98 184.08-3.1289 3.3438-5.1133 7.5938-5.6719 12.141-0.55469 4.543 0.34766 9.1484 2.5781 13.148 18.344 32.918 40.746 63.406 66.68 90.75 2.8594 2.9961 6.9375 4.5078 11.055 4.0977 4.1211-0.40625 7.8242-2.6875 10.039-6.1836 5.9961-9.3125 15.473-15.836 26.312-18.109s22.137-0.10547 31.367 6.0156l80.602 53.602c9.2578 6.1914 15.699 15.781 17.938 26.691 2.2383 10.91 0.085938 22.262-5.9844 31.598-1.0508 1.6016-1.2852 3.6055-0.63672 5.4062 0.65234 1.8047 2.1094 3.1953 3.9414 3.7578 63.938 18.75 135.45 22.656 214.55 11.719 5.3945-0.78516 10.285-3.6016 13.68-7.8672 3.3906-4.2695 5.0273-9.668 4.5781-15.102-0.375-4.9688-0.67969-9.9844-0.91406-15.047 0 0-33.867-351.75 171.16-502.55z"/>
  <path d="m854.41 1143.8s145.62 9.0703 262.92-63.867c35.156-21.844 33.773-74.086-2.4609-93.938-66.234-36.305-158.51-107.3-197.72-232.92-1.4805-4.8867-4.6523-9.0859-8.9453-11.848-4.293-2.7617-9.4336-3.9023-14.492-3.2227-31.41 4.6016-63.105 6.9531-94.852 7.0312-52.539 0.375-104.82-7.2578-155.06-22.641-4.4062-1.3945-9.1484-1.3008-13.496 0.26172s-8.0625 4.5078-10.574 8.3867l-9.0703 14.062c-5.9844 9.3164-15.457 15.844-26.297 18.117-10.836 2.2734-22.133 0.10156-31.359-6.0234l-80.766-53.578c-9.2539-6.1914-15.699-15.781-17.941-26.688-2.2422-10.91-0.097656-22.262 5.9648-31.602l4.5469-7.0312c2.4922-3.875 3.5781-8.4883 3.0703-13.07-0.50781-4.5781-2.5781-8.8438-5.8594-12.078v-0.11719c-29.562-29.492-55.324-62.559-76.688-98.438-2.7422-4.6406-7.1602-8.0547-12.344-9.543-5.1836-1.4844-10.738-0.92969-15.523 1.5508-34.406 17.547-72.984 25.266-111.49 22.312-40.195-3.1406-92.695-12.469-133.03-38.086-25.102-15.914-57.328 3.75-55.758 33.539 9.8906 186.89 109.78 619.43 797.23 619.43z"/>
 </g>
</svg>
