<?xml version="1.0" encoding="UTF-8"?>
<svg width="1200pt" height="1200pt" version="1.1" viewBox="0 0 1200 1200" xmlns="http://www.w3.org/2000/svg">
 <g fill="#fff">
  <path d="m934.31 197.88c-5.957-1.0078-11.844 2.1133-14.355 7.6055-2.5117 5.4922-1.0156 11.988 3.6445 15.832 14.488 11.805 27.547 25.262 38.906 40.102 44.531 58.219 55.5 136.17 26.484 203.46-15.93 38.176-44.902 69.449-81.75 88.242-4.6016 2.3672-8.043 6.5039-9.5273 11.461-1.4844 4.957-0.89062 10.305 1.6523 14.812 22.5 39.984 40.641 89.062 48.703 148.66 0.80078 5.9609 4.582 11.102 10.031 13.645 5.4492 2.543 11.816 2.1328 16.898-1.082 68.602-43.031 161.86-128.58 165.75-276.98-0.070312 0.070313 18.656-225.61-206.44-265.76z"/>
  <path d="m276.4 221.34c4.6602-3.8438 6.1562-10.34 3.6445-15.832-2.5117-5.4922-8.3984-8.6133-14.355-7.6055-225 40.148-206.25 265.83-206.25 265.83 3.8438 148.38 97.031 233.93 165.56 276.89 5.0938 3.1875 11.461 3.5625 16.895 0.99609 5.4336-2.5625 9.1875-7.7188 9.9648-13.676 8.0625-59.625 26.203-108.68 48.703-148.66 2.5078-4.4883 3.0938-9.8008 1.625-14.727-1.4688-4.9258-4.8711-9.0508-9.4297-11.43-36.871-18.773-65.871-50.039-81.82-88.219-29.016-67.289-18.023-145.31 26.484-203.46 11.383-14.844 24.465-28.301 38.977-40.102z"/>
  <path d="m319.85 825.96h123.12c7.1758-0.019532 14.066-2.8125 19.23-7.7969 5.1641-4.9844 8.1992-11.773 8.4727-18.945l11.977-305.79c0.15234-4.4688-1.3203-8.8438-4.1484-12.309-2.8242-3.4688-6.8125-5.793-11.219-6.5469-4.4102-0.75391-8.9414 0.11719-12.758 2.4492-71.203 44.531-164.77 137.34-165.77 317.51-0.054688 8.2969 3.1914 16.273 9.0273 22.172 5.8359 5.8945 13.777 9.2266 22.074 9.2578z"/>
  <path d="m748.29 478.71c-3.8086-2.4062-8.3633-3.3398-12.812-2.625-4.4453 0.71484-8.4805 3.0273-11.344 6.5078-2.8633 3.4766-4.3555 7.8789-4.2031 12.383l9.7266 304.08c0.23047 7.2109 3.2578 14.055 8.4414 19.074 5.1836 5.0195 12.117 7.8281 19.332 7.832h122.72c8.3164-0.007813 16.285-3.3242 22.145-9.2266 5.8594-5.8984 9.125-13.891 9.0742-22.203-1.0078-177.89-92.25-270.59-163.08-315.82z"/>
  <path d="m601.5 825.96h78.469c4.5781 0.003906 8.957-1.8555 12.137-5.1484 3.1797-3.293 4.8789-7.7383 4.7148-12.312l-13.477-380.2c-0.26172-7.5039-3.4258-14.613-8.8242-19.828-5.3984-5.2148-12.613-8.1328-20.121-8.1328h-105.8c-7.5117 0-14.727 2.918-20.129 8.1328s-8.5742 12.324-8.8398 19.828l-13.383 380.3c-0.16016 4.5703 1.5469 9.0117 4.7227 12.305 3.1758 3.293 7.5547 5.1523 12.129 5.1562z"/>
  <path d="m299.32 1002.4h601.36c6.9023 0 13.523-2.7422 18.402-7.6289 4.8828-4.8828 7.6211-11.508 7.6133-18.41v-87.375c0-6.8984-2.7422-13.516-7.6211-18.395-4.8789-4.8789-11.496-7.6211-18.395-7.6211h-601.36c-6.8984 0-13.516 2.7422-18.395 7.6211-4.8789 4.8789-7.6211 11.496-7.6211 18.395v87.375c-0.007813 6.9023 2.7305 13.527 7.6133 18.41 4.8789 4.8867 11.5 7.6289 18.402 7.6289zm516.3-91.781c5.8594-0.007812 11.48 2.3164 15.625 6.457 4.1445 4.1367 6.4727 9.7539 6.4766 15.613 0.003907 5.8594-2.3242 11.477-6.4648 15.621-4.1445 4.1406-9.7617 6.4688-15.621 6.4648-5.8594-0.003906-11.477-2.332-15.613-6.4766-4.1406-4.1445-6.4648-9.7656-6.457-15.625 0-5.8477 2.3242-11.457 6.4609-15.594s9.7461-6.4609 15.594-6.4609zm-215.51 0c5.8594-0.007812 11.48 2.3164 15.625 6.457 4.1445 4.1367 6.4727 9.7539 6.4766 15.613s-2.3242 11.477-6.4648 15.621c-4.1445 4.1406-9.7617 6.4688-15.621 6.4648-5.8594-0.003906-11.477-2.332-15.613-6.4766-4.1406-4.1445-6.4648-9.7656-6.457-15.625 0-5.8281 2.3086-11.422 6.418-15.555 4.1094-4.1328 9.6914-6.4688 15.52-6.5zm-215.51 0c5.8594-0.007812 11.48 2.3164 15.625 6.457 4.1445 4.1367 6.4727 9.7539 6.4766 15.613 0.003906 5.8594-2.3242 11.477-6.4648 15.621-4.1445 4.1406-9.7617 6.4688-15.621 6.4648-5.8594-0.003906-11.477-2.332-15.613-6.4766-4.1406-4.1445-6.4648-9.7656-6.457-15.625 0-5.8281 2.3086-11.422 6.418-15.555 4.1094-4.1328 9.6914-6.4688 15.52-6.5z"/>
 </g>
</svg>
