<?xml version="1.0" encoding="UTF-8"?>
<svg width="1200pt" height="1200pt" version="1.1" viewBox="0 0 1200 1200" xmlns="http://www.w3.org/2000/svg">
 <g fill="#fff">
  <path d="m100.29 343.64h92.531c9.2188 0.007813 18.125-3.3203 25.078-9.375l178.01-155.51c8.3008-7.2461 13.055-17.738 13.031-28.758v-46.875c0-6.6211-2.6289-12.969-7.3125-17.648-4.6797-4.6836-11.027-7.3125-17.648-7.3125h-284.37c-6.6211 0-12.973 2.6289-17.66 7.3086-4.6836 4.6797-7.3164 11.031-7.3242 17.652v214.83c-0.011719 6.8125 2.6875 13.352 7.5 18.168 4.8164 4.8203 11.352 7.5273 18.164 7.5195z"/>
  <path d="m804.09 178.73 177.94 155.51c6.9531 6.0547 15.859 9.3828 25.078 9.375h92.531c6.8242 0.039062 13.383-2.6484 18.223-7.4609 4.8398-4.8125 7.5586-11.355 7.5586-18.18v-214.85c-0.019531-6.6211-2.6641-12.965-7.3594-17.637s-11.051-7.2891-17.672-7.2773h-284.37c-6.6133 0-12.953 2.625-17.633 7.293-4.6797 4.6719-7.3164 11.008-7.3281 17.621v46.875c-0.015625 11.012 4.7344 21.492 13.031 28.734z"/>
  <path d="m221.46 415.27 28.969 109.03c3.4922 13.188 11.473 24.742 22.57 32.672l29.344 20.906 87.914 46.359c11.906 6.2852 25.996 6.9141 38.414 1.7109l134.09-56.086c11.91-4.9883 24.504-8.1484 37.359-9.375 12.855 1.2266 25.449 4.3867 37.359 9.375l134.09 56.086c12.418 5.2031 26.508 4.5742 38.414-1.7109l87.914-46.359 29.227-20.906c11.098-7.9297 19.078-19.484 22.57-32.672l28.969-109.03c3.1406-11.777-0.23828-24.336-8.8594-32.953l-245.79-214.78c-4.5156-4.7188-10.621-7.5938-17.137-8.0742s-12.977 1.4688-18.137 5.4727l-88.734 68.906-88.734-68.906c-5.1523-3.9727-11.59-5.9023-18.074-5.4219-6.4883 0.48047-12.57 3.3359-17.082 8.0234l-245.79 214.78c-8.6211 8.6172-12 21.176-8.8594 32.953z"/>
  <path d="m350.77 913.17h498.47c12.867 0 23.438-11.016 23.883-24.914 2.6016-82.875 9.1875-164.2 14.906-226.31 1.2891-14.062-12.539-23.836-23.93-16.969l-50.508 27.023c-14.68 8.9648-32.988 9.5508-48.211 1.5469l-128.44-60.234c-11.574-6.0469-24.047-10.188-36.938-12.258-12.891 2.0703-25.363 6.2109-36.938 12.258l-128.44 60.234c-15.223 8.0039-33.531 7.418-48.211-1.5469l-50.508-27.023c-11.391-6.8672-25.219 2.9297-23.93 16.969 5.7188 62.109 12.305 143.44 14.906 226.31 0.44531 13.898 11.016 24.914 23.883 24.914z"/>
  <path d="m285.73 985.76-41.484 97.734c-3.6055 8.4961-2.7148 18.23 2.3711 25.934 5.0859 7.6992 13.688 12.344 22.918 12.363h660.94c9.2422 0.003907 17.867-4.6289 22.969-12.336 5.1016-7.7031 6-17.453 2.3906-25.961l-41.484-97.734c-4.543-10.715-12.145-19.855-21.852-26.281-9.7109-6.4219-21.094-9.8438-32.734-9.8359h-519.45c-11.641-0.007813-23.023 3.4141-32.734 9.8359-9.707 6.4258-17.309 15.566-21.852 26.281zm481.95 49.547c0.32812-1.5195 0.78125-3.0078 1.3594-4.4531 0.60547-1.4219 1.332-2.7852 2.1797-4.0781 0.87109-1.3203 1.875-2.5469 3-3.6562 4.4609-4.4727 10.523-6.9844 16.84-6.9844 6.3164 0 12.379 2.5117 16.84 6.9844 1.125 1.0977 2.1133 2.3281 2.9531 3.6562 0.92969 1.2695 1.7148 2.6367 2.3438 4.0781 0.58594 1.4414 1.043 2.9297 1.3594 4.4531 0.59766 3.0977 0.59766 6.2773 0 9.375-0.3125 1.5312-0.76953 3.0312-1.3594 4.4766-0.64062 1.4453-1.4258 2.8164-2.3438 4.1016-0.83984 1.3164-1.832 2.5273-2.9531 3.6094-4.4609 4.4727-10.523 6.9844-16.84 6.9844-6.3164 0-12.379-2.5117-16.84-6.9844-1.125-1.0938-2.1289-2.3047-3-3.6094-0.83594-1.3047-1.5664-2.6758-2.1797-4.1016-0.58203-1.4492-1.0352-2.9492-1.3594-4.4766-0.59766-3.0977-0.59766-6.2773 0-9.375zm-191.04 0c0.31641-1.5234 0.77344-3.0117 1.3594-4.4531 1.2266-2.8789 2.9844-5.5039 5.1797-7.7344 4.457-4.4727 10.512-6.9844 16.828-6.9844s12.371 2.5117 16.828 6.9844c2.2188 2.2148 3.9766 4.8398 5.1797 7.7344 0.58594 1.4414 1.043 2.9297 1.3594 4.4531 0.59766 3.0977 0.59766 6.2773 0 9.375-0.3125 1.5312-0.76953 3.0312-1.3594 4.4766-0.59375 1.4336-1.3242 2.8047-2.1797 4.1016-0.87109 1.3047-1.875 2.5156-3 3.6094-4.457 4.4727-10.512 6.9844-16.828 6.9844s-12.371-2.5117-16.828-6.9844c-1.1211-1.0898-2.1211-2.3008-2.9766-3.6094-0.87109-1.2891-1.6094-2.6641-2.2031-4.1016-0.58984-1.4453-1.0469-2.9453-1.3594-4.4766-0.59766-3.0977-0.59766-6.2773 0-9.375zm-191.06 0c0.31641-1.5234 0.77344-3.0117 1.3594-4.4531 0.59375-1.4375 1.3398-2.8047 2.2266-4.0781 0.83984-1.3281 1.8281-2.5586 2.9531-3.6562 4.4609-4.4727 10.523-6.9844 16.84-6.9844 6.3164 0 12.379 2.5117 16.84 6.9844 1.125 1.1094 2.1289 2.3359 3 3.6562 0.84766 1.293 1.5742 2.6562 2.1797 4.0781 0.57812 1.4453 1.0312 2.9336 1.3594 4.4531 0.59766 3.0977 0.59766 6.2773 0 9.375-0.32422 1.5273-0.77734 3.0273-1.3594 4.4766-0.61328 1.4258-1.3438 2.7969-2.1797 4.1016-0.87109 1.3047-1.875 2.5156-3 3.6094-4.4609 4.4727-10.523 6.9844-16.84 6.9844-6.3164 0-12.379-2.5117-16.84-6.9844-1.1211-1.082-2.1133-2.293-2.9531-3.6094-0.87891-1.2891-1.625-2.6641-2.2266-4.1016-0.58984-1.4453-1.0469-2.9453-1.3594-4.4766-0.59766-3.0977-0.59766-6.2773 0-9.375z"/>
 </g>
</svg>
