<?xml version="1.0" encoding="UTF-8"?>
<svg width="1200pt" height="1200pt" version="1.1" viewBox="0 0 1200 1200" xmlns="http://www.w3.org/2000/svg">
 <g fill="#fff">
  <path d="m600 276c-178.64 0-324 145.31-324 324s145.31 324 324 324 324-145.31 324-324-145.36-324-324-324zm0 467.93c-38.172 0-74.781-15.164-101.77-42.156-26.992-26.992-42.156-63.602-42.156-101.77s15.164-74.781 42.156-101.77c26.992-26.992 63.602-42.156 101.77-42.156s74.781 15.164 101.77 42.156c26.992 26.992 42.156 63.602 42.156 101.77-0.007813 38.172-15.172 74.777-42.164 101.77-26.988 26.992-63.594 42.156-101.77 42.164z"/>
  <path d="m600 69.188c-293.16 0-530.81 237.66-530.81 530.81s237.66 530.81 530.81 530.81 530.81-237.66 530.81-530.81-237.66-530.81-530.81-530.81zm-431.25 536.04c-0.30859 1.4922-0.75781 2.9492-1.3359 4.3594-0.57031 1.3984-1.2852 2.7344-2.1328 3.9844-0.85156 1.2734-1.8164 2.4648-2.8828 3.5625-4.3672 4.3281-10.258 6.7695-16.406 6.7969-1.5273-0.007813-3.0469-0.15625-4.5469-0.44531-1.4961-0.29688-2.9531-0.74609-4.3594-1.3359-1.4141-0.57031-2.7656-1.2852-4.0312-2.1328-1.25-0.86328-2.4258-1.8281-3.5156-2.8828-1.1133-1.082-2.1094-2.2734-2.9766-3.5625-0.84766-1.25-1.5625-2.5859-2.1328-3.9844-1.7695-4.2539-2.2344-8.9336-1.3359-13.453 0.30078-1.4922 0.75-2.9531 1.3359-4.3594 0.57031-1.4141 1.2852-2.7656 2.1328-4.0312 1.668-2.5625 3.8242-4.7695 6.3516-6.4922 1.2656-0.84766 2.6172-1.5625 4.0312-2.1328 1.4102-0.57813 2.8672-1.0273 4.3594-1.3359 7.6484-1.5234 15.559 0.85547 21.094 6.3516 1.0547 1.0898 2.0195 2.2656 2.8828 3.5156 0.84766 1.2656 1.5625 2.6172 2.1328 4.0312 0.58203 1.4062 1.0312 2.8672 1.3359 4.3594 0.625 3 0.625 6.0938 0 9.0938zm408.45-463.22c0.29297-1.4922 0.73047-2.9531 1.3125-4.3594 0.59375-1.4062 1.3125-2.7578 2.1562-4.0312 0.84375-1.2812 1.8281-2.4688 2.9297-3.5391 5.5039-5.4492 13.348-7.8281 20.953-6.3516 1.4922 0.30078 2.9492 0.74219 4.3594 1.3125 1.4023 0.59766 2.75 1.3125 4.0312 2.1328 6.4336 4.3359 10.305 11.578 10.336 19.336 0.003906 1.5352-0.14453 3.0664-0.44531 4.5703-0.29297 1.4844-0.73438 2.9375-1.3125 4.3359-0.59375 1.4102-1.3242 2.7617-2.1797 4.0312-0.82031 1.2773-1.7891 2.4609-2.8828 3.5156-1.0625 1.0938-2.2422 2.0703-3.5156 2.9062-1.2773 0.83594-2.625 1.5586-4.0312 2.1562-1.4062 0.58203-2.8672 1.0195-4.3594 1.3125-1.4805 0.30078-2.9883 0.44922-4.5 0.44531-6.1562-0.007812-12.059-2.4609-16.406-6.8203-1.0938-1.0625-2.0703-2.2422-2.9062-3.5156-0.83594-1.2773-1.5586-2.625-2.1562-4.0312-1.1602-2.8281-1.7656-5.8516-1.7812-8.9062-0.019531-1.5078 0.11719-3.0156 0.39844-4.5zm45.609 917.37c-0.29297 1.4922-0.73047 2.9531-1.3125 4.3594-0.59375 1.4102-1.3242 2.7617-2.1797 4.0312-0.82031 1.2773-1.7891 2.4609-2.8828 3.5156-4.3438 4.3672-10.246 6.832-16.406 6.8438-1.5352-0.003906-3.0664-0.16016-4.5703-0.46875-1.4883-0.29297-2.9414-0.73828-4.3359-1.3359-1.4141-0.57812-2.7656-1.3008-4.0312-2.1562-1.2773-0.82031-2.4609-1.7891-3.5156-2.8828-4.3633-4.3477-6.8242-10.246-6.8438-16.406 0.003907-1.5352 0.16016-3.0664 0.46875-4.5703 0.28516-1.4883 0.72266-2.9414 1.3125-4.3359 0.59375-1.4023 1.3086-2.75 2.1328-4.0312 1.707-2.5508 3.8945-4.7383 6.4453-6.4453 1.2812-0.82031 2.6289-1.5352 4.0312-2.1328 1.4023-0.57422 2.8516-1.0234 4.3359-1.3359 2.9961-0.58594 6.0742-0.58594 9.0703 0 1.4922 0.30859 2.9492 0.75781 4.3594 1.3359 1.4023 0.59375 2.75 1.3086 4.0312 2.1328 1.2461 0.82422 2.4141 1.7578 3.4922 2.7891 1.082 1.082 2.0508 2.2773 2.8828 3.5625 2.5781 3.8203 3.9492 8.3281 3.9375 12.938 0.015626 1.543-0.125 3.082-0.42187 4.5938zm-22.805-88.852c-204.3 0-370.52-166.22-370.52-370.52s166.22-370.52 370.52-370.52 370.52 166.22 370.52 370.52-166.22 370.52-370.52 370.52zm437.7-386.3c2.1562-2.1602 4.7227-3.8672 7.5469-5.0156 1.4062-0.58594 2.8672-1.0352 4.3594-1.3359 3-0.63281 6.0938-0.63281 9.0938 0 1.4922 0.30078 2.9531 0.75 4.3594 1.3359 1.4062 0.57031 2.75 1.2852 4.0078 2.1328 1.2734 0.84375 2.457 1.8086 3.5391 2.8828 1.0703 1.0781 2.0352 2.2578 2.8828 3.5156 0.83984 1.2734 1.5547 2.6211 2.1328 4.0312 0.58594 1.4023 1.0273 2.8633 1.3125 4.3594 0.89453 4.5156 0.4375 9.1953-1.3125 13.453-0.57813 1.3945-1.293 2.7305-2.1328 3.9844-0.83594 1.2852-1.8008 2.4766-2.8828 3.5625-1.0938 1.0625-2.2773 2.0273-3.5391 2.8828-2.5391 1.6836-5.3828 2.8594-8.3672 3.4688-3.0039 0.59375-6.0898 0.59375-9.0938 0-1.4961-0.29297-2.957-0.73828-4.3594-1.3359-1.4141-0.57031-2.7656-1.2852-4.0312-2.1328-1.2578-0.85156-2.4336-1.8164-3.5156-2.8828-1.082-1.0859-2.0469-2.2773-2.8828-3.5625-0.84766-1.25-1.5625-2.5859-2.1328-3.9844-1.1758-2.8242-1.7891-5.8477-1.8047-8.9062 0.019531-6.168 2.4688-12.078 6.8203-16.453z"/>
 </g>
</svg>
