<?xml version="1.0" encoding="UTF-8"?>
<svg width="1200pt" height="1200pt" version="1.1" viewBox="0 0 1200 1200" xmlns="http://www.w3.org/2000/svg">
 <g fill="#fff">
  <path d="m206.25 815.95c9.1211 2.6719 18.941 1.4375 27.121-3.4062 8.1797-4.8398 13.98-12.859 16.027-22.141 42.188-188.44 206.95-333.96 206.95-333.96s145.52-164.7 333.96-206.95c9.3203-2.0195 17.379-7.8281 22.246-16.031 4.8633-8.207 6.0938-18.062 3.3945-27.211-15.797-52.828-62.227-140.88-194.53-116.16 0 0-161.41 34.734-328.97 202.27s-202.27 328.97-202.27 328.97c-24.727 132.4 63.328 178.83 116.06 194.62z"/>
  <path d="m98.438 962.34c81.75 140.62 248.74 205.73 406.36 165.73 59.508-15.117 116.04-40.453 166.62-69.047 12.844-6.8438 25.195-14.18 35.93-20.906 3.8789-2.4297 6.7461-6.1836 8.0703-10.562 1.3242-4.3789 1.0195-9.0898-0.85937-13.262-1.8828-4.1758-5.207-7.5234-9.3672-9.4336-18.469-8.5078-48.938-27.516-70.031-52.406-74.062-86.719-63.938-164.65-51.703-213 3.2109-12.609-12.797-21.305-21.469-11.602-28.57 31.992-38.859 71.672-42.398 100.34-1.4727 12.508-6.3398 24.371-14.066 34.316-7.7305 9.9414-18.027 17.582-29.785 22.098-180.94 68.297-323.86 0.25781-386.18-39.984-4.1328-2.7461-9.1836-3.7461-14.051-2.7734-4.8633 0.96875-9.1484 3.832-11.91 7.9531-2.7578 4.1211-3.7734 9.1719-2.8203 14.039 6.9492 34.715 19.68 68.012 37.664 98.508z"/>
  <path d="m1038.1 707.23c6.7266-10.734 14.062-23.086 20.906-35.93 28.594-50.578 53.906-107.11 69.047-166.62 40.008-157.62-25.172-324.61-165.73-406.24-30.477-17.969-63.75-30.691-98.438-37.641-4.8672-0.95312-9.918 0.0625-14.039 2.8203-4.1211 2.7617-6.9844 7.0469-7.9531 11.91-0.97266 4.8672 0.027344 9.918 2.7734 14.051 40.242 62.32 108.28 205.24 39.984 386.18-4.5156 11.758-12.156 22.055-22.098 29.785-9.9453 7.7266-21.809 12.594-34.316 14.066-28.664 3.5391-68.344 13.828-100.34 42.398-9.7031 8.6719-1.0078 24.68 11.602 21.469 48.352-12.234 126.35-22.359 213 51.703 24.797 21.094 43.898 51.68 52.406 70.008 1.9336 4.1289 5.2891 7.418 9.4531 9.2695 4.1641 1.8555 8.8555 2.1406 13.219 0.8125 4.3594-1.3281 8.0938-4.1836 10.516-8.043z"/>
  <path d="m922.95 922.95c32.691-32.691 51.059-77.035 51.059-123.27s-18.367-90.574-51.059-123.27c-32.695-32.695-77.035-51.062-123.27-51.062s-90.574 18.367-123.27 51.062c-32.691 32.691-51.059 77.031-51.059 123.27s18.367 90.578 51.059 123.27c21.637 21.637 48.59 37.199 78.148 45.121 29.559 7.918 60.684 7.918 90.242 0 29.559-7.9219 56.512-23.484 78.148-45.121zm-242.48-110.88c-4.25-4.25-6.6328-10.016-6.6328-16.027 0-6.0078 2.3906-11.773 6.6406-16.02 4.25-4.25 10.012-6.6367 16.023-6.6367 6.0117 0 11.773 2.3867 16.023 6.6367 4.25 4.2461 6.6406 10.012 6.6406 16.02 0 6.0117-2.3828 11.777-6.6328 16.027-4.25 4.2539-10.02 6.6445-16.031 6.6445-6.0117 0-11.781-2.3906-16.031-6.6445zm92.016 104.77c-35.156-12.117-56.977-38.133-66.281-51.562-3.2344-4.6484-2.5039-10.98 1.7109-14.766l14.883-13.359c3.0625-2.7812 7.3594-3.7422 11.312-2.5273 3.9531 1.2109 6.9766 4.4141 7.9531 8.4336 5.9062 26.039 23.438 47.484 38.039 61.57 2.4375 2.4297 2.875 6.2188 1.0547 9.1406-1.8203 2.918-5.418 4.1914-8.6719 3.0703z"/>
 </g>
</svg>
