<?xml version="1.0" encoding="UTF-8"?>
<svg width="1200pt" height="1200pt" version="1.1" viewBox="0 0 1200 1200" xmlns="http://www.w3.org/2000/svg">
 <g fill="#fff">
  <path d="m750.87 56.086h-161.13c-7.8984-0.003907-15.422 3.3633-20.68 9.2539-5.2578 5.8906-7.7539 13.742-6.8594 21.59 7.0312 60.82 25.359 204.35 59.883 365.46 0 0 44.531 177.47-3.2578 296.84-2.1953 5.5977-2.3672 11.785-0.48437 17.492 1.8828 5.7109 5.7031 10.582 10.797 13.773 15.258 9.75 33.516 22.477 42.656 30.68 14.371 13.133 27.039 28.016 37.711 44.297 18.914 28.406 73.711 94.125 173.23 90.352 28.172-1.1562 56.387-0.027343 84.375 3.375 5.332 0.64844 10.645-1.3594 14.219-5.3672 3.5781-4.0117 4.9609-9.5195 3.7109-14.742-4.4062-18.492-9.375-37.711-15-57.492-8.3633-29.477-15.102-59.387-20.18-89.602-3.1992-18.262-12.867-34.758-27.234-46.477-39.539-33.023-72.875-72.836-98.438-117.56-32.566-56.719-49.625-121.02-49.453-186.42v-351.56c-0.007812-6.3281-2.5195-12.395-6.9922-16.871-4.4727-4.4766-10.539-7-16.867-7.0117z"/>
  <path d="m307.29 977.58c4.5703 5.1094 9.6094 10.289 15.234 15.516 37.008 34.5 52.734 86.414 58.594 134.32 0.60937 4.543 2.8438 8.707 6.293 11.727 3.4492 3.0156 7.875 4.6797 12.457 4.6797h120.45c5.2852 0.019532 10.34-2.1641 13.945-6.0312 3.6055-3.8672 5.4297-9.0625 5.0391-14.336-3.375-42.938-14.719-90.75-45.398-119.32-31.078-28.945-48.938-57.773-59.086-82.781-1.582-3.9102-4.6797-7.0156-8.582-8.6133-3.9062-1.5977-8.2891-1.5508-12.16 0.12891-31.922 14.062-65.742 27.492-100.08 39.328-5.0234 1.668-8.8672 5.7578-10.219 10.879-1.3516 5.1172-0.03125 10.574 3.5156 14.504z"/>
  <path d="m846.38 56.086c-6.3438 0-12.426 2.5195-16.914 7-4.4844 4.4844-7.0078 10.562-7.0156 16.906v351.56c-0.17578 57.02 14.668 113.08 43.031 162.54 13.992 24.312 30.488 47.09 49.219 67.969 3.8047 4.1836 9.8086 5.5742 15.066 3.4922 5.2578-2.0859 8.6758-7.2109 8.582-12.867-1.1211-102.98 17.168-205.25 53.906-301.45 1.5234-4.0312 3.0938-8.0625 4.6875-12.141 0 0 69.117-155.09 53.414-259.1-0.94922-6.6133-4.25-12.668-9.293-17.051-5.043-4.3867-11.492-6.8086-18.176-6.832z"/>
  <path d="m477.09 899.41c7.4297 19.898 21.797 44.414 49.219 69.938 42.938 40.008 57.234 103.43 60.797 156.87 0.32031 4.8047 2.4609 9.3086 5.9805 12.598 3.5234 3.2852 8.1641 5.1094 12.98 5.0977h378.09c9.0352 0.015626 17.648-3.8047 23.707-10.508 6.0547-6.7031 8.9805-15.664 8.0508-24.648-1.9688-19.547-5.25-46.453-10.547-78.75-1.3203-7.9922-5.1211-15.367-10.867-21.074-5.75-5.7109-13.148-9.4648-21.148-10.73-29.395-4.4453-59.152-6.0156-88.852-4.6875-3.2812 0-6.5625 0.1875-9.7969 0.1875-120.84 0-187.12-85.102-204.89-111.77-8.457-12.918-18.496-24.73-29.883-35.156-7.125-6.4141-14.805-12.188-22.945-17.25-5.207-3.2266-11.18-5.0039-17.301-5.1484-6.125-0.14453-12.176 1.3516-17.527 4.3281-22.219 12.328-63.281 34.805-97.242 51.562-3.418 1.6875-6.0977 4.5625-7.543 8.0898-1.4414 3.5273-1.543 7.4609-0.28516 11.059z"/>
  <path d="m313.66 1143.9c5.5508-0.015624 10.816-2.4531 14.418-6.6719 3.6055-4.2227 5.1875-9.8047 4.332-15.289-5.5547-35.414-17.719-70.945-42.445-93.984-13.102-12.09-24.945-25.48-35.344-39.961-2.3164-3.207-5.7617-5.4219-9.6406-6.207-3.8789-0.78125-7.9102-0.070312-11.289 1.9883-29.539 17.594-53.555 43.113-69.328 73.664-7.8203 15.285-13.391 31.617-16.547 48.492-1.7852 9.3477 0.6875 19.008 6.7461 26.348 6.0586 7.3438 15.07 11.602 24.59 11.621z"/>
 </g>
</svg>
