<?xml version="1.0" encoding="UTF-8"?>
<svg width="1200pt" height="1200pt" version="1.1" viewBox="0 0 1200 1200" xmlns="http://www.w3.org/2000/svg">
 <g fill="#fff">
  <path d="m725.53 467.23c0.023438-10.152-3.9883-19.895-11.156-27.082-7.1641-7.1875-16.895-11.23-27.047-11.238h-191.06c-14.383 0-28.18 5.7148-38.348 15.887-10.172 10.168-15.887 23.965-15.887 38.348v133.27c0 14.383 5.7148 28.18 15.887 38.348 10.168 10.172 23.965 15.887 38.348 15.887h191.06c10.133 0 19.848-4.0234 27.016-11.188 7.1641-7.168 11.188-16.883 11.188-27.016v-6.1875c0-4.4141-1.7539-8.6445-4.875-11.766s-7.3516-4.875-11.766-4.875h-179.95c-5.7227 0.007813-11.215-2.2617-15.262-6.3086-4.0508-4.043-6.3242-9.5312-6.3242-15.254v-76.477c0-5.7266 2.2734-11.215 6.3242-15.262 4.0469-4.0508 9.5352-6.3242 15.262-6.3242h179.95c4.4141 0 8.6445-1.7539 11.766-4.875s4.875-7.3516 4.875-11.766z"/>
  <path d="m641.95 524.39h59.508c13.293 0 24.07 13.293 24.07 24.07v2.6953c0 13.293-10.777 24.07-24.07 24.07h-59.508c-13.293 0-24.07-13.293-24.07-24.07v-2.6953c0-13.293 10.777-24.07 24.07-24.07z"/>
  <path d="m89.883 637.5h270.77c8.9375 0 17.512-3.5508 23.832-9.8711 6.3203-6.3203 9.8711-14.895 9.8711-23.832v-124.76c0-4.5156-1.7969-8.8477-4.9922-12.039-3.1953-3.1914-7.5312-4.9844-12.047-4.9766h-287.44c-8.9258 0.019531-17.48 3.5781-23.785 9.8945-6.3047 6.3203-9.8477 14.883-9.8477 23.809v108.16c0.023438 8.9102 3.5781 17.449 9.8789 23.746 6.3047 6.2969 14.844 9.8438 23.754 9.8633z"/>
  <path d="m1129.9 633.47c1.5 3.0586 4.9141 4.6836 8.2344 3.918 3.3203-0.76562 5.6797-3.7188 5.6875-7.1289v-151.22c0-4.5117-1.793-8.8398-4.9844-12.031-3.1914-3.1914-7.5195-4.9844-12.031-4.9844h-156.19c-5.4141-0.20313-10.258 3.3281-11.723 8.5391-1.4688 5.2148 0.83203 10.754 5.5586 13.398 54.781 33.168 104.28 74.371 146.84 122.23 7.3672 8.2422 13.621 17.414 18.609 27.281z"/>
  <path d="m789.38 465.16c-3.957-0.82422-8.0781 0.17578-11.215 2.7266-3.1367 2.5508-4.957 6.3789-4.957 10.422v147.66c-0.015625 6.5195 4.6641 12.102 11.086 13.219 29.039 4.9688 108.91 19.43 170.6 102 26.086 34.898 76.945 39.445 111.12 12.445 17.211-13.656 28.02-33.816 29.867-55.711 1.8516-21.891-5.418-43.578-20.094-59.93-54.047-60.352-150.14-143.84-286.41-172.83zm101.06 117.56c-0.30078 1.5312-0.74609 3.0312-1.3359 4.4766-0.61719 1.4336-1.3555 2.8125-2.2031 4.125-0.875 1.2969-1.8711 2.5039-2.9766 3.6094-1.0898 1.1172-2.2969 2.1094-3.6094 2.9531-1.2969 0.91016-2.6797 1.6953-4.125 2.3438-1.4453 0.57422-2.9336 1.0312-4.4531 1.3594-7.0117 1.3906-14.273-0.4375-19.797-4.9766-5.5195-4.5391-8.7148-11.312-8.7031-18.461 0.039063-6.3281 2.5664-12.391 7.0312-16.875 1.1172-1.0977 2.332-2.0859 3.6328-2.9531 1.293-0.85938 2.668-1.5898 4.1016-2.1797 1.4414-0.58594 2.9297-1.043 4.4531-1.3594 4.625-0.92969 9.4258-0.45312 13.781 1.3594 1.4414 0.59375 2.8203 1.3242 4.125 2.1797 1.2891 0.875 2.4961 1.8633 3.6094 2.9531 4.4648 4.4844 6.9922 10.547 7.0312 16.875-0.027344 1.5391-0.21484 3.0703-0.5625 4.5703zm108.21 82.172c-0.29688 1.5352-0.75 3.0352-1.3594 4.4766-0.59375 1.4336-1.3242 2.8047-2.1797 4.1016-0.86328 1.3047-1.8594 2.5156-2.9766 3.6094-4.4688 4.4727-10.531 6.9883-16.852 6.9883s-12.383-2.5156-16.852-6.9883c-1.1016-1.1016-2.0898-2.3125-2.9531-3.6094-0.87109-1.2852-1.6016-2.6602-2.1797-4.1016-0.60938-1.4414-1.0625-2.9414-1.3594-4.4766-0.66797-3.0898-0.66797-6.2852 0-9.375 0.29688-1.5352 0.75-3.0352 1.3594-4.4766 0.57031-1.4453 1.3008-2.8203 2.1797-4.1016 0.87109-1.3047 1.8594-2.5273 2.9531-3.6562 4.4688-4.4727 10.531-6.9883 16.852-6.9883s12.383 2.5156 16.852 6.9883c1.1055 1.1211 2.1016 2.3438 2.9766 3.6562 0.85938 1.293 1.5898 2.668 2.1797 4.1016 0.60938 1.4414 1.0625 2.9414 1.3594 4.4766 0.63672 3.0938 0.63672 6.2812 0 9.375z"/>
 </g>
</svg>
