<?xml version="1.0" encoding="UTF-8"?>
<svg width="1200pt" height="1200pt" version="1.1" viewBox="0 0 1200 1200" xmlns="http://www.w3.org/2000/svg">
 <g fill="#fff">
  <path d="m350.25 678.87c13.961 18.289 26.395 37.699 37.172 58.031 8.082 15.508 17.043 30.539 26.836 45.023 8.7109 13.043 23.41 20.816 39.094 20.672 47.625-1.3125 72-75.656 72-75.656 42.844-155.32-78.68-235.15-117.63-256.29-27.152-14.375-48.867-37.219-61.852-65.062-5.875-13.109-9.9219-26.969-12.023-41.18-1.3203-9.0039-5.8359-17.234-12.719-23.191-6.8828-5.9531-15.68-9.2344-24.781-9.2461h-0.16406c-8.8008-0.023438-17.336 3.0273-24.133 8.625-6.793 5.5938-11.422 13.387-13.086 22.031-3.2891 18.359-5.2422 36.93-5.8359 55.57-2.7305 73.633 17.93 146.23 59.016 207.4 13.641 20.414 27.234 39.023 38.109 53.273z"/>
  <path d="m943.15 519.05c0-12.543-4.9844-24.574-13.852-33.445-8.8711-8.8672-20.902-13.852-33.445-13.852h-328.66c-9.3008-0.023438-17.926 4.8516-22.703 12.832-4.7812 7.9805-5.0039 17.887-0.59375 26.074 17.109 31.359 39.492 106.5 40.781 175.78 1.1016 60.469-19.148 117.98-71.367 148.5-10.93 6.4023-22.574 11.508-34.688 15.211-6.6289 1.7109-12.102 6.375-14.848 12.645-2.7461 6.2734-2.457 13.457 0.78516 19.488 12.867 26.703 30.215 51.008 51.281 71.859 12.488 12.16 29.234 18.957 46.664 18.938h266.6c27.707 0 53.336-14.691 67.336-38.602 30.75-52.906 46.871-113.04 46.711-174.23z"/>
  <path d="m909.77 349.22h-402.96c-13.398 0-25.777 7.1484-32.477 18.75-6.6992 11.602-6.6992 25.898 0 37.5 6.6992 11.602 19.078 18.75 32.477 18.75h402.96c13.398 0 25.777-7.1484 32.477-18.75s6.6992-25.898 0-37.5-19.078-18.75-32.477-18.75z"/>
  <path d="m539.67 301.45c3.375 0 6.6133-1.3398 9-3.7266 2.3867-2.3867 3.7266-5.625 3.7266-9v-191.11c0-14.836-7.9141-28.547-20.766-35.969-12.852-7.418-28.68-7.418-41.531 0-12.852 7.4219-20.766 21.133-20.766 35.969v191.11c0 7.0273 5.6992 12.727 12.727 12.727z"/>
  <path d="m670.8 301.45c3.375 0 6.6133-1.3398 9-3.7266 2.3867-2.3867 3.7266-5.625 3.7266-9v-191.11c0-14.836-7.9141-28.547-20.766-35.969-12.852-7.418-28.68-7.418-41.531 0-12.852 7.4219-20.766 21.133-20.766 35.969v191.11c0 7.0273 5.6992 12.727 12.727 12.727z"/>
  <path d="m802.64 301.45c3.375 0 6.6133-1.3398 9-3.7266 2.3867-2.3867 3.7266-5.625 3.7266-9v-191.11c0.26562-11.184-3.9922-22-11.805-30.004-7.8164-8-18.527-12.516-29.715-12.516s-21.898 4.5156-29.715 12.516c-7.8125 8.0039-12.07 18.82-11.805 30.004v191.11c0 7.0273 5.6992 12.727 12.727 12.727z"/>
  <path d="m933.77 301.45c3.375 0 6.6133-1.3398 9-3.7266 2.3867-2.3867 3.7266-5.625 3.7266-9v-109.97c0-14.836-7.9141-28.547-20.766-35.969-12.852-7.418-28.68-7.418-41.531 0-12.852 7.4219-20.766 21.133-20.766 35.969v109.97c0.011719 7.0234 5.7031 12.715 12.727 12.727z"/>
  <path d="m829.38 1020.8h-286.22c-17.207-0.054688-33.723 6.7695-45.867 18.961-21.82 22.148-35.508 49.875-43.57 71.18-2.8633 7.4766-1.8594 15.883 2.6758 22.48s12.027 10.539 20.035 10.543h415.38c7.5469 0.03125 14.684-3.4492 19.301-9.4219 4.6211-5.9688 6.1992-13.746 4.2773-21.047-6.9922-24.609-18.789-47.594-34.711-67.617-12.32-15.824-31.25-25.078-51.305-25.078z"/>
 </g>
</svg>
