<?xml version="1.0" encoding="UTF-8"?>
<svg width="1200pt" height="1200pt" version="1.1" viewBox="0 0 1200 1200" xmlns="http://www.w3.org/2000/svg">
 <g fill="#fff">
  <path d="m82.359 773.44c120.61-10.617 238.73-90.984 297.33-136.73 9.8867-7.7109 15.988-19.297 16.762-31.809 0.76953-12.516-3.8672-24.762-12.73-33.629l-114.54-114.47c-8.0273-8.0508-18.988-12.477-30.355-12.254-11.367 0.21875-22.148 5.0703-29.855 13.426-110.53 120.68-147.89 223.55-160.41 277.03-2.2188 9.8789 0.42578 20.223 7.1094 27.824 6.6875 7.6055 16.605 11.551 26.688 10.613z"/>
  <path d="m1109.7 280.1c-26.961-11.117-51.488-27.41-72.188-47.953l-48.984-49.008c-29.578-30.047-55.363-63.602-76.781-99.914-2.6523-4.4336-5.6211-8.6719-8.8828-12.68-14.227-17.25-42.188-9.6797-46.711 12.234-15.328 75.633-73.312 262.29-292.24 481.1-218.93 218.81-405.28 276.87-480.98 292.1-21.961 4.4297-29.625 32.484-12.352 46.734 4.0039 3.3008 8.2422 6.3086 12.68 9 36.32 21.457 69.875 47.281 99.914 76.898l49.008 48.984c20.543 20.699 36.836 45.227 47.953 72.188 5.1953 12.535 13.969 23.262 25.223 30.84 11.254 7.5742 24.492 11.672 38.059 11.77 95.039 0.67969 198.14-41.273 288.28-92.438 178.76-101.45 326.72-249.41 428.18-428.16 51.164-90.188 93.117-193.29 92.438-288.28-0.070312-13.59-4.1523-26.859-11.734-38.141-7.5781-11.285-18.32-20.078-30.875-25.281z"/>
  <path d="m735 48.562c-53.484 12.516-156.35 49.875-277.03 160.41-8.3555 7.707-13.207 18.488-13.426 29.855-0.22266 11.367 4.2031 22.328 12.254 30.355l114.47 114.49c8.8594 8.8711 21.102 13.512 33.617 12.75 12.516-0.76172 24.102-6.8555 31.82-16.734 45.75-58.594 126.12-176.72 136.73-297.33 0.9375-10.082-3.0078-20-10.613-26.688-7.6016-6.6836-17.945-9.3281-27.824-7.1094z"/>
 </g>
</svg>
