<?xml version="1.0" encoding="UTF-8"?>
<svg width="1200pt" height="1200pt" version="1.1" viewBox="0 0 1200 1200" xmlns="http://www.w3.org/2000/svg">
 <path d="m1028 762.47c-1.0078-1.9688-2.0625-3.9844-3.1641-6-2.4062-4.375-5.1055-8.582-8.0859-12.586-19.852-26.883-98.438-123.35-240.4-179.48-39.938-15.359-74.883-41.402-101.02-75.281-24.68-32.578-43.219-73.477-23.438-110.51 20.438-38.508 55.266-58.453 85.078-68.766 14.965-5.2734 26.98-16.668 33.043-31.332 6.0586-14.668 5.5938-31.219-1.2852-45.52-34.758-72.234-116.67-178.12-298.29-178.12 0 0-198.3-5.1797-191.04 195.54 0 0 1.5703 99.633 57.867 171.49 28.422 36.277 39.102 83.379 29.109 128.37-15.727 70.945-57.656 175.43-166.71 286.22-23.191 23.559-37.453 54.461-40.34 87.391-2.8906 32.934 5.7812 65.844 24.52 93.078 22.641 32.812 55.102 71.344 101.65 113.79 32.273 29.391 84.375 11.039 91.406-32.039 17.719-107.81 48.258-286.78 77.344-426.33 4.0312-19.242 31.242-19.969 36.281-0.96094 21.375 80.625 57.445 226.17 96.844 425.84 2.332 11.855 8.9609 22.434 18.613 29.707 9.6523 7.2695 21.648 10.723 33.688 9.6953 12.039-1.0234 23.277-6.4609 31.559-15.262 43.078-45.867 100.24-103.55 148.78-141.73 30.719-24.289 67.848-39.098 106.85-42.609l1.875-0.16406c85.734-6.9609 138.54-97.828 99.258-174.42zm-514.45-390.12c-19.383 36.867-67.383 47.18-101.7 23.438-25.641-17.648-53.344-51.562-58.312-116.39-9.375-121.88 56.367-134.27 56.367-134.27s94.852-19.242 116.84 123.73c0 0.11719 9.75 59.883-13.195 103.5z" fill="#fff"/>
</svg>
