<?xml version="1.0" encoding="UTF-8"?>
<svg width="1200pt" height="1200pt" version="1.1" viewBox="0 0 1200 1200" xmlns="http://www.w3.org/2000/svg">
 <path d="m875.79 213.82c-7.1055-10.867-17.004-19.625-28.656-25.352-11.652-5.7266-24.633-8.2148-37.578-7.2031-98.602 8.0156-142.27 60.328-142.8 60.938-5.4297 6.3828-13.812 9.4492-22.078 8.0703-8.2656-1.3789-15.203-6.9961-18.266-14.797-3.0625-7.8008-1.8047-16.637 3.3125-23.273 2.7891-3.4688 60.938-73.195 187.76-79.242 5.6172-0.24219 10.809-3.0625 14.074-7.6406 3.2656-4.5781 4.2383-10.406 2.6367-15.797-13.828-43.148-62.109-70.43-108.12-52.055-90.914 36.281-184.95 90.492-229.2 117.23-7.8477 4.7461-16.918 7.0859-26.082 6.7266-9.168-0.35938-18.027-3.3984-25.48-8.7422l-26.484-18.867c-18.309-13.039-41.746-16.543-63.062-9.4258-21.32 7.1211-37.953 24.004-44.75 45.426l-0.32812 0.98438c-39.844 138.07-156.73 329.84-211.73 415.66-18.961 29.555-13.336 69.164 13.477 91.406 21.02 17.102 43.938 31.727 68.297 43.594 6.7148 3.3047 14.574 3.3711 21.344 0.17578 6.7695-3.1914 11.715-9.2969 13.438-16.582 34.641-144.45 59.695-265.2 60.188-267.54 1.7656-8.293 7.8047-15.023 15.859-17.676 8.0547-2.6484 16.91-0.82422 23.258 4.8008 6.3477 5.6211 9.2305 14.191 7.5703 22.508-3 14.508-59.062 284.74-120.54 501.56-3.1211 20.836 3.3203 41.965 17.531 57.516 47.438 51.562 113.58 83.203 161.51 100.95 29.93 11.062 61.5-11.719 61.477-44.227-0.23438-412.03 10.148-609.12 15.633-684.38 0.64453-10.312 5.1719-20 12.668-27.113 7.4961-7.1133 17.406-11.125 27.738-11.23 10.77 0.125 21.055 4.4805 28.633 12.129 7.582 7.6523 11.844 17.977 11.867 28.746 4.1016 284.6 35.156 587.98 48.281 705.68 1.3086 13.227 8.2734 25.242 19.098 32.957 10.824 7.7109 24.457 10.367 37.387 7.2852 161.34-40.031 320.34-139.8 401.11-195.98 13.965-9.8867 23.102-25.211 25.16-42.195 2.0586-16.984-3.1562-34.051-14.355-46.984-24.82-28.547-48.75-57.234-67.453-80.016-4.6992-5.7109-11.055-9.8242-18.191-11.777-7.1328-1.9531-14.699-1.6445-21.652 0.87891-12.82 4.6875-24.609 9.0469-35.156 13.031-27.359 10.281-57.84 8.1406-83.496-5.8633-25.652-14-43.941-38.48-50.098-67.051-27.188-125.13-47.602-254.91-47.812-256.2-1.1016-6.2969 0.37109-12.773 4.0898-17.973 3.7188-5.1992 9.3711-8.6875 15.688-9.6797 6.3125-0.99609 12.762 0.58984 17.898 4.3984 5.1328 3.8047 8.5273 9.5156 9.4102 15.848 0.21094 1.2891 20.344 128.91 46.875 252.45 2.3125 11.484 8.2812 21.91 17.016 29.719 7.1953 6.3086 15.969 10.543 25.383 12.262 9.4141 1.7148 19.117 0.84766 28.078-2.5117 41.625-15.586 100.95-37.031 168.12-59.062l21.656-10.57c11.316-5.6719 19.922-15.602 23.926-27.609 4-12.012 3.0742-25.117-2.5742-36.445-71.109-143.09-175.12-306.3-231.49-391.88z" fill="#fff"/>
</svg>
