<?xml version="1.0" encoding="UTF-8"?>
<svg width="1200pt" height="1200pt" version="1.1" viewBox="0 0 1200 1200" xmlns="http://www.w3.org/2000/svg">
 <g fill="#fff">
  <path d="m535.22 72.938c-17.133 37.641-54.914 124.05-78.07 202.71-2.5 8.375-1.1875 17.43 3.5859 24.75 9.6328 14.555 30.469 40.43 71.461 69.445 8.4414 5.9453 19.164 7.625 29.02 4.5469 9.8555-3.0742 17.719-10.559 21.277-20.25 11.859-32.203 30.281-77.719 50.227-110.77 2.3945-3.957 6.8359-6.2031 11.445-5.7852 4.6055 0.41797 8.5703 3.4297 10.211 7.7539 14.062 37.031 44.531 112.5 72.656 158.98 3.2344 5.3125 7.8867 9.6133 13.438 12.418 5.5508 2.8008 11.773 3.9961 17.969 3.4492 51.562-4.5469 191.65-27.445 293.55-142.69 4.8359-5.5508 7.4375-12.699 7.3047-20.062-0.13281-7.3594-2.9961-14.41-8.0312-19.781l-32.812-35.156c-12.879-13.781-20.035-31.949-20.016-50.812v-66.234c0-7.5352-3.4258-14.66-9.3125-19.363-5.8906-4.7031-13.598-6.4688-20.945-4.8008-66.773 15.141-234.38 43.688-404.06-1.9219-5.6445-1.5234-11.645-0.99609-16.938 1.4883-5.2891 2.4844-9.5273 6.7656-11.961 12.082z"/>
  <path d="m149.48 977.72c30.82 38.156 105.66 121.34 198.19 157.2 11.449 4.4297 24.074 4.8008 35.766 1.0547 51.164-16.406 208.08-63.422 320.09-63.281 11.133-0.015625 21.863 4.168 30.047 11.719 12.941 11.816 24.293 25.266 33.773 40.008 6.4023 10.492 17.781 16.922 30.07 16.992h127.85c11.762 0.03125 22.75-5.8633 29.227-15.68 24.492-37.336 70.102-140.74-28.125-302.11-2.5273-4.1797-6.9023-6.8945-11.77-7.3125-4.8633-0.41797-9.6367 1.5156-12.84 5.2031-9.6133 11.375-20.348 21.758-32.039 30.984-5.0273 3.9062-11.41 5.6406-17.723 4.8125-6.3164-0.82813-12.035-4.1484-15.887-9.2188-3.7227-5.0898-5.3164-11.43-4.4414-17.672 0.875-6.2461 4.1484-11.902 9.1289-15.773 10.598-8.4648 20.223-18.09 28.688-28.688 17.848-22.305 31.055-47.957 38.836-75.445 18.469-63.281 46.617-169.27 63.891-279.82 0.62891-3.7734-0.16406-7.6484-2.2227-10.875-2.0586-3.2266-5.2383-5.5742-8.9258-6.5977-3.6875-1.0195-7.6211-0.64062-11.047 1.0664-58.59 29.09-122.04 47.117-187.17 53.18-2.3438 0.21094-4.6875 0.30469-7.1484 0.30469-28.215-0.10156-54.371-14.793-69.141-38.836-12.098-20.324-23.09-41.281-32.93-62.789-2.3242-4.9727-7.4102-8.0625-12.895-7.8359-5.4844 0.22266-10.297 3.7188-12.207 8.8672-0.1875 0.49219-0.375 0.98438-0.53906 1.5-10.055 26.953-32.672 47.602-60.586 53.203-1.3828 0.28125-2.7891 0.53906-4.1719 0.72656-8.4023 1.1172-15.918 5.7812-20.648 12.816-4.7305 7.0312-6.2148 15.754-4.0781 23.957 24.375 90.891 51 208.59 58.711 311.72 1.5586 20.367-5.0234 40.52-18.305 56.039-31.43 36.633-98.438 102.28-191.95 126.28-13.668 3.5039-28.168 1.4375-40.312-5.7422-15.379-8.8828-29.332-20.031-41.391-33.07-4.2188-4.7266-6.875-10.645-7.5938-16.938-0.72266-6.2969 0.52344-12.66 3.5625-18.219 7.0312-12.773 17.414-29.812 28.898-41.531 5.4453-5.4492 12.762-8.6172 20.461-8.8594 7.4297-0.25781 18.094-0.60938 29.625-0.86719 4.8398-0.066406 9.1367-3.0977 10.824-7.6328 1.6875-4.5352 0.41406-9.6406-3.207-12.852-16.523-14.766-41.859-34.219-71.391-46.219-7-2.793-14.645-3.5625-22.059-2.2148-7.4141 1.3477-14.301 4.7539-19.871 9.832-30.281 27.328-92.016 88.711-129.87 165.84-3.3516 6.8516-4.6719 14.516-3.8125 22.094 0.85938 7.5781 3.8633 14.754 8.6641 20.68z"/>
 </g>
</svg>
