<?xml version="1.0" encoding="UTF-8"?>
<svg width="1200pt" height="1200pt" version="1.1" viewBox="0 0 1200 1200" xmlns="http://www.w3.org/2000/svg">
 <g fill="#fff">
  <path d="m819.94 775.1c17.629-19.191 29.82-42.734 35.32-68.203 24.023-112.5 34.473-227.48 31.125-342.47-0.17578-4.9805-2.4414-9.6602-6.2422-12.887-3.8008-3.2305-8.7812-4.7109-13.727-4.082-128.77 16.242-213.98-32.672-255.47-65.625-3.1445-2.5156-7.0469-3.8867-11.074-3.8867s-7.9297 1.3711-11.074 3.8867c-35.766 28.547-104.18 68.883-205.1 68.883-16.824-0.019531-33.633-1.1016-50.32-3.2344-4.9375-0.60156-9.8984 0.89844-13.672 4.1367-3.7773 3.2344-6.0195 7.9102-6.1797 12.879-3.3477 114.98 7.1016 229.95 31.125 342.45 5.5039 25.469 17.695 49.012 35.32 68.203 35.789 39 105.07 105.98 192.45 149.04 17.34 8.5078 37.645 8.5078 54.984 0 87.445-43.102 156.75-110.09 192.54-149.09z"/>
  <path d="m618.54 77.766c-4.7852-5.1562-11.504-8.0898-18.539-8.0898s-13.754 2.9336-18.539 8.0898c-117.73 127.29-276.4 103.73-366.96 75-3.9258-1.2422-8.207 0.19141-10.598 3.5469-2.3867 3.3555-2.3398 7.8672 0.12109 11.172 35.414 48.117 69.188 90.234 89.062 114.38 6.6875 8.2227 16.086 13.789 26.508 15.703 172.01 30.68 258.68-69.117 262.5-73.547 4.4609-5.2734 11-8.3359 17.906-8.3906 6.9805 0.007812 13.598 3.1055 18.07 8.4609 3.6797 4.3594 90.352 104.13 262.36 73.477 10.422-1.9141 19.82-7.4805 26.508-15.703 19.781-24.141 53.555-66.258 89.062-114.38 2.4336-3.3125 2.4648-7.8125 0.078125-11.16-2.3867-3.3477-6.6523-4.7812-10.578-3.5586-90.562 28.734-249.23 52.289-366.96-75z"/>
  <path d="m563.98 972.23c-100.1-46.148-178.85-121.88-218.62-165.28-23.301-25.367-39.41-56.492-46.664-90.164-36.82-171.09-34.711-313.5-31.43-373.17 0.62109-11.273-3.0078-22.371-10.172-31.102-21.492-26.156-59.414-73.359-98.438-127.15-2.3438-3.4609-6.6914-4.9531-10.664-3.6602-3.9766 1.2969-6.6133 5.0625-6.4688 9.2383 0.75 172.83 32.484 476.48 44.531 585.7 3.1484 28.449 15.129 55.191 34.266 76.477 93.188 103.88 255.47 220.64 334.29 274.78 4.3008 2.918 9.8594 3.2305 14.457 0.80469 4.5977-2.4219 7.4844-7.1875 7.5039-12.383v-124.55c-0.003906-4.1211-1.1914-8.1562-3.4219-11.621s-5.4141-6.2188-9.1641-7.9258z"/>
  <path d="m1041.4 185.37c-39.117 53.906-77.039 100.99-98.438 127.15-7.1719 8.7266-10.809 19.824-10.195 31.102 3.2812 59.672 5.3906 202.03-31.43 373.17-7.2539 33.672-23.363 64.797-46.664 90.164-39.844 43.359-118.52 119.13-218.62 165.28-3.7305 1.7266-6.8867 4.4844-9.0977 7.9492-2.207 3.4648-3.3789 7.4883-3.3711 11.598v124.48c0.019531 5.1953 2.9062 9.9609 7.5039 12.383 4.5977 2.4258 10.156 2.1133 14.457-0.80469 78.633-54.141 241.03-170.91 334.22-274.71 19.113-21.27 31.086-47.988 34.242-76.406 12.047-109.22 43.805-412.88 44.531-585.7 0.17578-4.1914-2.4492-7.9883-6.4297-9.3008-3.9844-1.3125-8.3555 0.17969-10.703 3.6523z"/>
 </g>
</svg>
