<?xml version="1.0" encoding="UTF-8"?>
<svg width="1200pt" height="1200pt" version="1.1" viewBox="0 0 1200 1200" xmlns="http://www.w3.org/2000/svg">
 <g fill="#fff">
  <path d="m147.28 77.344-34.359 20.484c-6.4883 3.8633-11.617 9.6523-14.668 16.559-3.0547 6.9102-3.8828 14.598-2.3711 21.996 24.023 116.74 94.43 215.18 185.65 260.81 5.0312 2.5352 10.949 2.6055 16.039 0.19141 5.0898-2.4141 8.7812-7.043 10-12.543 4.9062-22.09 8.6367-44.426 11.18-66.914 0.37109-3.4297-0.25391-6.8945-1.8008-9.9805-1.5469-3.082-3.9492-5.6562-6.918-7.4102-98.625-58.594-135.94-175.38-146.23-216.4-0.86719-3.4102-3.2969-6.2109-6.5547-7.5508-3.2539-1.3398-6.9531-1.0586-9.9688 0.75391z"/>
  <path d="m213.28 541.69c4.1133 2.7188 9.1055 3.7656 13.965 2.9258 4.8555-0.84375 9.2109-3.5078 12.168-7.4492 10.891-14.922 20.199-30.941 27.773-47.789 2.7031-5.9922 3.2617-12.734 1.5781-19.09-1.6797-6.3555-5.5-11.938-10.812-15.809-38.367-28.125-112.31-88.406-160.92-166.24-1.9883-3.2109-5.1484-5.5273-8.8125-6.4531-3.6641-0.92969-7.543-0.39844-10.82 1.4805-3.2812 1.875-5.7031 4.9531-6.7578 8.582-7.4766 25.781-12.773 48.305-16.078 63.938-3.2734 15.16-0.53516 31 7.6406 44.18 40.312 64.383 118.52 120.21 151.08 141.73z"/>
  <path d="m814.97 61.219c-6.7227-4.1758-14.684-5.8945-22.531-4.8594-7.8438 1.0352-15.09 4.7539-20.5 10.531-25.5 27.469-80.531 71.391-171.94 71.391s-146.44-43.898-171.94-71.367c-5.4102-5.7773-12.656-9.4961-20.5-10.531-7.8477-1.0352-15.809 0.68359-22.531 4.8594l-115.69 71.297c-7.0117 4.3164-12.066 11.191-14.102 19.168-2.0352 7.9805-0.88672 16.438 3.2031 23.582 51.375 89.742 168.42 126.8 220.12 139.2 15.723 3.7344 32.262 1.6797 46.594-5.7891l51.094-26.555c14.887-7.7227 32.598-7.7227 47.484 0l51.094 26.555c14.332 7.4688 30.871 9.5234 46.594 5.7891 51.703-12.398 168.75-49.453 220.12-139.2 4.0898-7.1445 5.2383-15.602 3.2031-23.582-2.0352-7.9766-7.0898-14.852-14.102-19.168z"/>
  <path d="m834.73 336.73c-0.61328-4.4766-3.3398-8.3828-7.3281-10.504-3.9883-2.1211-8.75-2.1992-12.805-0.20703-34.125 16.617-74.578 27.891-99.094 33.656-13.934 3.332-28.598 1.543-41.32-5.0391l-50.555-26.109c-14.828-7.6484-32.445-7.6484-47.273 0l-50.461 26.086c-12.758 6.6016-27.465 8.3984-41.438 5.0625-24.516-5.8594-65.016-17.062-99.047-33.656-4.0547-1.9922-8.8164-1.9141-12.805 0.20703-3.9883 2.1211-6.7148 6.0273-7.3281 10.504-6.7734 53.297-32.695 199.22-120.33 295.95-4.7148 5.2344-7.3711 11.996-7.4805 19.039-0.10547 7.043 2.3438 13.883 6.8945 19.258 26.555 31.195 74.859 97.289 89.859 179.39 2.4297 13.645 11.102 25.371 23.438 31.688 34.734 17.578 109.17 52.359 188.79 71.461 35.145 8.4102 71.777 8.4102 106.92 0 79.688-19.102 154.05-53.906 188.79-71.461 12.336-6.3164 21.008-18.043 23.438-31.688 15-82.031 63.281-148.2 89.859-179.39 4.5508-5.375 7-12.215 6.8945-19.258-0.10938-7.043-2.7656-13.805-7.4805-19.039-87.445-96.844-113.46-242.65-120.14-295.95z"/>
  <path d="m1104.1 136.38c1.5117-7.3984 0.68359-15.086-2.3711-21.996-3.0508-6.9062-8.1797-12.695-14.668-16.559l-34.359-20.484c-3.0078-1.7656-6.6719-2.0195-9.8945-0.68359-3.2227 1.3359-5.6328 4.1055-6.5117 7.4805-10.359 41.016-47.602 157.78-146.23 216.4-2.9688 1.7539-5.3711 4.3281-6.918 7.4102-1.5469 3.0859-2.1719 6.5508-1.8008 9.9805 2.5352 22.484 6.2578 44.82 11.156 66.914 1.2188 5.5 4.9102 10.129 10 12.543 5.0898 2.4141 11.008 2.3438 16.039-0.19141 91.125-45.633 161.53-144.07 185.55-260.81z"/>
  <path d="m1129.4 291.84c-1.0625-3.625-3.4883-6.6953-6.7695-8.5664-3.2812-1.8672-7.1602-2.3906-10.82-1.457-3.6602 0.92969-6.8164 3.25-8.8008 6.4609-48.609 77.836-122.55 138.12-160.92 166.24-5.3047 3.8672-9.1133 9.4453-10.797 15.789-1.6797 6.3438-1.1289 13.074 1.5625 19.062 7.5742 16.848 16.883 32.867 27.773 47.789 2.957 3.9414 7.3125 6.6055 12.168 7.4492 4.8594 0.83984 9.8516-0.20703 13.965-2.9258 32.555-21.516 110.77-77.344 151.08-141.73 8.1758-13.18 10.914-29.02 7.6406-44.18-3.3047-15.633-8.6016-38.273-16.078-63.938z"/>
  <path d="m439.69 1142.4c6.5664 2.0469 13.613 1.9922 20.145-0.16016 6.5352-2.1484 12.234-6.2891 16.301-11.84 18.445-25.406 58.734-67.289 123.87-67.289s105.47 41.883 123.87 67.289c4.0664 5.5508 9.7656 9.6914 16.301 11.84 6.5312 2.1523 13.578 2.207 20.145 0.16016 65.332-19.957 127.01-50.34 182.65-89.977 4.9219-3.5078 8.1016-8.9609 8.7344-14.969 0.63281-6.0117-1.3438-12.004-5.4297-16.461-24.027-26.281-43.395-56.473-57.258-89.273-2.1484-5.0938-6.3672-9.0312-11.602-10.824-5.2305-1.7891-10.977-1.2617-15.797 1.4492-76.781 43.359-197.44 72.656-243.19 82.711-12.137 2.6719-24.707 2.6719-36.844 0-45.75-10.102-166.41-39.352-243.19-82.711-4.8203-2.7109-10.566-3.2383-15.797-1.4492-5.2344 1.793-9.4531 5.7305-11.602 10.824-13.863 32.801-33.23 62.992-57.258 89.273-4.0859 4.457-6.0625 10.449-5.4297 16.461 0.63281 6.0078 3.8125 11.461 8.7344 14.969 55.637 39.637 117.32 70.02 182.65 89.977z"/>
 </g>
</svg>
