<?xml version="1.0" encoding="UTF-8"?>
<svg width="1200pt" height="1200pt" version="1.1" viewBox="0 0 1200 1200" xmlns="http://www.w3.org/2000/svg">
 <g fill="#fff">
  <path d="m270.33 1120.3c27.531 15.453 58.57 23.574 90.141 23.578h50.648c4.5703 0.007813 8.6328-2.9102 10.082-7.2461 1.4531-4.332-0.03125-9.1094-3.6836-11.855-95.133-71.555-177.14-150.38-212.67-185.81-6.125-6.082-13.93-10.188-22.414-11.785-8.4805-1.6016-17.246-0.62109-25.164 2.8086-17.715 7.3477-34.031 17.695-48.234 30.586-5.2305 4.9492-8.3594 11.719-8.75 18.91-0.38672 7.1875 2 14.254 6.6641 19.738 40.875 48.07 115.55 94.359 163.38 121.08z"/>
  <path d="m272.3 914.86c48.703 59.391 119.7 117.42 165.05 151.88 5.4062 4.1094 12.152 6.0469 18.918 5.4336 6.7617-0.61719 13.047-3.7422 17.625-8.7578 4.5742-5.0156 7.1055-11.566 7.0977-18.355v-246.28c0.007813-20.16-8.1797-39.461-22.688-53.461l-116.11-111.7c-11.742-11.32-18.375-26.93-18.375-43.242v-48.328c-0.007812-7.0078 3.5312-13.539 9.4023-17.363 5.8711-3.8203 13.277-4.4141 19.684-1.5742l153.26 67.969c12.926 5.7188 22.57 16.98 26.227 30.633l11.531 43.008c2.4102 8.9531 7.707 16.867 15.066 22.508 7.3555 5.6445 16.371 8.707 25.645 8.7109h30.469c9.2734-0.003907 18.289-3.0664 25.645-8.7109 7.3594-5.6406 12.656-13.555 15.066-22.508l11.531-43.008c3.6797-13.719 13.398-25.016 26.414-30.703l153.26-67.969c6.4062-2.8398 13.812-2.2461 19.684 1.5742 5.8711 3.8242 9.4102 10.355 9.4023 17.363v48.328c0.042969 16.32-6.5547 31.957-18.281 43.312l-116.11 111.7c-14.488 13.984-22.68 33.254-22.688 53.391v246.35c-0.007813 6.7891 2.5234 13.34 7.0977 18.355 4.5781 5.0156 10.863 8.1406 17.625 8.7578 6.7656 0.61328 13.512-1.3242 18.918-5.4336 45.352-34.453 116.34-92.484 165.05-151.88 18.609-22.793 30.969-50.039 35.859-79.055 16.781-97.875 51.562-355.55-7.5-548.44-74.25-242.67-356.06-231.26-356.06-231.26s-281.81-11.414-356.06 231.33c-58.969 192.82-24.281 450.49-7.5 548.44 4.9023 28.992 17.262 56.211 35.859 78.984z"/>
  <path d="m995.16 939.05c-35.531 35.438-117.54 114.26-212.67 185.81-3.6523 2.7461-5.1367 7.5234-3.6836 11.855 1.4492 4.3359 5.5117 7.2539 10.082 7.2461h50.648c31.578-0.027344 62.617-8.1719 90.141-23.648 47.836-26.789 122.51-73.078 163.38-121.08 4.6641-5.4844 7.0508-12.551 6.6641-19.738-0.39062-7.1914-3.5195-13.961-8.75-18.91-14.203-12.891-30.52-23.238-48.234-30.586-7.9258-3.4219-16.695-4.3906-25.176-2.7773-8.4844 1.6133-16.285 5.7305-22.402 11.824z"/>
 </g>
</svg>
