<?xml version="1.0" encoding="UTF-8"?>
<svg width="1200pt" height="1200pt" version="1.1" viewBox="0 0 1200 1200" xmlns="http://www.w3.org/2000/svg">
 <g fill="#ffd500">
  <path d="m1130 930.45c0 15.094-12.234 27.328-27.328 27.328s-27.328-12.234-27.328-27.328 12.234-27.328 27.328-27.328 27.328 12.234 27.328 27.328"/>
  <path d="m316.59 623.47c5.7656 17.043-0.96094 34.715-15.023 39.473-14.062 4.7578-30.141-5.1992-35.906-22.246-5.7656-17.043 0.96094-34.715 15.027-39.473 14.062-4.7578 30.137 5.2031 35.902 22.246"/>
  <path d="m1019.3 75.492c-0.82031 19.172-17.508 76.453-30 139.92-0.47266 2.1914 0.74219 4.3984 2.8477 5.1719 2.1094 0.77344 4.4609-0.12109 5.5195-2.1016 21.094-37.5 74.109-100.55 114.05-137.86 1.9844-1.8555 2.6328-4.7344 1.6328-7.2578-1-2.5273-3.4414-4.1836-6.1562-4.1797h-81.258c-3.543-0.015625-6.4688 2.7656-6.6328 6.3047z"/>
  <path d="m1125 1110.4c-20.883-14.062-47.883-34.383-69.609-58.266-10.043-11.098-13.52-26.652-9.1641-40.969 2.457-8.1523 5.3789-16.156 8.7422-23.977 1.8398-4.2344 0.76953-9.1719-2.6641-12.262-3.4336-3.0898-8.4609-3.6328-12.477-1.3555-14.344 8.2266-32.156 17.789-51.844 26.977-4.5078 2.0781-9.6836 2.1719-14.262 0.25-4.5781-1.9219-8.1367-5.6758-9.8125-10.352-1.6719-4.6719-1.3047-9.8359 1.0117-14.227 30.469-57.867 88.336-162.05 147.21-234.98 3.7617-4.6992 4.7461-11.047 2.5781-16.664-7.3125-18.914-24.258-63.422-36.047-99.305-1.8711-5.7109-6.5742-10.043-12.422-11.438l-25.406-6.0234c-8.1211-1.9102-14.973-7.3281-18.707-14.789-3.7344-7.457-3.9648-16.191-0.62891-23.836l64.828-149.62c1.4766-3.3555 0.19531-7.2852-2.9766-9.125-3.1719-1.8398-7.2227-0.99609-9.3984 1.9531l-158.79 212.37c-2.9258 3.918-3.8867 8.9688-2.6016 13.688 1.2891 4.7188 4.6758 8.5859 9.1875 10.477l72.328 30.281c5.5391 2.293 10.258 6.207 13.539 11.223 3.2852 5.0156 4.9766 10.906 4.8594 16.902-0.23437 10.57-2.3438 23.438-9.375 33.914l-42.867 72.891c-2.1094 3.5898-5.2461 6.4609-9.0078 8.2383-3.7617 1.7812-7.9727 2.3906-12.086 1.7461l-41.953-6.7031c-4.3672-0.70312-8.8359-0.375-13.055 0.96094l-96.234 30.469s-2.4844-202.78 95.133-337.97c0 0 20.484-120.52 77.344-218.3 6.0703-10.43-7.4297-21.094-16.406-12.961-34.172 31.5-69.984 73.664-93.75 101.09l43.055-296.3c0.55078-3.7852-0.57031-7.6211-3.0703-10.516-2.5-2.8906-6.1367-4.5547-9.9609-4.5547h-82.828c-5.5391-0.0625-10.391 3.6914-11.719 9.0703-83.953 346.38-97.828 747.82-99.961 841.83-0.15625 5.7812 1.832 11.414 5.5781 15.82 3.7461 4.4023 8.9883 7.2656 14.719 8.0391 43.805 5.8594 90.914 3.7031 116.18 1.7578 2.0391-0.070312 3.8906 1.1875 4.5742 3.1094 0.6875 1.9219 0.050782 4.0664-1.5742 5.3047-12.398 8.7422-24.492 18.75-33.586 26.578-4.5898 3.9258-7.3125 9.6094-7.4922 15.648-0.17578 6.0391 2.2031 11.871 6.5547 16.062 28.266 26.625 67.289 27.773 84.703 26.742 5.0156-0.28906 9.4297 3.2852 10.195 8.25 4.8047 30.469 16.406 52.43 30.727 68.109 8.8867 9.7539 21.469 15.309 34.664 15.305h167.65c5.0039 0.12891 9.4844-3.082 10.969-7.8633 1.4805-4.7812-0.39453-9.9648-4.5938-12.691z"/>
  <path d="m385.48 1065.4c6.75-13.047 7.4531-28.391 1.9219-42-4.9102-12.266-9.168-24.785-12.75-37.5-1.168-4.1992 0.30859-8.6875 3.7383-11.375 3.4336-2.6875 8.1445-3.0469 11.941-0.90625 30.773 16.969 67.594 22.383 91.992 24.023 7.625 0.51953 15.145-1.9844 20.938-6.9648 5.793-4.9844 9.3945-12.047 10.023-19.66 2.0859-27.352-1.2422-55.102-4.6875-75-0.58984-3.2031 0.89453-6.4336 3.707-8.0781 2.8125-1.6406 6.3555-1.3438 8.8555 0.74219 13.07 10.754 27.43 19.832 42.75 27.023 7.5078 3.5742 16.34 2.9375 23.258-1.6758 6.918-4.6094 10.902-12.52 10.492-20.824-12.398-250.78 24.234-663.28 38.602-810.94 0.33203-3.3398-0.76562-6.6602-3.0234-9.1445-2.2539-2.4844-5.457-3.8984-8.8125-3.8867h-138.98c-3.1836-0.007813-6.2383 1.2656-8.4766 3.5312-2.2383 2.2617-3.4727 5.332-3.4297 8.5156 1.5938 103.95 0.67969 256.24-0.49219 372.91-0.1875 16.945-24.773 18.75-27.562 2.1562-22.594-136.2-52.922-305.7-65.836-377.34-1.0156-5.668-5.9609-9.7812-11.719-9.75h-49.711c-3.9453-0.003906-7.6836 1.7578-10.188 4.8047-2.5078 3.043-3.5156 7.0547-2.75 10.922 7.0312 35.156 24.891 126.26 45.516 237.7-19.5-30.164-17.977-29.695-71.32-77.695-3.3164-2.9727-5.375-7.0938-5.7656-11.531-1.9219-22.641-9.375-97.172-26.273-160.38-0.625-2.293-2.7109-3.875-5.0859-3.8672h-77.883c-1.9688-0.003906-3.7734 1.0898-4.6758 2.8398-0.90625 1.7461-0.75391 3.8555 0.38672 5.457 14.062 19.641 46.289 76.453 56.25 194.32 0.23047 2.7969 1.1992 5.4805 2.8125 7.7812 1.6094 2.2969 3.8008 4.125 6.3516 5.2969 23.297 10.664 90 45.609 139.45 115.17 27.469 152.34 56.414 325.05 69.656 443.98 0.58594 5.207-2.6055 10.098-7.6094 11.652-5 1.5586-10.406-0.65625-12.875-5.2773-19.43-36.023-47.367-86.531-75-131.88-2.7109-4.4531-8.1992-6.3594-13.086-4.5391s-7.793 6.8516-6.9297 11.992c5.2969 31.102 7.1484 67.523-4.4531 95.367 0 0-82.617-5.0156-117.68-27.539 0 0-4.9922-97.641 0-177.75 0 0-59.32-110.16-124.78-162.7v30.703s27.164 41.883 39.68 82.031c0 0 9.2109 149.58-5.4844 261.21-0.53516 4.1367 0.20313 8.3359 2.1172 12.043 1.9141 3.707 4.9102 6.7422 8.5938 8.6992 30.117 16.055 107.48 58.852 164.06 103.76 20.156 16.031 10.336 48.891-15.375 50.25-12.164 0.65625-36.234-8.4844-59.977-21.094-3.8047-1.9922-8.457-1.3008-11.52 1.707-3.0625 3.0078-3.8359 7.6484-1.9102 11.488 6.7969 13.523 13.852 28.805 17.203 39.844-40.43 30.566-84.84 55.477-132 74.039-5.2539 2.043-8.3086 7.5391-7.2695 13.078 1.0352 5.543 5.875 9.5586 11.512 9.5625h232.38c12.387-0.035156 24.262-4.9336 33.07-13.641 15.309-15.133 28.168-32.562 38.109-51.656zm83.719-542.72c12.188 0 22.055 12.727 22.055 28.453s-9.8672 28.453-22.055 28.453-22.078-12.75-22.078-28.453 9.9141-28.453 22.078-28.453z"/>
 </g>
</svg>
