<?xml version="1.0" encoding="UTF-8" standalone="no"?>
<!DOCTYPE svg PUBLIC "-//W3C//DTD SVG 1.1//EN" "http://www.w3.org/Graphics/SVG/1.1/DTD/svg11.dtd">
<svg width="100%" height="100%" viewBox="0 0 861 1065" version="1.1" xmlns="http://www.w3.org/2000/svg" xmlns:xlink="http://www.w3.org/1999/xlink" xml:space="preserve" xmlns:serif="http://www.serif.com/" style="fill-rule:evenodd;clip-rule:evenodd;stroke-linejoin:round;stroke-miterlimit:2;">
    <g transform="matrix(1,0,0,1,-169.968,-67.8448)">
        <g>
            <path d="M883.8,140.62C862.917,172.284 839.269,219.323 833.972,274.85C830.011,317.038 843.347,359.342 872.222,390.21C889.05,408.163 911.714,423.468 940.308,424.007C967.003,424.499 991.73,410.718 1007.53,389.202C1028.9,361.069 1035.68,324.475 1025.81,290.554C1020.14,270.663 1010.26,252.222 996.839,236.484C981.722,218.367 953.362,182.132 934.542,144.14C931.526,137.921 926.409,132.968 920.097,130.156C913.781,127.344 906.679,126.851 900.038,128.765C893.397,130.683 887.643,134.883 883.8,140.624L883.8,140.62Z" style="fill:rgb(255,76,0);fill-rule:nonzero;"/>
            <path d="M824.11,455.67C754.688,387.42 717.96,291.84 727.712,194.93C729.759,174.742 733.517,154.766 738.939,135.211C750.306,94.102 710.814,56.883 670.548,70.828C358.498,178.808 232.428,490.358 190.078,633.328C171.5,694.558 165.707,758.948 173.062,822.518C195.21,1005.33 314.132,1081.55 417.792,1113.14C504.956,1139.6 598.022,1138.05 685.402,1112.29C925.242,1041.56 958.922,875.064 958.922,875.064C1005.47,679.684 896.813,527.084 824.112,455.674L824.11,455.67ZM587.77,951.4C473.21,959.158 417.29,896.181 390.05,836.02C364.948,780.567 361.081,718.83 376.175,659.98C397.503,576.8 442.081,515.84 483.055,474.82C506.328,451.382 548.68,467.789 546.008,499.195C543.289,531.398 548.914,554.226 556.602,570C569.141,595.664 602.844,605.719 630.172,592.5C634.274,590.508 638.27,588.313 642.149,585.914C671.985,567.656 712.18,581.367 721.837,612.82C732.97,650.425 740.044,689.113 742.931,728.23C760.181,939.85 587.771,951.4 587.771,951.4L587.77,951.4Z" style="fill:rgb(255,76,0);fill-rule:nonzero;"/>
        </g>
    </g>
</svg>
