<?xml version="1.0" encoding="UTF-8"?>
<svg width="1200pt" height="1200pt" version="1.1" viewBox="0 0 1200 1200" xmlns="http://www.w3.org/2000/svg">
 <g fill="#ffd500">
  <path d="m867.91 350.58c0 7.0273-5.6992 12.727-12.727 12.727s-12.727-5.6992-12.727-12.727 5.6992-12.727 12.727-12.727 12.727 5.6992 12.727 12.727"/>
  <path d="m1103 349.22c-1.8867-28.777-16.797-55.121-40.5-71.551-23.699-16.434-53.602-21.152-81.211-12.824-6.1641 1.8008-12.793 1.1016-18.445-1.9453-20.508-10.852-51.891-34.641-47.625-77.508 4.6875-46.5 23.953-67.781 33.773-75.727 2.8516-2.2656 3.5039-6.332 1.5-9.375-4.5664-7.5977-7.6758-15.984-9.1641-24.727-0.71484-3.6992-3.9453-6.3789-7.7109-6.3984h-41.906c-2.2539-0.003906-4.3516 1.1445-5.5625 3.0469-1.2109 1.8984-1.3672 4.2852-0.41406 6.3281 3.1641 7.4766 4.8984 23.297-1.7812 35.461-8.7891 18.23-12.82 38.387-11.719 58.594 0.21094 3.4922-1.168 6.8906-3.7539 9.2461-2.5898 2.3555-6.1016 3.4102-9.5586 2.8711-17.648-2.8594-44.859-14.977-43.758-62.391 0 0 1.4531-28.617-12.07-46.289-3.3008-4.2812-8.4023-6.7812-13.805-6.7734h-152.88c-2.7305 0.007813-5.1367 1.7969-5.9258 4.4102-0.79297 2.6133 0.21484 5.4336 2.4805 6.957 27.117 17.883 74.578 58.594 96.398 134.37 0.79297 2.7461 2.3867 5.1914 4.5781 7.0234 2.1953 1.8359 4.8828 2.9727 7.7266 3.2656 31.617 3.2109 131.74 16.688 180.68 61.102 3.0898 2.7812 5.1445 6.5234 5.8359 10.621 0.6875 4.1016-0.03125 8.3125-2.0391 11.949-12.469 22.129-15.523 48.34-8.4688 72.742 7.0508 24.402 23.617 44.945 45.969 57.008-51.281 6.2812-78.844-23.93-92.227-47.273-1.4883-2.5195-4.5156-3.6875-7.3086-2.8164-2.793 0.87109-4.6211 3.5547-4.4102 6.4727 0.75 12.734 4.0664 25.188 9.75 36.609 1.3945 2.5 1.9453 5.3867 1.5703 8.2266-2.3438 13.523-14.789 19.359-25.008 15.188-19.773-8.0703-38.859-17.734-57.07-28.898-23.953-14.836-26.578-41.109-25.922-55.875 0.29297-6.1797-4.1641-11.57-10.289-12.445l-44.227-6.3984c-4.3125-0.63281-8.7188 0-12.68 1.8281-29.309 13.293-59.867 23.648-91.219 30.914-9.3594 2.3555-19.047 3.1445-28.664 2.3438-22.594-2.3438-36.891-23.273-32.648-45.586 2.5156-12.105 2.7695-24.574 0.75-36.773-0.66797-3.5195-3.6562-6.1289-7.2344-6.3203-3.5781-0.1875-6.8242 2.0938-7.8594 5.5234-5.6016 17.789-18.07 37.5-39.562 47.016-5.2656 2.6289-11.156 3.7383-17.016 3.2109 23.27-26.668 30.75-63.629 19.684-97.246-11.066-33.617-39.035-58.906-73.594-66.539-34.559-7.6367-70.582 3.5195-94.777 29.348-4.4062 4.6953-10.789 7.0039-17.18 6.2109-19.867-2.2891-39.078-8.4961-56.531-18.258-5.1289-3.0195-11.609-2.4453-16.125 1.4297-13.641 11.906-40.711 42.867-55.992 110.16-0.61719 2.7617-1.9688 5.3047-3.9062 7.3672-1.9375 2.0586-4.3906 3.5625-7.1094 4.3516l-31.336 9c-4.1602 1.2227-7.0195 5.0391-7.0312 9.375v42.703c-0.015625 1.5938 1.0352 3 2.5664 3.4375s3.168-0.19922 3.9961-1.5625l16.852-26.977c1.6641-2.6602 4.3203-4.543 7.3828-5.2266l41.039-9.1172c3.8672-0.86719 6.6367-4.2656 6.7031-8.2266 0.21094-10.758 2.2031-32.625 14.062-52.125 14.906-24.633 46.664-27.188 66.258-11.344 5.7969 4.9258 9.4375 11.926 10.148 19.5 1.3008 11.301 4.5273 22.297 9.5391 32.508-14.227 23.695-60.539 91.078-152.06 140.62-2.4922 1.3125-4.5586 3.3047-5.9648 5.7422s-2.0938 5.2266-1.9805 8.0391c1.0547 21.539 11.719 72.656 46.875 117.73 0 0 33.141 46.523 94.828 57.539 3.7227 0.60547 7.4062-1.2852 9.082-4.6641 1.6797-3.375 0.96094-7.4531-1.7695-10.055-19.266-18.352-46.031-50.719-51.844-93.023-1.2188-8.5391 1.7109-17.145 7.8828-23.168 6.1758-6.0195 14.855-8.7344 23.359-7.3008 5.0156 0.9375 9.8906 2.5156 14.508 4.6875 8.6094 4.0508 17.664 7.082 26.977 9.0234 18.469 3.6094 48.188 7.5469 73.758 2.3438 6.9883-1.4336 14.227 0.76172 19.242 5.8359 17.766 18 59.836 61.43 94.289 102.87 2.5508 3.082 6.9648 3.8555 10.41 1.8164 3.4414-2.0352 4.8945-6.2773 3.418-9.9961-16.102-40.453-40.43-97.031-66.609-141.61-1.707-2.9141-4.2852-5.2188-7.3711-6.5938-3.0859-1.375-6.5234-1.75-9.832-1.0703-29.648 6.0469-110.74 18.562-142.64-17.625 0 0-21.961-24.984 4.5234-49.992 19.078-17.977 55.828-32.438 75-39.117 14.23 3.7891 29.125 4.3945 43.617 1.7812 14.164-2.3281 28.594 2.2031 38.883 12.211 22.473 21.746 40.887 47.324 54.375 75.539 1.4219 3.0078 3.6211 5.5859 6.3672 7.4609 2.75 1.8789 5.9453 2.9922 9.2656 3.2266l49.875 3.6562c3.8711 0.32031 7.7461-0.59766 11.062-2.625 38.344-24 80.719-24.258 107.25-21.094 16.613 2.0781 32.566 7.8008 46.711 16.758 52.895 33.152 91.547 84.812 108.42 144.91 0.88281 3.1836 3.6602 5.4766 6.957 5.7344 3.293 0.25781 6.3984-1.5742 7.7617-4.5859 45.773-99.797 147.89-164.46 184.71-185.16 4.7031-2.0586 9.2344-4.4961 13.547-7.2891 14.18-9.1484 25.656-21.926 33.234-37.008 7.5781-15.078 10.984-31.91 9.8672-48.75zm-712.99-33.984c-9.4258 0.007813-18.469-3.7344-25.137-10.395-6.668-6.6641-10.414-15.703-10.418-25.129-0.003906-9.4258 3.7422-18.469 10.406-25.133s15.707-10.41 25.133-10.406c9.4258 0.003906 18.465 3.75 25.129 10.418 6.6602 6.668 10.402 15.711 10.395 25.137-0.007812 9.4141-3.75 18.438-10.41 25.094-6.6562 6.6523-15.684 10.391-25.098 10.391zm604.5 62.109c-9.4219 0-18.461-3.7422-25.125-10.406-6.6641-6.6641-10.406-15.703-10.406-25.125s3.7422-18.461 10.406-25.125c6.6641-6.6641 15.703-10.406 25.125-10.406 9.4219 0 18.461 3.7422 25.125 10.406 6.6641 6.6641 10.406 15.703 10.406 25.125 0.007812 9.4258-3.7344 18.465-10.398 25.133-6.668 6.6641-15.707 10.406-25.133 10.398z"/>
  <path d="m359.39 125.25c5.6953-4.2656 11.859-8.6953 18.305-13.008 14.441-9.6602 31.789-14.008 49.082-12.297 17.293 1.707 33.453 9.3711 45.723 21.672 2.4844 2.5312 5.0156 5.2266 7.5469 8.0859 2.6875 3.0508 3.9961 7.0781 3.6172 11.125-0.37891 4.0508-2.4062 7.7617-5.6133 10.266-3.2031 2.5039-7.2969 3.5742-11.316 2.9609-32.746-5.0938-65.914-6.957-99.023-5.5547-5.668 0.26172-10.844-3.207-12.754-8.5508-1.9141-5.3398-0.11328-11.305 4.4336-14.699z"/>
  <path d="m550.71 195.87c0 10.797-8.75 19.547-19.547 19.547-10.797 0-19.547-8.75-19.547-19.547 0-10.797 8.75-19.547 19.547-19.547 10.797 0 19.547 8.75 19.547 19.547"/>
  <path d="m372.56 674.13c0 9.9805-8.0898 18.07-18.07 18.07-9.9805 0-18.07-8.0898-18.07-18.07 0-9.9805 8.0898-18.07 18.07-18.07 9.9805 0 18.07 8.0898 18.07 18.07"/>
  <path d="m326.95 974.48-53.906-1.8516c-7.9922-0.28125-15.668 3.1328-20.812 9.2578-22.168 25.965-48.047 48.512-76.805 66.914-3.875 2.4766-8.9648 1.8281-12.094-1.5352-3.1328-3.3672-3.4062-8.4922-0.65625-12.176 23.062-30.984 54.398-77.836 71.555-124.05 2.0508-5.5234 7.3281-9.1797 13.219-9.1641h22.898c4.2227-0.003906 8.2227 1.8867 10.898 5.1562 8.4141 10.312 28.664 33.867 51.562 51.117 3.168 2.3984 4.4102 6.5781 3.0703 10.32-1.3438 3.7422-4.957 6.1758-8.9297 6.0156z"/>
  <path d="m147.38 1101.6c0 16.117-13.062 29.18-29.18 29.18-16.117 0-29.18-13.062-29.18-29.18 0-16.117 13.062-29.18 29.18-29.18 16.117 0 29.18 13.062 29.18 29.18"/>
  <path d="m1040.2 939.84c-2.6992-41.277-22.77-79.477-55.227-105.12-32.457-25.645-74.266-36.332-115.05-29.41-5.1328 0.88281-10.359-0.94531-13.824-4.8359-3.4648-3.8906-4.6797-9.2891-3.2148-14.289 1.0898-3.4883 2.7617-6.7695 4.9453-9.7031 18.375-25.359 104.2-27.07 169.71 4.6875 1.6523 0.83594 3.6641 0.34766 4.7539-1.1484 1.0898-1.4961 0.92969-3.5586-0.37109-4.875-12.211-12.68-28.125-29.625-42.188-45.469-2.2227-2.5273-5.4219-3.9805-8.7891-3.9844-33.156 4.25-66.828 1.8125-99.023-7.1719-2.5352 0-5.0039 0.82422-7.0312 2.3438-11.719 9.0234-60.234 45.258-124.22-0.39844-3.9648-2.8398-9.1641-3.2812-13.547-1.1484-15.797 7.6641-55.875 24.562-100.78 23.438 0 0-69.352-1.8047-99.984-0.44531-5.0234 0.23828-10.055-0.3125-14.906-1.6406-33.105-9.1172-65.473-20.734-96.82-34.758-2.4414-1.1406-5.3516-0.32031-6.8398 1.9297-1.4844 2.25-1.0977 5.2461 0.91016 7.0469 21.938 19.898 52.008 46.43 76.805 65.391 5.0625 3.875 11.391 5.7148 17.742 5.1562 7.5-0.60938 18.984-1.4766 33.117-2.3438 10.43-0.67188 20.625 3.2891 27.867 10.828 15.062 15.195 27.512 32.777 36.844 52.031 1.2852 2.8789 3.6758 5.1172 6.6328 6.2109 10.828 3.8438 49.219 27.094 79.688 49.477 3.2305 2.5273 7.832 2.2852 10.781-0.56641 2.9492-2.8477 3.3516-7.4375 0.9375-10.754-15.027-21.09-34.668-38.477-57.422-50.836-5.0234-3.125-9.3008-7.3086-12.539-12.258-3.5703-4.8945-6.543-10.199-8.8594-15.797-2.7305-6.8711-1.8125-14.656 2.4375-20.707 4.25-6.0508 11.266-9.5547 18.656-9.3164 29.531 0.9375 59.109 3.4219 84 8.5078 0 0 36.516 9.0703 56.25 37.102 2.1211 3.0312 3.1172 6.7109 2.8164 10.402-0.30469 3.6875-1.8906 7.1562-4.4805 9.8008-26.734 27.273-41.691 63.949-41.648 102.14-0.003906 4.7852-2.9609 9.0742-7.4297 10.781-36.586 14.062-105.47 18.07-216.07-54.797-4.0547-2.6914-8.9102-3.9141-13.758-3.4688-24.047 2.3438-98.438 16.078-156.3 99.023 0 0-52.242 77.344-109.1 96.797 0 0-21.094 7.4297-45.07 14.789-3.7227 1.1367-6.082 4.7969-5.5781 8.6562 0.50781 3.8594 3.7266 6.7891 7.6172 6.9297l68.133 2.3438c4.418 0.16797 8.7578-1.1992 12.281-3.8672 25.43-19.195 133.99-99.258 185.55-107.06 41.297-6.2578 117-1.0547 158.11 2.5547 4.3789 0.39844 8.4531 2.4219 11.414 5.6719 2.9648 3.2539 4.6016 7.4961 4.5938 11.895-0.007813 4.3984-1.6641 8.6328-4.6406 11.871-10.395 11.672-23.922 20.109-38.977 24.305-4.0664 1.0977-8.2578 1.6406-12.469 1.6172-14.555 0-52.805-1.8281-86.391-18.75-4.0508-1.9688-8.918-1.0195-11.93 2.3281-3.0117 3.3516-3.4414 8.2891-1.0547 12.109 10.688 16.898 26.109 36 46.875 49.219 2.8711 1.9297 6.1875 3.1016 9.6328 3.3984l64.195 4.5469c4.9375 0.35938 9.8438-1.0156 13.875-3.8906 20.016-14.297 88.5-57.938 177.87-56.742 7.4453 0.20312 14.711 2.3281 21.094 6.1641 30.711 17.836 66.863 23.891 101.71 17.031 34.848-6.8594 66.004-26.168 87.66-54.316 21.656-28.145 32.332-63.211 30.031-98.652zm-141.21 60.492c-12.602 0.007812-24.691-4.9961-33.605-13.902-8.9141-8.9102-13.922-20.996-13.926-33.598-0.003906-12.602 5.0039-24.691 13.914-33.602 8.9102-8.9102 21-13.918 33.602-13.914 12.602 0.003907 24.688 5.0117 33.598 13.926 8.9062 8.9141 13.91 21.004 13.902 33.605-0.03125 12.574-5.0469 24.621-13.949 33.5-8.9023 8.8789-20.961 13.867-33.535 13.867z"/>
  <path d="m1111 850.57c0 12.93-10.484 23.414-23.414 23.414-12.93 0-23.414-10.484-23.414-23.414 0-12.93 10.484-23.414 23.414-23.414 12.93 0 23.414 10.484 23.414 23.414"/>
 </g>
</svg>
