<?xml version="1.0" encoding="UTF-8"?>
<svg width="1200pt" height="1200pt" version="1.1" viewBox="0 0 1200 1200" xmlns="http://www.w3.org/2000/svg">
 <g fill="#ff4c00">
  <path d="m1129.7 661.71c-1.25-4.3945-3.8906-8.2695-7.5312-11.031-3.6406-2.7656-8.0781-4.2734-12.648-4.2969-3.6914 0.14453-7.3008 1.1133-10.57 2.8359-4.6406 2.8281-8.0664 7.2812-9.6094 12.492-0.79297 2.3555-1.2031 4.8242-1.2188 7.3125-1.0742 5.2617-0.19922 10.734 2.4609 15.398 2.8711 4.8867 7.5625 8.4375 13.043 9.8711 5.4844 1.4297 11.312 0.62891 16.207-2.2305 4.75-2.8633 8.2578-7.4023 9.8203-12.727 1.5508-5.7695 1.5664-11.848 0.046875-17.625z"/>
  <path d="m888.94 117.75c8.3672 10.523 17.625 21.586 29.109 28.828 13.758 8.6484 34.945-5.9531 28.828-22.125-9.375-24.867-35.766-48.516-61.992-54.516-8.3906-1.9219-18.867 5.8594-15.281 15.211 4.7969 11.766 11.312 22.75 19.336 32.602z"/>
  <path d="m183.84 911.72c-2.582-8.4883-9.4258-15.004-18.031-17.168-8.6055-2.1602-17.711 0.34375-24 6.6016-6.293 6.2617-8.8398 15.355-6.7188 23.973 0.57031 2.5 1.5781 4.8789 2.9766 7.0312 2.1562 3.6484 5.207 6.6875 8.8594 8.8359 5.6445 3.3008 12.367 4.2227 18.691 2.5664 6.3281-1.6562 11.734-5.7578 15.035-11.402 0.09375-0.22266 0.21094-0.43359 0.35156-0.63281l-0.49219 0.63281c4.0117-6.0117 5.2266-13.465 3.3281-20.438z"/>
  <path d="m848.84 1061.1c-0.93359-5.4805-4.4766-10.168-9.4922-12.562-27.281-11.719-54.75-11.906-83.859-14.32-32.016-2.6719-53.906-20.93-82.406-33.492-26.93-11.93-55.523-18.023-84.727-21.094-25.242-2.6719-55.711-6.3984-81.375-1.0547-3.5703-1.3398-7.5977-0.16406-9.8906 2.8828-4.1094 2.2891-6.875 6.4023-7.4414 11.074-0.56641 4.668 1.1367 9.3242 4.582 12.527 7.5469 22.805 46.5 32.812 64.969 43.641 34.664 20.203 52.031 59.578 90.328 74.367 35.484 13.688 75.727 5.5781 111.3-3.3984 21.094-5.3438 43.312-9.7031 63.891-16.922 17.93-6.2812 29.531-17.18 26.25-37.078-0.26953-1.6914-1.0078-3.2773-2.1328-4.5703z"/>
  <path d="m980.27 1038.1c-0.97266-2.9961-2.707-5.6875-5.0391-7.8047l-4.9219-3.7266c-3.7227-2.1836-7.9648-3.3242-12.281-3.3047h-0.60938c-4.7969-0.035156-9.5352 1.0664-13.828 3.2109l-0.51562 0.30469c-7.293 4.3125-11.789 12.129-11.859 20.602-0.011719 4.2344 1.1133 8.3945 3.2578 12.047 2.0898 3.5469 5.0508 6.5 8.6016 8.5781 1.9453 0.91406 4.125 1.875 6.1641 2.6016 1.3398 0.41016 2.7266 0.66406 4.125 0.75 1.3086 0.23438 2.6328 0.38281 3.9609 0.44531 2.418-0.10547 4.8203-0.44141 7.1719-1.0078 5.9883-1.918 11.121-5.8516 14.531-11.133l2.3438-5.7891c1.0039-3.1211 1.1484-6.457 0.42188-9.6562 0.042969-2.1367-0.48438-4.25-1.5234-6.1172z"/>
  <path d="m1050.4 756.82c-12.117 18.75-36.188 37.898-50.273 42.445-6.4922 2.1094-23.906 7.6172-30.469 2.3438-7.1953-5.9062 4.6875-24 8.2734-30.258 12.586-22.125 30.047-40.992 44.836-61.594 14.945-21.234 27.238-44.219 36.609-68.438 38.555-96.633 48.234-215.41 20.602-316.08-13.641-49.617-40.031-99.422-84.68-127.57-2.3359-1.5273-5.0508-2.3828-7.8398-2.4688-2.793-0.089844-5.5547 0.59766-7.9805 1.9766-4.4766-1.4453-9.3867-0.035157-12.414 3.5625-3.0312 3.6016-3.582 8.6797-1.3906 12.844 10.078 23.039 19.453 57.844 5.0391 81-11.578 18.562-31.711 20.25-48.445 7.1953-36.75-28.664-44.672-83.016-70.734-119.88-60.586-85.688-169.8-108.26-268.66-94.125-11.578 1.6641-22.969 3.9141-34.312 6.4219-11.461 1.7109-22.945 3.2812-34.242 5.7891-47.648 10.641-69.844 19.57-121.24 17.789-17.273-0.58594-34.547-1.5234-51.844-1.5234-32.227 0-65.297 2.7422-95.883 13.5-27.258 9.1328-51.695 25.148-70.945 46.5-10.359 11.719-19.43 24.586-30.609 35.555-11.18 10.969-22.523 16.805-36.656 21.656-2.1562-0.15625-4.3008 0.44141-6.0703 1.6875-6.2344-1.9219-13.945 3.4219-11.602 10.734 6.3984 19.898 25.781 25.594 44.883 27.281 11.109 0.96094 22.922-0.28125 33.633 3.3281 15.891 5.3438 15.562 18.75 11.32 31.594-14.574 20.414-27.82 41.75-39.656 63.867-24.727 46.047-43.305 95.137-55.266 146.02-12.848 55.27-17.586 112.12-14.062 168.75 1.2695 21.148 3.8516 42.195 7.7344 63.023 1.707 21.527 6.1953 42.742 13.359 63.117 4.3789 13.531 9.7617 26.715 16.102 39.445 5.0391 10.102 21.562 12.375 28.992 3.7266 35.555-41.344 86.391 34.594 95.531 63.727 12.773 41.297 7.5938 86.367 27.375 125.77 21.094 42.188 66.234 55.102 109.08 64.523 53.016 11.719 107.2 20.883 160.64 6.4453 20.391-5.5078 17.461-31.922 2.3438-38.602-3.5625-3.9531-8.7578-6.0234-14.062-5.6016-85.266 2.8828-122.77-72.234-148.66-141.05-13.336-36.508-29.805-71.797-49.219-105.47-27.867-47.273-27.141-112.97-21.281-131.6 8.0391-25.5 22.336-52.594 44.344-68.789-0.49219 4.0547-0.84375 8.1328-1.1016 12.211-15.422 48.422 1.8281 107.41 29.414 147.28 9.0938 13.148 27.141 10.383 32.648-4.2422 7.0312-18.398 6.3047-37.5 4.8281-56.766-1.4766-19.266-3.9141-39.328 7.6172-56.086 10.406-15.164 26.555-25.781 39.328-38.695 13.688-13.945 24-30.469 33.305-47.461 17.977-33 36.211-67.828 73.359-82.523 9.7695-3.793 20.238-5.4648 30.703-4.8984 7.6445 0.41016 14.824 3.793 20.004 9.4258 5.1836 5.6367 7.9531 13.074 7.7188 20.727-0.23828 7.6523-3.457 14.906-8.9727 20.215-50.086 49.031-77.672 118.03-80.742 188.55-2.1094 48.938 10.406 92.977 44.695 128.91 16.406 17.062 35.508 31.734 54.984 45.094 40.172 27.562 100.9 41.789 127.9 46.57 45.984 8.1094 93.938 6.6562 138.7-7.1484 46.195-14.25 85.266-41.766 121.01-73.547 32.227-28.641 60.234-63.68 61.359-108.45 0.53906-20.93-21.797-18.797-28.945-7.7344zm-826.9-42.516c-5.0391 17.297-26.039 30.82-41.086 18.75-22.945-18.258-9.8906-54.961 2.3438-68.883 11.203-12.633 36.047-6.4688 39.141 10.312 2.5078 13.102 3.4453 26.93-0.39844 39.82zm274.8-371.86c-25.781 14.836-55.102 22.383-80.812 37.5-22.828 13.312-42.023 31.5-59.367 51.234-17.648 20.133-33.047 42-48.516 63.797-15.469 21.797-30 44.531-54.047 57.633-17.203 9.375-35.836 7.2891-35.812-9.1406 0-69.211 40.523-142.41 81.656-197.37 19.922-26.648 47.086-50.016 81.891-52.125 17.438-1.0781 32.133 4.9688 47.906 11.367 17.648 7.0312 34.5 8.8359 52.992 3.8672 20.086-5.5078 32.109 22.922 14.109 33.234zm330.3 13.219c1.0312-9.6094 9.6797-15.023 18.75-10.688 7.875 3.7969 11.555 10.594 16.969 17.227 5.1328 6.2578 11.438 10.898 16.406 17.203 10.406 13.078 23.438 24.352 32.812 38.133 10.57 15.586-9.4922 30.891-23.906 23.836-15.867-7.7812-29.555-23.602-40.359-37.312-8.6953-10.922-22.195-34.125-20.672-48.398zm98.648 342.63c-9.0234 40.289-28.734 80.672-61.477 106.43-15.844 12.449-34.094 21.484-53.602 26.531-9.1133 3.7812-18.703 6.2891-28.5 7.4531-29.672 3.4922-62.32-8.0625-85.383-28.125-6.5859-4.7578-12.527-10.352-17.672-16.641-13.801-16.875-22.918-37.082-26.438-58.594-7.3125-45.609 8.3672-103.92 49.898-125.88 29.086-15.375 23.789 24.141 23.695 24.258 1.5234 8.6484 3.7031 16.781 11.719 23.18 10.523 8.3906 27.258 7.2188 37.359-1.3828 12.422-10.617 11.719-31.523 12.492-46.336 0.82422-19.383 0.042969-38.801-2.3438-58.055-9.375-75.609-60.188-136.69-74.062-210.94-2.8828-15.539 16.688-26.32 26.461-14.062 6.8438 4.4062 13.266 15.445 15.07 18.75 9.6797 18.164 20.227 35.648 31.477 52.898 21.539 33.223 46.789 63.891 75.258 91.406 28.312 27.188 53.016 53.156 65.484 91.242 9.7031 29.836 9.7031 77.039 0.5625 117.87z"/>
 </g>
</svg>
