<?xml version="1.0" encoding="UTF-8" standalone="no"?>
<!DOCTYPE svg PUBLIC "-//W3C//DTD SVG 1.1//EN" "http://www.w3.org/Graphics/SVG/1.1/DTD/svg11.dtd">
<svg width="100%" height="100%" viewBox="0 0 737 1088" version="1.1" xmlns="http://www.w3.org/2000/svg" xmlns:xlink="http://www.w3.org/1999/xlink" xml:space="preserve" xmlns:serif="http://www.serif.com/" style="fill-rule:evenodd;clip-rule:evenodd;stroke-linejoin:round;stroke-miterlimit:2;">
    <g transform="matrix(1,0,0,1,-231.924,-56.0768)">
        <path d="M937.62,622.31L790.9,496.87C775.955,484.089 765.791,466.62 762.064,447.311C758.337,428.002 761.275,408.002 770.392,390.581L918.752,107.381C924.373,96.51 923.936,83.498 917.6,73.026C911.264,62.557 899.936,56.135 887.698,56.077L568.948,56.077C557.495,56.05 546.241,59.093 536.366,64.893C526.487,70.694 518.346,79.038 512.792,89.053L237.912,585.173C231.873,596.021 230.33,608.802 233.611,620.775C236.892,632.748 244.74,642.955 255.466,649.205L455.436,766.395C461.862,770.153 469.588,770.985 476.666,768.681C483.744,766.38 489.502,761.165 492.49,754.349L549.279,624.549C552.369,617.482 553.127,609.611 551.439,602.084C549.756,594.556 545.713,587.764 539.904,582.689L473.834,524.798C468.155,519.833 464.373,513.056 463.131,505.614C461.885,498.176 463.26,490.536 467.014,483.993L564.092,314.633C567.065,309.453 571.35,305.148 576.522,302.156C581.69,299.163 587.557,297.589 593.53,297.593L649.78,297.593C655.081,297.589 660.01,300.316 662.819,304.812C665.624,309.308 665.917,314.933 663.585,319.695L583.241,483.755C580.186,490.087 579.252,497.235 580.58,504.138C581.912,511.04 585.432,517.333 590.623,522.076L640.92,567.474C646.264,572.306 650.049,578.619 651.799,585.611C653.546,592.599 653.178,599.951 650.741,606.732L474.961,1108.93C466.148,1134.71 497.438,1155.22 517.57,1136.92L939.66,752.536C958.086,735.759 968.418,711.872 968.027,686.954C967.636,662.036 956.562,638.489 937.621,622.294L937.62,622.31Z" style="fill:rgb(255,213,0);fill-rule:nonzero;"/>
    </g>
</svg>
