<?xml version="1.0" encoding="UTF-8"?>
<svg width="1200pt" height="1200pt" version="1.1" viewBox="0 0 1200 1200" xmlns="http://www.w3.org/2000/svg">
 <g fill="#ff4c00">
  <path d="m594.49 246.61c21.445-19.266 43.312-38.016 63.797-58.242 9.8438-9.7031 18.75-20.32 28.875-29.766 10.781-10.078 21.469-17.086 26.836-31.336 4.0547-10.805-6.3516-22.641-16.875-22.43-15.914 0.30469-27.305 10.617-40.664 18.305-11.883 6.8438-24.211 13.125-35.508 21.094-24.723 17.641-47.691 37.625-68.578 59.672-27.094 27.984 13.547 68.227 42.117 42.703z"/>
  <path d="m890.62 164.44c4.3125-3.8906 8.5781-7.7344 12.586-11.953 3.7852-4.4453 7.332-9.0938 10.617-13.922 7.2188-9.375 18.633-24.961 7.7344-36-9.375-9.375-26.039-1.9219-34.477 5.5312-3.3047 2.9062-1.6875 0.89062-7.2891 4.2188-2.8086 1.9023-5.4453 4.0508-7.875 6.4219-4.6875 4.1016-9.1875 8.4609-13.617 12.938-4.2305 4.4141-6.5898 10.293-6.5898 16.406s2.3594 11.992 6.5898 16.406c9.2344 9.2344 23.18 8.3203 32.32-0.046875z"/>
  <path d="m1071.6 370.1c-41.109 11.906-77.344 44.391-107.25 74.016-28.266 28.125 14.391 70.852 43.266 43.852 30.469-28.547 63.656-63.656 77.344-104.27 2.7656-8.0625-5.7188-15.727-13.359-13.594z"/>
  <path d="m1094.1 72.656-127.66 104.62-62.578 51.305c-10.008 8.1797-19.758 16.664-29.672 24.984-2.7422 2.3438-19.547 20.461-28.711 16.781-8.1094-3.2344-8.8125-8.7891-4.9922-19.828 2.3438-6.6562 4.6875-12.141 5.0391-17.367 1.7109-19.617-21.094-31.664-36.891-19.805-5.9531 4.5234-11.297 8.7656-13.312 10.57-35.555 31.641-74.578 50.742-116.13 64.031-48.773 15.633-93.141 39.047-116.04 87.773-11.062 23.555-17.133 49.734-30.328 72.234-9.7969 16.664-29.742 39.07-51.375 31.664-24.352-8.2969-29.086-39.844-27.68-61.969 0.82422-16.633 3.4102-33.133 7.7109-49.219 3-10.578 10.105-19.516 19.734-24.82h0.14062c24.398-13.195 2.7188-50.812-21.68-37.5-178.27 96.117-334.8 253.24-378.28 459.42-11.602 54.984-10.781 148.41 2.3438 203.23 11.156 46.5 47.648 85.734 84.07 116.72 34.594 29.438 89.438 45.469 134.62 46.031 129.77 1.5703 189.68-15.844 241.01-38.836 94.055-42.188 195.3-104.32 236.91-205.97 4.1016-9.9844-3.1641-21.539-12.164-25.945-3.1289-2.3711-6.9375-3.6797-10.863-3.7305-3.9258-0.050781-7.7656 1.1562-10.957 3.4492-13.266 8.4609-32.953 22.547-49.617 18.352-17.367-4.3594-17.344-26.438-13.477-40.43 9.2109-33.539 35.531-69.938 63.562-89.766 30.469-21.562 64.43-35.625 90.82-63.023 26.391-27.398 44.531-60.75 62.273-93.75 9.2578-17.273-9.7734-38.672-27.375-27.727-13.289 8.2734-37.5 23.25-53.906 15.633-19.406-9.0469-4.5234-38.461 2.3438-51.047 27.703-50.414 62.812-97.055 96.094-143.74 68.75-96.391 137.43-192.89 206.04-289.5 13.359-18.703-13.992-35.133-29.016-22.828zm-577.73 647.65c-26.203 42.773-22.898 96.305-28.734 144.33-6.0703 49.875-16.922 106.62-63.281 131.88-56.602 30.938-138.28 20.062-170.62-10.102-97.805-91.102-23.602-240 66.797-296.04 26.273-16.266 54.281-17.156 84.375-16.734 30.68 0.46875 54.773-8.4141 80.836-24.047 10.828-6.4922 21.727-15.07 35.156-14.18 6.1797 0.5 12.062 2.8594 16.871 6.7734 4.8047 3.9141 8.3125 9.1914 10.059 15.141 8.25 28.172-18.773 42.258-31.453 62.977zm168.49-62.414c-5.0859 42.984-31.641 86.602-61.148 117.68-11.297 11.883-31.406 11.344-42.75 0-12.305-12.305-10.406-30.164 0-42.75 13.68-16.051 28.449-31.141 44.203-45.164 14.953-13.734 27.984-27.516 45.398-37.969 5.6484-3.3984 15.164 0.84375 14.297 8.2031z"/>
 </g>
</svg>
