<?xml version="1.0" encoding="UTF-8"?>
<svg width="1200pt" height="1200pt" version="1.1" viewBox="0 0 1200 1200" xmlns="http://www.w3.org/2000/svg">
 <g fill="#ff4c00">
  <path d="m367.1 307.24c0.34375 2.1641 1.082 4.2461 2.1797 6.1406l0.44531 0.89063c1.0273 1.6562 2.1875 3.2227 3.4688 4.6875l1.0547 0.82031c1.5664 1.5195 3.2695 2.8945 5.0859 4.1016l4.4062 1.8984 4.9219 0.67969c3.6367-0.082032 7.168-1.2227 10.172-3.2773 3-2.0547 5.3359-4.9414 6.7266-8.3008 0.80469-1.4336 1.2344-3.043 1.2422-4.6875 0.55859-2.4922 0.44531-5.0898-0.32813-7.5234-1.4648-6.5547-5.625-12.191-11.461-15.516-2.8516-1.6562-6.0781-2.5586-9.375-2.625-1.0469 0.003906-2.0898 0.10547-3.1172 0.30469h-0.84375c-3.7031 0.38281-7.1562 2.0391-9.7734 4.6875-3.1523 3.3164-4.9297 7.707-4.9688 12.281v0.42187c-0.20312 1.6719-0.14844 3.3633 0.16406 5.0156z"/>
  <path d="m642.56 183.84c12.844 11.555 26.086 24.398 43.195 27.703 15.328 2.9531 24.633-11.203 18.891-25.055-6.4453-15.492-20.602-26.812-32.812-37.898-11.32-10.242-32.625-27.07-45.586-9.9609-11.812 15.586 4.8984 34.922 16.312 45.211z"/>
  <path d="m835.29 172.71c16.406 24.328 31.898 49.219 47.836 73.805 28.125 43.406 64.078 106.08 118.55 116.86s100.52-32.203 87.188-88.875c-12.094-51.305-60.562-94.195-104.65-117.68-14.062-7.5-30.258 7.5469-25.594 20.789 0.30469 2.1055 0.30469 4.2461 0 6.3516-1.2422 5.3906-6.7266 8.7422-11.555 10.594-3.3789 1.2383-6.9297 1.9414-10.523 2.0859-6.1641-1.1797-12.246-2.7461-18.211-4.6875-5.9766-6.375-12.07-12.586-18.188-18.586-15.469-15.141-31.688-31.594-48.984-46.406-14.672-19.336-30.609-37.5-48.82-51.562-12.68-9.7031-28.5 8.8359-21.094 21.422 15.633 26.508 36.867 50.297 54.047 75.891z"/>
  <path d="m925.38 133.78c1.4219 0.31641 2.8828 0.41797 4.3359 0.30469l1.5234 0.21094c1.8672 0.085937 3.7227-0.33594 5.3672-1.2188 2.8047-1.1211 5.1406-3.1641 6.6328-5.7891 1.1445-2.2266 1.793-4.6719 1.8984-7.1719 0.015625-3.7305-1.4531-7.3125-4.0781-9.9609l-3.2578-2.6484c-0.58594-0.46875-1.1719-0.91406-1.7812-1.3359l-1.3594-1.0781c-1.6172-1.0586-3.4844-1.6641-5.4141-1.7578-3.2344-0.54688-6.5586 0.074218-9.375 1.7578-2.1055 1.3828-3.8906 3.207-5.2266 5.3438-1.9102 3.5-2.4336 7.5898-1.4766 11.461 0.65234 2.957 2.1602 5.6562 4.3281 7.7656 2.1719 2.1133 4.9102 3.543 7.8828 4.1172z"/>
  <path d="m428.77 747.09c-3.9492-5.0273-8.4219-9.625-13.336-13.711-7.8984-7.0312-20.578-8.5078-28.242 0-7.6641 8.5078-7.1719 20.062 0 28.805 1.125 1.3594 2.3438 2.6719 3.5625 3.9375 5.6719 6.6797 11.461 14.672 19.688 16.641 1.418 0.75 2.9336 1.3008 4.5 1.6406 7.8516 1.5703 17.438-2.1797 19.242-11.133 0.30078-1.543 0.44922-3.1133 0.44531-4.6875 1.2617-3.7617 1.3789-7.8086 0.33594-11.637-1.043-3.8281-3.1992-7.2578-6.1953-9.8555z"/>
  <path d="m241.95 936.52c-52.938-28.062-101.32-63.98-143.51-106.52-15.82-16.172-39.516 8.2734-24.492 24.984l2.1797 2.3438c10.828 23.93 25.688 46.594 39.094 68.766 14.859 24.625 30.562 48.648 47.109 72.07 28.43 40.195 60.938 96.234 111.73 108.84 46.758 11.602 94.875-28.125 75-78.305-18.258-46.031-66.586-70.477-107.11-92.18z"/>
  <path d="m665.39 977.58c-18.75-37.992-49.992-66.727-84.07-89.836-17.812-12.094-31.266-21.281-48.445-34.312-12.938-9.7969-40.547-32.367-66.516-33.727-10.617-0.5625-20.672 13.406-13.594 24.164 2.3086 3.4453 3.3008 7.6055 2.7969 11.723-0.50391 4.1172-2.4688 7.918-5.5391 10.707-2.4844 2.3438-6.5625 3.0703-11.039 2.9766-17.227-3.3516-32.203-19.547-43.336-31.734-27.68-30.281-52.125-61.758-83.18-88.734-30.469-26.625-63.164-50.742-95.32-75.375-16.031-12.281-31.688-25.078-47.367-37.828-16.102-13.125-30.469-28.688-47.578-40.289-3-2.2812-7.1406-2.3281-10.195-0.11719-8.2266 0.65625-15.656 7.4297-12.633 17.203 8.1562 26.461 33.375 47.953 50.859 68.484 19.312 22.688 38.531 45.469 58.125 67.969 39.023 44.672 77.812 89.742 112.9 137.74 31.289 42.773 59.531 87.773 92.039 129.63 31.359 40.406 68.977 83.32 117.19 102.3 23.82 9.1133 49.754 11.188 74.719 5.9766 12.723-2.6328 24.98-7.1406 36.375-13.383 13.379-7.0312 24.238-18.047 31.078-31.523 7.9922-14.719 15.305-56.391-7.2656-102.02zm-66.703 82.406c-66.773 24.023-113.27-59.766-123.23-73.078-6.0703-8.1328-13.406-25.477-16.266-35.156-1.9766-3.4297-2.2773-7.5703-0.82031-11.25 0.21484-1.3516 0.82812-2.6055 1.7578-3.6094 0.37891-2.2773 2.1914-4.043 4.4766-4.3594 6.0469-4.4062 14.625-5.3672 20.367 1.1953 1.3828 1.5938 2.8594 3.2812 4.4062 5.0156 13.281 15.387 31.367 25.84 51.328 29.672h0.46875c18.445 3.2578 37.219 5.2266 53.016 16.406 23.836 17.062 36.094 63.797 4.5 75.164z"/>
  <path d="m1027.2 764.39c-41.695-34.336-88.734-54.023-133.59-81.844-52.547-32.625-97.852-76.289-142.78-118.69-1.9023-1.8398-4.2148-3.1992-6.75-3.9609-13.875-12.844-30.164-23.906-43.43-33.938s-31.875 9.6797-22.828 23.297c10.312 15.586 22.359 31.102 30.586 47.953 9.6797 19.781-5.4609 26.062-22.688 20.18-32.32-11.062-58.992-40.43-81.211-65.625-25.406-28.688-49.617-58.594-74.297-87.867-13.336-15.844-26.977-31.359-40.805-46.875l-3.2109-3.5859c-9.375-16.781-23.438-31.406-39.023-36.914-13.5-4.6875-22.711 11.953-16.992 22.57 5.4375 11.344 50.086 61.547 14.484 63.68-0.82422 0.042968-1.6484 0.13672-2.4609 0.28125-11.719-5.8594-24.609-17.766-29.156-21.75-9.0977-8.0742-17.707-16.684-25.781-25.781-6.2812-7.4766-84.117-99.984-99.703-118.22-20.273-23.719-40.266-47.766-60.938-71.062-21.234-23.555-41.508-49.805-64.945-71.156-17.039-15.445-47.062 4.6875-33.188 26.109 14.906 23.18 34.055 44.039 51.305 65.484 16.875 21.094 34.148 41.625 51.562 62.25 36.172 42.953 72.359 85.922 108.56 128.91 35.547 42.047 71.016 84.172 106.41 126.38 16.945 20.227 33.891 40.547 52.898 58.828 17.953 17.25 37.828 32.203 57.234 47.695 17.695 14.129 34.672 29.141 50.859 44.977 2.3203 5.3086 1.957 11.41-0.98438 16.406-5.9531 9.6328-22.711 1.2656-31.312-0.28125-11.719-2.1094-22.102-1.5234-29.203 9.1406-2.2539 4.0312-1.6172 9.0586 1.5703 12.398 3.2109 3.207 7.1289 5.6133 11.438 7.0312 17.766 15.164 35.156 29.016 49.945 47.93 18.258 23.438 32.414 49.805 47.531 75.422 26.531 45 57.141 86.836 97.008 120.52 37.266 31.5 80.438 56.438 127.78 67.969 24.328 5.9297 50.25 9.0938 75.234 6.7031 12.242-0.94531 24.289-3.6055 35.789-7.8984 40.477-15.984 66.469-38.695 82.758-76.734 28.523-66.844 25.547-169.62-47.672-229.92zm-215.32-79.57c9.375 2.0391 17.555 9.1875 25.5 14.414 9.0703 5.9531 19.266 11.367 22.102 22.734 2.8359 11.367-5.3672 20.508-16.195 21.703s-19.242-7.2656-27.352-13.312c-8.1094-6.0469-17.438-11.719-23.016-20.391-8.4609-13.266 5.5078-28.125 18.961-25.148zm189.26 226.9c-1.1992 14.242-5.9805 27.945-13.898 39.844-20.461 30.094-65.484 35.367-86.156 29.32-50.789-14.859-80.039-61.945-107.41-104.27-16.008-24.75-32.344-49.219-48.047-74.25-5.1094-8.1328-11.719-17.812-14.273-27.211-2.3164-6.3398-2.9297-13.176-1.7812-19.828 1.1719-6.4688 7.1484-10.805 13.195-12.07 6.6562-3.9219 14.824-4.2812 21.797-0.96094 26.625 11.531 44.18 36.516 69.797 49.898 24.398 12.773 93.633 16.945 138.28 56.883 17.461 15.773 29.883 38.977 28.5 62.648z"/>
  <path d="m1124.6 523.97c-19.875-50.062-73.453-69.398-121.17-79.828-28.922-6.3281-58.828-11.344-84.375-27.305-25.992-16.195-46.875-40.5-68.297-62.273s-42.492-45.188-66.586-64.406c-22.617-18-47.273-28.312-75-34.805-34.008-7.9219-64.148-16.125-91.617-39.258-15.562-13.078-28.57-28.711-42.188-43.688-4.7383-6.6719-10.098-12.879-16.008-18.539-8.1328-8.3672-15.609-18.469-28.125-18.281-7.5664 0.21484-13.605 6.3789-13.664 13.945-0.65625 9.7266 5.3203 16.992 11.555 23.742 7.0312 13.312 18.117 25.57 26.555 36.961l37.828 51c21.094 28.406 40.031 62.555 74.695 74.836 35.156 12.469 75 9.0938 104.72 35.812 12.234 10.969 22.969 27.961 21.094 45.305-1.1016 10.266-10.477 18.961-19.148 16.008l-9.375-8.6484c-11.461-10.617-30.469 2.8828-22.008 17.32 1.9766 3.3789 4.3789 6.4883 7.1484 9.2578 7.1953 13.664 18.586 25.242 28.617 36.516 14.25 16.031 28.406 32.133 42.984 47.859 29.227 31.523 57.258 65.25 89.062 94.148 25.898 23.438 57.984 43.477 93.891 42.188 31.828-1.1719 79.336-16.875 97.43-46.172 9.5156-8.6719 16.734-21.703 21.094-32.531 9.1992-22.078 9.5156-46.855 0.89062-69.164zm-98.062 64.734c-3.4961 3.5273-7.6875 6.2969-12.305 8.1328-14.18 9.1406-36.727 5.6719-52.734-3.6562-27.398-15.914-46.875-46.477-63.445-72.914-7.6875-12.234 5.1797-30.281 19.055-25.266 30.961 11.156 65.977 13.805 95.789 28.125 24.352 11.859 34.734 44.836 13.641 65.578z"/>
 </g>
</svg>
