<?xml version="1.0" encoding="UTF-8"?>
<svg width="1200pt" height="1200pt" version="1.1" viewBox="0 0 1200 1200" xmlns="http://www.w3.org/2000/svg">
 <g fill="#ffd500">
  <path d="m934.17 103.88-71.25 120.38c-6.5195 10.996-7.8242 24.32-3.5625 36.375 10.617 30 21.656 90.938-46.078 124.57-17.688 8.6016-37.121 12.996-56.789 12.844h-241.8c-6.4102-0.003906-12.566 2.5039-17.156 6.9766-4.5898 4.4766-7.2461 10.57-7.4062 16.977-0.79688 32.32-7.9219 91.406-45.141 140.62 0 0-30.07 53.438-110.34 40.922-9.6055-1.6055-19.027-4.168-28.125-7.6406-20.137-7.5156-41.207-12.246-62.625-14.062-69.586-5.2734-126.7 56.789-112.64 125.09 3.1133 15.965 10.535 30.773 21.469 42.82 10.887 11.387 17.125 26.438 17.484 42.188 0.027344 3.9297-0.30078 7.8516-0.98438 11.719-0.42578 2.2812 0.58984 4.5898 2.5547 5.8203 1.9648 1.2305 4.4844 1.1328 6.3516-0.24219 4.1016-3.0977 8.0156-6.4414 11.719-10.008 10.879-10.52 17.582-24.621 18.875-39.699s-2.9141-30.113-11.844-42.332c-10.312-14.062-18.75-37.641 6.1406-64.992 21.352-23.438 55.523-21.258 83.156-14.062 21.824 5.8555 42.453 15.504 60.938 28.5 7.5938 5.3203 16.594 11.719 23.93 17.297 37.312 28.57 11.203 91.852-35.648 94.195-5.3125 0.31641-10.641-0.1875-15.797-1.5-6.7617-1.5742-13.66 2.0195-16.242 8.4609-8.5781 23.742-37.195 65.625-94.688 122.32l-135.63 159.16c-0.66016 0.80078-0.62891 1.9688 0.070312 2.7344 0.70313 0.76562 1.8633 0.89844 2.7188 0.3125l181.55-129.19c5.3477-3.8281 12.09-5.1641 18.492-3.6602 6.4062 1.5039 11.848 5.6992 14.93 11.512 9.0586 17.645 14.336 36.988 15.492 56.789 0.59766 8.1523-2.3008 16.176-7.9727 22.066-5.668 5.8906-13.574 9.0898-21.746 8.8008-13.758-0.55859-27.281-3.7383-39.844-9.375-3.9141-1.7344-8.2656-2.2148-12.461-1.375-4.1992 0.83594-8.0312 2.957-10.977 6.0625l-75.211 78.047c-0.98437 0.98047-1.0938 2.5352-0.25 3.6406s2.375 1.4102 3.5781 0.71875l80.766-44.531c9.5352-5.2852 20.719-6.7422 31.289-4.0781 17.277 4.4961 34.988 7.125 52.828 7.8516 13.477 0.46875 26.551-4.6406 36.137-14.125 9.5859-9.4844 14.836-22.504 14.512-35.984-0.33203-22.438-2.2578-44.82-5.7656-66.984-2.3906-14.812 1.3477-29.961 10.355-41.961 9.0117-12 22.516-19.816 37.41-21.648 18.637-2.5391 37.477-3.2461 56.25-2.1094 3.8281 0.32812 7.625-0.92188 10.508-3.4609 2.8828-2.543 4.5977-6.1523 4.75-9.9922 1.7109-47.508 13.852-193.5 97.641-271.88 23.785-22.348 55.355-34.523 87.984-33.938 28.289 0.58594 63.844 8.0391 91.711 35.836 3.0039 2.9297 6.7656 4.9609 10.859 5.8633 4.0977 0.90234 8.3633 0.64062 12.32-0.75391 51.562-17.766 232.2-75 344.09-45.141 2.9961 0.76953 6.1758 0.10938 8.6172-1.7891 2.4375-1.9023 3.8633-4.8242 3.8516-7.9141v-107.34c-0.011718-3.875-2.2617-7.3945-5.7734-9.0352s-7.6523-1.1055-10.633 1.3711c-24.281 20.672-77.039 52.922-168.35 50.977-7.4648-0.21875-14.332-4.1328-18.32-10.445-3.9922-6.3125-4.582-14.195-1.5781-21.031 36.68-83.18 101.93-150.47 183.94-189.7 6.1992-2.9648 11.434-7.6133 15.113-13.418 3.6758-5.8008 5.6445-12.523 5.6758-19.395v-116.46c0-9.6719-3.8438-18.949-10.68-25.789-6.8398-6.8359-16.117-10.68-25.789-10.68h-125.48c-12.918-0.03125-24.887 6.7812-31.453 17.906z"/>
  <path d="m152.67 880.36c0 14.121-11.449 25.57-25.57 25.57-14.121 0-25.57-11.449-25.57-25.57s11.449-25.57 25.57-25.57c14.121 0 25.57 11.449 25.57 25.57"/>
  <path d="m603.61 905.93c0 15.945-12.93 28.875-28.875 28.875s-28.875-12.93-28.875-28.875c0-15.945 12.93-28.875 28.875-28.875s28.875 12.93 28.875 28.875"/>
  <path d="m563.77 806.72c17.414-22.312 37.312-47.32 53.531-66.469 9.7266-11.504 23.75-18.512 38.789-19.383 7.3359-0.42188 15.75-0.72656 24.164-0.67969 17.02 0.11719 33.039 8.0586 43.43 21.539 23.18 30 75.539 82.031 142.29 49.219 83.391-40.688 169.97-111.26 242.23-90.914 5.5781 1.6211 10.48 5.0117 13.965 9.6641 3.4844 4.6484 5.3594 10.309 5.3477 16.117v112.64c0.011719 1.8242-1.0859 3.4688-2.7734 4.1562-1.6914 0.6875-3.6289 0.27734-4.8906-1.0391l-0.65625-0.65625c-20.215-20.344-46.461-33.613-74.828-37.836-28.363-4.2227-57.336 0.82812-82.602 14.398-13.547 7.2188-29.906 16.641-47.836 28.383-22.898 15.176-49.734 23.324-77.203 23.438-34.656 0-68.074-12.891-93.75-36.164-18.441-16.723-35.77-34.637-51.867-53.625-8.6211-10.184-21.297-16.051-34.641-16.031-10.348-0.019531-20.395 3.4961-28.477 9.9609-12.586 10.078-33.047 26.555-53.742 43.57-2.8945 2.5664-7.2812 2.457-10.043-0.25391-2.7578-2.7109-2.9492-7.0938-0.43359-10.035z"/>
  <path d="m763.83 91.641c-9.3008 20.887-21.23 40.5-35.508 58.359-13.5 16.707-31.551 29.141-51.973 35.793-20.418 6.6562-42.332 7.25-63.082 1.707-26.832-7.1367-52.07-19.277-74.391-35.789-4.5977-3.4219-10.648-4.1953-15.961-2.0391-23.297 9.5859-88.078 37.5-136.43 70.312-3.2227 2.1953-5.8047 5.207-7.4805 8.7305-1.6758 3.5195-2.3867 7.4219-2.0586 11.309 1.9922 24.469 5.4609 79.172 0.46875 114.3-0.76953 5.3633 1.668 10.68 6.2344 13.594 14.062 8.8711 26.25 20.406 35.883 33.961 1.0898 1.7031 3.1484 2.5156 5.1094 2.0156 1.957-0.5 3.375-2.2031 3.5156-4.2188l4.6875-40.242c0.93359-8.6289-1.0195-17.324-5.5547-24.727-8.0859-13.43-17.906-39.258-0.72656-69.984 10.289-18.422 29.133-29.109 47.906-35.344 26.965-8.6641 55.879-9.2188 83.156-1.5938 29.156 7.875 74.25 22.055 103.69 40.828 10.699 6.7891 24.098 7.7422 35.648 2.5312 35.156-15.727 104.09-56.25 133.29-141 3.5117-10.371 8.543-20.168 14.93-29.062 2.2188-2.8594 2.5898-6.7422 0.95703-9.9727-1.6328-3.2305-4.9805-5.2344-8.5977-5.1445h-65.039c-3.7578 0.007812-7.1602 2.2305-8.6719 5.6719z"/>
 </g>
</svg>
