<?xml version="1.0" encoding="UTF-8"?>
<svg width="1200pt" height="1200pt" version="1.1" viewBox="0 0 1200 1200" xmlns="http://www.w3.org/2000/svg">
 <g fill="#00edff">
  <path d="m87.305 778.24 124.01 275.34c2.0391 4.5156 6.75 7.207 11.676 6.6758 4.9258-0.53516 8.9531-4.1719 9.9805-9.0195l40.172-182.93c1.0703-4.9219-1.1914-9.9688-5.5781-12.445l-164.06-92.414c-4.3398-2.5742-9.8516-2.0117-13.578 1.3906s-4.7891 8.8438-2.6172 13.398z"/>
  <path d="m853.43 750h155.98c3.7188-0.003906 7.2734-1.5508 9.8047-4.2773 2.5352-2.7227 3.8203-6.3789 3.5547-10.09l-27-373.45c-0.37891-5.1094-3.6406-9.5586-8.4023-11.457-4.7578-1.8984-10.188-0.91797-13.98 2.5273l-216.07 196.34c-4.4141 4.0156-5.6406 10.469-3 15.82l87.094 177.16c2.2695 4.5586 6.9297 7.4375 12.023 7.4297z"/>
  <path d="m698.44 539.18 121.24-103.59c8.8867-7.5938 15.402-17.586 18.77-28.781 3.3672-11.195 3.4414-23.121 0.21484-34.359l-60.938-212.67c-1.0938-3.8203-3.7148-7.0234-7.25-8.8438-3.5312-1.8242-7.6602-2.1055-11.41-0.78125-3.7461 1.3242-6.7812 4.1367-8.3867 7.7734l-92.414 209.09c-4.7656 10.809-6.2969 22.77-4.4062 34.43l21.094 129.09c0.5625 3.3555 2.2969 6.4023 4.8906 8.6055 2.5977 2.1992 5.8867 3.4102 9.2891 3.418 3.4023 0.007812 6.6992-1.1875 9.3047-3.375z"/>
  <path d="m306.3 672.07 16.406-101.53c1.0938-6.8164 1.5039-13.727 1.2188-20.625l-13.875-334.48c-0.23047-5.3516-4.2578-9.7734-9.5625-10.504-5.3086-0.73047-10.379 2.4375-12.047 7.5273-40.031 123.96-90.305 269.67-116.39 344.53-1.5508 4.4531-1.7383 9.2695-0.53516 13.828 1.2031 4.5586 3.7383 8.6562 7.2852 11.766l109.24 96.094c3.0391 2.6641 7.2812 3.4609 11.082 2.0859 3.7969-1.375 6.5469-4.707 7.1758-8.6953z"/>
  <path d="m451.52 1003.9-89.625-30.352c-3.8906-1.4102-8.2461-0.097656-10.715 3.2227-2.4688 3.3242-2.4688 7.8711 0.003906 11.191l84.75 119.11c1.7578 2.5039 4.6289 3.9883 7.6875 3.9844h48c3.2656 0.035157 6.3164-1.6328 8.0508-4.4062 1.7305-2.7695 1.8945-6.2422 0.43359-9.1641l-43.078-88.758c-1.1055-2.2891-3.0938-4.0312-5.5078-4.8281z"/>
  <path d="m840.49 803.23-161.93 288.28c-2.2617 4.0312-2.2188 8.9609 0.11328 12.953 2.3359 3.9883 6.6094 6.4453 11.23 6.4531h36.984c3.6992 0.003907 7.2227-1.5742 9.6797-4.3359l237.14-264.07c0.29297-0.32031 0.56641-0.65625 0.82031-1.0078l17.719-24.211c2.8906-3.957 3.3164-9.207 1.1016-13.578-2.2148-4.375-6.6992-7.1328-11.602-7.1406h-129.91c-4.707-0.003906-9.0508 2.543-11.344 6.6562z"/>
  <path d="m506.25 1003.4 50.039 103.12c1.3594 2.7773 4.1758 4.5391 7.2656 4.5469h24.023c2.2344 0 4.3672-0.92969 5.8867-2.5664 1.5195-1.6367 2.293-3.832 2.1289-6.0586l-17.859-260.3c-0.23438-3.707-2.9766-6.7734-6.6367-7.4141s-7.2812 1.3086-8.7617 4.7188l-56.719 128.44c-5 11.359-4.7656 24.336 0.63281 35.508z"/>
  <path d="m289.08 741.45-106.41-93.469c-3.9727-3.5039-9.707-4.1641-14.371-1.6523-4.6641 2.5078-7.2695 7.6562-6.5352 12.902l11.719 84.703c0.51172 3.9492 2.8555 7.4258 6.3281 9.375l88.055 49.57c3.6094 2.0508 7.9961 2.1992 11.738 0.39844 3.7422-1.8008 6.3633-5.3203 7.0117-9.4219l6.6094-40.781c0.71094-4.332-0.85547-8.7227-4.1484-11.625z"/>
  <path d="m288.68 1014.5-18.023 82.148c-0.82031 3.5078 0.015625 7.1992 2.2734 10.008 2.2539 2.8125 5.6797 4.4258 9.2812 4.3828h76.383c4.4492 0.019532 8.5352-2.4609 10.574-6.418 2.0352-3.957 1.6836-8.7188-0.91797-12.332l-58.359-82.102c-2.7109-3.8203-7.418-5.6797-12.008-4.7461-4.5898 0.93359-8.1992 4.4844-9.2031 9.0586z"/>
  <path d="m324.33 852.02v0.51562c0 0.1875 0 0.49219-0.11719 0.75l-9.0938 41.391c-0.78125 3.5352-0.23047 7.2305 1.5469 10.387 1.7812 3.1523 4.6562 5.5391 8.0859 6.6992l121.88 41.273c3.4766 1.1836 7.2734 1.0195 10.637-0.46094 3.3633-1.4766 6.0508-4.168 7.5273-7.5312l73.523-166.41c1.2227-2.7734 1.5586-5.8555 0.96484-8.8242-0.59766-2.9688-2.0938-5.6836-4.293-7.7695l-149.65-142.45c-2.5977-2.4766-6.0117-3.918-9.6016-4.0508-3.5859-0.13281-7.0977 1.0508-9.8711 3.3281-2.7734 2.2812-4.6172 5.4961-5.1836 9.043z"/>
  <path d="m696.28 604.2-74.25 185.91c-0.75391 1.8984-1.0742 3.9375-0.9375 5.9766l15.398 224.48c0.40234 5.9961 4.6953 11.012 10.559 12.332 5.8594 1.3203 11.891-1.3711 14.824-6.6133l138.96-247.45c2.1836-3.8984 2.3125-8.6211 0.35156-12.633l-80.133-162.96c-1.8477-3.7578-5.3281-6.4492-9.4297-7.2969-4.0977-0.84766-8.3594 0.24609-11.547 2.9609-1.6797 1.4297-2.9805 3.25-3.7969 5.2969z"/>
  <path d="m1105 872.74-75.891-2.3438c-10.992-0.35156-21.574 4.168-28.922 12.352l-185.37 206.48c-3.4492 3.8477-4.3125 9.3633-2.207 14.082 2.1094 4.7188 6.7891 7.7578 11.957 7.7617h45.328c1.7305-0.003906 3.4414-0.34766 5.0391-1.0078l154.1-64.078c15.508-6.4375 27.758-18.871 33.961-34.477l50.133-126.35c1.1055-2.7461 0.79687-5.8594-0.82422-8.3359-1.6211-2.4727-4.3516-4-7.3086-4.0859z"/>
  <path d="m594.16 734.48 39.844-99.82c4.9102-12.289 6.3867-25.68 4.2656-38.742l-30.469-187.29c-1.9648-12.141-6.9805-23.586-14.578-33.258l-221.23-282.38c-2.7891-3.5273-7.5312-4.8633-11.75-3.3125-4.2227 1.5508-6.9688 5.6367-6.8125 10.133l16.078 424.62c0.38281 10.562 4.875 20.562 12.516 27.867l195.23 185.84c2.4961 2.4102 6.0312 3.4141 9.4258 2.6797 3.3906-0.73437 6.1953-3.1094 7.4727-6.3359z"/>
  <path d="m627.77 320.7 73.125-165.49c1.8125-4.1367 0.55078-8.9766-3.0469-11.707-3.5977-2.7266-8.5977-2.6367-12.094 0.22266l-123.12 101.7c-4.082 3.3711-4.7266 9.3867-1.4531 13.547l49.945 63.82c2.1172 2.707 5.5 4.1016 8.9102 3.6719 3.4102-0.42578 6.3438-2.6133 7.7305-5.7578z"/>
 </g>
</svg>
