<?xml version="1.0" encoding="UTF-8"?>
<svg width="1200pt" height="1200pt" version="1.1" viewBox="0 0 1200 1200" xmlns="http://www.w3.org/2000/svg">
 <g fill="#ffd500">
  <path d="m1129.5 541.69c-4.5703-27.68-15.609-90.516-29.555-142.27-0.95703-3.5-4.2383-5.8516-7.8594-5.6289-3.6211 0.22266-6.5938 2.9531-7.1172 6.543-4.1016 29.273-10.406 71.086-16.852 101.88-3.4805 16.582-14.109 30.777-29.039 38.789-20.25 10.922-51.047 26.109-79.688 34.617-3.3672 0.97656-7 0.17578-9.6445-2.1289-2.6445-2.3008-3.9375-5.793-3.4336-9.2617 8.3438-57.305 39.047-262.5 68.836-386.72 1.125-4.8594-1.2695-9.8477-5.7656-12.012-4.4961-2.1641-9.8867-0.92188-12.984 2.9883-13.781 17.672-29.883 37.758-45.023 54.164-4.4883 4.8672-10.367 8.2383-16.836 9.6484-6.4688 1.4141-13.219 0.80078-19.328-1.75l-364.48-151.78c-7.2148-3.0078-15.281-3.25-22.664-0.67969-23.016 8.0391-78.117 25.781-134.74 31.57-5.3359 0.51563-10.34 2.8203-14.203 6.5391l-56.695 54.891c-5.1719 5.0117-7.8516 12.062-7.3125 19.242 1.0312 13.688 3.1172 38.766 6.4219 69.938 0.49609 4.7383 4.2344 8.4844 8.9688 8.9922 4.7344 0.50781 9.1797-2.3594 10.672-6.8828 14.32-43.852 45.773-94.617 114.54-93.75 4.4297 0.039063 8.4883 2.4883 10.59 6.3906 2.0977 3.9062 1.9023 8.6406-0.51172 12.359-50.883 76.688-259.99 391.52-345 516.68-2.875 4.25-4.3242 9.3008-4.1406 14.43 0.1875 5.1289 1.9961 10.062 5.1719 14.094v0.14062c10.379 13.016 16.879 28.691 18.75 45.234 1.6797 14.949 1.625 30.039-0.16406 44.977-2.3164 16.422-7.5547 32.297-15.469 46.875-7.0312 13.359-17.648 45.703 10.57 90.398 25.43 40.242 77.344 48.305 108.33 49.219 20.715 0.53516 41.082 5.4727 59.742 14.484l0.98438 0.49219c24.969 12.352 45.844 31.648 60.117 55.57 6.25 10.547 12.406 21.07 18.469 31.57 2.4609 4.2852 6.1797 7.7109 10.652 9.8086 4.4766 2.0938 9.4883 2.7617 14.355 1.9102 42.188-7.3359 155.23-25.992 228.8-29.344 7.5195-0.34375 15-1.25 22.383-2.7188 54.523-10.629 109.73-17.363 165.21-20.156 2.4961-0.16406 4.4609-2.1992 4.5352-4.6992 0.074219-2.5039-1.7695-4.6484-4.2539-4.957-109.76-11.039-292.22-31.078-379.41-50.32-5.0742-1.0547-9.1562-4.8125-10.625-9.7773-1.4688-4.9688-0.089843-10.344 3.5938-13.988 20.484-20.977 62.484-50.953 128.6-39.445 0 0 34.242 5.8828 63.07 43.711 3.3711 4.5312 9.25 6.4141 14.625 4.6875 15.938-5.1562 49.945-16.195 80.25-25.922 2.043-0.65625 3.2812-2.7305 2.8906-4.8398-0.39453-2.1133-2.293-3.6016-4.4375-3.4805-25.406 1.4062-57.516 1.3125-77.156-5.6016 0 0-47.32-42.445-73.594-73.172-2.8945-3.3906-6.8008-5.7578-11.145-6.75-4.3477-0.99219-8.8945-0.55469-12.973 1.2422-31.43 13.734-109.34 37.969-174.3-22.008-61.664-56.906-97.664-153.52-112.27-200.2-2.5039-8.0273-2.7305-16.59-0.66406-24.742 2.0703-8.1484 6.3555-15.566 12.383-21.43 27.562-26.93 79.688-75.398 123.61-102.07 3.5547-2.1758 7.793-2.9531 11.887-2.1797 4.0977 0.76953 7.7617 3.0312 10.285 6.3477 2.5234 3.3164 3.7266 7.4531 3.375 11.605-1.9688 24.68-8.1094 60.492-26.133 89.344-3.2734 5.1758-8.2461 9.0547-14.062 10.969-15.16 5.0664-30.891 8.2383-46.828 9.4453-1.2734 0.09375-2.3281 1.0273-2.5742 2.2812s0.375 2.5156 1.5195 3.0859c21.875 10.566 45.164 17.906 69.141 21.797 9.9258 1.5078 20.055-0.83984 28.305-6.5625 8.25-5.7227 13.996-14.387 16.062-24.211 13.078-62.719 53.906-202.17 167.27-270.96 10.949-6.582 24.363-7.6055 36.188-2.7656 23.742 9.6094 65.812 27.68 96.375 46.664 11.508 7.1914 19.031 19.309 20.367 32.812 3.375 33.609 9.0703 103.38 5.9062 165.68-0.26172 4.9062-3.125 9.2969-7.5078 11.516-4.3828 2.2227-9.6172 1.9336-13.727-0.75781-22.406-14.602-60.938-38.203-99.094-53.906-3.6523-1.5508-7.8711-0.83594-10.805 1.8359-2.9336 2.6719-4.043 6.8047-2.8359 10.586 9.7266 30.141 26.156 89.062 25.781 142.5-0.070313 11.438 4.3984 22.438 12.422 30.586 23.438 23.648 72.656 73.008 104.06 101.06 2.957 2.6562 6.8477 4.0391 10.816 3.8438 3.9727-0.19141 7.707-1.9453 10.395-4.875 40.5-43.969 197.11-210.02 315.49-279.89 3.6797-2.1094 6.625-5.2969 8.4336-9.1289 1.8125-3.8359 2.4023-8.1367 1.6914-12.316zm-857.67 406.9c1.3125 2.2891 1.0938 5.1484-0.54688 7.2148-1.6445 2.0664-4.3789 2.9219-6.9062 2.1602-18.082-5.6289-36.75-9.1445-55.641-10.477-13.738-0.91797-26.359-7.8906-34.453-19.031-6.5234-8.8008-8.7109-20.078-5.9531-30.68 6.5859-26.367 23.438-41.883 27.211-61.898 0.29687-1.7539 1.6562-3.1406 3.4062-3.4766 1.75-0.33203 3.5195 0.45312 4.4453 1.9766z"/>
  <path d="m1095.9 293.72c0.6875 13.574-6.582 24.977-16.238 25.465s-18.043-10.117-18.73-23.691c-0.6875-13.574 6.582-24.977 16.238-25.465 9.6602-0.48828 18.043 10.117 18.73 23.691"/>
  <path d="m845.67 978.16c24.402 8.793 47.633 20.555 69.164 35.016 3.0977 2.1406 6.8242 3.1758 10.582 2.9453 3.7578-0.23438 7.3281-1.7266 10.137-4.2344 22.266-20.016 78.938-68.086 135.07-92.367 2.4023-1.0273 3.75-3.6055 3.2266-6.1641-0.52344-2.5586-2.7695-4.3984-5.3828-4.4062-23.766 0.11719-56.438 0.82031-82.031 3.5156-4.6094 0.48438-8.9023 2.5664-12.141 5.8828-11.555 11.719-41.812 40.57-63.656 42.562-21.113-1-42.27-0.34766-63.281 1.9453-3.625 0.46875-6.4609 3.3555-6.8633 6.9883-0.39844 3.6328 1.7383 7.0703 5.1758 8.3164z"/>
  <path d="m393.09 738.66c-2.9609 8.3828-3.3438 17.461-1.1016 26.062 1.8945 6.3438 5.5742 12.012 10.598 16.324 5.0234 4.3125 11.18 7.0898 17.738 8.0039 29.082 4.4531 57.188 13.863 83.086 27.82 2.1562 1.2148 4.8633 0.80859 6.5742-0.98047 1.707-1.793 1.9844-4.5156 0.66797-6.6133l-21.094-33.844c-4.0195-6.3594-10.191-11.059-17.391-13.242-8.2734-2.5781-19.008-8.2734-22.594-20.789 0 0-6.3047-22.43-36.539-18.75-4.5 0.50781-8.7617 2.2812-12.289 5.1172-3.5312 2.832-6.1875 6.6094-7.6562 10.891z"/>
  <path d="m270.35 406.71-166.41 233.58c-2.043 2.8086-5.4688 4.2578-8.9102 3.7695-3.4375-0.49219-6.3203-2.8438-7.4961-6.1133l-15.586-44.531c-1.25-3.5703-1.8945-7.3242-1.8984-11.109v-99.492c0.019531-3.0508 1.9492-5.7656 4.8242-6.7852 2.8789-1.0156 6.0859-0.12109 8.0195 2.2383 10.008 12.047 25.781 25.406 46.875 26.297 14.523 0.39844 28.555-5.2734 38.719-15.656l91.406-90.938c2.4141-2.8867 6.7109-3.2695 9.5977-0.85547 2.8867 2.4141 3.2695 6.7109 0.85547 9.5977z"/>
 </g>
</svg>
