<?xml version="1.0" encoding="UTF-8"?>
<svg width="1200pt" height="1200pt" version="1.1" viewBox="0 0 1200 1200" xmlns="http://www.w3.org/2000/svg">
 <path d="m763.88 531.38-60.961-81.238c-4.9062-6.8984-4.7891-13.055-4.7891-18.277 0-4.0547 1.7656-9.8047 3.6602-17.09 3.7695-14.52 9.0703-34.391 9.0703-64.367 0-38.953-25.246-158.55-33.742-197.59 2.9141-1.6094 5.5078-3.8633 7.4297-6.707 3.9492-5.8555 4.7539-11.16 2.1133-17.711l-4.2109-8.3984h4.1875c4.0664 0 9.3945-2.5781 11.617-6 2.2188-3.4219 0.99609-10.367-0.67187-14.09l-13.008-25.465c-4.875-10.855-15.734-14.445-27.648-14.445h-89.859c-11.914 0-22.766 3.5898-27.648 14.449l-13.008 25.465c-1.668 3.7188-2.6289 10.414-0.42187 13.836 2.2109 3.418 7.3008 6.25 11.367 6.25h4.1875l-4.2227 8.3984c-2.6406 6.5508-1.8359 11.844 2.1133 17.711 1.9219 2.8438 4.5117 5.1133 7.4297 6.707-8.4961 39.035-33.742 158.64-33.742 197.59 0 29.977 5.3047 49.848 9.0703 64.367 1.8828 7.2734 3.6602 13.031 3.6602 17.09 0 5.2305 0.12109 11.375-4.7891 18.277l-60.961 81.238c-13.551 19.43-16.105 33.914-16.105 55.719v487.99c0 31.414 21.277 64.906 52.703 64.906h230.59c31.426 0 52.703-33.492 52.703-64.906v-487.99c0-21.805-2.5547-36.289-16.117-55.719z" fill="#fff"/>
</svg>
