<?xml version="1.0" encoding="UTF-8"?>
<svg width="1200pt" height="1200pt" version="1.1" viewBox="0 0 1200 1200" xmlns="http://www.w3.org/2000/svg">
 <g fill="#fff">
  <path d="m729.89 602.34c-3.2344 3.2188-4.0703 8.1328-2.0781 12.238 1.9883 4.1016 6.3633 6.4922 10.891 5.9492 18.828-2.1328 37.777-2.9688 56.719-2.5078 24.246 0.67969 47.707-8.6406 64.875-25.781l151.01-149.27c68.953-68.25 112.05-158.62 118.2-254.95 2.2266-34.781-0.28125-71.32-10.852-106.97-1.6992-5.5898-6.1953-9.8828-11.855-11.32-5.6641-1.4375-11.664 0.1875-15.824 4.2891l-908.04 898.5-8.25-8.1797c-6.1758-6.082-14.5-9.4922-23.168-9.4922s-16.992 3.4102-23.168 9.4922c-6.1406 6.0508-9.5977 14.312-9.5977 22.934 0 8.6211 3.457 16.883 9.5977 22.934l63.281 62.648c6.1758 6.0938 14.504 9.5117 23.18 9.5117 8.6758 0 17.004-3.418 23.18-9.5117 6.1367-6.0469 9.5938-14.305 9.5938-22.922 0-8.6172-3.457-16.875-9.5938-22.922l-2.8594-2.7891 583.95-578.3c4.5977-4.5664 10.832-7.1055 17.312-7.043 6.4766 0.0625 12.664 2.7148 17.172 7.3672 4.5117 4.6562 6.9688 10.922 6.8281 17.398-0.14453 6.4805-2.875 12.633-7.5859 17.082z"/>
  <path d="m155.84 1116.2 5.0391-4.9688c2.2461-2.2031 3.5156-5.2188 3.5156-8.3672s-1.2695-6.1641-3.5156-8.3672l-54.422-53.883c-4.6875-4.6133-12.211-4.6133-16.898 0l-5.0391 4.9688c-9.4453 9.3125-14.766 22.02-14.766 35.285s5.3203 25.973 14.766 35.285c9.5039 9.3672 22.309 14.621 35.652 14.629 13.34 0.007812 26.152-5.2305 35.668-14.582z"/>
 </g>
</svg>
