<?xml version="1.0" encoding="UTF-8"?>
<svg width="1200pt" height="1200pt" version="1.1" viewBox="0 0 1200 1200" xmlns="http://www.w3.org/2000/svg">
 <g fill="#fff">
  <path d="m576.56 276.77 81.047-107.41c10.375-13.75 14.863-31.059 12.477-48.117-2.3867-17.059-11.453-32.469-25.203-42.844l-8.4141-6.3281c-13.742-10.379-31.051-14.871-48.105-12.484-17.059 2.3867-32.465 11.457-42.832 25.211l-94.43 125.16c-3.6992 4.8594-4.5977 11.297-2.3711 16.98 2.2266 5.6875 7.2539 9.8047 13.27 10.863 28.578 4.8711 55.559 16.559 78.656 34.078l11.18 8.4375c3.7383 2.832 8.457 4.0508 13.102 3.3867 4.6445-0.66406 8.8281-3.1602 11.625-6.9258z"/>
  <path d="m702.94 394.22c3.5391 2.7734 8.043 4.0117 12.504 3.4453 4.457-0.56641 8.5078-2.8984 11.238-6.4688l78.398-103.9 3.1641-4.1953c10.367-13.746 14.848-31.043 12.461-48.094-2.3867-17.047-11.445-32.449-25.188-42.82l-8.3906-6.3281c-13.746-10.406-31.07-14.922-48.145-12.543-17.078 2.3789-32.508 11.453-42.887 25.223l-81.562 108.09c-2.6719 3.543-3.8281 8.0039-3.2148 12.398 0.61719 4.3945 2.9531 8.3672 6.4961 11.039l84.914 64.055z"/>
  <path d="m695.7 628.76c31.219 23.766 76.172 16.125 99.797-15.211l159.12-210.94c22.734-30.141 19.219-73.547-9.75-97.734-14.762-12.32-33.922-18.059-53.023-15.879-19.102 2.1758-36.48 12.082-48.086 27.41l-98.133 130.08c-4.5352 5.8594-7.1055 13.008-7.3359 20.414-0.35156 20.367-7.5781 40.016-20.508 55.758-10.957 13.34-22.746 25.973-35.297 37.828-5.4883 5.2148-9.2188 12.008-10.668 19.438-1.4492 7.4336-0.54688 15.129 2.582 22.023 4.7539 10.574 12.078 19.789 21.305 26.812z"/>
  <path d="m1106.6 514.78c12.5-14.754 18.371-34.004 16.234-53.223-2.1367-19.219-12.098-36.711-27.531-48.355-15.438-11.648-34.988-16.422-54.059-13.203-19.066 3.2188-35.965 14.148-46.723 30.219l-161.58 214.15c-13.395 20.094-15.543 45.652-5.6875 67.695 9.8555 22.047 30.332 37.492 54.238 40.91 23.902 3.418 47.887-5.668 63.527-24.066z"/>
  <path d="m665.02 1096.1 100.78-133.59c26.523-35.16 37.996-79.418 31.891-123.04-6.1055-43.617-29.285-83.027-64.445-109.55l-108.38-81.75c-3.9961-2.9609-8.1445-5.7148-12.422-8.25l-66.047-38.766c-4.7344-2.7852-10.344-3.6758-15.703-2.4922-5.3633 1.1797-10.078 4.3438-13.203 8.8594-3.1289 4.5117-4.4297 10.043-3.6484 15.477 8.4375 58.125 0.53906 135.49-54.422 226.41-3.9883 6.5742-10.422 11.305-17.891 13.148-7.4648 1.8438-15.359 0.65625-21.953-3.3047-0.86719-0.53906-1.7109-1.1016-2.5078-1.7109-5.7305-4.3398-9.6484-10.648-11.004-17.707-1.3555-7.0586-0.046875-14.367 3.668-20.52 114.33-189.05-6.5391-301.29-11.719-305.98-5.8711-5.2812-9.3438-12.719-9.625-20.613-0.28516-7.8906 2.6484-15.559 8.125-21.246 4.7617-4.6992 10.961-7.6719 17.605-8.4453 6.6445-0.77344 13.359 0.69922 19.074 4.1797l141.02 82.805c7.3555 4.3164 15.805 6.4062 24.324 6.0195s16.742-3.2344 23.676-8.1992l0.23438-0.1875c6.2109-4.4531 12.211-9.2578 17.906-14.203 14.5-12.766 27.945-26.688 40.195-41.625 1.7852-2.1875 3.3555-4.5391 4.6875-7.0312 4.5898-8.6328 5.957-18.617 3.8516-28.164-2.1055-9.5508-7.543-18.035-15.336-23.938l-98.391-74.109-19.336-14.602-19.312-14.508-25.219-19.031c-23.242-17.523-51.586-26.945-80.691-26.824-29.109 0.125-57.371 9.7852-80.465 27.504-9.4961 7.3047-17.969 15.852-25.195 25.406l-212.11 281.11c-1.2891 1.7344-2.5781 3.4688-3.8203 5.25-52.477 74.531-33.914 177.77 39.281 232.03l353.72 262.5c49.5 36.75 119.67 29.812 159.38-17.344 1.1719-1.1719 2.2969-2.5547 3.4219-3.9609z"/>
 </g>
</svg>
