<?xml version="1.0" encoding="UTF-8"?>
<svg width="1200pt" height="1200pt" version="1.1" viewBox="0 0 1200 1200" xmlns="http://www.w3.org/2000/svg">
 <path d="m732.23 500.62c-7.4609-0.94531-15.023-0.76172-22.43 0.53906-28.125 5.25-44.531 36.117-32.414 61.992 5.0156 10.734 15.023 21.398 34.125 28.477 22.145 8.1797 46.367 8.8438 68.926 1.8828 22.555-6.9609 42.195-21.156 55.879-40.391 8.3672-12 14.703-25.293 18.75-39.352 8.957-30.555 8.2656-63.129-1.9805-93.273-10.242-30.148-29.539-56.398-55.254-75.172-28.125-20.32-68.438-35.766-124.97-33.188 0 0-115.36 3.0938-185.84 125.51-32.402 57.051-45.617 123-37.688 188.13 0.14062 1.2422 0.28125 2.4844 0.44531 3.75 15.703 124.5 103.73 228.07 223.45 265.66 57.82 18.141 138.94 34.242 223.08 21.094 57.727-9.0469 97.453 57.727 61.898 104.09-48.492 63.281-140.93 123.54-317.13 123.54 0 0-329.48 3.2344-466.76-305.62 0 0-116.67-259.1 32.039-526.52 0 0 151.01-255.68 480.47-255.68 0 0 41.742 0 98.18 14.062 204.4 51.047 328.12 262.12 269.67 464.53-17.812 61.758-47.602 135.07-115.01 179.46 0 0-98.32 63.398-208.83 42.328-46.395-8.9922-88.656-32.703-120.51-67.613-31.852-34.914-51.598-79.168-56.305-126.19-3.3008-31.5 1.4141-63.32 13.711-92.508 18.234-43.031 57.398-74.367 103.9-78.914 15.195-1.7578 30.594 0.10547 44.93 5.4375 25.66 10.297 45.461 31.398 54.117 57.656 3.7383 11.609 1.2812 24.328-6.5117 33.711-7.7969 9.3828-19.848 14.129-31.949 12.578z" fill="#fff"/>
</svg>
