<?xml version="1.0" encoding="UTF-8" standalone="no"?>
<svg
   height="512"
   width="512"
   version="1.1"
   id="svg643"
   sodipodi:docname="illusion.svg"
   xmlns:inkscape="http://www.inkscape.org/namespaces/inkscape"
   xmlns:sodipodi="http://sodipodi.sourceforge.net/DTD/sodipodi-0.dtd"
   xmlns="http://www.w3.org/2000/svg"
   xmlns:svg="http://www.w3.org/2000/svg">
  <defs
     id="defs647" />
  <sodipodi:namedview
     id="namedview645"
     pagecolor="#505050"
     bordercolor="#ffffff"
     borderopacity="1"
     inkscape:showpageshadow="0"
     inkscape:pageopacity="0"
     inkscape:pagecheckerboard="1"
     inkscape:deskcolor="#505050"
     showgrid="false" />
  <g
     transform="matrix(0.50818859,0,0,0.50818859,-21.725064,18.078807)"
     id="g641">
    <path
       d="M 685.55,124.1 Q 627.9,65.55 545.25,65.55 l -20.3,1.05 q -94.2,19.9 -119.55,90.8 -9.4,26.45 -9.4,56.55 0,68.8 48.25,117.5 48.85,48.85 117.65,48.85 65.55,0 150.95,-57.85 -62.8,133.05 -186,128.3 Q 396.65,431.1 340,323.3 323.4,290.85 323.4,248.4 323.4,145.65 396,72.45 428.65,39.7 467.75,22 472.65,19.9 478,17.75 521.55,0 571.95,0 q 102.7,0 175.3,72.45 73.05,73.2 73.05,175.95 0,99.25 -61.1,178.25 -25.45,28 -77.1,67.7 -51.9,39.45 -70.9,117.45 -8.75,28 -8.75,59.6 0,79.6 56.15,135.35 56.4,56.8 136.05,56.8 47.65,0 87.35,-20.3 25.85,-13.85 48.85,-36.5 56,-55.75 56,-135.35 0,-10.05 -3.45,-20.3 Q 955.65,565 913.85,546.45 872.2,527.7 824.75,527.7 q -47.4,-0.5 -94.15,46.05 -47.4,47.25 -47.4,113.4 0,63.45 70.45,142.45 -142.9,-57.25 -138.6,-176.15 18.85,-125.75 123.45,-180.3 31.15,-15.95 71.95,-15.95 99.05,0 169.95,70 31.6,31.45 48.9,69.2 l 4.3,9.6 q 16.65,42.3 16.65,91 0,99.3 -69.85,169.6 -70.9,69.75 -169.95,69.75 -95.65,0 -171.9,-58.45 -73.25,-63.45 -89.7,-136.5 -14.9,-70.9 -39.05,-121.45 -24.4,-51.5 -46.8,-74.2 -58.7,-58 -140.25,-57.35 -83.75,-0.45 -141.8,57.85 -34.85,34.55 -49.15,78.55 -8.95,29.5 -8.75,62.8 -0.2,72.15 45.5,126.4 122.55,85.45 223.55,7.45 47.85,-45.65 48.3,-110.4 0,-68.7 -48.7,-117.4 -46.3,-46.3 -151.2,-52.3 133.25,-61.1 225.1,27.1 78.55,106.15 42.45,222.25 -10.7,34.65 -40.95,64.7 -72.4,72.9 -175.55,73.55 -46.55,0 -86.9,-15.25 -4.9,-2.1 -10.05,-4.65 Q 151.45,891.3 115.75,855.4 43,782.8 42.75,680.1 43,576.5 115.75,503.95 185.4,434.15 283.65,421.7 343.7,411.05 483.5,455.5 l 2.15,0.2 q 28,8.55 59.6,8.55 82.65,0 140.3,-58.3 58.85,-58.55 58.85,-141.15 0,-49.35 -20.85,-90.3 -14.55,-27.15 -38,-50.4 m -158.1,394.8 q 7.95,27.35 30.15,54.2 17.5,-26.85 22.4,-54.2 h -52.55"
       fill="#ffffff"
       fill-rule="evenodd"
       stroke="none"
       id="path639" />
  </g>
</svg>
