<?xml version="1.0" encoding="UTF-8"?>
<svg width="1200pt" height="1200pt" version="1.1" viewBox="0 0 1200 1200" xmlns="http://www.w3.org/2000/svg">
 <g fill="#fff">
  <path d="m312.59 938.95c17.48-16.551 37.281-30.465 58.781-41.297l15.023-7.5234c3.5586-1.7891 6.0391-5.1797 6.6719-9.1094 0.62891-3.9336-0.66406-7.9297-3.4844-10.742l-59.906-59.906c-2.8164-2.8086-6.8086-4.0938-10.734-3.457s-7.3086 3.1172-9.0938 6.668l-7.5469 15c-10.801 21.5-24.684 41.312-41.203 58.805l-105.82 112.08c-10.113 10.719-24.484 16.355-39.188 15.375l-24.984-1.6641c-4.9219-0.375-9.8086 1.0469-13.758 4.0078-4.5312 3.4297-7.3555 8.6562-7.7461 14.324-0.39453 5.6719 1.6875 11.234 5.707 15.254l39.07 39.047 38.508 38.531c2.9766 3.0664 6.8438 5.1133 11.055 5.8516 4.207 0.73438 8.543 0.125 12.383-1.75 3.3906-1.7617 6.1992-4.4727 8.0742-7.8008 1.8789-3.332 2.7461-7.1367 2.4961-10.949l-1.7344-25.734c-0.96875-14.707 4.668-29.082 15.375-39.211z"/>
  <path d="m538.34 904.29 77.578-155.48c4.6875-9.4062 10.41-18.258 17.062-26.391l495.21-636.19c7.4062-9.5156-4.8516-21.797-14.367-14.391l-636.19 495.21c-8.1406 6.6523-16.988 12.383-26.391 17.086l-155.51 77.555c-7.5742 3.7891-12.863 10.984-14.219 19.344-1.3555 8.3555 1.3867 16.855 7.375 22.844l207.28 207.28c5.9844 5.9844 14.484 8.7266 22.84 7.3672 8.3555-1.3633 15.547-6.6602 19.324-14.234z"/>
 </g>
</svg>
