<?xml version="1.0" encoding="UTF-8"?>
<svg width="1200pt" height="1200pt" version="1.1" viewBox="0 0 1200 1200" xmlns="http://www.w3.org/2000/svg">
 <g fill="#fff">
  <path d="m365.3 417.05c-4.0352 1.5977-7.2539 4.7539-8.9375 8.7578-1.6797 4-1.6797 8.5078 0 12.508 1.6836 4.0039 4.9023 7.1602 8.9375 8.7578l100.43 39.68c5.2227 2.0625 10.789 3.1211 16.406 3.1172h235.71c5.6172 0.003906 11.184-1.0547 16.406-3.1172l100.43-39.68c4.0352-1.5977 7.2539-4.7539 8.9375-8.7578 1.6797-4 1.6797-8.5078 0-12.508-1.6836-4.0039-4.9023-7.1602-8.9375-8.7578-55.5-22.5-99.469-61.336-122.81-84.984-12.691-12.875-30.016-20.125-48.094-20.133h-127.57c-18.074 0.003906-35.391 7.2539-48.07 20.133-23.344 23.648-67.336 62.484-122.84 84.984z"/>
  <path d="m867.68 868.31 45.328-375.28c0.69141-5.6562-1.6523-11.258-6.1641-14.742-4.5117-3.4805-10.523-4.3281-15.82-2.2266l-121.31 47.93c-4.6055 1.8125-8.5742 4.9414-11.422 8.9883-2.8438 4.0508-4.4414 8.8477-4.5859 13.793l-10.875 363.68c-0.19922 6.5117 1.9961 12.867 6.1602 17.871 4.168 5.0078 10.023 8.3164 16.461 9.3008 6.4375 0.98828 13.016-0.41797 18.488-3.9453l71.695-46.148c6.6758-4.293 11.09-11.34 12.047-19.219z"/>
  <path d="m343.76 962.81c1.8281 15.117 12.633 35.812 23.953 46.031 42.188 38.086 78.984 66.375 120.09 117.56 7.918 9.8438 19.875 15.566 32.508 15.562h160.95c11.703 0.007812 22.777-5.3047 30.094-14.438 41.602-52.055 78.75-80.484 121.38-119.02 11.203-10.125 21.773-30.727 23.578-45.703 0.46875-3.75-1.2773-7.4336-4.4805-9.4414-3.1992-2.0117-7.2734-1.9844-10.449 0.066406l-75.328 48.492c-12.508 8.0234-25.871 14.625-39.844 19.688-1.0156 0.45312-2.0547 0.84375-3.1172 1.1719-16.055 5.5781-32.75 9.0977-49.688 10.477h-146.67c-16.945-1.3906-33.648-4.9102-49.711-10.477-1.0547-0.32031-2.0898-0.71094-3.0938-1.1719-13.973-5.0625-27.336-11.664-39.844-19.688l-75.492-48.492c-3.1758-2.0508-7.25-2.0781-10.449-0.066406-3.2031 2.0078-4.9492 5.6914-4.4805 9.4414z"/>
  <path d="m600 537.54h-80.203c-6.8359 0.007813-13.379 2.7852-18.137 7.6953-4.7617 4.9062-7.332 11.531-7.1289 18.367l11.719 396.38c0.13672 6.4883 2.6523 12.695 7.0703 17.449 4.4141 4.7539 10.426 7.7188 16.883 8.332h139.41c6.457-0.61328 12.469-3.5781 16.883-8.332 4.418-4.7539 6.9336-10.961 7.0703-17.449l11.906-396.38c0.20312-6.8438-2.375-13.477-7.1445-18.387s-11.324-7.6797-18.168-7.6758z"/>
  <path d="m286.99 493.03 45.328 375.28c0.96094 7.8828 5.375 14.934 12.047 19.242l71.695 46.125c5.4727 3.5273 12.051 4.9336 18.488 3.9453 6.4375-0.98438 12.293-4.293 16.461-9.3008 4.1641-5.0039 6.3594-11.359 6.1602-17.871l-10.875-363.68c-0.14453-4.9453-1.7422-9.7422-4.5859-13.793-2.8477-4.0469-6.8164-7.1758-11.422-8.9883l-121.31-47.93c-5.2969-2.1016-11.309-1.2539-15.82 2.2266-4.5117 3.4844-6.8555 9.0859-6.1641 14.742z"/>
  <path d="m580.88 127.9 0.86719-0.39844c15.023-6.7109 31.891-8.0586 47.789-3.8203 27.727 7.1953 43.688 26.273 52.734 43.547 2.4609 4.7539 7.7617 7.3164 13.016 6.3008 5.2539-1.0195 9.2109-5.3789 9.7188-10.707 0.56641-5.9219 0.67578-11.875 0.32812-17.812-0.46875-8.7148-2.4844-17.277-5.9531-25.289-27.234-63.117-87.047-61.688-87.047-61.688-83.672 0-109.64 52.43-117.7 85.336-5.1641 19.688-3.0156 40.582 6.0469 58.805 17.742 34.172 53.32 43.57 69.844 46.125 5.0703 0.81641 8.7969 5.1992 8.7891 10.336 0 4.668 1.8555 9.1445 5.1562 12.445 3.3008 3.3008 7.7773 5.1562 12.445 5.1562h3.0938c5.4531-0.007813 10.684-2.1758 14.535-6.0352 3.8555-3.8594 6.0195-9.0898 6.0195-14.543v-2.2031c-0.015626-8.1797-2.8047-16.109-7.9141-22.496s-12.234-10.852-20.211-12.66c-0.49219 0-0.98438-0.21094-1.4766-0.35156-44.062-10.734-51.047-70.781-10.078-90.047z"/>
 </g>
</svg>
