<?xml version="1.0" encoding="UTF-8"?>
<svg width="1200pt" height="1200pt" version="1.1" viewBox="0 0 1200 1200" xmlns="http://www.w3.org/2000/svg">
 <g fill="#fff">
  <path d="m571.43 378.33-123.14 18.914c-3.8164 0.5625-6.6719 3.793-6.7617 7.6484-0.09375 3.8555 2.6016 7.2148 6.3867 7.9609l123.23 24.82c3.2148 0.63672 6.543-0.27344 8.9883-2.457 2.4453-2.1836 3.7266-5.3867 3.457-8.6523-1.168-12.328-1.2227-24.738-0.16406-37.078 0.25-3.1836-0.96484-6.3047-3.3047-8.4805-2.3359-2.1719-5.5391-3.1562-8.6953-2.6758z"/>
  <path d="m797.2 746.18 18.914-123.14c0.50391-3.1562-0.46484-6.3711-2.6328-8.7188-2.1641-2.3516-5.2891-3.5781-8.4766-3.3281-12.332 1.0508-24.734 0.98828-37.055-0.1875-3.2891-0.28906-6.5234 0.99219-8.7266 3.457-2.1992 2.4648-3.1094 5.8203-2.4531 9.0586l24.82 123.21c0.74219 3.7852 4.0977 6.4844 7.9531 6.3984 3.8555-0.085938 7.0859-2.9375 7.6562-6.75z"/>
  <path d="m797.41 202.76c3.2383 0.19141 6.3867-1.1289 8.5195-3.5703 2.1367-2.4453 3.0234-5.7383 2.4023-8.9219l-23.109-114.84c-0.74219-3.7852-4.0977-6.4844-7.9531-6.3984-3.8555 0.085937-7.0859 2.9375-7.6562 6.75l-17.812 115.97c-0.56641 3.2305 0.42187 6.543 2.668 8.9336s5.4844 3.5898 8.7461 3.2305c11.348-1.3203 22.785-1.7031 34.195-1.1484z"/>
  <path d="m1118.9 409.22-114.73-23.109c-3.1836-0.62109-6.4766 0.26562-8.9141 2.4023-2.4414 2.1367-3.7539 5.2812-3.5547 8.5195 0.56641 11.41 0.18359 22.848-1.1484 34.195-0.34766 3.2305 0.83203 6.4414 3.1875 8.6797 2.3594 2.2383 5.625 3.25 8.8359 2.7344l115.97-17.812c3.8125-0.57031 6.6641-3.8008 6.75-7.6562 0.085937-3.8555-2.6133-7.2109-6.3984-7.9531z"/>
  <path d="m287.53 821.16-192.75 192.75c-17.305 17.305-24.062 42.523-17.727 66.16 6.332 23.637 24.797 42.102 48.434 48.434 23.637 6.3359 48.855-0.42188 66.16-17.727l192.73-192.75c5.5273-5.5078 8.8164-12.871 9.2266-20.664 0.41016-7.793-2.082-15.465-7-21.523l254.09-258.21c10.184-10.199 14.148-25.055 10.41-38.973-3.7422-13.918-14.625-24.781-28.547-28.5-13.926-3.7188-28.773 0.27344-38.957 10.473l-253.99 258.3c-6.0508-4.8828-13.695-7.3594-21.461-6.9453-7.7656 0.41016-15.105 3.6758-20.609 9.1719z"/>
  <path d="m530.3 154.92c-3.2852-2.043-7.5664-1.418-10.125 1.4844-2.5625 2.9023-2.6484 7.2305-0.21094 10.234l129.49 162.87c-22.816 40.543-26.633 89.074-10.441 132.69 16.191 43.613 50.758 77.891 94.5 93.723 43.746 15.832 92.242 11.613 132.6-11.535l162.59 129.26c3.0039 2.4375 7.332 2.3516 10.234-0.21094 2.9023-2.5586 3.5273-6.8398 1.4844-10.125l-112.29-183.98c23.609-46.141 23.172-100.91-1.1719-146.67l125.39-179.6c2.2188-3.1484 1.8516-7.4414-0.875-10.164-2.7227-2.7266-7.0156-3.0938-10.164-0.875l-179.58 125.46c-46.203-24.578-101.56-24.781-147.94-0.53906z"/>
 </g>
</svg>
