<?xml version="1.0" encoding="UTF-8" standalone="no"?>
<!DOCTYPE svg PUBLIC "-//W3C//DTD SVG 1.1//EN" "http://www.w3.org/Graphics/SVG/1.1/DTD/svg11.dtd">
<svg width="100%" height="100%" viewBox="0 0 779 1068" version="1.1" xmlns="http://www.w3.org/2000/svg" xmlns:xlink="http://www.w3.org/1999/xlink" xml:space="preserve" xmlns:serif="http://www.serif.com/" style="fill-rule:evenodd;clip-rule:evenodd;stroke-linejoin:round;stroke-miterlimit:2;">
    <g transform="matrix(1,0,0,1,-210.527,-66.094)">
        <g>
            <path d="M545.84,150L654.17,150C659.533,150.004 664.76,148.313 669.104,145.164C673.444,142.012 676.674,137.57 678.335,132.469L693.194,86.719C694.744,81.918 693.908,76.668 690.94,72.59C687.975,68.512 683.237,66.098 678.194,66.094L521.814,66.094C516.771,66.098 512.032,68.512 509.068,72.59C506.099,76.668 505.263,81.918 506.814,86.719L521.673,132.399C523.321,137.512 526.548,141.973 530.888,145.133C535.231,148.297 540.466,150 545.837,150L545.84,150Z" style="fill:rgb(192,128,255);fill-rule:nonzero;"/>
            <path d="M673.99,713.44C667.248,711.565 660.099,711.749 653.459,713.96C646.822,716.174 640.994,720.319 636.725,725.862C630.334,733.963 626.104,743.55 624.42,753.729C623.779,758.232 624.084,762.822 625.311,767.206C628.873,780.995 636.499,793.39 647.202,802.784C652.303,807.151 658.561,809.944 665.218,810.823C671.874,811.702 678.644,810.623 684.702,807.729C696.866,801.823 711.093,790.362 714.585,768.541C719.53,737.533 698.155,720.189 673.991,713.439L673.99,713.44Z" style="fill:rgb(192,128,255);fill-rule:nonzero;"/>
            <path d="M615.56,809.74C611.306,806.533 605.447,806.533 601.193,809.74C592.123,816.56 578.201,829.428 582.865,841.357C589.592,858.677 608.365,856.263 608.365,856.263C608.365,856.263 627.115,858.607 633.888,841.357C638.552,829.427 624.63,816.56 615.56,809.74Z" style="fill:rgb(192,128,255);fill-rule:nonzero;"/>
            <path d="M592.34,753.73C590.649,743.55 586.41,733.96 580.012,725.863C575.758,720.304 569.938,716.152 563.297,713.937C556.656,711.722 549.508,711.55 542.77,713.441C518.606,720.191 497.231,737.535 502.2,768.543C505.716,790.363 519.942,801.824 532.106,807.731C538.161,810.633 544.934,811.711 551.59,810.833C558.25,809.954 564.508,807.161 569.606,802.786C580.321,793.399 587.958,781.001 591.52,767.208C592.723,762.821 593.004,758.231 592.34,753.731L592.34,753.73Z" style="fill:rgb(192,128,255);fill-rule:nonzero;"/>
            <path d="M690.84,379.69C680.477,377.186 670.981,371.932 663.352,364.483C655.727,357.034 650.25,347.663 647.504,337.362C644.797,327.432 643.41,317.186 643.379,306.893C643.379,303.307 643.52,299.862 643.801,296.674C644.422,289.19 647.832,282.213 653.352,277.123C658.875,272.029 666.106,269.197 673.614,269.182L701.739,269.182C721.801,269.182 738.981,253.502 739.356,233.463C739.524,223.724 735.789,214.326 728.981,207.365C722.172,200.404 712.86,196.455 703.122,196.408L498.212,196.408C478.15,196.408 460.97,212.111 460.712,232.15C460.528,241.919 464.282,251.353 471.13,258.33C477.973,265.302 487.337,269.228 497.11,269.228L526.501,269.228C534.008,269.243 541.239,272.075 546.763,277.169C552.282,282.259 555.692,289.235 556.313,296.72C556.595,299.954 556.735,303.353 556.735,306.939C556.704,317.232 555.31,327.478 552.587,337.408C549.825,347.709 544.333,357.072 536.696,364.513C529.055,371.954 519.551,377.197 509.18,379.689C340.08,420.33 213.54,572.109 210.59,751.899C209.567,808.887 221.094,865.399 244.36,917.439C267.63,969.474 302.059,1015.75 345.22,1052.98C351.614,1058.52 355.282,1066.57 355.275,1075.03L355.275,1110.54C355.275,1116.76 357.744,1122.72 362.138,1127.12C366.537,1131.51 372.497,1133.98 378.712,1133.98L821.332,1133.98C827.547,1133.98 833.508,1131.51 837.906,1127.12C842.301,1122.72 844.77,1116.76 844.77,1110.54L844.77,1075.03C844.77,1066.57 848.449,1058.52 854.848,1052.98C927.438,990.182 974.278,902.789 986.388,807.569C998.501,712.354 975.025,616.019 920.47,537.049C865.915,458.076 784.12,402.029 690.78,379.659L690.84,379.69ZM738.957,607.69L759.441,591.026C762.261,588.686 762.691,584.514 760.402,581.651L760.402,581.534C752.488,571.823 750.109,558.733 754.097,546.858C758.086,534.987 767.886,525.987 780.058,523.022C792.226,520.061 805.066,523.545 814.066,532.256C823.07,540.967 826.972,553.686 824.41,565.947C823.516,570.385 825.719,574.865 829.777,576.869C833.309,578.623 836.442,581.08 838.988,584.088C843.977,590.096 846.43,597.807 845.824,605.592C845.223,613.377 841.609,620.619 835.754,625.783C829.676,631.029 821.734,633.588 813.738,632.885C805.742,632.178 798.371,628.264 793.308,622.033L793.097,621.775C790.832,618.978 786.73,618.548 783.933,620.814L764.644,636.517C760.472,639.9 754.378,639.415 750.792,635.415C746.902,631.134 742.823,627.009 738.558,623.04C736.363,621.06 735.144,618.216 735.218,615.263C735.297,612.306 736.66,609.529 738.957,607.665L738.957,607.69ZM354.117,567.659C361.805,557.276 374.414,551.749 387.258,553.128C391.762,553.542 395.985,550.894 397.57,546.659C398.957,542.968 401.078,539.593 403.804,536.745C409.258,531.136 416.687,527.882 424.503,527.671C432.324,527.46 439.917,530.312 445.663,535.62C451.499,541.124 454.859,548.757 454.98,556.78C455.097,564.8 451.964,572.53 446.296,578.206L446.038,578.464C443.507,581.015 443.507,585.124 446.038,587.675L463.616,605.253C467.421,609.05 467.577,615.167 463.968,619.151C460.077,623.463 456.39,627.94 452.906,632.581C451.156,634.948 448.461,636.44 445.523,636.667C442.586,636.889 439.695,635.827 437.601,633.753L418.851,615.003C417.597,613.737 415.886,613.022 414.105,613.022C412.324,613.022 410.613,613.737 409.359,615.003L409.242,615.003C400.488,623.768 387.883,627.491 375.769,624.893C363.66,622.292 353.691,613.725 349.3,602.143C344.909,590.557 346.698,577.538 354.046,567.565L354.117,567.659ZM458.227,907.879L440.625,922.223C437.805,924.563 437.375,928.735 439.664,931.598L439.664,931.715C447.578,941.422 449.961,954.512 445.977,966.383C441.992,978.258 432.196,987.258 420.028,990.227C407.86,993.196 395.02,989.715 386.012,981.008C377.008,972.301 373.098,959.586 375.657,947.324C376.559,942.887 374.352,938.399 370.289,936.402C366.746,934.625 363.598,932.156 361.032,929.137C356.024,923.121 353.563,915.387 354.172,907.582C354.778,899.773 358.41,892.516 364.289,887.348C370.371,882.137 378.301,879.602 386.277,880.317C394.254,881.031 401.605,884.934 406.664,891.145L406.875,891.402C407.961,892.75 409.535,893.609 411.258,893.789C412.977,893.973 414.699,893.457 416.039,892.363L433.055,878.535C437.219,875.133 443.317,875.586 446.93,879.567C450.516,883.527 455.086,888.52 459.235,893.02C461.173,895.07 462.169,897.84 461.977,900.656C461.786,903.477 460.427,906.082 458.227,907.855L458.227,907.879ZM689.247,873.285L681.56,922.902C679.708,934.832 670.872,943.996 659.927,945.238C658.036,945.453 656.141,944.847 654.727,943.574C653.313,942.304 652.509,940.484 652.52,938.582L652.52,897.332C652.52,893.437 650.872,889.726 647.989,887.113C645.106,884.496 641.255,883.222 637.38,883.597C630.185,884.496 624.818,890.667 624.935,897.917L624.935,942.19C624.951,945.417 622.392,948.065 619.17,948.167C612.029,948.339 604.881,948.339 597.724,948.167C594.498,948.065 591.935,945.421 591.935,942.19L591.935,897.331C591.935,893.437 590.287,889.726 587.404,887.112C584.521,884.495 580.67,883.222 576.795,883.597C569.6,884.495 564.233,890.667 564.35,897.917L564.35,938.558C564.362,940.456 563.561,942.268 562.151,943.542C560.741,944.811 558.854,945.421 556.967,945.214C546.022,943.925 537.186,934.808 535.334,922.878L527.647,873.261C491.768,849.87 467.78,812.085 461.87,769.671C455.96,727.249 468.71,684.347 496.827,652.041C524.944,619.732 565.675,601.186 608.507,601.186C651.339,601.186 692.069,619.733 720.187,652.041C748.304,684.346 761.054,727.248 755.144,769.671C749.234,812.089 725.246,849.874 689.367,873.261L689.247,873.285ZM845.877,945.637C838.205,956.039 825.592,961.598 812.736,960.239C808.236,959.821 804.017,962.473 802.447,966.708C799.263,975.095 792.459,981.591 783.935,984.388C775.412,987.181 766.083,985.974 758.552,981.099C751.021,976.228 746.095,968.212 745.154,959.29C744.213,950.368 747.349,941.501 753.697,935.161L753.955,934.926C756.486,932.368 756.486,928.251 753.955,925.692L738.439,910.2C734.634,906.395 734.47,900.282 738.064,896.278C741.626,892.317 746.126,887.255 750.181,882.684C752.021,880.575 754.657,879.321 757.458,879.227C760.255,879.133 762.97,880.207 764.946,882.192L781.071,898.294C782.329,899.555 784.036,900.263 785.818,900.263C787.599,900.263 789.306,899.555 790.564,898.294L790.681,898.177C799.431,889.372 812.056,885.618 824.193,888.216C836.334,890.809 846.318,899.4 850.705,911.009C855.088,922.622 853.271,935.669 845.877,945.638L845.877,945.637Z" style="fill:rgb(192,128,255);fill-rule:nonzero;"/>
        </g>
    </g>
</svg>
