<?xml version="1.0" encoding="UTF-8"?>
<svg width="1200pt" height="1200pt" version="1.1" viewBox="0 0 1200 1200" xmlns="http://www.w3.org/2000/svg">
 <g fill="#51db2e">
  <path d="m520.48 160.92h159.05c18.082-0.023437 35.414-7.2266 48.191-20.023 12.773-12.797 19.949-30.145 19.941-48.227v-18.75c0-4.7109-1.8711-9.2305-5.2031-12.562s-7.8516-5.2031-12.562-5.2031h-259.88c-4.6836 0.023438-9.168 1.8984-12.477 5.2109-3.3086 3.3125-5.1758 7.8008-5.1953 12.484v18.75c-0.023438 18.094 7.1406 35.457 19.918 48.27 12.777 12.812 30.121 20.027 48.215 20.051z"/>
  <path d="m417.4 1031.8c9.0938 9.3242 15.355 21.035 18.07 33.773l11.977 55.922c1.3516 6.3555 4.8477 12.055 9.8984 16.141 5.0508 4.0859 11.355 6.3164 17.852 6.3125h249.61c6.4961 0.003907 12.801-2.2266 17.852-6.3125 5.0508-4.0859 8.5469-9.7852 9.8984-16.141l11.977-55.922c2.7148-12.738 8.9766-24.449 18.07-33.773l80.297-82.547c7.5039-7.668 12.527-17.422 14.41-27.984 1.8867-10.562 0.54688-21.449-3.8398-31.242-99.773-221.16-165.91-565.8-182.46-657.96-1.1602-6.5664-4.5977-12.512-9.707-16.801-5.1094-4.2852-11.562-6.6328-18.23-6.6367h-126.14c-6.668 0.003906-13.121 2.3516-18.23 6.6367-5.1094 4.2891-8.5469 10.234-9.707 16.801-16.547 92.25-82.688 436.9-182.46 658.05-4.3672 9.7812-5.6953 20.648-3.8086 31.191 1.8828 10.547 6.8945 20.281 14.379 27.941zm7.3828-143.48c45.164-130.27 86.719-301.01 100.52-359.88 1.3945-5.9922 4.7773-11.336 9.5938-15.168 4.8164-3.8281 10.785-5.918 16.938-5.9258h96.305c6.1562 0.003906 12.133 2.0898 16.953 5.918 4.8203 3.832 8.207 9.1797 9.6016 15.176 13.828 58.875 55.359 229.69 100.52 359.88 4.1406 11.84 1.8828 24.98-5.9766 34.758-13.5 16.781-36.328 45.234-61.5 77.133-6.8906 8.7461-17.41 13.852-28.547 13.852h-158.39c-11.168 0.007812-21.719-5.1172-28.617-13.898-25.172-31.898-48-60.352-61.5-77.133-7.8203-9.7812-10.051-22.895-5.9062-34.711z"/>
 </g>
</svg>
