<?xml version="1.0" encoding="UTF-8" standalone="no"?>
<!DOCTYPE svg PUBLIC "-//W3C//DTD SVG 1.1//EN" "http://www.w3.org/Graphics/SVG/1.1/DTD/svg11.dtd">
<svg width="100%" height="100%" viewBox="0 0 765 1088" version="1.1" xmlns="http://www.w3.org/2000/svg" xmlns:xlink="http://www.w3.org/1999/xlink" xml:space="preserve" xmlns:serif="http://www.serif.com/" style="fill-rule:evenodd;clip-rule:evenodd;stroke-linejoin:round;stroke-miterlimit:2;">
    <g transform="matrix(1,0,0,1,-217.939,-56.1549)">
        <g>
            <g id="flask">
                <path d="M520.48,160.92L679.53,160.92C697.612,160.897 714.944,153.693 727.721,140.897C740.494,128.1 747.67,110.752 747.662,92.67L747.662,73.92C747.662,69.209 745.791,64.689 742.459,61.358C739.127,58.027 734.607,56.155 729.897,56.155L470.017,56.155C465.333,56.178 460.849,58.053 457.54,61.366C454.231,64.678 452.364,69.167 452.345,73.85L452.345,92.6C452.321,110.694 459.485,128.057 472.263,140.87C485.04,153.682 502.384,160.897 520.478,160.921L520.48,160.92Z" style="fill:rgb(0,238,255);fill-rule:nonzero;"/>
                <path d="M437.2,1122.7C446.591,1136 461.845,1143.92 478.122,1143.96L721.872,1143.96C738.149,1143.92 753.403,1136 762.794,1122.7C866.904,975.37 941.484,862 974.274,811.36C979.692,802.942 982.403,793.067 982.032,783.063C981.665,773.059 978.235,763.411 972.212,755.415C826.312,559.665 740.012,327.425 711.282,242.135C707.985,232.358 701.7,223.865 693.313,217.854C684.926,211.846 674.864,208.624 664.547,208.643L535.457,208.643C525.133,208.627 515.066,211.854 506.68,217.874C498.294,223.893 492.012,232.397 488.723,242.183C459.989,327.472 373.693,559.713 227.793,755.463C221.769,763.459 218.339,773.108 217.972,783.111C217.601,793.115 220.312,802.99 225.73,811.408C258.519,862.056 333.1,975.428 437.21,1122.71L437.2,1122.7ZM348.911,749.13C375.677,702.114 410.88,639.84 430.942,604.45C435.688,596.04 442.587,589.044 450.926,584.177C459.262,579.31 468.746,576.747 478.403,576.747L721.663,576.747C731.319,576.747 740.804,579.31 749.14,584.177C757.48,589.044 764.378,596.04 769.124,604.45C789.116,639.841 824.319,702.114 851.155,749.13C854.655,755.271 856.382,762.259 856.147,769.321C855.909,776.387 853.721,783.243 849.819,789.137C822.116,830.903 755.014,932.857 694.099,1030.05C686.044,1042.91 671.939,1050.72 656.763,1050.72L543.233,1050.72C528.057,1050.72 513.952,1042.91 505.897,1030.05C444.959,932.875 377.877,830.827 350.247,789.137C346.345,783.243 344.157,776.387 343.919,769.321C343.685,762.259 345.411,755.27 348.911,749.13L348.911,749.13Z" style="fill:rgb(0,238,255);fill-rule:nonzero;"/>
            </g>
        </g>
        <g transform="matrix(0.406709,0,0,0.406709,355.972,573.476)">
            <path d="M607.5,374.55C603.199,370.812 596.801,370.812 592.5,374.55L487.03,466.706C484.549,468.866 483.132,471.995 483.139,475.284L483.139,724.704C483.132,727.993 484.55,731.122 487.03,733.282L592.5,825.438C596.801,829.177 603.199,829.177 607.5,825.438L712.97,733.282C715.451,731.122 716.868,727.993 716.861,724.704L716.861,475.284C716.868,471.995 715.45,468.866 712.97,466.706L607.5,374.55Z" style="fill:rgb(0,238,255);fill-rule:nonzero;"/>
            <path d="M934.99,307.64L672.16,77.95C652.176,60.485 626.535,50.86 599.996,50.86C573.457,50.86 547.816,60.485 527.832,77.95L265.002,307.64C243.529,326.402 231.201,353.519 231.182,382.031L231.182,817.971C231.182,846.51 243.514,873.655 265.002,892.432L527.832,1122.12C547.816,1139.59 573.457,1149.21 599.996,1149.21C626.535,1149.21 652.176,1139.59 672.16,1122.12L934.99,892.432C956.478,873.655 968.81,846.51 968.81,817.971L968.81,382.031C968.79,353.519 956.462,326.402 934.99,307.64ZM791.76,724.83C791.756,749.736 780.998,773.428 762.252,789.822L656.782,881.978C641.016,895.646 620.848,903.169 599.981,903.169C579.114,903.169 558.946,895.646 543.18,881.978L437.71,789.822C418.964,773.427 408.206,749.736 408.202,724.83L408.202,475.29C408.206,450.384 418.964,426.692 437.71,410.298L543.18,318.142C558.946,304.482 579.11,296.962 599.969,296.962C620.828,296.962 640.992,304.481 656.758,318.142L762.228,410.298C780.974,426.693 791.732,450.384 791.736,475.29L791.76,724.83Z" style="fill:rgb(0,238,255);fill-rule:nonzero;"/>
        </g>
    </g>
</svg>
