<?xml version="1.0" encoding="UTF-8"?>
<svg width="1200pt" height="1200pt" version="1.1" viewBox="0 0 1200 1200" xmlns="http://www.w3.org/2000/svg">
 <g fill="#fff">
  <path d="m536.98 401.95h138.96c9.1641 0 16.594 9.1641 16.594 16.594v31.852c0 9.1641-7.4297 16.594-16.594 16.594h-138.96c-9.1641 0-16.594-9.1641-16.594-16.594v-31.852c0-9.1641 7.4297-16.594 16.594-16.594z"/>
  <path d="m667.57 606.68v-88.711c0-4.2461-1.6875-8.3164-4.6875-11.32-3.0039-3-7.0742-4.6875-11.32-4.6875h-90.211c-4.2461 0-8.3164 1.6875-11.32 4.6875-3 3.0039-4.6875 7.0742-4.6875 11.32v88.781c-57.812 12.395-110.49 42.074-151.04 85.098-40.555 43.023-67.074 97.359-76.039 155.8-8.9648 58.441 0.050781 118.23 25.848 171.43 25.797 53.203 67.156 97.305 118.59 126.46 12.445 6.9805 26.488 10.613 40.758 10.547h205.99c14.285 0.066406 28.348-3.5742 40.805-10.57 51.422-29.164 92.766-73.266 118.55-126.46 25.781-53.195 34.785-112.97 25.816-171.41-8.9688-58.43-35.484-112.76-76.035-155.77-40.547-43.016-93.215-72.691-151.02-85.09zm8.0391 94.102c6.168-0.007812 12.086 2.4375 16.449 6.7969 4.3672 4.3555 6.8203 10.27 6.8242 16.438 0.003907 6.168-2.4414 12.086-6.8008 16.449-4.3594 4.3633-10.273 6.8125-16.441 6.8164s-12.082-2.4453-16.445-6.8086c-4.3633-4.3594-6.8125-10.273-6.8125-16.441 0-6.1641 2.4453-12.074 6.8008-16.434 4.3555-4.3594 10.262-6.8086 16.426-6.8164zm-185.16 46.078c8.8242-0.007813 17.289 3.4922 23.527 9.7305 6.2422 6.2344 9.75 14.695 9.7539 23.52s-3.5039 17.285-9.7422 23.523c-6.2383 6.2383-14.699 9.7461-23.523 9.7422s-17.285-3.5117-23.52-9.7539c-6.2383-6.2383-9.7383-14.703-9.7305-23.527-0.011719-8.8398 3.4961-17.316 9.75-23.562s14.738-9.7422 23.578-9.7188zm319.29 144.4c-0.023438 53.906-21.453 105.6-59.574 143.72-38.121 38.113-89.816 59.535-143.72 59.555-125.88 0-187.34-101.02-198.77-163.78-1.9297-11.227 1.5547-22.707 9.3984-30.965 7.8477-8.2539 19.137-12.32 30.445-10.965 13.148 1.5 27.539 2.6484 42.188 2.9766 33.355 0.44922 66.137-8.7305 94.406-26.438 40.828-25.102 121.88-57.984 210.94-1.0547 9.1758 5.7891 14.781 15.848 14.883 26.695z"/>
  <path d="m612.33 1000.4c0 21.242-17.219 38.461-38.461 38.461-21.242 0-38.461-17.219-38.461-38.461s17.219-38.461 38.461-38.461c21.242 0 38.461 17.219 38.461 38.461"/>
  <path d="m710.04 924.35c0 12.828-10.398 23.227-23.227 23.227s-23.227-10.398-23.227-23.227c0-12.828 10.398-23.227 23.227-23.227s23.227 10.398 23.227 23.227"/>
  <path d="m246.63 94.312c0.16406 0.96094 0.375 1.9453 0.60938 2.9531 3.4141 13.16 12.047 24.359 23.906 31.008 10.594 6.2344 22.703 9.4219 34.992 9.2109 8.5781-0.26562 16.621-4.2305 22.059-10.871s7.7344-15.309 6.3008-23.77c-2.5781-14.883-9.6094-32.812-27.422-45.094-27.773-19.336-66.305 3.1875-60.445 36.562z"/>
  <path d="m472.24 359.46c-19.781-21.375-44.93-32.812-63.656-38.555-13.18-4.1406-27.066-5.5391-40.805-4.1016-8.4531 0.90234-16.949 1.3633-25.453 1.3828-75.914 0-108.87-39.305-121.03-60.258-3.1992-5.3203-4.3047-11.641-3.0938-17.727 1.2109-6.0898 4.6445-11.512 9.6328-15.203 5.625-3.9336 12.648-5.3125 19.34-3.7969 6.6953 1.5195 12.438 5.7891 15.816 11.766 7.3359 13.055 23.648 30.609 58.969 35.438 4.8711 0.69531 9.8242-0.51562 13.828-3.3789 4.0039-2.8633 6.75-7.1602 7.6641-11.996v-0.51562c2.793-14.34 1.3594-29.184-4.1289-42.723-5.4883-13.543-14.797-25.195-26.785-33.543-15.965-10.75-34.152-17.762-53.203-20.508-103.8-17.461-152.55 63.844-152.55 63.844-27.633 42.188-29.508 82.031-21.094 115.31 21.609 85.125 112.64 132.19 196.08 104.77 28.914-9.7227 56.398-23.266 81.727-40.266 33.867-22.57 73.406-23.578 98.977-20.977 4.707 0.52734 9.25-1.9023 11.418-6.1133 2.1719-4.2109 1.5156-9.3203-1.6445-12.848z"/>
  <path d="m733.03 326.51c18.094-22.828 42.305-36.023 60.539-43.312 12.816-5.1445 26.555-7.6016 40.359-7.2188 8.4961 0.25781 17 0.070313 25.477-0.5625 75.703-5.8125 105.47-47.531 116.09-69.352 2.7969-5.5586 3.418-11.961 1.7461-17.957-1.6758-5.9922-5.5234-11.148-10.793-14.457-5.9219-3.5195-13.059-4.3672-19.641-2.3359-6.582 2.0312-11.996 6.7539-14.906 13-6.3047 13.57-21.234 32.32-56.062 39.844-4.8203 1.0977-9.8789 0.28125-14.113-2.2695s-7.3164-6.6445-8.5977-11.418l-0.14062-0.49219c-3.8867-14.086-3.5938-29 0.84375-42.922 4.4336-13.922 12.824-26.258 24.141-35.5 15.129-11.941 32.754-20.328 51.562-24.539 102.38-25.219 157.2 52.055 157.2 52.055 30.773 40.008 35.695 79.547 29.812 113.37-15.023 86.531-102.19 140.41-187.5 119.53-29.566-7.4883-58.008-18.887-84.562-33.891-35.484-19.922-75-17.883-100.27-13.336-4.6758 0.91406-9.4297-1.1719-11.922-5.2344-2.4883-4.0625-2.1953-9.2461 0.74219-13z"/>
  <path d="m744.4 46.031c-12.453-2.0625-25.113-2.5664-37.688-1.5-31.188 1.1992-61.711 9.3516-89.344 23.859-3.0703 1.6641-6.1875 3.1875-9.375 4.6875-3.5195 1.4492-5.668 5.043-5.2812 8.832 0.39062 3.7891 3.2266 6.8711 6.9688 7.5742 10.023 2.0742 20.234 3.1211 30.469 3.1172 6.3555-0.011718 12.473 2.4141 17.098 6.7695 4.625 4.3594 7.4023 10.324 7.7695 16.668 0.27344 6.6289-2.168 13.078-6.7578 17.867-4.5938 4.7852-10.938 7.4922-17.57 7.4922-68.883 0-112.88-32.531-136.5-57.516-9.1289-9.793-21.098-16.477-34.219-19.117-13.125-2.6406-26.75-1.1016-38.953 4.3984-1.125 0.53906-2.3438 1.0781-3.375 1.6875-30.023 15.961-44.883 50.203-39.609 83.789 4.3359 27.68 21.094 61.617 71.461 83.484 24.094 10.113 45.875 25.035 64.008 43.852 19.91 21.066 36.145 45.324 48.023 71.766 1.6523 3.7617 5.4844 6.0859 9.582 5.8164 4.1016-0.26562 7.5938-3.0664 8.7461-7.0117 3.8672-13.406 7.7578-25.336 14.602-36.023 2.5156-3.8555 6.918-6.0547 11.512-5.7539s8.668 3.0547 10.66 7.207l0.32812 0.65625c1.9531 4.0977 6.1016 6.6992 10.645 6.6758 4.5391-0.027344 8.6562-2.6719 10.566-6.793 10.523-23.016 34.125-55.453 86.484-75 54.75-20.367 71.719-68.859 76.711-102.42 6.6094-44.789-22.5-87.188-66.961-95.062z"/>
 </g>
</svg>
