<?xml version="1.0" encoding="UTF-8"?>
<svg width="1200pt" height="1200pt" version="1.1" viewBox="0 0 1200 1200" xmlns="http://www.w3.org/2000/svg">
 <g fill="#db2e72">
  <path d="m521.23 160.92h159.05c18.098 0 35.457-7.1914 48.25-19.992 12.797-12.801 19.984-30.16 19.977-48.258v-18.75c0-4.7109-1.8711-9.2305-5.2031-12.562s-7.8516-5.2031-12.562-5.2031h-259.97c-4.7109 0-9.2305 1.8711-12.562 5.2031s-5.2031 7.8516-5.2031 12.562v18.75c-0.007812 18.098 7.1797 35.457 19.977 48.258 12.793 12.801 30.152 19.992 48.25 19.992z"/>
  <path d="m599.25 1143.9h1.5c219.42-0.42187 334.99-88.875 395.06-171.42 59.18-81.328 75.914-185.41 48.305-282.14-30.188-105.82-98.883-174.89-150-213.73-26.352-19.594-55.301-35.426-86.016-47.039-19.762-7.543-38.203-18.176-54.633-31.5-42-34.406-65.273-86.719-65.273-140.93v-24.773c0-6.3281-2.5234-12.398-7.0078-16.863-4.4883-4.4648-10.57-6.957-16.898-6.9258h-128.58c-6.3125-0.007812-12.371 2.4961-16.836 6.9609-4.4688 4.4609-6.9766 10.516-6.9766 16.828v24.773c0 54.281-23.273 106.52-65.273 140.93-16.43 13.324-34.871 23.957-54.633 31.5-30.715 11.613-59.664 27.445-86.016 47.039-51.211 38.836-119.91 107.81-150 213.73-27.609 96.727-10.875 200.81 48.305 282.14 59.977 82.547 175.55 171 394.97 171.42zm-224.6-497.58h450.7c76.617 0 136.78 66.609 127.85 142.69-8.1797 69.867-42.188 149.3-141.61 198.28-32.965 15.953-68.34 26.352-104.7 30.773-35.207 4.4648-70.66 6.7578-106.15 6.8672h-1.5c-35.488-0.10937-70.941-2.4023-106.15-6.8672-36.355-4.4219-71.73-14.82-104.7-30.773-99.492-48.984-133.43-128.41-141.61-198.28-8.9297-76.078 51.234-142.69 127.85-142.69z"/>
 </g>
</svg>
