<?xml version="1.0" encoding="UTF-8"?>
<svg width="1200pt" height="1200pt" version="1.1" viewBox="0 0 1200 1200" xmlns="http://www.w3.org/2000/svg">
 <g fill="#3b6af9">
  <path d="m426.77 160.92h346.45c18.09-0.011719 35.438-7.2109 48.223-20.008 12.785-12.797 19.965-30.152 19.957-48.242v-18.75c0-4.7109-1.8711-9.2305-5.2031-12.562s-7.8516-5.2031-12.562-5.2031h-447.33c-4.6914 0.011719-9.1875 1.8789-12.508 5.1953-3.3203 3.3164-5.1914 7.8086-5.2109 12.5v18.75c-0.023438 18.102 7.1445 35.473 19.934 48.289 12.789 12.812 30.145 20.02 48.246 20.031z"/>
  <path d="m755.79 208.59h-308.34c-5.7539 0.007812-11.27 2.293-15.34 6.3633-4.0703 4.0703-6.3555 9.5859-6.3633 15.34v737.67c0 30.855 8.1211 61.168 23.551 87.891 15.426 26.723 37.617 48.914 64.34 64.34 26.723 15.43 57.035 23.551 87.891 23.551 30.855 0 61.168-8.1211 87.891-23.551 26.723-15.426 48.914-37.617 64.34-64.34 15.43-26.723 23.551-57.035 23.551-87.891v-737.67c-0.007813-5.7227-2.2695-11.211-6.2969-15.273-4.0273-4.0625-9.4961-6.375-15.219-6.4297zm-50.766 749.55c-0.007813 27.422-10.902 53.715-30.297 73.105-19.391 19.387-45.688 30.277-73.109 30.277-27.418 0-53.715-10.891-73.102-30.281-19.391-19.387-30.281-45.684-30.281-73.102v-336.35c0-10.836 4.3008-21.227 11.953-28.895 7.6562-7.668 18.039-11.984 28.875-12.004h124.97c10.848 0 21.254 4.3086 28.93 11.977 7.6719 7.6719 11.984 18.074 11.992 28.922z"/>
 </g>
</svg>
