<?xml version="1.0" encoding="UTF-8" standalone="no"?>
<svg
   height="512"
   width="512"
   version="1.1"
   id="svg647"
   sodipodi:docname="power.svg"
   xmlns:inkscape="http://www.inkscape.org/namespaces/inkscape"
   xmlns:sodipodi="http://sodipodi.sourceforge.net/DTD/sodipodi-0.dtd"
   xmlns="http://www.w3.org/2000/svg"
   xmlns:svg="http://www.w3.org/2000/svg">
  <defs
     id="defs651" />
  <sodipodi:namedview
     id="namedview649"
     pagecolor="#505050"
     bordercolor="#ffffff"
     borderopacity="1"
     inkscape:showpageshadow="0"
     inkscape:pageopacity="0"
     inkscape:pagecheckerboard="1"
     inkscape:deskcolor="#505050"
     showgrid="false" />
  <g
     transform="matrix(11.51856,0,0,11.51856,258.01575,255.13611)"
     id="g645">
    <path
       d="m 1.55,17.4 q 3.2,0.1 5,-6.65 -2.4,5.05 -5,6.65 M -11.05,2.7 q -0.3,-1.5 -1.45,-1.05 0.95,-0.15 1.1,0.95 l -0.1,-0.1 0.3,0.5 1,0.2 Q -8.8,3.1 -9.5,1.35 -9.95,0.25 -11,0.5 q 0.6,-0.05 1.05,0.85 0.4,1.25 -0.5,1.4 l -0.6,-0.05 m 4,-7.5 -0.95,0.25 q -0.3,0.6 0.3,1.25 l 0.25,0.05 q 1.35,0.35 2.4,0 l 0.5,-0.25 Q -5.5,-4.6 -6.5,-4.8 h -0.55 m -2.2,-13.85 0.55,0.25 q -1.6,-0.3 -3.35,0.9 l -0.75,0.7 -0.65,0.6 -1.1,1.7 -0.55,1.2 -0.05,0.3 -0.5,2.3 -0.05,0.85 0.3,1.75 q 0.5,2.05 1.95,2.85 l -0.6,-0.15 q -1.9,-0.7 -2.55,-3.15 l -0.1,-0.4 -2.3,0.3 2.15,-1.3 q -0.1,-1.75 0.4,-3.3 l -5.95,-3.25 6.7,1.4 q 0.65,-1.25 1.85,-2.3 l -1,-2.8 1.9,2.15 q 1.9,-1.25 3.7,-0.6 m 21.8,-0.7 q 8.55,2.85 8.9,11.55 0.1,5.45 -2.6,9.15 l -2.45,3.5 q -2.65,3.5 -0.25,7.55 3.9,3.4 5.9,7.95 H -1.45 Q 0.2,18.95 0.8,17.05 -0.4,15.9 -0.75,14.45 -1.8,13.25 -3.2,12.7 L 2.85,11.4 Q 6.6,9.7 6.5,3.65 6,8.9 2.25,10.55 L -5.9,12.2 q -3.85,0.9 -4.95,-0.65 -0.6,-1.25 0,-2.7 0.25,-0.95 -0.3,-1.45 l -0.2,-0.25 q -0.3,-0.65 0.4,-1.35 l 1.05,0.15 0.3,0.1 q 0.5,0.2 1.05,-0.4 L -9.75,5.6 -10.1,5.45 -11.3,5.5 Q -11.65,5.05 -11.6,4.35 L -11.55,4 q 0.2,-1.3 -1.35,-1.4 -1.1,-0.25 -1.35,-1.55 -0.05,-0.6 0.5,-1.1 l 1.3,-1.4 1.4,-1.45 0.3,-0.35 q 0.9,-1.05 0.9,-2.35 v -0.1 q -0.3,-1.6 0.65,-2.8 1,-6.65 6.85,-9.6 7.45,-3.15 14.9,-1.25 m -2,16.8 q 1.35,0.8 0.7,2.35 Q 10.75,1 10,1.45 L 9.15,2.5 q -0.8,1.7 -2.05,0.95 1.25,2 2.35,-0.2 l 1.1,-1.35 q 1,-0.6 1.65,-2.15 Q 13.1,-2.3 11.25,-3.3 9.9,-4 8.2,-2 9.55,-3.1 10.55,-2.55"
       fill="#ffffff"
       fill-rule="evenodd"
       stroke="none"
       id="path643" />
  </g>
</svg>
