<?xml version="1.0" encoding="UTF-8"?>
<svg width="1200pt" height="1200pt" version="1.1" viewBox="0 0 1200 1200" xmlns="http://www.w3.org/2000/svg">
 <g fill="#fff">
  <path d="m161.02 283.41c24.492 4.0312 48.539-2.1094 61.852-24.867 9.375-15.938 13.641-40.523 12.82-58.594-1.9688-43.266-34.945-77.109-79.148-75.562-20.695 0.72656-43.125 6.6797-58.594 21.094-0.35156 0.32813-0.67969 0.67969-1.0078 1.0078-27.914 19.242-39.398 57.422-20.273 88.664 16.875 27.633 53.672 43.195 84.352 48.258z"/>
  <path d="m733.95 111.66c1.0586 3.8633 3.1016 7.3828 5.9297 10.219 0.51562 0.86328 1.0859 1.6953 1.7109 2.4844 2.6289 4.0391 6.0781 7.4805 10.125 10.102 4.418 4.0664 9.8242 6.9102 15.68 8.25 8.0234 2.2031 16.492 2.2031 24.516 0l0.46875-0.11719 11.016-4.6875 0.84375-0.46875c7.2656-3.9141 9.5156-7.0312 13.922-12.844 2.9922-3.2812 5.2461-7.1641 6.6094-11.391 1.0195-2.0664 1.8789-4.2031 2.5781-6.3984 0.53906-4.0781 1.0781-8.1328 1.6406-12.188v-0.46875-0.96094l-1.6406-12.117v-0.46875l-0.16406-0.46875-4.6875-10.898-0.60938-1.0312c-2.2891-3.3398-4.7617-6.5469-7.4062-9.6094-1.6211-1.4609-3.3359-2.8164-5.1328-4.0547-6.1406-4.6875-7.8281-6.2578-16.688-8.8359l-0.91406-0.28125h-0.46875l-12.047-1.6172h-0.9375l-12.023 1.6172h-0.46875l-10.781 4.5469c-5.1641 2.7539-9.5273 6.7891-12.68 11.719-2.1289 2.1289-3.8125 4.6641-4.9453 7.4531l-1.125 1.4531-4.6875 11.016c-1.918 5.9492-2.1992 12.305-0.82031 18.398-0.003906 4.0977 1.0977 8.125 3.1875 11.648z"/>
  <path d="m1044.4 460.22c25.289 6.5156 52.922 2.9531 71.461-16.734 19.406-20.602 23.156-51.281 18.516-78.094-9.8438-57.188-73.641-107.27-130.59-76.477-17.727 9.3594-30.219 26.289-33.938 45.984-0.78516 2.1758-1.457 4.3906-2.0156 6.6328-12.539 51.75 26.883 105.91 76.57 118.69z"/>
  <path d="m64.57 1011.3c-0.9375 19.453 8.4609 38.062 23.695 50.508 3.7539 4.7734 8.1016 9.0508 12.938 12.727 22.504 16.676 51.855 20.992 78.211 11.508 12.902-4.4688 24.691-11.664 34.57-21.094 11.109-10.059 19.555-22.707 24.586-36.82 5.0312-13.902 6.1875-28.914 3.3477-43.426-2.8438-14.508-9.5703-27.977-19.473-38.957-31.289-41.32-93.75-45.305-130.62-7.5938-16.852 17.203-28.992 42.188-27.938 66.445 0.10156 2.2461 0.32812 4.4844 0.67969 6.7031z"/>
  <path d="m582.91 759.7c10.531 1.4297 21.211 1.3906 31.734-0.11719 5.9062-0.92969 11.086-4.457 14.113-9.6133 3.0273-5.1602 3.5859-11.398 1.5195-17.012-4.0039-10.898-10.457-20.73-18.867-28.734-3.8906-3.8203-9.1719-5.8906-14.625-5.7383-5.4492 0.15625-10.605 2.5234-14.273 6.5586-7.418 8.3125-12.867 18.188-15.938 28.898-1.7344 5.6094-0.92188 11.691 2.2227 16.648s8.3008 8.2852 14.113 9.1094z"/>
  <path d="m476.02 704.25 0.86719 0.51562c9.4766 5.2734 20.668 6.543 31.086 3.5352 10.418-3.0117 19.207-10.055 24.414-19.566 14.555-25.613 21.086-55.008 18.75-84.375-1.0898-13.438-8.7773-25.461-20.52-32.086-11.742-6.625-26.008-6.9961-38.074-0.98438-33.516 16.828-49.383 41.227-56.25 55.781-3.8477 8.082-4.8438 17.227-2.8359 25.945 8.4141 36.609 42.562 51.234 42.562 51.234z"/>
  <path d="m604.69 628.41c16.113 15.707 31.215 32.422 45.211 50.039 5.3438 6.9375 13.371 11.293 22.098 12.004 8.7266 0.71094 17.352-2.2969 23.746-8.2773 11.227-10.828 22.406-28.875 27.633-58.969 0 0 6.5625-45.141-15.352-81.656-6.5859-10.773-17.121-18.551-29.355-21.672-12.238-3.1211-25.211-1.3398-36.152 4.9609-18.867 10.512-34.668 25.766-45.844 44.25-5.4453 9.3711-7.6133 20.293-6.1641 31.035 1.4531 10.742 6.4414 20.695 14.18 28.285z"/>
  <path d="m174.98 856.99c16.465 7.582 33.5 13.852 50.953 18.75 48.68 13.832 87.105 51.277 102.19 99.586 22.242 71.859 77.625 166.15 215.44 180.47 0 0 142.45 10.406 230.32-65.461 21.91-19.176 50.676-28.617 79.688-26.156 20.648 2.1094 41.504 0.98047 61.805-3.3516 23.934-5.6094 45.484-18.629 61.59-37.199 16.102-18.57 25.938-41.746 28.105-66.23 2.3438-25.266 0.46875-56.508-14.18-87.07-5.7227-12.164-7.8477-25.707-6.1211-39.039 1.7227-13.328 7.2227-25.887 15.848-36.195 18.891-22.805 38.766-57.703 44.133-106.9v-1.1016c7.5938-73.031-50.297-137.23-123.66-137.46-13.652 0.003907-27.285 1.1133-40.758 3.3281-6.4961 1.0391-13.121-0.82813-18.121-5.1055-5-4.2773-7.8672-10.535-7.8477-17.113v-0.44531c-0.074219-6.8047 3.1367-13.227 8.625-17.25 1.1953-0.84375 2.3438-1.7109 3.4688-2.5781 22.512-18 34.047-46.402 30.469-75-8.1094-70.969-43.008-178.12-169.83-254.02-104.39-62.414-235.24-64.711-338.88-0.98438-50.414 31.031-99.07 80.133-133.12 157.38-9.8477 22.125-12.117 46.887-6.4492 70.434 5.668 23.543 18.949 44.562 37.785 59.785l1.9688 1.5469c6.8008 5.0977 10.371 13.43 9.375 21.867-0.80859 6.2617-4.1133 11.934-9.1602 15.727-5.0469 3.793-11.41 5.3906-17.652 4.4297l-2.5078-0.375c-44.371-6.4727-89.539 4.2578-126.26 29.996-36.719 25.734-62.215 64.531-71.27 108.45-0.16406 0.89062-0.35156 1.7812-0.51562 2.6719-7.793 40.879-1.7422 83.188 17.195 120.24s49.688 66.742 87.383 84.367zm712.12-157.71c9.1797 0 17.984 3.6484 24.477 10.141 6.4922 6.4922 10.141 15.297 10.141 24.477 0 9.1797-3.6484 17.984-10.141 24.477-6.4922 6.4922-15.297 10.141-24.477 10.141s-17.984-3.6484-24.477-10.141c-6.4922-6.4922-10.141-15.297-10.141-24.477-0.007813-9.1836 3.6406-17.992 10.133-24.484 6.4922-6.4922 15.301-10.141 24.484-10.133zm-458.2-408.8c9.6172 0 18.84 3.8203 25.637 10.621 6.8008 6.7969 10.621 16.02 10.621 25.637 0 9.6172-3.8203 18.84-10.621 25.637-6.7969 6.8008-16.02 10.621-25.637 10.621s-18.84-3.8203-25.637-10.621c-6.8008-6.7969-10.621-16.02-10.621-25.637 0-9.6172 3.8203-18.84 10.621-25.637 6.7969-6.8008 16.02-10.621 25.637-10.621zm-52.758 268.55c26.18-55.898 65.625-88.781 102.96-108.09 30.18-15.566 63.484-24.121 97.434-25.023 33.945-0.89844 67.656 5.875 98.621 19.82 72.891 32.812 99.164 94.641 107.58 146.46 5.6172 36.016 3.75 72.805-5.4844 108.07-14.273 55.898-15 100.17-13.641 125.02 0.28125 5.7695-1.8164 11.406-5.8008 15.586-3.9883 4.1836-9.5156 6.5469-15.293 6.5391h-1.1016c-4.043-0.050781-7.9688-1.3594-11.234-3.7383-3.2656-2.3828-5.7109-5.7188-7-9.5508-0.28125-0.82031-0.58594-1.5703-0.91406-2.3438-8.25-19.102-34.828-21.094-46.5-3.8672-15.586 22.992-17.977 62.602-17.789 86.93 0.042969 5.6094-2.1641 11-6.1289 14.965-3.9648 3.9648-9.3555 6.1719-14.965 6.1289h-9.6328c-5.707 0.003906-11.168-2.3203-15.121-6.4336-3.957-4.1133-6.0625-9.6602-5.832-15.363 2.3438-65.109-26.18-78.773-38.32-81.656-2.457-0.61719-4.9961-0.83594-7.5234-0.65625-17.859 1.6641-25.781 23.438-29.18 39.117-1.0312 4.6602-3.625 8.8281-7.3516 11.812-3.7266 2.9844-8.3594 4.6055-13.133 4.5938h-1.8516c-5.2891 0.003906-10.383-1.9961-14.258-5.5977-3.8711-3.6016-6.2383-8.5352-6.625-13.809-4.6875-62.227-69.164-116.2-69.164-116.2-89.859-65.648-42.75-192.7-42.75-192.7z"/>
 </g>
</svg>
