<?xml version="1.0" encoding="UTF-8"?>
<svg width="1200pt" height="1200pt" version="1.1" viewBox="0 0 1200 1200" xmlns="http://www.w3.org/2000/svg">
 <g fill="#fff">
  <path d="m81.562 1118.8c82.488-60.16 149.58-138.96 195.81-229.99 46.23-91.027 70.285-191.7 70.203-293.79 0.082031-102.09-23.973-202.75-70.203-293.78-46.23-91.023-113.33-169.82-195.81-229.98-4.6289-3.3516-10.332-4.8711-16.016-4.2695-5.6836 0.60547-10.941 3.2891-14.762 7.5391-3.8164 4.2539-5.9297 9.7656-5.9258 15.48v1010c-0.007813 5.7188 2.0977 11.234 5.918 15.492 3.8164 4.2539 9.0781 6.9414 14.762 7.5508 5.6836 0.60547 11.395-0.91406 16.023-4.2695z"/>
  <path d="m1106.4 660.94h-602.09c-12.797 0-25.082 5.0391-34.195 14.023-9.1133 8.9844-14.32 21.199-14.5 33.996-0.17969 12.793 4.6836 25.148 13.539 34.387l221.44 231.07-59.133 53.32c-4.1719 3.7422-6.8789 8.8398-7.6406 14.391-0.76562 5.5508 0.46484 11.191 3.4688 15.922s7.5898 8.2383 12.938 9.9062l226.73 70.852c7.9883 2.4883 16.695 0.58203 22.91-5.0195 6.2148-5.5977 9.0156-14.059 7.3711-22.262l-46.664-232.9c-1.1016-5.4883-4.1133-10.41-8.4961-13.895-4.3867-3.4805-9.8633-5.2969-15.457-5.125-5.5977 0.16797-10.953 2.3164-15.117 6.0586l-48.469 43.711-144.59-150.94h487.95c17.398 0 33.477-9.2812 42.18-24.352 8.6992-15.07 8.6992-33.633 0-48.703-8.7031-15.07-24.781-24.352-42.18-24.352z"/>
  <path d="m656.37 172.27 54.211 48.797-241.41 252.77c-8.8359 9.2422-13.684 21.586-13.496 34.371 0.1875 12.781 5.3945 24.98 14.496 33.957 9.1016 8.9805 21.371 14.02 34.156 14.031h360.28c17.148-0.375 32.84-9.7422 41.309-24.66 8.4648-14.918 8.4648-33.191 0-48.109-8.4688-14.918-24.16-24.285-41.309-24.66h-246.38l164.79-172.5 53.391 48.07c4.1641 3.75 9.5234 5.9023 15.125 6.0781 5.6016 0.17188 11.082-1.6445 15.473-5.1289 4.3867-3.4883 7.3984-8.4141 8.4961-13.91l46.664-232.9c1.6484-8.207-1.1562-16.676-7.3789-22.277-6.2188-5.6016-14.938-7.5039-22.926-5.0039l-226.71 70.852c-5.3438 1.6719-9.9258 5.1836-12.926 9.9102-3.0039 4.7266-4.2383 10.363-3.4805 15.91 0.75781 5.5508 3.457 10.648 7.6172 14.398z"/>
 </g>
</svg>
