<?xml version="1.0" encoding="UTF-8"?>
<svg width="1200pt" height="1200pt" version="1.1" viewBox="0 0 1200 1200" xmlns="http://www.w3.org/2000/svg">
 <g fill="#00edff">
  <path d="m574.92 735.94v-197.34c0.007813-5.6641-2.9805-10.914-7.8516-13.805l-77.344-46.102c-2.2461-1.3516-5.0977-1.1602-7.1367 0.48828-2.0391 1.6445-2.8281 4.3906-1.9805 6.8711 23.32 68.156 59.602 174.7 85.711 251.37 0.66797 2.0938 2.7773 3.375 4.9414 3.0039 2.168-0.375 3.7266-2.2852 3.6602-4.4805z"/>
  <path d="m708.33 472.95-79.523 51.234c-4.5938 2.9609-7.3672 8.0586-7.3594 13.523v195.7c-0.042968 2.1875 1.5273 4.0742 3.6836 4.4336 2.1562 0.35547 4.25-0.92188 4.918-3.0039 26.812-78.68 64.359-187.5 87.586-254.6 0.86328-2.5195 0.035157-5.3086-2.0625-6.9492-2.0977-1.6445-5.0039-1.7812-7.2422-0.33984z"/>
  <path d="m607.99 482.25 112.76-72.656c3.2461-2.0859 5.6719-5.2305 6.8711-8.8945 1.1992-3.668 1.0977-7.6367-0.28516-11.238l-119.16-310.92c-1.5898-4.1367-5.5664-6.8633-9.9961-6.8633-4.4297 0-8.4062 2.7266-9.9961 6.8633l-121.2 316.22c-1.4219 3.6914-1.4961 7.7695-0.20703 11.512 1.2852 3.7422 3.8477 6.9102 7.2383 8.9492l113.11 67.383c3.1641 1.8945 6.793 2.8633 10.48 2.8008s7.2812-1.1523 10.379-3.1523z"/>
  <path d="m552.59 1099.7c-35.977-5.0156-71.648-10.102-106.99-16.406l-11.578-2.1328c-6.0391-1.125-11.535-4.2148-15.633-8.7891-4.1016-4.5742-6.5703-10.375-7.0312-16.5l-8.3906-111.61c-0.19922-3.7578-2.7305-6.9883-6.3281-8.0859-4.5781-1.2852-9.3398 1.3477-10.688 5.9062l-30.352 102.68c-1.457 4.9609-4.793 9.1602-9.2969 11.699-4.5039 2.543-9.8203 3.2305-14.82 1.918h-0.1875c-37.312-10.078-74.039-21.82-108.07-37.148-16.617-7.3359-32.617-16.008-47.836-25.922-3.5625-2.4844-7.0312-4.9688-10.477-7.5234s-6.6562-5.2031-9.375-8.0156c-5.6289-4.9883-10.633-10.637-14.906-16.828-0.84375-1.4062-1.9688-2.8125-2.6719-4.2188s-1.3594-2.7656-2.1094-4.125-0.9375-2.7188-1.4766-4.0547c-0.29297-0.62891-0.48047-1.3008-0.5625-1.9922l-0.44531-1.9453c-1.0352-5.207-0.85156-10.582 0.53906-15.703 1.8672-6.2344 4.8164-12.09 8.7188-17.297 4.7383-6.3633 10.121-12.219 16.055-17.484 13.504-11.734 28.258-21.953 43.992-30.469 16.574-9.168 33.648-17.398 51.141-24.656 36.129-14.812 73.07-27.551 110.65-38.156 18.984-5.4375 38.141-10.633 57.469-15.586l13.594-3.375c3.125-0.77344 5.1797-3.7578 4.793-6.9531-0.38672-3.1992-3.0977-5.6055-6.3164-5.6094-24.914 0-49.898 1.4062-74.836 3.8672-6.5938 0.65625-13.195 1.4375-19.805 2.3438-10.906 1.4141-21.93-1.5078-30.703-8.1328-12.047-9.1406-23.695-24-29.742-48.094-2.3438-9.2344-17.273-5.5781-18.047 3.8906-1.2305 17.562-4.7305 34.895-10.406 51.562-4.6719 12.516-14.75 22.25-27.422 26.484-13.688 4.6875-32.25 11.273-43.547 16.406h-0.28125c-6.6016 3.0273-14.059 3.625-21.059 1.6875s-13.09-6.2891-17.191-12.281c-21.797-32.625-30.094-82.523-33-107.81-0.40625-4.0859-2.2227-7.9023-5.1406-10.789-2.918-2.8906-6.7539-4.668-10.844-5.0312-4.7148-0.29688-9.3398 1.3672-12.785 4.5977-3.4414 3.2305-5.3984 7.7422-5.4023 12.465v232.64l-0.35156 5.5312 0.28125 5.5312c0.11328 3.6758 0.53516 7.3398 1.2656 10.945l1.0781 5.3672c0.28125 1.8516 0.71094 3.6797 1.2891 5.4609 1.125 3.3516 2.3438 6.7734 3.5391 10.031 1.1953 3.2578 2.9297 6.2109 4.4531 9.375 1.5234 3.1641 3.375 5.6953 5.1094 8.5547 6.7891 10.445 14.93 19.953 24.211 28.266 4.3125 4.1953 8.8828 7.6172 13.383 11.32s9.1641 6.7266 13.805 9.9375c18.207 11.91 37.477 22.109 57.562 30.469 19.363 8.1562 39.176 15.199 59.344 21.094 20 5.7188 40.078 10.602 60.234 14.648 40.16 7.7617 80.801 12.773 121.64 15 37.02 2.2383 74.145 2.2383 111.16 0 5.875-0.39844 10.484-5.1992 10.641-11.086l0.11719-4.2188c0.16797-5.8672-4.1406-10.902-9.9609-11.648z"/>
  <path d="m1134.1 702.63c-0.003906-4.7227-1.9609-9.2344-5.4023-12.465-3.4453-3.2305-8.0703-4.8945-12.785-4.5977-4.0898 0.36328-7.9258 2.1406-10.844 5.0312-2.918 2.8867-4.7344 6.7031-5.1406 10.789-2.9766 25.781-11.555 77.344-34.406 109.88-3.9453 5.5703-9.7539 9.543-16.379 11.191-6.6211 1.6523-13.617 0.875-19.715-2.1914-18.75-8.3906-38.742-12.469-56.766-21.094-32.086-15.164-23.32-51.867-25.781-75.516-0.39453-4.4805-3.957-8.0273-8.4375-8.3945-4.4844-0.37109-8.5781 2.5391-9.7031 6.8945-3.1055 12.883-8.9922 24.93-17.25 35.297-12.461 14.703-31.5 22.125-50.625 19.734l-4.0547-0.44531c-19.43-1.9922-38.883-3.3047-58.336-3.7969-4.0586-0.046874-7.5195 2.9297-8.0781 6.9531-0.5625 4.0195 1.957 7.8281 5.875 8.8906 18.469 5.0625 36.82 10.242 54.984 15.703 35.934 10.664 71.27 23.258 105.84 37.734 16.727 7.1172 33.051 15.152 48.891 24.07 15.059 8.2383 29.199 18.051 42.188 29.273 3.1406 2.625 5.8125 5.4609 8.5781 8.2031 2.4922 2.7188 4.8398 5.5664 7.0312 8.5312 3.9414 5.0508 7.0664 10.691 9.2578 16.711 1.6953 4.8633 2.1875 10.066 1.4297 15.164-0.83984 5.4648-2.7266 10.719-5.5547 15.469-6.3516 10.852-17.812 21.914-31.078 31.641-14.094 9.9961-29.043 18.734-44.672 26.109-16.316 7.8125-33.016 14.789-50.039 20.906-17.203 6.2578-34.781 11.977-52.594 17.203h-0.23438c-6.3359 1.8125-13.133 1.0469-18.906-2.1328-5.7773-3.1758-10.059-8.5117-11.914-14.836l-28.383-96.117c-0.88672-3.2578-3.5195-5.7461-6.8203-6.4453-2.4297-0.45312-4.9375 0.14844-6.8984 1.6562-1.957 1.5078-3.1836 3.7773-3.3672 6.2422l-8.3438 110.93c-0.48047 6.5469-3.0859 12.758-7.418 17.688-4.332 4.9336-10.152 8.3164-16.582 9.6406h-0.25781c-33.586 6.9141-67.547 12.656-101.81 18.516-4.9688 0.74609-8.9062 4.5703-9.7969 9.5156-0.51562 3.1797 0.33594 6.4297 2.3438 8.9453 2.0078 2.5195 4.9883 4.0703 8.2031 4.2734 35.477 2.0156 71.047 1.8047 106.5-0.63281 9.75-0.625 19.492-1.4062 29.227-2.3438 9.75-0.86719 19.453-2.1562 29.18-3.3984 19.453-2.6406 38.859-5.9688 58.219-9.9844 38.625-8.4609 77.133-19.289 114.59-36.117 19.312-8.4102 37.715-18.777 54.914-30.938 4.4062-3.2344 8.8125-6.4453 13.078-10.148 4.2656-3.7031 8.5078-7.4766 12.656-11.484 2.1094-1.8984 4.0078-4.3125 6-6.4688 2.0469-2.2383 3.9727-4.5859 5.7656-7.0312l5.4844-7.4062 4.9688-8.1797c6.75-11.879 11.051-24.988 12.656-38.555 0.56641-5.2227 0.65234-10.488 0.25781-15.727l0.25781 0.25781z"/>
  <path d="m756.33 1004.3c0.003906-3.5781-1.5742-6.9727-4.3086-9.2773-2.7344-2.3047-6.3477-3.2852-9.8711-2.6758-19.875 3.4688-40.031 5.9062-60.258 7.5-25.945 2.2266-52.055 2.9297-78.141 2.5781-47.055-0.5625-93.938-5.7109-139.99-15.375-3.3047-0.70703-6.75 0.11719-9.3789 2.2422-2.625 2.125-4.1484 5.3242-4.1445 8.7031v31.875c-0.019531 5.4062 3.8438 10.051 9.1641 11.016 47.668 8.168 96 11.816 144.35 10.898 27.656-0.51562 55.289-2.1562 82.828-5.3906 20.156-2.3906 40.227-5.7344 60.211-10.031 5.5859-1.2148 9.5586-6.168 9.5391-11.883z"/>
  <path d="m900.7 900.12c-4.4492-7.1562-9.9375-13.609-16.289-19.148-11.477-9.5781-24.293-17.43-38.039-23.297-26.25-11.555-53.203-18.305-80.18-23.438-13.477-2.6016-27.023-4.5234-40.547-6.2578-13.523-1.7344-27.07-3.0703-40.594-4.1953-27.07-2.3438-54.188-3.4219-81.305-3.8438s-54.281 0-81.562 1.3125c-13.617 0.65625-27.305 1.3594-40.992 2.7422-13.688 1.3828-27.422 2.7188-41.133 4.875-27.492 4.3125-55.055 10.406-82.383 21.867-14.566 5.957-28.137 14.105-40.242 24.164-7.0625 6.0586-13.141 13.176-18.023 21.094-5.8242 9.5156-9.0586 20.395-9.375 31.547-0.03125 11.234 2.8438 22.289 8.3438 32.086 4.6562 8.2266 10.512 15.715 17.367 22.219 11.844 10.836 25.184 19.914 39.609 26.953 12.137 6.0078 24.664 11.191 37.5 15.516v-58.43c-4.5234-1.875-8.9766-3.8203-13.289-5.8828-9.8867-4.5039-19.125-10.312-27.469-17.273-3.0312-2.6055-5.7031-5.5977-7.9453-8.9062-1.2852-1.8789-2.0898-4.043-2.3438-6.3047-0.17578-2.375 0.35156-4.7461 1.5234-6.8203 1.9414-3.6875 4.4023-7.0703 7.3125-10.055 8.0156-7.8359 17.039-14.566 26.836-20.016 10.801-6.2656 22.016-11.793 33.562-16.547 11.719-4.9453 23.953-9.375 36.375-13.383 50.617-15.848 103.29-24.164 156.33-24.68 53.172-1.0078 106.22 5.4922 157.57 19.312 25.266 7.2188 50.086 16.195 72.141 28.359 10.598 5.5781 20.371 12.598 29.039 20.859 3.5742 3.5469 6.6211 7.5859 9.0469 12 1.8477 3.3516 2.7461 7.1445 2.6016 10.969-0.28906 3.7266-1.543 7.3086-3.6328 10.406-2.6797 4.0508-5.9141 7.7031-9.6094 10.852-9.0117 7.3828-18.996 13.496-29.672 18.164-3.4453 1.5469-7.0312 3.0234-10.5 4.4531v43.148c9.4961-3.75 18.801-7.9844 27.867-12.68 13.664-6.8906 26.285-15.672 37.5-26.086 6.1992-5.9492 11.492-12.781 15.703-20.273 4.7656-8.5508 7.2383-18.195 7.1719-27.984-0.32031-9.6992-3.1719-19.145-8.2734-27.398z"/>
  <path d="m111.26 572.88c0 17.684-10.156 32.016-22.688 32.016s-22.688-14.332-22.688-32.016c0-17.684 10.156-32.016 22.688-32.016s22.688 14.332 22.688 32.016"/>
  <path d="m1134.1 471.94c0 17.684-10.156 32.016-22.688 32.016s-22.688-14.332-22.688-32.016 10.156-32.016 22.688-32.016 22.688 14.332 22.688 32.016"/>
  <path d="m393.75 532.22 26.484 45.352c4.1055 7.082 5.418 15.441 3.6797 23.438l-18.234 83.18c-0.54297 2.5156-2.6289 4.4062-5.1875 4.6992-2.5547 0.29297-5.0156-1.0781-6.1094-3.4102l-34.922-73.758c-4.0742-8.7695-4.0742-18.887 0-27.656l23.672-51.258c0.92578-2.0312 2.9023-3.3828 5.1328-3.5078 2.2266-0.12109 4.3438 1.0039 5.4844 2.9219z"/>
  <path d="m827.6 524.25 20.812 52.031c3.25 8.1172 3.3359 17.16 0.23438 25.336l-32.297 84.938c-0.98047 2.5625-3.4805 4.2188-6.2227 4.125-2.7383-0.097657-5.1172-1.9219-5.918-4.5469l-25.172-83.414c-2.9961-9.875-1.4609-20.57 4.1953-29.203l33.047-50.391c1.3008-2.0117 3.6172-3.125 6.0039-2.8906 2.3828 0.23828 4.4336 1.7891 5.3164 4.0156z"/>
  <path d="m297.52 229.1c7.5703 25.453 23.906 62.977 57.469 84.375 1.375 0.99219 2.2266 2.5508 2.3203 4.2422 0.097656 1.6914-0.57422 3.3359-1.8281 4.4766-12.984 9.1406-39.844 33.68-44.297 82.453-0.44531 4.8984-5.7422 5.5547-7.3594 0.9375-8.9766-25.359-27.258-63.398-58.992-77.461-1.6172-0.88281-2.6875-2.5117-2.8555-4.3438-0.16797-1.8359 0.58594-3.6328 2.0117-4.7969 14.742-9.1875 39.844-32.812 46.055-89.414 0.58594-4.8984 6.0234-5.3203 7.4766-0.46875z"/>
  <path d="m920.13 320.93c-7.6875 24.844-23.742 60.938-55.148 79.547-1.3125 1.0117-2.1328 2.5312-2.2695 4.1797-0.13281 1.6523 0.4375 3.2812 1.5664 4.4922 11.719 10.312 35.555 37.242 38.25 86.484 0.25781 4.9453 5.1094 6.0703 6.7266 1.5938 8.9766-24.68 26.812-61.289 56.25-72.398 3.1641-1.1953 3.8203-6.8672 1.0547-9.0703-13.266-10.5-35.531-36.375-39.68-93.609-0.28125-5.0625-5.2734-5.9531-6.75-1.2188z"/>
 </g>
</svg>
