<?xml version="1.0" encoding="UTF-8"?>
<svg width="1200pt" height="1200pt" version="1.1" viewBox="0 0 1200 1200" xmlns="http://www.w3.org/2000/svg">
 <g fill="#fff">
  <path d="m964.73 611.39c1.2461 2.5977 4.0625 4.0586 6.9062 3.5781 2.8398-0.47656 5.0234-2.7773 5.3516-5.6406 2.1016-25.246 1.6289-50.645-1.4062-75.797-5.1758-43.402-23.309-84.238-52.031-117.19-77.602-89.672-164.06-130.69-222.98-149.3-13.316-4.2617-27.812-2.75-39.961 4.1719-12.277 6.7969-21.023 18.559-24 32.273-1.0078 4.6875-1.9688 9.1172-2.8828 13.453-1.0977 5.6094-0.03125 11.43 2.9805 16.289s7.75 8.3984 13.262 9.9141c170.04 49.594 263.48 159.98 314.77 268.24z"/>
  <path d="m964.9 217.48c-39.922-37.922-89.234-64.516-142.85-77.039-95.484-22.664-217.97-55.102-274.57-70.312-7.5391-2.0938-15.617-0.74609-22.07 3.6797-6.4492 4.4258-10.613 11.48-11.375 19.266-14.062 165.45-79.219 320.13-122.67 407.34-20.426 41.039-46.812 78.832-78.305 112.15-72.469 76.641-135.94 163.41-169.78 211.78-23.262 33.113-40.641 69.992-51.375 109.01-17.789 65.625-21.961 131.25-22.758 167.79-0.089844 7.8906 3.0039 15.488 8.5859 21.07 5.5781 5.582 13.172 8.6836 21.062 8.6016h25.898c8.1875 0.082031 16.031-3.2695 21.637-9.2344 5.6055-5.9688 8.4609-14.008 7.8711-22.172-14.32-180.8 120.89-317.98 203.11-383.91 43.145-34.5 78.953-77.273 105.33-125.81l67.055-123.73c10.125-18.668 18.883-38.047 26.203-57.984l17.719-48.211c4.207-11.438 7.4844-23.191 9.7969-35.156 1.8047-9.375 3.9375-19.875 6.3984-31.102 5.9727-26.695 23.016-49.594 46.875-62.977 23.941-13.461 52.387-16.422 78.586-8.1797 64.828 20.484 159.91 65.484 244.8 163.59 34.824 39.98 56.805 89.523 63.07 142.17 5.1328 43.688 5.4375 101.46-13.125 159.84-4.9648 15.578-5.582 32.215-1.7812 48.117 8.168 34.027 13.793 68.613 16.828 103.48 1.1484 13.547 19.5 17.344 26.297 5.5078 176.55-307.29 18.82-526.78-86.461-627.59z"/>
 </g>
</svg>
