<?xml version="1.0" encoding="UTF-8"?>
<svg width="1200pt" height="1200pt" version="1.1" viewBox="0 0 1200 1200" xmlns="http://www.w3.org/2000/svg">
 <g fill="#fff">
  <path d="m574.73 1015c0.015625-4.6914-2.2266-9.1016-6.0234-11.859l-182.39-132.49c-6.5625-4.7734-10.445-12.395-10.453-20.508v-501.26c0-8.1211 3.8984-15.75 10.477-20.508l181.95-131.88c3.8047-2.7617 6.0625-7.1797 6.0703-11.883v-113.86c-0.011719-3.6406-1.375-7.1484-3.8281-9.8359-2.4531-2.6914-5.8203-4.375-9.4414-4.7227-3.625-0.34766-7.25 0.66406-10.168 2.8398l-263.32 195.63c-8.875 6.6211-14.094 17.051-14.062 28.125v633.59c-0.003906 11.035 5.2109 21.422 14.062 28.008l263.79 197.16c2.918 2.1875 6.543 3.207 10.172 2.8633s7-2.0273 9.4531-4.7266c2.4531-2.6953 3.8125-6.2109 3.8125-9.8555z"/>
  <path d="m773.86 377.46c-0.027344-9.8398-4.7695-19.066-12.75-24.82l-143.34-103.31c-5.2422-3.7891-11.543-5.8281-18.012-5.8281s-12.77 2.0391-18.012 5.8281l-142.5 103.27c-7.9805 5.8008-12.695 15.074-12.68 24.938v444.07c0.007812 9.8359 4.7109 19.074 12.656 24.867l142.83 103.76c5.2539 3.8047 11.574 5.8555 18.059 5.8555s12.805-2.0508 18.059-5.8555l142.97-103.73c7.9453-5.7461 12.656-14.945 12.68-24.75zm-191.34 3.6562-59.859 117.42c-10.219 20.062-40.5 12.797-40.5-9.7266v-66.258c0.007812-12.992 6.3828-25.156 17.062-32.555l51.961-36.094c18.352-12.82 41.461 7.3594 31.336 27.211z"/>
  <path d="m912.38 254.09-263.95-195.75c-2.918-2.1758-6.543-3.1875-10.168-2.8398-3.6211 0.34766-6.9883 2.0312-9.4414 4.7227-2.4531 2.6875-3.8164 6.1953-3.8281 9.8359v114.52c-0.003906 4.7188 2.2617 9.1523 6.0938 11.906l182.81 131.77c6.5859 4.7383 10.5 12.348 10.523 20.461l0.9375 250.38v0.9375l-0.9375 250.38c-0.027343 8.082-3.9102 15.668-10.453 20.414l-182.48 132.3c-3.8008 2.7656-6.0469 7.1836-6.0469 11.883v114.84c0.011718 3.6406 1.375 7.1484 3.8281 9.8359 2.4531 2.6914 5.8203 4.375 9.4414 4.7227 3.625 0.34766 7.25-0.66406 10.168-2.8398l263.6-196.64c8.8477-6.5938 14.059-16.977 14.062-28.008v-634.76c-0.003906-11.074-5.2539-21.492-14.156-28.078z"/>
 </g>
</svg>
