<?xml version="1.0" encoding="UTF-8"?>
<svg width="1200pt" height="1200pt" version="1.1" viewBox="0 0 1200 1200" xmlns="http://www.w3.org/2000/svg">
 <g fill="#fff">
  <path d="m289.85 977.34-29.695 51.938c-3.0898 5.4023-7.4023 10.008-12.586 13.453l-92.602 61.711c-3.5859 2.4023-5.1797 6.8672-3.9297 11 1.25 4.1328 5.0508 6.9609 9.3672 6.9766h135.14c4.2578 0 8.3359-1.7188 11.305-4.7695 2.9727-3.0469 4.582-7.168 4.4688-11.426l-3.1406-124.22c-0.10547-4.4023-3.1289-8.1953-7.3945-9.2812-4.2695-1.0859-8.7383 0.80078-10.934 4.6172z"/>
  <path d="m763.71 1011.3c-11.109-9.2344-32.812-27.234-55.359-45.961-2.8516-2.375-6.8008-2.9375-10.199-1.4453-3.4023 1.4883-5.668 4.7695-5.8555 8.4766l-6.5625 133.59c-0.21094 4.3164 1.3555 8.5352 4.3359 11.664 2.9805 3.1328 7.1133 4.9062 11.438 4.9062h203.58c3.7031 0.003906 7.0938-2.0781 8.7656-5.3828 1.6758-3.3008 1.3477-7.2656-0.84375-10.25l-46.219-62.812c-5.7148-7.7891-14.254-13.023-23.789-14.578l-61.664-10.125c-6.4922-1.0742-12.578-3.8672-17.625-8.0859z"/>
  <path d="m357.89 1107-8.3438-329.09c-0.50391-20.09-7.5781-39.457-20.133-55.148-24.398-30.469-69.141-84.047-118.38-132.66-4.7695-4.6758-7.9414-10.742-9.0625-17.328-1.1172-6.5898-0.12891-13.359 2.8281-19.352 22.055-44.32 72.656-150.14 89.227-217.97 0.8125-3.4023 2.8125-6.4062 5.6406-8.4688 2.8242-2.0625 6.293-3.0508 9.7852-2.7891 3.4883 0.26563 6.7695 1.7617 9.2539 4.2266 7.0312 7.0312 15.797 15.398 25.477 24.188 8.9375 8.0938 14.043 19.582 14.062 31.641v95.719c0.003906 7.0078 3.0039 13.68 8.2422 18.336 5.2422 4.6602 12.219 6.8555 19.18 6.0391 8.2148-0.97266 15.395-6.0117 19.102-13.406 16.406-32.625 60.539-127.2 70.688-217.62 1.4219-11.734 7.0391-22.555 15.82-30.469 36.07-32.812 130.55-118.99 175.41-160.85 3.2305-3.0117 7.5352-4.5938 11.945-4.3945 4.4102 0.20312 8.5547 2.1758 11.492 5.4727l75.914 85.383c2.0547 2.3125 3.0586 5.3711 2.7812 8.4531-0.28125 3.0781-1.8203 5.9062-4.2578 7.8125l-24.305 19.148c-5.957 4.6602-13.312 7.168-20.875 7.1289-7.5664-0.042968-14.891-2.6367-20.797-7.3633l-17.062-13.828c-5.4258-4.3516-13.309-3.7031-17.953 1.4766-15.75 17.625-51.258 57.352-82.148 91.711-7.543 8.4297-11.715 19.344-11.719 30.656v77.344s106.9-35.156 259.97-176.6c2.9453-2.7305 6.7227-4.3867 10.723-4.707 4-0.31641 7.9922 0.72266 11.332 2.9492l110.7 74.836c2.6445 1.7383 4.4297 4.5117 4.9141 7.6406 0.48047 3.1289-0.38281 6.3125-2.3828 8.7656l-9.1641 11.109c-7.1992 8.7656-17.281 14.688-28.445 16.707-11.164 2.0156-22.68 0-32.492-5.6914-7.0586-4.1641-14.328-7.9688-21.773-11.391-8-3.6875-16.887-5.0039-25.613-3.7891-8.7227 1.2109-16.918 4.9023-23.605 10.633-33.211 28.547-96.422 89.062-118.78 152.6 6.9023 12.168 19.289 20.227 33.211 21.609 0 0 146.7-55.289 228.89-109.52 3.7969-2.5078 8.3398-3.6406 12.871-3.2148 4.5312 0.42578 8.7773 2.3867 12.043 5.5586 19.336 18.75 60.094 55.406 99.914 72.656 3.4961 1.4883 6 4.6484 6.6484 8.3945 0.64844 3.7461-0.64453 7.5664-3.4375 10.145l-26.25 24.07c-4.8086 4.4219-10.816 7.332-17.27 8.3555-6.4531 1.0273-13.066 0.125-19.012-2.5898-19.664-9.0234-52.336-20.93-87.75-20.93 0 0-90.258 59.016-123.52 107.81 0 0 108.94 29.953 191.06 34.148 4.9414 0.24609 9.6172 2.3164 13.125 5.8125 3.5039 3.4922 5.5938 8.1602 5.8594 13.102l5.5781 102.38c0.35547 5.6562-3.5664 10.688-9.1406 11.719l-20.086 3.6562c-8.3398 1.5859-16.973-0.066406-24.145-4.6133-7.168-4.5508-12.336-11.656-14.457-19.879-3.1445-13.688-8.9688-26.613-17.133-38.039 0 0-102.14-11.883-173.44 4.6875 0 0-50.18 65.859-96.375 113.48-19.902 20.496-31.652 47.543-33.047 76.078l-10.242 208.43c-0.19141 4.0508-1.9414 7.875-4.875 10.672-2.9375 2.7969-6.8438 4.3555-10.898 4.3516h-249.54c-4.1172-0.003906-8.0703-1.6172-11.016-4.4922-2.9453-2.8789-4.6523-6.7891-4.7578-10.906z"/>
  <path d="m177.38 881.72 35.156 41.977c2.4648 2.9453 3.4023 6.8789 2.5312 10.617l-14.062 60.727c-1.1836 5.0391-5.4062 8.7891-10.547 9.375l-90.984 10.43c-4.6875 0.52734-9.2656-1.6836-11.766-5.6836s-2.4805-9.082 0.046875-13.066l69.891-113.02c2.0859-3.3047 5.625-5.418 9.5234-5.6836 3.8984-0.26953 7.6914 1.3359 10.211 4.3242z"/>
  <path d="m110.16 715.59 8.3906 53.531c0.5625 3.7578 3.3398 6.8047 7.0312 7.7109l89.062 22.547c3.375 0.91797 6.9805-0.12109 9.3516-2.6953 2.3711-2.5703 3.1094-6.25 1.9219-9.5391l-22.43-65.836c-1.1328-3.4023-4.1094-5.8594-7.6641-6.3281l-75-10.242c-2.9805-0.45703-5.9961 0.54687-8.1094 2.6953-2.1133 2.1484-3.0664 5.1836-2.5547 8.1562z"/>
  <path d="m755.23 905.27 38.016 66.258c2.2383 3.918 6.5742 6.1484 11.062 5.6953l101.09-10.102c4.0117-0.40625 7.5117-2.8906 9.2227-6.5391 1.707-3.6523 1.375-7.9336-0.87891-11.273l-50.156-74.273c-2.582-3.8164-7.2031-5.7109-11.719-4.8047l-88.992 18.047c-3.6211 0.73047-6.668 3.1641-8.1836 6.5352-1.5156 3.3672-1.3125 7.2617 0.54297 10.457z"/>
  <path d="m934.01 1032.8c15.703-13.336 46.242-40.734 61.734-54.703 1.9766-1.7852 4.75-2.3789 7.2812-1.5625 2.5352 0.81641 4.4375 2.9219 5 5.5234l12.234 55.617c0.39453 1.7344 1.3789 3.2734 2.7891 4.3594l88.195 66.984c2.5547 1.9414 3.5859 5.2969 2.5625 8.3398-1.0234 3.043-3.875 5.0898-7.0859 5.0898h-118.85c-5.9414 0-11.484-2.9961-14.742-7.9688l-41.719-63.562c-3.8242-5.832-2.7109-13.598 2.6016-18.117z"/>
  <path d="m971.18 843.49-20.672 29.273c-1.5703 2.2422-1.9492 5.1055-1.0156 7.6758 0.93359 2.5703 3.0625 4.5273 5.7031 5.2383l49.875 14.062c2.2578 0.63281 4.6797 0.28906 6.6719-0.94531 1.9961-1.2305 3.3828-3.2422 3.8281-5.5469l6.0469-31.359c0.78516-4.1133-1.5703-8.1797-5.5312-9.5391l-35.156-11.953c-3.5742-1.2891-7.5703-0.019532-9.75 3.0938z"/>
 </g>
</svg>
