<?xml version="1.0" encoding="UTF-8"?>
<svg width="1200pt" height="1200pt" version="1.1" viewBox="0 0 1200 1200" xmlns="http://www.w3.org/2000/svg">
 <g fill="#fff">
  <path d="m1079.5 415.73c25.055 0 25.102-38.953 0-38.953s-25.102 38.953 0 38.953z"/>
  <path d="m948.59 237.14c11.414 7.2188 27.258 8.8594 40.289 5.4844 10.391-2.6172 19.379-9.1289 25.102-18.188 7.0234-11.848 7.2734-26.523 0.65625-38.602-1.543-2.8086-3.4492-5.4023-5.6719-7.7109-6.7266-10.246-17.555-17.082-29.695-18.75-17.297-2.3438-36.164 5.2031-44.742 21.094-5.3086 9.4609-6.8047 20.59-4.1953 31.121 2.6133 10.531 9.1445 19.668 18.258 25.551z"/>
  <path d="m427.15 110.7c2.6641 2.6562 5.9844 4.5625 9.625 5.5195 3.6367 0.96094 7.4648 0.94141 11.094-0.058594 1.2656-0.36328 2.5-0.84375 3.6797-1.4297 1.0898-0.36328 2.1445-0.83203 3.1406-1.4062l4.1484-3.1641c1.9531-1.7852 3.4062-4.0469 4.2188-6.5625 0.91797-1.5625 1.4062-3.3438 1.4062-5.1562 0.46875-1.7812 0.46875-3.6562 0-5.4375 0-1.8125-0.48828-3.5938-1.4062-5.1562-0.8125-2.5234-2.2656-4.793-4.2188-6.5859-4.457-4.3438-10.418-6.8008-16.641-6.8672-7.2891-0.60938-14.836 4.5-18.375 10.547-1.9141 3.2617-2.918 6.9766-2.9062 10.758-0.13281 2.8477 0.49609 5.6797 1.8281 8.2031 0.85937 2.6055 2.3789 4.9453 4.4062 6.7969zm21.984 4.6875h-0.23437 0.30469z"/>
  <path d="m143.34 225c-0.003906-3.9688-0.58203-7.9141-1.7109-11.719-0.71875-3.3477-1.9688-6.5625-3.7031-9.5156-0.32813-0.5625-0.63281-1.125-0.98438-1.6406-3.4336-5.6133-8.5625-9.9883-14.648-12.492-2.0664-0.91406-4.2188-1.6289-6.4219-2.1328-13.828-4.3359-30.469 1.2891-37.266 14.695-0.97266 2.0117-1.7539 4.1055-2.3438 6.2578-0.77734 1.7227-1.4648 3.4805-2.0625 5.2734-0.27734 0.91016-0.47266 1.8438-0.58594 2.7891-0.73828 3.4922-1.1367 7.0469-1.1953 10.617 0.17578 9.2305 3.8359 18.055 10.242 24.703 6.5391 6.3516 15.285 9.9141 24.398 9.9375 9.6406-0.21094 18.82-4.1719 25.594-11.035 6.7695-6.8633 10.605-16.098 10.688-25.738z"/>
  <path d="m217.66 960.49c-4.1367 1.1953-7.8477 3.5352-10.711 6.75-3.7266 3.8945-5.8594 9.0469-5.9766 14.438 0.042969 5.3984 2.1875 10.57 5.9766 14.414 3.8242 3.8242 9.0078 5.9727 14.414 5.9766l5.4375-0.72656c3.4023-0.94141 6.5039-2.75 9-5.25 3.2227-2.8555 5.5664-6.5703 6.75-10.711 4.5234-14.531-10.359-29.414-24.891-24.891z"/>
  <path d="m175.78 1043.3c-19.312-28.312-61.828-23.695-78.703 4.9219-6.0586 10.492-8.207 22.789-6.0586 34.711 2.1445 11.922 8.4414 22.699 17.777 30.422 5.0156 5.6992 11.695 9.6836 19.098 11.387 7.3984 1.7031 15.148 1.0391 22.152-1.8945 1.1211-0.48047 2.2148-1.0234 3.2812-1.6172 8.1992-2.6641 15.41-7.7305 20.691-14.543 5.2852-6.8125 8.3945-15.055 8.9336-23.66 3.0547-13.668 0.46875-27.988-7.1719-39.727z"/>
  <path d="m1035.7 894.59c-9.6562-0.59766-19.285 1.582-27.742 6.2812-8.4609 4.6953-15.398 11.715-20 20.227-12.164 23.156-3.9609 53.742 19.312 66.516 1.8242 0.96094 3.7031 1.8125 5.625 2.5547 9.4883 5.0586 20.555 6.2734 30.914 3.3984 22.359-6.1641 33.938-27.023 35.32-48.891 1.6875-26.93-16.734-47.953-43.43-50.086z"/>
  <path d="m715.2 655.17c0 11.082-8.9805 20.062-20.062 20.062-11.082 0-20.062-8.9805-20.062-20.062s8.9805-20.062 20.062-20.062c11.082 0 20.062 8.9805 20.062 20.062"/>
  <path d="m1125.4 525.87c-8.3633-18.578-18.965-36.07-31.57-52.078-1.5273-1.9922-4.207-2.7031-6.5234-1.7344-2.3125 0.96484-3.6875 3.3711-3.3438 5.8594 4.8984 37.664-10.219 60.164-22.922 72.07-8.1367 7.4727-18.355 12.297-29.297 13.828-9.6406 1.5312-19.453 1.6562-29.133 0.375-10.441-1.5352-20.211-6.0742-28.121-13.066-7.9062-6.9922-13.609-16.133-16.41-26.309-21.305-76.289-68.953-139.43-88.055-162.59-2.7734-3.375-4.0859-7.7188-3.6445-12.066 0.4375-4.3477 2.5938-8.3398 5.9883-11.09 2.0312-1.6641 4.2227-3.125 6.5391-4.3594 4.8125-2.4883 10.199-3.6445 15.609-3.3438 5.4062 0.30078 10.637 2.0469 15.141 5.0547 21.305 13.852 35.156 38.812 40.359 49.805 1.8438 3.832 5.3398 6.6133 9.4922 7.5469 20.227 4.6875 50.766 1.3125 75-2.8359 2.4297-0.41406 4.1914-2.5391 4.1523-5.0039-0.042969-2.4648-1.875-4.5312-4.3164-4.8633-13.781-1.8516-26.344-4.5469-34.734-6.5391-7.6875-1.832-14.816-5.5078-20.766-10.711-24.797-21.797-51.562-60.938-62.086-77.344-2.5625-3.9023-7.793-5.0117-11.719-2.4844-21.094 13.688-53.906 22.172-73.031 26.227-8.8477 1.9102-18.062-0.77734-24.492-7.1484-37.078-36.914-84.727-53.906-104.32-59.859-9.9688-2.9102-18.645-9.125-24.609-17.625-4.7031-6.9219-7.9414-14.727-9.5156-22.945-1.1094-5.6328 0.14453-11.473 3.4688-16.152 3.3203-4.6797 8.4219-7.7852 14.105-8.5898 5.6836-0.80859 11.449 0.75781 15.941 4.3281 13.742 11.152 26.676 23.27 38.695 36.258 2.7773 2.9766 6.543 4.8438 10.594 5.2422 4.0508 0.40234 8.1094-0.6875 11.414-3.0625 27.07-19.734 35.156-44.531 37.383-61.5 0.28125-2.4336-1.0859-4.7617-3.3516-5.6992-2.2656-0.93359-4.8789-0.25391-6.3984 1.668-5.875 7.9492-13.695 14.254-22.711 18.305-4.793 2.0195-10.066 2.6094-15.184 1.6953-5.1211-0.91016-9.8672-3.2812-13.668-6.8281-16.219-14.812-33.516-41.203-43.617-57.773-1.8789-3.0859-5.1953-5.0156-8.8086-5.125s-7.0352 1.6172-9.0977 4.5859c-25.781 36.727-73.523 82.148-96.094 102.77-7.8828 7.2852-11.547 18.059-9.75 28.641 11.32 69.164 39.844 148.85 52.383 182.16 1.5195 4.0391 4.7266 7.2148 8.7773 8.6953 4.0547 1.4805 8.5508 1.1211 12.316-0.98437l12.867-7.0312c11.738-6.4922 25.648-7.8008 38.391-3.6094 20.461 6.7969 38.578 19.664 53.906 34.266 42.539 40.594 65.625 97.406 66.328 156.23 0.75 55.289-13.852 95.766-25.078 118.57-2.3086 4.6758-6.8555 7.832-12.043 8.3633-5.1836 0.52734-10.277-1.6484-13.48-5.7617-7.3945-9.4453-15.43-18.375-24.047-26.719-3.9883-3.8711-10.105-4.5234-14.82-1.582-4.7188 2.9414-6.8203 8.7188-5.1016 14.004 20.555 63.117 25.945 123.49 27.234 157.22 0.17578 4.5547-2.4609 8.7461-6.6445 10.559-4.1797 1.8125-9.0469 0.86719-12.246-2.3789l-35.508-35.93c-3.1328-3.1445-7.082-5.3477-11.402-6.3672-4.3164-1.0195-8.8359-0.8125-13.043 0.60156-112.22 37.148-178.95 2.6953-204.89-16.406-4.1406-3.0586-7.3555-7.1992-9.2891-11.969-1.9375-4.7656-2.5195-9.9766-1.6797-15.055 1.3438-8.2773 3.5195-16.395 6.4922-24.234 1.1758-3.1523 0.66406-6.6875-1.3555-9.375-2.0195-2.6914-5.2734-4.168-8.6289-3.9141-37.5 2.3438-78.984 16.406-104.62 26.625-3.2305 1.2383-6.8867 0.089844-8.8281-2.7695-1.9453-2.8594-1.668-6.6836 0.67187-9.2305 6.5508-7.1133 13.852-13.504 21.773-19.055 12.074-8.3477 25.465-14.613 39.609-18.539 54.094-15.469 72.656-53.039 78.82-74.766 1.2695-4.5039 4.0703-8.4258 7.9219-11.086 3.8516-2.6641 8.5078-3.8984 13.172-3.4922l40.406 3.6797c1.9141 0.19922 3.6992-0.99609 4.2383-2.8438 0.54297-1.8477-0.31641-3.8164-2.0352-4.6797l-69.164-35.602c-3.3359-1.707-7.2773-1.7695-10.66-0.16016-3.3867 1.6055-5.8281 4.6992-6.6133 8.3633-14.555 63.984-57.633 77.461-79.805 80.062-3.7188 0.44531-7.4688-0.55859-10.469-2.8008-3.0039-2.2422-5.0273-5.5547-5.6562-9.2461-5.8125-33.117-4.5-69.469-2.1328-95.672 2.8945-34.844 14.301-68.445 33.211-97.852 28.125-43.125 63.281-61.945 86.719-70.078 6.9609-2.4375 14.484-2.7891 21.645-1.0039 7.1562 1.7812 13.637 5.6172 18.645 11.035 23.109 25.008 54.586 57.914 80.391 84.68 4.0234 4.1289 10.422 4.793 15.203 1.5742s6.582-9.3945 4.2734-14.676l-159.38-360.68c-1.2773-3.8477-5.1953-6.168-9.1836-5.4375-3.9922 0.73438-6.832 4.293-6.6602 8.3438-0.32812 6.4922-0.86719 12.516-1.5469 18.117-4.1406 35.426-26.742 66.008-59.391 80.367-47.086 20.32-54.398 61.102-54.398 61.102-9.375 32.297-29.203 56.25-44.672 70.969-6.168 5.8516-14.055 9.5664-22.492 10.598-8.4414 1.0273-16.988-0.67969-24.383-4.8789-24.281-13.641-63.609-50.367-92.93-73.078-9.375-7.3125-21.375 5.25-13.594 14.32l86.438 105.47c14.062 16.406 7.6641 42.469-12.891 49.43-4.0273 1.3477-8.1953 2.2383-12.422 2.6484-5.8398 0.5625-11.613 1.6602-17.25 3.2812-75.141 22.078-79.43 98.672-79.43 98.672-3.8203 58.852 25.336 90.68 46.477 107.81 6.9727 5.4648 14.547 10.121 22.57 13.875 47.742 20.555 77.719 76.312 88.57 99.75 2.7422 5.8242 0.99609 12.777-4.1719 16.617-40.57 29.555-49.219 61.406-48.703 84.375 0.125 4.1133 3.1094 7.582 7.1562 8.3164 4.0508 0.73438 8.0625-1.4609 9.625-5.2695 2.1797-5.418 4.6836-10.703 7.5-15.82 8.082-14.531 22.746-24.199 39.285-25.898 16.539-1.6992 32.863 4.7852 43.73 17.367 35.156 40.383 81.141 72.047 105.3 87.281 3.9336 2.4922 6.5234 6.6367 7.0273 11.27 0.50781 4.6289-1.1211 9.2383-4.4258 12.52l-27.047 26.836c-2.625 2.7305-5.7422 4.9414-9.1875 6.5156-16.406 7.1719-36.305-1.3594-49.734-9.375-1.7227-1.0234-3.918-0.76953-5.3594 0.62109-1.4453 1.3867-1.7852 3.5703-0.82812 5.332l16.008 29.32c2.1406 3.9453 6.1602 6.5117 10.641 6.7969l48.328 3.0938c3.9453 0.27734 7.8008-1.2578 10.477-4.1719 17.191-19.309 38.73-34.25 62.836-43.594 12.738-4.8281 26.934-3.9766 39 2.3438 9.2148 4.8125 18.93 8.6094 28.969 11.32 22.816 6.125 47.16 2.2188 66.914-10.734 6.4453-4.2188 12.891-8.0625 19.102-11.508 14.293-7.9219 31.016-10.273 46.938-6.5938 15.922 3.6797 29.918 13.125 39.289 26.516 5.7188 8.1562 10.359 15.492 12.938 19.641 1.5352 2.5508 3.2344 5.0039 5.0859 7.3359 28.125 34.711 63 36.352 85.641 32.531 17.422-2.7656 32.535-13.543 40.828-29.109 14.062-27.047 12.539-60.445 10.219-78.68-0.97266-7.8398-3.5156-15.406-7.4766-22.242-22.473-38.73-41.387-79.422-56.508-121.57-1.168-3.4258 0.36719-7.1875 3.6016-8.8125 3.2305-1.625 7.168-0.61328 9.2188 2.3672l42.07 62.109c2.3906 3.543 6.5547 5.4609 10.805 4.9688 4.2461-0.49609 7.8594-3.3164 9.375-7.3125 18.117-48.469 60.398-68.203 83.578-75.609 11.77-3.7305 22.688-9.7461 32.133-17.695 20.953-17.648 45.492-38.227 58.898-49.477 5.2852-4.3594 6.6602-11.891 3.2578-17.836-7.0078-12.547-11.305-26.422-12.609-40.734-0.69531-6.3516 0.39063-12.77 3.1406-18.539 18.609-38.391 53.133-70.312 68.297-83.344 4.8828-4.1211 8.1953-9.8008 9.375-16.078l5.1797-27.305c1-5.4453 0.33984-11.062-1.8984-16.125zm-906.68 59.766c-0.57812 15.406-1.2031 30.812-1.875 46.219-0.67969 15.938-13.195 24.047-25.594 24.305-14.062 2.6953-30.75-6.1641-40.688-17.086-17.625-19.383-21.844-52.102-13.219-76.336s36.75-44.531 63.281-37.969c8.6836 2.3438 15.469 9.1289 17.812 17.812 3.1641 13.758 0.82031 29.039 0.28125 43.055zm592.73 373.9c8.8086 4.7148 15.633 12.434 19.242 21.75 7.1484 11.062 8.4844 25.781 5.0859 38.32-2.1562 8.2422-6.9688 15.547-13.691 20.785-6.7227 5.2344-14.984 8.1094-23.504 8.1836-3.9922-0.015624-7.9688-0.52734-11.836-1.5234-8.8047-1.457-17.039-5.2969-23.812-11.109-12.258-10.828-18.328-29.297-13.664-45.281 1.1758-4.0547 2.9531-7.9102 5.2734-11.438 4.5469-10.5 12.586-19.172 24.539-22.195 1.0312-0.26563 2.0625-0.47656 3.0938-0.63281 9.7969-2.7969 20.293-1.668 29.273 3.1406zm206.74-316.01c-4.7305 12.457-6.6133 25.816-5.5078 39.094 0.91406 11.391 2.8594 21.938 0.60938 33.305-2.0977 10.676-7.6875 20.348-15.891 27.492-9.0469 10.031-21.469 17.344-33.75 16.664-30.469-1.6641-24.422-39.398-18.07-58.898 9-27.68 21.492-54.117 40.289-76.477 12.234-14.531 38.977 1.0781 32.32 18.82z"/>
 </g>
</svg>
