<?xml version="1.0" encoding="UTF-8"?>
<svg width="1200pt" height="1200pt" version="1.1" viewBox="0 0 1200 1200" xmlns="http://www.w3.org/2000/svg">
 <g fill="#fff">
  <path d="m637.66 82.711c7.3984 17.863-1.0859 38.348-18.953 45.75-17.863 7.3984-38.348-1.0859-45.75-18.953-7.3984-17.867 1.0859-38.348 18.953-45.75 17.863-7.3984 38.348 1.0859 45.75 18.953"/>
  <path d="m1095 272.65c17.18-13.078 34.266-35.555 42.609-74.18 3.5195-16.852 4.8281-34.09 3.8906-51.281-0.87891-20.031-3.0781-39.98-6.5859-59.719-1.0703-5.5312-4.332-10.391-9.0391-13.484-4.7109-3.0898-10.465-4.1484-15.969-2.9336-5.5 1.2148-10.273 4.5977-13.242 9.3867-21.094 33.891-52.805 82.031-77.883 110.16-6.6055 7.2812-11.172 16.172-13.242 25.781 0 0.30469-0.11719 0.63281-0.1875 0.96094-9.8906 50.648 48.539 86.602 89.648 55.312z"/>
  <path d="m958.01 585.35c4.0898 5.043 9.5781 8.7695 15.773 10.711 14.508 4.4766 29.883-3.2109 36.492-16.898 7.0312-14.555 14.719-40.031 12.844-80.227-1.0078-21.727-31.031-26.719-39.164-6.5391 0 0-12.562 23.906-29.602 60.586-2.5156 5.1875-3.5078 10.984-2.8594 16.715 0.64453 5.7266 2.9062 11.156 6.5156 15.652z"/>
  <path d="m437.65 764.86c24.848 26.012 56.902 44.004 92.047 51.664 35.148 7.6641 71.781 4.6484 105.2-8.6562 96.352-37.781 231.63-140.11 283.85-490.1 4.0781-27.141 7.0312-54.398 9.6328-81.727 2.5078-26.484 11.859-86.039 46.875-134.23 13.078-18.047-1.875-43.008-24.023-40.547-35.953 4.0312-81.82 22.828-116.79 83.742-7.4883 13.309-13.57 27.359-18.141 41.93-12.047 37.312-51.375 125.79-139.64 137.04 0 0-95.273 14.977-112.22-83.367-1.4531-13.301-4.3867-26.395-8.7422-39.047-7.0312-19.711-35.156-18.984-41.602 0.91406-16.691 50.449-46.645 95.484-86.719 130.38-27.727 24.398-50.227 54.328-63.703 88.711-17.578 44.789-29.18 109.66-8.7188 193.34 0.09375-0.023438 22.055 85.875 82.688 149.95zm124.85-251.27c7.6953 0 15.074 3.0586 20.516 8.5 5.4414 5.4414 8.5 12.82 8.5 20.516 0 7.6953-3.0586 15.074-8.5 20.516-5.4414 5.4414-12.82 8.5-20.516 8.5s-15.074-3.0586-20.516-8.5c-5.4414-5.4414-8.5-12.82-8.5-20.516 0-7.6953 3.0586-15.074 8.5-20.516 5.4414-5.4414 12.82-8.5 20.516-8.5zm-39.047 131.13 51.258-13.898c10.102-2.7188 20.867-1.3203 29.938 3.8828 9.0742 5.207 15.711 13.797 18.461 23.891l6.1406 22.641c2.7383 10.109 1.3555 20.895-3.8555 29.984-5.207 9.0859-13.809 15.738-23.918 18.484l-51.258 13.922c-10.117 2.7383-20.906 1.3516-30-3.8594-9.0938-5.2148-15.742-13.824-18.492-23.938l-6.1406-22.617c-2.7383-10.117-1.3516-20.906 3.8594-30 5.2148-9.0938 13.824-15.742 23.938-18.492zm-66.492-113.3c9.5703 0.007813 18.75 3.8125 25.512 10.586 6.7656 6.7695 10.562 15.953 10.559 25.523s-3.8086 18.75-10.578 25.516c-6.7734 6.7656-15.953 10.566-25.523 10.562-9.5703-0.003906-18.75-3.8047-25.516-10.574-6.7695-6.7695-10.57-15.949-10.57-25.52 0-9.5664 3.7969-18.738 10.555-25.504 6.7578-6.7695 15.926-10.578 25.492-10.59z"/>
  <path d="m263.81 1103.7c18.789 14.598 43.23 19.777 66.328 14.062 50.367-12.469 105.84-29.438 143.32-41.391 12.617-4.043 26.234-3.6523 38.598 1.1094 12.363 4.7617 22.727 13.609 29.371 25.07l10.594 18.258c6.4844 11.172 18.422 18.047 31.336 18.047h338.2c25.938 0.10156 51.332-7.4219 73.031-21.633 39.281-25.922 70.805-64.617 94.453-101.58 40.5-63.281 62.906-136.52 67.195-211.57 6.2344-108.87-16.289-192.02-36.961-243.61-6.8203-17.062-32.109-13.195-33.516 5.1094-11.719 151.64-51.375 215.37-88.125 241.17-40.523 28.5-94.852-9.5859-83.273-57.75 4.2148-16.328 10.625-32.012 19.055-46.617 3.1328-5.543 4.1289-12.039 2.7969-18.266-1.3281-6.2266-4.8906-11.75-10.016-15.531l-0.75-0.53906c-5.8398-4.2227-13.18-5.8125-20.242-4.3789-7.0625 1.4336-13.199 5.7578-16.93 11.926-54.305 87.469-205.8 180.8-205.8 180.8-75.633 40.43-270.47 86.25-334.12 100.59-13.484 3.0508-27.629 0.76562-39.469-6.375-52.031-31.43-120.02-83.836-163.57-118.55-16.988-12.887-39.324-16.352-59.422-9.2188-20.094 7.1367-35.242 23.91-40.301 44.629-5.0586 20.715 0.66016 42.586 15.207 58.176 71.273 73.172 158.34 143.37 203.02 178.05z"/>
  <path d="m321.23 888.68c4.5234 4.5352 10.238 7.7031 16.48 9.1367 6.2461 1.4336 12.766 1.0781 18.816-1.0273l52.312-18.211c10.426-3.6797 18.297-12.359 20.941-23.094 2.6445-10.734-0.29297-22.078-7.8164-30.18-48.586-51.703-111.4-112.95-144.68-143.7-9.8789-9.1367-22.645-14.523-36.082-15.234s-26.699 3.3008-37.488 11.344c-13.43 10-21.852 25.348-23.07 42.047-1.2188 16.703 4.8828 33.109 16.719 44.953z"/>
 </g>
</svg>
