<?xml version="1.0" encoding="UTF-8"?>
<svg width="1200pt" height="1200pt" version="1.1" viewBox="0 0 1200 1200" xmlns="http://www.w3.org/2000/svg">
 <g fill="#fff">
  <path d="m476.06 269.81 57.773-88.781c3.0352-4.6289 7.2734-8.3477 12.258-10.758l189.23-91.406c2.5703-1.1914 5.6211-0.4375 7.3438 1.8125 1.7188 2.25 1.6484 5.3945-0.17188 7.5625l-161.6 185.98c-5.75 6.6328-14.098 10.438-22.875 10.43h-73.875c-3.5195-0.007813-6.7539-1.9336-8.4375-5.0234-1.6836-3.0898-1.5508-6.8516 0.35156-9.8125z"/>
  <path d="m1112.7 309.38-103.57 41.859c-8.668 3.5156-15.441 10.543-18.633 19.336l-63.516 175.78c-1.1289 3.0742 0.15625 6.5117 3.0273 8.0938 2.8672 1.5781 6.4609 0.83203 8.457-1.7656l181.64-233.46c1.8281-2.2656 1.8828-5.4844 0.13281-7.8086-1.75-2.3242-4.8555-3.1641-7.5391-2.0352z"/>
  <path d="m579.02 671.88 19.805 225.77c0.25781 3.2305 2.5781 5.9219 5.7344 6.6484 3.1562 0.73047 6.4219-0.67188 8.0703-3.4609 97.758-164.58 242.53-450.4 337.1-641.06 1.707-3.3359 0.66406-7.418-2.4336-9.5234-3.0977-2.1094-7.2773-1.582-9.7539 1.2266-84.375 93.75-291.59 323.79-346.66 384.96-8.7109 9.6484-13.008 22.488-11.859 35.438z"/>
  <path d="m512.98 669.28-307.62 18.75c-5.5039 0.30859-10.211 4.0703-11.719 9.375-40.734 146.6-96.539 344.53-114.73 409.05-1.1953 4.25 0.039063 8.8125 3.207 11.883 3.1719 3.0742 7.7695 4.1602 11.98 2.8359 192.3-59.672 367.29-131.25 449.46-166.41 3.7812-1.6328 6.9492-4.418 9.0547-7.957 2.1016-3.5391 3.0352-7.6523 2.6641-11.754l-21.773-248.06c-0.46484-5.0352-2.8633-9.6953-6.6914-13-3.832-3.3047-8.7891-4.9961-13.84-4.7188z"/>
  <path d="m550.31 611.93 440.04-488.65c9.375-10.523-3.1875-26.18-15.469-19.102-249.73 144.26-588.16 414.87-719.13 521.95-2.2695 1.8477-3.0859 4.9531-2.0156 7.6758 1.0703 2.7266 3.7812 4.4453 6.7031 4.2539l269.88-16.406c7.6836-0.48828 14.867-3.9805 19.992-9.7266z"/>
  <path d="m898.73 792.89 186.98-168.98c4.2578-3.8711 7.5508-8.6875 9.6094-14.062l25.195-66.469c1.625-4.3477 0.10937-9.2461-3.6875-11.914-3.8008-2.6719-8.9219-2.4336-12.461 0.57031l-288.56 245.86c-2.2695 1.9297-3.1758 5.0273-2.3086 7.8789 0.87109 2.8516 3.3555 4.9141 6.3164 5.2461l62.555 7.0312c5.9414 0.70312 11.895-1.1758 16.359-5.1562z"/>
  <path d="m934.78 834 38.18 56.25c1.9414 2.9883 5.4062 4.6172 8.9492 4.2031 3.5391-0.41016 6.5352-2.793 7.7383-6.1484l58.008-152.95c0.92188-2.4375 0.054688-5.1914-2.1016-6.6602-2.1523-1.4727-5.0352-1.2734-6.9688 0.47266l-102.35 92.508c-3.5234 3.1523-4.1484 8.4414-1.4531 12.328z"/>
  <path d="m879.82 844.66-79.547-9.0469c-3.8359-0.47266-7.6953 0.65234-10.676 3.1133-2.9766 2.4609-4.8125 6.0391-5.0742 9.8945l-14.062 184.97c-0.35156 4.6055 1.9609 9.0117 5.9492 11.34 3.9922 2.3281 8.9609 2.1758 12.801-0.39453l148.05-98.297c3.1797-2.0742 5.3906-5.3438 6.1211-9.0703 0.73438-3.7227-0.070313-7.5898-2.2305-10.711l-51.211-75.68c-2.3242-3.4141-6.0195-5.6484-10.125-6.1172z"/>
 </g>
</svg>
