<?xml version="1.0" encoding="UTF-8"?>
<svg width="1200pt" height="1200pt" version="1.1" viewBox="0 0 1200 1200" xmlns="http://www.w3.org/2000/svg">
 <g fill="#fff">
  <path d="m883.8 140.62c-20.883 31.664-44.531 78.703-49.828 134.23-3.9609 42.188 9.375 84.492 38.25 115.36 16.828 17.953 39.492 33.258 68.086 33.797 26.695 0.49219 51.422-13.289 67.219-34.805 21.375-28.133 28.156-64.727 18.281-98.648-5.668-19.891-15.547-38.332-28.969-54.07-15.117-18.117-43.477-54.352-62.297-92.344-3.0156-6.2188-8.1328-11.172-14.445-13.984-6.3164-2.8125-13.418-3.3047-20.059-1.3906-6.6406 1.918-12.395 6.1172-16.238 11.859z"/>
  <path d="m824.11 455.67c-69.422-68.25-106.15-163.83-96.398-260.74 2.0469-20.188 5.8047-40.164 11.227-59.719 11.367-41.109-28.125-78.328-68.391-64.383-312.05 107.98-438.12 419.53-480.47 562.5-18.578 61.23-24.371 125.62-17.016 189.19 22.148 182.81 141.07 259.03 244.73 290.62 87.164 26.461 180.23 24.914 267.61-0.84375 239.84-70.734 273.52-237.23 273.52-237.23 46.547-195.38-62.109-347.98-134.81-419.39zm-236.34 495.73c-114.56 7.7578-170.48-55.219-197.72-115.38-25.102-55.453-28.969-117.19-13.875-176.04 21.328-83.18 65.906-144.14 106.88-185.16 23.273-23.438 65.625-7.0312 62.953 24.375-2.7188 32.203 2.9062 55.031 10.594 70.805 12.539 25.664 46.242 35.719 73.57 22.5 4.1016-1.9922 8.0977-4.1875 11.977-6.5859 29.836-18.258 70.031-4.5469 79.688 26.906 11.133 37.605 18.207 76.293 21.094 115.41 17.25 211.62-155.16 223.17-155.16 223.17z"/>
 </g>
</svg>
