<?xml version="1.0" encoding="UTF-8"?>
<svg width="1200pt" height="1200pt" version="1.1" viewBox="0 0 1200 1200" xmlns="http://www.w3.org/2000/svg">
 <g fill="#fff">
  <path d="m565.9 133.41c-11.18 39.141-51.562 53.227-68.531 87.938-8.1172 17.723-11.277 37.316-9.1406 56.695 0.68359 12.004 3.2695 23.824 7.6641 35.016 0.51562 1.9219 2.8359 8.0391 5.6719 15.211 1.4531 3.7305 4.1953 6.8125 7.7305 8.6953 3.5312 1.8789 7.6211 2.4336 11.527 1.5547s7.3672-3.125 9.7578-6.3359c12.77-17.594 28.504-32.828 46.5-45.023 14.496-9.3359 25.543-23.156 31.453-39.352 14.062-37.828-0.1875-78.938-14.414-114.4-5.1094-12.727-23.953-14.977-28.219 0z"/>
  <path d="m314.72 242.74c-14.035 12.719-21.172 31.363-19.219 50.203-0.22266 2.0547-0.22266 4.1328 0 6.1875 2.3438 23.062 26.156 33.047 44.109 18.258s24.938-41.484 17.789-63.281c-2.5156-8.6836-9.3945-15.414-18.129-17.742-8.7344-2.3242-18.051 0.09375-24.551 6.375z"/>
  <path d="m1051 367.38c-6.0469-12.047-23.789-10.688-30.188 0-19.641 32.812-39.984 67.453-37.5 107.09 1.0781 17.414 4.3359 35.695 17.883 47.367 15.891 13.664 44.367 28.594 66.023-2.5547 7.8281-9.2344 11.461-21.586 12.352-33.867 2.9297-40.102-10.781-82.711-28.57-118.03z"/>
  <path d="m1129.7 936.94c1.1953-43.918-1.9922-87.848-9.5156-131.13-7.4062-41.508-16.852-84.984-37.312-122.48-13.594-24.867-43.219-65.625-75.914-56.484-0.80859 0.23437-1.5938 0.55078-2.3438 0.9375-11.754 1.8047-21.91 9.1836-27.258 19.805-5.2891 6.9961-8.9336 15.098-10.664 23.695-4.6875 22.453-1.125 45.68-6.4688 68.227-4.9453 20.906-14.648 41.039-33.188 52.781-28.617 18.117-51.188 4.6875-64.875-17.906-16.547-44.531-5.0625-92.578 9.1641-136.36 8.4844-26.109 19.523-51.562 24.82-78.703 5.4141-27.633 4.4297-54.844-0.63281-82.453-9.9609-54.211-32.18-104.93-39.352-159.94-4.1484-31.734-4.1719-63.539-3.1641-95.461 0.49219-15.352 1.5234-30.68 3.3984-45.914s4.5469-28.781-1.6641-43.242c-3.1875-7.4062-11.719-7.8984-18.023-4.9922-5.0078-0.76953-10.121 0.28516-14.414 2.9766-77.531 45.75-135.94 120.63-163.03 207.07-15 47.953-15.211 95.859-16.805 145.57-1.3359 41.062-10.172 101.62-58.781 111.4-23.039 4.6875-40.688-10.266-49.383-30.891-11.953-28.289-3.9609-58.898-5.6953-88.383-0.17188-6.8125-3.9023-13.031-9.832-16.395-5.9258-3.3594-13.18-3.3633-19.113-0.011718-20.625 1.5469-38.016 18.961-50.062 35.391-15.656 21.328-24.07 46.711-29.156 72.539-8.1328 41.297-10.055 123.45-64.805 132.82-53.906 9.2344-82.031-52.898-87.469-96.492-3.25-29.547-2.8203-59.387 1.2891-88.828 1.9922-15.469 4.5469-30.938 7.875-46.148 3.5156-16.008 10.055-31.805 12.281-47.953 0-0.51562 8.2969-39.562-22.758-20.414-7.0312 4.3359-13.242 15.656-13.242 15.656s-23.906 38.367-35.156 56.672c-14.414 23.695-28.594 47.555-41.859 71.93-27.141 49.875-51.562 101.46-70.312 155.2-35.625 102.8-37.594 224.13-37.172 335.04-0.011719 11.348 4.4727 22.238 12.473 30.285 7.9961 8.0469 18.859 12.598 30.207 12.652h124.95c3.8125 0 7.4961-1.3633 10.395-3.8398 2.8984-2.4766 4.8164-5.9023 5.4102-9.668 0.59375-3.7656-0.17188-7.6172-2.1641-10.867-24.727-40.969-32.391-95.906-19.008-136.22 2.0234-6.8164 7.5234-12.043 14.438-13.711 3.9453-2.6953 8.8164-3.6758 13.5-2.7188 20.531 3.75 37.031 11.062 58.594 7.8281 18.773-2.8672 36.656-9.9414 52.312-20.695 33.844-23.156 56.133-60.117 76.57-94.734 2.1562-4.125 5.7852-7.2891 10.164-8.8633 4.3828-1.5781 9.1953-1.4492 13.484 0.35547 5.8789 2.4688 10.395 7.3672 12.375 13.43 3.5742 9.6172 6.5508 19.449 8.9062 29.438 2.4023 10.125 7.1367 19.547 13.828 27.516 13.289 15.562 34.734 21.352 54.398 16.406 21.727-5.3672 36.469-24.984 48.586-42.492 11.25-16.508 21.602-33.609 31.008-51.234 4.2656-7.8047 8.4375-15.68 12.586-23.555 7.9453-15.117 25.617-10.57 32.273 0.89062l0.23438 0.1875c5.9766 6.0703 8.4375 14.062 9.5859 22.477 1.2422 9.0469 0.96094 18.75 1.7812 27.305 1.4648 18.117 4.6445 36.059 9.4922 53.578 8.1797 27.82 22.641 55.641 46.57 73.031 27.469 19.992 62.859 21.445 95.531 21.656 27.258 0.1875 59.977 1.1719 81.516-18.398 13.57-12.305 41.391-5.0391 39.703 16.406-2.1914 31.43-10.738 62.086-25.125 90.117-4.0273 7.7031-3.7344 16.949 0.76953 24.383 4.5078 7.4336 12.57 11.973 21.262 11.969h121.2c10.539-0.058593 20.691-3.9961 28.512-11.059 7.8242-7.0625 12.777-16.758 13.91-27.238 3.8438-33.352-0.375-70.711 0.375-101.74zm-936.05-106.76c-9-1.7578-21.094-13.242-24.562-43.148-0.42188-3.5391 0.77344-17.133 2.3438-20.531v-0.42188c3.1875-8.3672 8.4375-14.953 17.438-17.414 1.168-0.32031 2.3594-0.53906 3.5625-0.65625 3.8477-0.89062 7.8672-0.73828 11.637 0.43359 3.7734 1.1758 7.168 3.3281 9.832 6.2461 5.6367 6.3555 9.6562 13.977 11.719 22.219v0.14062c1.9492 5.668 3 11.609 3.1172 17.602 0.42188 20.977-11.672 40.102-35.086 35.531zm580.15-259.17c-1.5938 26.203-19.852 67.969-60.445 67.805-28.5-1.3828-15.516-41.672-9.375-57.141 6.6328-16.406 5.7422-33.117 9.8203-49.805 2.6719-10.945 11.32-19.781 23.438-18.375 24.914 2.8828 37.852 36.094 36.562 57.516z"/>
 </g>
</svg>
