<?xml version="1.0" encoding="UTF-8"?>
<svg width="1200pt" height="1200pt" version="1.1" viewBox="0 0 1200 1200" xmlns="http://www.w3.org/2000/svg">
 <g fill="#fff">
  <path d="m808.45 389.67c-1.793-16.113-11.445-30.297-25.781-37.875l-41.414-21.984c-5.707-3.0859-12.828-1.1719-16.219 4.3594-2.2031 3.7891-4.7891 7.3477-7.7109 10.617-18.867 21.094-48.258 21.281-67.594 0.5625-11.273-12.07-16.641-27.445-19.195-40.359-3.7695-17.949-0.96484-36.656 7.8984-52.711 7.7109-13.477 20.789-26.953 42.352-26.953 27.727 0 40.172 21.094 45.539 36 3.6602 10.516 10.246 19.77 18.984 26.672l9.5859 7.5c3.3008 2.5742 7.4336 3.8477 11.613 3.5742 4.1758-0.27344 8.1094-2.0742 11.047-5.0586 2.9336-2.9844 4.6719-6.9414 4.8789-11.125 3.6797-66.773-11.602-114.14-31.43-146.95-25.664-41.727-71.25-67.023-120.23-66.727h-61.547c-48.984-0.29688-94.57 25-120.23 66.727-19.828 32.812-35.156 80.203-31.43 146.98 0.20703 4.1836 1.9453 8.1406 4.8789 11.125 2.9375 2.9844 6.8711 4.7852 11.047 5.0586 4.1797 0.27344 8.3125-1 11.613-3.5742l9.5859-7.5c8.7227-6.9062 15.293-16.16 18.938-26.672 5.3672-15 17.812-36 45.539-36 21.562 0 34.641 13.477 42.352 26.953 8.8984 16.035 11.742 34.73 8.0156 52.688-2.5547 12.914-7.9219 28.289-19.195 40.359-19.336 20.719-48.727 20.602-67.594-0.5625-2.9219-3.2734-5.5117-6.832-7.7344-10.617-3.3828-5.5273-10.496-7.4414-16.195-4.3594l-41.625 21.984c-14.336 7.5781-23.988 21.762-25.781 37.875-1.0938 9.7383 0.76562 19.582 5.3398 28.25 4.5703 8.668 11.645 15.762 20.301 20.359 12.559 6.5938 25.566 12.289 38.93 17.039 4.9727 1.8125 9.3516 4.957 12.66 9.0898 3.3047 4.1328 5.4141 9.0977 6.0898 14.348 0.25781 2.0156 0.5625 4.1484 0.89063 6.4219 1.4062 9.5977 7.4961 17.867 16.242 22.055 11.246 5.3008 22.973 9.5234 35.016 12.609 2.543 0.68359 5.2578 0.19922 7.4062-1.3242 2.1484-1.5234 3.5078-3.9258 3.7031-6.5508 0.16406-2.3438 0.375-4.6875 0.60938-7.2188 0.26562-4.5 2.3477-8.6953 5.7656-11.633 3.418-2.9336 7.8828-4.3555 12.371-3.9336 4.4844 0.41797 8.6094 2.6445 11.426 6.1602 2.8164 3.5195 4.082 8.0312 3.5078 12.5-0.35156 3.7734-0.60937 7.3828-0.79687 10.828-0.25391 4.8008 3.4062 8.9102 8.2031 9.2109 6.6562 0.39844 13.594 0.63281 20.906 0.63281s14.25-0.23438 20.883-0.63281c4.8555-0.32422 8.5352-4.5195 8.2266-9.375-0.16406-3.1641-0.42188-6.4453-0.72656-9.8672-0.49219-4.2188 0.59766-8.4688 3.0547-11.93 2.4609-3.4648 6.1133-5.8945 10.258-6.8203 4.6016-0.89453 9.3672 0.19922 13.121 3.0156 3.75 2.8125 6.1367 7.082 6.5664 11.75 0.23438 2.3438 0.44531 4.8516 0.60938 7.2188 0.19531 2.625 1.5547 5.0273 3.7031 6.5508 2.1484 1.5234 4.8633 2.0078 7.4062 1.3242 12.055-3.0859 23.789-7.3164 35.039-12.633 8.7344-4.1914 14.812-12.449 16.219-22.031 0.32812-2.3438 0.63281-4.4297 0.89062-6.4219 0.67188-5.25 2.7773-10.219 6.0859-14.352 3.3047-4.1328 7.6875-7.2773 12.664-9.0859 13.379-4.7148 26.402-10.379 38.977-16.945 8.6289-4.6172 15.672-11.719 20.219-20.387s6.3867-18.5 5.2812-28.223zm-181.45 36.539c-17.105 7.8789-36.801 7.8789-53.906 0-5.1133-2.4062-9.0625-6.75-10.973-12.066-1.9141-5.3203-1.6328-11.18 0.77734-16.293 1.9727-4.2227 4.2773-8.2812 6.8906-12.141 6.8125-10.051 18.164-16.07 30.305-16.07s23.492 6.0195 30.305 16.07c2.6133 3.8594 4.918 7.918 6.8906 12.141 2.4102 5.125 2.6797 10.996 0.75 16.316-1.9336 5.3242-5.9062 9.6562-11.039 12.043z"/>
  <path d="m664.64 555.87c-2.1523 0.41406-3.8164 2.125-4.1719 4.2891-0.86328 5.5234-2.0078 11-3.4219 16.406-1.1289 4.4258-4.0312 8.1875-8.0195 10.406-3.9922 2.2188-8.7227 2.6914-13.074 1.3125-4.0664-1.3867-7.4531-4.2656-9.4766-8.0586-2.0234-3.7891-2.5312-8.207-1.4219-12.355v-0.1875c0.39453-1.5938 0.011718-3.2812-1.0312-4.5508-1.043-1.2695-2.625-1.9727-4.2656-1.8945-6.3516 0.35156-12.914 0.53906-19.758 0.53906s-13.406-0.1875-19.758-0.53906c-1.6406-0.078125-3.2227 0.625-4.2656 1.8945-1.043 1.2695-1.4258 2.957-1.0312 4.5508v0.14062c1.0977 4.1367 0.60156 8.5391-1.3984 12.324-1.9961 3.7891-5.3477 6.6836-9.3828 8.1133-1.6797 0.54297-3.4375 0.82031-5.2031 0.82031-3.6719-0.003906-7.2383-1.2266-10.145-3.4727-2.9062-2.25-4.9844-5.3945-5.9102-8.9492-1.4141-5.4062-2.5586-10.883-3.4219-16.406-0.33594-2.1797-2.0039-3.918-4.1719-4.3359-10.773-2.0664-21.402-4.8164-31.828-8.2266-2.8477-0.92578-5.9727-0.14453-8.0508 2.0078-2.0781 2.1562-2.7461 5.3047-1.7227 8.1172 9.375 25.992 23.039 53.344 42.68 76.734 12.473 15.074 29.637 25.539 48.75 29.719 9.7617 2.125 19.863 2.125 29.625 0 19.113-4.1797 36.277-14.645 48.75-29.719 19.641-23.438 33.258-50.742 42.68-76.734 1.0234-2.8125 0.35547-5.9609-1.7227-8.1172-2.0781-2.1523-5.2031-2.9336-8.0508-2.0078-10.41 3.3945-21.027 6.125-31.781 8.1797z"/>
  <path d="m600 824.02c-5.2617-0.003906-10.32-2.0156-14.148-5.6289-3.8242-3.6133-6.125-8.5469-6.4297-13.801l-4.0078-76.617c-0.39453-6.7695 2.0195-13.402 6.6719-18.332 4.6523-4.9336 11.133-7.7305 17.914-7.7305 6.7812 0.007812 13.258 2.8047 17.914 7.7344 4.6523 4.9297 7.0742 11.559 6.6953 18.328l-4.0312 76.617c-0.30469 5.2539-2.6055 10.188-6.4297 13.801-3.8281 3.6133-8.8867 5.625-14.148 5.6289z"/>
  <path d="m524.58 709.24c4.082 4.2188 6.5547 9.7383 6.9844 15.594 0.42578 5.8555-1.2148 11.676-4.6406 16.445-12.984 17.93-27.656 49.898-6.6094 87.141 2.7773 5.0312 2.0352 11.277-1.8398 15.52-3.8789 4.2461-10.031 5.543-15.293 3.2305-9.5742-4.2969-18.18-10.492-25.289-18.211-13.816-15.09-21.477-34.809-21.477-55.266 0-20.457 7.6602-40.176 21.477-55.266 4.0586-4.3711 8.5156-8.3594 13.312-11.906 4.9375-3.6992 11.055-5.4648 17.203-4.9648 6.1484 0.50391 11.898 3.2344 16.172 7.6836z"/>
  <path d="m412.88 769.05c-0.35156 29.086 4.9688 89.32 51.164 122.23 4.3789 3.0664 6.0859 8.7344 4.1211 13.707-1.9609 4.9727-7.0781 7.9492-12.371 7.1992-24.422-3.2344-55.289-13.5-86.719-40.195-16.547-14.066-35.645-24.824-56.25-31.688-36.695-12.34-74.688-20.414-113.23-24.07-8.5625-0.71484-16.547-4.6211-22.371-10.938-5.8242-6.3203-9.0664-14.594-9.082-23.188 0-9.5352 3.9922-18.633 11.004-25.094s16.406-9.6914 25.91-8.9141c33.984 2.8359 85.875 10.758 131.09 32.812 7.0391 3.4531 15.016 4.4961 22.707 2.9727 7.6914-1.5234 14.668-5.5352 19.855-11.41 4.8867-5.5312 10.73-10.137 17.25-13.594 3.5664-1.918 7.8828-1.8125 11.355 0.27344 3.4688 2.0859 5.5859 5.8477 5.5664 9.8984z"/>
  <path d="m213.68 918.26c0.86719 18.562-4.2656 39.516-25.781 54.141-11.562 8.2812-19.113 21.035-20.812 35.156-4.7773 35.52-7.7188 71.262-8.8125 107.09-0.32813 9.0469-6.5859 16.172-14.18 16.172h-58.594c-9.5625 0-17.086-9.6797-16.406-21.094 2.8594-45 11.953-151.83 36.328-218.44 3.625-10.148 9.5-19.348 17.18-26.906 8.1797-7.875 16.242-14.062 34.617-13.312 6.1562 0.33594 12.18 1.9297 17.695 4.6875l0.39844 0.1875c21.727 10.453 37.055 34.523 38.367 62.32z"/>
  <path d="m600 824.02c5.2617-0.003906 10.32-2.0156 14.148-5.6289 3.8242-3.6133 6.125-8.5469 6.4297-13.801l4.0312-76.617c0.37891-6.7695-2.043-13.398-6.6953-18.328-4.6562-4.9297-11.133-7.7266-17.914-7.7344-6.7812 0-13.262 2.7969-17.914 7.7305-4.6523 4.9297-7.0664 11.562-6.6719 18.332l4.0078 76.617c0.30469 5.2539 2.6055 10.188 6.4297 13.801 3.8281 3.6133 8.8867 5.625 14.148 5.6289z"/>
  <path d="m675.42 709.24c-4.082 4.2188-6.5547 9.7383-6.9844 15.594-0.42578 5.8555 1.2148 11.676 4.6406 16.445 12.984 17.93 27.656 49.898 6.6328 87.141-2.7656 5.0273-2.0273 11.262 1.8438 15.5 3.8672 4.2383 10.004 5.5469 15.266 3.25 9.5781-4.293 18.184-10.488 25.289-18.211 13.816-15.09 21.477-34.809 21.477-55.266 0-20.457-7.6602-40.176-21.477-55.266-4.0586-4.3711-8.5156-8.3594-13.312-11.906-4.9375-3.6992-11.055-5.4648-17.203-4.9648-6.1484 0.50391-11.898 3.2344-16.172 7.6836z"/>
  <path d="m910.45 1024.5c-11.484-9.8438-27.586-8.4141-39.562 0.79688-74.461 57.234-180.7 43.547-224.86 34.453l-1.1719-34.852c36.516 2.3438 78.188-0.58594 106.64-3.4219 34.199-3.2695 67.336-13.648 97.289-30.469 23.27-12.945 44.125-29.816 61.641-49.875 5.4414-6.4141 7.8984-14.844 6.7578-23.176-1.1406-8.3359-5.7695-15.793-12.734-20.512-12.492-8.5312-28.336-5.3203-39.234 5.1562-69.141 66.492-179.44 63.094-222.49 58.758l-2.2031-64.922c-0.36328-10.504-4.793-20.457-12.352-27.758-7.5625-7.3008-17.66-11.383-28.172-11.383 0 0-39.469 0-40.523 39.188l-2.2031 64.922c-43.055 4.3359-153.35 7.7344-222.49-58.758-10.898-10.477-26.742-13.688-39.234-5.1562-6.9648 4.7188-11.594 12.176-12.734 20.512-1.1406 8.332 1.3164 16.762 6.7578 23.176 17.516 20.059 38.371 36.93 61.641 49.875 29.953 16.82 63.09 27.199 97.289 30.469 28.453 2.8359 70.125 5.7422 106.64 3.4219l-1.1719 34.852c-44.156 9.0938-150.4 22.781-224.86-34.453-11.977-9.2109-28.125-10.641-39.562-0.79688-6.4023 5.4609-10.176 13.387-10.387 21.797-0.21094 8.4102 3.1641 16.516 9.2852 22.289 19.609 18.008 42.195 32.48 66.75 42.773 31.633 13.387 65.711 20.027 100.05 19.5 27.047-0.30469 262.5-0.30469 289.5 0 34.344 0.52734 68.422-6.1133 100.05-19.5 24.555-10.293 47.141-24.766 66.75-42.773 6.1367-5.7734 9.5234-13.891 9.3125-22.312-0.21094-8.4219-3.9961-16.359-10.414-21.82z"/>
  <path d="m787.12 769.05c0.35156 29.086-4.9688 89.32-51.164 122.23-4.3789 3.0664-6.0859 8.7344-4.1211 13.707 1.9609 4.9727 7.0781 7.9492 12.371 7.1992 24.422-3.2344 55.289-13.5 86.719-40.195 16.551-14.062 35.645-24.82 56.25-31.688 36.695-12.34 74.688-20.414 113.23-24.07 8.5664-0.71094 16.551-4.6133 22.379-10.934 5.8242-6.3203 9.0625-14.598 9.0742-23.191 0-9.5352-3.9922-18.633-11.004-25.094s-16.406-9.6914-25.91-8.9141c-33.984 2.8359-85.852 10.758-131.06 32.812-7.043 3.4492-15.023 4.4922-22.719 2.9688-7.6914-1.5234-14.672-5.5312-19.867-11.406-4.8867-5.5312-10.73-10.137-17.25-13.594-3.5664-1.918-7.8828-1.8125-11.355 0.27344-3.4688 2.0859-5.5859 5.8477-5.5664 9.8984z"/>
  <path d="m979.2 918.26c-0.86719 18.562 4.2188 39.516 25.547 54.141 11.492 8.3203 18.98 21.066 20.648 35.156 4.7344 35.523 7.6523 71.266 8.7422 107.09 0.30469 9.0469 6.5156 16.172 14.062 16.172h58.055c9.375 0 16.945-9.6797 16.219-21.094-2.8359-45-11.859-151.83-36.023-218.44-3.5859-10.137-9.4102-19.332-17.039-26.906-8.0859-7.875-16.078-14.062-34.312-13.312-6.1133 0.33984-12.086 1.9336-17.555 4.6875l-0.375 0.1875c-21.469 10.453-36.68 34.523-37.969 62.32z"/>
  <path d="m1118.6 655.88c-11.719-20.789-29.93-35.93-45.422-53.484-20.648-23.438-24.141-50.086-27.727-80.344-3.5859-30.258-6.3516-61.289-8.2734-92.039-1.2188-20.32-31.688-20.93-31.688-1.1016-5.4141 11.719-6.1875 26.672-8.0625 38.695-3.0469 19.5-4.6875 39.328-8.8594 58.594-0.32812 1.5-0.65625 3-1.0078 4.4766-4.1484 9.8906-10.031 19.008-18.75 25.055-9.9141 3.7031-21.094 3.4688-29.484-3.4922-17.508-14.648-6.4219-47.344-2.7188-65.625 5.4336-27.039 9.2461-54.375 11.414-81.867 2.1797-27.539 1.1719-55.477 5.1094-82.852 3.7969-26.508 13.195-51.797 16.969-78.328 3.2109-22.453 3.0938-47.062-7.9688-67.406-11.719-21.492-30.75-24.094-51.023-32.32-21.75-8.8359-47.906-81.891-78.492-73.898-6.0664-0.42969-11.945 2.2109-15.656 7.0312-13.781 17.695 3.6797 38.508 11.109 54.656 21.773 47.203 15.398 99.539 28.453 148.8 11.883 44.883 42.305 84.516 44.531 132 1.1484 22.98-3.6289 45.867-13.875 66.469-10.57 20.625-27.352 35.719-43.289 51.797-26.859 27.07-48.609 59.953-38.672 100.38 8.625 35.156 38.953 64.125 74.555 67.336 24.398 2.2031 47.32-7.5234 71.25-10.102 23.977-2.4922 48.195 1.0508 70.453 10.312 27.984 11.719 77.531 66 103.88 21.352 11.391-19.359 3.2578-46.312-6.75-64.102z"/>
  <path d="m1053.2 340.64c8.9531-15.609 11.859-38.953-1.2188-52.969-2.4688-2.4023-5.5664-4.0508-8.9336-4.7617-3.3711-0.71094-6.8711-0.44922-10.098 0.75391-13.5 0.89063-19.898 13.43-20.812 26.156-0.52344 10.723 1.9062 21.387 7.0312 30.82 7.0078 13.617 26.789 12.633 34.031 0z"/>
  <path d="m81.422 655.88c11.719-20.789 29.93-35.93 45.422-53.484 20.648-23.438 24.141-50.086 27.727-80.344 3.5859-30.258 6.3516-61.289 8.2734-92.039 1.2188-20.32 31.688-20.93 31.688-1.1016 5.4141 11.719 6.1875 26.672 8.0625 38.695 3.0469 19.5 4.6875 39.328 8.8594 58.594 0.32812 1.5 0.65625 3 1.0078 4.4766 4.1484 9.8906 10.031 19.008 18.75 25.055 9.9141 3.7031 21.094 3.4688 29.484-3.4922 17.508-14.648 6.4219-47.344 2.7188-65.625-5.4336-27.039-9.2461-54.375-11.414-81.867-2.1797-27.539-1.1719-55.477-5.1094-82.852-3.7969-26.508-13.195-51.797-16.969-78.328-3.2109-22.453-3.0938-47.062 7.9688-67.406 11.719-21.492 30.75-24.094 51.023-32.32 21.75-8.8359 47.906-81.891 78.492-73.898 6.0664-0.42969 11.945 2.2109 15.656 7.0312 13.781 17.695-3.6797 38.508-11.109 54.656-21.773 47.203-15.398 99.539-28.453 148.8-11.883 44.883-42.305 84.516-44.531 132-1.1484 22.98 3.6289 45.867 13.875 66.469 10.57 20.625 27.352 35.719 43.289 51.797 26.859 27.07 48.609 59.953 38.672 100.38-8.625 35.156-38.953 64.125-74.555 67.336-24.398 2.2031-47.32-7.5234-71.25-10.102-23.953-2.5469-48.164 0.93359-70.43 10.125-27.984 11.719-77.531 66-103.88 21.352-11.414-19.172-3.2812-46.125 6.7266-63.914z"/>
  <path d="m146.81 340.64c-8.9531-15.609-11.859-38.953 1.2188-52.969 2.4609-2.4141 5.5547-4.0781 8.9258-4.8008 3.3672-0.71875 6.8711-0.46875 10.105 0.72266 13.5 0.89062 19.898 13.43 20.812 26.156 0.52344 10.723-1.9062 21.387-7.0312 30.82-7.0078 13.688-26.789 12.703-34.031 0.070313z"/>
 </g>
</svg>
