<?xml version="1.0" encoding="UTF-8"?>
<svg width="1200pt" height="1200pt" version="1.1" viewBox="0 0 1200 1200" xmlns="http://www.w3.org/2000/svg">
 <g fill="#fff">
  <path d="m1e3 683.6c-3.582 1.5625-5.8203 5.1797-5.6172 9.082 0.20313 3.9023 2.8047 7.2695 6.5312 8.4492 11.82 3.8242 24.562 3.6992 36.305-0.35156 78.727-27.141 120.4-50.25 120.4-95.18 0-55.453-60.281-99.375-179.11-130.52-101.55-26.602-227.95-35.906-370.5-35.906-14.625 0-49.219-2.3438-74.133 2.1328-7.8516 1.457-14.449 6.7539-17.566 14.102-3.1172 7.3516-2.3398 15.777 2.0742 22.434 4.4102 6.6523 11.867 10.652 19.852 10.645 22.945 0 56.883 1.2188 74.086 1.2188 136.76 0 249.28 14.672 345.23 39.844 35.156 9.2344 59.32 20.109 75.75 30.469 31.969 20.109 38.344 64.781 12.68 92.508-10.078 10.875-24.773 21.844-45.984 31.078z"/>
  <path d="m933.98 712.9c0 16.129-13.074 29.203-29.203 29.203s-29.203-13.074-29.203-29.203c0-16.129 13.074-29.203 29.203-29.203s29.203 13.074 29.203 29.203"/>
  <path d="m587.6 758.41c80.953-3.7031 161.55-10.172 230.74-22.594 8.4375-1.5234 12.141-12.141 6.7266-19.148-7.7891-10.277-20.172-16.02-33.047-15.328-348.49 21.258-502.88-43.547-561.42-80.93-25.43-16.242-27.727-54.281-4.6875-74.25 12.777-10.789 27.383-19.199 43.125-24.844 8.2734-2.3438 16.406-4.6875 24.492-7.0312 28.125-7.8516 53.344-14.531 67.406-18.234 3.375-0.89453 6.4531-2.668 8.9258-5.1367 2.4688-2.4727 4.2422-5.5508 5.1367-8.9258 3.375-12.844-5.9531-25.312-18.422-25.008-142.57 3.5859-314.06 39.188-314.06 139.34 0 58.711 60.281 105.19 179.11 138.14 101.39 28.336 223.69 30.492 365.98 23.953z"/>
 </g>
</svg>
