<?xml version="1.0" encoding="UTF-8"?>
<svg width="1200pt" height="1200pt" version="1.1" viewBox="0 0 1200 1200" xmlns="http://www.w3.org/2000/svg">
 <path d="m887.32 500.06h-254.93c-4.5 0-8.7852-1.9297-11.766-5.3008-2.9805-3.3711-4.3711-7.8594-3.8203-12.324l50.977-414.47c0.44141-3.8398-1.8711-7.4648-5.543-8.6758-3.668-1.2148-7.6875 0.3125-9.6211 3.6602l-351.56 616.97c-2.3555 4.125-2.3359 9.1953 0.050781 13.305 2.3828 4.1094 6.7773 6.6406 11.527 6.6406h254.98c4.5 0 8.7852 1.9297 11.766 5.3008 2.9805 3.3711 4.3711 7.8594 3.8203 12.324l-50.977 414.54c-0.44141 3.8398 1.8711 7.4648 5.543 8.6758 3.668 1.2148 7.6875-0.3125 9.6211-3.6602l351.56-616.97c2.3945-4.1367 2.3906-9.2422-0.011718-13.379-2.3984-4.1328-6.832-6.668-11.613-6.6367z" fill="#fff"/>
</svg>
