<?xml version="1.0" encoding="UTF-8"?>
<svg width="1200pt" height="1200pt" version="1.1" viewBox="0 0 1200 1200" xmlns="http://www.w3.org/2000/svg">
 <path d="m1026.4 567.7-34.875 13.031c-8.0391-17.039-21.656-41.906-39.656-59.789-3.1875-3.0742-7.9922-3.7461-11.898-1.6641-3.9102 2.082-6.0312 6.4453-5.2578 10.805 4.3203 23.172 5.7383 46.789 4.2188 70.312l-60.188 22.477c-5.6836 2.1211-11.969 1.9336-17.52-0.51953-5.5469-2.4531-9.9141-6.9805-12.168-12.609-2.2539-5.6328-2.2148-11.926 0.10937-17.527 30.469-73.641 76.359-157.24 116.32-224.84 12.215 10.84 22.047 24.098 28.875 38.93 1.9453 4.0703 6.25 6.4648 10.734 5.9766 4.4844-0.49219 8.168-3.7617 9.1875-8.1562 5.3906-22.805 8.2734-59.109-4.4766-109.55 6.8672-10.969 13.031-20.695 18.281-28.852 12.039-18.766 17.125-41.156 14.367-63.281l-12.258-99.328c-1.1289-9.4922-7-17.762-15.59-21.957-8.5898-4.1914-18.723-3.7344-26.902 1.2148l-312.56 187.15c-17.652 10.586-37.848 16.172-58.43 16.172h-140.11c-16.309 0-32.25 4.8281-45.82 13.875l-119.95 80.109c-20.508 13.672-44.039 22.141-68.555 24.68l-58.008 6c-10 1.043-19.262 5.7539-25.992 13.227-6.7305 7.4727-10.457 17.172-10.453 27.227v670.88h603.89c12.062-0.015624 23.75-4.1914 33.09-11.828 9.3359-7.6367 15.754-18.258 18.168-30.078 4.6641-21.703 7.7031-43.727 9.0938-65.883 0.23438-4.4102 3.0352-8.2695 7.1562-9.8594 4.1172-1.5898 8.7891-0.60938 11.922 2.5l18.75 18.75c3.1953 3.2031 8.0039 4.1602 12.18 2.4219 4.1797-1.7344 6.8906-5.8203 6.875-10.344 0-19.008 0.58594-37.078 1.4297-53.906 4.2188-83.074 37.043-162.13 92.906-223.76 20.18-22.266 39-40.898 52.758-53.906 14.664-13.945 24.461-32.234 27.938-52.172l7.8281-44.672c0.78516-4.4297-0.019532-8.9961-2.2734-12.895-2.2539-3.8945-5.8086-6.8711-10.039-8.4023-4.2344-1.5273-8.8711-1.5156-13.094 0.039063zm-446.6-96.609c-11.203 20.25-33.258 55.734-64.477 86.109-9.25 8.9766-21.254 14.582-34.078 15.914-19.148 2.0156-49.359 4.1016-75 1.0312-3.9922-0.55078-7.4219-3.1172-9.0781-6.793s-1.3086-7.9414 0.92188-11.301l38.344-55.688c6.1641-8.9531 15.422-15.316 25.992-17.859 21.68-5.2031 62.414-14.766 107.81-24.164 3.3594-0.76953 6.8594 0.50781 8.9258 3.2656 2.0703 2.7578 2.3164 6.4766 0.63672 9.4844z" fill="#fff"/>
</svg>
