<?xml version="1.0" encoding="UTF-8"?>
<svg width="1200pt" height="1200pt" version="1.1" viewBox="0 0 1200 1200" xmlns="http://www.w3.org/2000/svg">
 <g fill="#fff">
  <path d="m874.59 600c0 151.65-122.94 274.59-274.59 274.59s-274.59-122.94-274.59-274.59 122.94-274.59 274.59-274.59 274.59 122.94 274.59 274.59"/>
  <path d="m582.02 71.508c-20.016 50.836-49.992 120.68-67.336 165.63-1.668 4.1992-1.7656 8.8594-0.26953 13.125 1.4922 4.2656 4.4766 7.8477 8.4023 10.086 3.9258 2.2383 8.5273 2.9844 12.961 2.1016 42.512-8.0625 86.16-8.0625 128.67 0 4.4219 0.85156 9 0.082031 12.898-2.1641 3.9023-2.2461 6.8633-5.8203 8.3477-10.07s1.3867-8.8945-0.26953-13.078c-17.461-44.953-47.438-114.8-67.453-165.63-1.4102-3.5625-3.8555-6.6211-7.0234-8.7773s-6.9102-3.3125-10.742-3.3164h-0.42188c-3.832 0.003907-7.5742 1.1602-10.742 3.3164s-5.6133 5.2148-7.0234 8.7773z"/>
  <path d="m582.02 1128.5c-20.016-50.836-49.992-120.68-67.336-165.63-1.668-4.1992-1.7656-8.8594-0.26953-13.125 1.4922-4.2656 4.4766-7.8477 8.4023-10.086 3.9258-2.2383 8.5273-2.9844 12.961-2.1016 42.512 8.0625 86.16 8.0625 128.67 0 4.4219-0.85156 9-0.082031 12.898 2.1641 3.9023 2.2461 6.8633 5.8203 8.3477 10.07s1.3867 8.8945-0.26953 13.078c-17.297 44.883-47.32 114.84-67.336 165.63-1.4102 3.5625-3.8555 6.6211-7.0234 8.7773-3.168 2.1562-6.9102 3.3125-10.742 3.3164h-0.42188c-3.8516 0.019531-7.6211-1.125-10.812-3.2812-3.1875-2.1602-5.6523-5.2305-7.0703-8.8125z"/>
  <path d="m1128.5 582.02c-50.836-20.016-120.68-49.992-165.63-67.336-4.1992-1.668-8.8594-1.7656-13.125-0.26953-4.2656 1.4922-7.8477 4.4766-10.086 8.4023-2.2383 3.9258-2.9844 8.5273-2.1016 12.961 8.0625 42.512 8.0625 86.16 0 128.67-0.85156 4.4219-0.082031 9 2.1641 12.898 2.2461 3.9023 5.8203 6.8633 10.07 8.3477s8.8945 1.3867 13.078-0.26953c44.883-17.297 114.84-47.32 165.63-67.336 3.5625-1.4102 6.6211-3.8555 8.7773-7.0234 2.1562-3.168 3.3125-6.9102 3.3164-10.742v-0.42188c0.019531-3.8516-1.125-7.6211-3.2812-10.812-2.1602-3.1875-5.2305-5.6523-8.8125-7.0703z"/>
  <path d="m71.508 582.02c50.836-20.016 120.68-49.992 165.63-67.336 4.1992-1.668 8.8594-1.7656 13.125-0.26953 4.2656 1.4922 7.8477 4.4766 10.086 8.4023 2.2383 3.9258 2.9844 8.5273 2.1016 12.961-8.0625 42.512-8.0625 86.16 0 128.67 0.85156 4.4219 0.082031 9-2.1641 12.898-2.2461 3.9023-5.8203 6.8633-10.07 8.3477s-8.8945 1.3867-13.078-0.26953c-44.953-17.461-114.8-47.438-165.63-67.453-3.5625-1.4102-6.6211-3.8555-8.7773-7.0234s-3.3125-6.9102-3.3164-10.742v-0.42188c0.003907-3.832 1.1602-7.5742 3.3164-10.742s5.2148-5.6133 8.7773-7.0234z"/>
  <path d="m960.94 213.59c-50.086 21.797-120.77 49.992-164.74 69.516-4.1562 1.7812-7.5273 5.0039-9.4922 9.0703-1.9688 4.0703-2.3984 8.7148-1.2148 13.078 1.1836 4.3594 3.9062 8.1484 7.6602 10.664 35.75 24.375 66.609 55.234 90.984 90.984 2.5156 3.7539 6.3047 6.4766 10.664 7.6602 4.3633 1.1836 9.0078 0.75391 13.078-1.2148 4.0664-1.9648 7.2891-5.3359 9.0703-9.4922 19.523-43.969 47.719-114.66 69.516-164.74 1.5195-3.5156 1.9492-7.4062 1.2305-11.168-0.71875-3.7617-2.5547-7.2188-5.2617-9.9258l-0.28125-0.28125c-2.7031-2.7539-6.1758-4.6211-9.9609-5.3633-3.7891-0.73828-7.7109-0.31641-11.25 1.2148z"/>
  <path d="m213.59 960.94c21.797-50.086 49.992-120.77 69.516-164.74 1.7812-4.1562 5.0039-7.5273 9.0703-9.4922 4.0703-1.9688 8.7148-2.3984 13.078-1.2148 4.3594 1.1836 8.1484 3.9062 10.664 7.6602 24.375 35.75 55.234 66.609 90.984 90.984 3.7539 2.5156 6.4766 6.3047 7.6602 10.664 1.1836 4.3633 0.75391 9.0078-1.2148 13.078-1.9648 4.0664-5.3359 7.2891-9.4922 9.0703-43.969 19.523-114.66 47.719-164.74 69.516-3.5156 1.5195-7.4062 1.9492-11.168 1.2305-3.7617-0.71875-7.2188-2.5547-9.9258-5.2617l-0.28125-0.28125c-2.7539-2.7031-4.6211-6.1758-5.3633-9.9609-0.73828-3.7891-0.31641-7.7109 1.2148-11.25z"/>
  <path d="m986.41 960.94c-21.797-50.086-49.992-120.77-69.516-164.74-1.7812-4.1562-5.0039-7.5273-9.0703-9.4922-4.0703-1.9688-8.7148-2.3984-13.078-1.2148-4.3594 1.1836-8.1484 3.9062-10.664 7.6602-24.375 35.75-55.234 66.609-90.984 90.984-3.7539 2.5156-6.4766 6.3047-7.6602 10.664-1.1836 4.3633-0.75391 9.0078 1.2148 13.078 1.9648 4.0664 5.3359 7.2891 9.4922 9.0703 43.969 19.523 114.66 47.719 164.74 69.516 3.5156 1.5195 7.4062 1.9492 11.168 1.2305 3.7617-0.71875 7.2188-2.5547 9.9258-5.2617l0.28125-0.28125c2.7539-2.7031 4.6211-6.1758 5.3633-9.9609 0.73828-3.7891 0.31641-7.7109-1.2148-11.25z"/>
  <path d="m239.06 213.59c50.086 21.797 120.77 49.992 164.74 69.516 4.1562 1.7812 7.5273 5.0039 9.4922 9.0703 1.9688 4.0703 2.3984 8.7148 1.2148 13.078-1.1836 4.3594-3.9062 8.1484-7.6602 10.664-35.75 24.375-66.609 55.234-90.984 90.984-2.5156 3.7539-6.3047 6.4766-10.664 7.6602-4.3633 1.1836-9.0078 0.75391-13.078-1.2148-4.0664-1.9648-7.2891-5.3359-9.0703-9.4922-19.523-43.969-47.719-114.66-69.516-164.74-1.5195-3.5156-1.9492-7.4062-1.2305-11.168 0.71875-3.7617 2.5547-7.2188 5.2617-9.9258l0.28125-0.28125c2.7031-2.7539 6.1758-4.6211 9.9609-5.3633 3.7891-0.73828 7.7109-0.31641 11.25 1.2148z"/>
 </g>
</svg>
