<?xml version="1.0" encoding="UTF-8"?>
<svg width="1200pt" height="1200pt" version="1.1" viewBox="0 0 1200 1200" xmlns="http://www.w3.org/2000/svg">
 <g fill="#fff">
  <path d="m377.65 79.031c6.375 21.727 20.859 53.906 52.969 72.492 1.293 0.77344 2.0938 2.1641 2.1172 3.6719 0.023437 1.5078-0.73047 2.918-2 3.7344-25.48 14.727-42.805 40.32-47.016 69.445-0.14062 1.8086-1.5664 3.25-3.3711 3.418-1.8047 0.16797-3.4688-0.98828-3.9414-2.7383-7.7344-21.703-24.094-54.328-54.75-66.539-1.5156-0.65234-2.5312-2.1055-2.625-3.7539-0.09375-1.6445 0.75-3.2031 2.1797-4.0273 14.883-7.5938 40.5-27.352 49.078-75.328 0.18359-1.832 1.6797-3.2578 3.5195-3.3516s3.4727 1.1719 3.8398 2.9766z"/>
  <path d="m831.59 98.156c5.2734 22.008 18.117 54.773 49.219 75 1.2422 0.83984 1.9648 2.2617 1.9141 3.7617s-0.87109 2.8672-2.1719 3.6211c-26.18 13.457-44.77 38.148-50.461 67.031-0.26563 1.7656-1.7461 3.0977-3.5312 3.1719-1.7852 0.074218-3.3711-1.1289-3.7812-2.8672-6.6562-22.055-21.352-55.477-51.352-69.211-1.4844-0.73047-2.4219-2.2383-2.4219-3.8906 0-1.6523 0.9375-3.1602 2.4219-3.8906 15.234-6.8203 41.859-25.242 52.781-72.727 0.25391-1.8438 1.832-3.2148 3.6914-3.2148s3.4375 1.3711 3.6914 3.2148z"/>
  <path d="m552.42 835.55 29.977 45.539c1.3242 2.0039 3.6953 3.0547 6.0703 2.6914 2.375-0.35938 4.3242-2.0703 4.9922-4.3789l111.33-387.35 25.406-97.172c0.59766-2.1953-0.25-4.5312-2.1133-5.8359-1.8672-1.3008-4.3516-1.293-6.207 0.023438l-70.781 50.602c-4.2383 3.0312-7.2617 7.4648-8.5312 12.516-12.445 49.383-80.062 318.07-92.695 368.27-1.3086 5.168-0.37891 10.645 2.5547 15.094z"/>
  <path d="m732.47 313.76-83.883-156.73c-1.2656-2.3906-4.0195-3.582-6.6289-2.875s-4.3828 3.125-4.2695 5.8281l7.4062 207.98c0.13281 3.6406 2.2578 6.918 5.5273 8.5273 3.2695 1.6094 7.1602 1.2969 10.129-0.81641l68.742-49.219c4.0312-2.8945 5.3047-8.3203 2.9766-12.703z"/>
  <path d="m431.84 652.38 72.07 109.52c1.6445 2.4648 4.5859 3.7266 7.5 3.2188 2.918-0.50781 5.2617-2.6875 5.9766-5.5625l76.406-304.24c0.87109-3.4844 0.52734-7.1602-0.98437-10.418-1.5078-3.2617-4.0898-5.9023-7.3125-7.4883l-151.9-74.742c-2.6914-1.3281-5.8828-1.1562-8.4141 0.46094-2.5312 1.6133-4.0352 4.4375-3.9609 7.4375l6.3516 268.22c0.12109 4.8398 1.6016 9.5508 4.2656 13.594z"/>
  <path d="m257.98 1123.9h83.789c2.457 0.003906 4.7695-1.1641 6.2188-3.1484 1.4531-1.9844 1.8672-4.543 1.1172-6.8828l-39.469-123.07c-1.0039-3.1367-3.8945-5.2812-7.1836-5.3398-3.293-0.058594-6.2578 1.9844-7.3711 5.082l-44.297 123.07c-0.84375 2.3477-0.49609 4.9609 0.93359 7.0078 1.4297 2.0469 3.7656 3.2695 6.2617 3.2812z"/>
  <path d="m1063.4 584.72 43.875-143.81c2.8594-9.3828 2.293-19.473-1.5938-28.477l-99.609-230.34c-1.5078-3.4727-4.2539-6.2617-7.7031-7.8203s-7.3555-1.7773-10.957-0.61328c-3.6016 1.1641-6.6406 3.6289-8.5273 6.9102l-129.07 225.19c-2.1602 3.7773-2.9219 8.1953-2.1562 12.48 0.76953 4.2852 3.0156 8.1602 6.3516 10.957l191.79 160.69c2.8242 2.3711 6.6445 3.1719 10.184 2.1367 3.5352-1.0352 6.3203-3.7734 7.418-7.293z"/>
  <path d="m412.76 708c-1.9531-2.9609-5.4062-4.5664-8.9258-4.1484-3.5234 0.41797-6.5078 2.7852-7.7148 6.1172l-63.75 179.06c-2.2266 6.2422-2.3438 13.043-0.32813 19.359l66.398 206.84c1.6719 5.1875 6.5039 8.7031 11.953 8.6953h103.41c5.5859-0.007813 10.496-3.7031 12.047-9.0703l44.273-154.05c1.7656-6.1289 0.76562-12.723-2.7422-18.047z"/>
  <path d="m206.25 443.37 117.19-85.711c3.9414-2.8711 6.6406-7.1289 7.5547-11.918 0.91406-4.7891-0.027344-9.7461-2.6328-13.863l-99.141-157.03c-2.7891-4.4297-7.6562-7.1172-12.891-7.1172s-10.102 2.6875-12.891 7.1172l-114.14 184.38c-2.4805 4.0117-3.3164 8.8281-2.3281 13.441 0.98828 4.6094 3.7188 8.6641 7.625 11.309l88.219 59.789c3.4688 2.3594 7.5859 3.5859 11.781 3.5156s8.2695-1.4375 11.656-3.9141z"/>
  <path d="m202.57 1110.1 140.25-389.46c3.2812-9.082 5.0625-18.637 5.2734-28.289l5.8125-267.98c0.082031-3.9375-1.3125-7.7617-3.9062-10.723-2.5977-2.9609-6.2031-4.8438-10.117-5.2812-3.9141-0.43359-7.8477 0.60938-11.031 2.9258l-100.95 73.852c-7.2891 5.3281-12.188 13.309-13.641 22.219l-79.219 488.25c-2.6484 16.383-3.1367 33.039-1.4531 49.547l6.0469 59.016c0.54688 5.4141 3.082 10.43 7.1211 14.074 4.0352 3.6484 9.2812 5.6641 14.723 5.6602h21.445c4.2969 0.003906 8.4922-1.3164 12.008-3.7891 3.5156-2.4727 6.1836-5.9688 7.6328-10.016z"/>
  <path d="m71.297 438.89 35.812 422.95c0.28516 2.918 2.6992 5.1641 5.6328 5.2422 2.9297 0.078124 5.457-2.0391 5.8984-4.9375l48.867-354.63c0.67578-4.9023-0.03125-9.8984-2.0469-14.422-2.0117-4.5234-5.25-8.3906-9.3438-11.172l-73.359-49.758c-2.3516-1.5938-5.4062-1.6914-7.8555-0.25391-2.4453 1.4375-3.8516 4.1523-3.6055 6.9805z"/>
  <path d="m971.16 1123.9h135.61c5.8281 0.007813 11.414-2.3047 15.535-6.4258 4.1211-4.1211 6.4336-9.707 6.4258-15.535v-522.8c0.019532-3.6523-2.6484-6.7617-6.2578-7.2969-3.6133-0.53516-7.0664 1.6641-8.1094 5.1641l-159.96 524.25c-1.6289 5.3125-0.64063 11.082 2.668 15.547 3.3047 4.4688 8.5352 7.1016 14.09 7.0938z"/>
  <path d="m855.47 491.25c-2.4453-2.0508-5.8867-2.4297-8.7227-0.96875-2.8359 1.4648-4.5156 4.4883-4.2617 7.6719l30.797 404.62c0.1875 2.5625 0.51562 5.1133 0.98438 7.6406l27.586 152.58c0.64453 3.6016 3.6758 6.293 7.3281 6.5117 3.6523 0.21484 6.9805-2.0977 8.0469-5.5977l121.22-397.34c1.5781-5.1641 1.5977-10.68 0.058594-15.855-1.5352-5.1797-4.5664-9.7891-8.707-13.254z"/>
  <path d="m798.75 772.15-72.656-130.27c-1.7617-3.1992-5.2812-5.0195-8.9102-4.6016s-6.6445 2.9844-7.6367 6.5l-134.72 468.75c-0.78125 2.7227-0.23438 5.6523 1.4688 7.9141 1.7031 2.2617 4.3711 3.5938 7.2031 3.5938h271.31c2.6719 0 5.207-1.1836 6.9219-3.2344 1.7148-2.0469 2.4336-4.7539 1.9609-7.3828l-58.336-322.8c-1.1719-6.4766-3.4062-12.719-6.6094-18.469z"/>
  <path d="m598.8 375.87-9.8906-278.44c-0.078124-2.5312-1.7891-4.7148-4.2266-5.3984-2.4375-0.67969-5.0352 0.30078-6.4141 2.4219-28.969 44.016-112.34 172.73-135.52 208.59-1.543 2.375-1.9961 5.293-1.2422 8.0234 0.75 2.7266 2.6367 5.0039 5.1797 6.25l137.84 67.969c3.1562 1.5508 6.8984 1.3125 9.8359-0.625 2.9336-1.9375 4.625-5.2852 4.4375-8.7969z"/>
 </g>
</svg>
