<?xml version="1.0" encoding="UTF-8"?>
<svg width="1200pt" height="1200pt" version="1.1" viewBox="0 0 1200 1200" xmlns="http://www.w3.org/2000/svg">
 <g fill="#fff">
  <path d="m394.52 971.84c71.746 50.848 137.97 109.07 197.58 173.72 5.8906 6.4844 14.242 10.18 23.004 10.18s17.113-3.6953 23.004-10.18c59.605-64.656 125.83-122.88 197.58-173.72 0 0 171.4-118.71 159.52-290.18s-162.89-196.88-162.89-196.88-111.47-27.094-195.4 58.969c-5.7344 5.8789-13.598 9.1914-21.809 9.1914-8.2109 0-16.074-3.3125-21.809-9.1914-83.93-86.016-195.4-58.875-195.4-58.875s-151.01 25.453-162.89 196.88c-11.883 171.42 159.52 290.09 159.52 290.09z"/>
  <path d="m1054.1 242.27v-90.094c0-5.0859-2.0195-9.9609-5.6172-13.555-3.5938-3.5977-8.4688-5.6172-13.555-5.6172h-50.391c-5.0859 0-9.9609-2.0195-13.555-5.6172-3.5977-3.5938-5.6172-8.4688-5.6172-13.555v-50.391c0.007813-5.082-2.0078-9.9609-5.6016-13.555-3.5898-3.5977-8.4648-5.6172-13.547-5.6172h-90.117c-5.082 0-9.957 2.0195-13.547 5.6172-3.5938 3.5938-5.6094 8.4727-5.6016 13.555v50.391c0 5.0859-2.0195 9.9609-5.6172 13.555-3.5938 3.5977-8.4688 5.6172-13.555 5.6172h-50.414c-5.082 0-9.957 2.0195-13.547 5.6172-3.5938 3.5938-5.6094 8.4727-5.6016 13.555v90.094c0 5.0781 2.0156 9.9492 5.6094 13.539 3.5898 3.5938 8.4609 5.6094 13.539 5.6094h50.414c5.0859 0 9.9609 2.0195 13.555 5.6172 3.5977 3.5938 5.6172 8.4688 5.6172 13.555v50.414c0 5.0781 2.0156 9.9492 5.6094 13.539 3.5898 3.5938 8.4609 5.6094 13.539 5.6094h90.117c5.0781 0 9.9492-2.0156 13.539-5.6094 3.5938-3.5898 5.6094-8.4609 5.6094-13.539v-50.414c0-5.0859 2.0195-9.9609 5.6172-13.555 3.5938-3.5977 8.4688-5.6172 13.555-5.6172h50.391c5.082 0.007813 9.9609-2.0078 13.555-5.6016 3.5977-3.5898 5.6172-8.4648 5.6172-13.547z"/>
  <path d="m233.25 408.35h72.961c4.1133 0 8.0625-1.6328 10.973-4.543s4.543-6.8594 4.543-10.973v-40.828c0-4.1133 1.6328-8.0625 4.543-10.973 2.9102-2.9102 6.8594-4.543 10.973-4.543h40.828c4.1133 0 8.0625-1.6328 10.973-4.543 2.9102-2.9102 4.543-6.8594 4.543-10.973v-72.961c0-4.1133-1.6328-8.0625-4.543-10.973-2.9102-2.9102-6.8594-4.543-10.973-4.543h-40.828c-4.1133 0-8.0625-1.6328-10.973-4.543-2.9102-2.9102-4.543-6.8594-4.543-10.973v-40.828c0-4.1133-1.6328-8.0625-4.543-10.973s-6.8594-4.543-10.973-4.543h-72.961c-4.1133 0-8.0625 1.6328-10.973 4.543s-4.543 6.8594-4.543 10.973v40.828c-0.007813 4.1133-1.6445 8.0547-4.5508 10.965-2.9102 2.9062-6.8516 4.543-10.965 4.5508h-40.828c-4.1133 0-8.0625 1.6328-10.973 4.543-2.9102 2.9102-4.543 6.8594-4.543 10.973v73.078c0 4.1133 1.6328 8.0625 4.543 10.973 2.9102 2.9102 6.8594 4.543 10.973 4.543h40.828c4.1133 0 8.0625 1.6328 10.973 4.543s4.543 6.8594 4.543 10.973v40.828c0.03125 4.0938 1.6797 8.0117 4.5859 10.895 2.9062 2.8867 6.8359 4.5039 10.93 4.5039z"/>
 </g>
</svg>
