<?xml version="1.0" encoding="UTF-8"?>
<svg width="1200pt" height="1200pt" version="1.1" viewBox="0 0 1200 1200" xmlns="http://www.w3.org/2000/svg">
 <g fill="#fff">
  <path d="m266.37 567.56c6.3984 27.656 16.406 76.734 18.586 119.93 0.089844 4.4414 2.8242 8.3984 6.9492 10.051 4.125 1.6484 8.8359 0.67188 11.965-2.4805 10.34-10.562 18.176-23.312 22.922-37.312 6.9414-20.992 4.2656-43.977-7.3125-62.812-8.25-13.547-20.438-29.484-36.492-39.844-8.3906-5.4141-18.938 2.5312-16.617 12.469z"/>
  <path d="m539.23 285.59c-2.7109-1.2578-5.8906-0.94141-8.2969 0.83203-2.4062 1.7695-3.6562 4.7148-3.2578 7.6758 2.1094 18.891 11.391 47.93 47.672 55.43 14.258 2.6133 28.18 6.8086 41.508 12.516 3.9336 1.7031 8.4922 1.0352 11.77-1.7266s4.7109-7.1406 3.6992-11.305c-3.7266-17.625-13.664-38.977-39.305-46.875-32.273-10.031-44.578-12.117-53.789-16.547z"/>
  <path d="m813.52 301.05c0 13.281-10.441 24.047-23.32 24.047-12.879 0-23.32-10.766-23.32-24.047s10.441-24.047 23.32-24.047c12.879 0 23.32 10.766 23.32 24.047"/>
  <path d="m1083.3 1022.5c-4.4883 4.7266-10.891 7.1445-17.383 6.5664-6.4922-0.58203-12.367-4.0938-15.945-9.543-5.9766-8.9766-11.438-23.438-11.859-46.617-0.58594-32.93 16.148-62.742 28.758-80.438 2.6992-3.8242 7.332-5.7891 11.957-5.0742s8.4453 3.9883 9.8633 8.4492c7.0508 20.547 11.469 41.906 13.148 63.562 1.2969 15.105-1.043 30.305-6.8203 44.32-2.7852 6.8906-6.7539 13.242-11.719 18.773z"/>
  <path d="m822.66 1007.5c0.91406 4.2891 2.0156 9.0703 3.3516 14.062 11.086 42.188 52.008 68.695 93.469 60.141l1.3828-0.28125c4.457-1.0977 8.1641-4.1719 10.059-8.3516 1.8984-4.1758 1.7734-8.9961-0.33203-13.07-11.531-23.18-38.719-62.93-91.758-70.312-4.75-0.59766-9.4961 1.1562-12.715 4.7031-3.2227 3.5469-4.5117 8.4375-3.457 13.109z"/>
  <path d="m1114.2 257.46c-11.719-31.969-31.664-67.617-65.273-91.875 0 0-52.922-42.656-71.391-86.367-1.4727-3.6172-5.1406-5.8359-9.0273-5.4648-3.8867 0.375-7.0664 3.2539-7.8242 7.082-1.8203 8-3.1016 16.109-3.8438 24.281-0.41797 5.8672-3.5234 11.215-8.4102 14.488-4.8867 3.2773-11.012 4.1133-16.598 2.2695-42.773-14.695-135.68-33.891-231.09 29.109-10.5 7.0312-7.1953 23.438 5.1328 25.359 54.938 8.2969 161.04 39.375 215.98 155.37 1.7578 3.7109 2.9648 7.6602 3.5859 11.719 1.6875 11.555 1.7812 33.328-19.195 41.273-9.5 3.5742-20.035 3.2188-29.273-0.98438-5.1484-2.2617-9.7617-5.5938-13.523-9.7734-2.3477-2.5664-6.0664-3.3516-9.25-1.9492-3.1836 1.3984-5.1211 4.6719-4.8125 8.1367 1.4766 19.875 8.6719 45.164 30.469 70.547 14.004 16.098 22.457 36.27 24.117 57.539 2.1328 30.141-6.1406 68.438-53.906 88.43-6.4258 2.6328-13.199 4.3242-20.109 5.0156-7.6719 0.77734-15.391 0.93359-23.086 0.46875-36.445-2.3438-64.242-33.984-64.641-71.648-0.375-37.078-10.594-90.984-60.422-123.47-9.8906-6.4453-22.641 2.6016-20.367 14.461 5.1797 27.164 5.5312 64.312-30.141 67.711-15.879 1.2539-31.555-4.2422-43.172-15.141l-482.91-399.05c-19.664-17.883-47.414 9.1406-31.195 30.469 129.7 170.32 342.73 398.58 412.5 506.79 7.9375 12.086 11.66 26.453 10.594 40.875-0.60547 8.9023-3.5156 17.496-8.4375 24.938-19.219 28.125-60.938 24.633-77.344-5.4141-2.4688-4.5664-4.5977-9.3047-6.375-14.18-1.1836-3.2656-4.418-5.3203-7.875-5.0078-3.457 0.31641-6.2695 2.9219-6.8438 6.3438-5.7656 28.898-6.5859 74.695 34.617 103.12 20.277 13.922 45.168 19.426 69.422 15.352 14.723-2.4531 29.672-3.293 44.578-2.5078 55.148 3.3281 85.148 68.648 51.422 113.81-9.5508 12.777-21.68 23.406-35.602 31.195-21.402 12.152-46.129 17.156-70.57 14.273-37.312-4.4297-95.953-25.781-133.97-110.16-1.7617-4.1523-5.0898-7.4453-9.2617-9.1602s-8.8516-1.7148-13.023 0-7.5 5.0078-9.2617 9.1602c-2.1992 4.8984-4.1094 9.9219-5.7188 15.047-1.6094 5.5312-5.9023 9.875-11.414 11.555-5.5078 1.6758-11.496 0.46094-15.914-3.2344-31.031-25.781-83.156-91.406-79.688-237.96 0.46875-20.578-26.016-28.453-35.883-10.547-18 32.625-34.711 81.141-32.297 147 0 0-19.547 6.2109-43.5-12.633-9.75-7.6875-23.883-0.63281-24.422 12.023-3.6562 84.656 6.1406 296.34 185.93 365.95 33.203 12.613 68.453 18.973 103.97 18.75h359.44c20.016 0 27.656-26.977 10.758-38.039-8.0586-5.0938-16.648-9.2969-25.617-12.539-9.9688-3.6602-19.496-8.4258-28.406-14.203-12.91-8.4297-24.523-18.691-34.477-30.469-18.375-22.055-4.6875-56.414 23.438-59.578 28.223-3.3086 56.707-3.6914 85.008-1.1484 19.57 1.8984 34.289-17.883 27.188-36.773-13.523-35.766-29.602-64.875-73.57-129.52l-97.078-158.13c-10.594-17.25 9.2109-37.195 25.664-25.781 66.586 45.984 163.62 114.84 217.78 161.72 2.7461 2.3516 6.25 3.6328 9.8633 3.6133 3.6172-0.023438 7.1016-1.3477 9.8203-3.7344 2.7188-2.3867 4.4844-5.6719 4.9727-9.2539 2.457-15.586 6.1641-30.945 11.086-45.938 2.4922-8.1055 9.1016-14.277 17.359-16.207 8.2539-1.9297 16.914 0.67188 22.742 6.832 13.488 14.488 25.145 30.578 34.711 47.906 4.1055 7.3789 7.7383 15.012 10.875 22.852 4.5 10.945 16.406 32.648 45.117 50.883 4.1758 2.6133 9.4766 2.6094 13.652-0.003906 4.1719-2.6133 6.4883-7.3789 5.9648-12.277-1.8281-22.453-2.3438-57.492 6.3516-91.664 1.2148-5.5391 4.6484-10.336 9.5-13.277 4.8477-2.9375 10.691-3.7617 16.164-2.2734 5.4727 1.4844 10.098 5.1484 12.797 10.137 10.641 19.375 20.277 39.285 28.875 59.648 2.0273 4.8789 7.25 7.6211 12.418 6.5195 5.168-1.1055 8.8164-5.7344 8.6758-11.02v-435.49c0.18359-32.785-5.4062-65.344-16.523-96.188zm-541.71 300.35c0.23047 5.957-2.0977 11.727-6.3945 15.855-4.2969 4.1328-10.156 6.2305-16.098 5.7656-5.9414-0.46484-11.402-3.4453-15.008-8.1914l-93.75-111.84c-7.4062-9.6797 5.3438-21.984 14.227-13.711l110.16 95.039c4.4297 4.1719 6.9336 9.9922 6.9141 16.078zm-66.586 507.07c-7.2891 13.008-24.633 16.734-38.766 8.3203-14.133-8.4141-19.688-25.781-12.422-38.789 7.2656-13.008 24.633-16.734 38.766-8.3203 14.133 8.4141 19.758 25.781 12.422 38.789zm539.2-546.91c-3.0469 3.0117-7.5586 4.0039-11.586 2.5469-4.0312-1.457-6.8633-5.1016-7.2812-9.3672-2.2812-14.73-6.1172-29.18-11.438-43.102-12.797-35.836 6.375-59.18 20.859-70.898 2.3477-1.8516 5.5234-2.2578 8.2617-1.0625 2.7383 1.1953 4.6016 3.8008 4.8398 6.7812 1.125 10.383 5.8359 22.312 14.461 55.922 6.9375 26.719-5.5312 46.617-18.117 59.18z"/>
 </g>
</svg>
