<?xml version="1.0" encoding="UTF-8"?>
<svg width="1200pt" height="1200pt" version="1.1" viewBox="0 0 1200 1200" xmlns="http://www.w3.org/2000/svg">
 <g fill="#fff">
  <path d="m504.26 849.54c3.9883-1.1797 7.4336-3.7266 9.7266-7.1953 3.6953-4.1445 5.0469-9.875 3.5859-15.234-0.90625-3.8086-3.293-7.0977-6.6328-9.1406-0.32031-0.17578-0.62891-0.37891-0.91406-0.60938-2.4883-1.5078-5.3398-2.3164-8.25-2.3438-1.7227 0.007813-3.4336 0.28906-5.0625 0.84375-1.2891 0.23047-2.5352 0.64844-3.7031 1.2422-2.7266 1.1328-5.1055 2.9688-6.8906 5.3203-2.3242 2.9844-3.5859 6.6602-3.5859 10.441s1.2617 7.457 3.5859 10.441c2.0703 2.7148 4.8984 4.7539 8.125 5.8633 3.2305 1.1094 6.7148 1.2383 10.016 0.37109z"/>
  <path d="m672.19 895.97c-28.266 21.094-57.961 42.445-92.133 52.734-8.7656 2.6484-70.312 28.594-106.8-46.406-13.406-27.516-42.539-35.93-66.773-52.805-23.98-16.867-37.816-44.715-36.773-74.016 0.23438-7.2188 0.77344-17.648 5.5781-23.578 3.6797-4.5469 4.5-3.9844 9.7266-1.8281 3.4844 1.4688 6.7461 3.4258 9.6797 5.8125 15.188 12.305 28.57 27.398 42.539 41.133 10.219 10.031 32.461 0 26.109-15.211-20.391-48.633-36.117-94.828-20.555-147.33 13.359-45.094 34.266-86.156 37.219-133.92 2.5781-41.883-8.5312-84.516-38.555-114.98-3.9727-4-8.1641-7.7695-12.562-11.297-23.93-29.695-73.477-42.961-107.48-43.055-57.727-0.14062-108.28 27.609-153.12 62.883-39.727 31.266-80.156 96.797-90.727 145.9-18.398 85.406-20.906 163.64 5.5078 276.23 23.016 98.109 67.383 203.91 148.59 268.1 43.641 34.453 98.438 55.102 154.57 49.219 18.938-1.9688 22.125-26.273-1.4531-33.047-12.82-3.6797-25.5-6.2109-38.625-9.375-41.133-9.8672-62.742-30.633-73.828-53.086-1.4453-2.8242-0.87891-6.2656 1.4023-8.4727 2.2773-2.2109 5.7344-2.6719 8.5117-1.1367 16.406 9.0703 38.367 21.094 46.195 24.328 23.227 9.6172 47.289 17.078 71.883 22.289 43.242 9.0703 88.641 11.156 131.72 0 36.445-9.375 74.859-21.938 100.78-49.219 22.523-23.672 62.414-66.75 62.414-116.62 0.070313-10.617-13.336-20.508-23.039-13.242zm-476.39-84.375c-5.5391 0-10.852-2.1992-14.766-6.1172-3.918-3.9141-6.1172-9.2266-6.1172-14.766 0-5.5391 2.1992-10.852 6.1172-14.766 3.9141-3.918 9.2266-6.1172 14.766-6.1172s10.852 2.1992 14.766 6.1172c3.918 3.9141 6.1172 9.2266 6.1172 14.766 0.03125 5.5547-2.1562 10.895-6.0781 14.832-3.918 3.9414-9.2461 6.1523-14.805 6.1445zm143.51-295.97c-1.332 6.9258-3.3906 13.688-6.1406 20.18-9.5156 22.852-29.227 40.359-53.602 44.531-8.543 1.5352-17.301 1.375-25.781-0.46875-7.5039-1.5742-15.324-0.41016-22.043 3.2812-6.7227 3.6953-11.898 9.6719-14.59 16.852-8.0859 21.492-16.688 55.992-17.578 106.83-0.30469 17.953-26.086 19.969-29.32 2.3438-8.4492-45.773-6.3711-92.867 6.0703-137.72 7.8828-29.465 22.016-56.891 41.438-80.414 10.039-12.223 21.832-22.891 34.992-31.664 41.227-26.742 95.531 7.9688 86.555 56.25z"/>
  <path d="m695.74 350.46c-3.9883 1.1797-7.4336 3.7266-9.7266 7.1953-3.6953 4.1445-5.0469 9.875-3.5859 15.234 0.90625 3.8086 3.293 7.0977 6.6328 9.1406 0.32031 0.17578 0.62891 0.37891 0.91406 0.60938 2.4883 1.5078 5.3398 2.3164 8.25 2.3438 1.7227-0.007813 3.4336-0.28906 5.0625-0.84375 1.2891-0.23047 2.5352-0.64844 3.7031-1.2422 2.7266-1.1328 5.1055-2.9688 6.8906-5.3203 2.3242-2.9844 3.5859-6.6602 3.5859-10.441s-1.2617-7.457-3.5859-10.441c-2.0703-2.7148-4.8984-4.7539-8.125-5.8633-3.2305-1.1094-6.7148-1.2383-10.016-0.37109z"/>
  <path d="m527.81 304.03c28.266-21.094 57.961-42.445 92.133-52.734 8.7656-2.6484 70.312-28.594 106.8 46.406 13.406 27.516 42.539 35.93 66.773 52.805 23.98 16.867 37.816 44.715 36.773 74.016-0.23438 7.2188-0.77344 17.648-5.5781 23.578-3.6797 4.5469-4.5 3.9844-9.7266 1.8281-3.4844-1.4688-6.7461-3.4258-9.6797-5.8125-15.188-12.305-28.57-27.398-42.539-41.133-10.219-10.031-32.461 0-26.109 15.211 20.391 48.633 36.117 94.828 20.555 147.33-13.359 45.094-34.266 86.156-37.219 133.92-2.5781 41.883 8.5312 84.516 38.555 114.98 3.9727 4 8.1641 7.7695 12.562 11.297 23.93 29.695 73.477 42.961 107.48 43.055 57.727 0.14062 108.28-27.609 153.12-62.883 39.727-31.266 80.156-96.797 90.727-145.9 18.398-85.406 20.906-163.64-5.5078-276.23-23.016-98.109-67.383-203.91-148.59-268.1-43.641-34.453-98.438-55.102-154.69-49.219-18.938 1.9688-22.125 26.273 1.4531 33.047 12.82 3.6797 25.5 6.2109 38.625 9.375 41.133 9.8672 62.742 30.633 73.828 53.086 1.4453 2.8242 0.87891 6.2656-1.4023 8.4727-2.2773 2.2109-5.7344 2.6719-8.5117 1.1367-16.406-9.0703-38.367-21.094-46.195-24.328-23.227-9.6172-47.289-17.078-71.883-22.289-43.242-9.0703-88.641-11.156-131.72 0-36.445 9.375-74.859 21.938-100.78 49.219-22.523 23.672-62.414 66.75-62.414 116.62 0.046875 10.617 13.453 20.508 23.156 13.242zm476.39 84.375c5.5391 0 10.852 2.1992 14.766 6.1172 3.918 3.9141 6.1172 9.2266 6.1172 14.766 0 5.5391-2.1992 10.852-6.1172 14.766-3.9141 3.918-9.2266 6.1172-14.766 6.1172s-10.852-2.1992-14.766-6.1172c-3.918-3.9141-6.1172-9.2266-6.1172-14.766-0.03125-5.5547 2.1562-10.895 6.0781-14.832 3.918-3.9414 9.2461-6.1523 14.805-6.1445zm-143.51 295.97c1.332-6.9258 3.3906-13.688 6.1406-20.18 9.5156-22.852 29.227-40.359 53.602-44.648 8.543-1.5352 17.301-1.375 25.781 0.46875 7.4883 1.582 15.297 0.43359 22.016-3.2344 6.7188-3.6719 11.902-9.625 14.617-16.781 8.0859-21.492 16.688-55.992 17.578-106.83 0.30469-17.953 26.086-19.969 29.32-2.3438 8.4492 45.773 6.3711 92.867-6.0703 137.72-7.8828 29.465-22.016 56.891-41.438 80.414-10.039 12.223-21.832 22.891-34.992 31.664-41.227 26.742-95.531-7.9688-86.555-56.25z"/>
 </g>
</svg>
