<?xml version="1.0" encoding="UTF-8"?>
<svg width="1200pt" height="1200pt" version="1.1" viewBox="0 0 1200 1200" xmlns="http://www.w3.org/2000/svg">
 <g fill="#fff">
  <path d="m976.24 620.86h-559.05c-74.902 0-146.74-29.754-199.7-82.719s-82.719-124.8-82.719-199.7 29.754-146.74 82.719-199.7 124.8-82.719 199.7-82.719h1.6875c72.953-0.13281 143.1 28.109 195.61 78.75l15.984 15.234c22.922 22 32.367 54.559 24.773 85.41-7.5938 30.852-31.066 55.312-61.582 64.16-30.516 8.8516-63.434 0.75-86.355-21.25l-15.914-15.258c-19.434-18.73-45.383-29.176-72.375-29.133h-1.8281c-37.344 0-71.855 19.922-90.527 52.266s-18.672 72.188 0 104.53 53.184 52.266 90.527 52.266h559.05c31.43 0.51172 60.254 17.57 75.824 44.879 15.57 27.305 15.57 60.805 0 88.109-15.57 27.309-44.395 44.367-75.824 44.879z"/>
  <path d="m582.75 1143.9c-55.695-0.042968-109.1-22.184-148.48-61.559-39.391-39.375-61.547-92.77-61.609-148.46 0.03125-61.426 24.43-120.33 67.844-163.78s102.29-67.906 163.72-67.992h393.28c24.148 0 46.465 12.883 58.539 33.797 12.074 20.914 12.074 46.68 0 67.594-12.074 20.914-34.391 33.797-58.539 33.797h-393.21c-25.559 0.03125-50.059 10.195-68.129 28.27-18.074 18.07-28.238 42.57-28.27 68.129 0 19.867 7.8828 38.922 21.918 52.984 14.035 14.059 33.074 21.977 52.941 22.016 9.0039-0.019531 17.727-3.1523 24.684-8.8672 6.9609-5.7148 11.727-13.664 13.496-22.492l0.16406-0.75c3.5742-17.562 13.98-32.988 28.926-42.879 14.945-9.8906 33.211-13.441 50.773-9.8672 17.562 3.5742 32.988 13.98 42.879 28.926 9.8906 14.945 13.441 33.211 9.8672 50.773v0.51562c-7.9805 39.426-29.344 74.883-60.465 100.37-31.125 25.484-70.098 39.434-110.32 39.48z"/>
 </g>
</svg>
