<?xml version="1.0" encoding="UTF-8"?>
<svg width="1200pt" height="1200pt" version="1.1" viewBox="0 0 1200 1200" xmlns="http://www.w3.org/2000/svg">
 <path d="m866.41 85.664c-16.406-33.492-62.227-38.602-85.031-9.1172-84.492 109.29-263.88 206.02-263.88 206.02-229.88 118.83-266.04 346.12-266.04 346.12-19.43 131.95 25.383 219.75 78.422 275.6 1.0078 1.0547 2.0156 2.1328 3.0469 3.1875 8.7461 9 20.59 14.332 33.125 14.906 12.535 0.57422 24.82-3.6484 34.352-11.812 55.625-47.973 102.86-104.89 139.73-168.42 9.375-16.242 30.469-22.547 46.43-12.797 7.3242 4.4258 12.648 11.516 14.863 19.781 2.2148 8.2656 1.1484 17.066-2.9805 24.562-12.328 22.406-32.18 57.047-56.367 94.477 0 0-86.531 119.79-157.73 198.02-17.508 19.242-16.547 49.547 3.4453 66.164 8.6289 7.1758 19.621 10.875 30.832 10.383 11.211-0.49219 21.836-5.1484 29.801-13.055 37.824-37.523 73.43-77.215 106.64-118.88 3.5273-4.4922 8.9102-7.1328 14.625-7.1719 137.77-0.75 227.84-74.461 283.59-148.31 48.539-64.359 78.516-140.62 89.438-220.57 35.742-261.87-28.008-450.21-76.312-549.09zm-217.08 546.54c-10.117 0.007813-19.82-4.0078-26.977-11.156-7.1562-7.1523-11.176-16.852-11.18-26.969-0.003907-10.117 4.0156-19.82 11.168-26.973 7.1523-7.1523 16.855-11.172 26.973-11.168 10.117 0.003906 19.816 4.0234 26.969 11.18 7.1484 7.1562 11.164 16.859 11.156 26.977-0.007812 10.105-4.0234 19.797-11.168 26.941-7.1445 7.1445-16.836 11.16-26.941 11.168z" fill="#fff"/>
</svg>
