<?xml version="1.0" encoding="UTF-8"?>
<svg width="1200pt" height="1200pt" version="1.1" viewBox="0 0 1200 1200" xmlns="http://www.w3.org/2000/svg">
 <g fill="#fff">
  <path d="m315.49 69.188h569.02c7.6094 0 13.781 7.6094 13.781 13.781v40.617c0 7.6094-6.1719 13.781-13.781 13.781h-569.02c-7.6094 0-13.781-7.6094-13.781-13.781v-40.617c0-7.6094 6.1719-13.781 13.781-13.781z"/>
  <path d="m315.49 1062.6h569.02c7.6094 0 13.781 7.6094 13.781 13.781v40.617c0 7.6094-6.1719 13.781-13.781 13.781h-569.02c-7.6094 0-13.781-7.6094-13.781-13.781v-40.617c0-7.6094 6.1719-13.781 13.781-13.781z"/>
  <path d="m670.31 627.82c-4.1641-1.4258-7.9648-3.7461-11.133-6.7969-5.6836-5.5156-8.8945-13.102-8.8945-21.023s3.2109-15.508 8.8945-21.023c3.168-3.0508 6.9688-5.3711 11.133-6.7969 172.83-59.789 198.59-254.25 199.05-361.71 0.019531-7.0508-2.7734-13.816-7.7539-18.805-4.9844-4.9883-11.75-7.7852-18.801-7.7734h-485.62c-7.043 0-13.797 2.8008-18.77 7.7891-4.9727 4.9844-7.7578 11.746-7.7383 18.789 0.46875 107.46 26.227 301.92 199.05 361.71 4.1641 1.4258 7.9648 3.7461 11.133 6.7969 5.6836 5.5156 8.8945 13.102 8.8945 21.023s-3.2109 15.508-8.8945 21.023c-3.168 3.0508-6.9688 5.3711-11.133 6.7969-172.83 59.789-198.59 254.25-199.05 361.71-0.019532 7.043 2.7656 13.805 7.7383 18.789 4.9727 4.9883 11.727 7.7891 18.77 7.7891h485.62c7.043 0 13.797-2.8008 18.77-7.7891 4.9727-4.9844 7.7578-11.746 7.7383-18.789-0.46875-107.46-26.227-301.92-199.01-361.71zm-210.94-189.84c-3.7461-4.9961-5.4961-11.207-4.9023-17.422 0.58984-6.2188 3.4805-11.988 8.1016-16.188 4.6211-4.1992 10.645-6.5195 16.887-6.5156h241.1c6.2461-0.003906 12.27 2.3242 16.891 6.5234 4.6211 4.2031 7.5078 9.9805 8.0938 16.199s-1.168 12.434-4.9219 17.426c-29.648 40.129-73.289 67.66-122.27 77.133-12.133 2.4141-24.617 2.4141-36.75 0-48.969-9.4844-92.59-37.012-122.23-77.133zm263.91 512.41h-246.54c-21.094 0-39.398-39.141-20.508-57.516 33.609-32.719 74.484-75.117 125.02-110.51 5.5312-3.8672 12.07-8.3438 18.75-7.7344 6.7266-0.60937 13.266 3.8672 18.75 7.7344 50.484 35.391 91.406 77.883 124.97 110.53 18.938 18.375 0.65625 57.516-20.461 57.516z"/>
 </g>
</svg>
