<?xml version="1.0" encoding="UTF-8"?>
<svg width="1200pt" height="1200pt" version="1.1" viewBox="0 0 1200 1200" xmlns="http://www.w3.org/2000/svg">
 <g fill="#fff">
  <path d="m499.85 934.76c-0.11719-0.49219-0.1875-0.79687 0 0z"/>
  <path d="m304.43 282.49c1.8984-2.3438 9.4922-17.273 10.5-22.477 3.1172-15.867-1.1484-34.031-13.734-44.836-15.234-13.055-36.773-6.8438-45.234 10.5-7.1719 14.742-9.375 35.836-0.23438 50.227 9.7969 15.539 35.836 22.57 48.703 6.5859z"/>
  <path d="m467.37 146.62c19.383 4.9219 43.57-15.586 38.461-46.055-2.9297-17.344-12.141-33.586-30.469-33.398-5.4023 0.035156-10.691 1.5469-15.293 4.3711-4.6016 2.8281-8.3438 6.8594-10.816 11.66-7.2891 9.1406-7.7812 25.781-6.7031 36.562 1.5703 15.141 13.992 24.094 24.82 26.859z"/>
  <path d="m715.22 232.64c7.2656-11.008 11.672-23.656 12.82-36.797 1.2422-12.07 0.23438-27.938-7.2891-37.945-3.8359-5.5938-9.7383-9.4297-16.406-10.664-3.6133-1.4883-7.5078-2.1914-11.414-2.0625-13.734 0.35156-24.281 7.5-29.016 18.328-9.7031 26.133-7.1719 49.711 3.5625 67.969 9.5625 16.289 41.414 10.547 47.742 1.1719z"/>
  <path d="m1005.8 745.5c-1.5234-0.63281-26.742-4.2891-36.07 20.953-2.6953 7.8672-7.7031 14.738-14.367 19.711-3.75 2.6445-7.8867 4.6992-12.258 6.0938-6.0781 2.1094-12.613 2.5312-18.914 1.2188-10.055-2.3438-9.8906-7.7578-9.375-16.734 2.0156-36.914 20.391-71.297 31.43-106.01 21.992-70.117 25.656-144.7 10.641-216.63-10.875-52.477-36.867-129.28-103.85-124.08-25.031 1.9219-49.219 16.406-56.25 41.672-4.125 14.953 2.9062 31.711-1.4062 45.867-4.8047 15.773-23.602 8.0391-32.695 0.72656-25.945-20.859-37.875-53.086-51.234-82.195-12.633-27.516-43.523-36.516-64.523-11.484-19.664 23.438-28.289 62.273-26.203 92.203 0.96094 13.828 4.6875 28.266 14.062 38.883 11.32 12.797 26.906 15.867 42.797 19.688 54.188 12.961 116.86 33.328 148.99 82.453 36.141 55.266 28.828 144.89-5.9766 199.22-19.922 31.078-50.859 53.438-81.773 72.656-13.781 8.5312-28.477 16.945-36.211 31.875-8.7188 16.898-1.2891 33.609-5.5078 50.789-3.2109 13.031-13.477 19.125-23.438 21.938-5.4102 1.457-11.191 0.32812-15.66-3.0547-4.4688-3.3828-7.125-8.6367-7.1914-14.242-0.16406-9.2344-0.84375-18.469-5.5781-25.125-5.8359-8.25-17.18-10.945-24.938-3.2109-9.7734 9.7031-10.008 25.781-8.3203 40.477 0.375 3.1484-0.5625 6.3086-2.5859 8.7461-2.0273 2.4375-4.9648 3.9336-8.125 4.1445h-1.3359c-3.2578 0.21094-10.383 0.89062-19.5 1.5234-2.7539 0.19141-5.4648-0.74609-7.5078-2.6016-2.0469-1.8516-3.2422-4.4609-3.3203-7.2188-0.14062-5.4375-0.28125-10.852-0.51562-16.406-0.42188-10.641-0.23438-20.508-8.3672-28.359-5.1758-4.957-13.34-4.957-18.516 0-8.9062 8.0156-8.2969 19.195-8.9062 30.469-0.375 4.2695-0.46875 8.5625-0.28125 12.844 0.28906 3.7695-0.98438 7.4961-3.5234 10.297-2.543 2.8047-6.125 4.4375-9.9062 4.5156-12.234 0.30469-23.438-5.6719-23.438-22.125-2.8125-31.078-7.7109-63.164-25.781-89.062-20.789-29.578-54.211-40.312-83.578-58.734-34.828-21.844-44.977-60.516-42.82-99.656 2.3438-44.133 15.305-89.062 25.336-132.07 3.8438-16.523 8.2031-38.391 23.438-48.562 5.2734-3.5391 12.422-6.2812 18.867-4.8984 7.3594 1.5703 10.008 7.7109 15.422 12.234 15.211 12.773 33.375 5.5312 49.523-1.1953 16.828-7.0312 33.094-16.195 45.844-29.438 24.867-25.781 33.75-64.453 14.719-96.094-11.086-18.398-16.102-31.055-14.719-52.992 1.1719-18.469 4.8281-36.773 3.2109-55.312-2.5781-29.883-19.477-65.836-54.164-66.633-16.406-0.375-30 7.9453-40.148 20.32-0.65625 0.82031-1.2891 1.6406-1.875 2.3438-8.4805 10.031-14.293 22.043-16.898 34.922-3.75 17.156-3.8672 34.875-6.4219 52.219-2.6797 17.934-7.168 35.547-13.406 52.57-5.4375 14.883-12 31.078-22.266 43.359-8.9766 10.711-26.203 19.359-33.844 2.9062-5.7656-12.398-6.4922-25.523-14.531-37.148-8.4375-12.164-21.422-20.344-36.609-19.383-28.125 1.8047-39.328 31.852-42.188 55.594-4.6875 36.773-3.3281 74.039-13.008 110.16-9.0938 33.844-24.375 65.625-35.414 98.766-11.414 34.336-22.664 71.555-24.445 107.58-2.5781 51.984 0.98437 109.08 24.258 156.52 3.0352 9.8906 7.7266 19.195 13.875 27.516 10.57 14.414 26.602 28.125 45.234 28.875 6.2344 0.23437 10.664-6.0938 9.9375-11.719 0.24219-1.2773 0.10547-2.5977-0.39844-3.7969-3.7031-9.375-9.75-17.484-5.8828-27.961 4.8516-13.172 21.094-17.672 33.703-15.422 20.32 3.6328 31.453 20.039 46.078 31.641 12.727 12.492 24.398 26.484 30.938 42.797 3.2812 8.1562 8.4375 19.828-1.0078 24.75-7.9922 4.1719-19.969 2.5312-28.477 1.8984-17.672-1.2891-22.898 20.766-13.289 32.109 44.109 52.055 105.61 94.523 172.8 109.52 3.0898 0.74219 6.3203 0.67188 9.375-0.21094 43.758 12.633 95.742 11.719 138.66 2.8594 52.289-10.852 96.914-42.727 147.66-58.195 24.07-7.3125 48.141-14.789 69.633-28.125 20.316-13.176 38.797-28.984 54.961-47.016 32.812-35.508 62.742-75.445 83.906-119.04 15.68-32.367 52.547-108.12 3.4453-128.27zm-107.6-237.82c-2.0742 1.0469-4.2734 1.832-6.5391 2.3438-6.582 3.3203-14.418 2.9648-20.672-0.9375-9.375-5.6719-13.641-15.305-15.867-25.406-2.375-6.2148-4.1836-12.633-5.4141-19.172-2.6719-12.703-6.6562-28.734-1.7344-41.297 2.8203-7.2031 8.6211-12.832 15.906-15.434 7.2852-2.6016 15.34-1.9219 22.086 1.8633 10.594 5.8594 17.367 18.539 21.516 29.367 7.4531 19.383 13.641 56.906-9.2812 68.672z"/>
  <path d="m540.05 650.46c-8.8594-13.781-22.125-25.312-35.672-30.469-26.953-10.125-55.664 2.7188-71.391 25.641-38.203 55.617 20.414 129.28 82.781 100.38 12.625-5.9648 22.934-15.926 29.328-28.34 6.3945-12.414 8.5156-26.59 6.0391-40.332-1.4609-9.7266-5.2656-18.953-11.086-26.883z"/>
  <path d="m743.16 627.4c-26.602-22.758-68.414-22.289-88.477 8.9062-6.918 11.996-11.453 25.215-13.359 38.93-3.0938 29.156 11.273 58.008 37.758 71.133 29.977 14.812 68.906 4.0547 85.453-25.781 17.203-30.82 4.3828-71.133-21.375-93.188z"/>
  <path d="m619.29 761.37c-9.8438-12.258-20.062-16.734-38.18-4.3828-6.7656 4.7188-11.969 11.344-14.953 19.031-2.8125 6.6562-11.461 27.844-10.289 32.812 2.0625 8.6484 9.8906 12.141 17.953 13.43 14.062 2.3438 49.57 1.7109 58.781-6.75 10.898-10.125-0.070312-37.641-13.312-54.141z"/>
 </g>
</svg>
