<?xml version="1.0" encoding="UTF-8"?>
<svg width="1200pt" height="1200pt" version="1.1" viewBox="0 0 1200 1200" xmlns="http://www.w3.org/2000/svg">
 <g fill="#fff">
  <path d="m978.52 93.234c-101.53-26.602-227.93-35.93-370.48-35.93-14.625 0-49.219-2.3438-74.133 2.1328-7.8203 1.4922-14.379 6.7969-17.477 14.133-3.0977 7.3359-2.3203 15.734 2.0664 22.379 4.3867 6.6445 11.805 10.656 19.77 10.691 22.945 0 56.883 1.2188 74.086 1.2188 136.76 0 249.28 14.648 345.23 39.844 35.156 9.2344 59.32 20.086 75.75 30.469 31.969 20.133 38.344 64.781 12.68 92.508-10.125 10.945-24.773 21.914-45.984 31.172-3.582 1.5625-5.8203 5.1797-5.6172 9.082 0.20313 3.9023 2.8047 7.2695 6.5312 8.4492 11.82 3.8164 24.562 3.6836 36.305-0.375 78.727-27.141 120.4-50.227 120.4-95.156 0-55.57-60.281-99.492-179.13-130.62z"/>
  <path d="m933.98 331.03c-0.007813-7.7383-3.082-15.156-8.5547-20.629-5.4727-5.4727-12.895-8.5469-20.633-8.5508-7.7383-0.003906-15.16 3.0625-20.641 8.5273-5.4766 5.4648-8.5625 12.883-8.5781 20.621s3.043 15.168 8.5 20.652 12.871 8.582 20.609 8.6055c7.7656 0.023438 15.223-3.043 20.719-8.5273s8.5859-12.934 8.5781-20.699z"/>
  <path d="m225.82 164.3c12.785-10.781 27.387-19.191 43.125-24.844 8.2734-2.3438 16.406-4.6875 24.492-7.0312 28.125-7.8281 53.344-14.508 67.406-18.211 3.3789-0.89063 6.4609-2.6641 8.9297-5.1328s4.2422-5.5508 5.1328-8.9297c3.375-12.844-5.9531-25.312-18.422-24.984-142.57 3.5625-314.06 39.188-314.06 139.34 0 58.594 60.281 105.16 179.13 138.12 101.53 28.125 223.71 30.305 366.12 23.789 80.953-3.7031 161.55-10.172 230.74-22.594 8.4375-1.5234 12.141-12.164 6.7266-19.172-7.8008-10.262-20.176-15.992-33.047-15.305-348.49 21.258-502.88-43.547-561.42-80.953-25.5-16.078-27.797-54.117-4.8516-74.086z"/>
  <path d="m818.34 612.42c8.4375-1.5234 12.141-12.164 6.7266-19.172-7.7969-10.266-20.172-16.004-33.047-15.328-348.49 21.281-501.14-46.406-561.42-80.93-22.57-12.914-16.992-38.297-7.5234-58.383 3.3516-7.1758 3.25-15.488-0.28516-22.578-3.5312-7.0898-10.105-12.176-17.855-13.82-21.094-4.5-40.172-8.8125-56.695-12.703-28.254-6.7812-58.008 1.4922-78.703 21.891-17.18 17.109-27.188 37.5-27.188 61.688 0 58.711 60.281 105.19 179.13 138.14 101.53 28.125 223.71 30.305 366.12 23.789 80.953-3.7266 161.55-10.172 230.74-22.594z"/>
  <path d="m1082.8 389.6c-13.34-6.9492-28.746-8.8242-43.359-5.2734h-0.35156c-4.7812 1.1289-9.1562 3.5586-12.641 7.0195-3.4844 3.4648-5.9375 7.8242-7.0938 12.598-0.35156 1.5469-0.65625 3.1406-0.86719 4.8047-0.64844 5.0352 0.14844 10.148 2.2969 14.75 2.1484 4.5977 5.5625 8.4883 9.8438 11.219l2.7188 1.7109 0.49219 0.32812c24.773 15.914 29.109 50.531 9.8203 72.797-15.141 17.461-42.188 40.031-89.062 58.594-13.148 5.2031-9.2344 24.727 4.8984 24.281 51.82-1.6875 121.34-14.062 173.72-60.938 2.4609-2.0352 4.8047-4.2031 7.0312-6.4922 11.383-11.34 17.688-26.801 17.484-42.867-0.09375-35.719-25.219-66.703-74.93-92.531z"/>
  <path d="m792.02 1083.2c-348.49 21.281-501.14-46.406-561.42-80.93-22.57-12.914-16.992-38.297-7.5234-58.406 3.3438-7.1719 3.2344-15.48-0.29688-22.562-3.5312-7.082-10.102-12.168-17.844-13.812-21.094-4.5-40.172-8.8125-56.695-12.703-28.254-6.7812-58.008 1.4922-78.703 21.891-17.18 17.109-27.188 37.5-27.188 61.688 0 58.711 60.281 105.19 179.13 138.14 101.53 28.125 223.71 30.305 366.12 23.789 80.953-3.7266 161.55-10.172 230.74-22.617 8.4375-1.5 12.141-12.141 6.7266-19.148-7.7891-10.277-20.172-16.02-33.047-15.328z"/>
  <path d="m1082.8 894.87c-13.34-6.9492-28.746-8.8242-43.359-5.2734h-0.35156c-4.7812 1.1289-9.1562 3.5586-12.641 7.0195-3.4844 3.4648-5.9375 7.8242-7.0938 12.598-0.35156 1.5469-0.65625 3.1406-0.86719 4.6875-0.64844 5.0352 0.14844 10.148 2.2969 14.75 2.1484 4.5977 5.5625 8.4883 9.8438 11.219l2.7188 1.7109 0.49219 0.32812c24.773 15.914 29.109 50.531 9.8203 72.797-15.141 17.461-42.188 40.031-89.062 58.594-13.148 5.1797-9.2344 24.727 4.8984 24.281 51.82-1.6875 121.34-14.062 173.72-60.938 2.4531-2.043 4.8008-4.2109 7.0312-6.4922 11.383-11.34 17.688-26.801 17.484-42.867-0.09375-35.602-25.219-66.586-74.93-92.414z"/>
  <path d="m1114.6 637.27c-14.668-10.684-33.906-12.781-50.531-5.5078-12.094 5.25-25.922 10.688-40.992 15.609-3.75 1.2422-6.5508 4.3945-7.3477 8.2617-0.79297 3.8711 0.54297 7.8711 3.5039 10.488l0.16406 0.14062c22.945 19.969 20.625 58.008-4.8047 74.25-45.727 29.227-177.59 72.539-399.23 79.969-14.777 0.48438-28.711 6.9883-38.578 18-3.5078 3.9414-5.3906 9.0664-5.2734 14.344 0.11719 5.2734 2.2266 10.309 5.9062 14.094 3.6797 3.7812 8.6523 6.0312 13.922 6.2969 7.0312 0.375 14.062 0.70312 21.094 1.0312 142.41 6.5156 264.59 4.3828 366.12-23.789 118.83-32.859 179.11-79.359 179.11-137.95 0-30.938-16.242-55.664-43.055-75.234z"/>
  <path d="m204.91 664.15c-21.094-4.5-40.172-8.8359-56.695-12.727-28.285-6.7891-58.07 1.5273-78.75 21.984-17.133 17.086-26.672 46.312-26.672 70.453 0 45.445 31.969 81.023 107.81 97.195 53.906 11.484 109.05 18.141 153.33 16.641 21.867-0.72656 37.969-2.9297 51.562-9.4922 16.781-8.1328 13.312-33.047-5.0156-36.539-37.969-7.2188-90.164-20.32-119.2-41.367-21.094-15.258-17.602-49.688-8.1328-69.773 3.3516-7.1875 3.2383-15.512-0.31641-22.598-3.5547-7.0898-10.152-12.164-17.918-13.777z"/>
  <path d="m440.44 841.88c0 7.5391 2.9961 14.77 8.3281 20.102 5.332 5.332 12.562 8.3281 20.102 8.3281 7.5391 0 14.77-2.9961 20.102-8.3281 5.332-5.332 8.3281-12.562 8.3281-20.102s-2.9961-14.77-8.3281-20.102c-5.332-5.332-12.562-8.3281-20.102-8.3281-7.5391 0-14.77 2.9961-20.102 8.3281-5.332 5.332-8.3281 12.562-8.3281 20.102z"/>
 </g>
</svg>
