<?xml version="1.0" encoding="UTF-8"?>
<svg width="1200pt" height="1200pt" version="1.1" viewBox="0 0 1200 1200" xmlns="http://www.w3.org/2000/svg">
 <g fill="#fff">
  <path d="m172.15 1112.9c4.1562-4.1445 7.668-8.8828 10.43-14.062 35.352 0.48828 70.613 3.707 105.47 9.6328 86.719 14.062 128.74-61.055 138.84-102.75 2.0039-8.2617-0.54688-16.965-6.6992-22.832-6.1523-5.8633-14.965-8.0039-23.121-5.6133-8.1562 2.3945-14.418 8.957-16.422 17.219-0.77344 3.1875-19.594 77.602-84.961 66.984-27.703-4.5-51.703-7.0312-71.719-8.5781-4.0039-0.27734-7.4492-2.9375-8.7305-6.7422-1.2812-3.8008-0.14844-8.0039 2.8711-10.648l170.79-150.38 76.219 76.219c3.0547 3.0703 7.4766 4.3359 11.691 3.3555 4.2188-0.98438 7.625-4.082 9.0039-8.1836 13.406-40.477 36.211-139.01-33.469-208.88s-168.33-47.086-208.8-33.492c-4.1016 1.3789-7.1992 4.7852-8.1836 9.0039-0.98047 4.2148 0.28516 8.6367 3.3555 11.691l76.219 76.219-176.04 199.9c-20.664-3.2305-41.523 4.5117-55.078 20.438-13.559 15.926-17.867 37.754-11.379 57.637 6.4883 19.883 22.84 34.969 43.18 39.836 20.344 4.8672 41.75-1.1836 56.535-15.98z"/>
  <path d="m452.34 686.72c24.215 15.992 44.945 36.723 60.938 60.938 3.0469 4.7227 8.1289 7.7461 13.734 8.1719 5.6016 0.42969 11.082-1.7891 14.812-5.9922l585.7-661.66c9.2578-10.477-5.2734-25.008-15.75-15.75l-661.78 585.68c-4.2148 3.7539-6.4219 9.2695-5.9609 14.895 0.46094 5.625 3.5352 10.707 8.3047 13.723z"/>
 </g>
</svg>
