<?xml version="1.0" encoding="UTF-8"?>
<svg width="1200pt" height="1200pt" version="1.1" viewBox="0 0 1200 1200" xmlns="http://www.w3.org/2000/svg">
 <g fill="#fff">
  <path d="m79.523 1086.4 36.469 36.469c3.75 3.7461 8.832 5.8516 14.133 5.8516s10.383-2.1055 14.133-5.8516l217.05-217.08c3.3555-3.3438 5.2422-7.8828 5.2422-12.621 0-4.7383-1.8867-9.2773-5.2422-12.621l-3.8438-3.9375 290.93-290.84c4.9297-4.918 5.0547-12.859 0.28125-17.93-2.6719-2.8125-5.3672-5.6016-8.1328-8.3438s-5.5312-5.4609-8.3438-8.1328c-5.0703-4.7734-13.012-4.6484-17.93 0.28125l-290.84 290.93-3.8203-3.8203c-3.3438-3.3555-7.8828-5.2422-12.621-5.2422-4.7383 0-9.2773 1.8867-12.621 5.2422l-217.03 217.05c-3.7461 3.75-5.8516 8.832-5.8516 14.133 0 5.3008 2.1055 10.383 5.8516 14.133z"/>
  <path d="m873.45 318.35-60.727 22.055c-4.25 1.5469-7.457 5.1055-8.5469 9.4961-1.0898 4.3945 0.074219 9.0391 3.1094 12.395 4.6875 5.25 9.6328 10.445 14.836 15.586 5.2031 5.1406 10.398 10.086 15.586 14.836 3.3555 3.0352 8 4.1992 12.395 3.1094 4.3906-1.0898 7.9492-4.2969 9.4961-8.5469l22.055-60.727c0.85156-2.3359 0.27344-4.957-1.4883-6.7148-1.7578-1.7617-4.3789-2.3398-6.7148-1.4883z"/>
  <path d="m516.4 234.38c92.203-80.531 186.38-84.656 234.82-79.828 3.8203 0.40234 7.6406-0.77344 10.57-3.2578 2.9297-2.4805 4.7188-6.0547 4.9453-9.8906l3.1172-53.367c0.42969-7.4922-5.1016-14-12.562-14.789-44.414-4.6875-191.2-9.0469-310.88 110.62-119.67 119.67-115.2 266.34-110.62 310.66 0.77734 7.4727 7.2891 13.016 14.789 12.586l53.367-3.1172c3.8359-0.22656 7.4102-2.0156 9.8906-4.9453 2.4844-2.9297 3.6602-6.75 3.2578-10.57-4.8281-48.445-0.70312-142.62 79.852-234.82 6.0508-6.8555 12.547-13.297 19.453-19.289z"/>
  <path d="m1126.9 442.71c-0.78906-7.4609-7.2969-12.992-14.789-12.562l-53.367 3.1172c-3.8359 0.22656-7.4102 2.0156-9.8906 4.9453-2.4844 2.9297-3.6602 6.75-3.2578 10.57 4.8516 48.445 0.70313 142.62-79.828 234.82-6.0508 6.9102-12.559 13.41-19.477 19.453-92.203 80.555-186.38 84.68-234.82 79.758-3.8203-0.40234-7.6406 0.77344-10.57 3.2578-2.9297 2.4805-4.7188 6.0547-4.9453 9.8906l-3.1172 53.367c-0.42969 7.5 5.1133 14.012 12.586 14.789 44.391 4.5703 191.2 9.0469 310.85-110.62 119.65-119.67 115.22-266.37 110.62-310.78z"/>
  <path d="m471.91 432.05c117.75-12.516 308.55 178.29 296.04 296.04-0.37891 3.1719 0.75391 6.3359 3.0547 8.5508 2.3047 2.2148 5.5078 3.2227 8.6641 2.7227 40.359-6.6094 89.906-24.609 139.2-67.664 5.5039-4.8203 10.68-10.004 15.492-15.516 43.055-49.219 61.078-98.836 67.664-139.17 0.5-3.1562-0.50781-6.3594-2.7227-8.6641-2.2148-2.3008-5.3789-3.4336-8.5508-3.0547-117.73 12.445-308.46-178.29-296.02-296.02 0.37891-3.1719-0.75391-6.3359-3.0547-8.5508-2.3047-2.2148-5.5078-3.2227-8.6641-2.7227-40.359 6.5625-89.906 24.656-139.27 67.641-5.5117 4.8125-10.695 9.9883-15.516 15.492-43.055 49.219-60.938 98.836-67.664 139.2-0.50391 3.168 0.51172 6.3906 2.7422 8.6953 2.2305 2.3047 5.418 3.4258 8.6016 3.0234z"/>
 </g>
</svg>
