<?xml version="1.0" encoding="UTF-8" standalone="no"?>
<svg
   height="512"
   width="512"
   version="1.1"
   id="svg774"
   sodipodi:docname="quarter_staff.svg"
   xmlns:inkscape="http://www.inkscape.org/namespaces/inkscape"
   xmlns:sodipodi="http://sodipodi.sourceforge.net/DTD/sodipodi-0.dtd"
   xmlns="http://www.w3.org/2000/svg"
   xmlns:svg="http://www.w3.org/2000/svg">
  <defs
     id="defs778" />
  <sodipodi:namedview
     id="namedview776"
     pagecolor="#505050"
     bordercolor="#ffffff"
     borderopacity="1"
     inkscape:showpageshadow="0"
     inkscape:pageopacity="0"
     inkscape:pagecheckerboard="1"
     inkscape:deskcolor="#505050"
     showgrid="false" />
  <g
     id="g772"
     transform="matrix(4.4618736,0,0,4.4618736,-1.6732026,-2.6771242)">
    <path
       d="m 115.35,105.8 v 0 l -9.9,9.55 -7.15,-7.1 q 0.15,-0.6 0.2,-1.05 0.05,-0.5 0.05,-0.85 -0.05,-0.4 -0.15,-0.65 -0.1,-0.3 -0.25,-0.45 -0.2,-0.2 -0.5,-0.3 -0.25,-0.1 -0.6,-0.1 -0.4,0 -0.85,0.1 -0.45,0.05 -1,0.25 L 69.05,79.1 q 0.05,-0.3 -0.25,-1 -0.3,-0.7 -0.9,-1.7 -0.6,-0.9 -1.4,-2.05 -0.8,-1.1 -1.65,-2.2 -0.9,-1.15 -1.8,-2.15 -0.9,-1.05 -1.7,-1.85 -0.8,-0.8 -1.4,-1.25 -0.6,-0.45 -0.9,-0.45 L 57,64.35 q -0.25,-0.75 -0.5,-1.4 -0.25,-0.65 -0.55,-1.2 -0.25,-0.6 -0.6,-1.1 -0.35,-0.45 -0.8,-0.9 -0.4,-0.45 -0.9,-0.8 -0.5,-0.4 -1.1,-0.7 Q 51.95,57.9 51.2,57.6 50.5,57.3 49.6,57 L 47.7,54.95 Q 47.8,54.6 47.45,54.05 47.2,53.55 46.55,52.9 46,52.25 45.15,51.55 44.4,50.85 43.5,50.2 42.55,49.55 41.65,48.95 40.75,48.4 39.95,48 39.1,47.55 38.45,47.35 37.8,47.15 37.4,47.25 L 10,20 q 0.1,-0.55 0.15,-1 0.05,-0.5 0,-0.9 -0.05,-0.4 -0.2,-0.7 -0.1,-0.3 -0.3,-0.5 -0.2,-0.25 -0.5,-0.35 -0.3,-0.15 -0.7,-0.2 -0.35,0 -0.8,0.05 -0.5,0.05 -1.05,0.25 l -6.45,-6.45 9.8,-9.6 6.6,6.95 q -0.1,0.5 -0.15,0.9 -0.05,0.45 0,0.8 0.05,0.3 0.15,0.6 0.1,0.25 0.3,0.45 0.15,0.2 0.45,0.35 0.25,0.15 0.6,0.2 0.35,0.1 0.8,0.1 0.4,0.05 0.95,0 l 27,26.65 q -0.05,0.3 0.15,0.95 0.25,0.6 0.65,1.45 0.45,0.8 1.05,1.7 0.55,0.9 1.2,1.8 0.7,0.9 1.35,1.7 0.75,0.85 1.35,1.45 0.65,0.6 1.2,0.95 0.55,0.35 0.9,0.3 l 2.25,2.4 q 0.35,0.85 0.7,1.5 0.35,0.7 0.7,1.25 0.35,0.55 0.75,1 0.4,0.4 0.85,0.75 0.45,0.35 0.95,0.65 0.45,0.25 1.05,0.5 0.5,0.25 1.15,0.5 0.55,0.15 1.35,0.45 l 2.1,2.25 q -0.05,0.3 0.35,0.9 0.4,0.6 1.2,1.4 0.75,0.75 1.75,1.65 1,0.85 2.15,1.75 1.1,0.85 2.25,1.65 1.15,0.8 2.1,1.4 1.05,0.65 1.8,1 0.75,0.35 1.15,0.35 l 26.2,26.45 q 0,0.55 0.05,1 0,0.45 0.1,0.75 0.05,0.35 0.15,0.6 0.1,0.25 0.3,0.45 0.15,0.15 0.35,0.25 0.25,0.05 0.55,0.1 0.25,0 0.65,-0.05 0.35,-0.05 0.8,-0.15 l 7.1,7.15"
       fill="#ffffff"
       fill-rule="evenodd"
       stroke="none"
       id="path770" />
  </g>
</svg>
