<?xml version="1.0" encoding="UTF-8"?>
<svg width="1200pt" height="1200pt" version="1.1" viewBox="0 0 1200 1200" xmlns="http://www.w3.org/2000/svg">
 <g fill="#fff">
  <path d="m98.438 1128.6c40.879-25.445 84.719-45.785 130.55-60.562 42.68-13.035 87.242-18.828 131.84-17.133 77.953 2.4844 332.3-4.2422 509.13-181.08 176.84-176.84 183.56-431.25 181.08-509.13-1.6953-44.594 4.0977-89.156 17.133-131.84 14.75-45.781 35.051-89.582 60.445-130.43 2.5547-4.1055 3.5-9.0156 2.6523-13.777-0.85156-4.7617-3.4336-9.0391-7.25-12.008-3.8203-2.9727-8.6016-4.4219-13.426-4.0742-27.023 2.0391-41.18 17.977-41.18 17.977l-22.594 22.594c-0.10547 0.074218-0.19922 0.16016-0.28125 0.25781l-520.31 520.31c-4.6016 4.4727-7.3008 10.551-7.5312 16.965-0.23047 6.4141 2.0195 12.672 6.2891 17.465 4.4922 4.7734 10.723 7.5273 17.277 7.6289 6.5508 0.10156 12.867-2.457 17.504-7.0898l377.2-377.37c2.8008-2.7773 7.0625-3.4609 10.59-1.6992 3.5312 1.7578 5.5508 5.5703 5.0195 9.4805v0.30469c-9.4297 76.82-24.664 152.82-45.562 227.34-26.102 91.422-75.074 174.68-142.29 241.92-67.219 67.238-150.46 116.23-241.88 142.36-74.523 20.898-150.52 36.133-227.34 45.562h-0.30469c-3.9102 0.53125-7.7227-1.4883-9.4805-5.0195-1.7617-3.5273-1.0781-7.7891 1.6992-10.59l106.34-106.55c4.6055-4.4727 7.3086-10.551 7.5391-16.965 0.23438-6.418-2.0234-12.672-6.2969-17.465-4.4883-4.7734-10.715-7.5234-17.266-7.625-6.5469-0.10156-12.859 2.4531-17.492 7.0859l-251.84 251.93-0.25781 0.28125-21.703 21.727s-15.938 14.062-17.977 41.18c-0.36719 4.8477 1.082 9.6602 4.0664 13.5 2.9844 3.8359 7.293 6.4258 12.082 7.2617 4.7891 0.83984 9.7188-0.14062 13.828-2.7383z"/>
  <path d="m486.05 710.72c-0.88672-1.3281-1.8984-2.5703-3.0234-3.7031-1.1211-1.1211-2.3555-2.125-3.6797-3-1.3125-0.89453-2.7188-1.6406-4.1953-2.2266-1.457-0.61719-2.9727-1.0781-4.5234-1.3828-1.543-0.32031-3.1133-0.47656-4.6875-0.46875-1.5742-0.003906-3.1445 0.15234-4.6875 0.46875-1.5508 0.3125-3.0664 0.77344-4.5234 1.3828-2.9336 1.2227-5.6055 3-7.875 5.2266-1.1211 1.1328-2.125 2.3711-3 3.7031-0.87891 1.3125-1.625 2.7109-2.2266 4.1719-0.60938 1.4688-1.082 2.9922-1.4062 4.5469-0.58594 3.0977-0.58594 6.2773 0 9.375 0.32422 1.5508 0.79297 3.0625 1.4062 4.5234 0.58594 1.4766 1.332 2.8828 2.2266 4.1953 0.88281 1.3203 1.8867 2.5508 3 3.6797 1.1406 1.1211 2.3789 2.1328 3.7031 3.0234 1.3164 0.87109 2.7148 1.6172 4.1719 2.2266 1.4492 0.60937 2.957 1.0625 4.5 1.3594 1.5391 0.33203 3.1133 0.49609 4.6875 0.49219 1.5742-0.003906 3.1445-0.16406 4.6875-0.46875 1.5508-0.30469 3.0664-0.76562 4.5234-1.3828 1.4688-0.60547 2.8711-1.3516 4.1953-2.2266 2.6562-1.7656 4.9375-4.0469 6.7031-6.7031 0.91797-1.3203 1.6992-2.7227 2.3438-4.1953 0.61719-1.457 1.0781-2.9727 1.3828-4.5234 0.30469-1.543 0.46484-3.1133 0.46875-4.6875s-0.16016-3.1484-0.49219-4.6875c-0.29687-1.543-0.75-3.0508-1.3594-4.5-0.63672-1.4766-1.4141-2.8906-2.3203-4.2188z"/>
 </g>
</svg>
