<?xml version="1.0" encoding="UTF-8"?>
<svg width="1200pt" height="1200pt" version="1.1" viewBox="0 0 1200 1200" xmlns="http://www.w3.org/2000/svg">
 <g fill="#fff">
  <path d="m283.9 519.8c-15.273-12.012-35.094-16.617-54.102-12.582-19.004 4.0391-35.238 16.305-44.312 33.484-9.0742 17.184-10.055 37.508-2.6719 55.48 14.32 36.797 51.328 71.414 51.328 71.414l75.234 75.164c7.3594 7.3438 11.75 17.148 12.324 27.527 0.57422 10.383-2.7031 20.609-9.207 28.723l-150.12 187.71c-7.1719 9.0977-18.066 14.469-29.648 14.625-19.141 0.0625-37.281 8.5508-49.594 23.203-14.621 17.383-19.191 41.102-12.074 62.672 7.1172 21.57 24.902 37.91 47 43.18 22.094 5.2695 45.34-1.2891 61.426-17.328 12.051-12.023 18.914-28.285 19.125-45.305 0.11328-11.754 5.5-22.836 14.672-30.188l187.73-150c8.1133-6.5 18.344-9.7734 28.727-9.1953 10.379 0.57813 20.184 4.9727 27.523 12.336l75.141 75.141s34.641 37.008 71.438 51.328c20.965 8.6328 44.906 5.8047 63.285-7.4766 18.379-13.277 28.578-35.121 26.965-57.734-1.6133-22.617-14.812-42.789-34.891-53.328-20.074-10.535-44.176-9.9336-63.703 1.5859-3.625 2.082-7.918 2.668-11.969 1.6328-4.0508-1.0391-7.5352-3.6172-9.7109-7.1875l-97.125-157.03c-3.5547-5.7695-8.4102-10.625-14.18-14.18l-157.03-97.102c-3.5664-2.1797-6.1406-5.6641-7.1719-9.7148-1.0352-4.0508-0.44531-8.3438 1.6406-11.965 8.082-13.688 10.914-29.848 7.957-45.469-2.9531-15.621-11.488-29.633-24.012-39.422z"/>
  <path d="m1118.6 69.352-745.08 512.37c-4.6445 3.1992-7.3945 8.4922-7.3438 14.133 0.050781 5.6367 2.8984 10.879 7.6016 13.992 33.727 22.242 98.203 63.68 111.09 71.953l295.83-295.8c5.9414-5.9414 14.602-8.2617 22.715-6.0859 8.1172 2.1758 14.453 8.5117 16.629 16.629 2.1758 8.1133-0.14453 16.773-6.0859 22.715l-295.85 295.83c8.2734 12.891 49.734 77.344 71.977 111.09 3.1133 4.7031 8.3555 7.5508 13.992 7.6016 5.6406 0.050781 10.934-2.6992 14.133-7.3438l512.39-745.1c2.3398-3.4258 1.9062-8.0352-1.0312-10.969-2.9375-2.9297-7.5469-3.3555-10.969-1.0078z"/>
 </g>
</svg>
