<?xml version="1.0" encoding="UTF-8"?>
<svg width="1200pt" height="1200pt" version="1.1" viewBox="0 0 1200 1200" xmlns="http://www.w3.org/2000/svg">
 <g fill="#fff">
  <path d="m473.09 490.59 35.695 5.25c4.6367 0.68359 9.3672-0.11719 13.516-2.2969 4.1523-2.1758 7.5-5.6172 9.5703-9.8203 71.555-146.51 297.66-357.94 348.42-404.39 1.8984-1.7227 2.5273-4.4453 1.5781-6.8242-0.94922-2.3828-3.2812-3.9219-5.8438-3.8633-33.68 0.96094-80.789 25.992-80.789 25.992-87.727 47.25-234.16 173.44-273.7 208.12-6.2969 5.5156-9.7461 13.598-9.375 21.961 3.5391 81.422-26.297 127.66-45.422 148.71-2.5664 2.8555-3.3359 6.8945-2.0039 10.496 1.332 3.5977 4.5508 6.1641 8.3555 6.6602z"/>
  <path d="m954.7 297.09c18.422-30.258 36.984-60.938 51.562-85.031 3.1797-5.2344 2.3711-11.965-1.9609-16.297-4.332-4.332-11.062-5.1406-16.297-1.9609-24.07 14.508-54.773 33.07-85.031 51.562-87.07 53.477-164.37 121.43-228.56 200.93-34.43 42.305-67.688 89.742-76.57 124.01-2.3398 8.9922 0.25 18.555 6.8086 25.141 6.5586 6.582 16.109 9.207 25.113 6.8984 34.266-8.8828 81.703-42.188 124.01-76.57 79.512-64.227 147.46-141.57 200.93-228.68z"/>
  <path d="m1120.7 319.71c-46.453 50.789-257.81 276.87-404.39 348.42-4.2031 2.0703-7.6445 5.418-9.8203 9.5703-2.1797 4.1484-2.9805 8.8789-2.2969 13.516l5.25 35.695c0.53516 3.7852 3.1133 6.9688 6.7031 8.2734 3.5938 1.3047 7.6133 0.51953 10.453-2.0391 21.094-19.125 67.289-48.961 148.71-45.422 8.3438 0.40234 16.422-3.0039 21.961-9.2578 34.641-39.539 160.88-185.98 208.12-273.7 0 0 25.031-47.109 25.992-80.789 0.058594-2.5625-1.4805-4.8945-3.8633-5.8438-2.3789-0.94922-5.1016-0.32031-6.8242 1.5781z"/>
  <path d="m564.66 635.34c-64.289-64.266-116.88-99.352-146.67-116.41-6.3828-3.6406-14.027-4.3359-20.961-1.9023-6.9336 2.4336-12.473 7.75-15.18 14.582-3.6797 9.1641-7.8047 18.492-12.281 27.914-2.3086 4.8359-2.6875 10.367-1.0625 15.473 1.6211 5.1094 5.1289 9.4023 9.8047 12.02 48.898 27.508 93.871 61.469 133.71 100.97 39.492 39.805 73.453 84.738 100.97 133.59 2.6172 4.6758 6.9102 8.1836 12.02 9.8047 5.1055 1.625 10.637 1.2461 15.473-1.0625 9.375-4.4766 18.75-8.6016 27.914-12.281 6.832-2.707 12.148-8.2461 14.582-15.18s1.7383-14.578-1.9023-20.961c-17.062-29.555-52.148-82.266-116.41-146.55z"/>
  <path d="m290.34 1131.3c6.5 0.57031 12.922-1.7539 17.555-6.3516l34.477-34.477c0.87109-0.93359 1.5977-1.9922 2.1562-3.1406 1.668-3.3867 1.8008-7.3281 0.36328-10.82-1.4336-3.4922-4.2969-6.1992-7.8633-7.4375-29.227-10.148-70.523-33.234-121.69-84.375-51.164-51.141-74.25-92.461-84.375-121.69-1.2383-3.5664-3.9453-6.4297-7.4375-7.8633-3.4922-1.4375-7.4336-1.3047-10.82 0.36328-1.1484 0.55859-2.207 1.2852-3.1406 2.1562l-34.57 34.453c-4.5977 4.6328-6.9219 11.055-6.3516 17.555 6.0469 72.656 77.344 144.33 77.344 144.33s71.789 71.25 144.35 77.297z"/>
  <path d="m372.3 1014.8c5.7656-7.1133 12.27-13.594 19.406-19.336 23.18-18.938 92.859-74.438 169.83-121.71 6.8945-4.2852 11.84-11.102 13.77-18.984 1.9336-7.8867 0.69922-16.215-3.4336-23.203-24.621-41.793-54.332-80.367-88.453-114.84-34.465-34.145-73.043-63.875-114.84-88.5-6.9883-4.1367-15.32-5.3711-23.207-3.4336-7.8906 1.9375-14.703 6.8906-18.98 13.793-47.297 77.016-102.84 146.72-121.88 169.9-5.7617 7.0391-12.25 13.449-19.359 19.125-2.0859 1.6875-4.1719 3.2344-6.2109 4.6875-3.793 2.7188-6.5547 6.6445-7.832 11.137-1.2773 4.4883-0.99609 9.2812 0.80078 13.59 9.375 23.016 29.414 56.531 71.93 99.023 42.516 42.492 76.031 62.625 98.953 72.047 4.3086 1.8008 9.1016 2.0859 13.594 0.80859s8.4141-4.043 11.133-7.8398c1.5469-2.0859 3.0938-4.1719 4.7812-6.2578z"/>
 </g>
</svg>
