<?xml version="1.0" encoding="UTF-8"?>
<svg width="1200pt" height="1200pt" version="1.1" viewBox="0 0 1200 1200" xmlns="http://www.w3.org/2000/svg">
 <g fill="#fff">
  <path d="m1042.4 733.45c1.3086 1.5742 3.2656 2.457 5.3125 2.3984 2.0469-0.058593 3.9492-1.0547 5.1641-2.7031l30.258-41.227c2.8711-3.8984 2.5273-9.2969-0.82422-12.797-3.3477-3.4961-8.7266-4.082-12.746-1.3828l-43.172 28.688c-1.75 1.1758-2.8398 3.1133-2.9375 5.2188-0.097656 2.1094 0.80859 4.1367 2.4453 5.4688 5.9727 4.9453 11.496 10.414 16.5 16.336z"/>
  <path d="m843.98 733.45c4.9727-5.9453 10.461-11.434 16.406-16.406 1.6367-1.332 2.543-3.3594 2.4453-5.4688-0.097657-2.1055-1.1875-4.043-2.9375-5.2188l-43.172-28.688c-4.0195-2.668-9.375-2.0664-12.707 1.4219s-3.6875 8.8633-0.83984 12.758l30.234 41.227c1.1992 1.6914 3.1211 2.7266 5.1914 2.8008 2.0742 0.074219 4.0625-0.82422 5.3789-2.4258z"/>
  <path d="m1069.6 949.22c4.0195 2.6992 9.3984 2.1133 12.746-1.3828 3.3516-3.5 3.6953-8.8984 0.82422-12.797l-27.539-37.383c-1.2344-1.6758-3.1758-2.6758-5.2578-2.707-2.0781-0.03125-4.0508 0.90625-5.3359 2.543-4.4727 5.6602-9.4102 10.938-14.766 15.773-1.5234 1.3672-2.332 3.3672-2.1836 5.4102 0.14453 2.043 1.2305 3.9062 2.9336 5.043z"/>
  <path d="m816.82 949.22 38.648-25.547c1.7031-1.1367 2.7891-3 2.9336-5.043 0.14844-2.043-0.66016-4.043-2.1836-5.4102-5.3672-4.8281-10.316-10.105-14.789-15.773-1.2852-1.6367-3.2578-2.5742-5.3359-2.543-2.082 0.03125-4.0234 1.0312-5.2578 2.707l-27.516 37.5c-2.707 3.8906-2.3008 9.1523 0.97656 12.578s8.5156 4.0664 12.523 1.5312z"/>
  <path d="m186.84 1023.5 192.84-192.75c5.5352-5.5078 8.8242-12.875 9.2305-20.668 0.40625-7.7969-2.0977-15.465-7.0273-21.52l561.75-563.39c10.184-10.188 14.156-25.031 10.426-38.941-3.7305-13.91-14.598-24.777-28.512-28.5-13.914-3.7266-28.754 0.25391-38.938 10.441l-561.82 563.51c-6.0586-4.9219-13.727-7.418-21.523-7.0078-7.793 0.41016-15.156 3.7031-20.664 9.2344l-192.63 192.75c-17.301 17.305-24.055 42.523-17.719 66.156 6.3359 23.633 24.801 42.09 48.434 48.422 23.637 6.3281 48.852-0.42969 66.152-17.734z"/>
  <path d="m1117.1 798.87-77.344-8.8359c-7.9336-28.418-27.977-51.898-54.793-64.199-26.812-12.301-57.688-12.176-84.398 0.34766-26.715 12.52-46.562 36.168-54.262 64.648l-77.062 8.8125c-16.242 1.8516-17.672 24.891-1.7812 28.734l80.18 19.43c10.137 31.301 34.941 55.66 66.422 65.227l14.812 83.461c2.8594 16.102 25.945 16.102 28.805 0l14.812-83.461c31.73-9.6914 56.637-34.41 66.562-66.07l79.898-19.359c15.82-3.8438 14.391-26.883-1.8516-28.734z"/>
  <path d="m943.22 372.8c6.168-0.007813 12.082-2.4609 16.441-6.8242 4.3594-4.3633 6.8086-10.281 6.8086-16.449v-27.07c0.19922-6.2969-2.1602-12.406-6.5469-16.934-4.3828-4.5234-10.414-7.0781-16.715-7.0781s-12.332 2.5547-16.715 7.0781c-4.3867 4.5273-6.7461 10.637-6.5469 16.934v27.07c0 6.1719 2.4531 12.094 6.8164 16.457s10.285 6.8164 16.457 6.8164z"/>
  <path d="m919.95 641.51c-0.19922 6.2969 2.1602 12.406 6.5469 16.934 4.3828 4.5234 10.414 7.0781 16.715 7.0781s12.332-2.5547 16.715-7.0781c4.3867-4.5273 6.7461-10.637 6.5469-16.934v-201.02c-0.25781-8.1367-4.7461-15.543-11.84-19.539-7.0898-3.9961-15.754-3.9961-22.844 0-7.0938 3.9961-11.582 11.402-11.84 19.539z"/>
 </g>
</svg>
