<?xml version="1.0" encoding="UTF-8"?>
<svg width="1200pt" height="1200pt" version="1.1" viewBox="0 0 1200 1200" xmlns="http://www.w3.org/2000/svg">
 <g fill="#fff">
  <path d="m90.07 1112.7c3.3828 4.082 7.957 7.0078 13.086 8.3633 5.125 1.3594 10.547 1.082 15.508-0.79297 48.164-18.281 183.4-78.773 303.61-168.75l55.852 74.508c2.4023 3.1914 5.9648 5.3008 9.918 5.8711 3.9531 0.57422 7.9688-0.44141 11.176-2.8242l37.922-28.336c3.1875-2.4062 5.293-5.9688 5.8633-9.9219 0.57031-3.9492-0.44141-7.9648-2.8164-11.172l-162.16-216.68c-2.4102-3.1797-5.9727-5.2852-9.9219-5.8555-3.9492-0.57031-7.9609 0.44141-11.172 2.8086l-37.805 28.289c-3.1797 2.4102-5.2852 5.9727-5.8555 9.9219-0.57031 3.9492 0.44141 7.9609 2.8086 11.172l52.406 70.008c-58.383 42.867-163.01 113.46-285.05 167.88-6.5312 2.7344-11.648 8.0352-14.152 14.66-2.5039 6.6211-2.1758 13.984 0.91016 20.355 5.457 10.879 12.125 21.109 19.875 30.492z"/>
  <path d="m1123.7 81.75c-0.44141-1.8906-2-3.3125-3.9258-3.5781-1.9219-0.26562-3.8086 0.68359-4.7461 2.3828-33.633 63.75-216.84 387.52-633.3 723.47-5.6797 4.5625-6.7188 12.809-2.3438 18.633l37.5 49.617c4.4375 5.9102 12.816 7.125 18.75 2.7188 117.19-87 428.91-337.31 578.51-640.52 12.883-25.379 19.199-53.582 18.375-82.031-0.92578-23.77-3.875-47.418-8.8125-70.688z"/>
 </g>
</svg>
