<?xml version="1.0" encoding="UTF-8" standalone="no"?>
<!-- Created with Inkscape (http://www.inkscape.org/) -->

<svg
   width="100"
   height="100"
   viewBox="0 0 26.458333 26.458333"
   version="1.1"
   id="svg701"
   inkscape:version="1.2.1 (9c6d41e410, 2022-07-14)"
   sodipodi:docname="9_Key_Dark.svg"
   xmlns:inkscape="http://www.inkscape.org/namespaces/inkscape"
   xmlns:sodipodi="http://sodipodi.sourceforge.net/DTD/sodipodi-0.dtd"
   xmlns="http://www.w3.org/2000/svg"
   xmlns:svg="http://www.w3.org/2000/svg">
  <sodipodi:namedview
     id="namedview703"
     pagecolor="#ffffff"
     bordercolor="#000000"
     borderopacity="0.25"
     inkscape:showpageshadow="2"
     inkscape:pageopacity="0.0"
     inkscape:pagecheckerboard="true"
     inkscape:deskcolor="#d1d1d1"
     inkscape:document-units="mm"
     showgrid="false"
     inkscape:zoom="10.35098"
     inkscape:cx="90.571136"
     inkscape:cy="47.096991"
     inkscape:window-width="2560"
     inkscape:window-height="1351"
     inkscape:window-x="2391"
     inkscape:window-y="-9"
     inkscape:window-maximized="1"
     inkscape:current-layer="layer1" />
  <defs
     id="defs698" />
  <g
     inkscape:label="Layer 1"
     inkscape:groupmode="layer"
     id="layer1">
    <g
       id="g476"
       transform="matrix(0.35802887,0,0,0.35802887,-4.8512911,-4.8358064)">
      <g
         id="use470">
        <path
           fill="#353535"
           stroke="none"
           d="m 84.95,77.8 q -1.25,-27.3 0,-54.65 0,-5.85 -5.85,-5.85 H 21.9 q -5.85,0 -5.85,5.85 1.25,27.35 0,54.65 0,5.85 5.85,5.85 h 57.2 q 5.85,0 5.85,-5.85 M 54.15,26.45 h 1.25 16.15 q 4.25,0 4.25,4.25 -1.15,19.8 0,39.55 0,4.2 -4.25,4.2 H 55.4 54.15 29.45 q -4.25,0 -4.25,-4.2 1.15,-19.75 0,-39.55 0,-4.25 4.25,-4.25 z"
           id="path852" />
        <path
           fill="#595959"
           stroke="none"
           d="m 55.4,26.45 h -1.25 -24.7 q -4.25,0 -4.25,4.25 1.15,19.8 0,39.55 0,4.2 4.25,4.2 h 24.7 1.25 16.15 q 4.25,0 4.25,-4.2 -1.15,-19.75 0,-39.55 0,-4.25 -4.25,-4.25 H 55.4 M 46.95,39 q 1.7,-0.6 3.65,-0.6 1.9,0 3.6,0.6 1.7,0.6 2.95,1.75 1.25,1.1 1.95,2.65 0.7,1.55 0.7,3.5 0,1.35 -0.2,2.45 -0.3,1.1 -0.65,2.05 -0.45,1 -0.95,1.9 -0.55,0.9 -1.15,1.8 l -5.4,8.5 H 45 l 5.85,-8.85 Q 50.4,54.85 50,54.9 49.55,55 49.1,55 47.35,55 45.95,54.35 44.5,53.7 43.5,52.65 q -1.05,-1.1 -1.6,-2.6 -0.55,-1.45 -0.55,-3.15 0,-1.95 0.7,-3.5 0.75,-1.55 2,-2.65 1.2,-1.15 2.9,-1.75 m 3.65,4.25 q -1.8,0 -2.9,1.1 -1.1,1.1 -1.1,2.8 0,1.65 1.1,2.75 1.1,1.1 2.9,1.1 1.75,0 2.85,-1.1 1.1,-1.1 1.1,-2.75 0,-1.7 -1.1,-2.8 -1.1,-1.1 -2.85,-1.1 z"
           id="path854" />
        <path
           fill="#cdcdcd"
           stroke="none"
           d="m 50.6,38.4 q -1.95,0 -3.65,0.6 -1.7,0.6 -2.9,1.75 -1.25,1.1 -2,2.65 -0.7,1.55 -0.7,3.5 0,1.7 0.55,3.15 0.55,1.5 1.6,2.6 1,1.05 2.45,1.7 1.4,0.65 3.15,0.65 0.45,0 0.9,-0.1 0.4,-0.05 0.85,-0.15 L 45,63.6 h 6.45 l 5.4,-8.5 q 0.6,-0.9 1.15,-1.8 0.5,-0.9 0.95,-1.9 0.35,-0.95 0.65,-2.05 0.2,-1.1 0.2,-2.45 0,-1.95 -0.7,-3.5 Q 58.4,41.85 57.15,40.75 55.9,39.6 54.2,39 52.5,38.4 50.6,38.4 m -2.9,5.95 q 1.1,-1.1 2.9,-1.1 1.75,0 2.85,1.1 1.1,1.1 1.1,2.8 0,1.65 -1.1,2.75 -1.1,1.1 -2.85,1.1 -1.8,0 -2.9,-1.1 -1.1,-1.1 -1.1,-2.75 0,-1.7 1.1,-2.8 z"
           id="path856" />
      </g>
      <path
         id="use472"
         stroke="#1d1d1d"
         stroke-width="5"
         stroke-linejoin="round"
         stroke-linecap="round"
         fill="none"
         d="m 84.95,23.15 q -1.25,27.35 0,54.65 0,5.85 -5.85,5.85 H 21.9 q -5.85,0 -5.85,-5.85 1.25,-27.3 0,-54.65 0,-5.85 5.85,-5.85 h 57.2 q 5.85,0 5.85,5.85 z" />
      <path
         id="use474"
         stroke="#696969"
         stroke-width="4"
         stroke-linejoin="round"
         stroke-linecap="round"
         fill="none"
         d="m 54.15,26.45 h -24.7 q -4.25,0 -4.25,4.25 1.15,19.8 0,39.55 0,4.2 4.25,4.2 h 24.7 m 1.25,0 h 16.15 q 4.25,0 4.25,-4.2 -1.15,-19.75 0,-39.55 0,-4.25 -4.25,-4.25 H 55.4" />
    </g>
  </g>
</svg>
