<?xml version="1.0" encoding="UTF-8" standalone="no"?>
<!-- Created with Inkscape (http://www.inkscape.org/) -->

<svg
   width="100"
   height="100"
   viewBox="0 0 26.458333 26.458333"
   version="1.1"
   id="svg909"
   inkscape:version="1.2.1 (9c6d41e410, 2022-07-14)"
   sodipodi:docname="Backspace_Key_Dark.svg"
   xmlns:inkscape="http://www.inkscape.org/namespaces/inkscape"
   xmlns:sodipodi="http://sodipodi.sourceforge.net/DTD/sodipodi-0.dtd"
   xmlns="http://www.w3.org/2000/svg"
   xmlns:svg="http://www.w3.org/2000/svg">
  <sodipodi:namedview
     id="namedview911"
     pagecolor="#ffffff"
     bordercolor="#000000"
     borderopacity="0.25"
     inkscape:showpageshadow="2"
     inkscape:pageopacity="0.0"
     inkscape:pagecheckerboard="true"
     inkscape:deskcolor="#d1d1d1"
     inkscape:document-units="mm"
     showgrid="false"
     inkscape:zoom="7.319248"
     inkscape:cx="104.72387"
     inkscape:cy="51.303085"
     inkscape:window-width="2560"
     inkscape:window-height="1351"
     inkscape:window-x="2391"
     inkscape:window-y="-9"
     inkscape:window-maximized="1"
     inkscape:current-layer="layer1" />
  <defs
     id="defs906" />
  <g
     inkscape:label="Layer 1"
     inkscape:groupmode="layer"
     id="layer1">
    <g
       id="g28"
       transform="matrix(0.29430849,0,0,0.29430849,-1.6334121,-1.6144881)">
      <g
         id="use22">
        <path
           fill="#353535"
           stroke="none"
           d="m 92.95,27.1 q 0,-5 -5,-5 h -74.9 q -5,0 -5,5 1.05,23.4 0,46.7 0,5 5,5 h 74.9 q 5,0 5,-5 -1.1,-23.3 0,-46.7 M 81.5,29.95 q 3.6,0 3.6,3.6 -0.95,16.95 0,33.8 0,3.6 -3.6,3.6 H 67.7 66.6 19.5 q -3.65,0 -3.65,-3.6 1,-16.85 0,-33.8 0,-3.6 3.65,-3.6 h 47.1 1.1 z"
           id="path1087" />
        <path
           fill="#595959"
           stroke="none"
           d="m 85.1,33.55 q 0,-3.6 -3.6,-3.6 H 67.7 66.6 19.5 q -3.65,0 -3.65,3.6 1,16.95 0,33.8 0,3.6 3.65,3.6 h 47.1 1.1 13.8 q 3.6,0 3.6,-3.6 -0.95,-16.85 0,-33.8 m -38,9.3 q -0.2,-0.25 -0.55,-0.4 -0.3,-0.2 -0.7,-0.2 -0.9,0 -1.4,0.55 -0.55,0.6 -0.55,1.5 0,0.9 0.55,1.45 0.5,0.55 1.4,0.55 0.45,0 0.7,-0.2 0.35,-0.15 0.55,-0.4 l 1.6,1.65 q -0.55,0.6 -1.3,0.85 -0.85,0.25 -1.55,0.25 -0.85,0 -1.65,-0.35 -0.85,-0.25 -1.45,-0.8 -0.6,-0.55 -0.9,-1.3 -0.4,-0.8 -0.4,-1.7 0,-0.95 0.4,-1.7 0.3,-0.8 0.9,-1.35 0.6,-0.55 1.45,-0.8 0.8,-0.3 1.65,-0.3 0.7,0 1.55,0.2 0.75,0.25 1.3,0.85 l -1.6,1.65 m 4.95,0.6 2.7,-3.15 h 3 l -3.15,3.6 3.2,4.35 H 54.75 L 52.1,44.2 h -0.05 v 4.05 H 49.6 v -12.3 h 2.45 v 7.5 M 22.8,36.75 h 4.3 q 0.75,0 1.45,0.1 0.85,0.1 1.45,0.4 0.55,0.3 0.95,0.9 0.35,0.55 0.35,1.5 0,1 -0.55,1.65 -0.55,0.6 -1.4,0.85 v 0.05 q 0.5,0.1 1,0.35 0.45,0.2 0.75,0.6 0.4,0.35 0.55,0.85 0.15,0.5 0.15,1.05 0,0.9 -0.35,1.5 -0.4,0.6 -1.05,1 -0.6,0.35 -1.35,0.5 -0.75,0.2 -1.5,0.2 H 22.8 v -11.5 m 14.05,6.5 q 0.6,-0.05 1.1,-0.05 0,-0.65 -0.45,-1.05 -0.5,-0.35 -1.05,-0.35 -0.6,0 -1.15,0.25 -0.5,0.25 -0.9,0.7 L 33.1,41.4 q 0.7,-0.65 1.6,-0.95 0.9,-0.3 1.9,-0.3 1.05,0 1.8,0.3 0.65,0.25 1.05,0.75 0.45,0.55 0.6,1.3 0.15,0.75 0.15,1.7 v 4.05 h -2.25 v -1 q -0.45,0.6 -1.1,0.95 -0.7,0.25 -1.4,0.25 -0.6,0 -1.1,-0.15 -0.55,-0.2 -0.9,-0.5 -0.4,-0.25 -0.6,-0.75 -0.2,-0.45 -0.2,-1.05 0,-0.7 0.2,-1.2 0.25,-0.4 0.7,-0.75 0.45,-0.3 1,-0.5 0.5,-0.15 1.1,-0.25 0.6,-0.05 1.2,-0.05 m 1.2,7.15 q 0.8,-0.25 1.7,-0.25 0.95,0 1.85,0.25 0.9,0.25 1.65,0.9 l -1.75,1.9 q -0.3,-0.35 -0.85,-0.5 -0.5,-0.25 -0.95,-0.25 -0.3,0 -0.6,0.1 -0.3,0.05 -0.55,0.2 -0.3,0.15 -0.45,0.35 -0.15,0.25 -0.15,0.55 0,0.55 0.35,0.8 0.45,0.3 1.05,0.5 0.6,0.15 1.25,0.4 0.7,0.15 1.3,0.55 0.6,0.35 1,0.95 0.35,0.6 0.35,1.65 0,0.9 -0.35,1.6 -0.35,0.75 -0.95,1.2 -0.65,0.5 -1.4,0.7 -0.8,0.2 -1.75,0.2 -1.05,0 -2.05,-0.3 -0.95,-0.35 -1.8,-1.1 l 1.8,-2 q 0.4,0.55 1,0.8 0.55,0.3 1.2,0.3 0.35,0 0.65,-0.05 0.3,-0.05 0.55,-0.25 0.3,-0.15 0.45,-0.35 0.1,-0.25 0.1,-0.55 0,-0.55 -0.35,-0.8 -0.4,-0.35 -1,-0.55 -0.65,-0.15 -1.3,-0.4 -0.7,-0.2 -1.35,-0.6 -0.6,-0.35 -1,-0.9 -0.35,-0.6 -0.35,-1.6 0,-0.9 0.3,-1.6 0.4,-0.7 1,-1.15 0.65,-0.5 1.4,-0.7 m 39.3,3.75 q 0.65,0.25 1.15,0.8 0.5,0.55 0.75,1.35 0.25,0.75 0.25,1.7 v 0.75 h -5.65 q 0.15,0.7 0.65,1.15 0.45,0.4 1.15,0.4 0.6,0 1.05,-0.25 0.45,-0.25 0.7,-0.7 l 1.75,1.25 q -0.6,0.75 -1.45,1.15 -0.95,0.4 -1.9,0.4 -0.9,0 -1.7,-0.3 -0.8,-0.3 -1.4,-0.8 Q 72.1,60.5 71.75,59.7 71.4,58.9 71.4,58 q 0,-0.95 0.35,-1.7 0.35,-0.8 0.95,-1.35 0.6,-0.55 1.4,-0.8 0.8,-0.3 1.7,-0.3 0.85,0 1.55,0.3 m -9.45,-0.3 q 0.75,0 1.55,0.25 0.75,0.2 1.3,0.8 l -1.6,1.7 Q 68.95,56.3 68.65,56.15 68.3,56 67.9,56 67,56 66.5,56.55 65.95,57.1 65.95,58 q 0,0.9 0.55,1.45 0.5,0.55 1.4,0.55 0.45,0 0.75,-0.15 0.3,-0.2 0.5,-0.45 l 1.6,1.7 q -0.55,0.6 -1.3,0.8 -0.8,0.25 -1.55,0.25 -0.85,0 -1.65,-0.3 -0.8,-0.3 -1.4,-0.8 -0.6,-0.55 -0.95,-1.35 -0.35,-0.8 -0.35,-1.7 0,-0.95 0.35,-1.7 0.35,-0.8 0.95,-1.35 0.6,-0.55 1.4,-0.8 0.8,-0.3 1.65,-0.3 m -5.8,2.35 q 0.2,0.75 0.2,1.75 v 4 H 60 v -1 q -0.45,0.6 -1.1,0.95 -0.7,0.25 -1.4,0.25 -0.6,0 -1.05,-0.15 -0.55,-0.15 -0.95,-0.5 -0.35,-0.25 -0.6,-0.75 -0.2,-0.45 -0.2,-1.05 0,-0.7 0.2,-1.15 0.3,-0.45 0.7,-0.8 0.45,-0.3 1,-0.45 0.55,-0.2 1.15,-0.3 0.6,-0.05 1.15,-0.05 0.6,-0.05 1.1,-0.05 0,-0.65 -0.45,-1 -0.45,-0.4 -1.05,-0.4 -0.6,0 -1.15,0.25 -0.5,0.3 -0.85,0.7 L 55.2,55.1 q 0.7,-0.65 1.55,-0.95 0.95,-0.3 1.9,-0.3 1.1,0 1.8,0.3 0.65,0.25 1.05,0.75 0.45,0.55 0.6,1.3 M 51.35,54.15 q 0.7,0.3 1.25,0.85 0.45,0.55 0.75,1.3 0.25,0.7 0.25,1.65 0,0.8 -0.2,1.55 -0.3,0.75 -0.7,1.35 -0.5,0.6 -1.15,0.95 -0.7,0.35 -1.5,0.35 -0.8,0 -1.45,-0.25 -0.7,-0.2 -1.05,-0.8 H 47.5 v 4.55 h -2.45 v -11.6 h 2.25 v 1 q 0.2,-0.2 0.4,-0.4 0.2,-0.25 0.55,-0.4 0.3,-0.15 0.7,-0.25 0.4,-0.15 0.8,-0.15 0.9,0 1.6,0.3 M 51.15,58 q 0,-0.9 -0.45,-1.45 Q 50.2,56 49.25,56 48.3,56 47.8,56.55 47.3,57.1 47.3,58 q 0,0.9 0.5,1.45 Q 48.3,60 49.25,60 50.2,60 50.7,59.45 51.15,58.9 51.15,58 m 8.25,0.5 q -0.25,0 -0.7,0.05 -0.35,0 -0.75,0.1 -0.4,0.1 -0.65,0.35 -0.3,0.25 -0.3,0.6 0,0.45 0.4,0.65 0.4,0.25 0.75,0.25 0.4,0 0.7,-0.1 0.35,-0.15 0.6,-0.3 0.3,-0.15 0.45,-0.45 Q 60,59.4 60,59 v -0.5 h -0.6 m 15.45,-2.8 q -0.3,0.2 -0.55,0.4 -0.2,0.15 -0.3,0.45 -0.1,0.25 -0.15,0.55 h 3.25 q 0,-0.65 -0.45,-1.05 -0.45,-0.45 -1.1,-0.45 -0.35,0 -0.7,0.1 M 35.25,45.3 q -0.3,0.2 -0.3,0.6 0,0.45 0.4,0.65 0.35,0.2 0.75,0.2 0.4,0 0.7,-0.1 0.35,-0.1 0.6,-0.25 0.25,-0.15 0.45,-0.45 0.1,-0.25 0.1,-0.65 v -0.55 h -0.6 q -0.25,0 -0.7,0.05 -0.4,0 -0.75,0.15 -0.4,0.1 -0.65,0.35 M 25.3,43.45 v 2.6 h 2.3 q 0.3,0 0.6,-0.05 0.3,-0.05 0.55,-0.2 0.25,-0.15 0.4,-0.45 0.2,-0.25 0.2,-0.6 0,-0.4 -0.25,-0.7 Q 28.9,43.85 28.55,43.7 28.3,43.55 27.9,43.5 27.55,43.45 27.25,43.45 H 25.3 m 3.3,-4 q -0.15,-0.2 -0.4,-0.3 -0.25,-0.2 -0.55,-0.25 -0.3,-0.05 -0.6,-0.05 H 25.3 v 2.5 h 1.85 q 0.35,0 0.6,-0.1 0.25,-0.05 0.5,-0.25 0.25,-0.1 0.35,-0.35 0.2,-0.2 0.2,-0.6 0,-0.35 -0.2,-0.6 z"
           id="path1089" />
        <path
           fill="#cdcdcd"
           stroke="none"
           d="m 52.6,55 q -0.55,-0.55 -1.25,-0.85 -0.7,-0.3 -1.6,-0.3 -0.4,0 -0.8,0.15 -0.4,0.1 -0.7,0.25 -0.35,0.15 -0.55,0.4 -0.2,0.2 -0.4,0.4 v -1 h -2.25 v 11.6 H 47.5 V 61.1 h 0.05 q 0.35,0.6 1.05,0.8 0.65,0.25 1.45,0.25 0.8,0 1.5,-0.35 0.65,-0.35 1.15,-0.95 0.4,-0.6 0.7,-1.35 0.2,-0.75 0.2,-1.55 Q 53.6,57 53.35,56.3 53.05,55.55 52.6,55 m -1.9,1.55 q 0.45,0.55 0.45,1.45 0,0.9 -0.45,1.45 Q 50.2,60 49.25,60 48.3,60 47.8,59.45 47.3,58.9 47.3,58 q 0,-0.9 0.5,-1.45 0.5,-0.55 1.45,-0.55 0.95,0 1.45,0.55 m 11.6,1.4 q 0,-1 -0.2,-1.75 -0.15,-0.75 -0.6,-1.3 -0.4,-0.5 -1.05,-0.75 -0.7,-0.3 -1.8,-0.3 -0.95,0 -1.9,0.3 -0.85,0.3 -1.55,0.95 l 1.3,1.35 q 0.35,-0.4 0.85,-0.7 0.55,-0.25 1.15,-0.25 0.6,0 1.05,0.4 0.45,0.35 0.45,1 -0.5,0 -1.1,0.05 -0.55,0 -1.15,0.05 -0.6,0.1 -1.15,0.3 -0.55,0.15 -1,0.45 -0.4,0.35 -0.7,0.8 -0.2,0.45 -0.2,1.15 0,0.6 0.2,1.05 0.25,0.5 0.6,0.75 0.4,0.35 0.95,0.5 0.45,0.15 1.05,0.15 0.7,0 1.4,-0.25 0.65,-0.35 1.1,-0.95 v 1 h 2.3 v -4 m -3.6,0.6 Q 59.15,58.5 59.4,58.5 H 60 V 59 q 0,0.4 -0.1,0.65 -0.15,0.3 -0.45,0.45 -0.25,0.15 -0.6,0.3 -0.3,0.1 -0.7,0.1 -0.35,0 -0.75,-0.25 -0.4,-0.2 -0.4,-0.65 0,-0.35 0.3,-0.6 0.25,-0.25 0.65,-0.35 0.4,-0.1 0.75,-0.1 M 69.45,54.1 q -0.8,-0.25 -1.55,-0.25 -0.85,0 -1.65,0.3 -0.8,0.25 -1.4,0.8 -0.6,0.55 -0.95,1.35 -0.35,0.75 -0.35,1.7 0,0.9 0.35,1.7 0.35,0.8 0.95,1.35 0.6,0.5 1.4,0.8 0.8,0.3 1.65,0.3 0.75,0 1.55,-0.25 0.75,-0.2 1.3,-0.8 l -1.6,-1.7 q -0.2,0.25 -0.5,0.45 Q 68.35,60 67.9,60 67,60 66.5,59.45 65.95,58.9 65.95,58 65.95,57.1 66.5,56.55 67,56 67.9,56 q 0.4,0 0.75,0.15 0.3,0.15 0.5,0.45 l 1.6,-1.7 q -0.55,-0.6 -1.3,-0.8 m 9.05,0.85 q -0.5,-0.55 -1.15,-0.8 -0.7,-0.3 -1.55,-0.3 -0.9,0 -1.7,0.3 -0.8,0.25 -1.4,0.8 -0.6,0.55 -0.95,1.35 -0.35,0.75 -0.35,1.7 0,0.9 0.35,1.7 0.35,0.8 0.95,1.35 0.6,0.5 1.4,0.8 0.8,0.3 1.7,0.3 0.95,0 1.9,-0.4 0.85,-0.4 1.45,-1.15 L 77.4,59.35 q -0.25,0.45 -0.7,0.7 -0.45,0.25 -1.05,0.25 -0.7,0 -1.15,-0.4 Q 74,59.45 73.85,58.75 H 79.5 V 58 q 0,-0.95 -0.25,-1.7 Q 79,55.5 78.5,54.95 m -4.2,1.15 q 0.25,-0.2 0.55,-0.4 0.35,-0.1 0.7,-0.1 0.65,0 1.1,0.45 0.45,0.4 0.45,1.05 H 73.85 Q 73.9,56.8 74,56.55 74.1,56.25 74.3,56.1 M 39.75,50.15 q -0.9,0 -1.7,0.25 -0.75,0.2 -1.4,0.7 -0.6,0.45 -1,1.15 -0.3,0.7 -0.3,1.6 0,1 0.35,1.6 0.4,0.55 1,0.9 0.65,0.4 1.35,0.6 0.65,0.25 1.3,0.4 0.6,0.2 1,0.55 0.35,0.25 0.35,0.8 0,0.3 -0.1,0.55 -0.15,0.2 -0.45,0.35 -0.25,0.2 -0.55,0.25 -0.3,0.05 -0.65,0.05 -0.65,0 -1.2,-0.3 -0.6,-0.25 -1,-0.8 l -1.8,2 q 0.85,0.75 1.8,1.1 1,0.3 2.05,0.3 0.95,0 1.75,-0.2 0.75,-0.2 1.4,-0.7 0.6,-0.45 0.95,-1.2 0.35,-0.7 0.35,-1.6 0,-1.05 -0.35,-1.65 -0.4,-0.6 -1,-0.95 -0.6,-0.4 -1.3,-0.55 -0.65,-0.25 -1.25,-0.4 -0.6,-0.2 -1.05,-0.5 -0.35,-0.25 -0.35,-0.8 0,-0.3 0.15,-0.55 0.15,-0.2 0.45,-0.35 0.25,-0.15 0.55,-0.2 0.3,-0.1 0.6,-0.1 0.45,0 0.95,0.25 0.55,0.15 0.85,0.5 l 1.75,-1.9 Q 42.5,50.65 41.6,50.4 40.7,50.15 39.75,50.15 m -1.8,-6.95 q -0.5,0 -1.1,0.05 -0.6,0 -1.2,0.05 -0.6,0.1 -1.1,0.25 -0.55,0.2 -1,0.5 -0.45,0.35 -0.7,0.75 -0.2,0.5 -0.2,1.2 0,0.6 0.2,1.05 0.2,0.5 0.6,0.75 0.35,0.3 0.9,0.5 0.5,0.15 1.1,0.15 0.7,0 1.4,-0.25 0.65,-0.35 1.1,-0.95 v 1 H 40.2 V 44.2 q 0,-0.95 -0.15,-1.7 -0.15,-0.75 -0.6,-1.3 -0.4,-0.5 -1.05,-0.75 -0.75,-0.3 -1.8,-0.3 -1,0 -1.9,0.3 -0.9,0.3 -1.6,0.95 l 1.3,1.35 q 0.4,-0.45 0.9,-0.7 0.55,-0.25 1.15,-0.25 0.55,0 1.05,0.35 0.45,0.4 0.45,1.05 m -3,2.7 q 0,-0.4 0.3,-0.6 0.25,-0.25 0.65,-0.35 0.35,-0.15 0.75,-0.15 0.45,-0.05 0.7,-0.05 h 0.6 v 0.55 q 0,0.4 -0.1,0.65 -0.2,0.3 -0.45,0.45 -0.25,0.15 -0.6,0.25 -0.3,0.1 -0.7,0.1 -0.4,0 -0.75,-0.2 -0.4,-0.2 -0.4,-0.65 M 27.1,36.75 h -4.3 v 11.5 h 4.75 q 0.75,0 1.5,-0.2 0.75,-0.15 1.35,-0.5 0.65,-0.4 1.05,-1 0.35,-0.6 0.35,-1.5 0,-0.55 -0.15,-1.05 -0.15,-0.5 -0.55,-0.85 -0.3,-0.4 -0.75,-0.6 -0.5,-0.25 -1,-0.35 v -0.05 q 0.85,-0.25 1.4,-0.85 0.55,-0.65 0.55,-1.65 0,-0.95 -0.35,-1.5 -0.4,-0.6 -0.95,-0.9 -0.6,-0.3 -1.45,-0.4 -0.7,-0.1 -1.45,-0.1 m 1.1,2.4 q 0.25,0.1 0.4,0.3 0.2,0.25 0.2,0.6 0,0.4 -0.2,0.6 -0.1,0.25 -0.35,0.35 -0.25,0.2 -0.5,0.25 -0.25,0.1 -0.6,0.1 H 25.3 v -2.5 h 1.75 q 0.3,0 0.6,0.05 0.3,0.05 0.55,0.25 m -2.9,6.9 v -2.6 h 1.95 q 0.3,0 0.65,0.05 0.4,0.05 0.65,0.2 0.35,0.15 0.55,0.35 0.25,0.3 0.25,0.7 0,0.35 -0.2,0.6 -0.15,0.3 -0.4,0.45 -0.25,0.15 -0.55,0.2 -0.3,0.05 -0.6,0.05 h -2.3 m 29.45,-5.75 -2.7,3.15 v -7.5 H 49.6 v 12.3 h 2.45 V 44.2 h 0.05 l 2.65,4.05 h 3.05 l -3.2,-4.35 3.15,-3.6 h -3 m -8.2,2.15 q 0.35,0.15 0.55,0.4 l 1.6,-1.65 q -0.55,-0.6 -1.3,-0.85 -0.85,-0.2 -1.55,-0.2 -0.85,0 -1.65,0.3 -0.85,0.25 -1.45,0.8 -0.6,0.55 -0.9,1.35 -0.4,0.75 -0.4,1.7 0,0.9 0.4,1.7 0.3,0.75 0.9,1.3 0.6,0.55 1.45,0.8 0.8,0.35 1.65,0.35 0.7,0 1.55,-0.25 0.75,-0.25 1.3,-0.85 L 47.1,45.7 q -0.2,0.25 -0.55,0.4 -0.25,0.2 -0.7,0.2 -0.9,0 -1.4,-0.55 -0.55,-0.55 -0.55,-1.45 0,-0.9 0.55,-1.5 0.5,-0.55 1.4,-0.55 0.4,0 0.7,0.2 z"
           id="path1091" />
      </g>
      <path
         id="use24"
         stroke="#696969"
         stroke-width="4"
         stroke-linejoin="round"
         stroke-linecap="round"
         fill="none"
         d="m 67.7,70.95 h 13.8 q 3.6,0 3.6,-3.6 -0.95,-16.85 0,-33.8 0,-3.6 -3.6,-3.6 H 67.7 m -1.1,0 H 19.5 q -3.65,0 -3.65,3.6 1,16.95 0,33.8 0,3.6 3.65,3.6 h 47.1" />
      <path
         id="use26"
         stroke="#1d1d1d"
         stroke-width="5"
         stroke-linejoin="round"
         stroke-linecap="round"
         fill="none"
         d="m 87.95,22.1 q 5,0 5,5 -1.1,23.4 0,46.7 0,5 -5,5 h -74.9 q -5,0 -5,-5 1.05,-23.3 0,-46.7 0,-5 5,-5 z" />
    </g>
  </g>
</svg>
