<?xml version="1.0" encoding="UTF-8" standalone="no"?>
<!-- Created with Inkscape (http://www.inkscape.org/) -->

<svg
   width="100"
   height="100"
   viewBox="0 0 26.458333 26.458333"
   version="1.1"
   id="svg918"
   inkscape:version="1.2.1 (9c6d41e410, 2022-07-14)"
   sodipodi:docname="Caps_Lock_Key_Dark.svg"
   xmlns:inkscape="http://www.inkscape.org/namespaces/inkscape"
   xmlns:sodipodi="http://sodipodi.sourceforge.net/DTD/sodipodi-0.dtd"
   xmlns="http://www.w3.org/2000/svg"
   xmlns:svg="http://www.w3.org/2000/svg">
  <sodipodi:namedview
     id="namedview920"
     pagecolor="#ffffff"
     bordercolor="#000000"
     borderopacity="0.25"
     inkscape:showpageshadow="2"
     inkscape:pageopacity="0.0"
     inkscape:pagecheckerboard="true"
     inkscape:deskcolor="#d1d1d1"
     inkscape:document-units="mm"
     showgrid="false"
     inkscape:zoom="7.319248"
     inkscape:cx="79.85793"
     inkscape:cy="59.09077"
     inkscape:window-width="2560"
     inkscape:window-height="1351"
     inkscape:window-x="2391"
     inkscape:window-y="-9"
     inkscape:window-maximized="1"
     inkscape:current-layer="layer1" />
  <defs
     id="defs915" />
  <g
     inkscape:label="Layer 1"
     inkscape:groupmode="layer"
     id="layer1">
    <g
       id="g28"
       transform="matrix(0.29430849,0,0,0.29430849,-1.6334121,-1.6144881)">
      <g
         id="use22">
        <path
           fill="#353535"
           stroke="none"
           d="m 92.95,27.1 q 0,-5 -5,-5 h -74.9 q -5,0 -5,5 1.05,23.4 0,46.7 0,5 5,5 h 74.9 q 5,0 5,-5 -1.1,-23.3 0,-46.7 M 81.5,29.95 q 3.6,0 3.6,3.6 -0.95,16.95 0,33.8 0,3.6 -3.6,3.6 H 67.7 66.6 19.5 q -3.65,0 -3.65,-3.6 1,-16.85 0,-33.8 0,-3.6 3.65,-3.6 h 47.1 1.1 z"
           id="path1073" />
        <path
           fill="#595959"
           stroke="none"
           d="m 85.1,33.55 q 0,-3.6 -3.6,-3.6 H 67.7 66.6 19.5 q -3.65,0 -3.65,3.6 1,16.95 0,33.8 0,3.6 3.65,3.6 h 47.1 1.1 13.8 q 3.6,0 3.6,-3.6 -0.95,-16.85 0,-33.8 M 48.5,41.5 q 0.15,-0.25 0.4,-0.5 0.25,-0.2 0.6,-0.4 0.35,-0.2 0.75,-0.35 0.45,-0.1 0.9,-0.1 0.95,0 1.75,0.3 0.8,0.35 1.4,0.95 0.55,0.6 0.85,1.45 0.3,0.8 0.3,1.8 0,0.95 -0.3,1.75 -0.25,0.85 -0.75,1.5 -0.55,0.65 -1.25,1.05 -0.75,0.35 -1.7,0.35 -0.85,0 -1.55,-0.25 -0.75,-0.25 -1.2,-0.9 h -0.05 v 5.05 h -2.7 V 40.35 h 2.5 V 41.5 H 48.5 M 42,40.45 q 0.75,0.3 1.2,0.85 0.45,0.6 0.65,1.4 0.2,0.85 0.2,1.95 v 4.45 h -2.5 V 48 H 41.5 q -0.45,0.7 -1.2,1 -0.75,0.3 -1.55,0.3 -0.65,0 -1.2,-0.15 Q 37,49 36.55,48.65 36.1,48.3 35.85,47.8 35.6,47.3 35.6,46.6 q 0,-0.75 0.3,-1.25 0.3,-0.55 0.75,-0.85 0.5,-0.35 1.1,-0.55 0.6,-0.2 1.25,-0.3 0.65,-0.1 1.35,-0.1 0.65,0 1.2,0 0,-0.75 -0.5,-1.15 -0.55,-0.45 -1.25,-0.45 -0.65,0 -1.2,0.3 -0.55,0.3 -1,0.75 l -1.4,-1.45 q 0.75,-0.7 1.75,-1.05 1,-0.35 2.1,-0.35 1.15,0 1.95,0.3 m 15.9,0.4 q 0.5,-0.35 1.15,-0.55 0.7,-0.15 1.35,-0.15 0.9,0 1.75,0.25 0.9,0.25 1.5,0.9 L 62,42.9 q -0.6,-0.7 -1.55,-0.7 -0.35,0 -0.7,0.15 -0.3,0.15 -0.3,0.55 0,0.35 0.35,0.5 0.3,0.15 0.85,0.25 0.5,0.1 1.1,0.25 0.55,0.15 1.05,0.45 0.55,0.25 0.85,0.75 0.35,0.5 0.35,1.35 0,0.85 -0.35,1.4 -0.4,0.55 -0.95,0.85 -0.6,0.35 -1.3,0.5 -0.75,0.1 -1.45,0.1 -0.9,0 -1.85,-0.25 -0.9,-0.25 -1.55,-0.9 l 1.6,-1.85 q 0.4,0.5 0.85,0.75 0.45,0.2 1.1,0.2 0.45,0 0.85,-0.1 0.35,-0.15 0.35,-0.5 0,-0.35 -0.35,-0.5 -0.3,-0.2 -0.8,-0.3 -0.55,-0.1 -1.1,-0.25 -0.6,-0.15 -1.1,-0.4 -0.55,-0.3 -0.85,-0.8 -0.35,-0.5 -0.35,-1.3 0,-0.8 0.3,-1.35 0.35,-0.55 0.85,-0.9 m -26.55,-4.7 q 0.6,0.1 1.15,0.3 0.6,0.2 1.1,0.55 0.55,0.4 0.95,0.9 l -2.15,1.75 q -0.45,-0.5 -1.05,-0.75 -0.6,-0.3 -1.4,-0.3 -0.75,0 -1.45,0.35 -0.65,0.3 -1.15,0.85 -0.5,0.55 -0.8,1.3 -0.25,0.75 -0.25,1.65 0,0.85 0.25,1.6 0.3,0.75 0.8,1.3 0.45,0.55 1.1,0.85 0.7,0.35 1.45,0.35 0.85,0 1.5,-0.4 0.7,-0.35 1.1,-1 l 2.35,1.75 q -0.8,1.15 -2.05,1.7 -1.25,0.55 -2.55,0.55 -1.5,0 -2.75,-0.5 -1.25,-0.45 -2.2,-1.35 -0.9,-0.85 -1.4,-2.1 -0.55,-1.25 -0.55,-2.75 0,-1.55 0.55,-2.8 0.5,-1.25 1.4,-2.1 0.95,-0.9 2.2,-1.35 1.25,-0.45 2.75,-0.45 0.55,0 1.1,0.1 m 8.85,27.4 V 50.8 H 43 v 10.15 h 5.2 v 2.6 h -8 m 31.6,-13.6 v 8.3 l 3,-3.45 h 3.3 l -3.45,3.95 3.55,4.8 H 74.8 L 71.85,59.1 H 71.8 v 4.45 h -2.7 v -13.6 h 2.7 m -8.7,4.95 q 0.9,-0.3 1.9,-0.3 0.75,0 1.6,0.25 0.85,0.25 1.5,0.9 l -1.8,1.9 q -0.15,-0.3 -0.55,-0.5 -0.35,-0.2 -0.75,-0.2 -1.05,0 -1.6,0.6 -0.55,0.65 -0.55,1.65 0,0.95 0.55,1.6 0.55,0.6 1.6,0.6 0.45,0 0.75,-0.2 0.35,-0.2 0.55,-0.45 l 1.8,1.85 q -0.65,0.65 -1.5,0.9 -0.85,0.25 -1.6,0.25 -1,0 -1.9,-0.3 Q 62.2,63.1 61.55,62.5 60.9,61.9 60.5,61.05 60.15,60.2 60.15,59.2 q 0,-1.05 0.35,-1.9 0.4,-0.85 1.05,-1.45 0.65,-0.6 1.55,-0.95 m -11.05,0 q 0.9,-0.3 1.9,-0.3 1,0 1.9,0.3 0.9,0.35 1.55,0.95 0.65,0.6 1,1.45 0.4,0.85 0.4,1.9 0,1 -0.4,1.85 -0.35,0.85 -1,1.45 -0.65,0.6 -1.55,0.95 -0.9,0.3 -1.9,0.3 -1,0 -1.9,-0.3 Q 51.15,63.1 50.5,62.5 49.85,61.9 49.45,61.05 49.1,60.2 49.1,59.2 q 0,-1.05 0.35,-1.9 0.4,-0.85 1.05,-1.45 0.65,-0.6 1.55,-0.95 m 0.3,5.9 q 0.55,0.6 1.6,0.6 1,0 1.6,-0.6 0.55,-0.65 0.55,-1.6 0,-1 -0.55,-1.65 -0.6,-0.6 -1.6,-0.6 -1.05,0 -1.6,0.6 -0.55,0.65 -0.55,1.65 0,0.95 0.55,1.6 M 40.9,47.05 q 0.3,-0.2 0.5,-0.5 0.15,-0.3 0.15,-0.7 v -0.6 h -0.7 q -0.3,0 -0.75,0.05 -0.45,0 -0.85,0.15 -0.45,0.15 -0.75,0.4 -0.3,0.25 -0.3,0.65 0,0.5 0.4,0.75 0.45,0.25 0.9,0.25 0.4,0 0.75,-0.1 0.4,-0.15 0.65,-0.35 m 9.7,-4.55 q -1,0 -1.6,0.6 -0.55,0.65 -0.55,1.65 0,0.95 0.55,1.6 0.6,0.6 1.6,0.6 1,0 1.6,-0.6 0.55,-0.65 0.55,-1.6 0,-1 -0.55,-1.65 -0.6,-0.6 -1.6,-0.6 z"
           id="path1075" />
        <path
           fill="#cdcdcd"
           stroke="none"
           d="m 53.95,54.6 q -1,0 -1.9,0.3 -0.9,0.35 -1.55,0.95 -0.65,0.6 -1.05,1.45 -0.35,0.85 -0.35,1.9 0,1 0.35,1.85 0.4,0.85 1.05,1.45 0.65,0.6 1.55,0.95 0.9,0.3 1.9,0.3 1,0 1.9,-0.3 0.9,-0.35 1.55,-0.95 0.65,-0.6 1,-1.45 0.4,-0.85 0.4,-1.85 0,-1.05 -0.4,-1.9 -0.35,-0.85 -1,-1.45 -0.65,-0.6 -1.55,-0.95 -0.9,-0.3 -1.9,-0.3 m 0,6.8 q -1.05,0 -1.6,-0.6 -0.55,-0.65 -0.55,-1.6 0,-1 0.55,-1.65 0.55,-0.6 1.6,-0.6 1,0 1.6,0.6 0.55,0.65 0.55,1.65 0,0.95 -0.55,1.6 -0.6,0.6 -1.6,0.6 M 65,54.6 q -1,0 -1.9,0.3 -0.9,0.35 -1.55,0.95 -0.65,0.6 -1.05,1.45 -0.35,0.85 -0.35,1.9 0,1 0.35,1.85 0.4,0.85 1.05,1.45 0.65,0.6 1.55,0.95 0.9,0.3 1.9,0.3 0.75,0 1.6,-0.25 0.85,-0.25 1.5,-0.9 l -1.8,-1.85 q -0.2,0.25 -0.55,0.45 -0.3,0.2 -0.75,0.2 -1.05,0 -1.6,-0.6 -0.55,-0.65 -0.55,-1.6 0,-1 0.55,-1.65 0.55,-0.6 1.6,-0.6 0.4,0 0.75,0.2 0.4,0.2 0.55,0.5 l 1.8,-1.9 Q 67.45,55.1 66.6,54.85 65.75,54.6 65,54.6 m 6.8,3.65 v -8.3 h -2.7 v 13.6 h 2.7 V 59.1 h 0.05 l 2.95,4.45 h 3.4 l -3.55,-4.8 3.45,-3.95 h -3.3 l -3,3.45 M 40.2,50.8 v 12.75 h 8 v -2.6 H 43 V 50.8 H 40.2 M 32.5,36.45 q -0.55,-0.2 -1.15,-0.3 -0.55,-0.1 -1.1,-0.1 -1.5,0 -2.75,0.45 -1.25,0.45 -2.2,1.35 -0.9,0.85 -1.4,2.1 -0.55,1.25 -0.55,2.8 0,1.5 0.55,2.75 0.5,1.25 1.4,2.1 0.95,0.9 2.2,1.35 1.25,0.5 2.75,0.5 1.3,0 2.55,-0.55 1.25,-0.55 2.05,-1.7 L 32.5,45.45 q -0.4,0.65 -1.1,1 -0.65,0.4 -1.5,0.4 -0.75,0 -1.45,-0.35 -0.65,-0.3 -1.1,-0.85 -0.5,-0.55 -0.8,-1.3 -0.25,-0.75 -0.25,-1.6 0,-0.9 0.25,-1.65 0.3,-0.75 0.8,-1.3 0.5,-0.55 1.15,-0.85 0.7,-0.35 1.45,-0.35 0.8,0 1.4,0.3 0.6,0.25 1.05,0.75 L 34.55,37.9 Q 34.15,37.4 33.6,37 33.1,36.65 32.5,36.45 m 26.55,3.85 q -0.65,0.2 -1.15,0.55 -0.5,0.35 -0.85,0.9 -0.3,0.55 -0.3,1.35 0,0.8 0.35,1.3 0.3,0.5 0.85,0.8 0.5,0.25 1.1,0.4 0.55,0.15 1.1,0.25 0.5,0.1 0.8,0.3 0.35,0.15 0.35,0.5 0,0.35 -0.35,0.5 -0.4,0.1 -0.85,0.1 -0.65,0 -1.1,-0.2 -0.45,-0.25 -0.85,-0.75 l -1.6,1.85 q 0.65,0.65 1.55,0.9 0.95,0.25 1.85,0.25 0.7,0 1.45,-0.1 0.7,-0.15 1.3,-0.5 0.55,-0.3 0.95,-0.85 Q 64,47.3 64,46.45 64,45.6 63.65,45.1 q -0.3,-0.5 -0.85,-0.75 -0.5,-0.3 -1.05,-0.45 -0.6,-0.15 -1.1,-0.25 -0.55,-0.1 -0.85,-0.25 -0.35,-0.15 -0.35,-0.5 0,-0.4 0.3,-0.55 0.35,-0.15 0.7,-0.15 0.95,0 1.55,0.7 l 1.65,-1.6 q -0.6,-0.65 -1.5,-0.9 -0.85,-0.25 -1.75,-0.25 -0.65,0 -1.35,0.15 m -15.85,1 q -0.45,-0.55 -1.2,-0.85 -0.8,-0.3 -1.95,-0.3 -1.1,0 -2.1,0.35 -1,0.35 -1.75,1.05 L 37.6,43 q 0.45,-0.45 1,-0.75 0.55,-0.3 1.2,-0.3 0.7,0 1.25,0.45 0.5,0.4 0.5,1.15 -0.55,0 -1.2,0 -0.7,0 -1.35,0.1 -0.65,0.1 -1.25,0.3 -0.6,0.2 -1.1,0.55 -0.45,0.3 -0.75,0.85 -0.3,0.5 -0.3,1.25 0,0.7 0.25,1.2 0.25,0.5 0.7,0.85 0.45,0.35 1,0.5 0.55,0.15 1.2,0.15 0.8,0 1.55,-0.3 0.75,-0.3 1.2,-1 h 0.05 v 1.1 h 2.5 v -4.45 q 0,-1.1 -0.2,-1.95 -0.2,-0.8 -0.65,-1.4 m -1.8,5.25 q -0.2,0.3 -0.5,0.5 -0.25,0.2 -0.65,0.35 -0.35,0.1 -0.75,0.1 -0.45,0 -0.9,-0.25 -0.4,-0.25 -0.4,-0.75 0,-0.4 0.3,-0.65 0.3,-0.25 0.75,-0.4 0.4,-0.15 0.85,-0.15 0.45,-0.05 0.75,-0.05 h 0.7 v 0.6 q 0,0.4 -0.15,0.7 M 48.9,41 q -0.25,0.25 -0.4,0.5 h -0.05 v -1.15 h -2.5 V 53.2 h 2.7 v -5.05 h 0.05 q 0.45,0.65 1.2,0.9 0.7,0.25 1.55,0.25 0.95,0 1.7,-0.35 0.7,-0.4 1.25,-1.05 0.5,-0.65 0.75,-1.5 0.3,-0.8 0.3,-1.75 0,-1 -0.3,-1.8 -0.3,-0.85 -0.85,-1.45 -0.6,-0.6 -1.4,-0.95 -0.8,-0.3 -1.75,-0.3 -0.45,0 -0.9,0.1 -0.4,0.15 -0.75,0.35 -0.35,0.2 -0.6,0.4 m 0.1,2.1 q 0.6,-0.6 1.6,-0.6 1,0 1.6,0.6 0.55,0.65 0.55,1.65 0,0.95 -0.55,1.6 -0.6,0.6 -1.6,0.6 -1,0 -1.6,-0.6 -0.55,-0.65 -0.55,-1.6 0,-1 0.55,-1.65 z"
           id="path1077" />
      </g>
      <path
         id="use24"
         stroke="#696969"
         stroke-width="4"
         stroke-linejoin="round"
         stroke-linecap="round"
         fill="none"
         d="m 67.7,70.95 h 13.8 q 3.6,0 3.6,-3.6 -0.95,-16.85 0,-33.8 0,-3.6 -3.6,-3.6 H 67.7 m -1.1,0 H 19.5 q -3.65,0 -3.65,3.6 1,16.95 0,33.8 0,3.6 3.65,3.6 h 47.1" />
      <path
         id="use26"
         stroke="#1d1d1d"
         stroke-width="5"
         stroke-linejoin="round"
         stroke-linecap="round"
         fill="none"
         d="m 87.95,22.1 q 5,0 5,5 -1.1,23.4 0,46.7 0,5 -5,5 h -74.9 q -5,0 -5,-5 1.05,-23.3 0,-46.7 0,-5 5,-5 z" />
    </g>
  </g>
</svg>
