<?xml version="1.0" encoding="UTF-8" standalone="no"?>
<!-- Created with Inkscape (http://www.inkscape.org/) -->

<svg
   width="100"
   height="100"
   viewBox="0 0 26.458333 26.458333"
   version="1.1"
   id="svg4221"
   inkscape:version="1.2.1 (9c6d41e410, 2022-07-14)"
   sodipodi:docname="End_Key_Dark.svg"
   xmlns:inkscape="http://www.inkscape.org/namespaces/inkscape"
   xmlns:sodipodi="http://sodipodi.sourceforge.net/DTD/sodipodi-0.dtd"
   xmlns="http://www.w3.org/2000/svg"
   xmlns:svg="http://www.w3.org/2000/svg">
  <sodipodi:namedview
     id="namedview4223"
     pagecolor="#ffffff"
     bordercolor="#000000"
     borderopacity="0.25"
     inkscape:showpageshadow="2"
     inkscape:pageopacity="0.0"
     inkscape:pagecheckerboard="true"
     inkscape:deskcolor="#d1d1d1"
     inkscape:document-units="mm"
     showgrid="false"
     inkscape:zoom="10.35098"
     inkscape:cx="81.876307"
     inkscape:cy="51.154578"
     inkscape:window-width="2560"
     inkscape:window-height="1351"
     inkscape:window-x="2391"
     inkscape:window-y="-9"
     inkscape:window-maximized="1"
     inkscape:current-layer="layer1" />
  <defs
     id="defs4218" />
  <g
     inkscape:label="Layer 1"
     inkscape:groupmode="layer"
     id="layer1">
    <g
       id="g4050"
       transform="matrix(0.35802887,0,0,0.35802887,-4.8512911,-4.8358064)">
      <g
         id="use4044">
        <path
           fill="#353535"
           stroke="none"
           d="m 84.95,77.8 q -1.25,-27.3 0,-54.65 0,-5.85 -5.85,-5.85 H 21.9 q -5.85,0 -5.85,5.85 1.25,27.35 0,54.65 0,5.85 5.85,5.85 h 57.2 q 5.85,0 5.85,-5.85 M 54.15,26.45 h 1.25 16.15 q 4.25,0 4.25,4.25 -1.15,19.8 0,39.55 0,4.2 -4.25,4.2 H 55.4 54.15 29.45 q -4.25,0 -4.25,-4.2 1.15,-19.75 0,-39.55 0,-4.25 4.25,-4.25 z"
           id="path4376" />
        <path
           fill="#595959"
           stroke="none"
           d="m 55.4,26.45 h -1.25 -24.7 q -4.25,0 -4.25,4.25 1.15,19.8 0,39.55 0,4.2 4.25,4.2 h 24.7 1.25 16.15 q 4.25,0 4.25,-4.2 -1.15,-19.75 0,-39.55 0,-4.25 -4.25,-4.25 H 55.4 M 34.45,61.2 v 2.85 h 6.85 v 2.9 h -10 V 52.8 h 9.65 v 2.85 h -6.5 v 2.65 h 6.1 v 2.9 h -6.1 m 26.3,-3.9 q 0.8,0.25 1.3,0.95 h 0.05 v -6.4 h 3 v 15.1 H 62.35 V 65.7 H 62.3 q -0.15,0.25 -0.45,0.5 -0.3,0.25 -0.7,0.5 -0.4,0.2 -0.85,0.35 -0.45,0.15 -0.95,0.15 -1.1,0 -1.95,-0.4 -0.9,-0.35 -1.55,-1 -0.6,-0.7 -0.95,-1.6 -0.35,-0.95 -0.35,-2.05 0,-1 0.3,-1.95 0.3,-0.9 0.9,-1.65 0.55,-0.7 1.4,-1.15 0.8,-0.4 1.85,-0.4 0.95,0 1.75,0.3 m -8.65,1 q 0.4,0.65 0.55,1.45 0.1,0.85 0.1,1.85 v 5.35 h -3 V 62.2 q 0,-0.45 0,-0.9 -0.05,-0.45 -0.2,-0.8 -0.15,-0.4 -0.45,-0.65 -0.3,-0.2 -0.9,-0.2 -0.55,0 -0.95,0.2 -0.35,0.2 -0.5,0.55 -0.2,0.35 -0.3,0.8 -0.05,0.45 -0.05,0.9 v 4.85 h -3 v -9.7 h 2.9 v 1.3 h 0.05 q 0.1,-0.3 0.4,-0.55 0.25,-0.3 0.6,-0.5 0.35,-0.25 0.8,-0.35 0.5,-0.15 1.05,-0.15 1.1,0 1.8,0.35 0.7,0.35 1.1,0.95 m 9.6,5.55 q 0.65,-0.65 0.65,-1.75 0,-1.1 -0.65,-1.8 -0.6,-0.65 -1.75,-0.65 -1.15,0 -1.75,0.65 -0.65,0.7 -0.65,1.8 0,1.1 0.65,1.75 0.6,0.7 1.75,0.7 1.15,0 1.75,-0.7 z"
           id="path4378" />
        <path
           fill="#cdcdcd"
           stroke="none"
           d="M 52.65,59.75 Q 52.5,58.95 52.1,58.3 51.7,57.7 51,57.35 50.3,57 49.2,57 q -0.55,0 -1.05,0.15 -0.45,0.1 -0.8,0.35 -0.35,0.2 -0.6,0.5 -0.3,0.25 -0.4,0.55 H 46.3 v -1.3 h -2.9 v 9.7 h 3 V 62.1 q 0,-0.45 0.05,-0.9 0.1,-0.45 0.3,-0.8 0.15,-0.35 0.5,-0.55 0.4,-0.2 0.95,-0.2 0.6,0 0.9,0.2 0.3,0.25 0.45,0.65 0.15,0.35 0.2,0.8 0,0.45 0,0.9 v 4.75 h 3 V 61.6 q 0,-1 -0.1,-1.85 m 9.4,-1.5 Q 61.55,57.55 60.75,57.3 59.95,57 59,57 q -1.05,0 -1.85,0.4 -0.85,0.45 -1.4,1.15 -0.6,0.75 -0.9,1.65 -0.3,0.95 -0.3,1.95 0,1.1 0.35,2.05 0.35,0.9 0.95,1.6 0.65,0.65 1.55,1 0.85,0.4 1.95,0.4 0.5,0 0.95,-0.15 0.45,-0.15 0.85,-0.35 0.4,-0.25 0.7,-0.5 0.3,-0.25 0.45,-0.5 h 0.05 v 1.25 h 2.75 v -15.1 h -3 v 6.4 h -0.05 m 0.3,3.85 q 0,1.1 -0.65,1.75 -0.6,0.7 -1.75,0.7 -1.15,0 -1.75,-0.7 -0.65,-0.65 -0.65,-1.75 0,-1.1 0.65,-1.8 0.6,-0.65 1.75,-0.65 1.15,0 1.75,0.65 0.65,0.7 0.65,1.8 m -27.9,1.95 V 61.2 h 6.1 v -2.9 h -6.1 v -2.65 h 6.5 V 52.8 H 31.3 v 14.15 h 10 v -2.9 z"
           id="path4380" />
      </g>
      <path
         id="use4046"
         stroke="#1d1d1d"
         stroke-width="5"
         stroke-linejoin="round"
         stroke-linecap="round"
         fill="none"
         d="m 84.95,23.15 q -1.25,27.35 0,54.65 0,5.85 -5.85,5.85 H 21.9 q -5.85,0 -5.85,-5.85 1.25,-27.3 0,-54.65 0,-5.85 5.85,-5.85 h 57.2 q 5.85,0 5.85,5.85 z" />
      <path
         id="use4048"
         stroke="#696969"
         stroke-width="4"
         stroke-linejoin="round"
         stroke-linecap="round"
         fill="none"
         d="m 54.15,26.45 h -24.7 q -4.25,0 -4.25,4.25 1.15,19.8 0,39.55 0,4.2 4.25,4.2 h 24.7 m 1.25,0 h 16.15 q 4.25,0 4.25,-4.2 -1.15,-19.75 0,-39.55 0,-4.25 -4.25,-4.25 H 55.4" />
    </g>
  </g>
</svg>
