<?xml version="1.0" encoding="UTF-8" standalone="no"?>
<!-- Created with Inkscape (http://www.inkscape.org/) -->

<svg
   width="100"
   height="100"
   viewBox="0 0 26.458333 26.458333"
   version="1.1"
   id="svg2464"
   inkscape:version="1.2.1 (9c6d41e410, 2022-07-14)"
   sodipodi:docname="F12_Key_Dark.svg"
   xmlns:inkscape="http://www.inkscape.org/namespaces/inkscape"
   xmlns:sodipodi="http://sodipodi.sourceforge.net/DTD/sodipodi-0.dtd"
   xmlns="http://www.w3.org/2000/svg"
   xmlns:svg="http://www.w3.org/2000/svg">
  <sodipodi:namedview
     id="namedview2466"
     pagecolor="#ffffff"
     bordercolor="#000000"
     borderopacity="0.25"
     inkscape:showpageshadow="2"
     inkscape:pageopacity="0.0"
     inkscape:pagecheckerboard="true"
     inkscape:deskcolor="#d1d1d1"
     inkscape:document-units="mm"
     showgrid="false"
     inkscape:zoom="10.35098"
     inkscape:cx="58.593487"
     inkscape:cy="50.478313"
     inkscape:window-width="2560"
     inkscape:window-height="1351"
     inkscape:window-x="2391"
     inkscape:window-y="-9"
     inkscape:window-maximized="1"
     inkscape:current-layer="layer1" />
  <defs
     id="defs2461" />
  <g
     inkscape:label="Layer 1"
     inkscape:groupmode="layer"
     id="layer1">
    <g
       id="g7280"
       transform="matrix(0.35802887,0,0,0.35802887,-4.8512912,-4.8358064)">
      <g
         id="use7274">
        <path
           fill="#353535"
           stroke="none"
           d="m 84.95,77.8 q -1.25,-27.3 0,-54.65 0,-5.85 -5.85,-5.85 H 21.9 q -5.85,0 -5.85,5.85 1.25,27.35 0,54.65 0,5.85 5.85,5.85 h 57.2 q 5.85,0 5.85,-5.85 M 54.15,26.45 h 1.25 16.15 q 4.25,0 4.25,4.25 -1.15,19.8 0,39.55 0,4.2 -4.25,4.2 H 55.4 54.15 29.45 q -4.25,0 -4.25,-4.2 1.15,-19.75 0,-39.55 0,-4.25 4.25,-4.25 z"
           id="path424"
           style="display:inline" />
        <path
           id="path426"
           style="display:inline;fill:#595959;fill-opacity:1"
           d="m 29.450047,26.449353 c -2.833331,0 -4.250694,1.417363 -4.250694,4.250694 0.766666,13.199986 0.766666,26.382836 0,39.54949 0,2.799997 1.417363,4.200175 4.250694,4.200175 h 24.700208 1.24995 16.149748 c 2.83333,0 4.250693,-1.400178 4.250693,-4.200175 -0.766666,-13.166654 -0.766666,-26.349504 0,-39.54949 0,-2.833331 -1.417363,-4.250694 -4.250693,-4.250694 h -16.149748 -1.24995 z" />
      </g>
      <path
         id="use7276"
         stroke="#1d1d1d"
         stroke-width="5"
         stroke-linejoin="round"
         stroke-linecap="round"
         fill="none"
         d="m 84.95,23.15 q -1.25,27.35 0,54.65 0,5.85 -5.85,5.85 H 21.9 q -5.85,0 -5.85,-5.85 1.25,-27.3 0,-54.65 0,-5.85 5.85,-5.85 h 57.2 q 5.85,0 5.85,5.85 z" />
      <path
         id="use7278"
         stroke="#696969"
         stroke-width="4"
         stroke-linejoin="round"
         stroke-linecap="round"
         fill="none"
         d="m 54.15,26.45 h -24.7 q -4.25,0 -4.25,4.25 1.15,19.8 0,39.55 0,4.2 4.25,4.2 h 24.7 m 1.25,0 h 16.15 q 4.25,0 4.25,-4.2 -1.15,-19.75 0,-39.55 0,-4.25 -4.25,-4.25 H 55.4" />
    </g>
    <path
       fill="#cdcdcd"
       stroke="none"
       d="M 7.7728662,11.2373 H 10.828588 V 9.8705117 H 6.2792616 V 16.582654 H 7.7728662 V 13.970873 H 10.595642 V 12.604087 H 7.7728662 Z"
       id="path26459"
       style="display:inline;stroke-width:0.272348" />
    <path
       fill="#cdcdcd"
       stroke="none"
       d="m 15.412657,9.8705122 h -1.342873 l -2.206149,1.8539588 0.808464,0.920212 1.370279,-1.177331 v 5.115301 h 1.370279 z"
       id="path9922"
       style="stroke-width:0.272348" />
    <path
       fill="#cdcdcd"
       stroke="none"
       d="m 17.512718,11.9702 q 0.02702,-0.351247 0.243171,-0.594418 0.229661,-0.243171 0.621437,-0.243171 0.337737,0 0.580907,0.189134 0.243171,0.189132 0.243171,0.540379 0,0.297208 -0.202642,0.52687 -0.189133,0.229661 -0.391776,0.405284 l -2.593822,2.337143 v 1.499554 h 4.660775 v -1.242874 h -2.972088 l 2.039934,-1.756234 q 0.189133,-0.162113 0.351246,-0.351247 0.162114,-0.175624 0.283699,-0.391775 0.108076,-0.216152 0.175624,-0.472833 0.06755,-0.25668 0.06755,-0.580908 0,-0.49985 -0.162113,-0.878116 -0.175625,-0.378267 -0.459324,-0.634946 -0.29721,-0.243171 -0.688985,-0.3782663 -0.391774,-0.1215854 -0.851098,-0.1215854 -0.49985,0 -0.918645,0.1215854 -0.418794,0.1350953 -0.729513,0.3917753 -0.310718,0.25668 -0.49985,0.634946 -0.189133,0.378266 -0.216152,0.905136 z"
       id="path10406"
       style="stroke-width:0.27019" />
  </g>
</svg>
