<?xml version="1.0" encoding="UTF-8" standalone="no"?>
<!-- Created with Inkscape (http://www.inkscape.org/) -->

<svg
   width="100"
   height="100"
   viewBox="0 0 26.458333 26.458333"
   version="1.1"
   id="svg5291"
   inkscape:version="1.2.1 (9c6d41e410, 2022-07-14)"
   sodipodi:docname="Page_Down_Key_Dark.svg"
   xmlns:inkscape="http://www.inkscape.org/namespaces/inkscape"
   xmlns:sodipodi="http://sodipodi.sourceforge.net/DTD/sodipodi-0.dtd"
   xmlns="http://www.w3.org/2000/svg"
   xmlns:svg="http://www.w3.org/2000/svg">
  <sodipodi:namedview
     id="namedview5293"
     pagecolor="#ffffff"
     bordercolor="#000000"
     borderopacity="0.25"
     inkscape:showpageshadow="2"
     inkscape:pageopacity="0.0"
     inkscape:pagecheckerboard="true"
     inkscape:deskcolor="#d1d1d1"
     inkscape:document-units="mm"
     showgrid="false"
     inkscape:zoom="10.35098"
     inkscape:cx="80.330559"
     inkscape:cy="48.835956"
     inkscape:window-width="2560"
     inkscape:window-height="1351"
     inkscape:window-x="2391"
     inkscape:window-y="-9"
     inkscape:window-maximized="1"
     inkscape:current-layer="layer1" />
  <defs
     id="defs5288" />
  <g
     inkscape:label="Layer 1"
     inkscape:groupmode="layer"
     id="layer1">
    <g
       id="g5120"
       transform="matrix(0.35802887,0,0,0.35802887,-4.8512911,-4.8358064)">
      <g
         id="use5114">
        <path
           fill="#353535"
           stroke="none"
           d="m 84.95,77.8 q -1.25,-27.3 0,-54.65 0,-5.85 -5.85,-5.85 H 21.9 q -5.85,0 -5.85,5.85 1.25,27.35 0,54.65 0,5.85 5.85,5.85 h 57.2 q 5.85,0 5.85,-5.85 M 54.15,26.45 h 1.25 16.15 q 4.25,0 4.25,4.25 -1.15,19.8 0,39.55 0,4.2 -4.25,4.2 H 55.4 54.15 29.45 q -4.25,0 -4.25,-4.2 1.15,-19.75 0,-39.55 0,-4.25 4.25,-4.25 z"
           id="path5446" />
        <path
           fill="#595959"
           stroke="none"
           d="m 55.4,26.45 h -1.25 -24.7 q -4.25,0 -4.25,4.25 1.15,19.8 0,39.55 0,4.2 4.25,4.2 h 24.7 1.25 16.15 q 4.25,0 4.25,-4.2 -1.15,-19.75 0,-39.55 0,-4.25 -4.25,-4.25 H 55.4 m -10.45,21.3 q 0.6,0.25 1,0.7 0.4,0.5 0.55,1.2 0.15,0.7 0.15,1.6 v 3.7 h -2.1 v -0.9 q -0.4,0.55 -1,0.85 -0.65,0.25 -1.3,0.25 -0.55,0 -1,-0.15 -0.5,-0.15 -0.85,-0.45 -0.35,-0.25 -0.55,-0.7 -0.2,-0.4 -0.2,-0.95 0,-0.65 0.2,-1.1 0.25,-0.4 0.65,-0.7 0.4,-0.3 0.9,-0.45 0.5,-0.15 1.05,-0.25 0.55,-0.05 1.1,-0.05 0.55,-0.05 1,-0.05 0,-0.6 -0.4,-0.95 Q 43.7,49 43.15,49 42.6,49 42.1,49.25 41.65,49.5 41.3,49.9 l -1.2,-1.25 q 0.65,-0.6 1.45,-0.9 0.85,-0.25 1.75,-0.25 1,0 1.65,0.25 m 3.7,0.9 q 0.45,-0.55 1.05,-0.85 0.65,-0.3 1.4,-0.3 0.5,0 0.9,0.1 0.4,0.1 0.7,0.25 0.3,0.15 0.55,0.4 0.2,0.15 0.35,0.35 v -0.95 h 2.1 v 6.7 q 0,2.05 -1.05,3.15 -1.05,1.05 -3.15,1.05 -1,0 -1.95,-0.2 Q 48.6,58.1 47.8,57.5 l 1.25,-1.85 q 0.55,0.4 1.1,0.65 0.6,0.3 1.3,0.3 1,0 1.5,-0.55 0.5,-0.5 0.5,-1.25 V 54.1 H 53.4 q -0.35,0.5 -0.95,0.7 -0.6,0.25 -1.1,0.25 -0.8,0 -1.45,-0.3 Q 49.25,54.5 48.75,54 48.3,53.5 48.05,52.8 47.8,52.1 47.8,51.25 q 0,-0.7 0.2,-1.4 0.25,-0.7 0.65,-1.2 m 9.8,-0.15 Q 59,48 59.75,47.75 60.5,47.5 61.3,47.5 q 0.8,0 1.45,0.25 0.6,0.25 1.05,0.75 0.45,0.5 0.7,1.25 0.25,0.7 0.25,1.55 V 52 H 59.5 q 0.15,0.65 0.6,1.05 0.45,0.4 1.1,0.4 0.55,0 0.95,-0.25 0.4,-0.25 0.65,-0.65 l 1.6,1.15 q -0.55,0.7 -1.35,1.05 -0.85,0.4 -1.75,0.4 -0.8,0 -1.55,-0.3 Q 59,54.6 58.45,54.1 57.9,53.6 57.6,52.9 q -0.35,-0.75 -0.35,-1.6 0,-0.85 0.35,-1.55 0.3,-0.75 0.85,-1.25 m -27.6,-4.15 h 3.9 q 0.85,0 1.6,0.15 0.7,0.15 1.25,0.5 0.55,0.35 0.9,1 0.3,0.6 0.3,1.55 0,0.95 -0.3,1.55 -0.3,0.65 -0.8,1 -0.55,0.4 -1.25,0.55 -0.75,0.15 -1.55,0.15 h -1.75 v 4.15 h -2.3 v -10.6 m 0,13.9 h 3.5 q 1.25,0 2.4,0.25 1.15,0.3 2,0.95 0.85,0.65 1.35,1.65 0.5,1 0.5,2.45 0,1.3 -0.45,2.3 -0.5,1 -1.35,1.65 -0.8,0.65 -1.9,1 -1.05,0.35 -2.25,0.35 h -3.8 v -10.6 m 32.75,3.3 h 2.15 v 1 h 0.05 q 0.1,-0.2 0.3,-0.4 0.2,-0.25 0.45,-0.4 0.25,-0.15 0.6,-0.25 0.35,-0.1 0.75,-0.1 0.85,0 1.4,0.25 0.5,0.25 0.8,0.7 0.3,0.5 0.4,1.1 0.1,0.65 0.1,1.4 v 4 H 68.35 V 65.3 q 0,-0.35 0,-0.7 -0.05,-0.3 -0.15,-0.6 -0.1,-0.3 -0.35,-0.45 -0.2,-0.2 -0.65,-0.2 -0.45,0 -0.7,0.15 -0.3,0.15 -0.4,0.45 -0.15,0.25 -0.2,0.6 -0.05,0.3 -0.05,0.65 v 3.65 H 63.6 v -7.3 m -8.2,0 h 2.45 l 1.35,4.6 h 0.05 l 1.35,-4.6 h 2.25 l -2.55,7.3 H 58.05 L 56.55,64 H 56.5 l -1.35,4.85 H 52.9 l -2.65,-7.3 h 2.35 l 1.5,4.6 h 0.05 l 1.25,-4.6 M 45.75,61.4 q 0.8,0 1.55,0.25 0.75,0.25 1.3,0.75 0.55,0.5 0.85,1.25 0.3,0.7 0.3,1.55 0,0.85 -0.3,1.6 -0.3,0.7 -0.85,1.2 -0.55,0.5 -1.3,0.75 -0.75,0.3 -1.55,0.3 -0.85,0 -1.6,-0.3 Q 43.4,68.5 42.85,68 42.3,67.5 42,66.8 q -0.3,-0.75 -0.3,-1.6 0,-0.85 0.3,-1.55 0.3,-0.75 0.85,-1.25 0.55,-0.5 1.3,-0.75 0.75,-0.25 1.6,-0.25 m 1.3,5.15 q 0.45,-0.5 0.45,-1.35 0,-0.8 -0.45,-1.35 -0.45,-0.5 -1.3,-0.5 -0.9,0 -1.35,0.5 -0.45,0.55 -0.45,1.35 0,0.85 0.45,1.35 0.45,0.5 1.35,0.5 0.85,0 1.3,-0.5 M 34.55,60.4 h -1.4 v 6.3 h 1.25 q 0.8,0 1.5,-0.2 0.7,-0.15 1.2,-0.5 0.5,-0.4 0.8,-1 0.3,-0.65 0.3,-1.55 0,-0.8 -0.3,-1.35 -0.3,-0.6 -0.8,-0.95 -0.5,-0.4 -1.15,-0.55 -0.65,-0.2 -1.4,-0.2 m -1.4,-14.1 v 2.55 h 1.6 q 0.3,0 0.6,-0.05 0.3,-0.1 0.5,-0.25 0.25,-0.1 0.4,-0.35 0.15,-0.25 0.15,-0.65 0,-0.4 -0.2,-0.65 Q 36,46.65 35.7,46.5 35.4,46.4 35.05,46.35 34.7,46.3 34.35,46.3 h -1.2 m 27.95,2.8 q -0.35,0 -0.65,0.1 -0.3,0.15 -0.5,0.35 -0.2,0.15 -0.3,0.4 -0.1,0.25 -0.15,0.55 h 3 q 0,-0.6 -0.4,-1 -0.4,-0.4 -1,-0.4 m -7.5,2.15 q 0,-0.35 -0.1,-0.65 -0.15,-0.35 -0.4,-0.6 -0.25,-0.25 -0.55,-0.4 -0.35,-0.15 -0.7,-0.15 -0.4,0 -0.75,0.15 -0.3,0.15 -0.55,0.4 -0.25,0.25 -0.4,0.6 -0.1,0.3 -0.1,0.65 0,0.35 0.1,0.7 0.15,0.3 0.4,0.55 0.25,0.25 0.55,0.4 0.35,0.15 0.75,0.15 0.35,0 0.7,-0.15 0.3,-0.15 0.55,-0.4 0.25,-0.25 0.4,-0.55 0.1,-0.35 0.1,-0.7 m -9.05,0.5 H 44 q -0.25,0 -0.65,0.05 -0.35,0 -0.7,0.1 -0.35,0.1 -0.6,0.35 -0.25,0.2 -0.25,0.55 0,0.4 0.35,0.6 0.35,0.2 0.7,0.2 0.35,0 0.65,-0.1 0.3,-0.1 0.55,-0.25 0.25,-0.15 0.4,-0.4 0.1,-0.25 0.1,-0.6 z"
           id="path5448" />
        <path
           fill="#cdcdcd"
           stroke="none"
           d="m 47.3,61.65 q -0.75,-0.25 -1.55,-0.25 -0.85,0 -1.6,0.25 -0.75,0.25 -1.3,0.75 -0.55,0.5 -0.85,1.25 -0.3,0.7 -0.3,1.55 0,0.85 0.3,1.6 0.3,0.7 0.85,1.2 0.55,0.5 1.3,0.75 0.75,0.3 1.6,0.3 0.8,0 1.55,-0.3 0.75,-0.25 1.3,-0.75 0.55,-0.5 0.85,-1.2 0.3,-0.75 0.3,-1.6 0,-0.85 -0.3,-1.55 -0.3,-0.75 -0.85,-1.25 -0.55,-0.5 -1.3,-0.75 m 0.2,3.55 q 0,0.85 -0.45,1.35 -0.45,0.5 -1.3,0.5 -0.9,0 -1.35,-0.5 -0.45,-0.5 -0.45,-1.35 0,-0.8 0.45,-1.35 0.45,-0.5 1.35,-0.5 0.85,0 1.3,0.5 0.45,0.55 0.45,1.35 M 57.85,61.55 H 55.4 l -1.25,4.6 H 54.1 l -1.5,-4.6 h -2.35 l 2.65,7.3 h 2.25 L 56.5,64 h 0.05 l 1.5,4.85 h 2.25 l 2.55,-7.3 H 60.6 l -1.35,4.6 H 59.2 l -1.35,-4.6 m 7.9,0 H 63.6 v 7.3 h 2.25 V 65.2 q 0,-0.35 0.05,-0.65 0.05,-0.35 0.2,-0.6 0.1,-0.3 0.4,-0.45 0.25,-0.15 0.7,-0.15 0.45,0 0.65,0.2 0.25,0.15 0.35,0.45 0.1,0.3 0.15,0.6 0,0.35 0,0.7 v 3.55 h 2.25 v -4 q 0,-0.75 -0.1,-1.4 -0.1,-0.6 -0.4,-1.1 -0.3,-0.45 -0.8,-0.7 -0.55,-0.25 -1.4,-0.25 -0.4,0 -0.75,0.1 -0.35,0.1 -0.6,0.25 -0.25,0.15 -0.45,0.4 -0.2,0.2 -0.3,0.4 h -0.05 v -1 m -31.4,-3.3 h -3.5 v 10.6 h 3.8 q 1.2,0 2.25,-0.35 1.1,-0.35 1.9,-1 0.85,-0.65 1.35,-1.65 0.45,-1 0.45,-2.3 0,-1.45 -0.5,-2.45 -0.5,-1 -1.35,-1.65 -0.85,-0.65 -2,-0.95 -1.15,-0.25 -2.4,-0.25 m -1.2,2.15 h 1.4 q 0.75,0 1.4,0.2 0.65,0.15 1.15,0.55 0.5,0.35 0.8,0.95 0.3,0.55 0.3,1.35 0,0.9 -0.3,1.55 -0.3,0.6 -0.8,1 -0.5,0.35 -1.2,0.5 -0.7,0.2 -1.5,0.2 h -1.25 v -6.3 m 1.6,-16.05 h -3.9 v 10.6 h 2.3 V 50.8 h 1.75 q 0.8,0 1.55,-0.15 0.7,-0.15 1.25,-0.55 0.5,-0.35 0.8,-1 0.3,-0.6 0.3,-1.55 0,-0.95 -0.3,-1.55 -0.35,-0.65 -0.9,-1 -0.55,-0.35 -1.25,-0.5 -0.75,-0.15 -1.6,-0.15 m -1.6,4.5 V 46.3 h 1.2 q 0.35,0 0.7,0.05 0.35,0.05 0.65,0.15 0.3,0.15 0.5,0.4 0.2,0.25 0.2,0.65 0,0.4 -0.15,0.65 -0.15,0.25 -0.4,0.35 -0.2,0.15 -0.5,0.25 -0.3,0.05 -0.6,0.05 h -1.6 m 26.6,-1.1 Q 59,48 58.45,48.5 57.9,49 57.6,49.75 q -0.35,0.7 -0.35,1.55 0,0.85 0.35,1.6 0.3,0.7 0.85,1.2 0.55,0.5 1.3,0.75 0.75,0.3 1.55,0.3 0.9,0 1.75,-0.4 0.8,-0.35 1.35,-1.05 l -1.6,-1.15 q -0.25,0.4 -0.65,0.65 -0.4,0.25 -0.95,0.25 -0.65,0 -1.1,-0.4 -0.45,-0.4 -0.6,-1.05 h 5.25 v -0.7 q 0,-0.85 -0.25,-1.55 Q 64.25,49 63.8,48.5 63.35,48 62.75,47.75 62.1,47.5 61.3,47.5 q -0.8,0 -1.55,0.25 m 0.7,1.45 q 0.3,-0.1 0.65,-0.1 0.6,0 1,0.4 0.4,0.4 0.4,1 h -3 q 0.05,-0.3 0.15,-0.55 0.1,-0.25 0.3,-0.4 0.2,-0.2 0.5,-0.35 M 49.7,47.8 q -0.6,0.3 -1.05,0.85 -0.4,0.5 -0.65,1.2 -0.2,0.7 -0.2,1.4 0,0.85 0.25,1.55 0.25,0.7 0.7,1.2 0.5,0.5 1.15,0.75 0.65,0.3 1.45,0.3 0.5,0 1.1,-0.25 0.6,-0.2 0.95,-0.7 h 0.05 v 0.7 q 0,0.75 -0.5,1.25 -0.5,0.55 -1.5,0.55 -0.7,0 -1.3,-0.3 -0.55,-0.25 -1.1,-0.65 L 47.8,57.5 q 0.8,0.6 1.75,0.85 0.95,0.2 1.95,0.2 2.1,0 3.15,-1.05 1.05,-1.1 1.05,-3.15 v -6.7 H 53.6 V 48.6 Q 53.45,48.4 53.25,48.25 53,48 52.7,47.85 52.4,47.7 52,47.6 q -0.4,-0.1 -0.9,-0.1 -0.75,0 -1.4,0.3 m 3.8,2.8 q 0.1,0.3 0.1,0.65 0,0.35 -0.1,0.7 -0.15,0.3 -0.4,0.55 -0.25,0.25 -0.55,0.4 -0.35,0.15 -0.7,0.15 -0.4,0 -0.75,-0.15 -0.3,-0.15 -0.55,-0.4 -0.25,-0.25 -0.4,-0.55 -0.1,-0.35 -0.1,-0.7 0,-0.35 0.1,-0.65 0.15,-0.35 0.4,-0.6 0.25,-0.25 0.55,-0.4 0.35,-0.15 0.75,-0.15 0.35,0 0.7,0.15 0.3,0.15 0.55,0.4 0.25,0.25 0.4,0.6 m -7.55,-2.15 q -0.4,-0.45 -1,-0.7 -0.65,-0.25 -1.65,-0.25 -0.9,0 -1.75,0.25 -0.8,0.3 -1.45,0.9 l 1.2,1.25 q 0.35,-0.4 0.8,-0.65 0.5,-0.25 1.05,-0.25 0.55,0 1,0.35 0.4,0.35 0.4,0.95 -0.45,0 -1,0.05 -0.55,0 -1.1,0.05 -0.55,0.1 -1.05,0.25 -0.5,0.15 -0.9,0.45 -0.4,0.3 -0.65,0.7 -0.2,0.45 -0.2,1.1 0,0.55 0.2,0.95 0.2,0.45 0.55,0.7 0.35,0.3 0.85,0.45 0.45,0.15 1,0.15 0.65,0 1.3,-0.25 0.6,-0.3 1,-0.85 v 0.9 h 2.1 v -3.7 q 0,-0.9 -0.15,-1.6 -0.15,-0.7 -0.55,-1.2 M 44,51.75 h 0.55 v 0.5 q 0,0.35 -0.1,0.6 -0.15,0.25 -0.4,0.4 -0.25,0.15 -0.55,0.25 -0.3,0.1 -0.65,0.1 -0.35,0 -0.7,-0.2 -0.35,-0.2 -0.35,-0.6 0,-0.35 0.25,-0.55 0.25,-0.25 0.6,-0.35 0.35,-0.1 0.7,-0.1 0.4,-0.05 0.65,-0.05 z"
           id="path5450" />
      </g>
      <path
         id="use5116"
         stroke="#1d1d1d"
         stroke-width="5"
         stroke-linejoin="round"
         stroke-linecap="round"
         fill="none"
         d="m 84.95,23.15 q -1.25,27.35 0,54.65 0,5.85 -5.85,5.85 H 21.9 q -5.85,0 -5.85,-5.85 1.25,-27.3 0,-54.65 0,-5.85 5.85,-5.85 h 57.2 q 5.85,0 5.85,5.85 z" />
      <path
         id="use5118"
         stroke="#696969"
         stroke-width="4"
         stroke-linejoin="round"
         stroke-linecap="round"
         fill="none"
         d="m 54.15,26.45 h -24.7 q -4.25,0 -4.25,4.25 1.15,19.8 0,39.55 0,4.2 4.25,4.2 h 24.7 m 1.25,0 h 16.15 q 4.25,0 4.25,-4.2 -1.15,-19.75 0,-39.55 0,-4.25 -4.25,-4.25 H 55.4" />
    </g>
  </g>
</svg>
