<?xml version="1.0" encoding="UTF-8" standalone="no"?>
<!-- Created with Inkscape (http://www.inkscape.org/) -->

<svg
   width="100"
   height="100"
   viewBox="0 0 26.458333 26.458333"
   version="1.1"
   id="svg6757"
   inkscape:version="1.2.1 (9c6d41e410, 2022-07-14)"
   sodipodi:docname="Q_Key_Dark.svg"
   xmlns:inkscape="http://www.inkscape.org/namespaces/inkscape"
   xmlns:sodipodi="http://sodipodi.sourceforge.net/DTD/sodipodi-0.dtd"
   xmlns="http://www.w3.org/2000/svg"
   xmlns:svg="http://www.w3.org/2000/svg">
  <sodipodi:namedview
     id="namedview6759"
     pagecolor="#ffffff"
     bordercolor="#000000"
     borderopacity="0.25"
     inkscape:showpageshadow="2"
     inkscape:pageopacity="0.0"
     inkscape:pagecheckerboard="true"
     inkscape:deskcolor="#d1d1d1"
     inkscape:document-units="mm"
     showgrid="false"
     inkscape:zoom="10.35098"
     inkscape:cx="60.815499"
     inkscape:cy="51.830842"
     inkscape:window-width="2560"
     inkscape:window-height="1351"
     inkscape:window-x="2391"
     inkscape:window-y="-9"
     inkscape:window-maximized="1"
     inkscape:current-layer="layer1" />
  <defs
     id="defs6754" />
  <g
     inkscape:label="Layer 1"
     inkscape:groupmode="layer"
     id="layer1">
    <g
       id="g410"
       style="display:inline"
       inkscape:export-filename="svg\g410.svg"
       inkscape:export-xdpi="96"
       inkscape:export-ydpi="96"
       transform="matrix(0.35802887,0,0,0.35802887,-4.8512911,-4.8358064)">
      <g
         id="use404">
        <path
           fill="#353535"
           stroke="none"
           d="m 84.95,77.8 q -1.25,-27.3 0,-54.65 0,-5.85 -5.85,-5.85 H 21.9 q -5.85,0 -5.85,5.85 1.25,27.35 0,54.65 0,5.85 5.85,5.85 h 57.2 q 5.85,0 5.85,-5.85 M 54.15,26.45 h 1.25 16.15 q 4.25,0 4.25,4.25 -1.15,19.8 0,39.55 0,4.2 -4.25,4.2 H 55.4 54.15 29.45 q -4.25,0 -4.25,-4.2 1.15,-19.75 0,-39.55 0,-4.25 4.25,-4.25 z"
           id="path673" />
        <path
           fill="#595959"
           stroke="none"
           d="m 55.4,26.45 h -1.25 -24.7 q -4.25,0 -4.25,4.25 1.15,19.8 0,39.55 0,4.2 4.25,4.2 h 24.7 1.25 16.15 q 4.25,0 4.25,-4.2 -1.15,-19.75 0,-39.55 0,-4.25 -4.25,-4.25 H 55.4 m -14.75,15.3 q 1.8,-1.7 4.2,-2.65 2.4,-0.9 5.15,-0.9 2.8,0 5.2,0.95 2.4,0.95 4.2,2.6 1.8,1.7 2.85,4 1,2.35 1,5.15 0,1.3 -0.3,2.6 -0.3,1.25 -0.9,2.35 -0.6,1.15 -1.55,2 -0.9,0.9 -2.2,1.5 v 0.05 h 6.95 v 4.2 h -15 q -2.95,0 -5.4,-0.85 -2.45,-0.85 -4.25,-2.5 -1.75,-1.65 -2.8,-4 -1,-2.35 -1,-5.35 0,-2.8 1,-5.15 1.05,-2.35 2.85,-4 m 9.35,1.5 q -1.55,0 -2.9,0.6 -1.4,0.6 -2.4,1.6 -1.05,1.05 -1.65,2.45 -0.6,1.4 -0.6,3 0,1.6 0.6,3 0.6,1.4 1.65,2.45 1,1 2.4,1.6 1.35,0.6 2.9,0.6 1.6,0 2.95,-0.6 1.4,-0.6 2.4,-1.6 1.05,-1.05 1.65,-2.45 0.6,-1.4 0.6,-3 0,-1.6 -0.6,-3 -0.6,-1.4 -1.65,-2.45 -1,-1 -2.4,-1.6 -1.35,-0.6 -2.95,-0.6 z"
           id="path675" />
        <path
           fill="#cdcdcd"
           stroke="none"
           d="m 44.85,39.1 q -2.4,0.95 -4.2,2.65 -1.8,1.65 -2.85,4 -1,2.35 -1,5.15 0,3 1,5.35 1.05,2.35 2.8,4 1.8,1.65 4.25,2.5 2.45,0.85 5.4,0.85 h 15 V 59.4 H 58.3 v -0.05 q 1.3,-0.6 2.2,-1.5 0.95,-0.85 1.55,-2 0.6,-1.1 0.9,-2.35 0.3,-1.3 0.3,-2.6 0,-2.8 -1,-5.15 -1.05,-2.3 -2.85,-4 -1.8,-1.65 -4.2,-2.6 -2.4,-0.95 -5.2,-0.95 -2.75,0 -5.15,0.9 m 2.25,4.75 q 1.35,-0.6 2.9,-0.6 1.6,0 2.95,0.6 1.4,0.6 2.4,1.6 1.05,1.05 1.65,2.45 0.6,1.4 0.6,3 0,1.6 -0.6,3 -0.6,1.4 -1.65,2.45 -1,1 -2.4,1.6 -1.35,0.6 -2.95,0.6 -1.55,0 -2.9,-0.6 -1.4,-0.6 -2.4,-1.6 -1.05,-1.05 -1.65,-2.45 -0.6,-1.4 -0.6,-3 0,-1.6 0.6,-3 0.6,-1.4 1.65,-2.45 1,-1 2.4,-1.6 z"
           id="path677" />
      </g>
      <path
         id="use406"
         stroke="#1d1d1d"
         stroke-width="5"
         stroke-linejoin="round"
         stroke-linecap="round"
         fill="none"
         d="m 84.95,23.15 q -1.25,27.35 0,54.65 0,5.85 -5.85,5.85 H 21.9 q -5.85,0 -5.85,-5.85 1.25,-27.3 0,-54.65 0,-5.85 5.85,-5.85 h 57.2 q 5.85,0 5.85,5.85 z" />
      <path
         id="use408"
         stroke="#696969"
         stroke-width="4"
         stroke-linejoin="round"
         stroke-linecap="round"
         fill="none"
         d="m 54.15,26.45 h -24.7 q -4.25,0 -4.25,4.25 1.15,19.8 0,39.55 0,4.2 4.25,4.2 h 24.7 m 1.25,0 h 16.15 q 4.25,0 4.25,-4.2 -1.15,-19.75 0,-39.55 0,-4.25 -4.25,-4.25 H 55.4" />
    </g>
  </g>
</svg>
