<?xml version="1.0" encoding="UTF-8" standalone="no"?>
<!-- Created with Inkscape (http://www.inkscape.org/) -->

<svg
   width="100"
   height="100"
   viewBox="0 0 26.458333 26.458333"
   version="1.1"
   id="svg18022"
   inkscape:version="1.2.1 (9c6d41e410, 2022-07-14)"
   sodipodi:docname="U_Key_Dark.svg"
   xmlns:inkscape="http://www.inkscape.org/namespaces/inkscape"
   xmlns:sodipodi="http://sodipodi.sourceforge.net/DTD/sodipodi-0.dtd"
   xmlns="http://www.w3.org/2000/svg"
   xmlns:svg="http://www.w3.org/2000/svg">
  <sodipodi:namedview
     id="namedview18024"
     pagecolor="#ffffff"
     bordercolor="#000000"
     borderopacity="0.25"
     inkscape:showpageshadow="2"
     inkscape:pageopacity="0.0"
     inkscape:pagecheckerboard="true"
     inkscape:deskcolor="#d1d1d1"
     inkscape:document-units="mm"
     showgrid="false"
     inkscape:zoom="10.35098"
     inkscape:cx="74.920444"
     inkscape:cy="50.478313"
     inkscape:window-width="2560"
     inkscape:window-height="1351"
     inkscape:window-x="2391"
     inkscape:window-y="-9"
     inkscape:window-maximized="1"
     inkscape:current-layer="layer1" />
  <defs
     id="defs18019" />
  <g
     inkscape:label="Layer 1"
     inkscape:groupmode="layer"
     id="layer1">
    <g
       id="g16306"
       transform="matrix(0.35802887,0,0,0.35802887,-4.8512911,-4.8358064)">
      <g
         id="use16300">
        <path
           fill="#353535"
           stroke="none"
           d="m 84.95,77.8 q -1.25,-27.3 0,-54.65 0,-5.85 -5.85,-5.85 H 21.9 q -5.85,0 -5.85,5.85 1.25,27.35 0,54.65 0,5.85 5.85,5.85 h 57.2 q 5.85,0 5.85,-5.85 M 54.15,26.45 h 1.25 16.15 q 4.25,0 4.25,4.25 -1.15,19.8 0,39.55 0,4.2 -4.25,4.2 H 55.4 54.15 29.45 q -4.25,0 -4.25,-4.2 1.15,-19.75 0,-39.55 0,-4.25 4.25,-4.25 z"
           id="path18177" />
        <path
           fill="#595959"
           stroke="none"
           d="m 55.4,26.45 h -1.25 -24.7 q -4.25,0 -4.25,4.25 1.15,19.8 0,39.55 0,4.2 4.25,4.2 h 24.7 1.25 16.15 q 4.25,0 4.25,-4.2 -1.15,-19.75 0,-39.55 0,-4.25 -4.25,-4.25 H 55.4 m 0.05,12.35 h 5.45 v 15.25 q 0,2.2 -0.65,4.05 -0.65,1.85 -2,3.25 -1.3,1.35 -3.25,2.1 -1.95,0.8 -4.5,0.8 -2.6,0 -4.55,-0.8 Q 44,62.7 42.7,61.35 41.35,59.95 40.7,58.1 40.05,56.25 40.05,54.05 V 38.8 h 5.45 v 15.05 q 0,1.15 0.35,2.15 0.35,0.95 1.05,1.65 0.65,0.75 1.55,1.15 0.95,0.4 2.05,0.4 1.1,0 2,-0.4 0.9,-0.4 1.55,-1.15 0.7,-0.7 1.05,-1.65 0.35,-1 0.35,-2.15 z"
           id="path18179" />
        <path
           fill="#cdcdcd"
           stroke="none"
           d="m 60.9,38.8 h -5.45 v 15.05 q 0,1.15 -0.35,2.15 -0.35,0.95 -1.05,1.65 -0.65,0.75 -1.55,1.15 -0.9,0.4 -2,0.4 -1.1,0 -2.05,-0.4 Q 47.55,58.4 46.9,57.65 46.2,56.95 45.85,56 45.5,55 45.5,53.85 V 38.8 h -5.45 v 15.25 q 0,2.2 0.65,4.05 0.65,1.85 2,3.25 1.3,1.35 3.25,2.1 1.95,0.8 4.55,0.8 2.55,0 4.5,-0.8 1.95,-0.75 3.25,-2.1 1.35,-1.4 2,-3.25 0.65,-1.85 0.65,-4.05 z"
           id="path18181" />
      </g>
      <path
         id="use16302"
         stroke="#1d1d1d"
         stroke-width="5"
         stroke-linejoin="round"
         stroke-linecap="round"
         fill="none"
         d="m 84.95,23.15 q -1.25,27.35 0,54.65 0,5.85 -5.85,5.85 H 21.9 q -5.85,0 -5.85,-5.85 1.25,-27.3 0,-54.65 0,-5.85 5.85,-5.85 h 57.2 q 5.85,0 5.85,5.85 z" />
      <path
         id="use16304"
         stroke="#696969"
         stroke-width="4"
         stroke-linejoin="round"
         stroke-linecap="round"
         fill="none"
         d="m 54.15,26.45 h -24.7 q -4.25,0 -4.25,4.25 1.15,19.8 0,39.55 0,4.2 4.25,4.2 h 24.7 m 1.25,0 h 16.15 q 4.25,0 4.25,-4.2 -1.15,-19.75 0,-39.55 0,-4.25 -4.25,-4.25 H 55.4" />
    </g>
  </g>
</svg>
