<?xml version="1.0" encoding="UTF-8" standalone="no"?>
<!DOCTYPE svg PUBLIC "-//W3C//DTD SVG 1.1//EN" "http://www.w3.org/Graphics/SVG/1.1/DTD/svg11.dtd">
<svg width="100%" height="100%" viewBox="0 0 256 40" version="1.1" xmlns="http://www.w3.org/2000/svg" xmlns:xlink="http://www.w3.org/1999/xlink" xml:space="preserve" xmlns:serif="http://www.serif.com/" style="fill-rule:evenodd;clip-rule:evenodd;stroke-linejoin:round;stroke-miterlimit:2;">
    <g transform="matrix(1,0,0,1,-35.998,-514.8)">
        <g transform="matrix(0.231884,0,0,0.231884,27.6506,395.426)">
            <path d="M1054.8,514.8C1014,514.8 980.402,543.601 971.999,581.999L904.8,581.999C896.402,543.601 862.8,514.8 821.999,514.8C781.198,514.8 747.601,543.601 739.198,581.999L671.999,581.999C663.601,543.601 629.999,514.8 589.198,514.8C548.397,514.8 514.8,543.601 506.397,581.999L439.198,581.999C430.8,543.601 397.198,514.8 356.397,514.8C315.596,514.8 281.999,543.601 273.596,581.999L203.998,581.999C195.6,543.601 161.998,514.8 121.197,514.8C74.396,514.8 35.998,553.198 35.998,599.999C35.998,646.8 74.396,685.198 121.197,685.198C161.998,685.198 195.595,656.397 203.998,617.999L271.197,617.999C279.595,656.397 313.197,685.198 353.998,685.198C394.799,685.198 428.396,656.397 436.799,617.999L503.998,617.999C512.396,656.397 545.998,685.198 586.799,685.198C627.6,685.198 661.197,656.397 669.6,617.999L736.799,617.999C745.197,656.397 778.799,685.198 819.6,685.198C860.401,685.198 893.998,656.397 902.401,617.999L971.999,617.999C980.397,656.397 1014,685.198 1054.8,685.198C1101.6,685.198 1140,646.8 1140,599.999C1140,553.198 1101.6,514.8 1054.8,514.8Z" style="fill:white;fill-rule:nonzero;"/>
        </g>
    </g>
</svg>
