<?xml version="1.0" encoding="UTF-8" standalone="no"?>
<!-- Created with Inkscape (http://www.inkscape.org/) -->

<svg
   width="100"
   height="100"
   viewBox="0 0 26.458333 26.458333"
   version="1.1"
   id="svg12661"
   inkscape:version="1.2.1 (9c6d41e410, 2022-07-14)"
   sodipodi:docname="6_Key_Dark.svg"
   xmlns:inkscape="http://www.inkscape.org/namespaces/inkscape"
   xmlns:sodipodi="http://sodipodi.sourceforge.net/DTD/sodipodi-0.dtd"
   xmlns="http://www.w3.org/2000/svg"
   xmlns:svg="http://www.w3.org/2000/svg">
  <sodipodi:namedview
     id="namedview12663"
     pagecolor="#ffffff"
     bordercolor="#000000"
     borderopacity="0.25"
     inkscape:showpageshadow="2"
     inkscape:pageopacity="0.0"
     inkscape:pagecheckerboard="true"
     inkscape:deskcolor="#d1d1d1"
     inkscape:document-units="mm"
     showgrid="false"
     inkscape:zoom="10.35098"
     inkscape:cx="64.583258"
     inkscape:cy="47.000381"
     inkscape:window-width="2560"
     inkscape:window-height="1351"
     inkscape:window-x="2391"
     inkscape:window-y="-9"
     inkscape:window-maximized="1"
     inkscape:current-layer="layer1" />
  <defs
     id="defs12658" />
  <g
     inkscape:label="Layer 1"
     inkscape:groupmode="layer"
     id="layer1">
    <g
       id="g12490"
       transform="matrix(0.35802887,0,0,0.35802887,-4.8512911,-4.8358064)">
      <g
         id="use12484">
        <path
           fill="#353535"
           stroke="none"
           d="m 84.95,77.8 q -1.25,-27.3 0,-54.65 0,-5.85 -5.85,-5.85 H 21.9 q -5.85,0 -5.85,5.85 1.25,27.35 0,54.65 0,5.85 5.85,5.85 h 57.2 q 5.85,0 5.85,-5.85 M 54.15,26.45 h 1.25 16.15 q 4.25,0 4.25,4.25 -1.15,19.8 0,39.55 0,4.2 -4.25,4.2 H 55.4 54.15 29.45 q -4.25,0 -4.25,-4.2 1.15,-19.75 0,-39.55 0,-4.25 4.25,-4.25 z"
           id="path12812" />
        <path
           fill="#595959"
           stroke="none"
           d="m 55.4,26.45 h -1.25 -24.7 q -4.25,0 -4.25,4.25 1.15,19.8 0,39.55 0,4.2 4.25,4.2 h 24.7 1.25 16.15 q 4.25,0 4.25,-4.2 -1.15,-19.75 0,-39.55 0,-4.25 -4.25,-4.25 H 55.4 M 44.15,47.3 49.6,38.8 H 56 l -5.8,8.85 q 0.4,-0.1 0.8,-0.15 0.45,-0.05 0.9,-0.05 1.75,0 3.2,0.6 1.4,0.65 2.45,1.7 1,1.1 1.55,2.6 0.55,1.5 0.55,3.15 0,1.95 -0.7,3.5 -0.7,1.55 -1.95,2.7 -1.25,1.1 -2.95,1.7 -1.7,0.65 -3.6,0.65 -2,0 -3.65,-0.65 -1.7,-0.6 -2.9,-1.7 -1.25,-1.15 -2,-2.7 -0.7,-1.55 -0.7,-3.5 0,-1.3 0.25,-2.4 0.25,-1.1 0.65,-2.1 0.4,-0.95 0.9,-1.9 0.55,-0.85 1.15,-1.8 m 10.25,8 q 0,-1.7 -1.1,-2.75 -1.1,-1.15 -2.85,-1.15 -1.8,0 -2.9,1.15 -1.1,1.05 -1.1,2.75 0,1.7 1.1,2.8 1.1,1.1 2.9,1.1 1.75,0 2.85,-1.1 1.1,-1.1 1.1,-2.8 z"
           id="path12814" />
        <path
           fill="#cdcdcd"
           stroke="none"
           d="m 49.6,38.8 -5.45,8.5 q -0.6,0.95 -1.15,1.8 -0.5,0.95 -0.9,1.9 -0.4,1 -0.65,2.1 -0.25,1.1 -0.25,2.4 0,1.95 0.7,3.5 0.75,1.55 2,2.7 1.2,1.1 2.9,1.7 1.65,0.65 3.65,0.65 1.9,0 3.6,-0.65 1.7,-0.6 2.95,-1.7 1.25,-1.15 1.95,-2.7 0.7,-1.55 0.7,-3.5 0,-1.65 -0.55,-3.15 -0.55,-1.5 -1.55,-2.6 -1.05,-1.05 -2.45,-1.7 -1.45,-0.6 -3.2,-0.6 -0.45,0 -0.9,0.05 -0.4,0.05 -0.8,0.15 L 56,38.8 h -6.4 m 3.7,13.75 q 1.1,1.05 1.1,2.75 0,1.7 -1.1,2.8 -1.1,1.1 -2.85,1.1 -1.8,0 -2.9,-1.1 -1.1,-1.1 -1.1,-2.8 0,-1.7 1.1,-2.75 1.1,-1.15 2.9,-1.15 1.75,0 2.85,1.15 z"
           id="path12816" />
      </g>
      <path
         id="use12486"
         stroke="#1d1d1d"
         stroke-width="5"
         stroke-linejoin="round"
         stroke-linecap="round"
         fill="none"
         d="m 84.95,23.15 q -1.25,27.35 0,54.65 0,5.85 -5.85,5.85 H 21.9 q -5.85,0 -5.85,-5.85 1.25,-27.3 0,-54.65 0,-5.85 5.85,-5.85 h 57.2 q 5.85,0 5.85,5.85 z" />
      <path
         id="use12488"
         stroke="#696969"
         stroke-width="4"
         stroke-linejoin="round"
         stroke-linecap="round"
         fill="none"
         d="m 54.15,26.45 h -24.7 q -4.25,0 -4.25,4.25 1.15,19.8 0,39.55 0,4.2 4.25,4.2 h 24.7 m 1.25,0 h 16.15 q 4.25,0 4.25,-4.2 -1.15,-19.75 0,-39.55 0,-4.25 -4.25,-4.25 H 55.4" />
    </g>
  </g>
</svg>
