<?xml version="1.0" encoding="UTF-8" standalone="no"?>
<!-- Created with Inkscape (http://www.inkscape.org/) -->

<svg
   width="100"
   height="100"
   viewBox="0 0 26.458333 26.458333"
   version="1.1"
   id="svg6473"
   inkscape:version="1.2.1 (9c6d41e410, 2022-07-14)"
   sodipodi:docname="C_Key_Dark.svg"
   xmlns:inkscape="http://www.inkscape.org/namespaces/inkscape"
   xmlns:sodipodi="http://sodipodi.sourceforge.net/DTD/sodipodi-0.dtd"
   xmlns="http://www.w3.org/2000/svg"
   xmlns:svg="http://www.w3.org/2000/svg">
  <sodipodi:namedview
     id="namedview6475"
     pagecolor="#ffffff"
     bordercolor="#000000"
     borderopacity="0.25"
     inkscape:showpageshadow="2"
     inkscape:pageopacity="0.0"
     inkscape:pagecheckerboard="true"
     inkscape:deskcolor="#d1d1d1"
     inkscape:document-units="mm"
     showgrid="false"
     inkscape:zoom="10.35098"
     inkscape:cx="85.16102"
     inkscape:cy="48.835956"
     inkscape:window-width="2560"
     inkscape:window-height="1351"
     inkscape:window-x="2391"
     inkscape:window-y="-9"
     inkscape:window-maximized="1"
     inkscape:current-layer="layer1" />
  <defs
     id="defs6470" />
  <g
     inkscape:label="Layer 1"
     inkscape:groupmode="layer"
     id="layer1">
    <g
       id="g6186"
       transform="matrix(0.35802887,0,0,0.35802887,-4.8512911,-4.8358064)">
      <g
         id="use6180">
        <path
           fill="#353535"
           stroke="none"
           d="m 84.95,77.8 q -1.25,-27.3 0,-54.65 0,-5.85 -5.85,-5.85 H 21.9 q -5.85,0 -5.85,5.85 1.25,27.35 0,54.65 0,5.85 5.85,5.85 h 57.2 q 5.85,0 5.85,-5.85 M 54.15,26.45 h 1.25 16.15 q 4.25,0 4.25,4.25 -1.15,19.8 0,39.55 0,4.2 -4.25,4.2 H 55.4 54.15 29.45 q -4.25,0 -4.25,-4.2 1.15,-19.75 0,-39.55 0,-4.25 4.25,-4.25 z"
           id="path6624" />
        <path
           fill="#595959"
           stroke="none"
           d="m 55.4,26.45 h -1.25 -24.7 q -4.25,0 -4.25,4.25 1.15,19.8 0,39.55 0,4.2 4.25,4.2 h 24.7 1.25 16.15 q 4.25,0 4.25,-4.2 -1.15,-19.75 0,-39.55 0,-4.25 -4.25,-4.25 H 55.4 m -5.7,17.4 q -1.3,0.6 -2.3,1.65 -0.95,1.05 -1.5,2.55 -0.55,1.45 -0.55,3.15 0,1.75 0.55,3.2 0.55,1.45 1.5,2.55 0.95,1.05 2.25,1.65 1.25,0.6 2.75,0.6 1.65,0 2.95,-0.7 1.3,-0.7 2.15,-2 l 4.55,3.45 q -1.6,2.2 -4,3.25 -2.45,1.05 -4.95,1.05 -2.95,0 -5.4,-0.9 Q 45.25,62.4 43.45,60.7 41.7,59 40.7,56.6 q -1,-2.4 -1,-5.4 0,-2.95 1,-5.35 1,-2.45 2.75,-4.15 1.8,-1.7 4.25,-2.6 2.45,-0.9 5.4,-0.9 1,0 2.15,0.2 1.15,0.2 2.25,0.6 1.1,0.4 2.1,1.1 1.05,0.7 1.85,1.75 l -4.2,3.4 q -0.8,-1 -2,-1.5 -1.15,-0.5 -2.7,-0.5 -1.55,0 -2.85,0.6 z"
           id="path6626" />
        <path
           fill="#cdcdcd"
           stroke="none"
           d="m 47.4,45.5 q 1,-1.05 2.3,-1.65 1.3,-0.6 2.85,-0.6 1.55,0 2.7,0.5 1.2,0.5 2,1.5 l 4.2,-3.4 Q 60.65,40.8 59.6,40.1 58.6,39.4 57.5,39 56.4,38.6 55.25,38.4 54.1,38.2 53.1,38.2 q -2.95,0 -5.4,0.9 -2.45,0.9 -4.25,2.6 -1.75,1.7 -2.75,4.15 -1,2.4 -1,5.35 0,3 1,5.4 1,2.4 2.75,4.1 1.8,1.7 4.25,2.65 2.45,0.9 5.4,0.9 2.5,0 4.95,-1.05 2.4,-1.05 4,-3.25 L 57.5,56.5 q -0.85,1.3 -2.15,2 -1.3,0.7 -2.95,0.7 -1.5,0 -2.75,-0.6 -1.3,-0.6 -2.25,-1.65 -0.95,-1.1 -1.5,-2.55 -0.55,-1.45 -0.55,-3.2 0,-1.7 0.55,-3.15 0.55,-1.5 1.5,-2.55 z"
           id="path6628" />
      </g>
      <path
         id="use6182"
         stroke="#1d1d1d"
         stroke-width="5"
         stroke-linejoin="round"
         stroke-linecap="round"
         fill="none"
         d="m 84.95,23.15 q -1.25,27.35 0,54.65 0,5.85 -5.85,5.85 H 21.9 q -5.85,0 -5.85,-5.85 1.25,-27.3 0,-54.65 0,-5.85 5.85,-5.85 h 57.2 q 5.85,0 5.85,5.85 z" />
      <path
         id="use6184"
         stroke="#696969"
         stroke-width="4"
         stroke-linejoin="round"
         stroke-linecap="round"
         fill="none"
         d="m 54.15,26.45 h -24.7 q -4.25,0 -4.25,4.25 1.15,19.8 0,39.55 0,4.2 4.25,4.2 h 24.7 m 1.25,0 h 16.15 q 4.25,0 4.25,-4.2 -1.15,-19.75 0,-39.55 0,-4.25 -4.25,-4.25 H 55.4" />
    </g>
  </g>
</svg>
