<?xml version="1.0" encoding="UTF-8" standalone="no"?>
<!-- Created with Inkscape (http://www.inkscape.org/) -->

<svg
   width="100"
   height="100"
   viewBox="0 0 26.458333 26.458333"
   version="1.1"
   id="svg726"
   inkscape:version="1.2.1 (9c6d41e410, 2022-07-14)"
   sodipodi:docname="PS5_Options_Alt.svg"
   xmlns:inkscape="http://www.inkscape.org/namespaces/inkscape"
   xmlns:sodipodi="http://sodipodi.sourceforge.net/DTD/sodipodi-0.dtd"
   xmlns="http://www.w3.org/2000/svg"
   xmlns:svg="http://www.w3.org/2000/svg">
  <sodipodi:namedview
     id="namedview728"
     pagecolor="#ffffff"
     bordercolor="#000000"
     borderopacity="0.25"
     inkscape:showpageshadow="2"
     inkscape:pageopacity="0.0"
     inkscape:pagecheckerboard="true"
     inkscape:deskcolor="#d1d1d1"
     inkscape:document-units="mm"
     showgrid="false"
     inkscape:zoom="7.319248"
     inkscape:cx="80.131183"
     inkscape:cy="57.041379"
     inkscape:window-width="2560"
     inkscape:window-height="1351"
     inkscape:window-x="2391"
     inkscape:window-y="-9"
     inkscape:window-maximized="1"
     inkscape:current-layer="layer1" />
  <defs
     id="defs723" />
  <g
     inkscape:label="Layer 1"
     inkscape:groupmode="layer"
     id="layer1">
    <g
       id="g1021"
       style="display:inline"
       transform="matrix(0.34288714,0,0,0.34288714,-3.9340449,-3.9229012)">
      <g
         id="use1015">
        <path
           fill="#96989d"
           stroke="none"
           d="m 59.45,14.2 q -0.305859,-0.0791 -0.6,-0.15 -5.259766,-1.222656 -10.15,0 -2.857812,0.722852 -5.6,2.3 -7.7,4.6 -9.95,13.3 L 25.3,59.5 Q 23.05,68.2 27.45,75.8 32,83.6 40.7,85.9 49.3,88.1 57,83.55 64.7,79 67,70.4 L 74.8,40.45 Q 77.1,31.9 72.55,24.15 68.1,16.45 59.45,14.2 m -11.85,10 q 4.5,-2.65 9.55,-1.25 5.05,1.3 7.65,5.75 2.65,4.45 1.35,9.55 l -7.9,29.95 q -1.3,5.05 -5.8,7.55 Q 48,78.4 42.95,77.1 37.9,75.7 35.25,71.3 32.7,66.85 34,61.8 l 7.8,-29.95 q 1.3,-5 5.8,-7.65 z"
           id="path880" />
        <path
           fill="#bcbfc4"
           stroke="none"
           d="m 57.15,22.95 q -5.05,-1.4 -9.55,1.25 -4.5,2.65 -5.8,7.65 L 34,61.8 q -1.3,5.05 1.25,9.5 2.65,4.4 7.7,5.8 5.05,1.3 9.5,-1.35 4.5,-2.5 5.8,-7.55 l 7.9,-29.95 q 1.3,-5.1 -1.35,-9.55 -2.6,-4.45 -7.65,-5.75 z"
           id="path882" />
      </g>
      <path
         id="use1017"
         stroke="#434345"
         stroke-width="4"
         stroke-linejoin="round"
         stroke-linecap="round"
         fill="none"
         d="m 74.8,40.45 q 2.3,-8.55 -2.25,-16.3 -4.45,-7.7 -13.1,-9.95 -0.305859,-0.0791 -0.6,-0.15 -5.259766,-1.222656 -10.125,0 -2.882812,0.722852 -5.625,2.3 -7.7,4.6 -9.95,13.3 L 25.3,59.5 Q 23.05,68.2 27.45,75.8 32,83.6 40.7,85.9 49.3,88.1 57,83.55 64.7,79 67,70.4 Z" />
      <path
         id="use1019"
         stroke="#e3e7ed"
         stroke-width="4"
         stroke-linejoin="round"
         stroke-linecap="round"
         fill="none"
         d="m 66.15,38.25 q 1.3,-5.1 -1.35,-9.55 -2.6,-4.45 -7.65,-5.75 -5.05,-1.4 -9.55,1.25 -4.5,2.65 -5.8,7.65 L 34,61.8 q -1.3,5.05 1.25,9.5 2.65,4.4 7.7,5.8 5.05,1.3 9.5,-1.35 4.5,-2.5 5.8,-7.55 z" />
    </g>
  </g>
</svg>
