<?xml version="1.0" encoding="UTF-8" standalone="no"?>
<!-- Created with Inkscape (http://www.inkscape.org/) -->

<svg
   width="100"
   height="100"
   viewBox="0 0 26.458333 26.458333"
   version="1.1"
   id="svg11292"
   inkscape:version="1.2.1 (9c6d41e410, 2022-07-14)"
   sodipodi:docname="PS5_Cross.svg"
   xmlns:inkscape="http://www.inkscape.org/namespaces/inkscape"
   xmlns:sodipodi="http://sodipodi.sourceforge.net/DTD/sodipodi-0.dtd"
   xmlns="http://www.w3.org/2000/svg"
   xmlns:svg="http://www.w3.org/2000/svg">
  <sodipodi:namedview
     id="namedview11294"
     pagecolor="#ffffff"
     bordercolor="#000000"
     borderopacity="0.25"
     inkscape:showpageshadow="2"
     inkscape:pageopacity="0.0"
     inkscape:pagecheckerboard="true"
     inkscape:deskcolor="#d1d1d1"
     inkscape:document-units="mm"
     showgrid="false"
     inkscape:zoom="7.319248"
     inkscape:cx="73.29988"
     inkscape:cy="62.779673"
     inkscape:window-width="2560"
     inkscape:window-height="1351"
     inkscape:window-x="2391"
     inkscape:window-y="-9"
     inkscape:window-maximized="1"
     inkscape:current-layer="layer1" />
  <defs
     id="defs11289" />
  <g
     inkscape:label="Layer 1"
     inkscape:groupmode="layer"
     id="layer1">
    <g
       id="g14722"
       style="display:inline"
       transform="matrix(0.32704986,0,0,0.32704986,-3.1233261,-3.1396786)">
      <g
         id="use14718">
        <path
           fill="#434345"
           stroke="none"
           d="m 90.45,50 q 0,-6.896289 -2,-12.95 -2.884766,-8.69375 -9.9,-15.65 H 78.6 Q 66.8,9.6 50,9.6 q -1.519922,0 -3,0.1 -14.829883,0.970703 -25.65,11.7 -6.949219,6.978711 -9.8,15.65 -0.588672,1.753125 -1,3.55 -0.257812,1.178711 -0.45,2.35 -0.55,3.40918 -0.55,7.05 0,4.876367 1,9.3 2.435156,10.899805 10.8,19.3 v 0.05 q 11.9,11.8 28.65,11.8 16.75,0 28.55,-11.8 L 78.6,78.6 Q 90.45,66.75 90.45,50 m -6.3,-12.95 q 2.3,6.004297 2.3,12.95 0,15.1 -10.7,25.8 Q 65.1,86.45 50,86.45 34.9,86.45 24.2,75.8 H 24.15 Q 13.55,65.1 13.55,50 q 0,-3.655469 0.6,-7.05 0.583008,-3.055469 1.65,-5.9 2.625781,-7.048633 8.35,-12.8 L 24.2,24.2 q 9.621289,-9.531445 22.8,-10.5 1.477734,-0.1 3,-0.1 15.1,0 25.75,10.65 5.77832,5.751172 8.4,12.8 z"
           id="path11442" />
        <path
           fill="#96989d"
           stroke="none"
           d="m 86.45,50 q 0,-6.945703 -2.3,-12.95 -2.62168,-7.048828 -8.4,-12.8 Q 65.1,13.6 50,13.6 q -1.522266,0 -3,0.1 -13.178711,0.968555 -22.8,10.5 l -0.05,0.05 q -5.724219,5.751367 -8.35,12.8 -1.066992,2.844531 -1.65,5.9 -0.6,3.394531 -0.6,7.05 0,15.1 10.6,25.8 H 24.2 Q 34.9,86.45 50,86.45 65.1,86.45 75.75,75.8 86.45,65.1 86.45,50 M 47,17.1 q 1.475195,-0.1 3,-0.1 13.6,0 23.3,9.6 h 0.05 Q 78.082031,31.332031 80.5,37.05 83,42.992578 83,50 83,63.65 73.35,73.35 63.65,83 50,83 36.25,83 26.6,73.35 V 73.3 Q 17,63.6 17,50 q 0,-3.668359 0.7,-7.05 0.620508,-3.067969 1.8,-5.9 2.402734,-5.703711 7.1,-10.45 8.620508,-8.531445 20.4,-9.5 z"
           id="path11444" />
        <path
           fill="#e3e7ed"
           stroke="none"
           d="m 50,17 q -1.524805,0 -3,0.1 -11.779492,0.968555 -20.4,9.5 -4.697266,4.746289 -7.1,10.45 -1.179492,2.832031 -1.8,5.9 Q 17,46.331641 17,50 q 0,13.6 9.6,23.3 v 0.05 Q 36.25,83 50,83 63.65,83 73.35,73.35 83,63.65 83,50 83,42.992578 80.5,37.05 78.082031,31.332031 73.35,26.6 H 73.3 Q 63.6,17 50,17 m -3,3.1 q 1.47207,-0.1 3,-0.1 12.4,0 21.15,8.75 3.818555,3.796875 5.95,8.3 2.85,5.874023 2.85,12.95 0,12.35 -8.8,21.15 -8.8,8.8 -21.15,8.8 -12.5,0 -21.25,-8.8 Q 20,62.4 20,50 q 0,-3.688086 0.75,-7.05 0.698437,-3.087695 2,-5.9 2.174609,-4.503125 5.95,-8.3 L 28.75,28.7 Q 36.430469,21.063477 47,20.1 Z"
           id="path11446" />
        <path
           fill="#bcbfc4"
           stroke="none"
           d="m 50,20 q -1.52793,0 -3,0.1 -10.569531,0.963477 -18.25,8.6 l -0.05,0.05 q -3.775391,3.796875 -5.95,8.3 -1.301563,2.812305 -2,5.9 Q 20,46.311914 20,50 q 0,12.4 8.75,21.15 8.75,8.8 21.25,8.8 12.35,0 21.15,-8.8 8.8,-8.8 8.8,-21.15 0,-7.075977 -2.85,-12.95 -2.131445,-4.503125 -5.95,-8.3 Q 62.4,20 50,20 M 50,50 63,63 50,50 37,63 50,50 37.05,37.05 50,50 62.95,37.05 Z"
           id="path11448" />
      </g>
      <path
         id="use14720"
         stroke="#54565a"
         stroke-width="5"
         stroke-linejoin="round"
         stroke-linecap="round"
         fill="none"
         d="M 62.95,37.05 50,50 63,63 M 37,63 50,50 37.05,37.05" />
    </g>
  </g>
</svg>
